<?xml version="1.0" encoding="UTF-8"?>
<svg xmlns="http://www.w3.org/2000/svg" viewBox="0 0 209.97 260">
  <defs>
    <style>
      .cls-1 {
        fill: #5b5b5b;
      }

      .cls-2 {
        fill: #fffffa;
        stroke: #cecece;
        stroke-linecap: round;
        stroke-linejoin: round;
        stroke-width: 7px;
      }
    </style>
  </defs>
  <g id="_レイヤー_1" data-name="レイヤー 1">
    <path class="cls-2" d="M205.91,136.05c5.15,66.33-24.68,120.45-100.96,120.45-69.55,0-106.21-54.13-100.96-120.45C8.48,79.4,50.32,3.5,106.07,3.5s95.35,74.8,99.83,132.55Z"/>
    <polyline class="cls-2" points="4.61 127.5 29.46 155 65.46 127.5 104.46 160 144.46 127.5 184.46 156 205.32 127.5"/>
  </g>
  <g id="amu2kb">
    <g>
      <path class="cls-1" d="M71.78,72.76c0,.26-.09.49-.27.67-.18.18-.4.27-.67.27-.16,0-.29-.03-.41-.09-1.91-.95-3.83-1.77-5.76-2.47-.14-.05-.27-.07-.38-.07-.44,0-.67.27-.67.81v6.26c0,.26-.09.49-.28.67s-.4.28-.66.28-.49-.09-.68-.28c-.19-.19-.29-.41-.29-.67v-13.27c0-.26.1-.49.29-.67.19-.19.42-.28.68-.28s.47.09.66.28.28.41.28.67v2.81c0,.83.39,1.38,1.17,1.66,2.45.88,4.6,1.73,6.44,2.57.36.17.54.45.54.85Z"/>
      <path class="cls-1" d="M91.42,70.94c0,.26-.09.49-.26.67s-.39.27-.66.27h-13.27c-.26,0-.48-.09-.66-.27-.17-.18-.26-.4-.26-.67s.09-.49.26-.67c.17-.18.39-.27.66-.27h13.27c.26,0,.48.09.66.27.17.18.26.4.26.67Z"/>
      <path class="cls-1" d="M109.38,67.27c0,.43-.21.89-.63,1.39-1.18,1.38-2.85,3-5.02,4.86-.25.22-.38.44-.38.67,0,.2.09.41.27.61.26.3.58.67.94,1.12.16.19.23.4.23.63,0,.26-.1.49-.29.67-.19.19-.43.28-.7.28-.31,0-.56-.13-.76-.38-1.42-1.85-2.89-3.46-4.43-4.84-.2-.18-.31-.4-.31-.67s.09-.47.27-.65.4-.27.65-.27.44.08.61.23c.29.28.73.7,1.31,1.26.22.22.43.32.65.32.2,0,.41-.09.63-.27,1.74-1.46,2.9-2.54,3.49-3.24.22-.26.32-.48.32-.65,0-.31-.32-.47-.97-.47h-9.88c-.24,0-.45-.09-.63-.27-.18-.18-.27-.39-.27-.63s.09-.45.26-.62c.17-.17.39-.26.64-.26h12.33c1.1,0,1.66.39,1.66,1.17Z"/>
      <path class="cls-1" d="M127.15,77.17c0,.26-.09.49-.28.67s-.41.28-.68.28c-.29,0-.53-.11-.72-.32-1.27-1.46-2.48-2.75-3.62-3.87-.19-.19-.39-.29-.59-.29-.23,0-.45.12-.67.36-1.28,1.43-3.04,2.79-5.26,4.09-.14.08-.29.13-.45.13-.25,0-.47-.09-.65-.27-.18-.18-.27-.4-.27-.65,0-.36.16-.63.47-.81,3.94-2.22,6.49-5,7.67-8.33.08-.23.13-.42.13-.58,0-.44-.35-.67-1.04-.67h-6.05c-.24,0-.45-.09-.62-.27-.17-.18-.26-.39-.26-.63s.09-.45.26-.62.38-.26.62-.26h7.4c.59,0,1.05.14,1.39.4.34.27.5.65.5,1.12,0,.23-.05.49-.14.79-.41,1.27-.92,2.46-1.53,3.56-.13.24-.2.46-.2.67,0,.3.13.58.4.83,1.32,1.27,2.63,2.61,3.94,4.01.17.18.25.4.25.65Z"/>
      <path class="cls-1" d="M145.71,71.45c0,3.66-1.85,5.9-5.56,6.71-.04.01-.1.02-.2.02-.24,0-.45-.08-.62-.25-.17-.17-.26-.38-.26-.63,0-.48.22-.77.65-.88,2.77-.7,4.16-2.36,4.16-5,0-1.38-.37-2.48-1.12-3.31-.28-.31-.62-.59-1.03-.83-.47-.26-.89-.4-1.26-.4-.52,0-.83.3-.94.9-.46,2.62-1,4.72-1.62,6.32-.4,1.01-.79,1.76-1.17,2.27-.61.78-1.33,1.17-2.14,1.17-1.09,0-1.97-.55-2.63-1.64-.58-.94-.86-1.98-.86-3.13,0-2.23.74-4.08,2.22-5.54,1.48-1.46,3.34-2.2,5.57-2.2,2.1,0,3.74.54,4.93,1.62,1.25,1.13,1.87,2.73,1.87,4.81ZM137.7,67.83c.01-.08.02-.17.02-.25,0-.44-.21-.67-.61-.67-.14,0-.3.03-.47.09-1.1.38-2,1.1-2.7,2.15-.7,1.05-1.04,2.25-1.04,3.61,0,.74.17,1.4.52,1.97.35.57.74.85,1.17.85.52,0,1.07-.73,1.66-2.18.49-1.22.98-3.08,1.46-5.58Z"/>
      <path class="cls-1" d="M57.64,93.86c0,.24-.09.45-.26.62s-.38.26-.62.26h-4.16c-.58,0-.88.3-.9.9-.08,1.84-.49,3.36-1.22,4.57-.88,1.43-2.24,2.56-4.09,3.4-.13.06-.26.09-.38.09-.26,0-.49-.09-.68-.28s-.28-.41-.28-.67c0-.4.19-.68.56-.85,1.52-.7,2.63-1.61,3.31-2.75.55-.92.86-2.09.92-3.49.02-.61-.28-.92-.9-.92h-5.35c-.24,0-.45-.09-.62-.26s-.26-.38-.26-.62.09-.44.26-.61.38-.25.62-.25h5.36c.6,0,.9-.3.9-.9v-2c0-.25.09-.47.27-.66.18-.19.4-.28.67-.28s.47.09.65.28c.18.19.27.4.27.66v2c0,.6.3.9.9.9h4.14c.24,0,.45.08.62.25s.26.37.26.61Z"/>
      <path class="cls-1" d="M75.49,96.18c0,.22-.07.41-.2.58-2.64,3.26-5.96,5.48-9.97,6.66-.29.08-.56.13-.81.13-.97,0-1.46-.56-1.46-1.69v-11.16c0-.26.09-.49.28-.68s.41-.28.67-.28.47.09.66.28c.19.19.28.41.28.68v9.49c0,.74.25,1.12.74,1.12.2,0,.47-.06.79-.18,1.28-.49,2.55-1.19,3.8-2.09,1.39-1.02,2.56-2.15,3.51-3.4.2-.26.46-.4.77-.4.26,0,.49.09.67.28.18.19.27.41.27.67Z"/>
      <path class="cls-1" d="M94,95.94c0,.26-.09.49-.26.67s-.39.27-.66.27h-13.27c-.26,0-.48-.09-.66-.27-.17-.18-.26-.4-.26-.67s.09-.49.26-.67c.17-.18.39-.27.66-.27h13.27c.26,0,.48.09.66.27.17.18.26.4.26.67Z"/>
      <path class="cls-1" d="M103.21,95.91c0,.25-.09.47-.27.65-.18.18-.4.27-.65.27-.16,0-.3-.04-.43-.11-.91-.5-1.97-.97-3.17-1.4-.37-.13-.56-.41-.56-.83,0-.25.09-.46.26-.64.17-.17.38-.26.62-.26.1,0,.19.02.29.05,1.19.41,2.33.9,3.42,1.48.32.17.49.43.49.79ZM111.82,94.18c0,.12-.03.25-.09.38-1.09,2.44-2.48,4.35-4.18,5.74-1.74,1.42-4.03,2.47-6.88,3.15-.07.01-.14.02-.22.02-.25,0-.47-.09-.66-.27-.19-.18-.28-.4-.28-.65,0-.49.24-.8.72-.92,2.5-.6,4.49-1.48,5.99-2.65,1.56-1.22,2.82-2.95,3.78-5.17.17-.38.46-.58.86-.58.26,0,.49.09.67.27.18.18.27.4.27.67ZM105.03,92c0,.26-.09.48-.28.65s-.4.25-.64.25c-.14,0-.29-.04-.43-.13-.84-.47-1.91-.94-3.2-1.4-.38-.13-.58-.41-.58-.85,0-.25.09-.46.26-.63s.38-.25.62-.25c.11,0,.21.02.31.05,1.28.46,2.44.95,3.46,1.49.32.17.49.44.49.81Z"/>
      <path class="cls-1" d="M127.94,101.54c0,1.24-.62,1.85-1.85,1.85h-7.97c-.23,0-.43-.08-.59-.25s-.25-.37-.25-.59.08-.42.25-.58.37-.24.59-.24h7.04c.56,0,.9-.12,1.01-.36.06-.14.09-.39.09-.74v-1.1c0-.54-.27-.81-.81-.81h-6.5c-.23,0-.42-.08-.58-.24-.16-.16-.24-.36-.24-.59s.08-.42.24-.58c.16-.16.36-.24.58-.24h6.5c.54,0,.81-.27.81-.81v-.83c0-.46-.07-.76-.2-.9s-.43-.22-.9-.22h-6.88c-.23,0-.42-.08-.58-.24-.16-.16-.24-.36-.24-.58s.08-.42.24-.58c.16-.16.36-.24.58-.24h7.81c1.24,0,1.85.62,1.85,1.85v7.04Z"/>
      <path class="cls-1" d="M140.33,92.94c0,.28-.1.51-.3.7-.2.19-.43.29-.69.29-.19,0-.38-.07-.56-.2-.97-.71-2.04-1.34-3.2-1.89-.34-.16-.5-.44-.5-.85,0-.26.09-.49.28-.67.19-.18.41-.27.66-.27.13,0,.26.03.4.09,1.36.65,2.52,1.31,3.49,1.98.29.2.43.47.43.81ZM147.98,93.37c0,.12-.02.24-.07.36-1.03,2.5-2.42,4.49-4.17,5.99s-4.01,2.65-6.79,3.46c-.08.02-.17.04-.25.04-.26,0-.5-.1-.69-.29-.2-.19-.3-.43-.3-.7,0-.48.25-.79.74-.94,2.46-.71,4.42-1.68,5.89-2.92,1.56-1.31,2.81-3.11,3.74-5.4.17-.4.47-.59.92-.59.28,0,.51.1.7.3.19.2.29.43.29.69Z"/>
      <path class="cls-1" d="M166.46,96.45c0,3.66-1.85,5.9-5.56,6.71-.04.01-.1.02-.2.02-.24,0-.45-.08-.62-.25-.17-.17-.26-.38-.26-.63,0-.48.22-.77.65-.88,2.77-.7,4.16-2.36,4.16-5,0-1.38-.37-2.48-1.12-3.31-.28-.31-.62-.59-1.03-.83-.47-.26-.89-.4-1.26-.4-.52,0-.83.3-.94.9-.46,2.62-1,4.72-1.62,6.32-.4,1.01-.79,1.76-1.17,2.27-.61.78-1.33,1.17-2.14,1.17-1.09,0-1.97-.55-2.63-1.64-.58-.94-.86-1.98-.86-3.13,0-2.23.74-4.08,2.22-5.54,1.48-1.46,3.34-2.2,5.57-2.2,2.1,0,3.74.54,4.93,1.62,1.25,1.13,1.87,2.73,1.87,4.81ZM158.45,92.83c.01-.08.02-.17.02-.25,0-.44-.21-.67-.61-.67-.14,0-.3.03-.47.09-1.1.38-2,1.1-2.7,2.15-.7,1.05-1.04,2.25-1.04,3.61,0,.74.17,1.4.52,1.97.35.57.74.85,1.17.85.52,0,1.07-.73,1.66-2.18.49-1.22.98-3.08,1.46-5.58Z"/>
      <path class="cls-1" d="M48.89,116.77c0,.23-.08.43-.25.59-.17.17-.37.25-.59.25h-7.74c-.37,0-.61.13-.72.4-.06.14-.1.43-.11.86-.01.55.25.83.79.83h4.61c1.22,0,1.84.61,1.84,1.84v3.01c0,1.91-.29,3.14-.86,3.71-.52.51-1.59.76-3.22.76h-1.26c-.23,0-.43-.08-.59-.25-.17-.17-.25-.37-.25-.6s.08-.42.25-.58c.17-.16.37-.23.59-.23h.99c1.15,0,1.87-.16,2.14-.49.28-.32.41-1.17.41-2.54v-2.05c0-.62-.31-.94-.94-.94h-3.92c-.5,0-.79.25-.86.76-.22,1.42-.56,2.6-1.03,3.55-.62,1.27-1.57,2.36-2.83,3.28-.17.12-.35.18-.54.18-.25,0-.47-.09-.65-.27-.18-.18-.27-.4-.27-.65,0-.31.13-.56.38-.74,1.2-.86,2.06-1.92,2.59-3.17.44-1.07.71-2.41.79-4.01.02-.52.04-1.12.05-1.82.01-.55-.26-.83-.81-.83h-2.95c-.23,0-.43-.08-.59-.25-.17-.17-.25-.37-.25-.59s.08-.43.25-.59c.17-.17.37-.25.59-.25h5.26c.54,0,.81-.27.81-.81v-.85c0-.25.09-.47.26-.65.17-.18.39-.27.64-.27s.45.09.62.27c.17.18.26.4.26.65v.85c0,.54.27.81.81.81h5.45c.23,0,.43.08.59.25.17.17.25.37.25.59Z"/>
      <path class="cls-1" d="M55.28,115.26c-.48,2.75-.72,5.35-.72,7.79,0,1.72.07,3.15.2,4.3.04.28-.04.52-.23.74-.19.22-.43.32-.7.32-.25,0-.47-.08-.65-.25-.18-.17-.28-.37-.31-.61-.12-1.15-.18-2.62-.18-4.39,0-2.66.25-5.41.76-8.23.1-.52.4-.77.92-.77.29,0,.52.11.71.33.19.22.25.48.21.77ZM66.21,126.24c0,.22-.08.41-.23.58-.16.17-.34.27-.56.3-1.56.2-2.86.31-3.91.31-3.18,0-4.77-.96-4.77-2.88,0-.54.15-1.09.45-1.66.17-.32.42-.49.76-.49.59,0,.88.28.88.85,0,.12-.04.3-.11.53-.07.23-.11.42-.11.57,0,.49.29.83.88,1.03.5.18,1.3.27,2.39.27.89,0,1.98-.1,3.28-.31.28-.05.52.02.73.21.21.19.31.42.31.69ZM65.58,116.71c0,.23-.08.43-.23.59s-.34.27-.57.31c-1.36.19-2.79.29-4.3.29-.67,0-1.4-.02-2.2-.07-.23-.01-.43-.1-.59-.28-.17-.17-.25-.38-.25-.62,0-.26.1-.48.3-.66.2-.17.42-.25.67-.23.67.06,1.39.09,2.14.09,1.36,0,2.68-.1,3.98-.31.28-.05.52.02.73.2.21.18.31.41.31.68Z"/>
      <path class="cls-1" d="M84.55,123.97c0,1.43-.55,2.53-1.64,3.29-.94.66-2.18,1.03-3.73,1.12-.24.01-.45-.06-.63-.22-.18-.16-.27-.36-.27-.6,0-.22.07-.41.22-.57s.32-.25.54-.28c2.45-.24,3.67-1.15,3.67-2.74,0-.68-.29-1.23-.86-1.65-.58-.41-1.32-.62-2.23-.62s-1.72.08-2.5.23c-.62.12-.94.52-.94,1.19v3.8c0,1.04-.5,1.57-1.51,1.57s-1.96-.29-2.95-.88c-1.14-.68-1.72-1.46-1.73-2.32,0-.64.34-1.31,1.01-2.02.67-.71,1.56-1.35,2.66-1.9.55-.28.83-.7.83-1.28v-1.1c0-.54-.28-.8-.83-.79-.97.02-1.72.02-2.25,0-.22-.01-.4-.1-.56-.26-.16-.16-.23-.35-.23-.57,0-.24.08-.44.25-.6s.37-.24.61-.23c.72.04,1.46.04,2.21.02.53-.01.79-.29.79-.83v-1.22c0-.23.08-.43.25-.59.17-.17.37-.25.59-.25s.43.08.59.25c.17.17.25.37.25.59v.99c0,.58.29.82.86.74.4-.06.87-.14,1.42-.23.25-.05.48,0,.68.17.2.16.31.38.31.64,0,.47-.23.74-.7.83-.53.07-1.06.14-1.58.22-.66.16-.99.46-.99.92v.83c0,.48.22.72.65.72.08,0,.17,0,.25-.02.82-.16,1.61-.23,2.39-.23,1.45,0,2.63.31,3.53.92,1.03.7,1.55,1.69,1.55,2.99ZM74.49,125.66v-1.85c0-.48-.18-.72-.54-.72-.14,0-.29.05-.45.14-1.1.67-1.66,1.33-1.66,1.96,0,.37.28.71.85,1.01.53.29.92.43,1.19.43.41,0,.61-.32.61-.97ZM84.88,118.1c0,.24-.08.45-.25.63-.17.18-.37.27-.61.27s-.43-.08-.59-.23c-.67-.62-1.46-1.18-2.38-1.66-.3-.16-.45-.4-.45-.74,0-.24.08-.44.25-.61s.37-.25.59-.25c.14,0,.28.03.4.09,1.01.52,1.92,1.13,2.74,1.84.2.18.31.4.31.67Z"/>
      <path class="cls-1" d="M102.08,123.48c0,1-.49,1.49-1.48,1.49h-9.2c-.4,0-.67.07-.84.21-.16.14-.29.41-.37.8-.17.8-.56,1.77-1.17,2.9-.17.31-.43.47-.79.47-.24,0-.45-.08-.62-.25-.17-.17-.26-.38-.26-.63,0-.16.04-.3.11-.43.92-1.68,1.39-3.5,1.39-5.47v-.97c0-.98.49-1.48,1.48-1.48h10.28c.98,0,1.48.49,1.48,1.48v1.89ZM103.45,115.44c0,.2-.07.38-.22.53s-.33.23-.53.23h-5.67c-.48,0-.72.22-.72.67s.24.68.72.68h4.72c.2,0,.38.07.52.22.14.14.22.32.22.52s-.07.38-.22.52c-.14.14-.32.22-.52.22h-12.55c-.2,0-.38-.07-.52-.22s-.22-.32-.22-.52.07-.38.22-.52.32-.22.52-.22h4.64c.48,0,.72-.23.72-.68s-.24-.67-.72-.67h-5.53c-.2,0-.38-.07-.53-.23-.15-.15-.22-.33-.22-.53s.07-.38.22-.53c.15-.15.33-.23.53-.23h5.53c.48,0,.72-.19.72-.56,0-.24.09-.44.26-.61.17-.17.38-.25.62-.25s.44.08.61.25c.17.17.25.37.25.61,0,.37.24.56.72.56h5.67c.2,0,.38.08.53.23.15.15.22.33.22.53ZM94.6,122.76v-.56c0-.48-.24-.72-.72-.72h-2.65c-.47,0-.71.24-.72.72l-.02.56c-.01.48.23.72.72.72h2.66c.48,0,.72-.24.72-.72ZM100.37,122.76v-.56c0-.48-.24-.72-.72-.72h-2.63c-.48,0-.72.24-.72.72v.56c0,.48.24.72.72.72h2.63c.48,0,.72-.24.72-.72Z"/>
      <path class="cls-1" d="M116.5,120.28c0,1.94-.32,4.06-.95,6.34-.19.68-.4,1.17-.63,1.46-.32.43-.77.65-1.35.65-.66,0-1.49-.17-2.48-.52-.41-.14-.61-.41-.61-.81,0-.24.09-.44.26-.61.17-.17.38-.25.6-.25.1,0,.18.01.25.04.62.2,1.06.31,1.3.31.29,0,.49-.08.61-.25.1-.12.2-.39.32-.81.56-1.93.85-3.68.85-5.26,0-.58-.11-.96-.34-1.15-.23-.19-.66-.29-1.3-.29h-.25c-.11.01-.2.02-.27.02-.6,0-.99.31-1.17.94-.8,2.72-1.87,5.36-3.2,7.9-.18.35-.46.52-.85.52-.26,0-.49-.09-.67-.28-.18-.19-.27-.41-.27-.67,0-.19.04-.35.11-.49,1.13-1.98,2.12-4.22,2.99-6.71.04-.12.05-.23.05-.32,0-.43-.26-.61-.77-.54-.37.06-.95.14-1.75.25-.25.04-.48-.03-.69-.21-.21-.17-.31-.39-.31-.66,0-.5.26-.79.79-.87.53-.08,1.36-.18,2.5-.31.58-.05.97-.41,1.17-1.08.11-.59.21-1.18.31-1.76.08-.52.38-.77.9-.77.29,0,.52.11.69.31.17.21.24.46.19.75-.01.06-.07.32-.16.79-.08.32-.13.58-.13.77,0,.5.28.74.85.7l.27-.02c.91-.06,1.65.1,2.21.49.62.43.94,1.24.94,2.43ZM118.91,116.34c0,.19-.07.36-.21.5s-.3.21-.5.21c-.29,0-.5-.11-.63-.32-.35-.55-.72-1.03-1.12-1.42-.13-.13-.2-.29-.2-.49,0-.48.23-.72.7-.72.2,0,.38.09.54.27.5.56.92,1.09,1.26,1.58.1.14.14.28.14.4ZM120.07,122.64c-.5-1.31-1.18-2.59-2.03-3.83-.1-.14-.14-.31-.14-.49,0-.25.09-.46.28-.64.19-.17.41-.26.66-.26.3,0,.55.13.74.4.95,1.33,1.72,2.71,2.3,4.14.05.12.07.24.07.36,0,.25-.11.47-.32.67s-.45.29-.71.29c-.4,0-.68-.21-.85-.63ZM121.11,115.31c0,.19-.07.36-.21.49-.14.14-.3.21-.5.21-.28,0-.49-.11-.63-.32-.4-.59-.77-1.07-1.12-1.46-.13-.14-.2-.29-.2-.45,0-.48.24-.72.72-.72.18,0,.35.08.52.25.42.42.85.95,1.28,1.6.08.17.13.3.13.4Z"/>
      <path class="cls-1" d="M128.33,114.09c0,.06-.01.13-.04.22-.25.88-.47,1.59-.67,2.14-.22.61-.32,1.2-.32,1.76v10.26c0,.23-.08.43-.25.59s-.37.25-.59.25-.43-.08-.59-.25-.25-.37-.25-.59v-6.52c0-.31-.1-.47-.29-.47-.12,0-.24.09-.36.27l-.27.41c-.16.24-.37.36-.65.36-.23,0-.42-.08-.58-.23-.16-.16-.23-.35-.23-.58,0-.18.05-.34.14-.47,1.5-2.11,2.63-4.57,3.38-7.38.11-.38.36-.58.76-.58.23,0,.42.08.58.23.16.16.23.34.23.56ZM134.02,123.57c0,.24-.1.43-.29.58-1.33,1.03-2.72,1.89-4.16,2.57-.12.06-.24.09-.36.09-.23,0-.43-.08-.59-.24-.17-.16-.25-.36-.25-.6,0-.31.13-.55.38-.7.42-.25.63-.57.63-.95v-9.58c0-.22.08-.4.23-.56.16-.16.34-.23.56-.23.23,0,.42.08.58.23.16.16.23.34.23.56v8.57c0,.37.13.56.4.56.11,0,.23-.04.36-.13.34-.2.72-.46,1.15-.76.12-.08.26-.13.41-.13.48,0,.72.24.72.72ZM140.01,127.44c0,.24-.08.44-.25.61s-.37.25-.61.25c-.32,0-.56-.11-.72-.34-.43-.62-.78-1.16-1.05-1.61-.27-.45-.5-.67-.67-.67-.19,0-.44.21-.74.63-.65.9-1.44,1.74-2.38,2.52-.16.13-.34.2-.56.2-.24,0-.44-.08-.61-.24-.17-.16-.25-.36-.25-.6,0-.29.11-.52.32-.68,1.74-1.33,2.94-2.93,3.6-4.79.56-1.58.85-3.71.85-6.39v-1.73c0-.22.08-.4.23-.56.16-.16.34-.23.56-.23.23,0,.42.08.58.23.16.16.23.34.23.56v1.82c0,2.22-.22,4.13-.65,5.74-.11.38-.16.71-.16.99,0,.38.1.77.31,1.15.42.79,1.01,1.66,1.78,2.59.13.16.2.34.2.56ZM135.42,119c0,.22-.08.4-.23.55-.16.15-.34.23-.56.23-.3,0-.52-.12-.67-.36-.46-.76-.99-1.49-1.6-2.21-.13-.16-.2-.32-.2-.5,0-.22.07-.4.22-.55s.33-.23.55-.23c.23,0,.42.08.58.25.68.74,1.28,1.54,1.8,2.39.07.12.11.26.11.43Z"/>
      <path class="cls-1" d="M157.26,115.89c0,.48-.32.77-.97.86-1.81.28-3.42,1.02-4.82,2.24-1.4,1.22-2.11,2.5-2.11,3.84,0,1.88,1.55,3.13,4.66,3.73.52.1.77.4.77.92,0,.29-.11.53-.33.72-.22.19-.48.26-.76.22-1.74-.3-3.14-.84-4.19-1.62-1.32-.96-1.98-2.23-1.98-3.82,0-1.27.44-2.45,1.31-3.53.35-.43.73-.82,1.15-1.17.36-.3.54-.56.54-.77,0-.29-.31-.41-.92-.36-1.87.17-3.87.38-5.99.63-.26.04-.49-.04-.68-.22-.19-.18-.29-.4-.29-.67,0-.23.07-.43.22-.59.15-.17.34-.26.57-.29,2.17-.22,6.41-.54,12.73-.97.32-.02.59.04.79.21.2.16.31.38.31.64Z"/>
      <path class="cls-1" d="M167.96,124.87c-1.06,2.08-2.07,3.11-3.04,3.11-1.2,0-2.13-1.07-2.79-3.2-.52-1.66-.77-3.53-.77-5.63,0-1.08.04-2.01.11-2.79.02-.25.12-.46.3-.63s.39-.25.64-.25c.28,0,.51.11.69.32.19.21.27.45.24.73-.08.8-.13,1.73-.13,2.79,0,1.38.15,2.75.45,4.1.34,1.5.78,2.25,1.33,2.25.4,0,.85-.54,1.35-1.62.16-.32.43-.49.81-.49.25,0,.46.09.64.26s.26.39.26.64c0,.16-.03.29-.09.41ZM175.76,124.31c.04.29-.04.55-.23.77-.19.23-.44.34-.74.34-.25,0-.47-.08-.67-.25-.19-.17-.3-.37-.32-.61-.3-2.72-1.18-5.15-2.65-7.27-.11-.16-.16-.33-.16-.52,0-.26.09-.49.27-.67.18-.18.4-.27.67-.27.32,0,.58.13.77.4,1.66,2.3,2.68,5,3.06,8.08Z"/>
      <path class="cls-1" d="M44.93,140.89c0,.48-.32.77-.97.86-1.81.28-3.42,1.02-4.82,2.24-1.4,1.22-2.11,2.5-2.11,3.84,0,1.88,1.55,3.13,4.66,3.73.52.1.77.4.77.92,0,.29-.11.53-.33.72-.22.19-.48.26-.77.22-1.74-.3-3.14-.84-4.19-1.62-1.32-.96-1.98-2.23-1.98-3.82,0-1.27.44-2.45,1.31-3.53.35-.43.73-.82,1.15-1.17.36-.3.54-.56.54-.77,0-.29-.31-.41-.92-.36-1.87.17-3.87.38-5.99.63-.26.04-.49-.04-.68-.22s-.29-.4-.29-.67c0-.23.08-.43.23-.59s.34-.26.57-.29c2.17-.22,6.41-.54,12.73-.97.32-.02.59.04.79.21s.31.38.31.64Z"/>
      <path class="cls-1" d="M63.71,144.45c0,.43-.22.65-.65.65h-7.74c.06.12.09.23.09.34,0,.2-.08.38-.23.52-.19.18-.5.44-.94.79-.24.19-.36.38-.36.56,0,.13.07.25.22.34l.05.04c.17.12.34.18.5.18s.34-.06.5-.18c1-.66,1.91-1.35,2.75-2.07.13-.11.28-.16.45-.16.19,0,.36.07.5.22.14.14.21.31.21.5,0,.23-.1.41-.29.56-.44.34-1.13.83-2.05,1.49-.18.12-.27.25-.27.38,0,.17.16.25.47.23.5-.02,1.01-.05,1.51-.07.82-.07,1.22-.2,1.22-.38,0-.06-.04-.15-.12-.26-.08-.11-.12-.23-.12-.35,0-.18.07-.34.2-.48.13-.14.31-.21.54-.21.18,0,.34.05.47.16.46.36,1.28,1.01,2.47,1.96.17.13.25.33.25.59,0,.23-.08.42-.23.57-.16.15-.34.22-.56.22s-.4-.08-.56-.23l-.04-.04c-.36-.36-.82-.52-1.39-.47-.73.06-1.81.14-3.22.25-.47.02-.7.27-.7.74v2.57c0,.24-.08.44-.24.61s-.36.25-.6.25-.44-.08-.61-.25c-.17-.17-.25-.37-.25-.61v-2.45c0-.49-.25-.73-.74-.7-2.05.11-3.79.17-5.2.2-.19,0-.36-.07-.5-.2-.14-.13-.22-.29-.22-.49s.07-.36.21-.5c.14-.14.3-.21.5-.21.31,0,1.42-.02,3.33-.05.38-.01.58-.11.58-.29,0-.14-.11-.29-.34-.43-.49-.3-1.1-.65-1.84-1.04-.25-.13-.38-.34-.38-.61,0-.19.07-.36.21-.5.14-.14.3-.21.49-.21.1,0,.2.03.32.09l.29.14c.22.11.41.16.58.16.23,0,.45-.09.67-.27.28-.23.66-.56,1.15-.99h-5.42c-.43,0-.65-.22-.65-.65,0-.18.06-.33.19-.46.13-.13.28-.19.46-.19h5.63c.48,0,.72-.16.72-.47s-.24-.45-.72-.45h-4.1c-.41,0-.61-.2-.61-.61s.2-.61.61-.61h4.1c.48,0,.72-.14.72-.43s-.24-.43-.72-.43h-5.02c-.17,0-.31-.06-.44-.19s-.19-.28-.19-.46c0-.42.21-.63.63-.63h5.02c.48,0,.72-.18.72-.54,0-.23.08-.43.25-.59.17-.17.37-.25.59-.25s.42.08.58.25.24.37.24.59c0,.36.24.54.72.54h5.09c.42,0,.63.21.63.63,0,.18-.06.33-.19.46s-.27.19-.44.19h-5.09c-.48,0-.72.14-.72.43s.24.43.72.43h4.21c.41,0,.61.2.61.61s-.2.61-.61.61h-4.21c-.48,0-.72.15-.72.45s.24.47.72.47h5.69c.18,0,.33.06.46.19.13.13.19.28.19.46ZM52.83,151.31c0,.23-.08.41-.23.56-.7.62-1.55,1.24-2.57,1.84-.12.07-.26.11-.41.11-.22,0-.4-.07-.54-.22-.14-.14-.22-.32-.22-.54,0-.31.13-.54.38-.68.92-.52,1.7-1.06,2.34-1.64.13-.12.3-.18.5-.18s.38.08.53.22c.15.15.23.33.23.53ZM62.86,153.02c0,.22-.08.4-.24.56-.16.16-.35.23-.57.23-.12,0-.25-.04-.38-.11-1.01-.56-1.9-1.19-2.66-1.89-.17-.16-.25-.35-.25-.58,0-.22.07-.4.23-.55.15-.15.33-.23.55-.23.2,0,.38.07.52.2.6.54,1.4,1.09,2.41,1.66.26.14.4.38.4.7Z"/>
      <path class="cls-1" d="M82.39,141.91c0,.42-.22.67-.67.76-.25.05-.4.28-.43.7-.14,1.93-.53,3.72-1.15,5.36-.1.25-.14.47-.14.67,0,.26.08.53.25.79.5.78,1.1,1.56,1.8,2.34.13.14.2.34.2.58,0,.23-.08.42-.23.58-.16.16-.35.23-.58.23-.26,0-.48-.1-.65-.31-.34-.41-.73-.94-1.17-1.6-.23-.34-.43-.5-.59-.5-.18,0-.38.16-.61.49-.42.6-.9,1.19-1.44,1.76-.17.18-.37.27-.59.27-.22,0-.4-.08-.56-.23-.16-.16-.23-.35-.23-.58s.08-.4.23-.56c.85-.85,1.52-1.64,2.02-2.36.18-.25.27-.51.27-.77,0-.2-.05-.43-.16-.68-.31-.76-.56-1.52-.76-2.3-.06-.23-.15-.34-.27-.34s-.22.1-.29.31l-.04.11c-.1.3-.32.45-.67.45-.3,0-.52-.14-.65-.43v5.78c0,.64-.12,1.09-.36,1.37s-.64.41-1.21.41h-.95c-.2,0-.38-.07-.52-.22-.14-.14-.22-.32-.22-.52s.07-.38.22-.52c.14-.14.32-.22.52-.22h.43c.38,0,.58-.28.58-.83v-7.04c0-.48-.24-.72-.72-.72h-.92c-.36,0-.54.18-.54.54s.18.54.54.54h.61c.18,0,.33.06.46.19s.19.27.19.44c0,.18-.06.33-.19.46-.13.13-.28.19-.46.19h-.61c-.36,0-.54.18-.54.54v.14c0,.34.17.52.52.56.54.05.81.41.81,1.1v2.27c0,.74-.38,1.12-1.13,1.12h-1.71c-.74,0-1.12-.37-1.12-1.12v-2.27c0-.67.27-1.04.81-1.1.35-.04.52-.22.52-.56v-.14c0-.36-.18-.54-.54-.54h-.65c-.17,0-.31-.06-.44-.19-.13-.13-.19-.28-.19-.46,0-.17.06-.31.19-.44s.27-.19.44-.19h.65c.36,0,.54-.18.54-.54s-.18-.54-.54-.54h-.94c-.48,0-.72.24-.72.72v8.75c0,.2-.08.38-.23.53-.15.15-.33.23-.53.23s-.38-.08-.52-.23c-.14-.15-.22-.33-.22-.53v-9.34c0-.94.44-1.43,1.31-1.49.32-.02.49-.14.49-.36v-.02c-.01-.07-.03-.16-.05-.27l-.07-.16c-.14-.44-.45-.67-.92-.67h-.59c-.2,0-.38-.07-.51-.22-.14-.15-.21-.33-.21-.53,0-.48.24-.72.72-.72h2.57c.48,0,.72-.21.72-.63,0-.23.08-.43.25-.6s.37-.26.59-.26.43.09.59.26.25.38.25.6c0,.42.24.63.72.63h2.66c.2,0,.38.07.52.21s.22.31.22.51-.07.38-.22.53-.32.22-.52.22h-.61c-.47,0-.74.13-.81.38-.13.44-.2.68-.2.7,0,.24.16.37.47.4.86.06,1.3.56,1.3,1.49v1.82c.82-1.99,1.43-4.33,1.85-7,.07-.43.32-.65.74-.65.24,0,.43.09.58.27.15.18.21.39.17.63-.01.05-.05.26-.13.63-.06.28-.09.49-.09.63,0,.38.22.58.65.58h2.57c.2,0,.38.08.53.23.15.15.23.33.23.53ZM72.02,142.02c.04-.1.05-.19.05-.27,0-.31-.19-.47-.58-.47h-1.1c-.37,0-.56.16-.56.47,0,.07.01.16.04.25l.02.09c.13.44.44.67.92.67h.25c.44,0,.75-.22.92-.65l.04-.09ZM71.73,150.28v-.83c0-.38-.19-.58-.58-.58h-.47c-.38,0-.58.19-.58.58v.83c0,.37.19.56.58.56h.47c.38,0,.58-.19.58-.56ZM79.85,143.41c.02-.49-.21-.74-.7-.74h-.52c-.52,0-.74.25-.68.76.14,1.28.4,2.46.77,3.53.08.24.2.36.34.36.13,0,.23-.11.29-.34.25-.9.42-2.09.5-3.56Z"/>
      <path class="cls-1" d="M99.18,140.89c0,.48-.32.77-.97.86-1.81.28-3.42,1.02-4.82,2.24-1.4,1.22-2.11,2.5-2.11,3.84,0,1.94,1.55,3.19,4.66,3.73.52.08.77.39.77.92,0,.29-.11.53-.33.73-.22.2-.48.27-.77.21-1.86-.36-3.28-.91-4.25-1.66-1.28-1-1.93-2.26-1.93-3.78,0-1.3.44-2.47,1.31-3.53.38-.46.76-.84,1.13-1.15.37-.31.56-.58.56-.79,0-.29-.31-.41-.92-.36-2.46.22-4.46.43-5.99.63-.26.04-.49-.04-.68-.22s-.29-.4-.29-.67c0-.23.07-.43.22-.6.15-.17.34-.27.57-.28,2.21-.22,6.45-.54,12.73-.97.32-.01.59.06.79.23.2.16.31.37.31.62ZM98.21,146.2c0,.19-.07.36-.21.5-.14.14-.3.21-.5.21-.29,0-.5-.11-.63-.32-.35-.55-.72-1.03-1.12-1.42-.13-.13-.2-.29-.2-.49,0-.48.23-.72.7-.72.2,0,.38.09.54.27.5.56.92,1.09,1.26,1.58.1.14.14.28.14.4ZM100.41,145.17c0,.19-.07.36-.21.5-.14.14-.3.21-.5.21-.28,0-.49-.11-.63-.32-.4-.59-.77-1.07-1.12-1.46-.13-.14-.2-.29-.2-.45,0-.48.24-.72.72-.72.18,0,.35.08.52.25.42.42.85.95,1.28,1.6.08.17.13.3.13.4Z"/>
      <path class="cls-1" d="M117.17,148.84c0,.17-.05.33-.14.49-.82,1.33-1.79,2.39-2.93,3.19-1.29.88-2.65,1.31-4.09,1.31-3.16,0-4.73-1.43-4.73-4.28,0-1.16.02-2.69.07-4.59.04-1.54.07-3.2.09-5,0-.25.1-.47.29-.66.19-.19.41-.28.67-.28s.49.1.68.29c.19.19.28.42.27.68l-.22,9.16c0,1.88,1,2.83,2.99,2.83,1.07,0,2.09-.38,3.08-1.13.84-.62,1.58-1.46,2.21-2.5.18-.3.45-.45.81-.45.26,0,.49.09.68.28.19.19.28.41.28.68Z"/>
      <path class="cls-1" d="M130.25,142.79c-.88.17-1.76.31-2.66.41-.49.06-.85.19-1.07.38-.22.19-.39.52-.5.99-.67,2.84-1.51,5.57-2.5,8.19-.16.4-.45.59-.88.59-.26,0-.49-.09-.67-.28-.18-.19-.27-.4-.27-.66,0-.12.02-.24.07-.36,1.02-2.41,1.85-4.97,2.5-7.67.02-.1.04-.19.04-.27,0-.42-.25-.62-.76-.61s-.97.01-1.39,0c-.24-.01-.45-.11-.62-.28-.17-.17-.26-.38-.26-.62s.09-.47.28-.65c.19-.18.41-.26.66-.25.68.02,1.24.03,1.66.02.67-.02,1.06-.35,1.15-.99.04-.26.1-.66.18-1.18.08-.52.39-.78.92-.78.25,0,.47.09.65.27.18.18.27.39.27.63,0,.12-.05.42-.14.9-.01.08-.02.16-.02.23,0,.48.26.68.79.59.07-.01.49-.1,1.26-.25.58-.11.97-.16,1.19-.16.25,0,.46.09.62.27.16.18.24.4.24.65,0,.49-.25.79-.74.88ZM135.94,152.26c0,.52-.25.81-.76.88-1.14.17-2.34.25-3.6.25-3.19,0-4.79-.89-4.79-2.68,0-.41.1-.88.31-1.4.14-.36.41-.54.81-.54.56,0,.85.29.85.86,0,.1-.02.23-.05.4-.04.17-.05.31-.05.41,0,.82,1.03,1.22,3.08,1.22.9,0,1.97-.09,3.2-.27.26-.04.5.03.7.21s.31.39.31.66ZM135.44,145.57c0,.25-.1.47-.29.65-.19.18-.41.26-.67.25-1.79-.1-3.7-.05-5.74.13-.25.02-.47-.05-.66-.23-.19-.17-.28-.39-.28-.64,0-.23.07-.42.22-.58s.33-.25.55-.28c2.03-.2,4.02-.28,5.98-.22.24.01.45.11.62.29.17.18.26.39.26.63Z"/>
      <path class="cls-1" d="M145.07,152.03c0,.36-.12.66-.36.91s-.54.37-.9.37-.67-.12-.92-.37-.38-.55-.38-.91.13-.66.38-.91c.25-.25.56-.37.92-.37s.64.13.89.38c.25.25.37.55.37.9ZM150.97,140.56c0,.19-.05.38-.16.58l-4.64,8.19c-.17.29-.41.43-.72.43-.23,0-.43-.08-.59-.25-.17-.17-.25-.37-.25-.59,0-.11.03-.22.09-.34l4.05-8.5c.22-.46.56-.68,1.04-.68.32,0,.6.11.84.34.23.23.35.5.35.83Z"/>
    </g>
    <g>
      <path class="cls-1" d="M126,194.26c0,1.54-.54,2.76-1.62,3.67-.94.8-2.21,1.31-3.82,1.53-.25.04-.48-.03-.67-.21s-.3-.39-.3-.64c0-.49.24-.78.72-.86,2.57-.44,3.85-1.63,3.85-3.56,0-1.33-.55-2.27-1.64-2.81-.14-.07-.28-.11-.41-.11-.31,0-.56.2-.76.59-.78,1.63-1.67,3.05-2.68,4.27-1.55,1.85-3.09,2.77-4.63,2.77-.79,0-1.41-.22-1.85-.67-.44-.45-.66-1.06-.66-1.84,0-1.37.4-2.61,1.21-3.73.61-.85,1.37-1.55,2.29-2.09.54-.32.83-.77.86-1.35l.02-.34c.02-.55-.23-.83-.77-.83-.67,0-1.43,0-2.29-.02-.23,0-.42-.08-.58-.25-.16-.17-.24-.37-.24-.59s.09-.43.26-.59c.17-.17.38-.25.62-.23,1.1.05,1.93.07,2.47.05.49-.01.77-.27.85-.77l.11-.77c.07-.53.35-.79.85-.79.25,0,.47.11.67.32.19.22.27.44.23.67l-.05.34c-.05.29,0,.51.13.67.13.16.34.22.63.2,1.24-.1,2.63-.26,4.18-.49.25-.04.48.03.67.2.2.17.3.38.3.65,0,.49-.25.77-.76.83-1.88.23-3.43.38-4.63.45-.56.04-.86.29-.9.77-.02.29.04.5.19.62.15.13.37.17.66.13.47-.06.87-.09,1.21-.09,1.84,0,3.29.35,4.37,1.04,1.28.84,1.93,2.13,1.93,3.87ZM115.22,196.88c.54-.29.78-.86.72-1.71-.01-.54-.02-1.07-.04-1.6-.05-.84-.2-1.26-.47-1.26-.17,0-.36.1-.58.29-.47.41-.85.92-1.13,1.55-.31.66-.47,1.32-.47,1.98,0,.71.29,1.06.88,1.06.34,0,.7-.1,1.08-.31ZM119.74,191.57c.06-.12.09-.23.09-.32,0-.3-.19-.44-.56-.41-.55.04-.96.13-1.22.29-.37.22-.56.58-.58,1.08-.01.46,0,.97.02,1.55.01.36.14.54.38.54.17,0,.32-.1.47-.31.54-.76,1.01-1.56,1.4-2.41Z"/>
      <path class="cls-1" d="M143.62,196.4c0,1.31-.76,2.19-2.29,2.65-.89.26-2.36.4-4.41.4-1.36,0-2.33-.1-2.93-.31-1.06-.36-1.55-1.09-1.49-2.18.02-.48-.2-.74-.68-.77-.68-.06-1.21-.31-1.59-.76-.38-.45-.57-1.04-.57-1.75,0-.83.25-1.63.74-2.39.54-.84,1.25-1.31,2.14-1.4.34-.04.57-.08.69-.14.13-.05.19-.18.19-.37,0-.6-.31-.89-.92-.86-.56.02-1.22.04-1.96.04-.24,0-.44-.09-.61-.26-.17-.17-.25-.38-.25-.62s.09-.45.28-.62c.19-.17.4-.25.64-.24.66.04,1.31.04,1.96.02.58-.01.86-.32.86-.94v-.68c0-.25.09-.47.26-.65.17-.18.39-.27.64-.27s.47.09.65.27c.18.18.27.4.27.65v.36c0,.56.25.85.74.85.18,0,.43-.04.75-.13.32-.09.56-.13.73-.13.24,0,.45.08.62.25s.26.38.26.63c0,.48-.25.76-.74.85-.49.09-.99.18-1.49.28-.58.17-.86.5-.86.99v1.21c0,.3.07.81.2,1.53.04.19.05.41.05.65,0,.61-.18,1.37-.55,2.27-.37.9-.55,1.52-.55,1.85,0,.48.32.79.97.94.37.08,1.01.13,1.91.13,2.96,0,4.45-.5,4.45-1.49,0-.54-.1-1.32-.29-2.34-.06-.29,0-.54.19-.76.19-.22.43-.32.73-.32.49,0,.79.24.9.72.25,1.13.38,2.09.38,2.9ZM133.74,192.51c0-.77-.34-1.15-1.03-1.15-.43,0-.79.27-1.08.81-.24.46-.36.92-.36,1.4,0,.72.35,1.08,1.06,1.08.47,0,.83-.29,1.1-.88.2-.46.31-.88.31-1.26ZM144.43,189.04c0,.25-.09.47-.26.65-.17.18-.39.27-.64.27s-.44-.08-.61-.25c-.61-.6-1.33-1.15-2.16-1.66-.26-.16-.4-.4-.4-.72,0-.24.09-.45.26-.62s.38-.26.62-.26c.14,0,.29.05.45.14.84.5,1.66,1.1,2.45,1.78.19.17.29.39.29.67Z"/>
    </g>
  </g>
</svg>