<?xml version="1.0" encoding="UTF-8"?>
<svg xmlns="http://www.w3.org/2000/svg" viewBox="0 0 229.65 225.83">
  <defs>
    <style>
      .cls-1 {
        fill: #5b5b5b;
      }

      .cls-2 {
        fill: none;
      }

      .cls-2, .cls-3 {
        stroke: #cecece;
        stroke-linecap: round;
        stroke-linejoin: round;
        stroke-width: 7px;
      }

      .cls-3 {
        fill: #fff9e1;
      }
    </style>
  </defs>
  <g id="_レイヤー_1" data-name="レイヤー 1">
    <path class="cls-3" d="M224.95,155.23c2.52-2.12.78-6.23-2.5-5.91-36.17-4.16-1.99-39.1-26.9-93.86C165.51-11.74,63.52-13.65,27.71,49.1l-24.04,7.65s-2.19,18.58,9.51,26.01c-.91,53.06,18.17,121.05,101.33,114.55,41.55-3.56,81.27-17.6,110.44-42.08Z"/>
    <path class="cls-2" d="M58.73,187.2s-6.41,15.27-19.55,23.11"/>
    <path class="cls-2" d="M123.21,199.22s-6.41,15.27-19.55,23.11"/>
  </g>
  <g id="ayano2kb">
    <g>
      <path class="cls-1" d="M71.73,35.43c0,.21-.04.42-.13.66-.7,1.94-1.67,3.54-2.91,4.8-1.24,1.26-2.87,2.3-4.87,3.11-.09.04-.18.06-.27.06-.21,0-.38-.07-.52-.22-.14-.15-.21-.31-.21-.51,0-.34.16-.56.48-.69,1.5-.59,2.75-1.3,3.75-2.14.19-.15.28-.31.28-.49,0-.19-.12-.35-.35-.5-.64-.42-1.33-.82-2.04-1.19-.23-.12-.35-.31-.35-.57,0-.19.06-.34.2-.47.13-.13.28-.19.46-.19.09,0,.2.03.31.08.73.37,1.5.82,2.32,1.33.19.11.36.17.52.17.25,0,.47-.13.64-.39.47-.7.76-1.23.88-1.6.08-.23.13-.42.13-.57,0-.35-.31-.53-.94-.53h-2.56c-.64,0-1.16.23-1.58.7-.61.68-1.35,1.37-2.24,2.07-.13.1-.27.15-.42.15-.2,0-.36-.07-.5-.2s-.2-.3-.2-.48c0-.23.09-.42.27-.56,1.61-1.26,2.87-2.65,3.75-4.16.14-.23.34-.35.59-.35.19,0,.35.07.49.21.14.14.21.3.21.49,0,.06-.01.13-.04.23s-.03.18-.03.23c0,.23.15.35.45.35h2.98c.45,0,.8.1,1.06.31s.39.5.39.86Z"/>
      <path class="cls-1" d="M85.17,33.42c0,.19-.06.35-.18.49-.63.71-1.27,1.35-1.9,1.93-.48.43-.71.94-.71,1.54v6.23c0,.21-.07.38-.22.52-.15.14-.31.22-.51.22s-.38-.07-.53-.22c-.15-.15-.22-.32-.22-.52v-5.04c0-.39-.14-.59-.42-.59-.13,0-.27.05-.42.14-.93.6-2.01,1.18-3.23,1.74-.1.05-.21.07-.31.07-.2,0-.37-.07-.52-.22-.15-.15-.22-.32-.22-.51,0-.33.15-.56.46-.69,2.98-1.26,5.54-3.11,7.7-5.56.15-.17.33-.25.53-.25s.36.07.5.21c.14.14.21.31.21.5Z"/>
      <path class="cls-1" d="M100.29,42.93c0,.19-.07.35-.2.48s-.3.2-.48.2h-6.78c-.85,0-1.42-.14-1.7-.41-.28-.27-.43-.8-.43-1.6v-7.94c0-.2.07-.37.21-.51.14-.14.31-.22.5-.22s.36.07.5.22c.14.15.21.31.21.51v2.81c0,.42.17.63.52.63.08,0,.18-.01.28-.04,1.88-.59,3.44-1.2,4.7-1.83.11-.06.22-.08.34-.08.21,0,.38.07.53.22.15.15.22.32.22.52,0,.33-.14.55-.42.67-1.77.77-3.55,1.42-5.33,1.93-.56.16-.84.53-.84,1.11v1.33c0,.55.08.9.25,1.06s.55.23,1.15.23h6.08c.19,0,.35.07.48.2s.2.3.2.5ZM101.44,33.55c0,.41-.15.76-.46,1.06s-.66.44-1.07.44-.76-.14-1.05-.43-.43-.64-.43-1.06.14-.77.43-1.06.64-.43,1.05-.43.77.15,1.07.44.46.65.46,1.06ZM100.66,33.55c0-.2-.07-.36-.22-.5-.15-.14-.32-.21-.52-.21s-.36.07-.5.2c-.14.14-.2.31-.2.51s.07.38.2.51c.14.14.3.2.5.2s.38-.07.52-.21c.14-.14.22-.31.22-.5Z"/>
      <path class="cls-1" d="M108.67,35.73c0,.21-.08.4-.23.55-.15.15-.33.22-.54.22-.15,0-.29-.05-.43-.15-.76-.55-1.59-1.04-2.49-1.47-.26-.12-.39-.34-.39-.66,0-.21.07-.38.22-.52.14-.14.31-.21.51-.21.1,0,.21.02.31.07,1.05.5,1.96,1.02,2.72,1.54.22.16.34.37.34.63ZM114.62,36.07c0,.09-.02.19-.06.28-.8,1.94-1.88,3.5-3.24,4.66-1.36,1.17-3.12,2.06-5.29,2.69-.06.02-.13.03-.2.03-.21,0-.38-.07-.54-.22-.15-.15-.23-.33-.23-.55,0-.37.19-.62.57-.73,1.91-.55,3.44-1.31,4.58-2.27,1.21-1.02,2.18-2.42,2.91-4.2.13-.31.37-.46.71-.46.21,0,.4.08.55.23.15.15.22.33.22.54Z"/>
      <path class="cls-1" d="M127.89,35.43c0,.16-.03.34-.1.55-.62,1.89-1.53,3.49-2.74,4.79-1.21,1.3-2.79,2.38-4.75,3.23-.08.04-.18.06-.28.06-.2,0-.37-.07-.51-.21-.15-.14-.22-.31-.22-.52,0-.32.15-.54.46-.67,3.09-1.27,5.18-3.24,6.27-5.92.08-.21.13-.4.13-.55,0-.35-.28-.52-.83-.52h-2.48c-.61,0-1.12.25-1.55.74-.63.73-1.36,1.41-2.18,2.06-.13.1-.28.15-.45.15-.2,0-.36-.07-.5-.21-.14-.14-.21-.31-.21-.5,0-.23.1-.42.29-.57,1.66-1.31,2.86-2.69,3.58-4.14.12-.25.34-.38.64-.38.2,0,.36.07.5.21s.21.31.21.5c0,.05,0,.12-.03.22-.02.1-.03.17-.03.22,0,.23.14.35.42.35h2.95c.43,0,.77.1,1.01.3s.37.47.37.82ZM128.53,34.03c0,.14-.05.26-.15.36-.1.1-.22.15-.37.15-.2,0-.43-.17-.7-.52-.2-.26-.39-.52-.59-.78-.1-.1-.15-.22-.15-.35,0-.35.18-.53.53-.53.14,0,.27.07.39.2.38.43.7.82.94,1.18.07.09.1.19.1.29ZM130.17,33.26c0,.14-.05.26-.16.36s-.23.15-.37.15c-.21,0-.36-.08-.46-.24-.3-.44-.57-.8-.83-1.08-.09-.1-.14-.21-.14-.34,0-.35.18-.53.53-.53.12,0,.25.07.38.2.34.34.65.73.95,1.18.07.13.1.23.1.29Z"/>
      <path class="cls-1" d="M139.69,37.55c0,1.51-.25,3.15-.74,4.93-.15.53-.31.91-.49,1.13-.25.34-.6.5-1.05.5-.51,0-1.16-.14-1.93-.41-.32-.11-.48-.32-.48-.63,0-.19.07-.35.2-.48.14-.13.29-.2.47-.2.08,0,.14,0,.2.03.49.16.82.24,1.01.24.22,0,.38-.07.48-.2.07-.09.16-.3.25-.63.44-1.5.66-2.87.66-4.09,0-.45-.09-.75-.27-.9s-.51-.22-1.01-.22h-.2c-.08,0-.15.01-.21.01-.47,0-.77.24-.91.73-.62,2.12-1.46,4.17-2.49,6.15-.14.27-.36.41-.66.41-.21,0-.38-.07-.52-.22-.14-.14-.21-.32-.21-.53,0-.15.03-.27.08-.38.88-1.54,1.65-3.28,2.32-5.22.03-.09.04-.18.04-.25,0-.34-.2-.48-.6-.42-.29.05-.74.11-1.36.2-.2.03-.38-.03-.54-.16s-.25-.31-.25-.51c0-.39.21-.62.62-.68.41-.06,1.06-.14,1.95-.25.45-.04.75-.32.91-.84.08-.46.16-.91.24-1.37.07-.4.3-.6.7-.6.22,0,.4.08.54.25.13.16.18.36.15.58,0,.05-.05.25-.13.62-.06.25-.1.45-.1.6,0,.39.22.57.66.55h.21c.71-.06,1.28.07,1.72.36.49.34.73.97.73,1.89ZM141.57,34.49c0,.15-.05.28-.16.38s-.24.16-.38.16c-.22,0-.39-.08-.49-.25-.27-.43-.56-.8-.87-1.11-.1-.1-.15-.23-.15-.38,0-.37.18-.56.55-.56.16,0,.3.07.42.21.39.44.72.85.98,1.23.07.11.11.21.11.31ZM142.46,39.39c-.39-1.02-.92-2.01-1.58-2.98-.07-.11-.11-.24-.11-.38,0-.2.07-.36.22-.5s.31-.2.51-.2c.23,0,.42.1.57.31.74,1.04,1.33,2.11,1.79,3.22.04.09.06.19.06.28,0,.2-.08.37-.25.52-.16.15-.35.22-.55.22-.31,0-.53-.16-.66-.49ZM143.27,33.69c0,.15-.05.28-.16.39s-.24.16-.38.16c-.21,0-.38-.08-.49-.25-.31-.46-.6-.83-.87-1.13-.1-.11-.15-.23-.15-.35,0-.37.19-.56.56-.56.14,0,.28.07.41.2.33.33.66.74.99,1.25.07.13.1.23.1.31Z"/>
      <path class="cls-1" d="M157.76,38.38c0,.17-.06.31-.18.43-.12.12-.27.17-.43.17h-3.67c-.37,0-.56.14-.56.41,0,.11.04.23.13.35.9,1.38,2.28,2.53,4.14,3.46.25.12.38.31.38.57,0,.19-.07.34-.2.47-.13.13-.29.19-.46.19-.1,0-.2-.02-.29-.07-1.94-.97-3.44-2.23-4.49-3.79-.17-.25-.34-.38-.5-.38-.18,0-.36.14-.53.41-.4.62-.92,1.22-1.57,1.82-.85.78-1.82,1.44-2.9,1.96-.08.04-.16.06-.27.06-.18,0-.33-.06-.46-.18-.13-.12-.2-.27-.2-.45,0-.28.12-.48.36-.59,1.95-.91,3.33-2.08,4.13-3.49.07-.11.1-.22.1-.32,0-.28-.19-.42-.57-.42h-3.63c-.17,0-.31-.06-.43-.17-.12-.12-.17-.26-.17-.43,0-.16.06-.3.17-.42.12-.12.26-.18.43-.18h4.2c.44,0,.66-.2.66-.6v-.99c0-.42-.21-.63-.63-.63h-3.42c-.17,0-.31-.06-.43-.18-.12-.12-.17-.27-.17-.43,0-.16.06-.3.17-.41.12-.12.26-.17.43-.17h3.42c.42,0,.63-.21.63-.63v-.91c0-.18.06-.33.19-.46s.28-.19.46-.19.33.06.46.19.19.28.19.46v.91c0,.42.21.63.63.63h3.61c.17,0,.31.06.43.17.12.12.17.25.17.41,0,.17-.06.31-.17.43-.12.12-.26.18-.43.18h-3.61c-.42,0-.63.21-.63.62s0,.74-.01.96c-.02.43.19.64.62.64h4.31c.17,0,.31.06.43.18.12.12.18.26.18.42Z"/>
      <path class="cls-1" d="M57.98,54.46c0,2.85-1.44,4.59-4.33,5.22-.03,0-.08.01-.15.01-.19,0-.35-.07-.48-.2-.14-.13-.2-.29-.2-.49,0-.37.17-.6.5-.69,2.16-.54,3.23-1.84,3.23-3.89,0-1.07-.29-1.93-.87-2.58-.21-.24-.48-.46-.8-.64-.36-.21-.69-.31-.98-.31-.4,0-.64.23-.73.7-.35,2.04-.77,3.67-1.26,4.91-.31.78-.61,1.37-.91,1.76-.48.61-1.03.91-1.67.91-.85,0-1.53-.42-2.04-1.27-.45-.73-.67-1.54-.67-2.44,0-1.74.58-3.17,1.73-4.31,1.15-1.14,2.6-1.71,4.33-1.71,1.63,0,2.91.42,3.84,1.26.97.88,1.46,2.12,1.46,3.74ZM51.75,51.65c0-.06.01-.13.01-.2,0-.35-.16-.52-.48-.52-.11,0-.23.02-.36.07-.86.3-1.56.86-2.1,1.67-.54.82-.81,1.75-.81,2.81,0,.58.14,1.09.41,1.53.27.44.57.67.91.67.4,0,.83-.56,1.29-1.69.38-.95.76-2.4,1.13-4.34Z"/>
      <path class="cls-1" d="M72.65,59.73c0,.16-.05.29-.16.39-.11.1-.24.15-.39.15h-7.11c-1.3,0-2.32-.42-3.07-1.25-.12-.13-.23-.2-.34-.2-.14,0-.24.11-.29.34l-.22.97c-.07.28-.25.42-.56.42-.38,0-.57-.19-.57-.56,0-.04,0-.1.03-.2.48-1.48.73-3.09.76-4.83,0-.14.05-.26.15-.36.1-.1.22-.15.36-.15s.26.05.36.16c.1.11.15.23.15.37,0,.47-.02.93-.06,1.4-.03.4.03.73.18.98.21.34.37.5.49.5.14,0,.21-.1.21-.31v-3.37c0-.37-.19-.56-.56-.56h-1.2c-.16,0-.29-.06-.41-.17s-.17-.26-.17-.43c0-.16.06-.29.17-.41.11-.11.25-.17.41-.17h.84c.37,0,.56-.19.56-.56v-.48c0-.37-.19-.56-.56-.56h-.55c-.16,0-.29-.06-.41-.17-.11-.11-.17-.25-.17-.41s.06-.29.17-.41c.11-.11.25-.17.41-.17h.55c.37,0,.56-.19.56-.56v-.39c0-.17.06-.31.17-.43s.26-.18.43-.18c.16,0,.3.06.41.18.12.12.18.26.18.42v.39c0,.37.19.56.56.56h.45c.16,0,.29.06.41.17.11.11.17.25.17.41s-.06.29-.17.41c-.11.11-.25.17-.41.17h-.45c-.37,0-.56.19-.56.56v.48c0,.37.19.56.56.56h.66c.16,0,.3.06.41.17.12.11.18.25.18.41,0,.17-.06.31-.18.43s-.25.17-.41.17h-.35c-.37,0-.56.19-.56.56v.31c0,.37.19.56.56.56h.24c.37,0,.56.19.56.56s-.19.56-.56.56h-.24c-.37,0-.56.19-.56.56v1.46c0,.53.23.84.69.92.21.04.44.06.71.06h6.99c.15,0,.28.05.39.16.11.11.16.24.16.4ZM72.65,49.23c0,.14-.05.26-.16.37-.11.11-.23.16-.37.16h-2.67c-.37,0-.56.19-.56.56v7.92c0,.15-.06.28-.17.39-.11.11-.24.17-.39.17-.16,0-.29-.06-.4-.17-.11-.11-.16-.24-.16-.39v-.49c0-.34-.15-.5-.43-.5-.07,0-.14.01-.22.04-1.06.31-1.7.46-1.9.46-.14,0-.27-.05-.38-.16-.11-.11-.17-.23-.17-.37,0-.29.14-.46.43-.52h.07c.33-.08.49-.28.49-.63v-5.75c0-.37-.19-.56-.56-.56-.14,0-.26-.05-.36-.16-.1-.11-.15-.23-.15-.37s.05-.26.15-.37c.1-.11.22-.16.36-.16h7.03c.14,0,.26.05.37.16.11.11.16.23.16.37ZM67.76,55.56v-.32c0-.37-.18-.56-.53-.56s-.53.19-.53.56v.46c0,.35.14.52.42.52.06,0,.12,0,.18-.03.31-.08.46-.29.46-.63ZM67.81,50.73v-.41c0-.37-.17-.56-.52-.56s-.53.19-.53.56v.41c0,.37.18.56.53.56s.52-.19.52-.56ZM67.81,53.15v-.38c0-.37-.17-.56-.52-.56s-.53.19-.53.56v.38c0,.37.18.56.53.56s.52-.19.52-.56ZM72.82,57.81c0,.16-.06.3-.17.41s-.25.17-.41.17c-.21,0-.36-.08-.48-.24-.13-.2-.26-.39-.39-.59-.21-.28-.37-.42-.48-.42-.12,0-.26.13-.41.38-.12.21-.27.43-.45.69-.11.16-.27.24-.48.24-.16,0-.29-.06-.41-.17-.11-.11-.17-.25-.17-.41,0-.13.04-.25.11-.35.36-.49.65-.92.87-1.3.11-.2.17-.39.17-.57,0-.18-.06-.42-.18-.74-.1-.23-.2-.47-.29-.71-.27-.76-.41-1.25-.41-1.47,0-.15.05-.28.15-.38s.22-.15.37-.15c.28,0,.45.13.5.38.07.29.16.65.29,1.08.04.13.1.2.2.2s.16-.07.2-.21c.11-.45.19-.9.22-1.34.02-.22,0-.37-.06-.45-.06-.07-.2-.11-.43-.11h-.95c-.13,0-.25-.05-.34-.14s-.15-.21-.15-.34.05-.24.15-.34.21-.15.34-.15h1.62c.67,0,1.01.29,1.01.88,0,.47-.11,1.13-.32,1.99-.12.49-.26.95-.41,1.37-.07.18-.1.34-.1.48,0,.21.07.43.21.64.22.35.53.78.92,1.3.09.12.14.25.14.38Z"/>
      <path class="cls-1" d="M78.46,57.15c0,.75-.37,1.12-1.12,1.12h-1.44c-.75,0-1.12-.37-1.12-1.12v-7.25c0-.75.37-1.12,1.12-1.12h1.44c.75,0,1.12.37,1.12,1.12v7.25ZM77.26,56.52v-6.01c0-.35-.18-.53-.53-.53h-.18c-.35,0-.53.18-.53.53v6.01c0,.35.18.53.53.53h.18c.35,0,.53-.18.53-.53ZM86.93,53.47c0,.16-.06.29-.17.41-.11.11-.25.17-.41.17h-2.02c-.33,0-.49.12-.49.36,0,.09.03.2.1.31.77,1.22,1.68,2.37,2.74,3.43.12.12.18.27.18.43s-.06.31-.17.43c-.12.12-.26.18-.43.18-.18,0-.33-.07-.45-.2-.72-.77-1.34-1.54-1.88-2.3-.11-.16-.22-.24-.34-.24-.16,0-.24.14-.24.42v3.05c0,.17-.06.31-.17.43s-.26.18-.43.18-.32-.06-.44-.18-.19-.27-.19-.43v-3.05c0-.28-.08-.42-.24-.42-.11,0-.22.08-.34.25-.53.77-1.16,1.54-1.88,2.28-.12.13-.27.2-.43.2s-.31-.06-.43-.18c-.12-.12-.17-.26-.17-.43s.06-.31.17-.42c1.05-1.04,1.96-2.18,2.74-3.44.07-.11.11-.22.11-.32,0-.23-.16-.35-.49-.35h-1.85c-.16,0-.29-.06-.41-.17s-.17-.25-.17-.41.06-.29.17-.41c.11-.11.25-.17.41-.17h2.24c.37,0,.56-.19.56-.56v-.71c0-.37-.19-.56-.56-.56h-1.82c-.16,0-.3-.06-.41-.17s-.17-.25-.17-.41.06-.29.17-.41.25-.17.41-.17h1.82c.37,0,.56-.19.56-.56v-.62c0-.17.06-.31.19-.43.13-.12.27-.18.44-.18s.31.06.43.18c.12.12.17.27.17.43v.62c0,.37.19.56.56.56h1.95c.16,0,.29.06.41.17.11.11.17.25.17.41s-.06.29-.17.41c-.11.11-.25.17-.41.17h-1.95c-.37,0-.56.19-.56.56v.71c0,.37.19.56.56.56h2.42c.16,0,.29.06.41.17.11.11.17.25.17.41Z"/>
      <path class="cls-1" d="M91.76,49.65c-.37,2.14-.56,4.16-.56,6.06,0,1.33.05,2.45.15,3.35.03.21-.03.41-.18.57s-.33.25-.55.25c-.2,0-.36-.07-.5-.2-.14-.13-.22-.29-.24-.48-.09-.9-.14-2.03-.14-3.42,0-2.07.2-4.2.59-6.4.07-.4.31-.6.71-.6.22,0,.41.09.55.26.15.17.2.37.16.59ZM100.26,58.19c0,.17-.06.32-.18.46-.12.14-.27.21-.43.23-1.21.16-2.23.24-3.04.24-2.47,0-3.71-.75-3.71-2.24,0-.42.12-.85.35-1.29.13-.25.33-.38.59-.38.46,0,.69.22.69.66,0,.09-.03.23-.08.41-.06.18-.08.33-.08.44,0,.38.23.65.69.8.39.14,1.01.21,1.86.21.69,0,1.54-.08,2.55-.24.21-.04.4.02.57.16.16.15.25.32.25.54ZM99.77,50.78c0,.18-.06.33-.18.46s-.26.21-.44.24c-1.05.15-2.17.22-3.35.22-.52,0-1.09-.02-1.71-.06-.18,0-.33-.08-.46-.22s-.2-.3-.2-.48c0-.21.08-.38.23-.51s.33-.19.52-.17c.52.05,1.08.07,1.67.07,1.05,0,2.09-.08,3.09-.24.21-.04.4.01.57.15.16.14.25.32.25.53Z"/>
      <path class="cls-1" d="M109.39,51.58c-.48.1-.94.19-1.39.25-.52.08-.87.37-1.05.87-.65,1.88-1.4,3.66-2.23,5.35-.13.27-.35.41-.64.41-.2,0-.36-.07-.5-.21-.14-.14-.21-.31-.21-.5,0-.11.03-.22.08-.34.78-1.51,1.46-3.04,2.03-4.59.04-.1.06-.19.06-.27,0-.29-.2-.43-.59-.43h-.8c-.19,0-.35-.07-.48-.2s-.2-.3-.2-.48c0-.2.07-.36.21-.5s.31-.2.5-.19c.41.02.79.02,1.15.01.57,0,.92-.29,1.06-.85.07-.32.15-.63.24-.95.14-.35.37-.53.69-.53.2,0,.36.07.5.21s.21.3.21.49c0,.07-.05.28-.14.6-.03.11-.04.21-.04.29,0,.28.13.42.38.42.05,0,.1,0,.15-.01l.73-.15c.08-.02.14-.03.17-.03.19,0,.34.07.46.2.12.14.17.3.17.5,0,.35-.18.57-.53.64ZM114.69,58.51c0,.19-.07.35-.2.49-.13.14-.3.21-.5.21-.12,0-.25-.04-.38-.13-.31-.21-.63-.4-.98-.59-.11-.07-.21-.1-.31-.1-.22,0-.38.16-.48.49-.27.94-1.1,1.41-2.49,1.41-.74,0-1.35-.16-1.85-.48-.59-.36-.88-.9-.88-1.6s.28-1.22.83-1.58c.48-.32,1.08-.48,1.81-.48.21,0,.44.02.7.06.21.03.38,0,.5-.1.12-.09.18-.25.18-.48v-2.04c-.01-.19.05-.35.18-.48s.29-.2.48-.2.35.07.48.2.2.29.2.48v2.35c.01.51.27.89.78,1.12.45.21.98.49,1.6.85.23.14.35.34.35.59ZM110.62,58.12c0-.39-.22-.63-.67-.7-.27-.05-.51-.07-.71-.07-.85,0-1.27.3-1.27.9,0,.27.11.48.34.64.23.15.53.23.89.23.65,0,1.08-.16,1.27-.48.1-.17.15-.34.15-.52ZM114.82,52.27c0,.19-.07.35-.2.48-.13.14-.3.2-.48.2-.13,0-.26-.04-.38-.13-.71-.48-1.46-.88-2.25-1.22-.26-.11-.39-.32-.39-.62,0-.19.07-.35.2-.48.13-.13.29-.2.47-.2.1,0,.19.02.25.06.88.37,1.7.81,2.46,1.3.21.14.32.34.32.59Z"/>
      <path class="cls-1" d="M121.97,53.71c-.49.83-.89,1.64-1.22,2.42-.14.34-.38.5-.71.5-.47,0-.74-.24-.81-.73-.08-.55-.13-1.38-.13-2.48s.16-2.42.48-3.93c.09-.46.34-.69.73-.69.2,0,.36.07.49.2s.2.3.2.5c0,.06,0,.11-.01.17-.34,1.54-.51,2.7-.53,3.49,0,.31.06.46.21.46.12,0,.25-.11.39-.34l.07-.11c.09-.15.23-.22.42-.22.34,0,.5.17.5.5,0,.09-.02.18-.07.25ZM126.79,53.78c0,1.58-.29,2.87-.85,3.88-.6,1.05-1.58,1.93-2.94,2.65-.1.06-.21.08-.34.08-.2,0-.36-.08-.5-.23-.14-.15-.21-.33-.21-.53,0-.26.13-.46.39-.6,1.14-.6,1.94-1.32,2.39-2.16.43-.77.64-1.82.64-3.15,0-1.2-.13-2.62-.38-4.24-.04-.21.02-.41.17-.58.15-.17.33-.26.55-.26.18,0,.33.06.47.18.14.12.22.27.25.45.24,1.75.36,3.25.36,4.51Z"/>
      <path class="cls-1" d="M143.1,53.9c0,1.53-.72,2.73-2.16,3.58-1.06.64-2.47,1.08-4.23,1.3-.21.03-.39-.03-.55-.17-.16-.14-.24-.31-.24-.52,0-.18.06-.33.18-.47.12-.14.27-.21.43-.23,3.35-.43,5.03-1.6,5.03-3.5,0-1.34-.88-2.02-2.65-2.02-1.38,0-3.59.4-6.64,1.2-.07.02-.13.03-.2.03-.2,0-.37-.07-.51-.21-.15-.14-.22-.31-.22-.52,0-.38.19-.62.56-.71,3.25-.77,5.59-1.16,7.04-1.16,1.18,0,2.11.23,2.8.69.89.59,1.33,1.49,1.33,2.7Z"/>
      <path class="cls-1" d="M157.24,53.9c0,1.53-.72,2.73-2.16,3.58-1.06.64-2.47,1.08-4.23,1.3-.21.03-.39-.03-.55-.17-.16-.14-.24-.31-.24-.52,0-.18.06-.33.18-.47.12-.14.27-.21.43-.23,3.35-.43,5.03-1.6,5.03-3.5,0-1.34-.88-2.02-2.65-2.02-1.38,0-3.59.4-6.64,1.2-.07.02-.13.03-.2.03-.2,0-.37-.07-.51-.21-.15-.14-.22-.31-.22-.52,0-.38.19-.62.56-.71,3.25-.77,5.59-1.16,7.04-1.16,1.18,0,2.11.23,2.8.69.89.59,1.33,1.49,1.33,2.7Z"/>
      <path class="cls-1" d="M171.07,56.14c0,1.19-.42,2.15-1.26,2.86-.73.63-1.72,1.02-2.97,1.19-.2.03-.37-.03-.52-.16-.15-.14-.23-.3-.23-.5,0-.38.19-.61.56-.67,2-.35,3-1.27,3-2.77,0-1.04-.42-1.76-1.27-2.18-.11-.06-.22-.08-.32-.08-.24,0-.44.15-.59.46-.61,1.27-1.3,2.38-2.09,3.32-1.2,1.44-2.4,2.16-3.6,2.16-.62,0-1.09-.17-1.44-.52s-.51-.83-.51-1.44c0-1.06.31-2.03.94-2.9.48-.66,1.07-1.2,1.78-1.62.42-.25.64-.6.67-1.05v-.27c.03-.43-.17-.64-.59-.64-.52,0-1.12,0-1.78-.01-.18,0-.33-.06-.45-.2-.13-.13-.19-.28-.19-.46s.07-.33.2-.46c.13-.13.3-.19.48-.18.86.04,1.5.05,1.92.04.38,0,.6-.21.66-.6l.08-.6c.06-.41.28-.62.66-.62.2,0,.37.08.52.25.15.17.21.34.18.52l-.04.27c-.04.22,0,.4.1.52.1.12.27.17.49.15.96-.07,2.04-.2,3.25-.38.2-.03.37.02.53.15.15.13.23.3.23.5,0,.38-.2.6-.59.64-1.47.18-2.67.29-3.6.35-.44.03-.67.23-.7.6-.02.22.03.38.15.48.12.1.29.13.51.1.36-.05.68-.07.94-.07,1.43,0,2.56.27,3.4.81,1,.65,1.5,1.66,1.5,3.01ZM162.68,58.19c.42-.22.61-.67.56-1.33,0-.42-.02-.83-.03-1.25-.04-.65-.16-.98-.36-.98-.13,0-.28.08-.45.22-.36.32-.66.72-.88,1.2-.24.51-.36,1.03-.36,1.54,0,.55.23.83.69.83.26,0,.54-.08.84-.24ZM166.2,54.06c.05-.09.07-.18.07-.25,0-.23-.14-.34-.43-.32-.43.03-.75.1-.95.22-.29.17-.44.45-.45.84,0,.35,0,.76.01,1.2,0,.28.11.42.29.42.13,0,.25-.08.36-.24.42-.59.78-1.21,1.09-1.88Z"/>
      <path class="cls-1" d="M30.71,69.71c-.49.83-.89,1.64-1.22,2.42-.14.34-.38.5-.71.5-.47,0-.74-.24-.81-.73-.08-.55-.13-1.38-.13-2.48s.16-2.42.48-3.93c.09-.46.34-.69.73-.69.2,0,.36.07.49.2.13.14.2.3.2.5,0,.06,0,.11-.01.17-.34,1.54-.51,2.7-.53,3.49,0,.31.06.46.21.46.12,0,.25-.11.39-.34l.07-.11c.09-.15.23-.22.42-.22.34,0,.5.17.5.5,0,.09-.02.18-.07.25ZM35.52,69.78c0,1.58-.28,2.87-.85,3.88-.6,1.05-1.58,1.93-2.94,2.65-.1.06-.21.08-.34.08-.2,0-.36-.08-.5-.23-.14-.15-.21-.33-.21-.53,0-.26.13-.46.39-.6,1.14-.6,1.94-1.32,2.39-2.16.43-.77.64-1.82.64-3.15,0-1.2-.13-2.62-.38-4.24-.04-.21.02-.41.17-.58.15-.17.33-.26.55-.26.18,0,.33.06.47.18.14.12.22.27.25.45.24,1.75.36,3.25.36,4.51Z"/>
      <path class="cls-1" d="M51.22,74.41c0,.2-.07.36-.2.5s-.3.2-.5.2c-.13,0-.25-.03-.36-.1-.93-.55-1.76-.97-2.49-1.25-.09-.04-.18-.06-.25-.06-.27,0-.43.19-.48.56-.07.56-.26.98-.56,1.25-.47.42-1.3.63-2.51.63-.77,0-1.4-.14-1.9-.43-.62-.36-.92-.9-.92-1.62,0-.81.39-1.4,1.16-1.78.58-.28,1.33-.42,2.24-.42.1,0,.26,0,.48.01.49.02.73-.19.73-.62v-.39c0-.47-.24-.7-.71-.69-.99.03-1.94.04-2.86.03-.17,0-.31-.06-.43-.19-.12-.13-.17-.27-.17-.44s.06-.31.19-.43.27-.18.44-.18c.91.02,1.86.02,2.84,0,.46,0,.69-.25.69-.71v-.06c0-.48-.24-.7-.73-.69-1.13.05-2.2.06-3.21.03-.17,0-.31-.08-.43-.2-.12-.13-.18-.27-.18-.44,0-.18.07-.33.2-.45.13-.12.28-.18.46-.17,1.04.03,2.11.03,3.19,0,.46,0,.69-.23.69-.67,0-.04,0-.25-.01-.63,0-.19.07-.35.2-.48.13-.14.29-.2.48-.2s.35.07.48.2.2.3.2.48v.48c0,.49.24.72.73.67.72-.07,1.5-.17,2.35-.29.19-.03.35.02.5.15.15.13.22.28.22.47,0,.35-.18.56-.55.6-1.01.13-1.86.23-2.56.29-.45.05-.67.29-.67.73v.04c0,.5.24.72.73.67.49-.05,1.18-.14,2.06-.27.19-.03.35.02.5.15s.22.28.22.47c0,.36-.18.57-.53.62-.75.1-1.52.19-2.31.27-.45.04-.67.28-.67.73v.63c0,.51.26.85.77,1.02.95.31,1.99.76,3.12,1.36.24.13.36.34.36.62ZM45.6,73.87c.07-.47-.12-.72-.56-.76-.21-.02-.41-.03-.6-.03-1.34,0-2.02.32-2.02.97,0,.26.13.47.38.63s.6.24,1.02.24c.62,0,1.06-.07,1.32-.22s.41-.42.46-.83Z"/>
      <path class="cls-1" d="M66.18,66.91c0,.19-.07.35-.2.48-.13.13-.29.2-.48.2-1.47-.02-2.45-.02-2.95-.01-.46,0-.69.24-.69.71v.77c0,.35.09.87.28,1.58.07.29.11.59.11.9,0,1.23-.34,2.24-1.01,3.03s-1.71,1.4-3.12,1.84c-.07.02-.14.03-.21.03-.18,0-.33-.07-.47-.2s-.2-.29-.2-.49c0-.33.16-.54.49-.64,1.33-.4,2.25-1.02,2.77-1.85.09-.15.14-.27.14-.38,0-.13-.07-.2-.21-.2-.08,0-.18.03-.29.08-.26.13-.55.2-.85.2-.69,0-1.25-.17-1.67-.52-.46-.38-.69-.91-.69-1.58s.26-1.25.77-1.67c.48-.38,1.07-.57,1.78-.57.07,0,.16,0,.29.01.13,0,.22.01.28.01.27,0,.41-.12.41-.35,0-.48-.24-.7-.71-.69-1.7.07-3.41.16-5.14.29-.2.02-.37-.04-.51-.17-.15-.14-.22-.3-.22-.5s.06-.34.19-.47.28-.19.46-.2l5.21-.25c.45-.02.67-.23.67-.63v-.63c0-.2.07-.37.22-.51.14-.14.31-.22.51-.22s.36.07.5.21c.14.14.21.31.21.5v.53c0,.48.23.71.7.7,1.41-.02,2.4-.02,2.97-.01.19,0,.34.06.47.19s.19.28.19.47ZM60.39,70.91c.04-.13.06-.25.06-.36,0-.35-.15-.59-.45-.71-.16-.06-.35-.1-.56-.1-.32,0-.59.1-.8.31-.22.21-.33.46-.33.77,0,.64.34.97,1.02.97.56,0,.91-.29,1.06-.87Z"/>
      <path class="cls-1" d="M71.88,74.69c0,.57-.2,1.05-.6,1.45-.4.4-.89.59-1.46.59s-1.05-.2-1.45-.59-.6-.88-.6-1.45.2-1.05.6-1.46c.4-.4.88-.6,1.45-.6s1.05.2,1.46.6c.4.4.6.89.6,1.46ZM70.89,74.69c0-.3-.1-.55-.31-.76-.21-.21-.46-.31-.76-.31s-.54.1-.74.31c-.21.21-.31.46-.31.75s.1.53.31.74c.21.2.45.3.74.3s.55-.1.76-.29c.21-.2.31-.44.31-.74Z"/>
      <path class="cls-1" d="M85.6,64.77c0,.12-.15.61-.46,1.47-.21.6-.32,1.18-.32,1.74v7.94c0,.19-.06.34-.18.46-.12.12-.28.18-.46.18s-.34-.06-.47-.18c-.13-.12-.19-.28-.19-.46v-5.17c0-.24-.07-.36-.21-.36-.07,0-.27.22-.59.66-.13.18-.31.27-.53.27-.17,0-.31-.06-.44-.19s-.19-.27-.19-.44c0-.14.04-.27.13-.38,1.19-1.62,2.08-3.52,2.69-5.7.08-.31.28-.46.6-.46.17,0,.31.06.44.19s.19.27.19.44ZM94.81,65.61c0,.18-.06.33-.18.45s-.27.18-.45.18h-.17c-.47,0-.7.23-.7.7v7.59c0,.68-.12,1.15-.36,1.41-.24.26-.68.38-1.32.38h-1.22c-.17,0-.31-.06-.44-.19s-.19-.28-.19-.46c0-.17.06-.31.19-.44s.27-.19.44-.19h.81c.31,0,.52-.07.63-.21.08-.11.13-.33.13-.66v-7.24c0-.47-.23-.7-.7-.7h-4.91c-.18,0-.33-.06-.45-.18-.12-.12-.18-.27-.18-.45,0-.17.06-.31.18-.44.12-.13.27-.19.45-.19h7.81c.18,0,.33.06.45.19.12.13.18.27.18.44ZM90.64,72.26c0,.77-.38,1.15-1.15,1.15h-2.16c-.77,0-1.15-.38-1.15-1.15v-3.36c0-.77.38-1.15,1.15-1.15h2.16c.77,0,1.15.38,1.15,1.15v3.36ZM89.41,71.67v-2.21c0-.38-.19-.57-.56-.57h-.85c-.38,0-.57.19-.57.57v2.21c0,.38.19.57.57.57h.85c.37,0,.56-.19.56-.57Z"/>
      <path class="cls-1" d="M108.55,75.73c0,.2-.07.36-.2.5s-.3.2-.5.2c-.13,0-.26-.04-.39-.13-2.01-1.33-3.45-2.97-4.34-4.9-.21-.44-.39-.66-.56-.66-.18,0-.37.21-.57.64-.85,1.77-2.31,3.42-4.38,4.93-.13.09-.27.14-.41.14-.19,0-.35-.07-.49-.21s-.21-.3-.21-.49c0-.24.1-.43.29-.57,3.3-2.32,4.96-5.1,4.96-8.32v-1.85c0-.21.07-.38.21-.52s.31-.21.52-.21.38.07.52.22c.14.15.22.32.22.51v1.58c0,1.62.49,3.24,1.47,4.86.94,1.55,2.12,2.77,3.54,3.67.21.13.32.33.32.6Z"/>
      <path class="cls-1" d="M122.26,70.46c0,2.85-1.44,4.59-4.33,5.22-.03,0-.08.01-.15.01-.19,0-.35-.07-.48-.2-.13-.13-.2-.29-.2-.49,0-.37.17-.6.5-.69,2.16-.54,3.23-1.84,3.23-3.89,0-1.07-.29-1.93-.87-2.58-.21-.24-.48-.46-.8-.64-.36-.21-.69-.31-.98-.31-.4,0-.64.23-.73.7-.35,2.04-.77,3.67-1.26,4.91-.31.78-.61,1.37-.91,1.76-.48.61-1.03.91-1.67.91-.85,0-1.53-.42-2.04-1.27-.45-.73-.67-1.54-.67-2.44,0-1.74.58-3.17,1.73-4.31,1.15-1.14,2.6-1.71,4.33-1.71,1.63,0,2.91.42,3.84,1.26.97.88,1.46,2.12,1.46,3.74ZM116.03,67.65c0-.06.01-.13.01-.2,0-.35-.16-.52-.48-.52-.11,0-.23.02-.36.07-.86.3-1.56.86-2.1,1.67-.54.82-.81,1.75-.81,2.81,0,.58.14,1.09.41,1.53s.57.67.91.67c.4,0,.83-.56,1.29-1.69.38-.95.76-2.4,1.13-4.34Z"/>
      <path class="cls-1" d="M131.03,69.79c0,.17-.06.31-.17.43-.12.12-.26.17-.43.17h-1.34c-.4,0-.6.18-.6.55,0,.22.08.48.25.76.52.87,1.15,1.69,1.88,2.48.11.12.17.27.17.43,0,.18-.06.33-.18.45s-.27.18-.45.18c-.2,0-.36-.07-.48-.21-.36-.42-.72-.88-1.06-1.39-.16-.23-.32-.35-.48-.35-.19,0-.35.15-.49.43-.45.92-1.08,1.76-1.9,2.52-.11.1-.26.15-.43.15s-.33-.06-.45-.18c-.12-.12-.18-.27-.18-.45,0-.19.07-.34.21-.46,1.37-1.22,2.17-2.66,2.41-4.33.06-.39-.12-.59-.53-.59h-1.64c-.17,0-.31-.06-.43-.17-.12-.12-.18-.26-.18-.43,0-.16.06-.3.18-.42.12-.12.26-.18.43-.18h1.68c.37,0,.56-.19.56-.56v-1.25c0-.37-.16-.56-.48-.56h-.03c-.26,0-.49.16-.67.48-.14.28-.28.56-.41.85-.11.22-.29.34-.55.34-.17,0-.31-.06-.43-.18-.12-.12-.18-.27-.18-.43,0-.1.02-.2.07-.28.5-.93.9-1.93,1.19-2.98.08-.31.29-.46.6-.46.17,0,.31.06.43.19s.18.27.18.44c0,.05-.01.12-.04.21-.03.09-.04.17-.04.22,0,.28.16.42.49.42h2.59c.16,0,.3.06.42.17s.18.25.18.41c0,.17-.06.31-.18.43-.12.12-.26.18-.43.18h-.95c-.37,0-.56.19-.56.56v1.25c0,.37.19.56.56.56h1.29c.17,0,.31.06.43.18.12.12.17.26.17.42ZM136.44,74.76c0,.86-.43,1.29-1.29,1.29h-2.42c-.87,0-1.3-.43-1.3-1.29v-8.27c0-.86.43-1.29,1.3-1.29h2.42c.86,0,1.29.43,1.29,1.29v8.27ZM135.14,74.15v-7.06c0-.43-.21-.64-.64-.64h-1.13c-.43,0-.64.21-.64.64v7.06c0,.44.21.66.64.66h1.13c.43,0,.64-.22.64-.66Z"/>
      <path class="cls-1" d="M150.97,75.73c0,.2-.07.36-.2.5-.14.14-.3.2-.5.2-.13,0-.26-.04-.39-.13-2.01-1.33-3.45-2.97-4.34-4.9-.21-.44-.39-.66-.56-.66-.18,0-.37.21-.57.64-.85,1.77-2.31,3.42-4.38,4.93-.13.09-.27.14-.41.14-.19,0-.35-.07-.49-.21-.14-.14-.21-.3-.21-.49,0-.24.1-.43.29-.57,3.3-2.32,4.96-5.1,4.96-8.32v-1.85c0-.21.07-.38.21-.52.14-.14.31-.21.52-.21s.38.07.53.22c.14.15.22.32.22.51v1.58c0,1.62.49,3.24,1.47,4.86.94,1.55,2.12,2.77,3.54,3.67.21.13.32.33.32.6Z"/>
      <path class="cls-1" d="M156.04,65.65c-.37,2.14-.56,4.16-.56,6.06,0,1.33.05,2.45.15,3.35.03.21-.03.41-.18.57s-.33.25-.55.25c-.2,0-.36-.07-.5-.2-.14-.13-.22-.29-.24-.48-.09-.9-.14-2.03-.14-3.42,0-2.07.2-4.2.59-6.4.07-.4.31-.6.71-.6.22,0,.41.09.55.26s.2.37.16.59ZM164.54,74.19c0,.17-.06.32-.18.46-.12.14-.27.21-.43.23-1.21.16-2.23.24-3.04.24-2.47,0-3.71-.75-3.71-2.24,0-.42.12-.85.35-1.29.13-.25.33-.38.59-.38.46,0,.69.22.69.66,0,.09-.03.23-.08.41-.06.18-.08.33-.08.44,0,.38.23.65.69.8.39.14,1.01.21,1.86.21.69,0,1.54-.08,2.55-.24.21-.04.4.02.57.16.16.15.25.32.25.54ZM164.05,66.78c0,.18-.06.33-.17.46-.12.13-.26.21-.44.24-1.06.15-2.17.22-3.35.22-.52,0-1.09-.02-1.71-.06-.18,0-.33-.08-.46-.22s-.2-.3-.2-.48c0-.21.08-.38.23-.51s.33-.19.53-.17c.52.05,1.08.07,1.67.07,1.05,0,2.09-.08,3.09-.24.21-.04.4.01.57.15.16.14.25.32.25.53Z"/>
      <path class="cls-1" d="M179.28,67.24c0,.17-.06.31-.18.44s-.27.19-.43.19h-3.95c-.36,0-.55.12-.55.36,0,.11.04.23.13.36,1.25,1.89,2.8,3.6,4.66,5.14.16.13.24.29.24.49,0,.18-.06.33-.19.46-.13.13-.28.2-.46.2-.16,0-.3-.06-.43-.17-1.52-1.35-2.79-2.69-3.79-4.02-.11-.15-.22-.22-.34-.22-.17,0-.25.14-.25.42v4.93c0,.18-.06.33-.19.46s-.27.19-.44.19-.31-.06-.44-.19-.19-.28-.19-.46v-4.91c0-.28-.08-.42-.25-.42-.11,0-.22.08-.34.24-1.04,1.39-2.29,2.72-3.72,3.98-.13.11-.28.17-.43.17-.18,0-.33-.06-.46-.19s-.19-.28-.19-.46c0-.21.08-.37.24-.5,1.79-1.47,3.33-3.17,4.61-5.1.08-.13.13-.25.13-.36,0-.26-.18-.39-.55-.39h-3.88c-.17,0-.31-.06-.43-.19-.12-.13-.18-.27-.18-.44s.06-.31.18-.43c.12-.12.27-.18.43-.18h4.21c.42,0,.63-.21.63-.63v-1.2c0-.18.06-.33.18-.45.12-.12.27-.18.45-.18s.33.06.45.18.18.27.18.45v1.2c0,.42.21.63.63.63h4.3c.17,0,.31.06.43.18.12.12.18.27.18.43Z"/>
      <path class="cls-1" d="M38.49,85.85c0,.16-.06.29-.18.41-.12.11-.25.17-.41.17h-6.12c-.16,0-.29-.06-.41-.17s-.17-.25-.17-.41.06-.29.17-.41c.11-.11.25-.17.41-.17h.69c.35,0,.52-.14.52-.43,0-.14-.11-.59-.32-1.34-.11-.39-.34-.59-.67-.59-.16,0-.29-.06-.41-.17-.11-.11-.17-.25-.17-.41s.06-.29.17-.4c.11-.11.25-.16.41-.16h1.68c.37,0,.56-.19.56-.56v-.31c0-.18.06-.33.18-.46s.28-.19.46-.19.33.06.46.19.19.28.19.46v.31c0,.37.19.56.56.56h1.69c.37,0,.56.19.56.56,0,.16-.05.29-.16.41-.11.11-.24.17-.4.17-.26,0-.47.23-.63.7-.09.35-.18.69-.27,1.04-.02.07-.03.14-.03.2,0,.29.17.43.5.43h.55c.16,0,.3.06.41.17.12.11.18.25.18.41ZM37.69,90.92c0,.75-.37,1.12-1.12,1.12h-3.23c-.75,0-1.12-.37-1.12-1.12v-2.38c0-.75.37-1.12,1.12-1.12h3.23c.75,0,1.12.37,1.12,1.12v2.38ZM36.45,90.34v-1.26c0-.35-.18-.53-.53-.53h-1.89c-.35,0-.53.18-.53.53v1.26c0,.35.18.53.53.53h1.89c.35,0,.53-.18.53-.53ZM35.99,83.54c.02-.07.03-.13.03-.18,0-.3-.17-.45-.52-.45h-1.13c-.34,0-.5.14-.5.43,0,.06,0,.12.03.2.06.25.16.63.28,1.12.09.41.34.62.74.62.37,0,.64-.21.81-.63,0-.02.1-.39.27-1.11ZM43.71,88.55c0,1.33-.77,2.07-2.32,2.24-.19.02-.35-.04-.5-.17-.15-.13-.22-.29-.22-.48,0-.37.17-.58.52-.63.8-.09,1.2-.45,1.2-1.06,0-.52-.32-1.39-.97-2.6-.11-.21-.17-.42-.17-.6,0-.14.02-.28.07-.43l.76-2.35c.03-.09.04-.17.04-.24,0-.21-.15-.32-.45-.32h-.94c-.37,0-.56.19-.56.57v9.49c0,.17-.06.31-.18.43-.12.12-.27.18-.43.18-.18,0-.33-.06-.45-.18s-.18-.27-.18-.43v-10.09c0-.77.39-1.15,1.16-1.15h2.41c.72,0,1.08.29,1.08.88,0,.16-.03.33-.1.52l-.85,2.42c-.07.22-.11.41-.11.56,0,.22.09.49.28.8.62,1,.92,1.88.92,2.65Z"/>
      <path class="cls-1" d="M57.9,86.14c0,.17-.06.31-.18.43-.12.12-.27.18-.43.18h-2.97c-.42,0-.63.21-.63.63v3.09c0,.36.1.56.31.6.05,0,.15.01.32.01h.88c.52,0,.85-.13.98-.38.07-.15.13-.54.15-1.16,0-.17.07-.31.2-.43s.27-.18.45-.18.33.07.46.2c.13.13.19.28.18.46-.03,1.12-.19,1.85-.5,2.21-.3.35-.93.52-1.87.52h-1.5c-.56,0-.93-.09-1.12-.27-.19-.18-.28-.55-.28-1.11v-3.56c0-.42-.21-.63-.63-.63h-.53c-.4,0-.62.21-.64.62-.16,2.34-1.3,4.04-3.42,5.08-.09.05-.2.07-.32.07-.18,0-.34-.07-.48-.2-.14-.13-.21-.29-.21-.48,0-.29.13-.5.38-.62.89-.44,1.54-.95,1.97-1.55s.68-1.36.76-2.29c.04-.43-.17-.64-.62-.64h-2.49c-.17,0-.31-.06-.43-.18-.12-.12-.18-.26-.18-.43s.06-.31.18-.43c.12-.12.27-.18.43-.18h4.4c.42,0,.63-.21.63-.63v-.84c0-.42-.21-.63-.63-.63h-1.89c-.5,0-.91.19-1.2.57l-.35.45c-.11.15-.28.22-.49.22-.18,0-.33-.06-.45-.19-.12-.13-.18-.28-.18-.46,0-.17.06-.31.17-.43.7-.78,1.3-1.66,1.79-2.63.11-.22.3-.34.57-.34.19,0,.34.06.46.19.12.13.18.28.18.46,0,.08-.03.18-.08.3-.05.12-.08.21-.08.29,0,.23.17.35.5.35h1.04c.42,0,.63-.21.63-.63v-.74c0-.18.06-.33.19-.46.13-.13.28-.19.45-.19s.33.06.46.19.19.28.19.46v.74c0,.42.21.63.63.63h3.23c.17,0,.31.06.43.18.12.12.18.26.18.42,0,.17-.06.31-.18.43-.12.12-.27.18-.43.18h-3.23c-.42,0-.63.21-.63.63v.84c0,.42.21.63.63.63h4.21c.17,0,.31.06.43.18.12.12.18.27.18.43Z"/>
      <path class="cls-1" d="M72.04,91.39c0,.18-.06.33-.19.46s-.28.19-.46.19h-11.12c-.18,0-.33-.06-.45-.19-.12-.13-.18-.28-.18-.46s.06-.33.19-.46.27-.19.44-.19h4.33c.42,0,.63-.21.63-.63v-1.65c0-.42-.21-.63-.63-.63h-2.93c-.17,0-.31-.06-.43-.17-.12-.12-.18-.26-.18-.43s.06-.31.18-.43c.12-.12.26-.18.43-.18h2.93c.42,0,.63-.21.63-.63v-1.27c0-.42-.21-.63-.63-.63h-1.92c-.55,0-.97.23-1.26.7-.12.2-.31.48-.57.85-.13.19-.31.28-.53.28-.18,0-.33-.07-.46-.2-.13-.13-.2-.28-.2-.46,0-.16.04-.29.13-.41.92-1.26,1.64-2.54,2.14-3.84.1-.26.3-.39.6-.39.19,0,.34.07.47.2.13.13.19.29.19.46,0,.1-.1.37-.29.81-.05.11-.07.22-.07.32,0,.28.18.42.55.42h1.23c.42,0,.63-.21.63-.63v-1.26c0-.19.07-.35.2-.48.13-.14.3-.2.48-.2s.35.07.48.2c.13.14.2.3.2.48v1.26c0,.42.21.63.63.63h3.65c.18,0,.33.06.45.18.12.12.18.27.18.43,0,.18-.06.33-.18.45s-.27.18-.45.18h-3.65c-.42,0-.63.21-.63.63v1.27c0,.42.21.63.63.63h2.88c.17,0,.31.06.43.18s.18.26.18.43-.06.31-.18.43-.26.17-.43.17h-2.88c-.42,0-.63.21-.63.63v1.65c0,.42.21.63.63.63h4.17c.18,0,.33.06.46.19s.19.28.19.46Z"/>
      <path class="cls-1" d="M85.64,86.46c0,2.85-1.44,4.59-4.33,5.22-.03,0-.08.01-.15.01-.19,0-.35-.06-.48-.2-.14-.13-.2-.29-.2-.49,0-.37.17-.6.5-.69,2.16-.54,3.23-1.84,3.23-3.89,0-1.07-.29-1.93-.87-2.58-.21-.24-.48-.46-.8-.64-.36-.21-.69-.31-.98-.31-.4,0-.64.23-.73.7-.35,2.04-.77,3.67-1.26,4.91-.31.78-.61,1.37-.91,1.76-.48.61-1.03.91-1.67.91-.85,0-1.53-.42-2.04-1.27-.45-.73-.67-1.54-.67-2.44,0-1.74.58-3.17,1.73-4.31,1.15-1.14,2.6-1.71,4.33-1.71,1.63,0,2.91.42,3.84,1.26.97.88,1.46,2.12,1.46,3.74ZM79.41,83.65c0-.06.01-.13.01-.2,0-.35-.16-.52-.48-.52-.11,0-.23.02-.36.07-.86.3-1.56.86-2.1,1.67-.54.82-.81,1.75-.81,2.81,0,.58.14,1.09.41,1.53.27.44.57.67.91.67.4,0,.83-.56,1.29-1.69.38-.95.76-2.4,1.13-4.34Z"/>
      <path class="cls-1" d="M90.71,87.71s0,.1-.03.2c-.35,1.13-.89,2.37-1.6,3.71-.12.22-.31.34-.56.34-.18,0-.33-.06-.45-.18-.12-.12-.18-.27-.18-.45,0-.11.02-.21.07-.29.66-1.2,1.2-2.37,1.61-3.5.09-.26.28-.39.55-.39.39,0,.59.19.59.57ZM90.53,83.43c0,.18-.06.33-.18.45s-.27.18-.45.18c-.25,0-.44-.11-.56-.32-.29-.51-.68-1.1-1.18-1.76-.07-.1-.11-.22-.11-.36,0-.17.06-.31.18-.43.12-.12.27-.18.43-.18.21,0,.37.08.5.25.5.65.93,1.27,1.27,1.86.06.09.08.2.08.32ZM100.5,84.97c0,.15-.05.28-.15.39-.1.11-.23.16-.38.16h-.14c-.33,0-.49.16-.49.49v.17c0,.59-.29.88-.88.88h-2.16c-.21,0-.39.08-.52.25-.06.07-.08.13-.08.2,0,.16.13.24.39.24h3.78c.13,0,.25.05.34.15.1.1.15.21.15.34,0,.14-.05.26-.15.36-.1.1-.21.15-.34.15h-1.02c-.34,0-.6.14-.78.43-.18.28-.37.53-.55.73-.13.14-.2.27-.2.38,0,.15.27.33.81.55.34.12.67.24,1.01.35.26.09.39.28.39.57,0,.18-.06.32-.18.44-.12.12-.26.17-.43.17-.09,0-.17-.02-.24-.06-.87-.37-1.63-.68-2.3-.92-.14-.05-.27-.07-.39-.07-.17,0-.35.05-.56.14-.93.44-2.14.79-3.63,1.05-.17.03-.32-.02-.46-.13-.14-.12-.21-.26-.21-.44,0-.34.13-.52.39-.56.78-.1,1.5-.25,2.14-.43.16-.05.24-.12.24-.22,0-.11-.08-.19-.25-.24l-.57-.17c-.4-.12-.6-.32-.6-.59,0-.14.08-.32.24-.53.08-.09.13-.18.13-.25,0-.13-.1-.2-.29-.2h-1.29c-.14,0-.26-.05-.36-.15s-.15-.22-.15-.36c0-.13.05-.25.15-.34.1-.1.22-.15.36-.15h2.37c.21,0,.39-.08.52-.25.06-.06.08-.13.08-.2,0-.16-.13-.24-.39-.24h-1.9c-.12,0-.23-.05-.32-.14s-.14-.21-.14-.34c0-.12.05-.23.14-.31s.2-.13.32-.13h2.39c.28,0,.42-.12.42-.35s-.14-.35-.42-.35h-3.4c-.13,0-.25-.05-.34-.14-.1-.09-.15-.21-.15-.34s.05-.24.15-.34c.1-.09.21-.14.34-.14h3.4c.28,0,.42-.12.42-.35s-.14-.34-.42-.34h-2.41c-.12,0-.23-.04-.31-.13-.09-.09-.13-.19-.13-.31s.04-.23.13-.32.19-.13.31-.13h2.41c.28,0,.42-.11.42-.34s-.14-.34-.42-.34h-2.8c-.15,0-.28-.05-.38-.15-.1-.1-.15-.23-.15-.38s.05-.27.15-.38.23-.15.38-.15h2.8c.28,0,.42-.12.42-.35,0-.18.06-.33.18-.45.12-.12.27-.18.45-.18.17,0,.31.06.44.18.13.12.19.27.19.45,0,.23.14.35.42.35h3.14c.15,0,.27.05.38.15.1.1.15.23.15.38s-.05.28-.15.38-.23.15-.38.15h-3.14c-.28,0-.42.11-.42.34s.14.34.42.34h2.02c.59,0,.88.29.88.88v.17c0,.33.16.49.49.49h.14c.15,0,.27.05.38.15.1.1.15.23.15.38ZM96.56,89.04c0-.21-.14-.31-.43-.31h-.98c-.35,0-.61.1-.76.29l-.1.13c-.07.08-.1.16-.1.22,0,.13.1.23.29.29.07.02.26.07.56.14.17.05.32.07.46.07.22,0,.42-.06.57-.17.32-.27.48-.49.48-.67ZM98.17,84.14c0-.24-.12-.36-.36-.36h-1.37c-.28,0-.42.12-.42.35s.14.35.42.35h1.32c.28,0,.42-.11.42-.34ZM98.17,85.78c0-.24-.14-.36-.42-.36h-1.32c-.28,0-.42.12-.42.35s.14.36.42.36h1.37c.24,0,.36-.12.36-.35Z"/>
      <path class="cls-1" d="M113.06,82.43c0,.27-.13.47-.39.6-.58.28-1.26.54-2.04.78-.3.09-.45.24-.45.45,0,.12.05.25.15.38.68.91,1.37,1.71,2.06,2.41.2.2.29.42.29.66,0,.21-.08.4-.23.55-.15.15-.35.22-.58.22-.15,0-.3-.03-.46-.1-1.13-.5-2.28-.76-3.46-.76-.86,0-1.53.13-2,.39s-.71.62-.71,1.08c0,1.05,1.14,1.58,3.42,1.58.84,0,1.75-.07,2.72-.2.2-.03.37.03.53.16.15.14.23.31.23.51,0,.17-.06.32-.17.44-.12.13-.26.2-.41.22-.9.12-1.81.18-2.72.18-3.34,0-5.01-.93-5.01-2.8,0-1.02.44-1.76,1.33-2.23.68-.36,1.58-.55,2.7-.55.46,0,.96.06,1.51.18.08.02.13.03.15.03.08.02.16.03.24.03.2,0,.29-.07.29-.21,0-.11-.06-.24-.17-.38-.35-.43-.62-.76-.78-.99-.31-.41-.68-.62-1.11-.62-.1,0-.22,0-.36.03-1.18.18-2.44.27-3.79.27-.19,0-.35-.06-.48-.2-.13-.13-.2-.29-.2-.48s.07-.35.2-.48.29-.2.48-.2c1.1,0,2.13-.07,3.08-.18.33-.04.49-.18.49-.42,0-.12-.04-.25-.13-.38l-.48-.78c-.07-.11-.1-.23-.1-.35,0-.19.07-.35.2-.48.14-.14.3-.2.48-.2.28,0,.49.12.62.36.32.62.52.98.6,1.09.3.43.62.64.95.64.12,0,.25-.02.38-.06.73-.21,1.45-.49,2.17-.84.09-.05.19-.07.29-.07.19,0,.35.07.48.2s.2.3.2.48Z"/>
      <path class="cls-1" d="M127.7,85.46c0,.28-.13.48-.39.59-.62.26-1.21.53-1.76.8-.38.19-.62.38-.71.59-.07.15-.1.45-.1.9v.9c0,.19-.07.34-.2.47-.13.13-.29.19-.48.19s-.34-.06-.47-.19-.19-.28-.19-.47v-.53c0-.33-.12-.49-.36-.49-.1,0-.21.04-.34.11-1.13.7-1.69,1.3-1.69,1.81,0,.29.19.5.57.62.38.13,1.04.19,1.96.19.73,0,1.69-.08,2.9-.24.2-.03.37.02.51.15.14.13.22.29.22.49,0,.17-.06.31-.17.44s-.25.2-.42.22c-1.06.12-2.11.18-3.14.18s-1.88-.09-2.45-.27c-.95-.31-1.43-.87-1.43-1.69,0-.95,1.03-2.04,3.09-3.26.34-.2.5-.39.5-.59,0-.24-.2-.36-.59-.36-.54,0-1.23.26-2.06.77-.67.42-1.26.89-1.78,1.4l-.36.43c-.15.14-.31.21-.49.21-.19,0-.34-.06-.47-.19s-.19-.28-.19-.47c0-.17.05-.31.15-.43.97-1.17,1.78-2.33,2.44-3.5.06-.11.1-.22.1-.32,0-.24-.17-.36-.52-.35-.31,0-.76.01-1.36.01-.17,0-.31-.06-.43-.18-.12-.12-.18-.27-.18-.43,0-.18.06-.33.19-.45.13-.12.27-.18.44-.17.58.02,1.22.02,1.92,0,.55,0,.92-.27,1.12-.77l.28-.73c.11-.29.32-.43.63-.43.19,0,.34.07.47.2.13.13.19.28.19.46,0,.08-.01.16-.04.24-.05.11-.08.18-.08.21-.04.1-.06.2-.06.28,0,.27.17.39.5.35.35-.04,1.03-.13,2.02-.28.19-.03.35.02.5.15s.22.28.22.47c0,.37-.19.58-.56.63-.93.12-1.77.21-2.51.27-.41.04-.72.12-.93.26-.21.14-.41.38-.6.72-.02.03-.07.1-.14.22-.1.18-.15.32-.15.43,0,.14.08.21.25.21.1,0,.24-.03.41-.1.5-.19.95-.28,1.36-.28.56,0,.99.19,1.29.56.21.25.4.38.59.38.1,0,.21-.03.34-.08l1.69-.83c.09-.05.19-.07.28-.07.18,0,.33.06.46.19.13.13.19.28.19.47Z"/>
      <path class="cls-1" d="M135.78,82.53c0,.17-.06.31-.18.43s-.27.17-.43.17h-4.26c-.17,0-.31-.06-.43-.17-.12-.12-.17-.26-.17-.43,0-.16.06-.3.17-.42.12-.12.26-.18.43-.18h1.01c.37,0,.56-.19.56-.56v-.53c0-.18.06-.33.19-.46.13-.13.28-.2.46-.2s.33.07.46.2c.13.13.2.28.2.46v.53c0,.37.19.56.56.56h.83c.17,0,.31.06.43.18.12.12.18.26.18.42ZM135.36,91.15c0,.75-.37,1.12-1.12,1.12h-2.38c-.75,0-1.12-.37-1.12-1.12v-1.74c0-.75.37-1.12,1.12-1.12h2.38c.75,0,1.12.37,1.12,1.12v1.74ZM135.29,84.69c0,.16-.06.29-.17.4-.11.11-.24.16-.39.16h-3.33c-.15,0-.28-.05-.39-.16-.11-.11-.17-.24-.17-.4,0-.15.06-.28.17-.39.11-.11.24-.17.39-.17h3.33c.15,0,.28.06.39.17.11.11.17.24.17.39ZM135.29,86.73c0,.16-.06.29-.17.4-.11.11-.24.16-.39.16h-3.33c-.15,0-.28-.05-.39-.16-.11-.11-.17-.24-.17-.4,0-.15.06-.28.17-.39.11-.11.24-.17.39-.17h3.33c.15,0,.28.06.39.17.11.11.17.24.17.39ZM134.13,90.58v-.64c0-.35-.18-.53-.53-.53h-1.09c-.36,0-.53.18-.53.53v.64c0,.35.18.53.53.53h1.09c.35,0,.53-.18.53-.53ZM143.11,86.48c0,.16-.06.3-.17.41-.12.12-.25.17-.41.17h-6.41c-.16,0-.29-.06-.41-.17-.11-.12-.17-.25-.17-.41s.06-.29.17-.41c.11-.11.25-.17.41-.17h.71c.34,0,.54-.17.6-.5l.11-.56c0-.06.01-.11.01-.15,0-.31-.17-.46-.52-.46h-.28c-.15,0-.28-.05-.38-.16-.1-.11-.15-.24-.15-.38s.05-.28.15-.38c.1-.1.23-.15.38-.15h.62c.33,0,.53-.16.6-.49l.06-.24c.02-.06.03-.12.03-.17,0-.3-.18-.45-.53-.45h-1.04c-.16,0-.29-.06-.41-.18-.11-.12-.17-.25-.17-.41s.06-.29.17-.41c.11-.11.25-.17.41-.17h5.64c.16,0,.3.06.41.17.12.11.17.25.17.41s-.06.3-.17.41c-.12.12-.25.18-.41.18h-2.23c-.33,0-.53.16-.6.49l-.06.24c-.02.06-.03.12-.03.17,0,.3.18.45.53.45h.95c.77,0,1.15.38,1.15,1.15v1.05c0,.37.19.56.56.56h.11c.16,0,.3.06.41.17.12.11.17.25.17.41ZM142.33,91.09c0,.77-.38,1.16-1.15,1.16h-3.65c-.77,0-1.16-.39-1.16-1.16v-1.97c0-.77.39-1.15,1.16-1.15h3.65c.76,0,1.15.38,1.15,1.15v1.97ZM141.09,90.54v-.9c0-.38-.19-.57-.57-.57h-2.32c-.38,0-.57.19-.57.57v.9c0,.38.19.57.57.57h2.32c.38,0,.57-.19.57-.57ZM140.65,85.34v-.69c0-.29-.14-.43-.43-.43h-.81c-.34,0-.54.17-.6.5l-.11.56c0,.06-.01.11-.01.15,0,.31.17.46.52.46h.9c.37,0,.56-.19.56-.56Z"/>
      <path class="cls-1" d="M155.84,86.91c0,1.33-.62,2.38-1.86,3.14-.92.56-2.15.94-3.68,1.15-.2.03-.37-.03-.52-.16-.15-.13-.22-.3-.22-.5,0-.16.06-.3.17-.43.11-.13.25-.2.41-.22,2.88-.38,4.31-1.38,4.31-2.98,0-1.13-.75-1.69-2.24-1.69-1.2,0-3.1.35-5.73,1.05-.07.02-.13.03-.18.03-.18,0-.34-.07-.48-.2-.14-.14-.21-.3-.21-.48,0-.35.18-.57.53-.66.92-.22,1.78-.42,2.6-.57,1.49-.29,2.66-.43,3.5-.43,1.04,0,1.87.2,2.46.6.76.5,1.13,1.29,1.13,2.37Z"/>
      <path class="cls-1" d="M166.12,83.62c-.68.13-1.37.24-2.07.32-.38.05-.66.15-.83.29-.17.15-.3.41-.38.77-.52,2.21-1.17,4.34-1.95,6.37-.12.31-.35.46-.69.46-.21,0-.38-.07-.52-.22-.14-.14-.21-.31-.21-.51,0-.09.02-.19.06-.28.79-1.88,1.44-3.86,1.95-5.96.02-.07.03-.14.03-.21,0-.33-.2-.49-.59-.48-.39,0-.75,0-1.08,0-.19,0-.35-.08-.48-.22-.14-.13-.2-.3-.2-.48s.07-.36.22-.5c.15-.14.32-.21.51-.2.53.02.96.02,1.29.01.52-.02.82-.27.9-.77.03-.21.08-.51.14-.92.06-.41.3-.61.71-.61.2,0,.36.07.5.21.14.14.21.3.21.49,0,.09-.04.33-.11.7,0,.07-.01.13-.01.18,0,.37.21.53.62.46.06,0,.38-.07.98-.2.45-.08.76-.13.92-.13.2,0,.36.07.48.21s.19.31.19.5c0,.38-.19.61-.57.69ZM170.54,90.99c0,.4-.2.63-.59.69-.89.13-1.82.2-2.8.2-2.48,0-3.72-.69-3.72-2.09,0-.32.08-.68.24-1.09.11-.28.32-.42.63-.42.44,0,.66.22.66.67,0,.08-.01.18-.04.31-.03.14-.04.24-.04.32,0,.63.8.95,2.39.95.7,0,1.53-.07,2.49-.21.21-.03.39.03.55.16.16.13.24.31.24.51ZM170.15,85.78c0,.2-.07.36-.22.5-.15.14-.32.21-.52.2-1.39-.07-2.88-.04-4.47.1-.2.02-.37-.04-.51-.18-.14-.14-.22-.3-.22-.5,0-.18.06-.33.17-.45.12-.13.26-.2.43-.22,1.58-.16,3.13-.21,4.65-.17.19,0,.35.08.48.22.14.14.2.3.2.49Z"/>
      <path class="cls-1" d="M181.22,85.47c0,1.47-.25,3.12-.74,4.93-.14.52-.3.9-.48,1.13-.26.34-.62.5-1.06.5-.49,0-1.13-.13-1.93-.41-.32-.1-.48-.31-.48-.63,0-.19.07-.35.2-.48.14-.13.29-.2.47-.2.08,0,.17.02.29.06.4.14.71.21.91.21.22,0,.38-.07.48-.2.07-.1.16-.31.25-.63.44-1.57.66-2.93.66-4.09,0-.45-.09-.75-.27-.9s-.51-.22-1.01-.22c-.44,0-.74.05-.9.14-.2.11-.34.31-.42.6-.61,2.03-1.44,4.08-2.49,6.15-.14.27-.36.41-.66.41-.21,0-.38-.07-.52-.22-.14-.14-.21-.32-.21-.53,0-.16.03-.28.08-.38.95-1.65,1.73-3.39,2.32-5.22.03-.09.04-.18.04-.25,0-.34-.2-.48-.6-.42-.29.04-.74.1-1.36.2-.2.03-.38-.03-.54-.16s-.25-.31-.25-.51c0-.39.2-.62.61-.67.41-.06,1.06-.14,1.95-.25.45-.05.75-.33.91-.84.03-.07.11-.53.24-1.37.07-.4.3-.6.7-.6.22,0,.4.08.54.25.13.16.18.36.15.58,0,.05-.05.25-.13.62-.06.27-.1.47-.1.6,0,.39.22.57.66.55h.21c.72-.06,1.29.07,1.72.36.49.34.73.97.73,1.89ZM185.45,86.52c0,.21-.07.38-.22.53s-.32.22-.53.22c-.34,0-.57-.16-.7-.49-.49-1.26-1.11-2.41-1.86-3.44-.08-.11-.13-.24-.13-.39,0-.2.07-.36.2-.5.13-.14.3-.21.5-.21.23,0,.42.1.57.29.85,1.11,1.55,2.35,2.11,3.71.03.07.04.16.04.28Z"/>
      <path class="cls-1" d="M42.9,104.91c0,1.3-.2,2.17-.59,2.62-.43.5-1.27.74-2.52.74h-.95c-.17,0-.31-.06-.43-.18-.12-.12-.18-.27-.18-.43s.06-.31.18-.44c.12-.13.27-.19.43-.19h.74c.92,0,1.49-.15,1.69-.45.16-.22.24-.84.24-1.86v-2.41c0-.49-.24-.73-.73-.73h-1.44c-.38,0-.6.2-.66.6-.18,1.35-.54,2.48-1.09,3.37-.67,1.08-1.69,1.96-3.07,2.65-.09.05-.2.07-.32.07-.18,0-.33-.06-.46-.19-.13-.13-.2-.28-.2-.47,0-.29.12-.49.36-.62,2.03-1.02,3.16-2.6,3.42-4.76.05-.44-.15-.66-.6-.66h-1.22c-.17,0-.31-.06-.42-.18-.11-.12-.17-.25-.17-.41v-.03c-.32.34-.64.66-.98.97-.14.13-.29.2-.45.2-.19,0-.34-.07-.47-.2s-.19-.29-.19-.46c0-.21.07-.37.22-.5,1.33-1.15,2.44-2.54,3.3-4.19.11-.21.29-.32.55-.32.19,0,.34.06.46.18.12.12.17.27.17.45,0,.1-.03.21-.08.31-.63,1.16-1.31,2.17-2.04,3.02h.1s5.96-.01,5.96-.01c.95,0,1.43.48,1.43,1.43v3.08ZM45.1,101.43c0,.19-.06.35-.19.48-.13.13-.28.2-.47.2-.16,0-.3-.06-.43-.17-1.52-1.34-2.77-2.86-3.74-4.55-.07-.11-.1-.22-.1-.32,0-.18.06-.33.19-.45.13-.12.28-.18.45-.18.24,0,.42.11.55.32.93,1.63,2.1,3.02,3.5,4.17.16.13.24.3.24.5Z"/>
      <path class="cls-1" d="M55.38,101.47c0,1.47-.25,3.12-.74,4.93-.14.52-.3.9-.48,1.13-.26.34-.62.5-1.06.5-.49,0-1.13-.13-1.93-.41-.32-.1-.48-.31-.48-.63,0-.19.07-.35.2-.48s.29-.2.47-.2c.07,0,.17.02.29.06.4.14.7.21.91.21.22,0,.38-.07.48-.2.07-.1.16-.31.25-.63.44-1.57.66-2.93.66-4.09,0-.45-.09-.75-.27-.9-.18-.15-.51-.22-1.01-.22-.44,0-.74.05-.9.14-.2.11-.34.31-.42.6-.61,2.03-1.44,4.08-2.49,6.15-.14.27-.36.41-.66.41-.21,0-.38-.07-.52-.22-.14-.14-.21-.32-.21-.53,0-.16.03-.28.08-.38.95-1.65,1.73-3.39,2.32-5.22.03-.09.04-.18.04-.25,0-.34-.2-.48-.6-.42-.29.04-.74.1-1.36.2-.2.03-.38-.03-.54-.16-.16-.14-.25-.31-.25-.51,0-.39.2-.62.61-.67.41-.06,1.06-.14,1.95-.25.45-.05.75-.33.91-.84.03-.07.11-.53.24-1.37.07-.4.3-.6.7-.6.22,0,.4.08.54.24.14.16.18.36.15.58,0,.05-.05.25-.13.62-.07.27-.1.47-.1.6,0,.39.22.57.66.55h.21c.72-.06,1.29.07,1.72.36.48.34.73.97.73,1.89ZM59.61,102.52c0,.21-.07.38-.22.53-.15.15-.32.22-.52.22-.34,0-.57-.16-.7-.49-.49-1.26-1.11-2.41-1.86-3.44-.08-.11-.13-.24-.13-.39,0-.2.07-.36.2-.5.13-.14.3-.21.5-.21.23,0,.42.1.57.29.85,1.11,1.55,2.35,2.11,3.71.03.07.04.16.04.28Z"/>
      <path class="cls-1" d="M66.21,101.71c-.49.83-.89,1.64-1.22,2.42-.14.34-.38.5-.71.5-.47,0-.74-.24-.81-.73-.08-.55-.13-1.38-.13-2.48s.16-2.42.48-3.93c.09-.46.34-.69.73-.69.2,0,.36.07.49.2.13.13.2.3.2.5,0,.06,0,.11-.01.17-.34,1.54-.51,2.7-.53,3.49,0,.31.06.46.21.46.12,0,.25-.11.39-.34l.07-.11c.09-.15.23-.22.42-.22.34,0,.5.17.5.5,0,.09-.02.18-.07.25ZM71.03,101.78c0,1.58-.28,2.87-.85,3.88-.6,1.05-1.58,1.93-2.94,2.65-.1.06-.21.08-.34.08-.2,0-.36-.08-.5-.23-.14-.15-.21-.33-.21-.52,0-.26.13-.46.39-.6,1.14-.6,1.94-1.32,2.39-2.16.43-.77.64-1.82.64-3.15,0-1.2-.13-2.62-.38-4.24-.04-.21.02-.41.17-.58s.33-.26.55-.26c.18,0,.33.06.47.18.14.12.22.27.25.45.24,1.75.36,3.25.36,4.51Z"/>
      <path class="cls-1" d="M86.72,106.41c0,.2-.07.36-.2.5-.14.14-.3.2-.5.2-.13,0-.25-.03-.36-.1-.93-.55-1.76-.97-2.49-1.25-.09-.04-.18-.06-.25-.06-.27,0-.43.19-.48.56-.07.56-.26.98-.56,1.25-.47.42-1.3.63-2.51.63-.77,0-1.4-.14-1.9-.43-.62-.36-.92-.91-.92-1.62,0-.81.39-1.41,1.16-1.78.58-.28,1.33-.42,2.24-.42.1,0,.26,0,.48.01.49.02.73-.19.73-.62v-.39c0-.47-.24-.7-.71-.69-.99.03-1.94.04-2.86.03-.17,0-.31-.06-.43-.19s-.17-.27-.17-.44.06-.31.19-.43c.13-.12.27-.17.44-.17.91.02,1.86.02,2.84,0,.46,0,.69-.25.69-.71v-.06c0-.48-.24-.7-.73-.69-1.13.05-2.2.06-3.21.03-.17,0-.31-.08-.43-.2-.12-.13-.18-.27-.18-.44,0-.18.07-.33.2-.45.13-.12.28-.18.46-.17,1.04.03,2.11.03,3.19,0,.46,0,.69-.23.69-.67,0-.04,0-.25-.01-.63,0-.19.07-.35.2-.48.13-.13.29-.2.48-.2s.35.07.48.2c.13.14.2.3.2.48v.48c0,.5.24.72.73.67.72-.08,1.5-.17,2.35-.29.19-.03.35.02.5.15.15.13.22.28.22.47,0,.36-.18.56-.55.6-1.01.13-1.86.23-2.56.29-.45.05-.67.29-.67.73v.04c0,.5.24.72.73.67.49-.05,1.18-.13,2.06-.27.19-.03.35.02.5.15.15.13.22.28.22.47,0,.36-.18.57-.53.62-.75.1-1.52.19-2.31.27-.45.04-.67.28-.67.73v.63c0,.51.26.85.77,1.02.95.31,1.99.76,3.12,1.36.24.13.36.34.36.62ZM81.11,105.87c.07-.47-.12-.72-.56-.76-.21-.02-.41-.03-.6-.03-1.34,0-2.02.32-2.02.97,0,.26.13.47.38.63.26.16.6.24,1.02.24.62,0,1.06-.07,1.32-.22.25-.14.41-.42.46-.83Z"/>
      <path class="cls-1" d="M101.77,99.92c0,.19-.07.34-.2.47-.13.13-.28.19-.46.2l-1.62.06c-.44.02-.67.25-.7.69-.05.71-.1,1.35-.17,1.93-.07.54-.2.93-.41,1.17s-.52.36-.94.36c-.35,0-.88-.15-1.6-.46-.26-.11-.39-.3-.39-.57,0-.19.06-.34.17-.46.12-.12.25-.18.41-.18.09,0,.19.02.28.06.43.2.7.29.81.29.22,0,.36-.3.41-.9.03-.42.05-.79.07-1.12,0-.23-.05-.41-.17-.53-.12-.12-.3-.18-.53-.17-.79.04-1.65.09-2.58.15-.45.04-.67.28-.67.73v3.35c0,.63.13,1.05.38,1.25.26.2.78.29,1.56.29,1.26,0,2.62-.07,4.09-.21.2-.02.37.04.51.17.14.13.22.29.22.49,0,.18-.06.33-.19.46s-.27.2-.44.21c-1.55.09-2.99.15-4.33.17-1.1,0-1.88-.14-2.34-.43-.57-.38-.85-1.1-.85-2.14v-3.43c0-.5-.25-.73-.74-.67l-1.4.15c-.19.02-.35-.04-.5-.17s-.22-.29-.22-.49c0-.17.06-.31.18-.43.12-.12.25-.19.41-.21l1.61-.15c.45-.05.67-.29.67-.73v-1.37c0-.19.07-.35.2-.49.14-.14.3-.21.5-.21s.35.07.48.21.2.3.2.49v1.2c0,.49.24.71.73.67.96-.08,1.82-.13,2.58-.17.45-.02.68-.25.69-.7v-1.36c0-.19.07-.35.2-.49.14-.14.3-.21.48-.21s.35.07.48.2c.14.14.2.3.2.48v1.27c0,.23.06.41.18.52.12.12.3.17.53.16l1.53-.06c.19,0,.35.05.48.18.14.13.2.29.2.48Z"/>
      <path class="cls-1" d="M115.55,104.47c-.33.96-.77,1.78-1.34,2.45-.65.76-1.39,1.15-2.22,1.15-.7,0-1.22-.18-1.55-.55-.29-.33-.49-.84-.59-1.55-.14-.95-.22-1.47-.24-1.57-.12-.55-.33-.83-.62-.83-.42,0-1.01.42-1.78,1.27-.83.92-1.36,1.68-1.6,2.27l-.18.46c-.1.25-.32.38-.66.38-.21,0-.38-.07-.51-.21-.14-.14-.2-.31-.2-.5,0-.08.01-.16.04-.24.86-2.43,2.16-5.73,3.91-9.9.12-.3.34-.45.66-.45.21,0,.38.07.52.22.14.15.21.32.21.51,0,.1-.02.2-.06.29-.37.84-1.01,2.3-1.92,4.38-.08.21-.13.37-.13.5,0,.18.07.27.2.27s.29-.07.49-.22c.43-.33.84-.49,1.25-.49.67,0,1.14.26,1.4.78.19.36.36,1.04.5,2.03.09.63.17,1.03.24,1.18.11.31.31.46.6.46.87,0,1.61-.89,2.23-2.67.11-.33.34-.49.69-.49.21,0,.38.07.52.22.14.15.21.33.21.54,0,.1-.02.21-.06.31Z"/>
      <path class="cls-1" d="M121.53,106.69c0,.57-.2,1.05-.6,1.45s-.89.59-1.46.59-1.05-.2-1.45-.59c-.4-.4-.59-.88-.59-1.45s.2-1.05.59-1.46c.4-.4.88-.6,1.45-.6s1.05.2,1.46.6.6.89.6,1.46ZM120.53,106.69c0-.3-.1-.55-.31-.76s-.46-.31-.76-.31-.54.1-.74.31-.31.46-.31.75.1.53.31.74c.21.2.45.3.74.3s.55-.1.76-.29.31-.44.31-.74Z"/>
      <path class="cls-1" d="M138.72,97.69c0,.1-.02.2-.07.28-.23.43-.52.89-.85,1.37-.07.09-.1.18-.1.25,0,.17.12.25.36.25.15,0,.28.05.38.16s.16.24.16.38-.05.28-.16.38-.24.16-.38.16h-.94c-.39,0-.74.14-1.05.43l-.21.2c-.07.07-.1.13-.1.18,0,.1.08.15.24.15h.69c.62,0,.92.21.92.64,0,.23-.12.46-.35.67l-.7.66c-.11.1-.17.2-.17.29,0,.17.13.23.39.2.55-.07.99-.14,1.3-.2.15-.03.29,0,.41.11.13.1.19.23.19.39,0,.3-.14.47-.43.52-.37.07-.96.16-1.75.28-.35.05-.52.24-.52.59v1.09c0,.51-.09.86-.27,1.04-.18.18-.51.27-1.01.27h-.92c-.14,0-.26-.05-.37-.16s-.16-.24-.16-.39.05-.27.15-.38c.1-.1.23-.15.38-.15h.45c.16,0,.27-.01.34-.04.15-.05.22-.21.22-.49v-.55c0-.4-.2-.58-.59-.53-.37.04-.94.1-1.71.18-.16.02-.3-.03-.42-.14-.12-.11-.18-.25-.18-.41,0-.34.17-.53.5-.56.48-.04,1.1-.09,1.86-.17.35-.04.53-.22.53-.56,0-.21.07-.36.21-.46.09-.07.23-.13.4-.19s.29-.12.36-.17l.1-.08c.08-.06.13-.13.13-.2,0-.1-.1-.15-.29-.15h-1.01c-.32,0-.61.09-.88.26-.27.17-.63.39-1.1.64-.08.05-.18.07-.28.07-.16,0-.3-.06-.41-.17-.12-.12-.17-.25-.17-.41,0-.25.12-.43.35-.53.72-.32,1.44-.73,2.16-1.25.12-.08.18-.18.18-.28,0-.16-.12-.24-.36-.24h-1.83c-.15,0-.28-.05-.39-.16s-.16-.24-.16-.38.05-.28.16-.38.24-.16.39-.16h1.51c.37,0,.56-.19.56-.56v-.17c0-.37-.19-.56-.56-.56h-1.05c-.15,0-.28-.05-.39-.16s-.16-.24-.16-.38.05-.28.16-.38.24-.15.39-.15h1.05c.37,0,.56-.19.56-.56v-.21c0-.16.06-.3.18-.41.12-.12.25-.18.41-.18s.3.06.41.18c.12.12.18.25.18.41v.21c0,.37.19.56.56.56h.45c.15,0,.28.05.38.15s.15.23.15.38-.05.28-.15.38-.23.16-.38.16h-.46c-.37,0-.56.19-.56.56v.17c0,.37.09.56.27.56.19,0,.36-.11.52-.32.52-.69.94-1.38,1.26-2.07.1-.22.28-.34.52-.34.17,0,.31.06.42.17.11.11.17.25.17.41ZM144.45,98.85c0,.3-.13.48-.39.55-.35.09-.53.28-.56.56-.18,1.65-.54,3.09-1.08,4.31-.08.2-.13.37-.13.53,0,.21.08.41.22.62.43.58.95,1.14,1.55,1.68.16.14.24.31.24.52,0,.19-.07.34-.2.47s-.29.19-.48.19-.34-.06-.46-.18c-.43-.42-.84-.9-1.25-1.43-.16-.21-.32-.31-.49-.31-.16,0-.32.1-.48.29-.49.6-1,1.13-1.54,1.6-.12.1-.27.15-.43.15-.18,0-.33-.07-.46-.2s-.19-.29-.19-.48c0-.21.08-.38.25-.52.74-.6,1.34-1.19,1.81-1.76.16-.2.24-.4.24-.62,0-.16-.04-.33-.13-.52-.29-.62-.54-1.31-.74-2.04-.05-.17-.12-.25-.21-.25-.08,0-.16.07-.22.21l-.2.43c-.09.21-.26.32-.5.32-.16,0-.29-.06-.41-.17-.11-.12-.17-.25-.17-.41,0-.08.02-.16.06-.24.82-1.59,1.43-3.4,1.83-5.45.07-.33.26-.49.59-.49.17,0,.31.06.42.17.11.12.17.25.17.41,0,.08-.06.35-.17.78-.02.07-.03.14-.03.21,0,.3.17.45.5.45h2.42c.16,0,.3.06.41.17s.17.26.17.43ZM142.35,100.01c.03-.38-.15-.57-.55-.57h-.69c-.49,0-.71.25-.66.74.11,1.02.35,1.97.71,2.87.08.2.19.29.32.29.1,0,.18-.07.22-.2.34-.88.55-1.92.63-3.14Z"/>
      <path class="cls-1" d="M151.54,104.14c0,.16-.06.3-.17.42-.12.12-.26.18-.43.18-.16,0-.34-.09-.55-.27-.15-.16-.3-.31-.45-.46-.12-.12-.23-.18-.34-.18-.18,0-.27.14-.27.42v3.7c0,.17-.06.31-.18.43-.12.12-.27.17-.43.17s-.31-.06-.43-.17c-.12-.12-.17-.26-.17-.43v-3.42c0-.28-.08-.42-.25-.42-.1,0-.21.06-.34.18-.18.18-.44.42-.78.73-.11.1-.25.15-.42.15s-.31-.06-.43-.18c-.12-.12-.18-.27-.18-.43,0-.19.08-.34.22-.48,1.63-1.41,2.77-2.75,3.42-4.02.09-.18.14-.31.14-.41,0-.17-.17-.25-.52-.25h-2.48c-.16,0-.29-.06-.4-.17-.11-.11-.16-.25-.16-.41,0-.37.19-.56.56-.56h.9c.37,0,.56-.19.56-.56v-.97c0-.17.06-.31.18-.43.12-.12.27-.18.43-.18s.31.06.43.18c.12.12.18.27.18.43v.97c0,.37.19.56.56.56h.24c.71,0,1.06.27,1.06.81,0,.18-.05.37-.15.59-.27.57-.58,1.11-.92,1.61-.14.21-.21.4-.21.59,0,.21.09.41.28.6.29.3.72.7,1.29,1.2.14.12.21.28.21.46ZM158.87,107.57c0,.17-.06.31-.18.43-.12.12-.27.17-.43.17h-6.89c-.17,0-.31-.06-.42-.17-.11-.12-.17-.26-.17-.43s.06-.31.17-.43c.11-.12.25-.17.42-.17h.46c.37,0,.56-.19.56-.56v-8.43c0-.79.4-1.19,1.19-1.19h2.69c.79,0,1.19.4,1.19,1.19v8.43c0,.37.19.56.56.56h.24c.17,0,.31.06.43.18.12.12.18.26.18.42ZM156.19,99.64v-1.04c0-.4-.2-.6-.59-.6h-1.37c-.4,0-.6.2-.6.6v1.04c0,.37.19.56.56.56h1.44c.37,0,.56-.19.56-.56ZM156.19,102.89v-.99c0-.37-.19-.56-.56-.56h-1.44c-.37,0-.56.19-.56.56v.99c0,.37.19.56.56.56h1.44c.37,0,.56-.19.56-.56ZM156.19,106.41v-1.27c0-.37-.19-.56-.56-.56h-1.44c-.37,0-.56.19-.56.56v1.27c0,.37.19.56.56.56h1.44c.37,0,.56-.19.56-.56Z"/>
      <path class="cls-1" d="M164.61,103.05c0,.15-.06.28-.17.38-.11.1-.24.15-.39.15-.19,0-.32-.06-.39-.17-.11-.16-.23-.36-.35-.59-.07-.11-.13-.17-.2-.17-.09,0-.14.08-.14.24v5.21c0,.16-.06.3-.17.41-.11.12-.25.17-.41.17-.17,0-.31-.06-.43-.17s-.17-.25-.17-.41v-4.72c0-.15-.04-.22-.11-.22-.07,0-.13.06-.18.18-.15.33-.35.73-.6,1.2-.11.21-.28.31-.52.31-.16,0-.29-.06-.41-.17s-.17-.25-.17-.41c0-.1.03-.21.08-.31.85-1.49,1.45-2.72,1.79-3.68.05-.12.07-.22.07-.29,0-.22-.17-.34-.52-.34h-.71c-.16,0-.29-.06-.41-.17-.11-.11-.17-.25-.17-.41s.06-.29.17-.4c.11-.11.25-.16.41-.16h.71c.37,0,.56-.19.56-.56v-1.23c0-.16.06-.3.17-.41s.26-.17.43-.17c.16,0,.29.06.41.17.11.12.17.25.17.41v1.23c0,.37.19.56.56.56h.52c.37,0,.56.19.56.56,0,.16-.05.29-.16.41-.11.11-.24.17-.4.17h-.59c-.3,0-.45.13-.45.39,0,.13.04.27.11.42.34.72.8,1.47,1.37,2.25.07.1.11.21.11.32ZM167.2,105.59c0,.17-.06.3-.18.41-.64.56-1.3,1.06-1.97,1.5-.11.08-.22.11-.34.11-.16,0-.3-.06-.41-.17s-.17-.25-.17-.41c0-.22.09-.39.28-.5.78-.48,1.41-.92,1.89-1.34.11-.09.23-.14.36-.14.36,0,.55.19.55.56ZM172.64,101.86c0,.14-.05.26-.16.36s-.23.15-.37.15h-2.56c-.33,0-.49.12-.49.36,0,.17.13.48.39.94.11.2.25.29.42.29.12,0,.24-.06.36-.17.26-.24.49-.48.69-.71.11-.13.26-.2.43-.2.16,0,.29.06.4.17s.16.25.16.41c0,.15-.05.28-.15.39-.29.32-.57.6-.85.84-.16.13-.24.27-.24.42,0,.12.06.24.18.36.38.38.81.76,1.29,1.12.16.12.24.28.24.48,0,.18-.06.33-.18.45-.12.12-.27.18-.43.18-.14,0-.27-.05-.39-.15-.82-.68-1.46-1.33-1.9-1.96-.1-.14-.2-.21-.29-.21-.12,0-.18.12-.18.35v1.5c0,.47-.09.79-.27.96s-.5.26-.98.26h-.9c-.15,0-.28-.05-.38-.16-.11-.11-.16-.24-.16-.39s.05-.28.16-.38.24-.16.38-.16h.42c.22,0,.36-.03.42-.1.06-.07.08-.22.08-.46v-3.79c0-.42-.21-.63-.63-.63h-2.38c-.14,0-.26-.05-.36-.15s-.15-.22-.15-.36.05-.26.15-.36c.1-.1.22-.15.36-.15h2.52c.33,0,.49-.15.49-.45s-.16-.43-.49-.43h-1.82c-.13,0-.25-.05-.34-.14-.1-.09-.15-.21-.15-.34s.05-.25.15-.34.21-.15.34-.15h1.82c.33,0,.49-.14.49-.43s-.16-.42-.49-.42h-2.28c-.14,0-.26-.05-.36-.15s-.15-.22-.15-.36.05-.26.15-.36.22-.15.36-.15h.78c.26,0,.39-.08.39-.25,0-.06-.01-.11-.04-.17-.09-.18-.14-.32-.14-.42,0-.16.06-.29.17-.41.11-.11.25-.17.41-.17.21,0,.38.1.52.29.05.07.14.27.28.57.17.36.44.55.81.55h.49c.39,0,.67-.16.84-.49.1-.21.2-.42.29-.64.09-.22.26-.33.52-.33.38,0,.57.19.57.56,0,.08-.03.18-.08.31-.06.14-.08.24-.08.32,0,.18.12.27.35.27h.83c.14,0,.26.05.36.15s.15.22.15.36-.05.26-.15.36-.22.15-.36.15h-2.42c-.33,0-.49.14-.49.42s.16.43.49.43h1.89c.13,0,.25.05.34.15.1.1.15.21.15.34s-.05.24-.15.34c-.1.09-.21.14-.34.14h-1.89c-.33,0-.49.14-.49.43s.16.45.49.45h2.63c.14,0,.26.05.37.15.11.1.16.22.16.36ZM167.1,104.27c0,.17-.06.31-.17.42s-.25.17-.42.17c-.16,0-.29-.05-.39-.15-.25-.25-.56-.52-.92-.81-.16-.12-.24-.28-.24-.46,0-.16.06-.29.17-.41.12-.11.25-.17.41-.17.12,0,.23.04.34.11.34.25.69.55,1.04.88.12.12.18.26.18.42Z"/>
      <path class="cls-1" d="M186.04,102.47c0,2.85-1.44,4.59-4.33,5.22-.03,0-.08.01-.15.01-.19,0-.35-.06-.48-.2-.13-.13-.2-.29-.2-.49,0-.37.17-.6.5-.69,2.16-.54,3.23-1.84,3.23-3.89,0-1.07-.29-1.93-.87-2.58-.21-.24-.48-.46-.8-.64-.36-.21-.69-.31-.98-.31-.4,0-.64.23-.73.7-.35,2.04-.77,3.67-1.26,4.91-.31.78-.61,1.37-.91,1.76-.48.61-1.03.91-1.67.91-.85,0-1.53-.42-2.04-1.27-.45-.73-.67-1.54-.67-2.44,0-1.74.58-3.17,1.73-4.31,1.15-1.14,2.6-1.71,4.33-1.71,1.63,0,2.91.42,3.84,1.26.97.88,1.46,2.12,1.46,3.74ZM179.81,99.65c0-.07.01-.13.01-.2,0-.34-.16-.52-.48-.52-.11,0-.23.02-.36.07-.86.3-1.56.86-2.1,1.67-.54.82-.81,1.75-.81,2.81,0,.58.14,1.09.41,1.53s.57.67.91.67c.4,0,.83-.56,1.29-1.69.38-.95.76-2.4,1.13-4.34Z"/>
      <path class="cls-1" d="M43.05,113.69c0,.1-.02.2-.07.28-.23.43-.52.89-.85,1.37-.07.09-.1.18-.1.25,0,.17.12.25.36.25.15,0,.28.05.39.16.11.11.16.24.16.38s-.05.28-.16.38c-.11.11-.24.16-.39.16h-.94c-.39,0-.74.14-1.05.43l-.21.2c-.07.07-.1.13-.1.18,0,.1.08.15.24.15h.69c.62,0,.92.21.92.64,0,.23-.12.46-.35.67l-.7.66c-.11.1-.17.2-.17.29,0,.17.13.23.39.2.55-.07.98-.14,1.3-.2.15-.03.29,0,.41.11.13.1.19.23.19.39,0,.3-.14.47-.43.52-.37.07-.96.16-1.75.28-.35.05-.52.24-.52.59v1.09c0,.51-.09.86-.27,1.04-.18.18-.51.27-1.01.27h-.92c-.14,0-.26-.05-.37-.16-.11-.11-.16-.24-.16-.39s.05-.27.15-.38c.1-.1.23-.15.38-.15h.45c.16,0,.27-.01.34-.04.15-.05.22-.21.22-.49v-.55c0-.4-.2-.58-.59-.53-.37.04-.94.1-1.71.18-.16.02-.3-.03-.42-.14-.12-.11-.18-.25-.18-.41,0-.34.17-.53.5-.56.48-.04,1.1-.09,1.86-.17.35-.04.53-.22.53-.56,0-.21.07-.36.21-.46.09-.07.23-.13.4-.19.17-.06.29-.12.36-.17l.1-.08c.08-.06.13-.13.13-.2,0-.1-.1-.15-.29-.15h-1.01c-.32,0-.61.09-.88.26-.27.17-.63.39-1.1.64-.08.05-.18.07-.28.07-.16,0-.3-.06-.41-.17-.12-.12-.17-.25-.17-.41,0-.25.12-.43.35-.53.72-.32,1.44-.73,2.16-1.25.12-.08.18-.18.18-.28,0-.16-.12-.24-.36-.24h-1.83c-.15,0-.28-.05-.38-.16-.11-.11-.16-.24-.16-.38s.05-.28.16-.38c.11-.11.24-.16.38-.16h1.51c.37,0,.56-.19.56-.56v-.17c0-.37-.19-.56-.56-.56h-1.05c-.15,0-.28-.05-.38-.16-.11-.11-.16-.24-.16-.38s.05-.28.16-.38c.11-.1.24-.15.38-.15h1.05c.37,0,.56-.19.56-.56v-.21c0-.16.06-.3.17-.41.12-.12.25-.18.41-.18s.3.06.41.18.17.25.17.41v.21c0,.37.19.56.56.56h.45c.15,0,.28.05.38.15.1.1.15.23.15.38s-.05.28-.15.38c-.1.11-.23.16-.38.16h-.46c-.37,0-.56.19-.56.56v.17c0,.37.09.56.27.56.19,0,.36-.11.52-.32.52-.69.94-1.38,1.26-2.07.1-.22.27-.34.52-.34.17,0,.31.06.42.17.11.11.17.25.17.41ZM48.77,114.85c0,.3-.13.48-.39.55-.35.09-.53.28-.56.56-.18,1.65-.54,3.09-1.08,4.31-.08.2-.13.37-.13.53,0,.21.07.41.22.62.43.58.95,1.14,1.55,1.68.16.14.24.31.24.52,0,.19-.07.34-.2.47s-.29.19-.48.19-.34-.06-.46-.18c-.43-.42-.84-.9-1.25-1.43-.16-.21-.32-.31-.49-.31-.16,0-.32.1-.48.29-.49.6-1,1.13-1.54,1.6-.12.1-.27.15-.43.15-.18,0-.33-.07-.45-.2s-.19-.29-.19-.48c0-.21.08-.38.25-.52.74-.6,1.34-1.19,1.81-1.76.16-.2.24-.4.24-.62,0-.16-.04-.33-.13-.52-.29-.62-.54-1.31-.74-2.04-.05-.17-.12-.25-.21-.25-.08,0-.16.07-.22.21l-.2.43c-.09.21-.26.32-.5.32-.16,0-.29-.06-.41-.17-.11-.12-.17-.25-.17-.41,0-.08.02-.16.06-.24.82-1.59,1.43-3.4,1.83-5.45.06-.33.26-.49.59-.49.17,0,.31.06.42.17.11.12.17.25.17.41,0,.08-.06.35-.17.78-.02.07-.03.14-.03.21,0,.3.17.45.5.45h2.42c.16,0,.3.06.41.17.12.12.17.26.17.43ZM46.67,116.01c.03-.38-.15-.57-.55-.57h-.69c-.5,0-.71.25-.66.74.11,1.02.35,1.97.71,2.87.08.2.19.29.32.29.1,0,.18-.07.22-.2.34-.88.55-1.92.63-3.14Z"/>
      <path class="cls-1" d="M61.78,123.76c-.89.18-1.84.27-2.86.27-.9,0-1.49-.28-1.79-.84-.17-.3-.28-.9-.32-1.81-.04-.61-.21-.91-.53-.91-.61,0-1.29.36-2.06,1.08-.24.22-.91.92-1.99,2.1-.15.16-.33.24-.55.24s-.38-.07-.52-.22c-.14-.15-.21-.32-.21-.53s.07-.37.22-.52c1.46-1.45,3.27-3.19,5.45-5.22.15-.14.22-.26.22-.35,0-.16-.17-.22-.5-.2l-3.58.28c-.2.02-.37-.04-.52-.17-.15-.14-.22-.3-.22-.5s.06-.35.19-.48.28-.2.46-.21l5.6-.32c.31-.02.56.05.75.21.19.16.29.36.29.59,0,.27-.13.52-.38.74-.54.48-1.17,1.06-1.88,1.74-.21.2-.31.34-.31.43,0,.1.12.17.36.2.6.07.93.52,1.01,1.36.06.74.12,1.17.15,1.29.12.46.38.69.77.69.3,0,.74-.05,1.33-.15.59-.1,1.02-.15,1.3-.15.19,0,.34.07.46.21.12.14.18.31.18.5,0,.36-.18.58-.53.66ZM59.19,113.89c0,.2-.07.36-.21.5-.14.13-.31.19-.5.17-1.73-.17-3.13-.4-4.2-.69-.34-.09-.5-.31-.5-.66,0-.19.06-.35.2-.48.13-.13.29-.2.48-.2.06,0,.12,0,.18.03,1.07.3,2.39.52,3.95.66.18.02.32.09.44.21s.18.27.18.45Z"/>
      <path class="cls-1" d="M75.86,117.46c0,.28-.13.48-.39.59-.63.26-1.21.53-1.76.8-.38.19-.62.38-.71.59-.07.15-.1.45-.1.9v.9c0,.19-.07.34-.2.47-.13.13-.29.19-.48.19s-.34-.06-.47-.19-.19-.28-.19-.47v-.53c0-.33-.12-.49-.36-.49-.1,0-.21.04-.34.11-1.13.7-1.69,1.3-1.69,1.81,0,.29.19.5.57.62.38.13,1.04.19,1.96.19.73,0,1.69-.08,2.9-.24.2-.03.37.02.51.15.15.13.22.29.22.49,0,.17-.06.31-.17.44-.11.13-.25.2-.42.22-1.06.12-2.11.18-3.14.18s-1.88-.09-2.45-.27c-.95-.31-1.43-.87-1.43-1.69,0-.95,1.03-2.04,3.09-3.26.34-.2.5-.39.5-.59,0-.24-.2-.36-.59-.36-.54,0-1.23.26-2.06.77-.67.42-1.27.89-1.78,1.4l-.36.43c-.15.14-.31.21-.49.21-.19,0-.34-.06-.47-.19s-.19-.28-.19-.47c0-.17.05-.31.15-.43.97-1.17,1.78-2.33,2.44-3.5.07-.11.1-.22.1-.32,0-.24-.17-.36-.52-.35-.31,0-.76.01-1.36.01-.17,0-.31-.06-.43-.18s-.17-.27-.17-.43c0-.18.06-.33.19-.45.13-.12.27-.18.44-.17.58.02,1.22.02,1.92,0,.55,0,.92-.27,1.12-.77l.28-.73c.11-.29.32-.43.63-.43.19,0,.34.07.47.2s.19.29.19.46c0,.08-.01.16-.04.24-.05.11-.07.18-.08.21-.04.1-.06.2-.06.28,0,.27.17.39.5.35.35-.04,1.03-.13,2.02-.28.19-.03.35.02.5.15.15.13.22.28.22.47,0,.37-.19.58-.56.63-.93.12-1.77.21-2.51.27-.41.04-.72.12-.93.26-.21.13-.41.38-.59.72-.02.03-.07.1-.14.22-.1.18-.15.32-.15.43,0,.14.08.21.25.21.1,0,.24-.03.41-.1.49-.19.95-.28,1.36-.28.56,0,.99.19,1.29.56.21.25.4.38.59.38.1,0,.21-.03.34-.08l1.69-.83c.09-.05.19-.07.28-.07.18,0,.33.06.46.19s.19.28.19.47Z"/>
      <path class="cls-1" d="M90.55,120.28c0,1.28-.04,2.14-.13,2.59-.11.58-.33.97-.66,1.18-.33.21-.89.31-1.69.31h-.5c-.16,0-.3-.06-.41-.17-.12-.11-.18-.25-.18-.42s.06-.31.18-.43c.12-.12.25-.17.41-.17h.53c.43,0,.72-.07.88-.22.15-.14.25-.44.3-.89.03-.27.04-.97.04-2.09v-4.47c0-.47-.23-.7-.7-.7h-3.25c-.44,0-.77.19-1.01.57-.18.3-.41.64-.7,1.04-.12.17-.28.25-.49.25-.3,0-.49-.14-.57-.41v6.89c0,.52-.08.88-.24,1.06-.16.18-.47.27-.92.27h-.53c-.18,0-.33-.06-.46-.19s-.19-.28-.19-.46.06-.33.19-.46.28-.2.46-.2h.1c.22,0,.35-.06.39-.18.02-.09.03-.21.03-.34v-2.09c0-.28-.14-.42-.42-.42h-.36c-.27,0-.42.14-.43.41-.08,1.21-.27,2.3-.56,3.25-.1.33-.31.49-.63.49-.19,0-.34-.07-.47-.2-.13-.14-.19-.29-.19-.47,0-.08.01-.16.04-.22.46-1.14.69-2.89.69-5.25v-4.72c0-.65.33-.98.98-.98h1.55c.65,0,.98.33.98.98v2.48c.02-.07.05-.12.08-.17.78-1.06,1.38-2.15,1.79-3.26.09-.26.28-.39.55-.39.17,0,.31.06.42.17.11.12.17.25.17.41,0,.05-.02.14-.07.27-.05.14-.07.24-.07.32,0,.26.16.39.48.39h3.21c.93,0,1.4.47,1.4,1.4v5.22ZM81.42,115.29v-1.18c0-.31-.13-.46-.39-.46h-.35c-.29,0-.43.15-.43.46v1.18c0,.28.14.42.42.42h.34c.28,0,.42-.14.42-.42ZM81.42,118.6v-1.36c0-.28-.14-.42-.42-.42h-.34c-.28,0-.42.14-.42.42v1.36c0,.28.14.42.42.42h.34c.28,0,.42-.14.42-.42ZM88.56,121.26c0,.77-.39,1.15-1.16,1.15h-2.87c-.77,0-1.15-.38-1.15-1.15v-3.82c0-.14.05-.26.15-.36.1-.1.22-.15.36-.15.13,0,.24.05.34.15.1.1.15.22.15.36v2.2c.35-.43.62-.79.8-1.08.09-.16.14-.31.14-.45,0-.25-.25-.64-.74-1.16-.09-.1-.14-.21-.14-.32,0-.13.05-.25.15-.34.1-.1.21-.15.34-.15.17,0,.4.18.69.53.08.1.17.15.25.15.1,0,.18-.07.22-.22.11-.34.2-.64.25-.9.06-.25.22-.38.5-.38.34,0,.5.17.5.5s-.17.88-.52,1.65c-.07.17-.11.32-.11.46,0,.16.07.37.22.63.12.2.24.39.36.59.04.07.06.15.06.24,0,.13-.05.25-.15.34-.1.1-.21.15-.34.15-.2,0-.34-.08-.43-.25l-.13-.24c-.07-.12-.15-.18-.24-.18s-.18.06-.25.17c-.24.38-.49.72-.74,1.02-.11.13-.25.2-.41.2-.1,0-.2-.03-.29-.1v.39c0,.29.19.43.56.43h2.03c.37,0,.56-.15.56-.43v-4.09c0-.14.05-.26.15-.36.1-.1.22-.15.36-.15s.26.05.36.15c.1.1.15.22.15.36v4.45Z"/>
      <path class="cls-1" d="M95.87,113.65c-.37,2.14-.56,4.16-.56,6.06,0,1.33.05,2.45.15,3.35.03.21-.03.41-.18.57s-.33.25-.55.25c-.2,0-.36-.07-.5-.2-.14-.13-.22-.29-.24-.48-.09-.9-.14-2.04-.14-3.42,0-2.07.2-4.21.59-6.4.07-.4.31-.6.71-.6.22,0,.41.09.55.26.15.17.2.37.16.59ZM104.37,122.19c0,.17-.06.32-.18.46-.12.14-.27.21-.43.23-1.21.16-2.23.24-3.04.24-2.47,0-3.71-.75-3.71-2.24,0-.42.12-.85.35-1.29.13-.25.33-.38.59-.38.46,0,.69.22.69.66,0,.09-.03.23-.08.41-.06.18-.08.33-.08.44,0,.38.23.65.69.8.39.14,1.01.21,1.86.21.69,0,1.54-.08,2.55-.24.21-.04.4.02.57.16.16.14.25.32.25.54ZM103.88,114.78c0,.18-.06.33-.18.46-.12.13-.26.21-.44.24-1.05.15-2.17.22-3.35.22-.52,0-1.09-.02-1.71-.06-.18,0-.33-.08-.46-.22-.13-.13-.2-.3-.2-.48,0-.21.08-.38.23-.51.15-.13.33-.19.52-.17.52.05,1.08.07,1.67.07,1.05,0,2.09-.08,3.09-.24.21-.04.4.01.57.15.16.14.25.32.25.53Z"/>
      <path class="cls-1" d="M110.39,123.6c0,.22-.07.41-.22.56-.15.15-.34.22-.56.22-.24,0-.44-.09-.6-.28-.55-.66-1.11-1.23-1.67-1.71-.18-.15-.27-.34-.27-.56s.07-.39.22-.54c.14-.14.32-.22.54-.22.19,0,.35.06.49.18.78.68,1.41,1.28,1.88,1.81.13.14.2.32.2.53Z"/>
      <path class="cls-1" d="M124.82,118.38c0,.14-.04.27-.13.38-.64.86-1.53,1.74-2.66,2.65-.13.1-.27.15-.42.15-.19,0-.34-.07-.47-.2-.13-.13-.19-.28-.19-.46,0-.22.08-.4.25-.53,1.08-.83,1.91-1.62,2.49-2.37.13-.17.29-.25.49-.25.18,0,.33.06.45.18s.18.27.18.45ZM133.25,116.67c0,.17-.06.31-.18.43-.12.12-.26.18-.43.18h-4.35c-.42,0-.63.21-.63.63v2.07c0,.61-.11,1.02-.34,1.23-.22.21-.64.31-1.25.31h-1.16c-.15,0-.28-.06-.39-.17-.11-.11-.17-.25-.17-.41,0-.15.06-.28.17-.39s.24-.17.39-.17h.84c.26,0,.43-.04.5-.13.07-.09.11-.26.11-.53v-1.82c0-.42-.21-.63-.63-.63h-4.12c-.17,0-.31-.06-.43-.18-.12-.12-.17-.27-.17-.43,0-.16.06-.3.17-.42.12-.12.26-.18.43-.18h1.02c.37,0,.56-.19.56-.56v-2.02c0-.18.06-.33.19-.45s.28-.18.46-.18c.17,0,.31.06.43.18.12.12.18.27.18.45v2.02c0,.37.19.56.56.56h1.01c.37,0,.56-.19.56-.56v-2.67c0-.18.06-.33.19-.46s.28-.19.46-.19.32.06.44.19.19.28.19.46v.1c0,.37.19.56.56.56h3.33c.17,0,.31.06.43.17.12.11.17.25.17.42s-.06.31-.18.43c-.12.12-.26.17-.42.17h-3.33c-.37,0-.56.19-.56.56v.27c0,.37.19.56.56.56h4.21c.17,0,.31.06.43.18.12.12.18.26.18.42ZM130.53,120.84c0,.18-.07.33-.2.46-1,.98-2.15,1.74-3.44,2.28-1.09.45-2.43.8-4.02,1.05-.21.03-.39-.03-.55-.16-.16-.14-.24-.31-.24-.51,0-.38.2-.6.59-.66,1.54-.21,2.8-.52,3.78-.92,1.12-.46,2.12-1.12,3.01-2,.11-.11.25-.17.42-.17.18,0,.33.06.46.18s.19.27.19.45ZM133.33,120.62c0,.18-.07.33-.2.46-.13.13-.29.2-.46.2-.13,0-.25-.03-.35-.1-1.02-.64-2-1.41-2.95-2.3-.13-.12-.2-.28-.2-.46s.06-.33.18-.45.27-.18.45-.18.32.05.43.15c.9.83,1.83,1.54,2.79,2.13.21.12.31.3.31.55Z"/>
      <path class="cls-1" d="M147.14,120.47c-.33.96-.77,1.78-1.34,2.45-.65.76-1.4,1.15-2.23,1.15-.7,0-1.22-.18-1.55-.55-.29-.33-.49-.84-.59-1.55-.14-.95-.22-1.47-.24-1.57-.12-.55-.33-.83-.62-.83-.42,0-1.01.42-1.78,1.27-.83.92-1.36,1.68-1.6,2.27l-.18.46c-.1.25-.32.38-.66.38-.21,0-.38-.07-.51-.21-.13-.14-.2-.31-.2-.5,0-.08.01-.16.04-.24.86-2.43,2.16-5.73,3.91-9.9.12-.3.34-.45.66-.45.21,0,.38.07.52.22.14.15.21.32.21.51,0,.1-.02.2-.06.29-.37.84-1.01,2.3-1.92,4.38-.08.21-.13.37-.13.5,0,.18.07.27.2.27s.29-.07.49-.22c.43-.33.84-.49,1.25-.49.67,0,1.14.26,1.4.78.19.36.35,1.04.5,2.03.09.63.17,1.03.24,1.18.11.31.31.46.6.46.87,0,1.61-.89,2.23-2.67.11-.33.34-.49.69-.49.21,0,.38.07.52.22.14.15.21.33.21.54,0,.1-.02.21-.06.31Z"/>
      <path class="cls-1" d="M160.81,114.14c0,.37-.25.6-.76.67-1.41.21-2.66.8-3.75,1.74s-1.64,1.94-1.64,2.99c0,1.51,1.21,2.48,3.63,2.9.4.07.6.3.6.71,0,.22-.09.41-.26.57s-.37.21-.59.16c-1.45-.28-2.55-.71-3.3-1.29-1-.77-1.5-1.75-1.5-2.94,0-1.01.34-1.92,1.02-2.74.3-.35.59-.65.88-.9s.43-.45.43-.62c0-.22-.24-.32-.71-.28-1.91.17-3.47.33-4.66.49-.21.03-.38-.03-.53-.17s-.22-.31-.22-.52c0-.18.06-.33.17-.47.12-.13.26-.21.44-.22,1.72-.17,5.02-.42,9.9-.76.25,0,.46.05.62.17.16.13.24.29.24.48ZM160.06,118.27c0,.15-.05.28-.16.38s-.24.16-.38.16c-.22,0-.39-.08-.49-.25-.27-.43-.56-.8-.87-1.11-.1-.1-.15-.23-.15-.38,0-.37.18-.56.55-.56.16,0,.3.07.42.21.39.44.72.85.98,1.23.07.11.11.21.11.31ZM161.77,117.47c0,.15-.05.28-.16.38s-.24.16-.38.16c-.21,0-.38-.08-.49-.25-.31-.46-.6-.83-.87-1.13-.1-.11-.15-.23-.15-.35,0-.37.19-.56.56-.56.14,0,.28.07.41.2.33.33.66.74.99,1.25.07.13.1.23.1.31Z"/>
      <path class="cls-1" d="M169.37,121.13c-.82,1.61-1.61,2.42-2.37,2.42-.93,0-1.66-.83-2.17-2.49-.4-1.29-.6-2.75-.6-4.38,0-.84.03-1.56.08-2.17.02-.2.1-.36.23-.49.13-.13.3-.2.5-.2.21,0,.39.08.54.25s.21.35.19.57c-.07.62-.1,1.35-.1,2.17,0,1.07.12,2.14.35,3.19.26,1.17.61,1.75,1.04,1.75.31,0,.66-.42,1.05-1.26.12-.25.33-.38.63-.38.2,0,.36.07.5.2s.2.3.2.5c0,.12-.02.23-.07.32ZM175.43,120.69c.03.22-.03.42-.18.6-.15.18-.34.27-.57.27-.2,0-.37-.07-.52-.2-.15-.13-.23-.29-.25-.48-.23-2.12-.92-4-2.06-5.66-.08-.12-.13-.26-.13-.41,0-.21.07-.38.21-.52.14-.14.31-.21.52-.21.25,0,.45.1.6.31,1.29,1.79,2.08,3.89,2.38,6.29Z"/>
      <path class="cls-1" d="M188.84,116.32c0,.3-.14.5-.43.6-.62.21-1.18.38-1.68.5-.3.07-.45.22-.45.43,0,.12.05.25.14.38.46.63.88,1.18,1.27,1.62.13.15.2.32.2.5,0,.21-.07.4-.22.55-.15.15-.33.23-.55.23-.11,0-.22-.02-.32-.06-1.24-.5-2.41-.74-3.5-.74-1.79,0-2.69.42-2.69,1.27s1.13,1.25,3.39,1.25c.77,0,1.65-.05,2.63-.15.19-.02.35.04.5.16s.22.28.22.47c0,.38-.2.59-.59.63-.89.09-1.82.14-2.8.14-3.15,0-4.72-.82-4.72-2.46s1.26-2.45,3.78-2.45c.59,0,1.27.09,2.06.27.08.02.14.03.2.03.19,0,.28-.07.28-.2,0-.09-.05-.2-.14-.32-.05-.07-.17-.24-.38-.52-.25-.35-.56-.52-.94-.52-.11,0-.24,0-.38.03-1.3.18-2.72.26-4.27.24-.17,0-.31-.06-.43-.18-.12-.12-.17-.27-.17-.43s.06-.32.18-.44.27-.18.43-.17c1.16.04,2.39-.01,3.71-.15.35-.04.53-.18.53-.42,0-.11-.04-.22-.11-.32-.22-.38-.55-.55-.97-.5-.8.09-1.73.14-2.77.14-.16,0-.3-.06-.43-.18-.13-.12-.19-.26-.19-.42,0-.17.06-.31.19-.43.13-.12.27-.17.43-.17.77,0,1.49-.01,2.16-.07.39-.04.59-.16.59-.38,0,0-.08-.21-.25-.62-.03-.06-.04-.14-.04-.22,0-.19.06-.35.2-.48.13-.13.29-.2.49-.2.31,0,.52.15.63.45.04.11.1.29.2.52.14.35.37.53.7.53.08,0,.17-.01.27-.04.65-.17,1.31-.37,1.96-.6.08-.03.14-.04.21-.04.18,0,.33.06.46.18.13.12.19.27.19.45,0,.32-.15.52-.45.62-.69.22-1.3.4-1.82.52-.34.08-.5.23-.5.46,0,.1.04.21.11.31l.03.04c.2.3.43.45.71.45.07,0,.15,0,.24-.03.74-.18,1.43-.39,2.07-.63.05-.02.11-.03.2-.03.18,0,.33.06.46.18.13.12.19.27.19.45Z"/>
      <path class="cls-1" d="M53.51,138.41c0,.2-.07.36-.2.5-.14.14-.3.2-.5.2-.13,0-.25-.03-.36-.1-.93-.55-1.76-.97-2.49-1.25-.09-.04-.18-.06-.25-.06-.27,0-.43.19-.48.56-.07.56-.26.98-.56,1.25-.47.42-1.3.63-2.51.63-.77,0-1.4-.14-1.9-.43-.62-.36-.92-.91-.92-1.62,0-.81.39-1.41,1.16-1.78.58-.28,1.33-.42,2.24-.42.1,0,.26,0,.48.01.49.02.73-.19.73-.62v-.39c0-.47-.24-.7-.71-.69-.99.03-1.94.04-2.86.03-.17,0-.31-.06-.43-.19s-.17-.27-.17-.44.06-.31.19-.43c.13-.12.27-.17.44-.17.91.02,1.86.02,2.84,0,.46,0,.69-.25.69-.71v-.06c0-.48-.24-.7-.73-.69-1.13.05-2.2.06-3.21.03-.17,0-.31-.08-.43-.2-.12-.13-.18-.27-.18-.44,0-.18.07-.33.2-.45.13-.12.28-.18.46-.17,1.04.03,2.11.03,3.19,0,.46,0,.69-.23.69-.67,0-.04,0-.25-.01-.63,0-.19.07-.35.2-.48.13-.13.29-.2.48-.2s.35.07.48.2c.13.14.2.3.2.48v.48c0,.5.24.72.73.67.72-.08,1.5-.17,2.35-.29.19-.03.35.02.5.15.15.13.22.28.22.47,0,.36-.18.56-.55.6-1.01.13-1.86.23-2.56.29-.45.05-.67.29-.67.73v.04c0,.5.24.72.73.67.49-.05,1.18-.13,2.06-.27.19-.03.35.02.5.15.15.13.22.28.22.47,0,.36-.18.57-.53.62-.75.1-1.52.19-2.31.27-.45.04-.67.28-.67.73v.63c0,.51.26.85.77,1.02.95.31,1.99.76,3.12,1.36.24.13.36.34.36.62ZM47.9,137.87c.07-.47-.12-.72-.56-.76-.21-.02-.41-.03-.6-.03-1.34,0-2.02.32-2.02.97,0,.26.13.47.38.63.26.16.6.24,1.02.24.62,0,1.06-.07,1.32-.22.25-.14.41-.42.46-.83Z"/>
      <path class="cls-1" d="M68.48,130.91c0,.19-.07.35-.2.48-.13.13-.29.2-.48.2-1.47-.02-2.45-.02-2.95-.01-.46,0-.69.24-.69.71v.77c0,.34.09.87.28,1.58.07.29.11.59.11.9,0,1.23-.34,2.24-1.01,3.03s-1.71,1.4-3.12,1.84c-.07.02-.14.03-.21.03-.18,0-.33-.07-.47-.2s-.2-.29-.2-.49c0-.33.16-.54.49-.64,1.33-.4,2.25-1.02,2.77-1.85.09-.15.14-.28.14-.38,0-.13-.07-.2-.21-.2-.08,0-.18.03-.29.08-.26.13-.55.2-.85.2-.69,0-1.25-.17-1.67-.52-.46-.38-.69-.91-.69-1.58s.26-1.25.77-1.67c.48-.38,1.07-.57,1.78-.57.07,0,.16,0,.29.01.13,0,.22.01.28.01.27,0,.41-.12.41-.35,0-.48-.24-.71-.71-.69-1.7.07-3.41.16-5.14.29-.2.02-.37-.04-.51-.17-.15-.13-.22-.3-.22-.5s.06-.34.19-.47.28-.19.46-.2l5.21-.25c.45-.02.67-.23.67-.63v-.63c0-.2.07-.37.22-.51.14-.14.31-.22.51-.22s.36.07.5.21c.14.14.21.31.21.5v.53c0,.48.23.71.7.7,1.41-.02,2.4-.02,2.97-.01.19,0,.34.06.47.19s.19.28.19.47ZM62.68,134.91c.04-.13.06-.25.06-.36,0-.35-.15-.59-.45-.71-.16-.07-.35-.1-.56-.1-.32,0-.59.1-.8.31-.22.21-.33.46-.33.77,0,.64.34.97,1.02.97.56,0,.91-.29,1.06-.87Z"/>
      <path class="cls-1" d="M74.18,138.69c0,.57-.2,1.05-.6,1.45s-.89.59-1.46.59-1.05-.2-1.45-.59c-.4-.4-.6-.88-.6-1.45s.2-1.05.6-1.46c.4-.4.88-.6,1.45-.6s1.05.2,1.46.6.6.89.6,1.46ZM73.18,138.69c0-.3-.1-.55-.31-.76-.21-.21-.46-.31-.76-.31s-.54.1-.74.31c-.21.21-.31.46-.31.75s.1.53.31.74c.21.2.45.3.74.3s.55-.1.76-.29c.21-.2.31-.44.31-.74Z"/>
      <path class="cls-1" d="M96.24,136.14c0,1.19-.42,2.15-1.26,2.86-.73.62-1.72,1.02-2.97,1.19-.2.03-.37-.03-.53-.16-.15-.13-.23-.3-.23-.5,0-.38.19-.61.56-.67,2-.34,3-1.27,3-2.77,0-1.04-.42-1.76-1.27-2.18-.11-.06-.22-.08-.32-.08-.24,0-.44.15-.59.46-.61,1.27-1.3,2.38-2.09,3.32-1.2,1.44-2.4,2.16-3.6,2.16-.62,0-1.09-.18-1.44-.53s-.51-.83-.51-1.43c0-1.06.31-2.03.94-2.9.48-.66,1.07-1.2,1.78-1.62.42-.25.64-.6.67-1.05v-.27c.03-.43-.17-.64-.59-.64-.52,0-1.12,0-1.78-.01-.18,0-.33-.07-.46-.2s-.19-.28-.19-.46.07-.33.2-.46c.14-.13.3-.19.48-.18.86.04,1.5.05,1.92.04.38,0,.6-.21.66-.6l.08-.6c.06-.41.27-.62.66-.62.2,0,.37.08.52.25s.21.34.18.52l-.04.27c-.04.22,0,.4.1.52.1.12.27.17.49.15.96-.08,2.04-.2,3.25-.38.2-.03.37.02.52.15.15.13.23.3.23.5,0,.38-.2.6-.59.64-1.47.18-2.67.29-3.6.35-.44.03-.67.23-.7.6-.02.22.03.38.15.48.12.1.29.13.51.11.36-.05.68-.07.94-.07,1.43,0,2.56.27,3.4.81,1,.65,1.5,1.66,1.5,3.01ZM87.86,138.19c.42-.22.61-.67.56-1.33,0-.42-.02-.83-.03-1.25-.04-.65-.16-.98-.36-.98-.13,0-.28.07-.45.22-.36.32-.66.72-.88,1.2-.24.51-.36,1.03-.36,1.54,0,.55.23.83.69.83.26,0,.54-.08.84-.24ZM91.37,134.06c.05-.09.07-.18.07-.25,0-.23-.15-.34-.43-.32-.43.03-.75.1-.95.22-.29.17-.44.45-.45.84,0,.35,0,.76.01,1.2,0,.28.11.42.29.42.13,0,.25-.08.36-.24.42-.59.78-1.21,1.09-1.88Z"/>
      <path class="cls-1" d="M103.7,133.71c-.49.83-.89,1.64-1.22,2.42-.14.34-.38.5-.71.5-.47,0-.74-.24-.81-.73-.08-.55-.13-1.38-.13-2.48s.16-2.42.48-3.93c.09-.46.34-.69.73-.69.2,0,.36.07.49.2.13.13.2.3.2.5,0,.06,0,.11-.01.17-.34,1.54-.51,2.7-.53,3.49,0,.31.06.46.21.46.12,0,.25-.11.39-.34l.07-.11c.09-.15.23-.22.42-.22.34,0,.5.17.5.5,0,.09-.02.18-.07.25ZM108.52,133.78c0,1.58-.28,2.87-.85,3.88-.6,1.05-1.58,1.93-2.94,2.65-.1.06-.21.08-.34.08-.2,0-.36-.08-.5-.23-.14-.15-.21-.33-.21-.52,0-.26.13-.46.39-.6,1.14-.6,1.94-1.32,2.39-2.16.43-.77.64-1.82.64-3.15,0-1.2-.13-2.62-.38-4.24-.04-.21.02-.41.17-.58s.33-.26.55-.26c.18,0,.33.06.47.18.14.12.22.27.25.45.24,1.75.36,3.25.36,4.51Z"/>
      <path class="cls-1" d="M121.11,133.55c0,1.51-.25,3.15-.74,4.93-.15.53-.31.91-.49,1.13-.25.34-.6.5-1.05.5-.51,0-1.16-.13-1.93-.41-.32-.11-.48-.32-.48-.63,0-.19.07-.35.2-.48s.29-.2.47-.2c.08,0,.14,0,.2.03.49.16.82.24,1.01.24.22,0,.38-.07.48-.2.07-.09.16-.3.25-.63.44-1.5.66-2.87.66-4.09,0-.45-.09-.75-.27-.9-.18-.15-.51-.22-1.01-.22h-.2c-.08,0-.15.01-.21.01-.47,0-.77.24-.91.73-.62,2.12-1.46,4.17-2.49,6.15-.14.27-.36.41-.66.41-.21,0-.38-.07-.52-.22-.14-.14-.21-.32-.21-.53,0-.15.03-.28.08-.38.88-1.54,1.65-3.28,2.32-5.22.03-.09.04-.18.04-.25,0-.34-.2-.48-.6-.42-.29.05-.74.11-1.36.2-.2.03-.38-.03-.54-.16-.16-.14-.25-.31-.25-.51,0-.39.21-.62.62-.68.41-.06,1.06-.14,1.95-.25.45-.04.75-.32.91-.84.08-.46.16-.92.24-1.37.07-.4.3-.6.7-.6.22,0,.4.08.54.24.13.16.18.36.15.58,0,.05-.05.25-.13.62-.06.25-.1.45-.1.6,0,.39.22.57.66.55h.21c.71-.06,1.28.07,1.72.36.49.34.73.97.73,1.89ZM122.98,130.49c0,.15-.05.28-.16.38-.11.11-.24.16-.38.16-.22,0-.39-.08-.49-.25-.27-.43-.56-.8-.87-1.11-.1-.1-.15-.23-.15-.38,0-.37.18-.56.55-.56.16,0,.3.07.42.21.39.44.72.85.98,1.23.07.11.11.21.11.31ZM123.88,135.39c-.39-1.02-.92-2.01-1.58-2.98-.07-.11-.11-.24-.11-.38,0-.2.07-.36.22-.5.14-.13.31-.2.51-.2.23,0,.42.1.57.31.74,1.04,1.33,2.11,1.79,3.22.04.09.06.19.06.28,0,.2-.08.37-.25.52s-.35.22-.55.22c-.31,0-.53-.16-.66-.49ZM124.69,129.69c0,.15-.05.28-.16.38-.11.11-.24.16-.38.16-.21,0-.38-.08-.49-.25-.31-.46-.6-.83-.87-1.13-.1-.11-.15-.23-.15-.35,0-.37.19-.56.56-.56.14,0,.28.07.41.2.33.33.66.74.99,1.25.07.13.1.23.1.31Z"/>
      <path class="cls-1" d="M137.81,138.79c0,.4-.2.63-.6.69-1.54.21-3.08.32-4.62.32-2.74,0-4.12-.83-4.12-2.48,0-1.01.71-2.05,2.11-3.14.28-.21.42-.46.42-.74,0-.13-.03-.27-.08-.42-.41-1.04-.75-2.15-1.02-3.35,0-.05-.01-.1-.01-.15,0-.21.07-.38.22-.53.14-.14.32-.22.53-.22.18,0,.33.06.47.18s.22.27.26.45c.18.93.43,1.87.77,2.81.11.31.29.46.53.46.13,0,.27-.04.41-.13.08-.05,1.12-.61,3.09-1.69.12-.06.23-.1.34-.1.2,0,.36.07.5.21.13.14.2.31.2.5,0,.29-.13.5-.39.63-1.15.57-2.39,1.24-3.72,2.02-.85.49-1.53.96-2.03,1.39-.73.62-1.09,1.19-1.09,1.71,0,.84.88,1.26,2.63,1.26,1.45,0,2.92-.13,4.41-.38.21-.04.39.01.56.15.17.14.25.32.25.53Z"/>
      <path class="cls-1" d="M151.64,134.81c0,1.44-.61,2.66-1.82,3.65-.97.81-2.24,1.42-3.81,1.83-.08.02-.13.03-.17.03-.19,0-.35-.07-.48-.2-.13-.14-.2-.3-.2-.5,0-.35.16-.56.49-.66,1.2-.35,2.19-.81,2.95-1.4,1.03-.77,1.54-1.68,1.54-2.72,0-1.25-.63-1.88-1.89-1.88s-2.88.33-4.77.99c-.08.03-.16.04-.22.04-.19,0-.35-.07-.49-.21-.14-.14-.21-.31-.21-.5,0-.35.17-.57.5-.67,2.19-.66,3.95-.99,5.26-.99,1.04,0,1.85.27,2.42.8.6.56.9,1.35.9,2.38ZM150.02,129.91c0,.21-.08.38-.22.51-.15.13-.32.19-.52.17-1.89-.17-3.39-.4-4.48-.7-.35-.09-.52-.32-.52-.67,0-.2.07-.36.2-.5s.3-.2.5-.2c.06,0,.12,0,.18.03,1.24.34,2.65.56,4.21.67.18,0,.33.08.46.22.13.14.19.29.19.47Z"/>
      <path class="cls-1" d="M166.07,138.43c0,.39-.19.62-.57.7-1.47.27-2.9.41-4.27.41s-2.34-.11-3.11-.32c-1.25-.36-1.88-1.03-1.88-2.03,0-.68.44-1.46,1.33-2.35.12-.12.28-.18.46-.18.18,0,.33.06.46.19s.2.28.2.46c0,.17-.06.31-.18.43-.5.5-.76.94-.76,1.3,0,.78,1.19,1.16,3.56,1.16.93,0,2.25-.14,3.95-.43.21-.04.39.01.56.15.17.14.25.31.25.53ZM164.55,131.19c-.7.28-1.65.8-2.86,1.55-.12.08-.23.11-.32.11-.16,0-.3-.06-.41-.17s-.17-.26-.17-.43c0-.21.09-.38.28-.49l.18-.11c.18-.1.27-.21.27-.31,0-.12-.13-.18-.41-.18-.84,0-1.99-.03-3.44-.08-.18,0-.33-.08-.46-.21-.13-.13-.19-.28-.19-.46,0-.2.07-.36.22-.5.14-.13.31-.2.51-.19,1.84.13,4,.14,6.5.04.27,0,.49.06.65.2.16.14.24.31.24.5,0,.33-.2.57-.59.73ZM166.1,133.9c0,.15-.05.28-.16.38s-.24.16-.39.16c-.22,0-.39-.08-.49-.25-.27-.43-.56-.8-.87-1.11-.1-.1-.15-.23-.15-.38,0-.37.18-.56.55-.56.16,0,.3.07.42.21.39.44.72.85.98,1.23.07.11.11.21.11.31ZM167.81,133.11c0,.15-.05.28-.16.38s-.24.16-.39.16c-.21,0-.38-.08-.49-.25-.31-.46-.6-.83-.87-1.13-.1-.11-.15-.23-.15-.35,0-.37.19-.56.56-.56.14,0,.27.07.41.2.33.33.66.74.99,1.25.07.13.1.23.1.31Z"/>
      <path class="cls-1" d="M179.67,130.74c0,.28-.13.48-.39.6,0,0-.55.21-1.61.62-.3.11-.45.27-.45.46,0,.11.05.23.15.36.66.9,1.35,1.7,2.06,2.41.2.2.29.42.29.66,0,.21-.08.4-.23.55-.15.15-.35.22-.58.22-.15,0-.3-.03-.46-.1-1.13-.5-2.28-.76-3.46-.76-.86,0-1.53.13-2,.39-.48.26-.71.62-.71,1.08,0,1.05,1.14,1.58,3.42,1.58.91,0,1.81-.07,2.72-.2.2-.03.37.03.52.16.15.14.23.31.23.51,0,.17-.06.31-.17.44-.12.13-.25.2-.41.22-.91.12-1.81.18-2.72.18-3.34,0-5.01-.93-5.01-2.8,0-1.02.44-1.76,1.33-2.23.68-.36,1.58-.55,2.7-.55.51,0,1.02.06,1.51.18.16.04.29.06.39.06.2,0,.29-.07.29-.21,0-.11-.06-.24-.17-.38-.36-.43-.62-.76-.78-.99-.31-.42-.67-.63-1.09-.63-.11,0-.24.01-.38.04-1.06.18-2.33.27-3.79.27-.19,0-.34-.07-.48-.2-.13-.13-.2-.29-.2-.48s.07-.35.2-.48c.13-.13.29-.2.48-.2,1.01,0,2.04-.06,3.08-.18.33-.04.49-.18.49-.42,0-.12-.04-.25-.13-.38l-.48-.78c-.07-.11-.1-.23-.1-.35,0-.19.07-.35.2-.48.14-.13.3-.2.48-.2.28,0,.49.12.62.36.32.62.52.98.6,1.09.3.43.62.64.95.64.11,0,.24-.02.38-.06.58-.18,1.16-.4,1.74-.67.09-.05.19-.07.29-.07.19,0,.34.07.48.2.13.13.2.3.2.48ZM180.73,129.94c0,.14-.05.26-.15.36-.1.1-.22.15-.37.15-.2,0-.43-.17-.7-.52-.2-.26-.39-.52-.59-.78-.1-.1-.15-.22-.15-.35,0-.35.18-.53.53-.53.14,0,.27.07.39.2.38.43.7.82.94,1.18.07.09.1.19.1.29ZM182.37,129.17c0,.14-.05.26-.16.36-.11.1-.23.15-.37.15-.21,0-.36-.08-.46-.24-.3-.44-.57-.8-.83-1.08-.09-.1-.14-.21-.14-.34,0-.35.18-.53.53-.53.12,0,.25.07.38.2.34.34.65.73.95,1.18.07.13.1.23.1.29Z"/>
      <path class="cls-1" d="M58.14,153.13c-.82,1.61-1.61,2.42-2.37,2.42-.93,0-1.66-.83-2.17-2.49-.4-1.29-.6-2.75-.6-4.38,0-.84.03-1.56.08-2.17.02-.2.1-.36.23-.49s.3-.2.5-.2c.21,0,.39.08.54.25.14.16.21.35.19.57-.07.62-.1,1.35-.1,2.17,0,1.07.12,2.14.35,3.19.26,1.17.61,1.75,1.04,1.75.31,0,.66-.42,1.05-1.26.12-.25.33-.38.63-.38.2,0,.36.07.5.2s.2.3.2.5c0,.12-.02.23-.07.32ZM64.2,152.69c.03.22-.03.42-.18.6-.15.18-.34.27-.57.27-.2,0-.37-.07-.52-.2-.15-.13-.23-.29-.25-.48-.23-2.12-.92-4-2.06-5.66-.08-.12-.13-.26-.13-.41,0-.21.07-.38.21-.52.14-.14.31-.21.52-.21.25,0,.45.1.6.31,1.29,1.79,2.08,3.89,2.38,6.29Z"/>
      <path class="cls-1" d="M77.78,154.41c0,.2-.07.36-.2.5-.14.14-.3.2-.5.2-.13,0-.25-.03-.36-.1-.93-.55-1.76-.97-2.49-1.25-.09-.04-.18-.06-.25-.06-.27,0-.43.19-.48.56-.07.56-.26.98-.56,1.25-.47.42-1.3.63-2.51.63-.77,0-1.4-.14-1.9-.43-.62-.36-.92-.91-.92-1.62,0-.81.39-1.41,1.16-1.78.58-.28,1.33-.42,2.24-.42.1,0,.26,0,.48.01.49.02.73-.19.73-.62v-.39c0-.47-.24-.7-.71-.69-.99.03-1.94.04-2.86.03-.17,0-.31-.06-.43-.19s-.17-.27-.17-.44.06-.31.19-.43c.13-.12.27-.17.44-.17.91.02,1.86.02,2.84,0,.46,0,.69-.25.69-.71v-.06c0-.48-.24-.7-.73-.69-1.13.05-2.2.06-3.21.03-.17,0-.31-.08-.43-.2-.12-.13-.18-.27-.18-.44,0-.18.07-.33.2-.45.13-.12.28-.18.46-.17,1.04.03,2.11.03,3.19,0,.46,0,.69-.23.69-.67,0-.04,0-.25-.01-.63,0-.19.07-.35.2-.48.13-.13.29-.2.48-.2s.35.07.48.2c.13.14.2.3.2.48v.48c0,.5.24.72.73.67.72-.08,1.5-.17,2.35-.29.19-.03.35.02.5.15.15.13.22.28.22.47,0,.36-.18.56-.55.6-1.01.13-1.86.23-2.56.29-.45.05-.67.29-.67.73v.04c0,.5.24.72.73.67.49-.05,1.18-.13,2.06-.27.19-.03.35.02.5.15.15.13.22.28.22.47,0,.36-.18.57-.53.62-.75.1-1.52.19-2.31.27-.45.04-.67.28-.67.73v.63c0,.51.26.85.77,1.02.95.31,1.99.76,3.12,1.36.24.13.36.34.36.62ZM72.17,153.87c.07-.47-.12-.72-.56-.76-.21-.02-.41-.03-.6-.03-1.34,0-2.02.32-2.02.97,0,.26.13.47.38.63.26.16.6.24,1.02.24.62,0,1.06-.07,1.32-.22.25-.14.41-.42.46-.83Z"/>
      <path class="cls-1" d="M91.85,152.33c0,.13-.04.26-.11.38-.63,1.04-1.4,1.86-2.28,2.48-1,.68-2.06,1.02-3.18,1.02-2.46,0-3.68-1.11-3.68-3.33,0-.9.02-2.09.06-3.57.03-1.19.05-2.49.07-3.89,0-.2.07-.37.22-.51.15-.14.32-.22.52-.22s.38.08.53.22c.15.15.22.33.21.53l-.17,7.13c0,1.47.77,2.2,2.32,2.2.83,0,1.63-.29,2.39-.88.65-.49,1.23-1.13,1.72-1.95.14-.23.35-.35.63-.35.21,0,.38.07.52.22.14.14.22.32.22.52Z"/>
      <path class="cls-1" d="M102.03,147.62c-.68.13-1.37.24-2.07.32-.38.05-.66.14-.83.29-.17.15-.3.41-.39.77-.52,2.21-1.17,4.33-1.95,6.37-.12.31-.35.46-.69.46-.21,0-.38-.07-.52-.22-.14-.14-.21-.31-.21-.51,0-.09.02-.19.06-.28.79-1.88,1.44-3.86,1.95-5.96.02-.07.03-.14.03-.21,0-.33-.2-.48-.59-.48-.39,0-.75,0-1.08,0-.19,0-.35-.08-.48-.22-.14-.14-.2-.3-.2-.48,0-.2.07-.36.22-.5.14-.14.31-.21.51-.2.53.02.96.02,1.29.01.52-.02.82-.28.9-.77.03-.21.07-.51.14-.92s.3-.61.71-.61c.2,0,.36.07.5.21.14.14.21.3.21.49,0,.09-.04.33-.11.7,0,.07-.01.13-.01.18,0,.37.21.53.62.46.06,0,.38-.08.98-.2.45-.08.76-.13.92-.13.2,0,.36.07.48.21s.19.31.19.5c0,.38-.19.61-.57.69ZM106.45,154.99c0,.4-.2.63-.59.69-.89.13-1.82.2-2.8.2-2.48,0-3.72-.69-3.72-2.09,0-.32.08-.68.24-1.09.11-.28.32-.42.63-.42.44,0,.66.22.66.67,0,.08-.01.18-.04.32-.03.13-.04.24-.04.31,0,.63.8.95,2.39.95.7,0,1.53-.07,2.49-.21.21-.03.39.03.55.16.16.14.24.31.24.51ZM106.06,149.78c0,.2-.08.36-.22.5-.15.14-.32.21-.52.2-1.39-.07-2.88-.04-4.47.1-.2.02-.37-.04-.51-.17-.14-.13-.22-.3-.22-.5,0-.18.06-.33.17-.46s.26-.2.43-.22c1.58-.16,3.13-.21,4.65-.17.19,0,.35.08.48.22.14.14.2.3.2.49Z"/>
      <path class="cls-1" d="M113.55,154.8c0,.28-.09.52-.28.71-.19.19-.42.29-.7.29s-.52-.1-.71-.29c-.2-.19-.29-.43-.29-.71s.1-.52.29-.71c.2-.19.43-.29.71-.29s.5.1.69.29.29.43.29.7ZM118.14,145.89c0,.15-.04.3-.12.45l-3.61,6.37c-.13.22-.32.34-.56.34-.18,0-.33-.07-.46-.2s-.2-.29-.2-.46c0-.08.02-.17.07-.27l3.15-6.61c.17-.35.44-.53.81-.53.25,0,.47.09.65.27.18.18.27.39.27.64Z"/>
    </g>
    <g>
      <path class="cls-1" d="M138.27,169.08c0,1.19-.42,2.15-1.26,2.86-.73.62-1.72,1.02-2.97,1.19-.2.03-.37-.03-.52-.16-.15-.13-.23-.3-.23-.5,0-.38.19-.61.56-.67,2-.34,3-1.27,3-2.77,0-1.04-.42-1.76-1.27-2.18-.11-.06-.22-.08-.32-.08-.24,0-.44.15-.59.46-.61,1.27-1.3,2.38-2.09,3.32-1.2,1.44-2.4,2.16-3.6,2.16-.62,0-1.09-.18-1.44-.53s-.51-.83-.51-1.43c0-1.06.31-2.03.94-2.9.48-.66,1.07-1.2,1.78-1.62.42-.25.64-.6.67-1.05v-.27c.03-.43-.17-.64-.59-.64-.52,0-1.12,0-1.78-.01-.18,0-.33-.07-.45-.2s-.19-.28-.19-.46.07-.33.2-.46c.13-.13.3-.19.48-.18.86.04,1.5.05,1.92.04.38,0,.6-.21.66-.6l.08-.6c.06-.41.28-.62.66-.62.2,0,.37.08.52.25.15.17.21.34.18.52l-.04.27c-.04.22,0,.4.1.52s.27.17.49.15c.96-.08,2.04-.2,3.25-.38.2-.03.37.02.53.15.15.13.23.3.23.5,0,.38-.2.6-.59.64-1.47.18-2.67.29-3.6.35-.44.03-.67.23-.7.6-.02.22.03.38.15.48.12.1.29.13.51.11.36-.05.68-.07.94-.07,1.43,0,2.56.27,3.4.81,1,.65,1.5,1.66,1.5,3.01ZM129.88,171.12c.42-.22.61-.67.56-1.33,0-.42-.02-.83-.03-1.25-.04-.65-.16-.98-.36-.98-.13,0-.28.07-.45.22-.36.32-.66.72-.88,1.2-.24.51-.36,1.03-.36,1.54,0,.55.23.83.69.83.26,0,.54-.08.84-.24ZM133.39,166.99c.05-.09.07-.18.07-.25,0-.23-.14-.34-.43-.32-.43.03-.75.1-.95.22-.29.17-.44.45-.45.84,0,.35,0,.76.01,1.2,0,.28.11.42.29.42.13,0,.25-.08.36-.24.42-.59.78-1.21,1.09-1.88Z"/>
      <path class="cls-1" d="M152.87,166.2c0,1.07-.37,1.88-1.11,2.42-.64.49-1.52.73-2.63.73-.12,0-.41-.01-.87-.04-.17,0-.31-.08-.43-.21-.12-.13-.18-.28-.18-.45,0-.19.07-.34.21-.47.14-.13.3-.18.49-.17.44.02.67.03.7.03,1.6,0,2.39-.6,2.39-1.81,0-.43-.15-.76-.46-1-.31-.24-.71-.36-1.2-.36-.61,0-1.42.17-2.45.52l-1.33.45c-.33.11-.49.3-.49.57,0,.09.02.2.07.32.71,1.81,1.39,3.69,2.04,5.64.03.08.04.16.04.24,0,.2-.07.36-.21.5-.14.14-.31.21-.5.21-.36,0-.59-.17-.7-.5-.64-2.03-1.31-3.92-1.99-5.68-.12-.32-.32-.48-.6-.48-.09,0-.19.02-.29.06l-1.86.63c-.08.03-.15.04-.21.04-.18,0-.33-.06-.47-.2-.14-.13-.2-.29-.2-.48,0-.34.15-.55.46-.64l1.72-.55c.33-.1.49-.29.49-.55,0-.11-.03-.23-.08-.35,0-.03-.24-.56-.69-1.61-.04-.08-.06-.18-.06-.28,0-.2.07-.37.21-.51.14-.15.31-.22.5-.22.32,0,.54.15.67.44s.36.85.69,1.66c.17.39.4.59.69.59.14,0,.75-.19,1.83-.56,1.16-.4,2.11-.6,2.87-.6.85,0,1.54.23,2.07.69.58.49.87,1.14.87,1.97ZM148.4,162.91c0,.18-.06.33-.19.46s-.28.2-.47.2c-.12,0-.24-.04-.35-.11-.42-.28-.94-.57-1.55-.88-.23-.12-.35-.31-.35-.57,0-.18.06-.33.18-.46s.27-.19.45-.19c.1,0,.2.02.29.07.5.24,1.06.55,1.67.91.21.13.32.32.32.57Z"/>
      <path class="cls-1" d="M166.57,167.4c0,2.85-1.44,4.59-4.33,5.22-.03,0-.08.01-.15.01-.19,0-.35-.06-.48-.2-.13-.13-.2-.29-.2-.49,0-.37.17-.6.5-.69,2.16-.54,3.23-1.84,3.23-3.89,0-1.07-.29-1.93-.87-2.58-.21-.24-.48-.46-.8-.64-.36-.21-.69-.31-.98-.31-.4,0-.64.23-.73.7-.35,2.04-.77,3.67-1.26,4.91-.31.78-.61,1.37-.91,1.76-.48.61-1.03.91-1.67.91-.85,0-1.53-.42-2.04-1.27-.45-.73-.67-1.54-.67-2.44,0-1.74.58-3.17,1.73-4.31,1.15-1.14,2.6-1.71,4.33-1.71,1.63,0,2.91.42,3.84,1.26.97.88,1.46,2.12,1.46,3.74ZM160.34,164.59c0-.07.01-.13.01-.2,0-.34-.16-.52-.48-.52-.11,0-.23.02-.36.07-.86.3-1.56.86-2.1,1.67-.54.82-.81,1.75-.81,2.81,0,.58.14,1.09.41,1.53s.57.67.91.67c.4,0,.83-.56,1.29-1.69.38-.95.76-2.4,1.13-4.34Z"/>
    </g>
  </g>
</svg>