<?xml version="1.0" encoding="UTF-8"?>
<svg xmlns="http://www.w3.org/2000/svg" viewBox="0 0 209.97 260">
  <defs>
    <style>
      .cls-1 {
        fill: #5b5b5b;
      }

      .cls-2 {
        fill: #fffffa;
        stroke: #cecece;
        stroke-linecap: round;
        stroke-linejoin: round;
        stroke-width: 7px;
      }
    </style>
  </defs>
  <g id="_レイヤー_1" data-name="レイヤー 1">
    <path class="cls-2" d="M205.91,136.05c5.15,66.33-24.68,120.45-100.96,120.45-69.55,0-106.21-54.13-100.96-120.45C8.48,79.4,50.32,3.5,106.07,3.5s95.35,74.8,99.83,132.55Z"/>
    <polyline class="cls-2" points="4.61 127.5 29.46 155 65.46 127.5 104.46 160 144.46 127.5 184.46 156 205.32 127.5"/>
  </g>
  <g id="_レイヤー_9" data-name="レイヤー 9">
    <g>
      <path class="cls-1" d="M86.11,54.73c0,.21-.08.4-.23.54-.15.15-.33.22-.54.22h-.72c-.48,0-.72.24-.72.72v1.07c0,.22-.08.42-.25.58s-.36.25-.58.25-.42-.08-.58-.25c-.17-.17-.25-.36-.25-.58v-1.07c0-.48-.24-.72-.72-.72h-3.97c-.95,0-1.42-.34-1.42-1.01,0-.31.12-.63.37-.98l4.93-6.94c.35-.49.79-.74,1.33-.74.34,0,.62.11.83.34s.32.54.32.94v6.14c0,.48.24.72.72.72h.72c.2,0,.38.07.54.22s.23.33.23.53ZM82.24,53.26v-4.38c0-.3-.07-.45-.21-.45-.1,0-.19.07-.29.21l-3.23,4.58c-.15.21-.22.38-.22.5,0,.18.21.27.64.27h2.59c.48,0,.72-.24.72-.72Z"/>
      <path class="cls-1" d="M103.68,52.81c0,1.72-.05,2.84-.14,3.38-.27,1.51-.9,2.27-1.89,2.27-.57,0-1.24-.08-2.03-.24-.41-.09-.61-.33-.61-.72,0-.2.07-.38.22-.52.14-.14.31-.22.5-.22.15,0,.37.03.66.1.29.06.51.1.66.1.45,0,.74-.24.86-.72.15-.54.22-1.73.22-3.57v-.29c0-.42-.07-.69-.22-.82s-.46-.19-.95-.19h-1.7c-.45,0-.7.23-.77.69-.17,1.24-.46,2.3-.88,3.18-.62,1.3-1.56,2.38-2.83,3.23-.11.07-.25.11-.42.11-.21,0-.39-.07-.54-.22s-.22-.32-.22-.54c0-.27.11-.47.32-.62.91-.64,1.6-1.38,2.08-2.21.45-.77.76-1.72.94-2.86.08-.51-.14-.77-.67-.77h-2.34c-.2,0-.37-.07-.51-.22-.14-.14-.21-.32-.21-.52,0-.19.07-.36.21-.5.14-.14.31-.21.51-.21h2.46c.47,0,.71-.23.72-.7.01-.54.02-.92.02-1.12s.07-.38.22-.53.32-.22.54-.22.38.08.53.23c.15.15.22.33.22.54v1.09c0,.48.23.72.7.72h2.62c1.12,0,1.68.56,1.68,1.68v1.2Z"/>
      <path class="cls-1" d="M119.72,56.51c0,.91-.17,1.52-.52,1.84-.35.32-.99.48-1.93.48h-1.58c-.19,0-.36-.07-.5-.22-.14-.14-.21-.32-.21-.52s.07-.37.21-.5c.14-.13.3-.2.5-.2h1.39c.46,0,.76-.07.91-.22.15-.15.22-.45.22-.9v-1.5c0-.48-.24-.72-.72-.72h-5.03c-.44,0-.69.22-.77.67-.25,1.45-.76,2.74-1.54,3.86-.17.25-.4.37-.67.37-.22,0-.42-.08-.58-.24-.16-.16-.24-.35-.24-.56,0-.15.05-.29.14-.43,1.04-1.55,1.55-3.39,1.55-5.52v-5.17c0-1.09.54-1.63,1.63-1.63h6.08c1.09,0,1.63.54,1.63,1.63v9.49ZM118.22,48.35v-.75c0-.52-.26-.78-.78-.78h-4.77c-.52,0-.79.26-.79.78v.75c0,.43.21.64.64.64h5.06c.43,0,.64-.21.64-.64ZM118.22,51.99v-.99c0-.43-.21-.64-.64-.64h-5.06c-.43,0-.64.21-.64.64v.99c0,.43.21.64.64.64h5.06c.43,0,.64-.21.64-.64Z"/>
      <path class="cls-1" d="M130.27,49.34c0,.85-.43,1.28-1.28,1.28h-2.43c-.43,0-.64.21-.64.64v7.02c0,.2-.08.38-.22.52s-.33.22-.53.22-.38-.07-.53-.22-.22-.32-.22-.52v-11.66c0-.85.43-1.28,1.28-1.28h3.3c.85,0,1.28.43,1.28,1.28v2.72ZM128.83,46.99c0-.3-.15-.45-.45-.45h-2.02c-.3,0-.45.15-.45.45s.16.46.48.46h1.95c.32,0,.48-.15.48-.46ZM128.83,49.02v-.02c0-.32-.16-.48-.48-.48h-1.95c-.32,0-.48.15-.48.46s.16.48.48.48h1.98c.3,0,.45-.15.45-.45ZM134.14,56.11c0,.85-.43,1.28-1.28,1.28h-3.7c-.85,0-1.28-.43-1.28-1.28v-3.25c0-.85.43-1.28,1.28-1.28h3.7c.85,0,1.28.43,1.28,1.28v3.25ZM132.8,53.43v-.19c0-.35-.2-.53-.61-.53h-2.34c-.41,0-.61.18-.61.53v.19c0,.32.16.48.48.48h2.59c.32,0,.48-.16.48-.48ZM132.8,55.66v-.24c0-.32-.16-.48-.48-.48h-2.59c-.32,0-.48.16-.48.48v.24c0,.35.2.53.61.53h2.34c.41,0,.61-.18.61-.53ZM137.69,56.78c0,.81-.13,1.36-.39,1.64-.26.28-.78.42-1.54.42h-1.38c-.18,0-.34-.07-.47-.2-.13-.13-.2-.29-.2-.47,0-.19.07-.35.2-.49.13-.13.29-.2.47-.2h.83c.38,0,.64-.06.78-.18.13-.12.2-.39.2-.79v-5.25c0-.43-.21-.64-.64-.64h-2.53c-.85,0-1.28-.43-1.28-1.28v-2.72c0-.85.43-1.28,1.28-1.28h3.39c.85,0,1.28.43,1.28,1.28v10.16ZM136.19,46.99c0-.3-.15-.45-.45-.45h-2.11c-.3,0-.45.15-.45.45s.16.46.48.46h2.05c.32,0,.48-.15.48-.46ZM136.19,48.99c0-.31-.16-.46-.48-.46h-2.05c-.32,0-.48.16-.48.48v.02c0,.3.15.45.45.45h2.08c.32,0,.48-.16.48-.48Z"/>
      <path class="cls-1" d="M144.27,57.95c0,.26-.08.47-.26.64-.17.17-.38.26-.64.26-.28,0-.51-.11-.69-.32-.63-.76-1.26-1.41-1.9-1.95-.2-.17-.3-.38-.3-.64s.08-.45.25-.62c.17-.17.37-.25.62-.25.21,0,.4.07.56.21.9.78,1.61,1.47,2.14,2.06.15.16.22.36.22.61Z"/>
      <path class="cls-1" d="M58.7,75.6c0,.45-.22.71-.66.8-1.69.31-3.31.46-4.88.46s-2.68-.12-3.55-.37c-1.43-.41-2.14-1.18-2.14-2.32,0-.78.51-1.67,1.52-2.69.14-.14.31-.21.53-.21s.38.07.53.22.22.32.22.52c0,.19-.07.36-.21.5-.58.58-.86,1.07-.86,1.49,0,.89,1.35,1.33,4.06,1.33,1.07,0,2.57-.17,4.51-.5.23-.04.45.01.64.17.19.15.29.35.29.6ZM56.95,67.33c-.8.32-1.89.91-3.26,1.78-.14.09-.26.13-.37.13-.18,0-.34-.07-.47-.2s-.2-.3-.2-.49c0-.25.11-.43.32-.56l.21-.13c.2-.12.3-.23.3-.35,0-.14-.15-.21-.46-.21-.96,0-2.27-.03-3.94-.1-.2-.01-.38-.09-.52-.24-.14-.15-.22-.33-.22-.53,0-.22.08-.41.25-.57.17-.15.36-.23.58-.22,2.1.15,4.58.17,7.42.05.31-.01.56.06.74.22.19.16.28.35.28.58,0,.37-.22.65-.67.83ZM58.73,70.43c0,.17-.06.32-.18.44-.12.12-.27.18-.44.18-.26,0-.44-.1-.56-.29-.31-.49-.64-.91-.99-1.26-.12-.12-.18-.26-.18-.43,0-.43.21-.64.62-.64.18,0,.34.08.48.24.45.5.82.97,1.12,1.41.09.13.13.25.13.35ZM60.68,69.52c0,.17-.06.32-.18.44-.12.12-.27.18-.44.18-.25,0-.43-.1-.56-.29-.35-.52-.68-.95-.99-1.3-.12-.13-.18-.26-.18-.4,0-.43.21-.64.64-.64.16,0,.31.07.46.22.37.37.75.85,1.14,1.42.07.15.11.27.11.35Z"/>
      <path class="cls-1" d="M67.9,71.41c0,.28-.14.49-.42.64-.06.03-.34.13-.82.28-.48.15-.72.48-.72.98v2.82c0,.63-.13,1.08-.4,1.36-.27.28-.7.42-1.31.42h-.75c-.19,0-.36-.07-.5-.21-.14-.14-.22-.3-.22-.5s.07-.36.22-.5c.14-.14.31-.21.5-.21h.4c.26,0,.43-.07.51-.22.06-.11.1-.3.1-.58v-2.05c0-.39-.17-.59-.5-.59-.05,0-.11,0-.18.02l-.69.14c-.22.04-.43,0-.61-.15-.18-.14-.27-.33-.27-.57,0-.42.21-.66.62-.74l.83-.14c.52-.09.78-.41.78-.98v-1.58c0-.43-.21-.64-.64-.64h-.78c-.19,0-.36-.07-.5-.21-.14-.14-.21-.3-.21-.5s.07-.36.21-.5c.14-.14.3-.22.5-.22h.78c.43,0,.64-.21.64-.64v-1.71c0-.2.07-.38.22-.52s.32-.22.52-.22.36.07.5.22c.14.14.22.32.22.52v1.71c0,.43.21.64.64.64h.59c.19,0,.36.07.5.22.14.14.21.31.21.5s-.07.36-.21.5c-.14.14-.3.21-.5.21h-.59c-.43,0-.64.21-.64.64v1.25c0,.39.14.59.43.59.06,0,.13-.01.21-.03.27-.1.47-.14.61-.14.19,0,.36.07.5.2.14.13.21.3.21.49ZM76.43,67.51c-.05.93-.22,1.52-.49,1.78-.27.26-.88.39-1.82.39h-4.1c-.71,0-1.19-.11-1.42-.32-.23-.21-.35-.68-.35-1.41v-3.28c0-.2.07-.38.22-.52s.32-.22.52-.22.38.07.52.22.22.32.22.52v.3c0,.4.18.59.53.59.05,0,.11,0,.18-.02,1.56-.29,2.86-.62,3.92-.99.11-.02.18-.03.22-.03.19,0,.36.07.5.2.14.13.21.3.21.5,0,.35-.17.58-.51.69-1.39.44-2.87.77-4.45,1.01-.4.06-.59.26-.59.59,0,.43.12.67.35.74.11.02.27.03.48.03h3.17c.43,0,.71-.05.85-.14.18-.13.3-.4.35-.82.02-.17.11-.32.26-.44s.31-.18.5-.18c.21,0,.39.08.54.24.15.16.22.35.21.56ZM75.77,76.29c0,.89-.44,1.33-1.33,1.33h-4.69c-.88,0-1.31-.44-1.31-1.33v-4.37c0-.89.44-1.33,1.31-1.33h4.69c.89,0,1.33.44,1.33,1.33v4.37ZM74.3,72.9v-.35c0-.44-.22-.66-.66-.66h-3.09c-.43,0-.64.22-.64.66v.35c0,.37.19.56.56.56h3.26c.37,0,.56-.19.56-.56ZM74.3,75.67v-.45c0-.37-.19-.56-.56-.56h-3.26c-.37,0-.56.19-.56.56v.45c0,.43.21.64.64.64h3.09c.44,0,.66-.21.66-.64Z"/>
      <path class="cls-1" d="M92.63,74.59c0,.17-.06.32-.18.44-.12.12-.26.18-.43.18h-2c-.43,0-.64.21-.64.64v.53c0,.66-.11,1.1-.34,1.31-.23.21-.69.32-1.37.32h-1.87c-.17,0-.32-.06-.45-.18s-.19-.27-.19-.46c0-.17.06-.31.19-.43s.28-.18.45-.18h1.25c.34,0,.57-.06.67-.19.07-.1.11-.27.11-.53v-.19c0-.43-.21-.64-.64-.64h-8.11c-.17,0-.31-.06-.43-.18-.12-.12-.18-.27-.18-.44s.06-.31.18-.43.26-.18.43-.18h8.11c.43,0,.64-.1.64-.3s-.21-.3-.64-.3h-2.64c-.89,0-1.64-.22-2.27-.66-.23-.16-.45-.24-.66-.24-.15,0-.3.04-.46.13-.38.21-.85.46-1.39.75-.09.04-.19.06-.3.06-.18,0-.34-.06-.47-.19-.13-.13-.2-.28-.2-.46,0-.28.14-.48.42-.61.5-.23.9-.43,1.2-.59.37-.2.56-.52.56-.94v-.91c0-.41-.2-.61-.61-.61h-1.04c-.17,0-.31-.06-.43-.18-.12-.12-.18-.27-.18-.44s.06-.31.18-.43c.12-.12.26-.18.43-.18h1.86c.85,0,1.28.43,1.28,1.28v1.49c0,.43.12.75.35.96.47.43,1.17.64,2.11.64h7.07c.16,0,.3.05.41.16.11.11.17.24.17.4s-.06.3-.18.41c-.12.11-.25.17-.4.17h-1.97c-.43,0-.64.1-.64.3s.21.3.64.3h2c.17,0,.31.06.43.18.12.12.18.26.18.43ZM82.2,66.02c0,.19-.07.35-.21.49-.14.13-.3.2-.5.2-.16,0-.3-.05-.43-.16-.39-.34-.83-.68-1.31-1.02-.19-.14-.29-.32-.29-.54,0-.19.07-.35.2-.49.13-.13.3-.2.49-.2.14,0,.26.04.37.11.44.3.91.65,1.41,1.06.18.15.27.34.27.56ZM83.06,77.67c-.23,0-.44-.11-.62-.32-.01-.02-.27-.28-.77-.77-.14-.14-.21-.31-.21-.51s.07-.4.22-.56c.14-.16.33-.24.57-.24.2,0,.46.14.77.42.22.22.44.44.66.66.13.13.19.29.19.5,0,.21-.07.41-.22.58-.15.17-.34.26-.58.26ZM92.65,65.67c0,.16-.06.3-.17.41-.11.11-.25.17-.41.17h-3.15c-.48,0-.72.12-.72.35,0,.16.17.24.51.24h1.78c.75,0,1.12.37,1.12,1.12v2.62c0,.75-.37,1.12-1.12,1.12h-5.54c-.75,0-1.12-.37-1.12-1.12v-2.62c0-.75.37-1.12,1.12-1.12h1.01c.36,0,.59-.07.67-.22.03-.05.05-.1.05-.14,0-.15-.17-.22-.5-.22h-2.77c-.37,0-.56-.19-.56-.58,0-.15.06-.28.17-.39.11-.11.24-.17.39-.17h1.33c.23,0,.35-.06.35-.18,0-.03-.02-.08-.06-.15s-.06-.17-.06-.3c0-.18.06-.34.18-.46s.27-.19.46-.19c.21,0,.39.09.54.27l.32.48c.23.35.56.53.98.53h.48c.43,0,.74-.15.94-.46.1-.16.19-.33.27-.5.11-.23.3-.35.59-.35.19,0,.35.06.47.19.12.13.18.29.18.48,0,.05-.01.12-.04.21-.03.09-.04.15-.04.21,0,.15.1.22.3.22h1.46c.16,0,.3.06.41.17.11.11.17.24.17.39ZM90.18,67.94c0-.19-.15-.29-.45-.29h-4.03c-.3,0-.45.1-.45.29,0,.2.13.3.4.3h4.13c.27,0,.4-.1.4-.3ZM90.18,69.25c0-.19-.13-.29-.4-.29h-4.13c-.27,0-.4.1-.4.29s.13.29.4.29h4.13c.27,0,.4-.1.4-.29ZM90.18,70.63c0-.23-.13-.35-.4-.35h-4.13c-.27,0-.4.12-.4.35,0,.18.15.27.45.27h4.03c.3,0,.45-.09.45-.27Z"/>
      <path class="cls-1" d="M107.79,69.92c0,.32-.15.54-.45.67-.71.3-1.39.6-2.02.91-.44.21-.71.44-.82.67-.07.17-.11.51-.11,1.02v1.02c0,.21-.07.39-.22.54s-.33.22-.54.22-.39-.07-.54-.22c-.14-.14-.22-.32-.22-.54v-.61c0-.37-.14-.56-.42-.56-.12,0-.25.04-.38.13-1.29.8-1.94,1.49-1.94,2.06,0,.33.22.57.66.71.44.14,1.18.22,2.24.22.83,0,1.94-.09,3.31-.27.22-.03.42.03.58.18.17.15.25.34.25.56,0,.19-.06.36-.19.5-.13.14-.29.23-.48.25-1.22.14-2.41.21-3.58.21s-2.15-.1-2.8-.3c-1.09-.35-1.63-1-1.63-1.94,0-1.09,1.18-2.33,3.54-3.73.38-.22.58-.45.58-.67,0-.28-.22-.42-.67-.42-.62,0-1.4.29-2.35.88-.77.48-1.45,1.01-2.03,1.6l-.42.5c-.17.16-.36.24-.56.24-.21,0-.39-.07-.54-.22-.14-.14-.22-.32-.22-.54,0-.19.06-.36.18-.5,1.11-1.33,2.04-2.67,2.78-4,.07-.13.11-.25.11-.37,0-.28-.2-.41-.59-.4-.35.01-.87.02-1.55.02-.19,0-.35-.07-.49-.21s-.2-.3-.2-.5c0-.2.07-.37.22-.51.14-.14.31-.2.5-.19.66.02,1.39.02,2.19,0,.63-.01,1.06-.3,1.28-.88l.32-.83c.13-.33.37-.5.72-.5.21,0,.39.07.54.22s.22.33.22.53c0,.1-.02.19-.05.27-.05.13-.09.21-.1.24-.04.12-.06.22-.06.32,0,.31.19.44.58.4.41-.04,1.17-.15,2.3-.32.21-.03.41.02.58.17.17.14.26.32.26.54,0,.43-.21.67-.64.72-1.07.14-2.02.24-2.86.3-.47.04-.82.14-1.06.3-.24.15-.47.43-.68.82-.02.03-.07.12-.16.26-.12.2-.18.37-.18.5,0,.16.1.24.29.24.12,0,.27-.04.46-.11.57-.21,1.08-.32,1.55-.32.64,0,1.13.21,1.47.64.23.29.46.43.67.43.12,0,.25-.03.38-.1l1.94-.94c.11-.05.21-.08.32-.08.2,0,.38.07.52.22.14.14.22.32.22.54Z"/>
      <path class="cls-1" d="M124.33,72.99c0,1.37-.48,2.45-1.44,3.26-.83.71-1.96,1.17-3.39,1.36-.22.03-.42-.03-.6-.18s-.26-.34-.26-.57c0-.44.21-.69.64-.77,2.28-.39,3.42-1.45,3.42-3.17,0-1.18-.49-2.02-1.46-2.5-.13-.06-.25-.1-.37-.1-.28,0-.5.18-.67.53-.69,1.45-1.49,2.71-2.38,3.79-1.38,1.64-2.75,2.46-4.11,2.46-.7,0-1.25-.2-1.64-.6-.39-.4-.58-.95-.58-1.64,0-1.22.36-2.32,1.07-3.31.54-.76,1.22-1.38,2.03-1.86.48-.29.74-.69.77-1.2l.02-.3c.02-.49-.21-.74-.69-.74-.6,0-1.28,0-2.03-.02-.2,0-.38-.07-.52-.22-.14-.15-.22-.33-.22-.53s.08-.38.23-.53c.15-.15.34-.22.55-.21.98.04,1.71.06,2.19.05.44-.01.69-.24.75-.69l.1-.69c.06-.47.31-.7.75-.7.22,0,.42.1.59.29s.24.39.21.59l-.05.3c-.04.26,0,.45.11.59.12.14.3.2.56.18,1.1-.09,2.34-.23,3.71-.43.22-.03.42.03.6.18.18.15.26.34.26.58,0,.44-.22.68-.67.74-1.67.2-3.05.34-4.11.4-.5.03-.77.26-.8.69-.02.26.03.44.17.55.13.11.33.15.58.12.42-.05.77-.08,1.07-.08,1.63,0,2.93.31,3.89.93,1.14.75,1.71,1.89,1.71,3.44ZM114.75,75.33c.48-.26.69-.76.64-1.52-.01-.48-.02-.95-.03-1.42-.04-.75-.18-1.12-.42-1.12-.15,0-.32.09-.51.26-.42.36-.75.82-1.01,1.38-.28.59-.42,1.17-.42,1.76,0,.63.26.94.78.94.3,0,.62-.09.96-.27ZM118.76,70.61c.05-.11.08-.2.08-.29,0-.27-.17-.39-.5-.37-.49.03-.85.12-1.09.26-.33.19-.5.51-.51.96-.01.41,0,.86.02,1.38,0,.32.12.48.34.48.15,0,.29-.09.42-.27.48-.67.9-1.39,1.25-2.14Z"/>
      <path class="cls-1" d="M132.86,70.21c-.55.95-1.02,1.87-1.39,2.77-.16.38-.43.58-.82.58-.53,0-.84-.28-.93-.83-.1-.63-.14-1.57-.14-2.83s.18-2.77.54-4.5c.11-.52.38-.78.83-.78.22,0,.41.08.56.23s.22.34.22.57c0,.06,0,.13-.02.19-.38,1.76-.59,3.09-.61,3.98-.01.35.07.53.24.53.14,0,.29-.13.45-.38l.08-.13c.11-.17.27-.26.48-.26.38,0,.58.19.58.58,0,.11-.03.2-.08.29ZM138.36,70.29c0,1.8-.33,3.28-.98,4.43-.68,1.19-1.8,2.2-3.36,3.02-.12.06-.25.1-.38.1-.22,0-.42-.09-.58-.26s-.24-.38-.24-.6c0-.3.15-.53.45-.69,1.3-.68,2.21-1.5,2.74-2.46.49-.89.74-2.09.74-3.6,0-1.38-.14-2.99-.43-4.85-.04-.25.02-.47.19-.66.17-.2.38-.3.62-.3.2,0,.38.07.54.21.16.14.25.31.28.51.28,1.99.42,3.71.42,5.15Z"/>
      <path class="cls-1" d="M152.75,70.03c0,1.73-.28,3.61-.85,5.63-.17.61-.36,1.04-.56,1.3-.29.38-.69.58-1.2.58-.59,0-1.32-.15-2.21-.46-.36-.13-.54-.37-.54-.72,0-.21.08-.39.23-.54.16-.15.33-.22.54-.22.09,0,.16.01.22.03.55.18.94.27,1.15.27.26,0,.44-.07.54-.22.09-.11.18-.35.29-.72.5-1.72.75-3.27.75-4.67,0-.51-.1-.85-.3-1.02-.2-.17-.59-.26-1.15-.26h-.22c-.1.01-.18.02-.24.02-.53,0-.88.28-1.04.83-.71,2.42-1.66,4.76-2.85,7.02-.16.31-.41.46-.75.46-.24,0-.43-.08-.59-.25-.16-.17-.24-.37-.24-.6,0-.17.03-.31.1-.43,1-1.76,1.89-3.75,2.66-5.97.03-.11.05-.2.05-.29,0-.38-.23-.54-.69-.48-.33.05-.85.13-1.55.22-.22.03-.43-.03-.62-.18-.19-.15-.28-.35-.28-.58,0-.45.23-.71.7-.78.47-.07,1.21-.16,2.22-.28.51-.04.86-.36,1.04-.96.1-.52.19-1.04.27-1.57.07-.46.34-.69.8-.69.26,0,.46.09.62.28.15.19.21.41.17.66-.01.05-.06.29-.14.7-.07.29-.11.52-.11.69,0,.45.25.66.75.62l.24-.02c.81-.05,1.47.09,1.97.43.55.38.83,1.1.83,2.16ZM154.89,66.53c0,.17-.06.32-.18.44-.12.12-.27.18-.44.18-.26,0-.44-.1-.56-.29-.31-.49-.64-.91-.99-1.26-.12-.12-.18-.26-.18-.43,0-.43.21-.64.62-.64.18,0,.34.08.48.24.45.5.82.97,1.12,1.41.08.13.13.25.13.35ZM155.91,72.13c-.45-1.16-1.05-2.3-1.81-3.41-.08-.13-.13-.27-.13-.43,0-.22.08-.41.25-.57.17-.15.36-.23.58-.23.27,0,.49.12.66.35.84,1.18,1.53,2.41,2.05,3.68.04.11.06.21.06.32,0,.22-.09.42-.28.59-.19.17-.4.26-.63.26-.35,0-.6-.19-.75-.56ZM156.84,65.62c0,.17-.06.32-.18.44-.12.12-.27.18-.44.18-.25,0-.43-.1-.56-.29-.35-.52-.68-.95-.99-1.3-.12-.13-.18-.26-.18-.4,0-.43.21-.64.64-.64.16,0,.31.07.46.22.37.37.75.85,1.14,1.42.07.15.11.27.11.35Z"/>
      <path class="cls-1" d="M47.79,95.02c0,.46-.23.72-.69.78-1.76.25-3.52.37-5.28.37-3.14,0-4.7-.94-4.7-2.83,0-1.15.81-2.35,2.42-3.58.32-.25.48-.53.48-.85,0-.15-.03-.31-.1-.48-.47-1.18-.86-2.46-1.17-3.82-.01-.05-.02-.11-.02-.18,0-.23.08-.43.25-.6s.37-.25.6-.25c.2,0,.38.07.54.21s.25.31.3.51c.2,1.07.5,2.14.88,3.22.13.35.33.53.61.53.15,0,.3-.05.46-.14.1-.05,1.27-.7,3.54-1.94.14-.07.27-.11.38-.11.22,0,.41.08.57.24.15.16.23.35.23.58,0,.33-.15.57-.45.72-1.31.65-2.73,1.42-4.26,2.3-.97.57-1.74,1.09-2.32,1.58-.83.71-1.25,1.37-1.25,1.95,0,.96,1,1.44,3.01,1.44,1.65,0,3.33-.14,5.04-.43.23-.04.45.02.64.18.19.16.29.36.29.61Z"/>
      <path class="cls-1" d="M63.6,90.47c0,1.64-.69,3.03-2.08,4.18-1.11.93-2.56,1.63-4.35,2.1-.09.02-.15.03-.19.03-.21,0-.4-.08-.55-.23-.15-.15-.23-.34-.23-.57,0-.39.19-.65.56-.75,1.38-.39,2.5-.93,3.38-1.6,1.17-.89,1.76-1.92,1.76-3.1,0-1.43-.72-2.14-2.16-2.14s-3.29.38-5.46,1.14c-.1.03-.18.05-.26.05-.21,0-.4-.08-.56-.24s-.24-.35-.24-.58c0-.39.19-.65.58-.77,2.51-.76,4.51-1.14,6.02-1.14,1.19,0,2.12.3,2.77.91.68.64,1.02,1.55,1.02,2.72ZM61.75,84.87c0,.23-.09.43-.26.58-.17.15-.37.22-.59.2-2.17-.19-3.87-.46-5.12-.8-.39-.11-.59-.36-.59-.77,0-.22.08-.41.23-.57s.34-.23.57-.23c.06,0,.13.01.21.03,1.42.38,3.02.64,4.82.77.2.01.38.09.52.25.14.15.22.33.22.54Z"/>
      <path class="cls-1" d="M80.1,94.6c0,.45-.22.71-.66.8-1.69.31-3.31.46-4.88.46s-2.68-.12-3.55-.37c-1.43-.41-2.14-1.18-2.14-2.32,0-.78.51-1.67,1.52-2.69.14-.14.31-.21.53-.21s.38.07.53.22.22.32.22.52c0,.19-.07.36-.21.5-.58.58-.86,1.07-.86,1.49,0,.89,1.35,1.33,4.06,1.33,1.07,0,2.57-.17,4.51-.5.23-.04.45.01.64.17.19.15.29.35.29.6ZM78.35,86.33c-.8.32-1.89.91-3.26,1.78-.14.09-.26.13-.37.13-.18,0-.34-.07-.47-.2s-.2-.3-.2-.49c0-.25.11-.43.32-.56l.21-.13c.2-.12.3-.23.3-.35,0-.14-.15-.21-.46-.21-.96,0-2.27-.03-3.94-.1-.2-.01-.38-.09-.52-.24-.14-.15-.22-.33-.22-.53,0-.22.08-.41.25-.57.17-.15.36-.23.58-.22,2.1.15,4.58.17,7.42.05.31-.01.56.06.74.22.19.16.28.35.28.58,0,.37-.22.65-.67.83ZM80.13,89.43c0,.17-.06.32-.18.44-.12.12-.27.18-.44.18-.26,0-.44-.1-.56-.29-.31-.49-.64-.91-.99-1.26-.12-.12-.18-.26-.18-.43,0-.43.21-.64.62-.64.18,0,.34.08.48.24.45.5.82.97,1.12,1.41.09.13.13.25.13.35ZM82.08,88.52c0,.17-.06.32-.18.44-.12.12-.27.18-.44.18-.25,0-.43-.1-.56-.29-.35-.52-.68-.95-.99-1.3-.12-.13-.18-.26-.18-.4,0-.43.21-.64.64-.64.16,0,.31.07.46.22.37.37.75.85,1.14,1.42.07.15.11.27.11.35Z"/>
      <path class="cls-1" d="M95.63,85.82c0,.32-.15.55-.45.69-.01,0-.62.23-1.84.7-.34.13-.51.3-.51.53,0,.13.06.27.18.42.76,1.02,1.54,1.94,2.35,2.75.22.22.34.47.34.75,0,.25-.09.45-.26.62-.18.17-.4.26-.66.26-.17,0-.35-.04-.53-.11-1.29-.58-2.61-.86-3.95-.86-.98,0-1.74.15-2.29.45s-.82.71-.82,1.23c0,1.21,1.3,1.81,3.9,1.81,1.03,0,2.07-.07,3.1-.22.22-.03.42.03.6.18.18.15.26.35.26.58,0,.19-.07.36-.2.5s-.29.23-.47.25c-1.03.14-2.07.21-3.1.21-3.82,0-5.73-1.07-5.73-3.2,0-1.16.51-2.01,1.52-2.54.78-.42,1.81-.62,3.09-.62.59,0,1.16.07,1.73.21.18.04.33.06.45.06.22,0,.34-.08.34-.24,0-.13-.06-.27-.19-.43-.41-.49-.7-.87-.9-1.14-.35-.48-.77-.72-1.25-.72-.13,0-.27.02-.43.05-1.22.2-2.66.3-4.34.3-.21,0-.4-.07-.54-.22-.15-.15-.22-.33-.22-.54s.07-.39.22-.54c.15-.15.33-.22.54-.22,1.15,0,2.33-.07,3.52-.21.37-.04.56-.2.56-.48,0-.14-.05-.28-.14-.43l-.54-.9c-.07-.13-.11-.26-.11-.4,0-.21.08-.4.23-.55s.34-.23.55-.23c.32,0,.55.14.7.42.36.7.59,1.12.69,1.25.34.49.7.74,1.09.74.13,0,.27-.02.43-.06.66-.2,1.32-.46,1.98-.77.11-.05.22-.08.34-.08.21,0,.39.08.54.23.15.15.22.34.22.55ZM96.85,84.91c0,.16-.06.3-.17.42s-.25.18-.42.18c-.22,0-.49-.2-.8-.59-.22-.3-.45-.6-.67-.9-.12-.12-.18-.25-.18-.4,0-.41.2-.61.61-.61.16,0,.31.07.45.22.44.49.79.94,1.07,1.34.07.11.11.22.11.34ZM98.72,84.03c0,.16-.06.3-.18.42-.12.12-.26.18-.42.18-.23,0-.41-.09-.53-.27-.34-.5-.66-.91-.94-1.23-.11-.12-.16-.25-.16-.38,0-.41.2-.61.61-.61.14,0,.28.07.43.22.38.38.75.83,1.09,1.34.07.15.11.26.11.34Z"/>
      <path class="cls-1" d="M106.77,93.11c-.94,1.85-1.84,2.77-2.7,2.77-1.07,0-1.89-.95-2.48-2.85-.46-1.47-.69-3.14-.69-5.01,0-.96.03-1.79.1-2.48.02-.22.11-.41.26-.56.15-.15.34-.22.57-.22.25,0,.45.09.62.28.17.19.24.4.22.65-.07.71-.11,1.54-.11,2.48,0,1.23.13,2.44.4,3.65.3,1.33.69,2,1.18,2,.35,0,.75-.48,1.2-1.44.14-.29.38-.43.72-.43.22,0,.41.08.57.23.16.15.23.34.23.57,0,.14-.03.26-.08.37ZM113.7,92.62c.03.26-.04.49-.21.69-.17.2-.39.3-.66.3-.22,0-.42-.07-.59-.22-.17-.15-.27-.33-.29-.54-.27-2.42-1.05-4.58-2.35-6.46-.1-.14-.14-.29-.14-.46,0-.23.08-.43.24-.59.16-.16.36-.24.59-.24.29,0,.52.12.69.35,1.47,2.05,2.38,4.44,2.72,7.18Z"/>
      <path class="cls-1" d="M129.22,94.59c0,.22-.08.41-.23.57s-.34.23-.57.23c-.15,0-.29-.04-.42-.11-1.07-.63-2.02-1.1-2.85-1.42-.11-.04-.2-.06-.29-.06-.31,0-.49.21-.54.64-.08.64-.3,1.11-.64,1.42-.53.48-1.49.72-2.86.72-.88,0-1.6-.17-2.18-.5-.7-.42-1.06-1.03-1.06-1.86,0-.93.44-1.61,1.33-2.03.66-.32,1.51-.48,2.56-.48.12,0,.3,0,.54.02.55.02.83-.21.83-.7v-.45c0-.53-.27-.79-.82-.78-1.13.03-2.22.04-3.26.03-.19,0-.35-.07-.49-.22-.13-.14-.2-.31-.2-.5s.07-.35.22-.49c.14-.13.31-.2.5-.2,1.04.02,2.13.02,3.25,0,.52-.01.78-.28.78-.82v-.06c0-.54-.28-.81-.83-.78-1.29.05-2.51.06-3.66.03-.19-.01-.36-.09-.5-.23-.14-.14-.21-.31-.21-.5,0-.2.07-.37.22-.51s.33-.2.53-.19c1.19.03,2.41.03,3.65,0,.52-.01.78-.27.78-.77,0-.04,0-.28-.02-.72,0-.21.07-.4.22-.55s.33-.23.54-.23.39.08.54.23.22.34.22.55v.54c0,.57.28.82.83.77.82-.09,1.72-.2,2.69-.34.21-.03.4.02.57.17.17.14.25.32.25.54,0,.41-.21.63-.62.69-1.15.15-2.13.26-2.93.34-.51.05-.77.33-.77.83v.05c0,.57.28.82.83.77.57-.05,1.35-.15,2.35-.3.21-.03.41.02.58.17.17.14.26.32.26.54,0,.42-.2.65-.61.7-.85.12-1.73.22-2.64.3-.51.04-.77.32-.77.83v.72c0,.59.29.98.88,1.17,1.09.35,2.28.87,3.57,1.55.28.15.42.38.42.7ZM122.8,93.96c.07-.53-.14-.82-.64-.86-.23-.02-.46-.03-.69-.03-1.54,0-2.3.37-2.3,1.1,0,.3.15.54.44.72.29.18.68.27,1.16.27.71,0,1.22-.08,1.5-.25.29-.17.46-.48.53-.95Z"/>
      <path class="cls-1" d="M145.3,92.2c0,.15-.04.29-.13.43-.73,1.18-1.59,2.13-2.61,2.83-1.14.78-2.35,1.17-3.63,1.17-2.81,0-4.21-1.27-4.21-3.81,0-1.03.02-2.39.06-4.08.03-1.37.06-2.85.08-4.45,0-.22.09-.42.26-.58.17-.17.37-.25.59-.25s.44.09.61.26c.17.17.25.37.24.61l-.19,8.14c0,1.67.89,2.51,2.66,2.51.95,0,1.86-.34,2.74-1.01.75-.55,1.4-1.3,1.97-2.22.16-.27.4-.4.72-.4.24,0,.43.08.6.25.17.17.25.37.25.6Z"/>
      <path class="cls-1" d="M156.93,86.83c-.78.15-1.57.27-2.37.37-.44.05-.75.17-.95.34s-.34.46-.44.88c-.6,2.53-1.34,4.95-2.22,7.28-.14.35-.4.53-.78.53-.24,0-.43-.08-.59-.25-.16-.17-.24-.36-.24-.58,0-.11.02-.21.06-.32.91-2.14,1.65-4.42,2.22-6.82.02-.08.03-.17.03-.24,0-.37-.22-.55-.67-.54s-.86.01-1.23,0c-.21-.01-.4-.09-.55-.25-.15-.15-.23-.34-.23-.55s.08-.42.25-.58c.17-.16.36-.23.58-.22.61.02,1.1.03,1.47.02.6-.02.94-.31,1.02-.88.03-.23.08-.58.16-1.05.07-.46.35-.7.82-.7.22,0,.42.08.58.24.16.16.24.35.24.56,0,.11-.04.37-.13.8-.01.08-.02.14-.02.21,0,.43.23.6.7.53.06-.01.44-.09,1.12-.22.51-.1.86-.14,1.06-.14.22,0,.41.08.55.24.14.16.22.35.22.58,0,.44-.22.7-.66.78ZM161.99,95.24c0,.46-.22.72-.67.78-1.01.15-2.08.22-3.2.22-2.84,0-4.26-.79-4.26-2.38,0-.36.09-.78.27-1.25.13-.32.37-.48.72-.48.5,0,.75.26.75.77,0,.09-.02.21-.05.36-.03.15-.05.27-.05.36,0,.73.91,1.09,2.74,1.09.8,0,1.75-.08,2.85-.24.23-.03.44.03.62.18s.27.35.27.58ZM161.54,89.29c0,.22-.09.42-.26.58-.17.16-.37.23-.59.22-1.59-.09-3.29-.05-5.1.11-.22.02-.42-.05-.58-.2-.17-.15-.25-.34-.25-.57,0-.2.07-.38.2-.52.13-.14.3-.23.49-.25,1.8-.18,3.57-.25,5.31-.19.21.01.4.1.55.26.15.16.23.35.23.56Z"/>
      <path class="cls-1" d="M169,94.91c0,.65-.23,1.2-.69,1.66-.46.45-1.01.68-1.66.68s-1.2-.23-1.66-.68c-.45-.45-.68-1-.68-1.66s.23-1.21.68-1.66c.45-.46,1-.69,1.66-.69s1.21.23,1.66.69c.46.46.69,1.01.69,1.66ZM167.86,94.91c0-.34-.12-.63-.35-.86-.23-.23-.52-.35-.86-.35s-.61.12-.85.36c-.23.24-.35.53-.35.86s.12.61.35.84c.23.23.52.34.85.34s.63-.11.86-.34c.23-.22.35-.51.35-.85Z"/>
      <path class="cls-1" d="M56.5,113.6c0,.46-.22.73-.66.8-1.75.31-3.38.46-4.88.46s-2.68-.12-3.55-.37c-1.43-.41-2.14-1.18-2.14-2.32,0-.78.51-1.67,1.52-2.69.14-.14.31-.21.53-.21s.38.07.53.22c.15.14.22.32.22.52,0,.18-.07.35-.21.5-.58.6-.86,1.09-.86,1.49,0,.89,1.35,1.33,4.06,1.33,1.29,0,2.79-.17,4.51-.5.23-.04.45.01.64.17.19.15.29.35.29.6ZM54.75,105.33c-.9.35-1.98.94-3.26,1.78-.13.09-.25.13-.37.13-.18,0-.34-.07-.47-.2s-.2-.3-.2-.49c0-.25.11-.43.32-.56l.21-.13c.2-.12.3-.23.3-.35,0-.14-.15-.21-.46-.21-1.17.02-2.49-.01-3.94-.1-.2-.01-.38-.09-.52-.24-.14-.15-.22-.33-.22-.53,0-.22.08-.41.25-.57.17-.15.36-.23.58-.22,2.55.15,5.02.17,7.42.05.31-.01.56.06.74.22.19.16.28.35.28.58,0,.37-.22.65-.67.83Z"/>
      <path class="cls-1" d="M72.66,113.6c0,.46-.22.73-.66.8-1.75.31-3.38.46-4.88.46s-2.68-.12-3.55-.37c-1.43-.41-2.14-1.18-2.14-2.32,0-.78.51-1.67,1.52-2.69.14-.14.31-.21.53-.21s.38.07.53.22c.15.14.22.32.22.52,0,.18-.07.35-.21.5-.58.6-.86,1.09-.86,1.49,0,.89,1.35,1.33,4.06,1.33,1.29,0,2.79-.17,4.51-.5.23-.04.45.01.64.17.19.15.29.35.29.6ZM70.91,105.33c-.9.35-1.98.94-3.26,1.78-.13.09-.25.13-.37.13-.18,0-.34-.07-.47-.2s-.2-.3-.2-.49c0-.25.11-.43.32-.56l.21-.13c.2-.12.3-.23.3-.35,0-.14-.15-.21-.46-.21-1.17.02-2.49-.01-3.94-.1-.2-.01-.38-.09-.52-.24-.14-.15-.22-.33-.22-.53,0-.22.08-.41.25-.57.17-.15.36-.23.58-.22,2.55.15,5.02.17,7.42.05.31-.01.56.06.74.22.19.16.28.35.28.58,0,.37-.22.65-.67.83Z"/>
      <path class="cls-1" d="M89.23,104.13c0,.43-.29.68-.86.77-1.61.25-3.04.91-4.29,1.99s-1.87,2.22-1.87,3.42c0,1.73,1.38,2.83,4.14,3.31.46.07.69.35.69.82,0,.26-.1.47-.3.65-.2.18-.42.24-.68.18-1.65-.32-2.91-.81-3.78-1.47-1.14-.89-1.71-2-1.71-3.36,0-1.15.39-2.2,1.17-3.14.34-.41.68-.75,1.01-1.02.33-.28.5-.51.5-.7,0-.26-.27-.36-.82-.32-2.19.19-3.96.38-5.33.56-.23.03-.44-.03-.61-.19-.17-.16-.26-.36-.26-.59,0-.2.07-.38.2-.54s.3-.24.5-.25c1.96-.19,5.73-.48,11.31-.86.29-.01.52.06.7.2.18.14.27.33.27.55ZM88.37,108.85c0,.17-.06.32-.18.44s-.27.18-.44.18c-.26,0-.44-.1-.56-.29-.31-.49-.64-.91-.99-1.26-.12-.12-.18-.26-.18-.43,0-.43.21-.64.62-.64.18,0,.34.08.48.24.45.5.82.97,1.12,1.41.09.13.13.25.13.35ZM90.32,107.94c0,.17-.06.32-.18.44-.12.12-.27.18-.44.18-.25,0-.43-.1-.56-.29-.35-.52-.68-.95-.99-1.3-.12-.13-.18-.26-.18-.4,0-.43.21-.64.64-.64.16,0,.31.07.46.22.37.37.75.85,1.14,1.42.07.15.11.27.11.35Z"/>
      <path class="cls-1" d="M106.3,107.91c0,.17-.06.33-.19.46-.38.41-.78.78-1.18,1.14-.46.39-.69.89-.69,1.47v2.93c0,.77-.16,1.3-.49,1.59s-.9.44-1.74.44h-1.44c-.2,0-.38-.07-.52-.22s-.22-.32-.22-.52c0-.19.07-.36.22-.5.14-.14.32-.21.52-.21h1.2c.39,0,.66-.06.79-.18.13-.12.2-.39.2-.81v-1.41c0-.36-.13-.54-.38-.54-.12,0-.25.04-.38.13-2.38,1.51-5.15,2.78-8.3,3.79-.06.02-.13.03-.21.03-.19,0-.37-.08-.52-.22-.15-.15-.23-.32-.23-.51,0-.38.18-.62.54-.72,1.88-.51,3.64-1.15,5.28-1.92.17-.07.26-.17.26-.27,0-.14-.13-.2-.38-.18-2.09.2-3.88.32-5.38.35-.18,0-.34-.07-.48-.2-.14-.13-.21-.29-.21-.47,0-.29.11-.48.34-.58.16-.06.46-.1.91-.11.45-.01.67-.23.67-.66v-5.36c0-.91.45-1.36,1.36-1.36h1.42c.52,0,.9-.25,1.12-.74l.14-.32c.12-.34.36-.51.74-.51.21,0,.39.08.54.23.14.15.22.34.22.55v.05c-.01.09-.02.17-.02.24,0,.33.17.5.51.5h2.56c.91,0,1.36.45,1.36,1.36v2.7c0,.32.1.48.3.48.12,0,.25-.07.38-.21l.18-.18c.16-.16.33-.24.51-.24s.34.07.48.2c.14.13.21.3.21.49ZM102.77,105.3c0-.46-.22-.69-.67-.69h-5.65c-.46,0-.69.23-.69.69,0,.32.19.48.56.48h5.89c.37,0,.56-.16.56-.48ZM102.77,107.51c0-.36-.19-.54-.56-.54h-5.89c-.37,0-.56.18-.56.54s.19.56.56.56h5.89c.37,0,.56-.19.56-.56ZM102.38,109.91c.16-.12.24-.24.24-.37,0-.19-.14-.29-.42-.29h-5.89c-.37,0-.56.19-.56.56v.22c0,.38.19.57.58.54,2.06-.1,3.74-.21,5.04-.34.43-.04.76-.15,1.01-.34Z"/>
      <path class="cls-1" d="M111.97,103.57c-.43,2.44-.64,4.75-.64,6.93,0,1.53.06,2.8.18,3.82.03.25-.04.46-.21.66-.17.19-.38.29-.62.29-.22,0-.42-.07-.58-.22-.16-.15-.25-.33-.27-.54-.11-1.02-.16-2.33-.16-3.9,0-2.37.22-4.81.67-7.31.08-.46.36-.69.82-.69.26,0,.47.1.63.3.17.2.23.42.18.68ZM121.68,113.33c0,.19-.07.37-.21.52-.14.15-.3.24-.5.26-1.39.18-2.54.27-3.47.27-2.83,0-4.24-.85-4.24-2.56,0-.48.13-.97.4-1.47.15-.29.37-.43.67-.43.52,0,.78.25.78.75,0,.11-.03.26-.1.47-.06.21-.1.38-.1.5,0,.44.26.74.78.91.45.16,1.16.24,2.13.24.79,0,1.76-.09,2.91-.27.25-.04.46.02.65.18s.28.37.28.62ZM121.12,104.87c0,.2-.07.38-.2.53-.13.15-.3.24-.5.27-1.21.17-2.48.26-3.82.26-.6,0-1.25-.02-1.95-.06-.2-.01-.38-.09-.53-.25-.15-.15-.22-.34-.22-.55,0-.23.09-.43.26-.58.18-.15.38-.22.6-.2.6.05,1.23.08,1.9.08,1.21,0,2.38-.09,3.54-.27.25-.04.46.02.65.18.19.16.28.36.28.61Z"/>
      <path class="cls-1" d="M138.32,108.43c0,1.75-.82,3.11-2.46,4.1-1.22.74-2.83,1.23-4.83,1.49-.23.03-.44-.03-.62-.19-.18-.16-.27-.36-.27-.59,0-.2.07-.38.21-.54s.3-.24.5-.26c3.83-.49,5.74-1.82,5.74-4,0-1.54-1.01-2.3-3.02-2.3-1.58,0-4.11.46-7.58,1.38-.07.02-.15.03-.22.03-.22,0-.42-.08-.58-.24-.17-.16-.25-.36-.25-.59,0-.44.21-.71.64-.82,3.71-.89,6.39-1.33,8.05-1.33,1.34,0,2.41.26,3.2.78,1.01.67,1.52,1.7,1.52,3.09Z"/>
      <path class="cls-1" d="M145.46,110.79c-.42,1.01-.77,2.03-1.07,3.04-.15.51-.44.77-.88.77-.47,0-.77-.29-.91-.88-.29-1.21-.43-2.64-.43-4.3,0-1.8.18-3.79.54-5.95.07-.45.34-.67.78-.67.25,0,.45.1.62.29.17.19.23.41.18.66-.42,2.43-.62,4.38-.62,5.84v.93c.01.34.1.51.27.51.15,0,.28-.14.38-.42l.1-.24c.1-.23.27-.35.51-.35.16,0,.3.06.41.17.11.11.17.25.17.41,0,.06-.02.13-.05.21ZM154.7,106.08c0,.38-.22.65-.66.8-.01.01-.39.08-1.15.21-.48.09-.72.37-.72.85v1.2c0,2.86-1.07,4.94-3.2,6.24-.13.07-.27.11-.42.11-.22,0-.42-.08-.58-.24-.16-.16-.24-.35-.24-.58,0-.3.13-.53.38-.69.91-.57,1.56-1.26,1.95-2.1.35-.76.53-1.71.53-2.85v-.83c0-.54-.28-.8-.85-.77-.99.06-1.69.09-2.1.08l-.66-.02c-.2,0-.38-.07-.53-.22-.15-.15-.22-.33-.22-.53s.08-.4.24-.55c.16-.15.35-.23.56-.22l.59.02c.54.01,1.25-.02,2.13-.08.53-.04.78-.33.75-.86l-.1-1.73c-.01-.22.06-.42.22-.59.15-.17.35-.26.58-.26.21,0,.4.07.55.22.15.14.24.32.25.54.01.33.03.85.06,1.55.02.51.23.77.64.77.06,0,.13-.01.21-.03l.82-.19c.1-.02.16-.03.19-.03.2,0,.38.08.53.23.15.15.22.34.22.55Z"/>
      <path class="cls-1" d="M165.33,105.83c-.78.15-1.57.27-2.37.37-.44.05-.75.17-.95.34s-.34.46-.44.88c-.6,2.53-1.34,4.95-2.22,7.28-.14.35-.4.53-.78.53-.24,0-.43-.08-.59-.25-.16-.17-.24-.36-.24-.58,0-.11.02-.21.06-.32.91-2.14,1.65-4.42,2.22-6.82.02-.08.03-.17.03-.24,0-.37-.22-.55-.67-.54s-.86.01-1.23,0c-.21-.01-.4-.09-.55-.25-.15-.15-.23-.34-.23-.55s.08-.42.25-.58c.17-.16.36-.23.58-.22.61.02,1.1.03,1.47.02.6-.02.94-.31,1.02-.88.03-.23.08-.58.16-1.05.07-.46.35-.7.82-.7.22,0,.42.08.58.24.16.16.24.35.24.56,0,.11-.04.37-.13.8-.01.08-.02.14-.02.21,0,.43.23.6.7.53.06-.01.44-.09,1.12-.22.51-.1.86-.14,1.06-.14.22,0,.41.08.55.24.14.16.22.35.22.58,0,.44-.22.7-.66.78ZM170.38,114.24c0,.46-.22.72-.67.78-1.01.15-2.08.22-3.2.22-2.84,0-4.26-.79-4.26-2.38,0-.36.09-.78.27-1.25.13-.32.37-.48.72-.48.5,0,.75.26.75.77,0,.09-.02.21-.05.36-.03.15-.05.27-.05.36,0,.73.91,1.09,2.74,1.09.8,0,1.75-.08,2.85-.24.23-.03.44.03.62.18s.27.35.27.58ZM169.94,108.29c0,.22-.09.42-.26.58-.17.16-.37.23-.59.22-1.59-.09-3.29-.05-5.1.11-.22.02-.42-.05-.58-.2-.17-.15-.25-.34-.25-.57,0-.2.07-.38.2-.52.13-.14.3-.23.49-.25,1.8-.18,3.57-.25,5.31-.19.21.01.4.1.55.26.15.16.23.35.23.56Z"/>
      <path class="cls-1" d="M35.62,133.16c0,.23-.08.43-.25.6-.17.17-.37.25-.6.25-.26,0-.47-.1-.64-.29-1.13-1.3-2.2-2.45-3.22-3.44-.17-.17-.35-.26-.53-.26-.2,0-.4.11-.59.32-1.14,1.27-2.7,2.48-4.67,3.63-.13.07-.26.11-.4.11-.22,0-.42-.08-.58-.24-.16-.16-.24-.35-.24-.58,0-.32.14-.56.42-.72,3.5-1.97,5.77-4.44,6.82-7.41.07-.2.11-.37.11-.51,0-.39-.31-.59-.93-.59h-5.38c-.21,0-.4-.08-.55-.24-.15-.16-.23-.35-.23-.56s.08-.4.23-.55.34-.23.55-.23h6.58c.52,0,.93.12,1.23.36.3.24.45.57.45,1,0,.2-.04.44-.13.7-.36,1.13-.82,2.19-1.36,3.17-.12.21-.18.41-.18.59,0,.27.12.51.35.74,1.17,1.13,2.34,2.32,3.5,3.57.15.16.22.35.22.58Z"/>
      <path class="cls-1" d="M52.26,128.54c0,.2-.07.38-.2.52-.13.14-.3.23-.49.25l-3.81.42c-.54.06-.78.36-.7.9l.48,3.23c.03.25-.03.46-.19.65s-.36.28-.61.28c-.2,0-.38-.07-.53-.21s-.24-.3-.27-.5l-.5-3.3c-.08-.52-.37-.76-.9-.7l-4.42.5c-.22.02-.42-.04-.6-.19-.18-.15-.26-.34-.26-.56,0-.19.07-.36.2-.51.13-.15.3-.23.49-.26l4.34-.48c.55-.06.79-.36.7-.9l-.14-.96c-.07-.51-.37-.74-.9-.69l-3.1.3c-.22.02-.42-.04-.58-.19s-.25-.34-.25-.56c0-.47.22-.73.67-.77l2.99-.3c.54-.05.78-.35.7-.9l-.19-1.36c-.03-.25.03-.46.18-.66.15-.19.35-.29.6-.29.2,0,.38.07.53.2.15.13.24.3.27.49l.24,1.5c.09.51.38.74.88.69l3.14-.3c.22-.02.42.05.59.2.17.15.26.34.26.57,0,.19-.07.36-.21.51-.14.15-.3.23-.5.26l-3.01.29c-.55.05-.79.35-.7.9l.14.91c.08.51.38.74.9.69l3.89-.43c.22-.02.42.05.6.2s.26.34.26.57Z"/>
      <path class="cls-1" d="M59.42,125.06c0,1.97-.12,3.53-.35,4.67-.32,1.58-.95,3.03-1.9,4.37-.18.26-.42.38-.72.38-.23,0-.44-.08-.61-.25-.17-.17-.26-.37-.26-.62,0-.2.06-.38.18-.53.84-1.09,1.42-2.36,1.73-3.81.22-1.06.34-2.48.34-4.27v-1.92c0-.22.08-.42.24-.58.16-.16.35-.24.58-.24s.4.08.55.24c.15.16.23.35.23.58v1.97ZM68.85,128.89c0,.16-.04.3-.11.42-1.29,2.11-3.01,3.7-5.15,4.77-.32.16-.62.24-.9.24-.35,0-.63-.12-.84-.37s-.31-.57-.31-.98v-9.94c0-.22.08-.42.24-.58.16-.16.35-.24.58-.24s.4.08.56.24c.16.16.24.35.24.58v8.26c0,.53.15.8.46.8.16,0,.36-.07.59-.22,1-.61,2.04-1.74,3.1-3.41.17-.27.41-.4.72-.4.22,0,.42.08.58.24.16.16.24.36.24.59Z"/>
      <path class="cls-1" d="M84.02,126.92c0,.32-.15.54-.45.67-.71.3-1.39.6-2.02.91-.44.21-.71.44-.82.67-.07.17-.11.51-.11,1.02v1.02c0,.21-.07.39-.22.54-.15.14-.33.22-.54.22s-.39-.07-.54-.22c-.14-.14-.22-.32-.22-.54v-.61c0-.37-.14-.56-.42-.56-.12,0-.25.04-.38.13-1.29.8-1.94,1.49-1.94,2.06,0,.33.22.57.66.71.44.14,1.18.22,2.24.22.83,0,1.94-.09,3.31-.27.22-.03.42.03.58.18.17.15.25.34.25.56,0,.19-.06.36-.19.5-.13.14-.29.23-.48.25-1.22.14-2.41.21-3.58.21s-2.15-.1-2.8-.3c-1.09-.35-1.63-1-1.63-1.94,0-1.09,1.18-2.33,3.54-3.73.38-.22.58-.45.58-.67,0-.28-.22-.42-.67-.42-.62,0-1.4.29-2.35.88-.77.48-1.45,1.01-2.03,1.6l-.42.5c-.17.16-.36.24-.56.24-.21,0-.39-.07-.54-.22-.14-.14-.22-.32-.22-.54,0-.19.06-.36.18-.5,1.11-1.33,2.04-2.67,2.78-4,.07-.13.11-.25.11-.37,0-.28-.2-.41-.59-.4-.35.01-.87.02-1.55.02-.19,0-.35-.07-.49-.21s-.2-.3-.2-.5c0-.2.07-.37.22-.51.14-.14.31-.2.5-.19.66.02,1.39.02,2.19,0,.63-.01,1.06-.3,1.28-.88l.32-.83c.13-.33.37-.5.72-.5.21,0,.39.07.54.22s.22.33.22.53c0,.1-.02.19-.05.27-.05.13-.09.21-.1.24-.04.12-.06.22-.06.32,0,.31.19.44.58.4.41-.04,1.17-.15,2.3-.32.21-.03.41.02.58.17.17.14.26.32.26.54,0,.43-.21.67-.64.72-1.07.14-2.02.24-2.86.3-.47.04-.82.14-1.06.3-.24.15-.47.43-.68.82-.02.03-.07.12-.16.26-.12.2-.18.37-.18.5,0,.16.1.24.29.24.12,0,.27-.04.46-.11.57-.21,1.08-.32,1.55-.32.64,0,1.13.21,1.47.64.23.29.46.43.67.43.12,0,.25-.03.38-.1l1.94-.94c.11-.05.21-.08.32-.08.2,0,.38.07.52.22.14.14.22.32.22.54Z"/>
      <path class="cls-1" d="M101.39,132.3c0,.13-.03.25-.1.37-.38.7-.7,1.21-.94,1.5-.39.48-.81.72-1.23.72-1.03,0-1.87-1.22-2.5-3.65-.35-1.37-.61-2.98-.78-4.83-.04-.42-.26-.62-.66-.62h-7.33c-.19,0-.35-.07-.49-.21s-.2-.3-.2-.5c0-.18.07-.34.2-.48.13-.14.3-.21.49-.21h7.18c.43,0,.63-.21.62-.64l-.05-2.1c0-.2.07-.38.22-.53s.32-.22.52-.22.38.07.52.22.22.32.22.52c0,.76.02,1.47.05,2.13.02.42.24.62.66.62h2.58c.19,0,.36.07.5.21.14.14.21.3.21.48,0,.19-.07.36-.21.5s-.3.21-.5.21h-2.43c-.45,0-.65.22-.61.67.12,1.28.29,2.51.53,3.68.41,2.03.86,3.04,1.38,3.04.19,0,.48-.42.86-1.25.11-.23.3-.35.59-.35.19,0,.36.07.5.22.14.14.21.31.21.5ZM95.98,133.02c0,.38-.2.61-.59.67-2.47.37-4.94.69-7.41.96-.2.02-.38-.04-.54-.18-.16-.14-.24-.32-.24-.53,0-.43.21-.66.64-.7l.18-.02c.39-.03.59-.26.59-.69v-4.42c0-.2.07-.37.21-.51.14-.14.31-.21.51-.21.19,0,.36.07.5.21s.21.31.21.51v4.21c0,.46.22.66.67.61l.53-.06c.39-.04.59-.27.59-.69v-5.18c0-.2.07-.37.21-.51s.31-.21.51-.21c.19,0,.36.07.5.21s.21.31.21.51v.86c0,.43.21.64.64.64h.86c.19,0,.36.07.5.21s.21.3.21.48c0,.19-.07.36-.21.5s-.3.21-.5.21h-.86c-.43,0-.64.21-.64.64v1.41c0,.47.23.67.69.59l1.25-.19c.2-.03.39.02.55.15.17.13.25.31.25.52ZM94.66,122.43c0,.18-.07.34-.2.47-.13.13-.29.2-.47.2h-5.06c-.18,0-.34-.07-.46-.2-.13-.13-.19-.29-.19-.47s.06-.34.19-.46c.13-.13.28-.19.46-.19h5.06c.18,0,.34.06.47.19.13.13.2.28.2.46ZM100.4,123.02c0,.18-.07.34-.2.47s-.29.2-.47.2c-.2,0-.36-.06-.48-.19-.2-.22-.55-.53-1.04-.93-.16-.13-.24-.3-.24-.53,0-.18.06-.34.19-.46s.29-.19.48-.19c.15,0,.29.05.42.14.35.27.73.6,1.14,1.01.14.14.21.3.21.48Z"/>
      <path class="cls-1" d="M117.36,130.49c0,.18-.07.34-.2.46s-.29.19-.46.19c-.03,0-.06,0-.1-.02-.26-.07-.38.01-.38.26v1.97c0,.85-.43,1.28-1.28,1.28h-2.75c-.85,0-1.28-.43-1.28-1.28v-1.79c0-.85.43-1.28,1.28-1.28h1.41c.18,0,.27-.05.27-.14,0-.08-.06-.16-.19-.22-.86-.47-1.62-.99-2.27-1.57-.41-.36-.84-.54-1.31-.54s-.88.2-1.29.59c-.55.53-1.25,1.04-2.08,1.52-.12.06-.18.14-.18.22,0,.1.09.14.27.14h1.38c.85,0,1.28.43,1.28,1.28v1.79c0,.85-.43,1.28-1.28,1.28h-2.62c-.85,0-1.28-.43-1.28-1.28v-1.98c0-.19-.12-.28-.35-.26-.45.04-.67-.17-.67-.62,0-.3.14-.5.43-.59,1.28-.43,2.34-.93,3.17-1.5.14-.1.21-.2.21-.3,0-.19-.14-.29-.43-.29h-2.74c-.17,0-.31-.06-.43-.18s-.18-.27-.18-.44.06-.31.18-.43c.12-.12.26-.18.43-.18h3.9c.61,0,1.01-.18,1.21-.53.06-.12.16-.31.28-.57.12-.26.32-.39.6-.39.19,0,.36.07.49.21.13.14.2.3.2.48,0,.04-.01.11-.04.21-.03.1-.04.17-.04.22,0,.25.15.37.45.37h5.74c.17,0,.32.06.44.18.12.12.18.26.18.42,0,.17-.06.32-.18.44s-.27.18-.44.18h-3.07c-.29,0-.43.09-.43.27,0,.12.08.22.24.32.94.59,2.09,1.08,3.46,1.49.31.1.46.3.46.61ZM109.47,124.1c0,.85-.43,1.28-1.28,1.28h-2.78c-.85,0-1.28-.43-1.28-1.28v-1.6c0-.85.43-1.28,1.28-1.28h2.78c.85,0,1.28.43,1.28,1.28v1.6ZM108.13,123.64v-.62c0-.41-.2-.61-.61-.61h-1.38c-.41,0-.61.2-.61.61v.62c0,.41.2.61.61.61h1.38c.41,0,.61-.2.61-.61ZM108.13,132.81v-.8c0-.41-.2-.61-.61-.61h-1.23c-.41,0-.61.2-.61.61v.8c0,.41.2.61.61.61h1.23c.41,0,.61-.2.61-.61ZM116.42,124.1c0,.85-.43,1.28-1.28,1.28h-2.93c-.85,0-1.28-.43-1.28-1.28v-1.6c0-.85.43-1.28,1.28-1.28h2.93c.85,0,1.28.43,1.28,1.28v1.6ZM114.83,132.83v-.8c0-.41-.2-.61-.61-.61h-1.36c-.41,0-.61.2-.61.61v.8c0,.41.2.61.61.61h1.36c.4,0,.61-.2.61-.61ZM115.01,123.64v-.62c0-.41-.2-.61-.61-.61h-1.52c-.41,0-.61.2-.61.61v.62c0,.41.2.61.61.61h1.52c.4,0,.61-.2.61-.61Z"/>
      <path class="cls-1" d="M123.04,122.57c-.43,2.44-.64,4.75-.64,6.93,0,1.53.06,2.8.18,3.82.03.25-.04.46-.21.66-.17.19-.38.29-.62.29-.22,0-.42-.08-.58-.22s-.25-.33-.27-.54c-.11-1.02-.16-2.33-.16-3.9,0-2.37.22-4.8.67-7.31.08-.46.36-.69.82-.69.26,0,.47.1.63.3.17.2.23.42.18.68ZM132.75,132.33c0,.19-.07.37-.21.52-.14.15-.3.24-.5.26-1.39.18-2.54.27-3.47.27-2.83,0-4.24-.85-4.24-2.56,0-.48.13-.97.4-1.47.15-.29.37-.43.67-.43.52,0,.78.25.78.75,0,.11-.03.26-.1.47-.06.21-.1.38-.1.5,0,.44.26.74.78.91.45.16,1.16.24,2.13.24.79,0,1.76-.09,2.91-.27.25-.04.46.02.65.18.19.17.28.37.28.62ZM132.19,123.87c0,.2-.07.38-.2.53-.13.15-.3.24-.5.27-1.21.17-2.48.26-3.82.26-.6,0-1.25-.02-1.95-.06-.2-.01-.38-.09-.53-.25-.15-.15-.22-.34-.22-.55,0-.23.09-.43.26-.58.18-.15.38-.22.6-.2.6.05,1.23.08,1.9.08,1.21,0,2.38-.09,3.54-.27.25-.04.46.02.65.18.19.16.28.36.28.61Z"/>
      <path class="cls-1" d="M139.63,133.95c0,.26-.08.47-.26.64s-.38.26-.64.26c-.28,0-.51-.11-.69-.32-.63-.76-1.26-1.41-1.9-1.95-.2-.17-.3-.38-.3-.64s.08-.45.25-.62.37-.25.62-.25c.21,0,.4.07.56.21.9.78,1.61,1.47,2.14,2.06.15.16.22.36.22.61Z"/>
      <path class="cls-1" d="M159.06,126.2c0,.18-.06.33-.18.46-.12.12-.27.18-.44.18h-1.65c-.43,0-.64.21-.64.62s.21.62.64.62h1.46c.17,0,.31.06.43.18.12.12.18.26.18.43s-.06.31-.18.43c-.12.12-.26.18-.43.18h-1.3c-.33,0-.5.11-.5.32,0,.12.07.24.21.37.48.44.98.86,1.5,1.26.17.13.26.3.26.51,0,.18-.06.33-.18.45-.12.12-.27.18-.44.18s-.31-.05-.42-.14c-.16-.13-.38-.32-.67-.58-.12-.11-.22-.16-.32-.16-.17,0-.26.14-.26.42v2.42c0,.19-.07.36-.21.5s-.3.21-.5.21-.36-.07-.49-.21c-.13-.14-.2-.3-.2-.5v-2.29c0-.27-.08-.4-.24-.4-.11,0-.22.07-.34.21-.43.53-.89,1.02-1.38,1.47-.14.13-.29.19-.46.19-.18,0-.34-.07-.47-.2-.13-.13-.2-.29-.2-.47,0-.19.08-.36.24-.5.96-.86,1.7-1.66,2.22-2.38.08-.12.13-.22.13-.32,0-.23-.17-.35-.5-.35h-1.34c-.17,0-.31-.06-.43-.18-.12-.12-.18-.26-.18-.43s.06-.31.18-.43c.12-.12.26-.18.43-.18h1.65c.43,0,.64-.21.64-.62s-.21-.62-.64-.62h-1.87c-.17,0-.32-.06-.44-.18-.12-.12-.18-.27-.18-.46,0-.17.06-.32.18-.44.12-.12.27-.18.44-.18h.53c.38,0,.58-.16.58-.48,0-.07-.01-.15-.03-.24l-.22-.75c-.1-.31-.27-.49-.51-.54-.41-.07-.61-.28-.61-.61,0-.17.06-.31.18-.43.12-.12.26-.18.43-.18h1.54c.43,0,.64-.21.64-.64v-.08c0-.2.07-.38.22-.52s.32-.22.52-.22c.19,0,.36.07.5.22.14.14.22.32.22.52v.08c0,.43.21.64.64.64h1.47c.17,0,.32.06.43.18.12.12.18.26.18.43,0,.33-.2.53-.61.61-.28.05-.46.23-.56.54l-.22.75c-.02.09-.03.17-.03.24,0,.32.19.48.56.48h.43c.17,0,.32.06.44.18.12.12.18.27.18.44ZM156.3,124.28c.02-.07.03-.15.03-.22,0-.33-.19-.5-.58-.5h-.75c-.4,0-.59.17-.59.5,0,.07.01.15.03.22l.18.62c.13.45.38.67.75.67s.62-.22.75-.67l.18-.62ZM166.19,126.2c0,.18-.07.34-.2.47s-.29.2-.47.2h-.45c-.43,0-.64.21-.64.64v6.82c0,.19-.07.36-.2.5-.13.14-.3.21-.49.21s-.36-.07-.5-.21c-.14-.14-.22-.3-.22-.5v-6.82c0-.43-.21-.64-.64-.64h-.59c-.42,0-.63.21-.64.64-.04,2.51-.34,4.66-.9,6.46-.11.36-.35.54-.72.54-.21,0-.39-.08-.54-.23s-.22-.33-.22-.54c0-.07.02-.15.05-.24.37-1.02.63-2.1.78-3.22.11-.79.16-1.88.16-3.28v-3.46c0-.87.45-1.38,1.34-1.52,1.33-.2,2.38-.45,3.14-.74.08-.03.17-.05.24-.05.19,0,.36.07.51.22s.22.32.22.52c0,.36-.18.6-.53.7-.95.28-1.96.49-3.02.64-.34.04-.51.25-.51.61v.94c0,.43.21.64.64.64h3.73c.18,0,.34.07.47.2.13.13.2.29.2.47Z"/>
      <path class="cls-1" d="M180.93,130.2c0,.15-.04.29-.13.43-.73,1.18-1.59,2.13-2.61,2.83-1.14.78-2.35,1.17-3.63,1.17-2.81,0-4.21-1.27-4.21-3.81,0-1.03.02-2.39.06-4.08.03-1.37.06-2.85.08-4.45,0-.22.09-.42.26-.58.17-.17.37-.25.59-.25s.44.09.61.26c.17.17.25.37.24.61l-.19,8.14c0,1.67.89,2.51,2.66,2.51.95,0,1.86-.34,2.74-1.01.75-.55,1.4-1.3,1.97-2.22.16-.27.4-.4.72-.4.24,0,.43.08.6.25s.25.37.25.6Z"/>
      <path class="cls-1" d="M26.99,150.11c-.94,1.85-1.84,2.77-2.7,2.77-1.07,0-1.89-.95-2.48-2.85-.46-1.47-.69-3.14-.69-5.01,0-.96.03-1.79.1-2.48.02-.22.11-.41.26-.56.15-.15.34-.22.57-.22.25,0,.45.09.62.28.17.19.24.4.22.65-.07.71-.11,1.54-.11,2.48,0,1.23.13,2.44.4,3.65.3,1.33.69,2,1.18,2,.35,0,.75-.48,1.2-1.44.14-.29.38-.43.72-.43.22,0,.41.08.57.23.15.16.23.34.23.57,0,.14-.03.26-.08.37ZM33.92,149.62c.03.26-.04.49-.21.69-.17.2-.39.3-.66.3-.22,0-.42-.08-.59-.22-.17-.15-.27-.33-.29-.54-.27-2.42-1.05-4.58-2.35-6.46-.1-.14-.14-.29-.14-.46,0-.23.08-.43.24-.59s.36-.24.59-.24c.29,0,.52.12.69.35,1.47,2.05,2.38,4.44,2.72,7.18Z"/>
      <path class="cls-1" d="M50.9,151.84c0,.14-.03.27-.1.38-.67,1.17-1.26,1.76-1.76,1.76-.46,0-.84-.31-1.15-.94-.14-.29-.29-.43-.45-.43-.13,0-.27.08-.43.26-.43.46-.78.8-1.07,1.02-.15.12-.3.18-.45.18-.18,0-.33-.06-.46-.19-.12-.13-.18-.28-.18-.46,0-.2.07-.37.22-.5.66-.59,1.21-1.14,1.63-1.66.28-.33.42-.69.42-1.09,0-.11-.01-.22-.03-.35-.1-.71-.18-1.82-.26-3.33-.02-.43-.24-.64-.66-.64h-4.8c-.43,0-.64-.21-.64-.62s.21-.62.64-.62h.1c.34,0,.49-.17.45-.51-.03-.21-.11-.62-.24-1.23-.04-.19-.19-.32-.43-.38-.28-.07-.42-.26-.42-.54,0-.08.02-.17.05-.24-.03.01-.07.02-.11.02-.16,0-.24.13-.24.4v11.38c0,.18-.06.34-.19.46-.13.13-.28.19-.46.19s-.34-.06-.47-.19-.2-.28-.2-.46v-1.5c0-.34-.14-.51-.43-.51-.06,0-.13.01-.19.03-.85.21-1.49.39-1.9.53-.27.04-.48,0-.63-.15-.15-.14-.23-.32-.23-.54,0-.38.16-.61.48-.69l.06-.02c.23-.06.35-.21.35-.43v-8.1c0-.27-.1-.4-.3-.4-.16,0-.29-.07-.4-.21s-.16-.3-.16-.5c0-.18.07-.34.2-.47.13-.13.3-.2.49-.2h4.11c.19,0,.36.07.5.2.14.13.21.29.21.47,0,.13-.03.25-.08.35.05,0,.11-.02.16-.02h.93c.37,0,.56-.19.56-.56v-.21c0-.19.07-.35.2-.49.13-.13.3-.2.49-.2s.35.07.49.2.2.3.2.49v.21c0,.37.19.56.56.56h1.01c.16,0,.3.06.42.18.12.12.18.26.18.42,0,.27-.13.45-.38.54-.25.09-.39.22-.42.39-.19.9-.29,1.35-.29,1.36,0,.26.14.38.43.38h.3c.44,0,.65-.21.62-.64-.02-.52-.03-1.65-.03-3.39,0-.17.06-.32.19-.46.13-.13.28-.2.45-.2s.32.07.45.2c.13.13.19.29.19.46,0,1.53.02,2.66.05,3.41.02.42.23.62.64.62h1.46c.17,0,.32.06.44.18.12.12.18.27.18.44s-.06.32-.18.44c-.12.12-.27.18-.44.18h-1.38c-.44,0-.65.22-.62.66.01.13.04.71.08,1.76.01.19.07.29.18.29.08,0,.16-.06.22-.19.14-.31.31-.74.51-1.3.1-.27.28-.4.54-.4.16,0,.3.06.41.18.11.12.17.26.17.42,0,.03-.01.1-.03.21-.38,1.02-.81,1.94-1.26,2.74-.2.35-.3.67-.3.96,0,.18.03.37.1.56.15.42.3.62.45.62.05,0,.23-.29.54-.86.1-.18.28-.27.54-.27.42,0,.62.21.62.64ZM39.3,143.07v-.9c0-.32-.16-.48-.48-.48h-.34c-.32,0-.48.16-.48.48v.9c0,.32.16.48.48.48h.34c.32,0,.48-.16.48-.48ZM39.3,146.27v-.98c0-.32-.16-.48-.48-.48h-.34c-.32,0-.48.16-.48.48v.98c0,.32.16.48.48.48h.34c.32,0,.48-.16.48-.48ZM39.3,149.47v-.98c0-.32-.16-.48-.48-.48h-.34c-.32,0-.48.16-.48.48v1.2c0,.29.13.43.38.43.04,0,.1,0,.16-.03l.35-.1c.27-.07.4-.25.4-.53ZM45.89,151.46c0,.77-.39,1.15-1.17,1.15h-2c-.77,0-1.15-.38-1.15-1.15v-3.58c0-.78.38-1.17,1.15-1.17h2c.78,0,1.17.39,1.17,1.17v3.58ZM44.67,148.59v-.3c0-.32-.16-.48-.48-.48h-.93c-.32,0-.48.16-.48.48v.3c0,.32.16.48.48.48h.93c.32,0,.48-.16.48-.48ZM44.67,150.91v-.35c0-.32-.16-.48-.48-.48h-.93c-.32,0-.48.16-.48.48v.35c0,.32.16.48.48.48h.93c.32,0,.48-.16.48-.48ZM44.47,143.04c.06-.35-.09-.53-.45-.53h-.64c-.36,0-.51.18-.43.53.05.27.11.61.18,1.04.05.34.23.51.54.51s.5-.13.56-.4c.11-.48.19-.86.24-1.15ZM50.42,143.14c0,.16-.06.3-.18.42-.12.12-.26.18-.42.18-.28,0-.46-.13-.56-.38-.29-.78-.51-1.3-.67-1.57-.04-.07-.06-.17-.06-.27,0-.16.06-.3.18-.41.12-.11.26-.17.42-.17.25,0,.42.1.53.3.3.55.54,1.11.74,1.66.02.11.03.18.03.22Z"/>
      <path class="cls-1" d="M66.96,146.66c0,.17-.06.31-.18.43-.12.12-.26.18-.42.18h-5.01c-.5,0-.83.11-.98.32-.05.08-.08.15-.08.22,0,.19.14.29.43.29h4.11c.91,0,1.36.45,1.36,1.36v1.36c0,1.33-.1,2.17-.3,2.51-.25.41-.83.61-1.74.61h-.7c-.17,0-.32-.06-.44-.18-.12-.12-.18-.27-.18-.44,0-.16.06-.3.18-.42.12-.12.27-.18.44-.18h.48c.43,0,.69-.14.78-.42.07-.21.11-.83.11-1.86v-.67c0-.28-.1-.42-.29-.42-.26,0-.48.18-.66.54-.61,1.27-1.43,2.51-2.46,3.73-.15.17-.33.26-.53.26-.18,0-.34-.07-.47-.2-.13-.13-.2-.29-.2-.47,0-.17.05-.31.16-.43.8-.92,1.5-1.93,2.11-3.02.04-.07.06-.15.06-.22,0-.17-.12-.26-.35-.26-.32,0-.6.18-.83.53-.84,1.26-1.75,2.34-2.74,3.23-.14.13-.29.19-.45.19-.18,0-.34-.06-.47-.19s-.2-.28-.2-.46c0-.19.07-.35.22-.48.78-.67,1.49-1.45,2.14-2.32.06-.08.1-.17.1-.26,0-.16-.11-.24-.34-.24-.36,0-.68.14-.96.43-.28.29-.61.61-1.01.98-.13.12-.27.18-.43.18-.23,0-.43-.11-.58-.34-1.07.41-2.29.78-3.68,1.14-.04.01-.1.02-.18.02-.2,0-.38-.07-.53-.22-.15-.14-.22-.32-.22-.52,0-.38.2-.62.61-.72l.54-.13c.55-.13.83-.48.83-1.06v-3.3c0-.43-.21-.64-.64-.64h-.51c-.19,0-.36-.07-.5-.21-.14-.14-.21-.3-.21-.5s.07-.36.21-.5c.14-.14.3-.21.5-.21h.51c.43,0,.64-.21.64-.64v-2.3c0-.2.07-.38.22-.52.14-.14.32-.22.52-.22s.38.07.52.22c.14.14.22.32.22.52v2.3c0,.43.21.64.64.64h.38c.19,0,.36.07.5.21s.21.3.21.5-.07.36-.21.5-.3.21-.5.21h-.38c-.43,0-.64.21-.64.64v2.93c0,.38.15.58.46.58.08,0,.18-.02.27-.06l.11-.05c.07-.03.15-.05.24-.05.23,0,.42.1.56.29.6-.54,1.08-1.05,1.46-1.5.08-.11.13-.21.13-.3,0-.19-.14-.29-.42-.29h-1.02c-.16,0-.3-.06-.42-.18-.12-.12-.18-.26-.18-.43,0-.16.06-.3.18-.42.12-.12.26-.18.42-.18h9.06c.16,0,.3.06.42.18s.18.26.18.42ZM65.71,143.95c0,.89-.44,1.33-1.31,1.33h-5.23c-.89,0-1.33-.44-1.33-1.33v-2.35c0-.88.44-1.31,1.33-1.31h5.23c.87,0,1.31.44,1.31,1.31v2.35ZM64.27,141.87c0-.27-.17-.4-.5-.4h-4.02c-.32,0-.48.13-.48.4,0,.29.16.43.48.43h4.03c.32,0,.48-.14.48-.43ZM64.27,143.81c0-.3-.16-.45-.48-.45h-4.03c-.32,0-.48.15-.48.45,0,.27.16.4.48.4h4.02c.33,0,.5-.13.5-.4Z"/>
      <path class="cls-1" d="M81.86,142.13c0,.43-.29.68-.86.77-1.61.25-3.04.91-4.29,1.99-1.25,1.08-1.87,2.22-1.87,3.42,0,1.73,1.38,2.83,4.14,3.31.46.08.69.35.69.82,0,.26-.1.47-.3.65-.2.18-.42.24-.68.18-1.65-.32-2.91-.81-3.78-1.47-1.14-.88-1.71-2-1.71-3.36,0-1.15.39-2.2,1.17-3.14.34-.41.68-.75,1.01-1.02s.5-.51.5-.7c0-.26-.27-.36-.82-.32-2.19.19-3.96.38-5.33.56-.23.03-.44-.03-.61-.19-.17-.16-.26-.36-.26-.59,0-.2.07-.38.2-.54s.3-.24.5-.25c1.96-.19,5.73-.48,11.31-.86.29-.01.52.06.7.2.18.14.27.33.27.55ZM80.99,146.85c0,.17-.06.32-.18.44-.12.12-.27.18-.44.18-.26,0-.44-.1-.56-.29-.31-.49-.64-.91-.99-1.26-.12-.12-.18-.26-.18-.43,0-.43.21-.64.62-.64.18,0,.34.08.48.24.45.5.82.97,1.12,1.41.09.13.13.25.13.35ZM82.94,145.94c0,.17-.06.32-.18.44-.12.12-.27.18-.44.18-.25,0-.43-.1-.56-.29-.35-.52-.68-.96-.99-1.3-.12-.13-.18-.26-.18-.4,0-.43.21-.64.64-.64.16,0,.31.07.46.22.37.37.75.85,1.14,1.42.07.15.11.27.11.35Z"/>
      <path class="cls-1" d="M97.84,149.91c0,1.17-.44,2.11-1.3,2.81-.87.7-2.06,1.05-3.58,1.05-3,0-4.5-1.27-4.5-3.81,0-.21.01-.52.03-.93.02-.48-.25-.78-.8-.9-.48-.03-.96-.07-1.42-.11-.19-.02-.35-.11-.48-.26-.13-.15-.19-.32-.19-.51,0-.22.09-.41.26-.57.18-.16.38-.22.6-.18.33.05.82.12,1.47.21.52.06.82-.18.88-.72l.06-.58c.06-.53-.18-.83-.72-.88-.26-.02-.61-.06-1.06-.13-.45-.06-.68-.31-.68-.75,0-.22.09-.41.26-.56.18-.15.38-.21.6-.18.21.03.58.08,1.1.13.52.05.82-.18.88-.7l.18-1.36c.06-.48.33-.72.8-.72.26,0,.47.1.63.29.17.19.23.41.18.66l-.18,1.12c-.04.28,0,.49.13.65.13.16.33.23.59.22.9-.02,1.7-.07,2.42-.14.21-.02.4.04.57.18.17.14.25.32.25.54,0,.19-.06.36-.19.5-.13.14-.28.23-.46.25-.98.11-1.95.16-2.9.16-.51,0-.79.25-.85.74l-.06.58c-.03.27.02.47.14.62s.33.22.59.22c.91-.01,1.81-.06,2.7-.16.22-.02.42.04.58.18.17.14.25.33.25.55,0,.19-.07.36-.2.5-.13.14-.3.23-.49.25-.91.09-1.93.13-3.06.13-.54,0-.83.3-.85.9v.58c0,1.66.99,2.5,2.96,2.5.86,0,1.59-.19,2.18-.58.68-.45,1.02-1.08,1.02-1.9,0-.61-.14-1.23-.43-1.86-.06-.14-.1-.25-.1-.34,0-.22.08-.41.24-.56.16-.15.35-.22.58-.22.35,0,.6.16.74.46.41.88.61,1.76.61,2.64Z"/>
      <path class="cls-1" d="M108.3,152.48c0,.19-.08.36-.24.5-.16.14-.34.21-.53.21-.29,0-.5-.15-.62-.45-.02-.04-.07-.15-.16-.34-.13-.29-.33-.43-.59-.43-.12,0-.24.03-.37.08-1.64.66-3.04,1.16-4.19,1.49-.07.02-.14.03-.21.03-.2,0-.38-.07-.52-.22-.14-.14-.22-.32-.22-.54,0-.25.14-.46.43-.66.33-.21.5-.47.5-.77v-9.54c0-.89.44-1.33,1.31-1.33h3.5c.89,0,1.33.44,1.33,1.33v4.53c0,.89-.44,1.33-1.33,1.33h-2.74c-.43,0-.64.21-.64.64v2.48c0,.38.16.58.48.58.07,0,.16-.02.26-.05.42-.14.87-.3,1.36-.5.34-.13.51-.31.51-.54,0-.04-.12-.3-.37-.78-.02-.06-.03-.14-.03-.22,0-.18.07-.34.2-.47.13-.13.3-.2.49-.2.25,0,.44.11.58.34.59.94,1.17,2,1.75,3.2.04.09.06.19.06.3ZM106.32,142.85v-.35c0-.43-.21-.64-.64-.64h-2.02c-.43,0-.64.21-.64.64v.35c0,.43.21.64.64.64h2.02c.43,0,.64-.21.64-.64ZM106.32,145.81v-.43c0-.43-.21-.64-.64-.64h-2.02c-.43,0-.64.21-.64.64v.43c0,.43.21.64.64.64h2.02c.43,0,.64-.21.64-.64ZM114.67,149.78c0,.88-.12,1.45-.37,1.72-.25.27-.76.41-1.54.41h-.66c-.19,0-.36-.07-.5-.21-.14-.14-.22-.3-.22-.5s.07-.36.22-.5.31-.22.5-.22h.42c.34,0,.55-.08.62-.24.05-.11.08-.35.08-.74v-6.91c0-.38-.19-.58-.58-.58h-1.49c-.38,0-.58.19-.58.58v10.59c0,.2-.07.38-.22.52s-.31.22-.5.22c-.2,0-.37-.07-.51-.22-.14-.14-.21-.32-.21-.52v-11.09c0-.99.49-1.49,1.47-1.49h2.56c.99,0,1.49.5,1.49,1.49v7.68Z"/>
      <path class="cls-1" d="M131.33,151.27c0,.1-.02.19-.05.27-.63,1.57-1.3,2.35-2,2.35-.61,0-1.13-.43-1.55-1.3-.17-.35-.36-.53-.56-.53-.15,0-.32.1-.51.3-.4.41-.85.81-1.38,1.22-.14.11-.28.16-.43.16-.19,0-.35-.07-.49-.2-.13-.13-.2-.3-.2-.49,0-.25.1-.44.29-.58.81-.59,1.48-1.17,2-1.74.27-.29.4-.62.4-.99,0-.11-.01-.23-.03-.37-.18-1.03-.32-2.28-.42-3.73-.03-.43-.26-.62-.69-.59l-.61.05c-.2.02-.38-.04-.53-.19v2.86c0,.85-.43,1.28-1.28,1.28h-.82c-.43,0-.64.19-.64.56s.21.58.64.58h1.95c.17,0,.32.06.45.18.13.12.19.27.19.44,0,.18-.06.33-.19.46-.13.12-.28.18-.45.18h-1.95c-.43,0-.64.21-.64.64v1.26c0,.19-.07.36-.21.5s-.3.21-.5.21-.35-.07-.49-.2c-.13-.13-.2-.3-.2-.49v-1.28c0-.43-.21-.64-.64-.64h-2.29c-.17,0-.32-.06-.44-.18s-.18-.27-.18-.46c0-.17.06-.32.18-.44s.27-.18.44-.18h2.29c.43,0,.64-.19.64-.58s-.21-.56-.64-.56h-.88c-.85,0-1.28-.43-1.28-1.28v-3.31c0-.85.43-1.28,1.28-1.28h2.35c.56,0,.98-.24,1.23-.7.35-.63.63-1.22.85-1.78.12-.29.32-.43.61-.43.18,0,.34.07.47.21.13.14.2.29.2.46,0,.11-.02.2-.06.27-.25.51-.49.99-.72,1.44-.05.11-.08.2-.08.29,0,.12.11.27.33.46s.35.4.41.63c.14-.15.3-.23.48-.26l.66-.06c.41-.04.6-.27.59-.69-.03-.88-.05-1.71-.06-2.5,0-.18.07-.34.2-.47.13-.13.29-.2.47-.2s.34.07.47.2.2.29.2.47c0,.53.02,1.31.06,2.34.02.45.25.65.69.61l2.32-.22c.19-.02.36.04.5.18.14.14.22.3.22.5,0,.41-.2.62-.59.66l-2.43.22c-.42.04-.61.28-.59.7.03.61.1,1.36.21,2.26.02.21.1.32.24.32.12,0,.21-.07.29-.22.28-.53.52-1.09.74-1.68.1-.27.29-.4.59-.4.17,0,.31.06.43.18.12.12.18.26.18.42,0,.09-.02.17-.05.24-.47,1.14-.99,2.16-1.55,3.06-.19.31-.29.6-.29.88,0,.17.03.35.1.54.25.75.51,1.12.8,1.12.16,0,.4-.42.72-1.25.1-.25.29-.37.59-.37.43,0,.64.22.64.66ZM119.54,142.11c.04.08.06.18.06.27,0,.17-.06.33-.19.46s-.29.21-.48.21c-.29,0-.49-.13-.61-.4-.2-.48-.42-.91-.64-1.28-.06-.11-.1-.21-.1-.32,0-.18.06-.34.19-.46.13-.13.28-.19.46-.19.25,0,.43.11.56.34.3.5.54.96.74,1.38ZM120.47,145.04v-.11c0-.37-.19-.56-.56-.56h-.32c-.41,0-.61.18-.61.54v.13c0,.37.19.56.56.56h.37c.37,0,.56-.19.56-.56ZM120.47,147.31v-.08c0-.37-.19-.56-.56-.56h-.37c-.37,0-.56.19-.56.56v.08c0,.23.04.39.13.46.09.07.25.1.48.1h.37c.34,0,.51-.19.51-.56ZM121.99,141.87c.02.08.03.15.03.22,0,.18-.06.34-.19.47s-.29.2-.48.2c-.32,0-.54-.17-.65-.5-.11-.34-.29-.77-.52-1.29-.03-.08-.05-.17-.05-.27,0-.18.07-.34.2-.47.13-.13.29-.2.47-.2.27,0,.46.13.59.38.21.44.41.92.59,1.46ZM123.26,145.04v-.13c0-.36-.2-.54-.61-.54h-.29c-.37,0-.56.19-.56.56v.11c0,.37.19.56.56.56h.34c.37,0,.56-.19.56-.56ZM123.26,147.31v-.08c0-.37-.19-.56-.56-.56h-.34c-.37,0-.56.19-.56.56v.08c0,.37.19.56.56.56h.29c.23,0,.39-.03.48-.1s.13-.22.13-.46ZM130.38,142.03c0,.16-.06.3-.18.42-.12.12-.26.18-.42.18-.26,0-.44-.11-.54-.34-.2-.42-.43-.83-.69-1.23-.05-.08-.08-.19-.08-.3,0-.16.06-.3.18-.41.12-.11.26-.17.42-.17.2,0,.36.09.48.27.26.4.51.83.77,1.3.04.08.06.17.06.27Z"/>
      <path class="cls-1" d="M146.55,148.64c0,1.92-.27,3.22-.82,3.91-.55.69-1.58,1.03-3.08,1.03h-1.36c-.2,0-.38-.07-.52-.22-.14-.15-.22-.33-.22-.53,0-.19.07-.36.22-.5.14-.14.32-.22.52-.22h1.22c1.01,0,1.68-.24,1.99-.71.31-.47.47-1.47.47-3v-3.12c0-.38-.07-.65-.21-.78s-.4-.21-.78-.21h-3.06c-.5,0-.78.26-.83.77-.19,1.84-.59,3.39-1.18,4.64-.77,1.62-2,2.96-3.68,4-.14.08-.29.13-.45.13-.22,0-.41-.08-.57-.24-.16-.16-.23-.35-.23-.58,0-.29.12-.51.35-.66,1.45-.92,2.51-2.06,3.18-3.44.48-.99.81-2.25.98-3.78.06-.56-.19-.85-.75-.85h-3.39c-.2,0-.38-.07-.53-.22-.15-.14-.22-.32-.22-.52s.07-.38.22-.52.33-.22.53-.22h3.5c.52,0,.79-.27.8-.8l.02-1.15c0-.22.08-.42.23-.58.16-.16.34-.24.57-.24s.42.08.58.24.24.35.24.58c0,.42,0,.79-.02,1.14-.02.54.25.82.8.82h3.86c1.09,0,1.63.54,1.63,1.63v4.19Z"/>
      <path class="cls-1" d="M153.07,141.57c-.43,2.44-.64,4.75-.64,6.93,0,1.53.06,2.8.18,3.82.03.25-.04.46-.21.66-.17.19-.38.29-.62.29-.22,0-.42-.08-.58-.22s-.25-.33-.27-.54c-.11-1.02-.16-2.33-.16-3.9,0-2.37.22-4.8.67-7.31.08-.46.36-.69.82-.69.26,0,.47.1.63.3.17.2.23.42.18.68ZM162.79,151.33c0,.19-.07.37-.21.52-.14.15-.3.24-.5.26-1.39.18-2.54.27-3.47.27-2.83,0-4.24-.85-4.24-2.56,0-.48.13-.97.4-1.47.15-.29.37-.43.67-.43.52,0,.78.25.78.75,0,.11-.03.26-.1.47-.06.21-.1.38-.1.5,0,.44.26.74.78.91.45.16,1.16.24,2.13.24.79,0,1.76-.09,2.91-.27.25-.04.46.02.65.18.19.17.28.37.28.62ZM162.23,142.87c0,.2-.07.38-.2.53-.13.15-.3.24-.5.27-1.21.17-2.48.26-3.82.26-.6,0-1.25-.02-1.95-.06-.2-.01-.38-.09-.53-.25s-.22-.34-.22-.55c0-.24.09-.43.26-.58.18-.16.38-.22.6-.2.6.05,1.23.08,1.9.08,1.21,0,2.38-.09,3.54-.27.25-.04.46.02.65.18s.28.36.28.61Z"/>
      <path class="cls-1" d="M173.22,143.78c-.54.12-1.07.21-1.58.29-.6.1-1,.43-1.2.99-.75,2.14-1.59,4.18-2.54,6.11-.15.31-.4.46-.74.46-.22,0-.42-.08-.58-.24-.16-.16-.24-.35-.24-.58,0-.13.03-.26.1-.38.9-1.73,1.67-3.48,2.32-5.25.04-.12.06-.22.06-.3,0-.33-.22-.5-.67-.5h-.91c-.21,0-.39-.08-.54-.23s-.22-.34-.22-.55c0-.22.08-.41.24-.57s.35-.23.58-.22c.47.02.91.03,1.31.02.65-.01,1.06-.34,1.22-.98.08-.36.18-.73.27-1.09.16-.41.42-.61.78-.61.22,0,.42.08.58.24s.24.35.24.56c0,.09-.05.32-.16.69-.03.13-.05.24-.05.34,0,.32.14.48.43.48.05,0,.11,0,.18-.02l.83-.18c.1-.02.16-.03.19-.03.21,0,.39.08.52.23.13.15.2.34.2.57,0,.41-.2.65-.61.74ZM179.28,151.7c0,.21-.08.4-.23.56-.16.16-.34.24-.57.24-.14,0-.28-.05-.43-.14-.35-.23-.73-.46-1.12-.67-.13-.08-.25-.11-.35-.11-.26,0-.44.19-.54.56-.31,1.08-1.26,1.62-2.85,1.62-.84,0-1.55-.18-2.11-.54-.67-.42-1.01-1.02-1.01-1.82s.31-1.39.94-1.81c.54-.36,1.23-.54,2.06-.54.23,0,.5.02.8.06.25.03.43,0,.57-.11.13-.11.2-.29.2-.54l-.02-2.34c0-.21.08-.4.22-.55.15-.15.33-.23.54-.23s.39.07.54.22.22.33.22.54l.02,2.69c0,.59.29,1.01.88,1.28.51.24,1.12.56,1.82.98.27.16.4.38.4.67ZM174.63,151.25c0-.45-.26-.71-.77-.8-.31-.05-.58-.08-.82-.08-.97,0-1.46.34-1.46,1.02,0,.31.13.55.39.73.26.18.6.26,1.02.26.75,0,1.23-.18,1.46-.54.12-.19.18-.39.18-.59ZM179.43,144.56c0,.21-.08.4-.23.55s-.34.23-.55.23c-.15,0-.29-.05-.43-.14-.81-.54-1.67-1.01-2.58-1.39-.3-.13-.45-.36-.45-.7,0-.21.08-.39.23-.54.16-.15.33-.22.54-.22.12,0,.21.02.29.06,1,.43,1.94.92,2.82,1.49.25.16.37.38.37.67Z"/>
      <path class="cls-1" d="M37.13,169.13c0,.2-.07.38-.22.54-1.18,1.26-2.19,1.89-3.01,1.89-.74,0-1.23-.29-1.47-.86-.15-.35-.22-.91-.22-1.66,0-.62.03-1.55.1-2.8.07-1.25.1-2.18.1-2.8,0-.53-.19-.8-.56-.8-.75,0-1.83.81-3.26,2.42-.5.58-.76,1.24-.77,1.98-.02,2.27-.03,3.88-.02,4.82,0,.21-.08.4-.24.56s-.35.24-.58.24-.4-.08-.55-.23c-.15-.15-.23-.34-.23-.57,0,.21.01-.64.03-2.56,0-.38-.11-.58-.34-.58-.15,0-.3.11-.45.32-.15.21-.47.71-.98,1.49-.15.22-.37.34-.66.34-.21,0-.4-.08-.55-.22-.15-.15-.23-.33-.23-.54,0-.19.07-.39.22-.59.58-.78,1.41-1.88,2.5-3.3.36-.47.55-.97.56-1.5.01-.28-.06-.48-.21-.62-.15-.13-.36-.18-.62-.14-.03,0-.54.1-1.52.29-.27.05-.49,0-.66-.18-.18-.18-.26-.38-.26-.62,0-.42.22-.66.66-.74.16-.03.81-.13,1.94-.29.5-.07.76-.36.77-.85l.05-1.55c.01-.21.09-.39.24-.54.15-.15.33-.22.54-.22s.42.08.58.24c.16.16.23.35.22.58l-.08,2.34c-.01.46.1.69.34.69.15,0,.33-.1.53-.29,1.33-1.29,2.48-1.94,3.44-1.94,1.17,0,1.76.68,1.76,2.03,0,.63-.04,1.57-.12,2.82-.08,1.25-.12,2.18-.12,2.8,0,.44.01.71.03.82.05.29.2.43.43.43.37,0,.89-.38,1.54-1.15.15-.17.34-.26.58-.26.21,0,.4.08.55.23.15.15.23.34.23.55Z"/>
      <path class="cls-1" d="M51.85,168.25c0,1.53-.63,2.66-1.89,3.41-1,.6-2.22.9-3.66.9-1.25,0-2.23-.2-2.95-.6-.72-.4-1.08-.94-1.08-1.61s.25-1.14.75-1.5c.45-.33,1-.5,1.66-.5.9,0,1.65.28,2.27.83.32.29.58.61.77.96.19.35.42.53.67.53.15,0,.32-.05.51-.16.87-.47,1.31-1.19,1.31-2.16,0-.72-.26-1.29-.79-1.7-.53-.41-1.23-.6-2.12-.59-2.26.03-4.28.76-6.06,2.19-.27.21-.48.32-.64.32-.2,0-.38-.07-.53-.22-.15-.14-.22-.32-.22-.54,0-.23.09-.43.27-.58,1.58-1.33,3.56-3.02,5.94-5.07.19-.17.29-.33.29-.46,0-.22-.2-.32-.61-.29-.71.05-1.92.13-3.62.24-.21.01-.4-.06-.56-.21s-.24-.33-.24-.54.07-.39.22-.54.32-.22.54-.22c2.03,0,4.17-.12,6.43-.32.33-.03.6.03.8.2.2.17.3.38.3.65s-.14.53-.43.77c-1.09.87-2.25,1.83-3.47,2.86-.17.14-.26.27-.26.4,0,.16.12.24.35.24.07,0,.15-.01.24-.03.58-.12,1.11-.18,1.62-.18,1.22,0,2.2.28,2.94.83.83.62,1.25,1.51,1.25,2.69ZM45.64,171.18c.41.03.61-.13.61-.48,0-.17-.07-.34-.22-.5-.36-.41-.83-.61-1.39-.61s-.88.21-.88.62c0,.37.31.65.94.82.26.06.57.11.94.14Z"/>
      <path class="cls-1" d="M68.22,170.55c0,.22-.08.41-.24.57-.16.16-.35.23-.58.23-.14,0-.27-.04-.4-.11-1.05-.6-2-1.07-2.85-1.41-.12-.05-.23-.08-.34-.08-.31,0-.51.23-.61.69-.12.6-.36,1.05-.72,1.36-.57.49-1.59.74-3.07.74-.89,0-1.63-.18-2.22-.54-.71-.44-1.07-1.07-1.07-1.9s.35-1.51,1.04-1.98c.69-.47,1.65-.7,2.88-.7.27,0,.53.01.8.03.28.02.49-.03.63-.15s.21-.32.2-.6l-.14-6.61c0-.23.08-.43.24-.59.16-.16.36-.24.59-.24s.42.08.58.24c.16.16.24.35.24.58l.02,1.49c.01.57.29.82.85.77.93-.1,1.9-.23,2.91-.4.23-.04.45.02.63.18.19.16.28.36.28.59,0,.44-.21.69-.64.77-.87.16-1.95.29-3.22.4-.52.04-.78.33-.77.85l.03,2.27c.01.62.32,1.04.93,1.25,1.19.43,2.39.97,3.58,1.62.29.16.43.4.43.72ZM61.66,169.79c.07-.51-.15-.81-.67-.9-.35-.05-.68-.08-.99-.08-1.53,0-2.29.41-2.29,1.22,0,.71.58,1.07,1.74,1.07.76,0,1.3-.09,1.62-.28.32-.19.52-.53.59-1.03Z"/>
      <path class="cls-1" d="M83.31,166.47c0,1.64-.69,3.03-2.08,4.18-1.11.93-2.56,1.63-4.35,2.1-.09.02-.15.03-.19.03-.21,0-.4-.08-.55-.23-.15-.15-.23-.34-.23-.57,0-.39.19-.65.56-.75,1.38-.39,2.5-.93,3.38-1.6,1.17-.88,1.76-1.92,1.76-3.1,0-1.43-.72-2.14-2.16-2.14s-3.29.38-5.46,1.14c-.1.03-.18.05-.26.05-.21,0-.4-.08-.56-.24-.16-.16-.24-.35-.24-.58,0-.39.19-.65.58-.77,2.51-.76,4.51-1.14,6.02-1.14,1.19,0,2.12.3,2.77.91.68.64,1.02,1.55,1.02,2.72ZM81.45,160.87c0,.24-.09.43-.26.58-.17.16-.37.22-.59.2-2.17-.19-3.87-.46-5.12-.8-.39-.11-.59-.36-.59-.77,0-.22.08-.41.23-.57.15-.16.34-.23.57-.23.06,0,.13.01.21.03,1.42.38,3.02.64,4.82.77.2.01.38.09.52.25.14.16.22.33.22.54Z"/>
      <path class="cls-1" d="M94.27,169.42c0,.25-.1.44-.3.58-.54.37-.98.66-1.31.85-.25.15-.47.22-.69.22-.49,0-.74-.3-.74-.9v-4.98c0-.43-.19-.64-.56-.64s-.58.21-.58.64v.54c0,1.35-.1,2.49-.3,3.41-.25,1.13-.69,2.18-1.33,3.14-.15.22-.36.34-.62.34-.2,0-.37-.07-.51-.22-.14-.14-.21-.32-.21-.52,0-.16.04-.3.13-.42.62-.84,1.04-1.75,1.26-2.74.17-.75.26-1.84.26-3.28v-.26c0-.43-.21-.64-.64-.64h-.3c-.18,0-.34-.06-.47-.19-.13-.13-.2-.29-.2-.48s.07-.35.2-.49c.13-.13.29-.2.47-.2h5.54c.18,0,.34.07.48.2.14.13.21.3.21.49s-.07.35-.2.48c-.13.13-.3.19-.49.19h-.16c-.43,0-.64.21-.64.64v3.65c0,.24.06.35.19.35.05,0,.11-.03.18-.1.07-.06.15-.13.25-.19.15-.11.29-.16.42-.16.19,0,.35.06.48.19s.19.29.19.48ZM93.53,160.36c0,.19-.07.35-.2.48s-.29.19-.47.19h-4.48c-.19,0-.35-.06-.49-.19-.13-.13-.2-.29-.2-.48s.07-.35.21-.49c.14-.13.3-.2.48-.2h4.48c.18,0,.34.07.47.2.13.13.2.3.2.49ZM96.94,170.78c0,.18-.09.36-.27.54-.66.66-1.32,1.19-1.97,1.58-.13.07-.25.11-.37.11-.18,0-.34-.07-.48-.2-.14-.13-.21-.3-.21-.49,0-.27.12-.47.37-.61.65-.36,1.26-.83,1.84-1.41.13-.13.27-.19.43-.19.18,0,.34.06.46.19s.19.28.19.46ZM101.68,160.04c0,.18-.06.34-.19.47-.13.13-.28.2-.46.2h-2.03c-.38,0-.63.2-.74.59-.02.09-.03.16-.03.22,0,.33.19.5.58.5h.75c.85,0,1.28.43,1.28,1.28v5.47c0,.85-.43,1.28-1.28,1.28h-3.62c-.85,0-1.28-.43-1.28-1.28v-5.47c0-.85.43-1.28,1.28-1.28h.18c.39,0,.63-.18.72-.54l.02-.06c.02-.07.03-.14.03-.21,0-.33-.2-.5-.59-.5h-1.78c-.18,0-.34-.07-.47-.2-.13-.13-.2-.29-.2-.47s.07-.34.2-.46c.13-.13.29-.19.47-.19h6.51c.18,0,.34.06.46.19s.19.28.19.46ZM99.47,163.91v-.18c0-.34-.19-.51-.56-.51h-2.38c-.34,0-.51.17-.51.51v.18c0,.32.16.48.48.48h2.5c.32,0,.48-.16.48-.48ZM99.47,166.12v-.14c0-.32-.16-.48-.48-.48h-2.5c-.32,0-.48.16-.48.48v.14c0,.32.16.48.48.48h2.5c.32,0,.48-.16.48-.48ZM99.47,168.34v-.19c0-.32-.16-.48-.48-.48h-2.5c-.32,0-.48.16-.48.48v.19c0,.35.17.53.51.53h2.38c.37,0,.56-.18.56-.53ZM101.61,172.33c0,.45-.22.67-.66.67-.14,0-.26-.03-.37-.1-.85-.5-1.58-1.06-2.18-1.66-.13-.13-.19-.28-.19-.46s.06-.34.19-.46.28-.19.46-.19c.17,0,.31.06.43.18.56.57,1.22,1.04,1.95,1.42.23.13.35.33.35.61Z"/>
      <path class="cls-1" d="M108.03,162.99c0,.85-.43,1.28-1.28,1.28h-.8c-.4,0-.61.2-.66.59l-.08.78c-.03.27-.02.45.03.56s.2.16.45.16h.9c.89,0,1.33.44,1.33,1.33v1.86c0,1.32-.12,2.19-.37,2.59-.31.5-.98.75-2,.75h-.8c-.19,0-.35-.07-.48-.2-.13-.13-.19-.3-.19-.49s.06-.36.19-.5.29-.21.48-.21h.62c.53,0,.87-.14,1.01-.42.11-.21.16-.77.16-1.66v-.96c0-.29-.04-.49-.12-.62-.08-.12-.26-.18-.54-.18h-1.02c-.8,0-1.16-.41-1.09-1.22l.19-2.19c.07-.81.52-1.22,1.34-1.22h.74c.41,0,.61-.2.61-.61v-1.14c0-.41-.2-.61-.61-.61h-1.78c-.19,0-.35-.07-.49-.2-.13-.13-.2-.3-.2-.49s.07-.35.2-.49c.13-.13.3-.2.49-.2h2.48c.85,0,1.28.43,1.28,1.28v2.4ZM117.63,166.44c0,.18-.06.33-.19.45-.13.12-.28.18-.45.18h-3.02c-.38,0-.58.15-.58.45,0,.16.16.51.48,1.06.13.21.29.32.48.32.14,0,.28-.06.43-.19.31-.27.62-.58.94-.93.14-.15.3-.22.5-.22s.34.06.46.19c.13.13.19.28.19.46s-.06.34-.19.46c-.3.3-.66.62-1.07.98-.17.15-.26.31-.26.48,0,.15.07.29.22.43.34.3.76.6,1.26.91.24.14.35.35.35.64,0,.21-.08.39-.22.54-.15.14-.33.22-.53.22-.16,0-.3-.04-.43-.13-1.88-1.23-3.23-2.94-4.05-5.14-.13-.35-.35-.53-.67-.53-.34,0-.51.21-.51.64v2.83c0,.39.18.59.53.59.05,0,.11,0,.18-.02l1.15-.22c.19-.04.37,0,.53.14s.24.31.24.51c0,.35-.18.57-.53.64-1.12.25-2.5.49-4.13.72-.2.03-.39-.02-.55-.16-.17-.14-.25-.31-.25-.53,0-.42.21-.65.64-.7.52,0,.79-.23.79-.69v-3.12c0-.43-.21-.64-.64-.64h-.43c-.17,0-.32-.06-.44-.18-.12-.12-.19-.27-.19-.45,0-.17.06-.32.19-.44.12-.12.27-.18.44-.18h.43c.43,0,.64-.21.64-.64v-4.53c0-.88.44-1.31,1.31-1.31h5.74c.17,0,.32.06.46.19s.2.28.2.45c0,.18-.07.33-.2.46-.13.12-.29.18-.46.18h-5.01c-.43,0-.64.17-.64.5s.21.48.64.48h4.21c.16,0,.29.06.41.18.11.12.17.25.17.4,0,.16-.06.3-.17.41-.11.11-.25.17-.41.17h-4.21c-.43,0-.64.16-.64.46s.21.48.64.48h4.21c.16,0,.29.06.41.17.11.11.17.24.17.39,0,.16-.06.3-.17.41-.11.11-.25.17-.41.17h-4.21c-.43,0-.64.17-.64.5s.21.5.64.5h5.57c.17,0,.32.06.45.18.13.12.19.27.19.44Z"/>
      <path class="cls-1" d="M125.48,165.21c-.55.95-1.02,1.87-1.39,2.77-.16.38-.43.58-.82.58-.53,0-.84-.28-.93-.83-.1-.63-.14-1.57-.14-2.83s.18-2.77.54-4.5c.11-.52.38-.78.83-.78.22,0,.41.08.56.23.15.16.22.34.22.57,0,.06,0,.13-.02.19-.38,1.76-.59,3.09-.61,3.98-.01.35.07.53.24.53.14,0,.29-.13.45-.38l.08-.13c.11-.17.27-.26.48-.26.38,0,.58.19.58.58,0,.11-.03.2-.08.29ZM130.99,165.29c0,1.8-.33,3.28-.98,4.43-.68,1.2-1.8,2.2-3.36,3.02-.12.06-.25.1-.38.1-.22,0-.42-.09-.58-.26s-.24-.38-.24-.6c0-.3.15-.53.45-.69,1.3-.68,2.21-1.5,2.74-2.46.49-.89.74-2.08.74-3.6,0-1.38-.14-2.99-.43-4.85-.04-.25.02-.47.19-.66.17-.2.38-.3.62-.3.2,0,.38.07.54.21.16.14.25.31.28.51.28,2,.42,3.71.42,5.15Z"/>
      <path class="cls-1" d="M148.93,170.58c0,.22-.08.41-.23.57s-.34.23-.57.23c-.15,0-.29-.04-.42-.11-1.07-.63-2.02-1.1-2.85-1.42-.11-.04-.2-.06-.29-.06-.31,0-.49.21-.54.64-.08.64-.3,1.12-.64,1.42-.53.48-1.49.72-2.86.72-.88,0-1.6-.17-2.18-.5-.7-.42-1.06-1.03-1.06-1.86,0-.93.44-1.6,1.33-2.03.66-.32,1.51-.48,2.56-.48.12,0,.3,0,.54.02.55.02.83-.21.83-.7v-.45c0-.53-.27-.79-.82-.78-1.13.03-2.22.04-3.26.03-.19,0-.35-.07-.49-.22-.13-.14-.2-.31-.2-.5s.07-.35.22-.49c.14-.13.31-.2.5-.2,1.04.02,2.13.02,3.25,0,.52-.01.78-.28.78-.82v-.06c0-.54-.28-.81-.83-.78-1.29.05-2.51.06-3.66.03-.19-.01-.36-.09-.5-.23-.14-.14-.21-.31-.21-.5,0-.2.07-.37.22-.51s.33-.2.53-.19c1.19.03,2.41.03,3.65,0,.52,0,.78-.27.78-.77,0-.04,0-.28-.02-.72,0-.21.07-.4.22-.55.15-.15.33-.23.54-.23s.39.08.54.23c.15.16.22.34.22.55v.54c0,.57.28.82.83.77.82-.08,1.72-.2,2.69-.34.21-.03.4.02.57.17.17.14.25.32.25.54,0,.41-.21.63-.62.69-1.15.15-2.13.26-2.93.34-.51.05-.77.33-.77.83v.05c0,.57.28.82.83.77.57-.05,1.35-.15,2.35-.3.21-.03.41.02.58.17.17.14.26.32.26.54,0,.42-.2.65-.61.7-.85.12-1.73.22-2.64.3-.51.04-.77.32-.77.83v.72c0,.59.29.98.88,1.17,1.09.35,2.28.87,3.57,1.55.28.15.42.38.42.7ZM142.51,169.96c.07-.53-.14-.82-.64-.86-.23-.02-.46-.03-.69-.03-1.54,0-2.3.37-2.3,1.1,0,.3.15.54.44.72.29.18.68.27,1.16.27.71,0,1.22-.08,1.5-.25.29-.17.46-.48.53-.95Z"/>
      <path class="cls-1" d="M166.03,162.01c0,.21-.07.4-.22.54-.15.15-.33.22-.54.22-1.67-.02-2.8-.03-3.38-.02-.52,0-.78.27-.78.82v.88c0,.39.11,1,.32,1.81.08.33.13.67.13,1.02,0,1.41-.38,2.56-1.15,3.46-.77.9-1.96,1.6-3.57,2.1-.08.02-.16.03-.24.03-.2,0-.38-.08-.54-.22-.16-.15-.23-.34-.23-.56,0-.37.19-.62.56-.74,1.51-.46,2.57-1.16,3.17-2.11.11-.17.16-.31.16-.43,0-.15-.08-.22-.24-.22-.1,0-.21.03-.34.1-.3.15-.62.22-.98.22-.79,0-1.42-.2-1.9-.59-.52-.44-.78-1.04-.78-1.81s.29-1.43.88-1.9c.54-.44,1.22-.66,2.03-.66.07,0,.19,0,.34.02s.26.02.32.02c.31,0,.46-.13.46-.4,0-.54-.27-.8-.82-.78-1.94.07-3.9.19-5.87.34-.22.02-.42-.05-.58-.2s-.25-.34-.25-.57c0-.21.07-.39.22-.54.14-.14.32-.22.52-.23l5.95-.29c.51-.02.77-.26.77-.72v-.72c0-.22.08-.42.25-.58.17-.17.36-.25.58-.25s.42.08.58.24.24.35.24.58v.61c0,.54.27.81.8.8,1.61-.02,2.74-.03,3.39-.02.21,0,.39.07.54.22.14.14.22.32.22.54ZM159.4,166.58c.04-.15.06-.29.06-.42,0-.41-.17-.68-.51-.82-.18-.08-.4-.11-.64-.11-.36,0-.67.12-.92.35-.25.24-.38.53-.38.88,0,.74.39,1.1,1.17,1.1.64,0,1.05-.33,1.22-.99Z"/>
      <path class="cls-1" d="M173.64,171.03c0,.32-.11.59-.32.81-.21.22-.48.33-.8.33s-.59-.11-.82-.33c-.22-.22-.34-.49-.34-.81s.11-.59.34-.81c.22-.22.5-.33.82-.33s.57.11.79.34c.22.22.33.49.33.8ZM178.89,160.84c0,.17-.05.34-.14.51l-4.13,7.28c-.15.26-.36.38-.64.38-.2,0-.38-.08-.53-.22s-.22-.33-.22-.53c0-.1.03-.2.08-.3l3.6-7.55c.19-.41.5-.61.93-.61.29,0,.54.1.74.3.21.2.31.45.31.74Z"/>
    </g>
    <g>
      <path class="cls-1" d="M124.23,211.51c0,1.28-.45,2.3-1.35,3.06-.78.67-1.84,1.1-3.18,1.28-.21.03-.4-.03-.56-.17-.17-.14-.25-.32-.25-.53,0-.41.2-.65.6-.72,2.14-.37,3.21-1.36,3.21-2.97,0-1.11-.46-1.89-1.37-2.34-.12-.06-.24-.09-.34-.09-.26,0-.47.17-.63.5-.65,1.36-1.4,2.54-2.24,3.55-1.29,1.54-2.58,2.31-3.86,2.31-.66,0-1.17-.19-1.54-.56s-.55-.89-.55-1.54c0-1.14.33-2.17,1-3.1.51-.71,1.15-1.29,1.91-1.74.45-.27.69-.64.72-1.12l.02-.29c.02-.46-.2-.69-.65-.69-.56,0-1.19,0-1.9-.02-.19,0-.35-.07-.49-.21-.13-.14-.2-.3-.2-.49s.07-.36.22-.5c.14-.14.32-.21.52-.2.92.04,1.6.05,2.05.04.41,0,.65-.22.71-.64l.09-.65c.06-.44.29-.66.71-.66.21,0,.39.09.55.27.16.18.23.37.2.55l-.04.29c-.04.24,0,.42.1.55.11.13.29.19.53.17,1.03-.08,2.19-.21,3.48-.41.21-.03.4.03.56.17.17.14.25.32.25.54,0,.41-.21.64-.63.69-1.57.19-2.86.31-3.86.38-.47.03-.72.25-.75.64-.02.24.03.41.16.52.12.11.31.14.55.11.39-.05.73-.08,1-.08,1.53,0,2.75.29,3.65.87,1.07.7,1.6,1.77,1.6,3.22ZM115.25,213.7c.45-.24.65-.71.6-1.43,0-.45-.02-.89-.03-1.33-.04-.7-.17-1.05-.39-1.05-.14,0-.3.08-.48.24-.39.34-.71.77-.95,1.29-.26.55-.39,1.1-.39,1.65,0,.59.24.89.73.89.28,0,.58-.08.9-.25ZM119.01,209.27c.05-.1.08-.19.08-.27,0-.25-.16-.37-.46-.34-.46.03-.8.11-1.02.24-.31.18-.47.48-.48.9-.01.38,0,.81.01,1.29,0,.3.12.45.32.45.14,0,.27-.08.39-.25.45-.63.84-1.3,1.17-2.01Z"/>
      <path class="cls-1" d="M139.64,209.03c0,1.22-.34,2.22-1.01,3.01-.67.79-1.61,1.26-2.81,1.43-.46.07-.88.32-1.25.75-.62.73-1.53,1.33-2.71,1.79-.08.03-.17.04-.25.04-.18,0-.34-.07-.48-.2-.14-.14-.21-.3-.21-.5,0-.33.15-.55.45-.66.57-.21,1.05-.47,1.46-.78.16-.12.24-.26.24-.41,0-.2-.14-.38-.42-.54-.48-.29-.88-.68-1.21-1.17-.08-.12-.12-.25-.12-.39,0-.45.22-.67.66-.67.25,0,.44.1.56.29.37.59.73.88,1.09.88.29,0,.46-.18.5-.55.05-.48.08-.95.08-1.39,0-.83-.02-1.62-.05-2.36-.02-.54-.22-.81-.6-.81-.12,0-.25.03-.41.09-.85.33-1.63.96-2.34,1.88-.68.87-1.17,1.87-1.46,2.98-.08.31-.12.69-.12,1.14,0,.21-.07.39-.21.55-.14.16-.31.24-.52.24s-.37-.07-.51-.2c-.14-.13-.21-.3-.22-.5-.11-2.95-.07-5.63.13-8.04.02-.2.1-.37.25-.5.14-.13.32-.2.52-.2.22,0,.4.09.55.26s.21.36.18.58c-.11.91-.18,1.84-.22,2.79,0,.3.06.45.22.45.12,0,.25-.09.38-.29.91-1.35,2.06-2.23,3.44-2.64.52-.15.77-.44.75-.88l-.02-.34c0-.22.06-.41.2-.58.14-.17.33-.25.56-.25.2,0,.38.07.52.2.15.13.23.3.24.5v.3c.04.45.29.7.76.75.97.11,1.76.47,2.36,1.08.71.72,1.07,1.67,1.07,2.87ZM138.17,209.09c0-1.38-.59-2.23-1.79-2.55-.08-.02-.15-.03-.22-.03-.39,0-.58.25-.57.75.02.97.03,1.77.03,2.38,0,.73-.02,1.28-.06,1.65-.05.44.09.66.43.66.08,0,.17-.02.25-.04,1.28-.45,1.92-1.39,1.92-2.82Z"/>
      <path class="cls-1" d="M155.43,211.55c0,.21-.08.39-.22.53-.15.15-.33.22-.54.22-.13,0-.25-.03-.36-.09l-.63-.33c-.15-.08-.29-.12-.41-.12-.25,0-.45.17-.58.5-.57,1.36-1.46,2.5-2.67,3.41-.13.1-.28.15-.45.15-.21,0-.39-.07-.54-.22-.15-.15-.22-.33-.22-.54,0-.26.1-.46.31-.62,1-.74,1.75-1.7,2.24-2.88.05-.12.08-.23.08-.33,0-.29-.17-.5-.51-.63-.71-.27-1.45-.47-2.21-.62-.08-.02-.16-.03-.24-.03-.42,0-.73.23-.93.69-.21.49-.57,1.29-1.07,2.38-.33.7-.66,1.2-.99,1.49s-.75.44-1.25.44c-.61,0-1.12-.24-1.53-.71-.41-.47-.62-1.05-.62-1.73,0-1.25.5-2.25,1.5-2.99.67-.49,1.46-.81,2.38-.96.67-.11,1.12-.43,1.37-.97.34-.78.58-1.33.71-1.65.05-.13.08-.24.08-.34,0-.28-.24-.4-.71-.36-.48.05-1.28.12-2.38.21-.2,0-.38-.05-.53-.19-.16-.14-.23-.31-.23-.52,0-.19.07-.36.2-.5.13-.14.29-.21.48-.23,1.07-.04,2.29-.15,3.66-.33.15-.02.26-.03.33-.03.73,0,1.09.3,1.09.9,0,.21-.05.43-.15.66l-1.11,2.58c-.06.15-.09.28-.09.39,0,.26.2.43.6.5.54.1,1.17.27,1.89.51.12.04.23.06.33.06.33,0,.52-.2.57-.6.06-.53.1-1.04.12-1.54,0-.2.09-.37.23-.51.15-.14.32-.21.52-.21s.39.08.54.23c.15.16.22.34.21.55,0,.23-.05.62-.12,1.18-.06.5-.09.88-.09,1.12,0,.42.21.74.65.96.28.13.56.26.84.39.31.2.46.44.46.72ZM145.97,210.62c.06-.13.09-.25.09-.36,0-.22-.11-.33-.33-.33-.08,0-.17.02-.27.04-.41.14-.77.34-1.08.6-.58.49-.87,1.12-.87,1.89,0,.24.06.45.19.64.12.18.29.28.49.28.38,0,.75-.4,1.09-1.2l.69-1.56Z"/>
    </g>
  </g>
</svg>