<?xml version="1.0" encoding="UTF-8"?>
<svg xmlns="http://www.w3.org/2000/svg" viewBox="0 0 273.45 170.93">
  <defs>
    <style>
      .cls-1 {
        fill: #5b5b5b;
      }

      .cls-2 {
        stroke: #cecece;
        stroke-linecap: round;
        stroke-linejoin: round;
        stroke-width: 7px;
      }

      .cls-2, .cls-3, .cls-4, .cls-5, .cls-6 {
        fill: none;
      }

      .cls-3 {
        stroke: #ffdede;
      }

      .cls-3, .cls-4, .cls-5, .cls-6 {
        stroke-miterlimit: 10;
      }

      .cls-3, .cls-5 {
        stroke-width: 30px;
      }

      .cls-4 {
        stroke: #fff9e1;
      }

      .cls-4, .cls-6 {
        stroke-width: 40px;
      }

      .cls-5 {
        stroke: #f2e9ff;
      }

      .cls-6 {
        stroke: #e7ffe1;
      }
    </style>
  </defs>
  <g id="_レイヤー_1" data-name="レイヤー 1">
    <path class="cls-3" d="M81.5,168.37c0-83.25,101-83.25,101,0"/>
    <path class="cls-4" d="M60.39,168.37c0-124.7,145.08-124.48,145.08,0"/>
    <path class="cls-6" d="M38.5,167.44c0-169.06,194.99-154.83,193.87,0"/>
    <path class="cls-5" d="M18.5,165.14c1.7-195.84,235-199.65,235,.79"/>
    <path class="cls-2" d="M9.21,166.75s87.16,1.52,86.63.01c0-60.28,74.53-60.28,74.53-.01.72-.85,98.1,3.52,99.54-5.29C273.83-41.84,4.04-53.32,4.04,152.77c0,0-3.01,8.15,5.17,13.98Z"/>
  </g>
  <g id="eri2kb">
    <g>
      <path class="cls-1" d="M126.92,26.68c0,.18-.06.33-.19.46s-.28.19-.46.19h-11.12c-.18,0-.33-.06-.45-.19-.12-.13-.18-.28-.18-.46s.06-.33.19-.46.27-.19.44-.19h4.33c.42,0,.63-.21.63-.63v-1.65c0-.42-.21-.63-.63-.63h-2.93c-.17,0-.31-.06-.43-.17-.12-.12-.18-.26-.18-.43s.06-.31.18-.43c.12-.12.26-.18.43-.18h2.93c.42,0,.63-.21.63-.63v-1.27c0-.42-.21-.63-.63-.63h-1.92c-.55,0-.97.23-1.26.7-.12.2-.31.48-.57.85-.13.19-.31.28-.53.28-.18,0-.33-.07-.46-.2-.13-.13-.2-.28-.2-.46,0-.16.04-.29.13-.41.92-1.26,1.64-2.54,2.14-3.84.1-.26.3-.39.6-.39.19,0,.34.07.47.2.13.13.19.29.19.46,0,.1-.1.37-.29.81-.05.11-.07.22-.07.32,0,.28.18.42.55.42h1.23c.42,0,.63-.21.63-.63v-1.26c0-.19.07-.35.2-.48.13-.14.3-.2.48-.2s.35.07.48.2c.13.14.2.3.2.48v1.26c0,.42.21.63.63.63h3.65c.18,0,.33.06.45.18.12.12.18.27.18.43,0,.18-.06.33-.18.45s-.27.18-.45.18h-3.65c-.42,0-.63.21-.63.63v1.27c0,.42.21.63.63.63h2.88c.17,0,.31.06.43.18s.18.26.18.43-.06.31-.18.43-.26.17-.43.17h-2.88c-.42,0-.63.21-.63.63v1.65c0,.42.21.63.63.63h4.17c.18,0,.33.06.46.19s.19.28.19.46Z"/>
      <path class="cls-1" d="M132.48,19.21c0,.17-.21.51-.63,1.02-.31.37-.46.78-.46,1.23v5.74c0,.18-.06.33-.19.46s-.28.19-.46.19-.33-.06-.46-.19-.19-.28-.19-.46v-4.4c0-.24-.08-.36-.25-.36-.08,0-.17.04-.27.13l-.24.22c-.1.09-.24.14-.42.14-.19,0-.34-.06-.47-.19s-.19-.28-.19-.46c0-.21.08-.37.25-.5,1.08-.83,2.03-1.82,2.86-2.95.11-.16.28-.24.49-.24.17,0,.31.06.43.18.12.12.18.27.18.43ZM132.08,16.24c0,.12-.04.23-.11.34-.69.94-1.49,1.81-2.41,2.59-.12.1-.26.15-.42.15-.17,0-.31-.06-.44-.19s-.19-.27-.19-.44c0-.2.08-.36.25-.49.88-.7,1.64-1.47,2.28-2.31.11-.15.27-.22.46-.22.16,0,.29.06.41.17s.17.25.17.41ZM141.01,20.37c0,.16-.06.29-.17.41-.11.11-.25.17-.41.17h-2.41c-.37,0-.56.19-.56.56v.56c0,.37.19.56.56.56h1.74c.15,0,.28.06.39.17s.17.24.17.39c0,.16-.06.29-.17.4-.11.11-.24.16-.39.16h-1.74c-.37,0-.56.19-.56.56v1.41c0,.35.18.54.55.57h.14s2.25.01,2.25.01c.16,0,.29.06.41.17.11.11.17.25.17.41s-.06.29-.17.41c-.11.11-.25.17-.41.17h-2.52c-1.46,0-2.57-.5-3.33-1.48-.14-.19-.27-.28-.39-.28-.13,0-.25.12-.35.35-.17.4-.39.82-.66,1.25-.13.21-.31.32-.53.32-.17,0-.31-.06-.43-.19-.12-.13-.18-.27-.18-.44,0-.13.03-.24.1-.34.73-1.05,1.2-2.45,1.43-4.2.05-.33.23-.49.56-.49.17,0,.31.07.43.2.12.13.17.28.15.43l-.08.59c-.07.5,0,.92.2,1.27.21.38.49.72.84,1.02.09.08.19.13.28.13.21,0,.31-.15.31-.45v-3.64c0-.37-.19-.56-.56-.56h-2.63c-.16,0-.3-.06-.41-.17-.12-.11-.17-.25-.17-.41s.06-.29.17-.41c.12-.11.25-.17.41-.17h2.49c.37,0,.56-.19.56-.56v-.55c0-.37-.19-.56-.56-.56h-1.92c-.16,0-.29-.05-.41-.16s-.17-.24-.17-.4.06-.29.17-.41.25-.17.41-.17h1.92c.37,0,.56-.19.56-.56v-.28c0-.18.06-.33.18-.45.12-.12.27-.18.45-.18s.33.06.45.18c.12.12.18.27.18.45v.28c0,.37.19.56.56.56h1.99c.16,0,.29.06.4.17s.16.25.16.41c0,.37-.19.56-.56.56h-1.99c-.37,0-.56.19-.56.56v.55c0,.37.19.56.56.56h2.55c.16,0,.29.06.41.17.11.11.17.25.17.41Z"/>
      <path class="cls-1" d="M146.04,16.94c-.37,2.14-.56,4.16-.56,6.06,0,1.33.05,2.45.15,3.35.03.21-.03.41-.18.57s-.33.25-.55.25c-.2,0-.36-.07-.5-.2-.14-.13-.22-.29-.24-.48-.09-.9-.14-2.03-.14-3.42,0-2.07.2-4.2.59-6.4.07-.4.31-.6.71-.6.22,0,.41.09.55.26s.2.37.16.59ZM154.53,25.48c0,.17-.06.32-.18.46-.12.14-.27.21-.43.23-1.21.16-2.23.24-3.04.24-2.47,0-3.71-.75-3.71-2.24,0-.42.12-.85.35-1.29.13-.25.33-.38.59-.38.46,0,.69.22.69.66,0,.09-.03.23-.08.41-.06.18-.08.33-.08.44,0,.38.23.65.69.8.39.14,1.01.21,1.86.21.69,0,1.54-.08,2.55-.24.21-.04.4.02.57.16.16.15.25.32.25.54ZM154.04,18.07c0,.18-.06.33-.17.46-.12.13-.26.21-.44.24-1.06.15-2.17.22-3.35.22-.52,0-1.09-.02-1.71-.06-.18,0-.33-.08-.46-.22s-.2-.3-.2-.48c0-.21.08-.38.23-.51s.33-.19.53-.17c.52.05,1.08.07,1.67.07,1.05,0,2.09-.08,3.09-.24.21-.04.4.01.57.15.16.14.25.32.25.53Z"/>
      <path class="cls-1" d="M87.92,36.69c0,.18-.06.33-.19.45-.13.12-.27.18-.44.18-.18,0-.33-.06-.45-.18-.13-.12-.19-.27-.19-.45v-.66c0-.33-.16-.49-.49-.49h-4.16c.16.09.4.32.71.69.1.12.15.25.15.38,0,.37-.19.56-.56.56-.14,0-.3-.08-.48-.24-.13-.14-.26-.28-.39-.42-.17-.18-.25-.35-.25-.52,0-.2.08-.35.24-.45h-3.61c-.34,0-.5.16-.5.49v.66c0,.18-.06.33-.19.45s-.27.18-.44.18c-.18,0-.33-.06-.46-.18s-.19-.27-.19-.45v-1.04c0-.77.39-1.15,1.16-1.15h.62c.25,0,.38-.06.38-.18,0-.04-.01-.08-.04-.13-.07-.08-.1-.2-.1-.34,0-.27.13-.45.38-.55l-1.22.04c-.15,0-.28-.04-.39-.15-.11-.11-.16-.24-.16-.38,0-.14.05-.26.15-.37.1-.11.22-.16.36-.16,3.58-.08,6.61-.34,9.07-.77.17-.03.32.01.45.13.13.11.2.25.2.42,0,.32-.16.5-.48.55-2.25.34-4.78.56-7.59.69.14.05.24.11.31.2l.42.57c.21.29.49.43.84.43h.5c.26,0,.39-.08.39-.24,0-.05-.01-.1-.04-.15-.08-.17-.13-.29-.13-.36,0-.17.06-.31.19-.43.13-.12.27-.18.44-.18.21,0,.39.1.55.31.04.06.15.25.34.57.19.33.46.49.83.49h.22c.38,0,.67-.15.85-.45.13-.24.26-.48.39-.71.18-.27.39-.41.63-.41.17,0,.31.06.44.18.13.12.19.27.19.45,0,.1-.04.22-.11.35l-.03.08c-.06.1-.08.19-.08.27,0,.16.11.24.34.24h.46c.77,0,1.16.38,1.16,1.15v1.04ZM87.84,43.26c0,.18-.07.32-.2.44-.14.12-.29.16-.47.13-1.69-.25-3.18-.63-4.48-1.12-.28-.1-.53-.15-.76-.15s-.49.05-.76.15c-1.33.52-2.74.91-4.21,1.15-.17.03-.32-.01-.45-.13-.14-.11-.2-.26-.2-.43,0-.33.16-.51.48-.56,1.13-.16,2.22-.4,3.28-.73.18-.06.27-.15.27-.28,0-.11-.08-.22-.22-.32-.15-.1-.3-.21-.46-.34-.21-.14-.39-.21-.53-.21-.11,0-.23.03-.35.1-.36.21-.84.45-1.44.73-.07.04-.14.06-.24.06-.35,0-.53-.18-.53-.55,0-.23.11-.4.34-.49,1.4-.6,2.64-1.32,3.71-2.16h-.32c-.35,0-.59-.07-.72-.21-.14-.14-.2-.4-.2-.78v-.95c0-.17.06-.31.17-.43s.26-.18.43-.18c.16,0,.3.06.42.18.12.12.18.26.18.43v.52c0,.19.03.31.08.38.06.07.18.1.38.1h1.69c.29,0,.49-.02.59-.07.17-.07.27-.24.31-.49.05-.29.23-.43.56-.43.17,0,.31.06.43.19s.16.28.13.46c-.08.52-.23.87-.46,1.04-.23.17-.65.26-1.27.26h-1.39c.06.11.05.22-.01.34-.02.04-.03.07-.03.11,0,.1.08.15.24.15h2.91c.62,0,.92.21.92.62,0,.28-.24.6-.71.97-.18.13-.55.36-1.11.7-.15.08-.22.18-.22.28,0,.11.09.2.28.25.99.29,2.14.52,3.46.7.34.05.5.24.5.59ZM78.99,36.96c0,.08-.01.16-.04.22-.24.55-.58,1.12-1.02,1.69-.13.17-.29.25-.48.25-.16,0-.3-.06-.41-.17s-.17-.25-.17-.41c0-.13.04-.25.13-.35.39-.46.69-.94.9-1.44.1-.24.28-.36.53-.36.16,0,.29.06.41.17s.17.25.17.41ZM83.6,40.42c.12-.08.18-.16.18-.22,0-.11-.11-.17-.32-.17h-2.7c-.28,0-.42.06-.42.17,0,.18.36.45,1.09.83.2.1.38.15.55.15s.35-.05.55-.15c.48-.24.84-.44,1.08-.6ZM87.04,38.06c0,.16-.06.29-.17.41-.12.11-.25.17-.41.17-.21,0-.38-.09-.5-.28-.21-.32-.52-.71-.92-1.19-.08-.1-.13-.22-.13-.35,0-.15.06-.28.17-.39.11-.11.24-.17.39-.17s.29.07.42.2c.4.4.75.83,1.05,1.27.07.11.11.22.11.34Z"/>
      <path class="cls-1" d="M91.09,34.31c-.12,1.14-.27,2.06-.43,2.77-.07.32-.27.48-.57.48-.17,0-.31-.06-.43-.18-.12-.12-.18-.26-.18-.42,0-.06,0-.1.01-.14.2-.67.35-1.55.48-2.63.04-.33.22-.49.56-.49.17,0,.31.06.42.18.11.12.16.27.14.43ZM92.84,43.26c0,.18-.06.33-.18.45-.12.12-.27.18-.43.18-.18,0-.33-.06-.46-.18-.13-.12-.19-.27-.19-.45v-11.2c0-.18.06-.33.19-.46s.28-.19.46-.19c.17,0,.31.06.43.19.12.13.18.28.18.46v11.2ZM102.53,36.22c0,.15-.05.28-.15.39s-.23.16-.38.16h-7.45c-.27,0-.44-.14-.52-.41h-.01c-.29,0-.47-.13-.53-.39-.21-.82-.39-1.49-.56-2-.02-.06-.03-.11-.03-.17,0-.32.16-.48.49-.48.23,0,.39.1.46.31.22.59.44,1.27.66,2.04h.01s2.53.01,2.53.01c.33,0,.49-.11.49-.32s-.16-.32-.49-.32h-1.86c-.14,0-.26-.05-.36-.15-.1-.1-.15-.22-.15-.36,0-.13.05-.25.15-.34s.22-.15.36-.15h1.86c.33,0,.49-.1.49-.31s-.16-.31-.49-.31h-2.25c-.14,0-.26-.05-.36-.15-.1-.1-.15-.22-.15-.37,0-.14.05-.26.15-.36.1-.1.22-.15.36-.15h2.18c.37,0,.56-.14.56-.41,0-.16.06-.3.18-.41s.27-.18.45-.18.33.06.45.18.18.25.18.41c0,.27.19.41.56.41h2.32c.14,0,.26.05.36.15.1.1.15.22.15.36,0,.15-.05.27-.15.37-.1.1-.22.15-.36.15h-2.39c-.33,0-.49.1-.49.31s.16.31.49.31h1.92c.14,0,.26.05.36.15.1.1.15.21.15.34,0,.14-.05.26-.15.36-.1.1-.22.15-.36.15h-1.92c-.33,0-.49.11-.49.32s.16.32.49.32h2.7c.15,0,.28.05.38.15.1.1.15.23.15.38ZM101.57,42.45c0,.46-.1.79-.29.99s-.51.3-.96.3h-1.15c-.15,0-.28-.05-.38-.15s-.15-.23-.15-.38.05-.28.15-.38c.1-.1.23-.15.38-.15h.62c.36,0,.55-.19.55-.56v-.03c0-.37-.19-.56-.56-.56h-3.11c-.37,0-.56.19-.56.56v1.18c0,.17-.06.31-.18.43s-.27.17-.43.17-.31-.06-.43-.17c-.12-.12-.18-.26-.18-.43v-4.77c0-.77.39-1.15,1.16-1.15h4.37c.77,0,1.16.38,1.16,1.15v3.96ZM100.34,38.62c0-.21-.14-.32-.42-.32h-3.39c-.28,0-.42.11-.42.32,0,.23.14.35.42.35h3.39c.28,0,.42-.12.42-.35ZM100.34,40.22c0-.24-.14-.36-.42-.36h-3.39c-.28,0-.42.12-.42.36s.14.38.42.38h3.39c.28,0,.42-.13.42-.38Z"/>
      <path class="cls-1" d="M111.57,34.91c-.68.13-1.37.24-2.07.32-.38.05-.66.15-.83.29-.17.15-.3.41-.39.77-.52,2.21-1.17,4.34-1.95,6.37-.12.31-.35.46-.69.46-.21,0-.38-.07-.52-.22s-.21-.31-.21-.51c0-.09.02-.19.06-.28.79-1.88,1.44-3.86,1.95-5.96.02-.07.03-.14.03-.21,0-.33-.2-.49-.59-.48s-.75,0-1.08,0c-.19,0-.35-.08-.48-.22-.14-.13-.2-.3-.2-.48s.07-.36.22-.5c.14-.14.31-.21.51-.2.53.02.96.02,1.29.01.52-.02.82-.27.9-.77.03-.21.07-.51.14-.92.07-.41.3-.61.71-.61.2,0,.36.07.5.21.14.14.21.3.21.49,0,.09-.04.33-.11.7,0,.07-.01.13-.01.18,0,.37.21.53.62.46.06,0,.38-.07.98-.2.45-.08.76-.13.92-.13.2,0,.36.07.48.21s.19.31.19.5c0,.38-.19.61-.57.69ZM115.99,42.28c0,.4-.2.63-.59.69-.89.13-1.82.2-2.8.2-2.48,0-3.72-.7-3.72-2.09,0-.32.08-.68.24-1.09.11-.28.32-.42.63-.42.44,0,.66.22.66.67,0,.08-.01.18-.04.31-.03.14-.04.24-.04.32,0,.63.8.95,2.39.95.7,0,1.53-.07,2.49-.21.21-.03.39.03.55.16s.24.31.24.51ZM115.6,37.07c0,.2-.08.36-.22.5-.15.14-.32.21-.52.2-1.39-.07-2.88-.04-4.47.1-.2.02-.37-.04-.51-.18-.14-.14-.22-.3-.22-.5,0-.18.06-.33.17-.45s.26-.2.43-.22c1.58-.16,3.13-.21,4.65-.17.19,0,.35.08.48.22s.2.3.2.49Z"/>
      <path class="cls-1" d="M129.57,38.2c0,1.33-.62,2.38-1.86,3.14-.92.56-2.15.94-3.68,1.15-.2.03-.37-.03-.52-.16-.15-.14-.22-.3-.22-.5,0-.16.06-.3.17-.43s.25-.2.41-.22c2.88-.38,4.31-1.38,4.31-2.98,0-1.13-.75-1.69-2.24-1.69-1.19,0-3.1.35-5.73,1.05-.07.02-.13.03-.18.03-.18,0-.34-.07-.48-.2-.14-.14-.21-.3-.21-.48,0-.35.18-.57.53-.66.91-.22,1.78-.42,2.6-.57,1.49-.29,2.66-.43,3.5-.43,1.04,0,1.87.2,2.46.6.76.5,1.13,1.29,1.13,2.37Z"/>
      <path class="cls-1" d="M135.08,37.91c-.35,1.4-.81,2.73-1.4,3.99-.14.29-.36.43-.67.43-.21,0-.38-.07-.53-.21s-.22-.31-.22-.52c0-.12.02-.23.07-.32.65-1.31,1.1-2.52,1.33-3.65.08-.39.32-.59.71-.59.2,0,.36.07.5.21.14.14.21.31.21.5,0,.07,0,.12-.01.15ZM140.84,41.26c0,.79-.28,1.38-.84,1.76-.45.31-1.01.46-1.68.46-.88,0-1.7-.26-2.48-.77-.2-.13-.29-.32-.29-.56,0-.19.06-.35.2-.48s.29-.2.48-.2c.1,0,.21.04.34.11.61.36,1.14.55,1.6.55.79,0,1.19-.33,1.19-.98,0-.34-.23-.75-.7-1.23-.3-.28-.74-.71-1.32-1.3-.47-.51-.7-1.03-.7-1.54,0-.56.32-1.18.95-1.86.13-.14.29-.21.49-.21s.34.07.47.2c.13.13.19.29.19.48,0,.17-.06.31-.17.43-.31.34-.46.63-.46.9,0,.28.24.65.71,1.12.74.72,1.18,1.17,1.32,1.34.48.6.71,1.19.71,1.79ZM140.75,33.63c0,.2-.07.36-.2.5-.14.14-.3.21-.48.21-.1,0-.2-.02-.28-.06-.95-.42-2.03-.79-3.22-1.11-.35-.09-.53-.31-.53-.66,0-.19.07-.35.2-.48.14-.13.29-.2.47-.2.25,0,.85.16,1.78.48.75.24,1.36.46,1.83.66.29.12.43.34.43.64ZM144.83,41.23c0,.21-.07.38-.22.53s-.32.22-.53.22c-.36,0-.6-.17-.71-.52-.43-1.28-1.01-2.47-1.74-3.58-.07-.11-.11-.23-.11-.36,0-.2.07-.36.2-.5.13-.14.3-.21.5-.21.27,0,.48.11.62.34.78,1.22,1.43,2.51,1.95,3.85.03.07.04.15.04.24ZM144.57,34.26c0,.41-.15.76-.45,1.06s-.65.44-1.06.44-.76-.14-1.05-.43c-.29-.29-.43-.64-.43-1.06s.14-.77.43-1.06c.28-.28.64-.43,1.06-.43s.76.15,1.06.43c.3.29.45.64.45,1.05ZM143.8,34.26c0-.2-.07-.36-.22-.5s-.32-.21-.52-.21-.38.07-.51.2c-.14.14-.2.31-.2.51s.07.38.21.52c.14.14.31.21.5.21s.38-.07.52-.22.22-.31.22-.51Z"/>
      <path class="cls-1" d="M151.65,37c-.49.83-.89,1.64-1.22,2.42-.14.34-.38.5-.71.5-.47,0-.74-.24-.81-.73-.08-.55-.13-1.38-.13-2.48s.16-2.42.48-3.93c.09-.46.34-.69.73-.69.2,0,.36.07.49.2s.2.3.2.5c0,.06,0,.11-.01.17-.34,1.54-.51,2.7-.53,3.49,0,.31.06.46.21.46.12,0,.25-.11.39-.34l.07-.11c.09-.15.23-.22.42-.22.34,0,.5.17.5.5,0,.09-.02.18-.07.25ZM156.47,37.07c0,1.58-.29,2.87-.85,3.88-.6,1.05-1.58,1.93-2.94,2.65-.1.06-.21.08-.34.08-.2,0-.36-.08-.5-.23-.14-.15-.21-.33-.21-.53,0-.26.13-.46.39-.6,1.14-.6,1.94-1.32,2.39-2.16.43-.77.64-1.82.64-3.15,0-1.2-.13-2.62-.38-4.24-.04-.21.02-.41.17-.58.15-.17.33-.26.55-.26.18,0,.33.06.47.18.14.12.22.27.25.45.24,1.75.36,3.25.36,4.51Z"/>
      <path class="cls-1" d="M172.5,37.76c0,2.85-1.44,4.59-4.33,5.22-.03,0-.08.01-.15.01-.19,0-.35-.07-.48-.2-.13-.13-.2-.29-.2-.49,0-.37.17-.6.5-.69,2.16-.54,3.23-1.84,3.23-3.89,0-1.07-.29-1.93-.87-2.58-.21-.24-.48-.46-.8-.64-.36-.21-.69-.31-.98-.31-.4,0-.64.23-.73.7-.35,2.04-.77,3.67-1.26,4.91-.31.78-.61,1.37-.91,1.76-.48.61-1.03.91-1.67.91-.85,0-1.53-.42-2.04-1.27-.45-.73-.67-1.54-.67-2.44,0-1.74.58-3.17,1.73-4.31,1.15-1.14,2.6-1.71,4.33-1.71,1.63,0,2.91.42,3.84,1.26.97.88,1.46,2.12,1.46,3.74ZM166.27,34.94c0-.06.01-.13.01-.2,0-.35-.16-.52-.48-.52-.11,0-.23.02-.36.07-.86.3-1.56.86-2.1,1.67-.54.82-.81,1.75-.81,2.81,0,.58.14,1.09.41,1.53s.57.67.91.67c.4,0,.83-.56,1.29-1.69.38-.95.76-2.4,1.13-4.34Z"/>
      <path class="cls-1" d="M187.1,34.54c0,.17-.06.31-.18.44s-.27.19-.43.19h-3.95c-.36,0-.55.12-.55.36,0,.11.04.23.13.36,1.25,1.89,2.8,3.6,4.66,5.14.16.13.24.29.24.49,0,.18-.06.33-.19.46-.13.13-.28.2-.46.2-.16,0-.3-.06-.43-.17-1.52-1.35-2.79-2.69-3.79-4.02-.11-.15-.22-.22-.34-.22-.17,0-.25.14-.25.42v4.93c0,.18-.06.33-.19.46s-.27.19-.44.19-.31-.06-.44-.19-.19-.28-.19-.46v-4.91c0-.28-.08-.42-.25-.42-.11,0-.22.08-.34.24-1.04,1.39-2.29,2.72-3.72,3.98-.13.11-.28.17-.43.17-.18,0-.33-.06-.46-.19s-.19-.28-.19-.46c0-.21.08-.37.24-.5,1.79-1.47,3.33-3.17,4.61-5.1.08-.13.13-.25.13-.36,0-.26-.18-.39-.55-.39h-3.88c-.17,0-.31-.06-.43-.19-.12-.13-.18-.27-.18-.44s.06-.31.18-.43c.12-.12.27-.18.43-.18h4.21c.42,0,.63-.21.63-.63v-1.2c0-.18.06-.33.18-.45.12-.12.27-.18.45-.18s.33.06.45.18.18.27.18.45v1.2c0,.42.21.63.63.63h4.3c.17,0,.31.06.43.18.12.12.18.27.18.43Z"/>
      <path class="cls-1" d="M63.92,53.14c0,.16-.06.29-.18.41-.12.11-.25.17-.41.17h-6.12c-.16,0-.29-.06-.41-.17s-.17-.25-.17-.41.06-.29.17-.41c.11-.11.25-.17.41-.17h.69c.35,0,.52-.14.52-.43,0-.14-.11-.59-.32-1.34-.11-.39-.34-.59-.67-.59-.16,0-.29-.06-.41-.17-.11-.11-.17-.25-.17-.41s.06-.29.17-.4c.11-.11.25-.16.41-.16h1.68c.37,0,.56-.19.56-.56v-.31c0-.18.06-.33.18-.46s.28-.19.46-.19.33.06.46.19.19.28.19.46v.31c0,.37.19.56.56.56h1.69c.37,0,.56.19.56.56,0,.16-.05.29-.16.41-.11.11-.24.17-.4.17-.26,0-.47.23-.63.7-.09.35-.18.69-.27,1.04-.02.07-.03.14-.03.2,0,.29.17.43.5.43h.55c.16,0,.3.06.41.17.12.11.18.25.18.41ZM63.12,58.21c0,.75-.37,1.12-1.12,1.12h-3.23c-.75,0-1.12-.37-1.12-1.12v-2.38c0-.75.37-1.12,1.12-1.12h3.23c.75,0,1.12.37,1.12,1.12v2.38ZM61.88,57.63v-1.26c0-.35-.18-.53-.53-.53h-1.89c-.35,0-.53.18-.53.53v1.26c0,.35.18.53.53.53h1.89c.35,0,.53-.18.53-.53ZM61.42,50.83c.02-.07.03-.13.03-.18,0-.3-.17-.45-.52-.45h-1.13c-.34,0-.5.14-.5.43,0,.06,0,.12.03.2.06.25.16.63.28,1.12.09.41.34.62.74.62.37,0,.64-.21.81-.63,0-.02.1-.39.27-1.11ZM69.15,55.84c0,1.33-.77,2.07-2.32,2.24-.19.02-.35-.04-.5-.17-.15-.13-.22-.29-.22-.48,0-.37.17-.58.52-.63.8-.09,1.2-.45,1.2-1.06,0-.52-.32-1.39-.97-2.6-.11-.21-.17-.42-.17-.6,0-.14.02-.28.07-.43l.76-2.35c.03-.09.04-.17.04-.24,0-.21-.15-.32-.45-.32h-.94c-.37,0-.56.19-.56.57v9.49c0,.17-.06.31-.18.43-.12.12-.27.18-.43.18-.18,0-.33-.06-.45-.18s-.18-.27-.18-.43v-10.09c0-.77.39-1.15,1.16-1.15h2.41c.72,0,1.08.29,1.08.88,0,.16-.03.33-.1.52l-.85,2.42c-.07.22-.11.41-.11.56,0,.22.09.49.28.8.62,1,.92,1.88.92,2.65Z"/>
      <path class="cls-1" d="M83.33,53.43c0,.17-.06.31-.18.43-.12.12-.27.18-.43.18h-2.97c-.42,0-.63.21-.63.63v3.09c0,.36.1.56.31.6.05,0,.15.01.32.01h.88c.52,0,.85-.13.98-.38.07-.15.13-.54.15-1.16,0-.17.07-.31.2-.43s.27-.18.45-.18.33.07.46.2c.13.13.19.28.18.46-.03,1.12-.19,1.85-.5,2.21s-.93.52-1.87.52h-1.5c-.56,0-.93-.09-1.12-.27-.19-.18-.28-.55-.28-1.11v-3.56c0-.42-.21-.63-.63-.63h-.53c-.4,0-.62.21-.64.62-.16,2.34-1.3,4.04-3.42,5.08-.09.05-.2.07-.32.07-.18,0-.34-.07-.48-.2-.14-.13-.21-.29-.21-.48,0-.29.13-.49.38-.62.89-.44,1.54-.95,1.97-1.55s.68-1.36.76-2.29c.04-.43-.17-.64-.62-.64h-2.49c-.17,0-.31-.06-.43-.18-.12-.12-.18-.26-.18-.43s.06-.31.18-.43c.12-.12.27-.18.43-.18h4.4c.42,0,.63-.21.63-.63v-.84c0-.42-.21-.63-.63-.63h-1.89c-.5,0-.91.19-1.2.57l-.35.45c-.11.15-.28.22-.49.22-.18,0-.33-.06-.45-.19-.12-.13-.18-.28-.18-.46,0-.17.06-.31.17-.43.7-.78,1.3-1.66,1.79-2.63.11-.22.3-.34.57-.34.19,0,.34.06.46.19.12.13.18.28.18.46,0,.08-.03.18-.08.3-.05.12-.08.21-.08.29,0,.23.17.35.5.35h1.04c.42,0,.63-.21.63-.63v-.74c0-.18.06-.33.19-.46.13-.13.28-.19.45-.19s.33.06.46.19.19.28.19.46v.74c0,.42.21.63.63.63h3.23c.17,0,.31.06.43.18.12.12.18.26.18.42,0,.17-.06.31-.18.43-.12.12-.27.18-.43.18h-3.23c-.42,0-.63.21-.63.63v.84c0,.42.21.63.63.63h4.21c.17,0,.31.06.43.18.12.12.18.27.18.43Z"/>
      <path class="cls-1" d="M97.47,58.68c0,.18-.06.33-.19.46s-.28.19-.46.19h-11.12c-.18,0-.33-.06-.45-.19-.12-.13-.18-.28-.18-.46s.06-.33.19-.46.27-.19.44-.19h4.33c.42,0,.63-.21.63-.63v-1.65c0-.42-.21-.63-.63-.63h-2.93c-.17,0-.31-.06-.43-.17-.12-.12-.18-.26-.18-.43s.06-.31.18-.43c.12-.12.26-.18.43-.18h2.93c.42,0,.63-.21.63-.63v-1.27c0-.42-.21-.63-.63-.63h-1.92c-.55,0-.97.23-1.26.7-.12.2-.31.48-.57.85-.13.19-.31.28-.53.28-.18,0-.33-.07-.46-.2-.13-.13-.2-.28-.2-.46,0-.16.04-.29.13-.41.92-1.26,1.64-2.54,2.14-3.84.1-.26.3-.39.6-.39.19,0,.34.07.47.2.13.13.19.29.19.46,0,.1-.1.37-.29.81-.05.11-.07.22-.07.32,0,.28.18.42.55.42h1.23c.42,0,.63-.21.63-.63v-1.26c0-.19.07-.35.2-.48.13-.14.3-.2.48-.2s.35.07.48.2c.13.14.2.3.2.48v1.26c0,.42.21.63.63.63h3.65c.18,0,.33.06.45.18.12.12.18.27.18.43,0,.18-.06.33-.18.45s-.27.18-.45.18h-3.65c-.42,0-.63.21-.63.63v1.27c0,.42.21.63.63.63h2.88c.17,0,.31.06.43.18s.18.26.18.43-.06.31-.18.43-.26.17-.43.17h-2.88c-.42,0-.63.21-.63.63v1.65c0,.42.21.63.63.63h4.17c.18,0,.33.06.46.19s.19.28.19.46Z"/>
      <path class="cls-1" d="M103.12,57.98c0,.57-.2,1.05-.6,1.45-.4.4-.89.59-1.46.59s-1.05-.2-1.45-.59-.6-.88-.6-1.45.2-1.05.6-1.46c.4-.4.88-.6,1.45-.6s1.05.2,1.46.6c.4.4.6.89.6,1.46ZM102.13,57.98c0-.3-.1-.55-.31-.76-.21-.21-.46-.31-.76-.31s-.54.1-.74.31c-.21.21-.31.46-.31.75s.1.53.31.74c.21.2.45.3.74.3s.55-.1.76-.29c.21-.2.31-.44.31-.74Z"/>
      <path class="cls-1" d="M125.75,57.48c-.04.82-.15,1.37-.35,1.64-.21.3-.68.45-1.39.45h-5.15c-.54,0-.9-.1-1.08-.29s-.27-.58-.27-1.15v-2.35c0-.37-.17-.56-.5-.56s-.52.18-.57.53c-.12.84-.33,1.55-.63,2.13-.32.63-.78,1.2-1.39,1.74-.13.11-.27.17-.42.17-.17,0-.31-.06-.43-.18-.12-.12-.17-.27-.17-.45,0-.19.06-.33.18-.43.94-.81,1.49-1.81,1.64-2.98.04-.33-.11-.51-.45-.55-.34-.04-.57-.14-.69-.29s-.19-.44-.19-.84v-1.76c0-.18-.13-.33-.38-.45-.2-.09-.29-.27-.29-.52,0-.17.04-.3.13-.39.86-1,1.55-2.06,2.07-3.19.1-.22.28-.34.53-.34.36,0,.56.17.6.52.03.27.14.41.34.41h1.11c.63,0,.95.25.95.74,0,.18-.07.4-.2.67-.07.16-.19.36-.34.6-.06.09-.08.18-.08.25,0,.18.12.27.36.27h.21c.77,0,1.16.38,1.16,1.15v2.04c0,.36-.05.63-.15.78-.12.2-.35.31-.68.35-.33.04-.5.21-.5.5v2.1c0,.27.04.44.13.51.08.07.25.1.5.1h4.49c.22,0,.37-.06.45-.19s.14-.4.18-.82v-.14c-.19.06-.48.08-.85.08h-.56c-.15,0-.28-.05-.39-.16-.11-.11-.17-.24-.17-.39,0-.16.06-.29.17-.4.11-.11.24-.16.39-.16h.28c.4,0,.64-.1.73-.31.07-.18.11-.69.11-1.53v-3.02c0-.39-.2-.59-.59-.59h-.21c-.36,0-.55.19-.56.56-.04,1.14-.15,2.1-.32,2.9-.24,1.09-.68,2.06-1.32,2.91-.13.18-.3.27-.52.27-.18,0-.33-.06-.46-.19s-.19-.28-.19-.45c0-.15.05-.28.14-.39.58-.71.98-1.53,1.2-2.46.17-.68.27-1.54.31-2.56.02-.38-.17-.57-.56-.57h-.64c-.16,0-.29-.06-.41-.18-.11-.12-.17-.25-.17-.41s.06-.29.17-.4c.11-.11.25-.16.41-.16h.67c.37,0,.56-.19.56-.56v-.87c0-.16.06-.3.17-.42.12-.12.26-.18.43-.18.16,0,.3.06.41.18.12.12.17.26.17.42v.87c0,.37.19.56.56.56h.7c.79,0,1.19.4,1.19,1.19v4.13c0,.92-.08,1.54-.25,1.85h.01c.18,0,.33.07.46.2s.18.29.17.47ZM116.42,53.62v-1.18c0-.33-.16-.49-.49-.49h-.34c-.38,0-.57.19-.57.56v1.04c0,.37.19.56.57.56h.35c.32,0,.48-.16.48-.49ZM117.43,49.88c.07-.11.1-.21.1-.28,0-.17-.15-.25-.46-.25h-.59c-.4,0-.71.17-.91.5-.28.45-.42.7-.42.76,0,.17.12.25.36.25h.74c.43,0,.77-.23,1.02-.7l.15-.28ZM118.9,53.55v-1.04c0-.37-.19-.56-.56-.56h-.29c-.33,0-.49.16-.49.49v1.18c0,.33.16.49.49.49h.29c.37,0,.56-.19.56-.56Z"/>
      <path class="cls-1" d="M131.67,56.63c0,1.19-.11,1.96-.34,2.34-.29.48-.92.71-1.89.71h-.62c-.17,0-.31-.06-.43-.19-.12-.13-.17-.27-.17-.44s.06-.31.17-.43.26-.18.43-.18h.6c.47,0,.76-.13.87-.41.08-.2.13-.72.13-1.57v-.77c0-.37-.19-.56-.56-.56h-1.12c-.69,0-1-.35-.92-1.04l.21-1.95c.07-.7.47-1.05,1.18-1.05h.69c.35,0,.53-.18.53-.53v-.98c0-.35-.18-.53-.53-.53h-1.61c-.16,0-.3-.06-.41-.17s-.17-.26-.17-.43.06-.31.17-.43.25-.18.41-.18h2.25c.75,0,1.12.37,1.12,1.12v2.1c0,.75-.37,1.12-1.12,1.12h-.76c-.35,0-.54.17-.57.52l-.08.71c0,.08-.01.15-.01.21,0,.25.17.38.52.38h.88c.77,0,1.16.38,1.16,1.15v1.46ZM139.97,59.03c0,.18-.07.33-.2.46-.13.13-.28.19-.46.19-.28,0-.48-.14-.59-.42-.02-.05-.03-.07-.03-.08-.11-.23-.29-.35-.53-.35-.06,0-.11,0-.17.01-1.54.3-3.27.54-5.18.73-.19.02-.35-.03-.48-.15-.14-.12-.2-.28-.2-.46,0-.16.06-.3.17-.43.11-.13.25-.19.41-.2.46-.03,1.12-.09,2-.18.35-.04.52-.23.52-.59v-1.11c0-.37-.19-.56-.56-.56h-1.11c-.75,0-1.12-.37-1.12-1.12v-1.5c0-.75.37-1.12,1.12-1.12h1.11c.37,0,.56-.18.56-.53s-.19-.52-.57-.49l-1.86.13c-.17,0-.31-.04-.44-.16-.13-.12-.19-.26-.19-.43,0-.3.15-.49.46-.56.42-.1.69-.28.83-.52.32-.57.58-1.13.8-1.68.1-.26.3-.39.59-.39.19,0,.34.06.46.18.12.12.17.27.17.45,0,.1-.02.2-.06.28-.15.33-.32.65-.5.98-.06.1-.08.2-.08.28,0,.21.14.3.43.28.55-.04,1.05-.08,1.51-.14.25-.03.38-.13.38-.31,0-.1-.04-.21-.13-.32l-.04-.06c-.08-.11-.13-.23-.13-.36,0-.16.06-.3.17-.41.12-.12.25-.17.41-.17.19,0,.34.07.46.21.61.67,1.11,1.31,1.5,1.92.08.11.11.23.11.35,0,.19-.07.34-.2.47s-.28.19-.46.19c-.16,0-.29-.06-.41-.17-.26-.27-.53-.39-.81-.35l-.63.08c-.35.05-.52.24-.52.59v.11c0,.37.19.56.56.56h1.2c.75,0,1.12.37,1.12,1.12v1.5c0,.75-.37,1.12-1.12,1.12h-1.2c-.37,0-.56.19-.56.56v.85c0,.42.2.59.6.52.21-.04.49-.09.87-.15-.08-.1-.18-.24-.28-.42-.05-.08-.07-.18-.07-.28,0-.16.06-.3.17-.41.12-.12.25-.17.41-.17.21,0,.38.09.5.27.48.72.88,1.42,1.2,2.11.05.1.07.2.07.28ZM135.23,54.36v-.7c0-.33-.16-.49-.49-.49h-.6c-.35,0-.53.18-.53.53v.62c0,.35.18.53.53.53h.6c.33,0,.49-.16.49-.49ZM138.15,54.32v-.62c0-.35-.18-.53-.53-.53h-.64c-.33,0-.49.16-.49.49v.7c0,.33.16.49.49.49h.64c.35,0,.53-.18.53-.53Z"/>
      <path class="cls-1" d="M153.5,53.76c0,2.85-1.44,4.59-4.33,5.22-.03,0-.08.01-.15.01-.19,0-.35-.07-.48-.2-.13-.13-.2-.29-.2-.49,0-.37.17-.6.5-.69,2.16-.54,3.23-1.84,3.23-3.89,0-1.07-.29-1.93-.87-2.58-.21-.24-.48-.46-.8-.64-.36-.21-.69-.31-.98-.31-.4,0-.64.23-.73.7-.35,2.04-.77,3.67-1.26,4.91-.31.78-.61,1.37-.91,1.76-.48.61-1.03.91-1.67.91-.85,0-1.53-.42-2.04-1.27-.45-.73-.67-1.54-.67-2.44,0-1.74.58-3.17,1.73-4.31,1.15-1.14,2.6-1.71,4.33-1.71,1.63,0,2.91.42,3.84,1.26.97.88,1.46,2.12,1.46,3.74ZM147.27,50.94c0-.06.01-.13.01-.2,0-.35-.16-.52-.48-.52-.11,0-.23.02-.36.07-.86.3-1.56.86-2.1,1.67-.54.82-.81,1.75-.81,2.81,0,.58.14,1.09.41,1.53s.57.67.91.67c.4,0,.83-.56,1.29-1.69.38-.95.76-2.4,1.13-4.34Z"/>
      <path class="cls-1" d="M167.02,57.72c0,.4-.19.63-.57.7-1.53.27-2.95.41-4.27.41s-2.34-.11-3.11-.32c-1.25-.35-1.88-1.03-1.88-2.03,0-.68.44-1.47,1.33-2.35.12-.12.27-.18.46-.18.18,0,.33.06.46.19s.2.28.2.46c0,.16-.06.3-.18.43-.5.52-.76.96-.76,1.3,0,.77,1.19,1.16,3.56,1.16,1.13,0,2.45-.14,3.95-.43.21-.04.39.01.56.15.17.14.25.31.25.53ZM165.49,50.48c-.78.31-1.74.83-2.86,1.55-.11.07-.22.11-.32.11-.16,0-.3-.06-.41-.17-.12-.12-.17-.26-.17-.43,0-.21.09-.38.28-.49l.18-.11c.18-.1.27-.21.27-.31,0-.12-.14-.18-.41-.18-1.03.02-2.17,0-3.44-.08-.18,0-.33-.08-.46-.21s-.19-.28-.19-.46c0-.2.07-.36.22-.5.15-.14.32-.2.51-.19,2.23.13,4.4.14,6.5.04.27,0,.49.06.65.2s.25.31.25.5c0,.33-.2.57-.59.73Z"/>
      <path class="cls-1" d="M180.89,58.08c0,.4-.2.63-.6.69-1.54.21-3.08.32-4.62.32-2.74,0-4.12-.83-4.12-2.48,0-1.01.71-2.05,2.11-3.14.28-.21.42-.46.42-.74,0-.13-.03-.27-.08-.42-.41-1.04-.75-2.15-1.02-3.35,0-.05-.01-.1-.01-.15,0-.21.07-.38.22-.52.14-.14.32-.22.53-.22.18,0,.33.06.47.18.14.12.22.27.26.45.18.93.43,1.87.77,2.81.11.31.29.46.53.46.13,0,.27-.04.41-.13.08-.05,1.12-.61,3.09-1.69.12-.07.23-.1.34-.1.2,0,.36.07.5.21.13.14.2.31.2.5,0,.29-.13.5-.39.63-1.15.57-2.39,1.24-3.72,2.02-.85.5-1.53.96-2.03,1.39-.73.63-1.09,1.19-1.09,1.71,0,.84.88,1.26,2.63,1.26,1.45,0,2.92-.13,4.41-.38.21-.04.39.01.56.15.17.14.25.32.25.53Z"/>
      <path class="cls-1" d="M196.35,52.55c0,1.07-.37,1.88-1.11,2.42-.64.49-1.52.73-2.63.73-.12,0-.41-.01-.87-.04-.17,0-.31-.08-.43-.21s-.18-.28-.18-.45c0-.19.07-.34.21-.47.14-.13.3-.18.49-.18.44.02.67.03.7.03,1.6,0,2.39-.6,2.39-1.81,0-.43-.15-.76-.46-1-.31-.24-.71-.36-1.2-.36-.61,0-1.42.17-2.45.52l-1.33.45c-.33.11-.49.3-.49.57,0,.09.02.2.07.32.71,1.81,1.39,3.69,2.04,5.64.03.08.04.16.04.24,0,.2-.07.36-.21.5-.14.14-.31.21-.5.21-.36,0-.59-.17-.7-.5-.64-2.02-1.31-3.92-1.99-5.68-.12-.32-.32-.48-.6-.48-.09,0-.19.02-.29.06l-1.86.63c-.08.03-.15.04-.21.04-.18,0-.33-.07-.47-.2-.14-.13-.2-.29-.2-.48,0-.34.15-.55.46-.64l1.72-.55c.33-.1.49-.28.49-.55,0-.11-.03-.23-.08-.35,0-.03-.24-.56-.69-1.61-.04-.08-.06-.18-.06-.28,0-.2.07-.37.21-.51.14-.14.31-.22.5-.22.32,0,.54.15.67.44s.36.85.69,1.66c.17.39.4.59.69.59.14,0,.75-.19,1.83-.56,1.16-.4,2.11-.6,2.87-.6.85,0,1.54.23,2.07.69.58.49.87,1.14.87,1.97ZM191.88,49.26c0,.18-.06.33-.19.46s-.28.2-.47.2c-.12,0-.24-.04-.35-.11-.42-.28-.94-.57-1.55-.88-.23-.12-.35-.31-.35-.57,0-.18.06-.33.18-.46s.27-.19.45-.19c.1,0,.2.02.29.07.5.24,1.06.55,1.67.91.21.13.32.32.32.57Z"/>
      <path class="cls-1" d="M203.84,55.44c0,.16-.06.3-.17.42-.12.12-.26.18-.43.18-.16,0-.34-.09-.55-.27-.15-.16-.3-.31-.45-.46-.12-.12-.23-.18-.34-.18-.18,0-.27.14-.27.42v3.7c0,.17-.06.31-.18.43s-.27.18-.43.18-.31-.06-.43-.18c-.12-.12-.17-.26-.17-.43v-3.42c0-.28-.08-.42-.25-.42-.1,0-.21.06-.34.18-.18.18-.44.42-.78.73-.11.1-.25.15-.42.15s-.31-.06-.43-.18c-.12-.12-.18-.27-.18-.43,0-.19.08-.35.22-.48,1.63-1.41,2.77-2.75,3.42-4.02.09-.18.14-.31.14-.41,0-.17-.17-.25-.52-.25h-2.48c-.16,0-.29-.06-.4-.17-.11-.11-.16-.25-.16-.41,0-.37.19-.56.56-.56h.9c.37,0,.56-.19.56-.56v-.97c0-.17.06-.31.18-.43.12-.12.27-.18.43-.18s.31.06.43.18c.12.12.18.27.18.43v.97c0,.37.19.56.56.56h.24c.71,0,1.06.27,1.06.81,0,.18-.05.37-.15.59-.27.57-.58,1.11-.92,1.61-.14.21-.21.4-.21.59,0,.21.09.41.28.6.29.3.72.7,1.29,1.2.14.12.21.28.21.46ZM210.81,58.67c0,.18-.06.33-.19.46s-.27.19-.44.19h-6.24c-.17,0-.32-.06-.44-.19s-.19-.28-.19-.46c0-.17.06-.31.19-.44s.27-.19.44-.19h1.79c.47,0,.7-.23.7-.7v-3.98c0-.47-.23-.7-.7-.7h-1.47c-.17,0-.31-.06-.44-.18-.13-.12-.19-.27-.19-.45,0-.17.06-.31.19-.44.13-.13.27-.19.44-.19h1.47c.47,0,.7-.23.7-.7v-2.41c0-.18.06-.33.19-.46s.28-.19.46-.19.33.06.46.19.19.28.19.46v2.41c0,.47.23.7.7.7h1.48c.17,0,.31.06.44.19.13.13.19.27.19.44,0,.18-.06.33-.19.45-.13.12-.27.18-.44.18h-1.48c-.47,0-.7.23-.7.7v3.98c0,.47.23.7.7.7h1.76c.17,0,.32.06.44.19s.19.27.19.44Z"/>
      <path class="cls-1" d="M56.87,68.02c0,.18-.06.33-.19.46s-.27.19-.44.19c-.1,0-.2-.02-.29-.07-1.95-.99-3.58-2.14-4.9-3.46-.19-.19-.39-.28-.6-.28s-.44.11-.66.32c-1.2,1.21-2.77,2.35-4.69,3.42-.08.05-.19.07-.31.07-.18,0-.33-.06-.45-.18-.12-.12-.18-.27-.18-.43,0-.25.11-.44.34-.56,1.81-.97,3.34-2.09,4.58-3.37.41-.42.87-.63,1.37-.63.48,0,.9.19,1.27.56,1.33,1.32,2.94,2.45,4.8,3.4.23.12.35.31.35.57ZM56.4,70.37c0,.17-.06.31-.18.43s-.26.18-.43.18h-5.03c-.52,0-.91.24-1.15.71-.21.42-.54,1.01-.98,1.76-.07.12-.1.23-.1.32,0,.25.17.36.5.34.88-.08,1.95-.21,3.22-.38.29-.04.43-.16.43-.36,0-.11-.06-.23-.17-.36l-.39-.43c-.1-.11-.15-.25-.15-.41s.06-.3.17-.42c.12-.12.26-.18.43-.18.18,0,.34.08.49.24.82.87,1.65,1.82,2.49,2.84.09.11.14.25.14.41,0,.18-.06.33-.19.46s-.28.2-.46.2c-.27,0-.5-.16-.69-.48-.26-.35-.59-.52-.98-.52-.08,0-.18,0-.28.03-2.3.37-4.78.68-7.45.91-.19.02-.35-.04-.48-.17-.14-.13-.2-.29-.2-.48,0-.17.06-.31.17-.44s.26-.19.43-.2c.4,0,.69-.05.85-.11.25-.09.47-.29.66-.59.38-.63.76-1.3,1.12-2.03.06-.1.08-.2.08-.29,0-.24-.17-.36-.5-.36h-2.6c-.17,0-.31-.06-.43-.18s-.17-.27-.17-.43c0-.16.06-.3.17-.42s.26-.18.43-.18h10.6c.17,0,.31.06.43.18s.18.26.18.42ZM53.79,67.78c0,.16-.06.3-.18.41-.12.12-.25.18-.41.18h-5.46c-.16,0-.3-.06-.41-.18-.12-.12-.17-.25-.17-.41s.06-.3.17-.41.25-.18.41-.18h5.46c.16,0,.3.06.41.18s.18.25.18.41Z"/>
      <path class="cls-1" d="M70.31,69.76c0,2.85-1.44,4.59-4.33,5.22-.03,0-.08.01-.15.01-.19,0-.35-.07-.48-.2-.14-.13-.2-.29-.2-.49,0-.37.17-.6.5-.69,2.16-.54,3.23-1.84,3.23-3.89,0-1.07-.29-1.93-.87-2.58-.21-.24-.48-.46-.8-.64-.36-.21-.69-.31-.98-.31-.4,0-.64.23-.73.7-.35,2.04-.77,3.67-1.26,4.91-.31.78-.61,1.37-.91,1.76-.48.61-1.03.91-1.67.91-.85,0-1.53-.42-2.04-1.27-.45-.73-.67-1.54-.67-2.44,0-1.74.58-3.17,1.73-4.31,1.15-1.14,2.6-1.71,4.33-1.71,1.63,0,2.91.42,3.84,1.26.97.88,1.46,2.12,1.46,3.74ZM64.08,66.94c0-.06.01-.13.01-.2,0-.35-.16-.52-.48-.52-.11,0-.23.02-.36.07-.86.3-1.56.86-2.1,1.67-.54.82-.81,1.75-.81,2.81,0,.58.14,1.09.41,1.53.27.44.57.67.91.67.4,0,.83-.56,1.29-1.69.38-.95.76-2.4,1.13-4.34Z"/>
      <path class="cls-1" d="M83.84,73.72c0,.4-.19.63-.57.7-1.53.27-2.95.41-4.27.41s-2.34-.11-3.11-.32c-1.25-.35-1.88-1.03-1.88-2.03,0-.68.44-1.47,1.33-2.35.12-.12.28-.18.46-.18.18,0,.33.06.46.19.13.13.2.28.2.46,0,.16-.06.3-.18.43-.5.52-.76.96-.76,1.3,0,.77,1.19,1.16,3.56,1.16,1.13,0,2.45-.14,3.95-.43.21-.04.39.01.56.15.17.14.25.31.25.53ZM82.31,66.48c-.78.31-1.74.83-2.86,1.55-.11.07-.22.11-.32.11-.16,0-.3-.06-.41-.17-.12-.12-.18-.26-.18-.43,0-.21.09-.38.28-.49l.18-.11c.18-.1.27-.21.27-.31,0-.12-.14-.18-.41-.18-1.03.02-2.17,0-3.44-.08-.18,0-.33-.08-.45-.21s-.19-.28-.19-.46c0-.2.07-.36.22-.5.14-.14.31-.2.51-.19,2.23.13,4.4.14,6.5.04.27,0,.49.06.65.2.16.14.25.31.25.5,0,.33-.2.57-.59.73Z"/>
      <path class="cls-1" d="M97.71,74.08c0,.4-.2.63-.6.69-1.54.21-3.08.32-4.62.32-2.74,0-4.12-.83-4.12-2.48,0-1.01.7-2.05,2.11-3.14.28-.21.42-.46.42-.74,0-.13-.03-.27-.08-.42-.41-1.04-.75-2.15-1.02-3.35,0-.05-.01-.1-.01-.15,0-.21.07-.38.22-.52s.32-.22.52-.22c.18,0,.33.06.47.18.14.12.22.27.26.45.18.93.43,1.87.77,2.81.11.31.29.46.53.46.13,0,.27-.04.41-.13.08-.05,1.12-.61,3.09-1.69.12-.07.23-.1.34-.1.2,0,.36.07.5.21s.2.31.2.5c0,.29-.13.5-.39.63-1.15.57-2.39,1.24-3.72,2.02-.85.5-1.53.96-2.03,1.39-.73.63-1.09,1.19-1.09,1.71,0,.84.88,1.26,2.63,1.26,1.45,0,2.92-.13,4.41-.38.21-.04.39.01.56.15.17.14.25.32.25.53Z"/>
      <path class="cls-1" d="M104.47,74.89c0,.22-.07.41-.22.56-.15.15-.34.22-.56.22-.24,0-.44-.09-.6-.28-.55-.66-1.11-1.23-1.67-1.71-.18-.15-.27-.34-.27-.56s.07-.39.22-.54.32-.22.54-.22c.19,0,.35.06.49.18.78.68,1.41,1.28,1.88,1.81.13.14.2.32.2.53Z"/>
      <path class="cls-1" d="M127.31,75.02c0,.2-.07.36-.2.5s-.3.2-.5.2c-.13,0-.26-.04-.39-.13-2.01-1.33-3.45-2.97-4.34-4.9-.21-.44-.39-.66-.56-.66-.18,0-.37.21-.57.64-.85,1.77-2.31,3.42-4.38,4.93-.13.09-.27.14-.41.14-.19,0-.35-.07-.49-.21s-.21-.3-.21-.49c0-.24.1-.43.29-.57,3.3-2.32,4.96-5.1,4.96-8.32v-1.85c0-.21.07-.38.21-.52s.31-.21.52-.21.38.07.52.22c.14.15.22.32.22.51v1.58c0,1.62.49,3.24,1.47,4.86.94,1.55,2.12,2.77,3.54,3.67.21.13.32.33.32.6Z"/>
      <path class="cls-1" d="M134.64,67.36c0,.75-.37,1.12-1.12,1.12h-2.13c-.37,0-.56.19-.56.56v6.15c0,.18-.07.33-.2.46-.13.13-.28.19-.46.19s-.33-.06-.46-.19c-.13-.13-.2-.28-.2-.46v-10.21c0-.75.37-1.12,1.12-1.12h2.88c.75,0,1.12.37,1.12,1.12v2.38ZM133.38,65.3c0-.26-.13-.39-.39-.39h-1.76c-.26,0-.39.13-.39.39s.14.41.42.41h1.71c.28,0,.42-.14.42-.41ZM133.38,67.08h0c0-.29-.14-.43-.42-.43h-1.71c-.28,0-.42.14-.42.41s.14.42.42.42h1.74c.26,0,.39-.13.39-.39ZM138.03,73.28c0,.75-.37,1.12-1.12,1.12h-3.23c-.75,0-1.12-.37-1.12-1.12v-2.84c0-.75.37-1.12,1.12-1.12h3.23c.75,0,1.12.37,1.12,1.12v2.84ZM136.85,70.95v-.17c0-.31-.18-.46-.53-.46h-2.04c-.35,0-.53.15-.53.46v.17c0,.28.14.42.42.42h2.27c.28,0,.42-.14.42-.42ZM136.85,72.89v-.21c0-.28-.14-.42-.42-.42h-2.27c-.28,0-.42.14-.42.42v.21c0,.31.18.46.53.46h2.04c.35,0,.53-.15.53-.46ZM141.14,73.87c0,.71-.11,1.19-.34,1.44-.23.25-.68.37-1.35.37h-1.2c-.16,0-.3-.06-.41-.18-.12-.12-.17-.25-.17-.41,0-.17.06-.31.17-.43.12-.12.25-.18.41-.18h.73c.34,0,.56-.05.68-.16.12-.11.17-.34.17-.69v-4.59c0-.37-.19-.56-.56-.56h-2.21c-.75,0-1.12-.37-1.12-1.12v-2.38c0-.75.37-1.12,1.12-1.12h2.97c.75,0,1.12.37,1.12,1.12v8.89ZM139.82,65.3c0-.26-.13-.39-.39-.39h-1.85c-.26,0-.39.13-.39.39s.14.41.42.41h1.79c.28,0,.42-.14.42-.41ZM139.82,67.05c0-.27-.14-.41-.42-.41h-1.79c-.28,0-.42.14-.42.42h0c0,.28.13.41.39.41h1.82c.28,0,.42-.14.42-.42Z"/>
      <path class="cls-1" d="M146.52,64.94c-.37,2.14-.56,4.16-.56,6.06,0,1.33.05,2.45.15,3.35.03.21-.03.41-.18.57s-.33.25-.55.25c-.2,0-.36-.07-.5-.2-.14-.13-.22-.29-.24-.48-.09-.9-.14-2.03-.14-3.42,0-2.07.2-4.2.59-6.4.07-.4.31-.6.71-.6.22,0,.41.09.55.26s.2.37.16.59ZM155.01,73.48c0,.17-.06.32-.18.46-.12.14-.27.21-.43.23-1.21.16-2.23.24-3.04.24-2.47,0-3.71-.75-3.71-2.24,0-.42.12-.85.35-1.29.13-.25.33-.38.59-.38.46,0,.69.22.69.66,0,.09-.03.23-.08.41-.06.18-.08.33-.08.44,0,.38.23.65.69.8.39.14,1.01.21,1.86.21.69,0,1.54-.08,2.55-.24.21-.04.4.02.57.16.16.15.25.32.25.54ZM154.52,66.07c0,.18-.06.33-.17.46-.12.13-.26.21-.44.24-1.06.15-2.17.22-3.35.22-.52,0-1.09-.02-1.71-.06-.18,0-.33-.08-.46-.22s-.2-.3-.2-.48c0-.21.08-.38.23-.51s.33-.19.53-.17c.52.05,1.08.07,1.67.07,1.05,0,2.09-.08,3.09-.24.21-.04.4.01.57.15.16.14.25.32.25.53Z"/>
      <path class="cls-1" d="M169.57,69.2c0,1.53-.72,2.73-2.16,3.58-1.06.64-2.47,1.08-4.23,1.3-.21.03-.39-.03-.55-.17-.16-.14-.24-.31-.24-.52,0-.18.06-.33.18-.47.12-.14.27-.21.43-.23,3.35-.43,5.03-1.6,5.03-3.5,0-1.34-.88-2.02-2.65-2.02-1.38,0-3.59.4-6.64,1.2-.07.02-.13.03-.2.03-.2,0-.37-.07-.51-.21-.15-.14-.22-.31-.22-.52,0-.38.19-.62.56-.71,3.25-.77,5.59-1.16,7.04-1.16,1.18,0,2.11.23,2.8.69.89.59,1.33,1.49,1.33,2.7Z"/>
      <path class="cls-1" d="M177.6,72.42c-.82,1.61-1.61,2.42-2.37,2.42-.93,0-1.66-.83-2.17-2.49-.4-1.29-.6-2.75-.6-4.38,0-.84.03-1.56.08-2.17.02-.2.1-.36.23-.49.13-.13.3-.2.5-.2.21,0,.39.08.54.25.14.16.21.35.19.57-.07.63-.1,1.35-.1,2.17,0,1.07.12,2.14.35,3.19.26,1.17.61,1.75,1.04,1.75.31,0,.66-.42,1.05-1.26.12-.25.33-.38.63-.38.2,0,.36.07.5.2s.2.3.2.5c0,.12-.02.23-.07.32ZM183.66,71.98c.03.22-.03.42-.18.6s-.34.27-.57.27c-.2,0-.37-.07-.52-.2-.15-.13-.23-.29-.25-.48-.23-2.12-.92-4-2.06-5.66-.08-.12-.13-.26-.13-.41,0-.21.07-.38.21-.52.14-.14.31-.21.52-.21.25,0,.45.1.6.31,1.29,1.79,2.08,3.89,2.38,6.29Z"/>
      <path class="cls-1" d="M197.55,65.43c0,.37-.25.6-.76.67-1.41.21-2.66.8-3.75,1.74-1.09.95-1.64,1.94-1.64,2.99,0,1.47,1.21,2.43,3.63,2.9.4.07.6.31.6.71,0,.22-.09.41-.26.56-.17.15-.37.21-.59.17-1.35-.23-2.44-.65-3.26-1.26-1.03-.75-1.54-1.74-1.54-2.97,0-.99.34-1.9,1.02-2.74.27-.34.57-.64.9-.91.28-.23.42-.43.42-.6,0-.22-.24-.32-.71-.28-1.46.13-3.01.29-4.66.49-.21.03-.38-.03-.53-.17s-.22-.31-.22-.52c0-.18.06-.33.17-.46.12-.13.26-.21.44-.22,1.69-.17,4.99-.42,9.9-.76.25-.02.46.04.62.16.16.13.24.29.24.5Z"/>
      <path class="cls-1" d="M204.42,70.34c0,.15-.06.28-.17.38-.11.1-.24.15-.39.15-.19,0-.32-.06-.39-.17-.11-.16-.23-.35-.35-.59-.07-.11-.13-.17-.2-.17-.09,0-.14.08-.14.24v5.21c0,.16-.06.3-.17.41s-.25.17-.41.17c-.17,0-.31-.06-.43-.17-.12-.12-.17-.25-.17-.41v-4.72c0-.15-.04-.22-.11-.22-.07,0-.13.06-.18.18-.15.33-.35.73-.6,1.2-.11.21-.28.31-.52.31-.16,0-.29-.06-.41-.17-.11-.11-.17-.25-.17-.41,0-.1.03-.21.08-.31.85-1.49,1.45-2.72,1.79-3.68.05-.12.07-.22.07-.29,0-.22-.17-.34-.52-.34h-.71c-.16,0-.29-.06-.41-.17-.11-.11-.17-.25-.17-.41s.06-.29.17-.4c.11-.11.25-.16.41-.16h.71c.37,0,.56-.19.56-.56v-1.23c0-.16.06-.3.17-.41.12-.12.26-.18.43-.18.16,0,.29.06.41.18s.17.25.17.41v1.23c0,.37.19.56.56.56h.52c.37,0,.56.19.56.56,0,.16-.05.29-.16.41-.11.11-.24.17-.4.17h-.59c-.3,0-.45.13-.45.39,0,.13.04.27.11.42.34.72.8,1.47,1.37,2.25.07.1.11.21.11.32ZM207.01,72.88c0,.17-.06.3-.18.41-.64.56-1.3,1.06-1.97,1.5-.11.07-.22.11-.34.11-.16,0-.3-.06-.41-.17-.12-.12-.17-.25-.17-.41,0-.22.09-.39.28-.5.78-.48,1.41-.92,1.89-1.34.11-.09.23-.14.36-.14.36,0,.55.19.55.56ZM212.46,69.15c0,.14-.05.26-.16.36s-.23.15-.37.15h-2.56c-.33,0-.49.12-.49.36,0,.17.13.48.39.94.11.2.25.29.42.29.12,0,.24-.06.36-.17.26-.24.49-.48.69-.71.11-.13.26-.2.43-.2.16,0,.29.06.4.17.11.11.16.25.16.41,0,.15-.05.28-.15.39-.29.32-.57.6-.85.84-.16.13-.24.27-.24.42,0,.12.06.24.18.36.38.38.81.76,1.29,1.12.16.12.24.28.24.48,0,.18-.06.33-.18.45-.12.12-.27.18-.43.18-.14,0-.27-.05-.39-.15-.82-.68-1.46-1.33-1.9-1.96-.1-.14-.2-.21-.29-.21-.12,0-.18.12-.18.35v1.5c0,.47-.09.79-.27.96-.18.17-.5.26-.98.26h-.9c-.15,0-.28-.05-.38-.16s-.16-.24-.16-.38.05-.28.16-.39c.11-.11.24-.16.38-.16h.42c.22,0,.36-.03.42-.1.06-.07.08-.22.08-.46v-3.79c0-.42-.21-.63-.63-.63h-2.38c-.14,0-.26-.05-.36-.15s-.15-.22-.15-.36.05-.26.15-.36c.1-.1.22-.15.36-.15h2.52c.33,0,.49-.15.49-.45s-.16-.43-.49-.43h-1.82c-.13,0-.25-.05-.34-.14-.1-.09-.15-.21-.15-.34s.05-.25.15-.34c.1-.1.21-.15.34-.15h1.82c.33,0,.49-.15.49-.43s-.16-.42-.49-.42h-2.28c-.14,0-.26-.05-.36-.15-.1-.1-.15-.22-.15-.36s.05-.26.15-.36c.1-.1.22-.15.36-.15h.78c.26,0,.39-.08.39-.25,0-.06-.01-.11-.04-.17-.09-.18-.14-.32-.14-.42,0-.16.06-.29.17-.41.11-.11.25-.17.41-.17.21,0,.38.1.52.29.05.07.14.27.28.57.17.36.44.55.81.55h.49c.39,0,.67-.16.84-.49.1-.21.2-.42.29-.64s.26-.33.52-.33c.38,0,.57.19.57.56,0,.07-.03.18-.08.31-.06.14-.08.24-.08.31,0,.18.12.27.35.27h.83c.14,0,.26.05.36.15.1.1.15.22.15.36s-.05.26-.15.36c-.1.1-.22.15-.36.15h-2.42c-.33,0-.49.14-.49.42s.16.43.49.43h1.89c.13,0,.25.05.34.15.1.1.15.21.15.34s-.05.24-.15.34c-.1.09-.21.14-.34.14h-1.89c-.33,0-.49.15-.49.43s.16.45.49.45h2.63c.14,0,.26.05.37.15.11.1.16.22.16.36ZM206.91,71.56c0,.17-.06.31-.17.42-.11.11-.25.17-.42.17-.16,0-.29-.05-.39-.15-.25-.25-.56-.52-.92-.81-.16-.12-.24-.28-.24-.46,0-.16.06-.29.17-.41.12-.11.25-.17.41-.17.12,0,.23.04.34.11.34.25.69.55,1.04.88.12.12.18.26.18.42Z"/>
      <path class="cls-1" d="M224.82,67.61c0,.23-.09.5-.27.8-.71,1.19-1.54,2.35-2.49,3.5-.13.16-.2.32-.2.48,0,.19.13.39.39.62.19.14.37.28.55.42.21.18.32.36.32.56s-.07.35-.2.48c-.13.13-.29.2-.48.2-.16,0-.3-.06-.43-.17-1.08-.91-2.22-1.77-3.4-2.58-.18-.12-.27-.3-.27-.53,0-.18.06-.33.18-.45.12-.12.27-.18.45-.18.15,0,.27.03.36.1l.7.49c.15.1.3.15.45.15.2,0,.37-.09.53-.28.71-.86,1.28-1.65,1.71-2.38.11-.19.17-.35.17-.48,0-.21-.23-.32-.69-.32h-2.42c-.57,0-1.02.23-1.36.7-.58.8-1.32,1.69-2.23,2.65-.14.15-.31.22-.5.22s-.35-.06-.48-.2-.2-.29-.2-.48.06-.33.18-.46c1.67-1.76,3-3.58,3.98-5.46.13-.24.33-.36.59-.36.19,0,.34.06.48.19s.2.28.2.47c0,.14-.11.41-.34.81-.07.11-.1.22-.1.32,0,.23.16.35.48.35h3.18c.77,0,1.15.28,1.15.83Z"/>
      <path class="cls-1" d="M42.41,82.87c-.48.1-.94.19-1.39.25-.52.08-.87.37-1.05.87-.65,1.88-1.4,3.66-2.23,5.35-.13.27-.35.41-.64.41-.2,0-.36-.07-.5-.21-.14-.14-.21-.31-.21-.5,0-.11.03-.22.08-.34.78-1.51,1.46-3.04,2.03-4.59.04-.1.06-.19.06-.27,0-.29-.2-.43-.59-.43h-.8c-.19,0-.35-.07-.48-.2-.13-.13-.2-.3-.2-.48,0-.2.07-.36.21-.5s.31-.2.5-.19c.41.02.79.02,1.15.01.57,0,.92-.29,1.06-.85.07-.32.15-.63.24-.95.14-.35.37-.53.69-.53.2,0,.36.07.5.21s.21.3.21.49c0,.07-.05.28-.14.6-.03.11-.04.21-.04.29,0,.28.13.42.38.42.05,0,.1,0,.15-.01l.73-.15c.08-.02.14-.03.17-.03.19,0,.34.07.46.2.12.14.17.3.17.5,0,.35-.18.57-.53.64ZM47.72,89.8c0,.19-.07.35-.2.49-.14.14-.3.21-.5.21-.12,0-.25-.04-.38-.13-.31-.21-.63-.4-.98-.59-.11-.06-.21-.1-.31-.1-.22,0-.38.16-.48.49-.27.94-1.1,1.41-2.49,1.41-.74,0-1.35-.16-1.85-.48-.59-.36-.88-.9-.88-1.6s.28-1.22.83-1.58c.48-.32,1.08-.48,1.81-.48.21,0,.44.02.7.06.21.03.38,0,.5-.1.12-.09.17-.25.17-.48v-2.04c-.01-.19.05-.35.18-.48.13-.14.29-.2.48-.2s.35.07.48.2c.13.13.2.29.2.48v2.35c.01.51.27.89.78,1.12.45.21.98.49,1.6.85.23.14.35.34.35.59ZM43.64,89.41c0-.39-.22-.62-.67-.7-.27-.05-.51-.07-.71-.07-.85,0-1.27.3-1.27.9,0,.27.11.48.34.64.23.15.53.23.89.23.65,0,1.08-.16,1.27-.48.1-.17.15-.34.15-.52ZM47.84,83.56c0,.19-.07.35-.2.48-.14.13-.3.2-.48.2-.13,0-.26-.04-.38-.13-.71-.48-1.46-.88-2.25-1.22-.26-.11-.39-.32-.39-.62,0-.19.07-.35.2-.48s.29-.2.47-.2c.1,0,.19.02.25.06.88.37,1.7.81,2.46,1.3.21.14.32.34.32.59Z"/>
      <path class="cls-1" d="M61.09,89.72c0,.4-.19.63-.57.7-1.53.27-2.95.41-4.27.41s-2.34-.11-3.11-.32c-1.25-.36-1.88-1.03-1.88-2.03,0-.68.44-1.46,1.33-2.35.12-.12.28-.18.46-.18.18,0,.33.06.46.19.13.13.2.28.2.46,0,.16-.06.3-.18.43-.5.52-.76.96-.76,1.3,0,.78,1.19,1.16,3.56,1.16,1.13,0,2.45-.14,3.95-.43.21-.04.39.01.56.15.17.14.25.31.25.53ZM59.56,82.48c-.78.31-1.74.83-2.86,1.55-.11.08-.22.11-.32.11-.16,0-.3-.06-.41-.17s-.18-.26-.18-.43c0-.21.09-.38.28-.49l.18-.11c.18-.1.27-.21.27-.31,0-.12-.14-.18-.41-.18-1.03.02-2.17,0-3.44-.08-.18,0-.33-.08-.45-.21s-.19-.28-.19-.46c0-.2.07-.36.22-.5.14-.14.31-.2.51-.19,2.23.13,4.4.14,6.5.04.27,0,.49.06.65.2.16.14.25.31.25.5,0,.33-.2.57-.59.73Z"/>
      <path class="cls-1" d="M74.96,90.08c0,.4-.2.63-.6.69-1.54.21-3.08.32-4.62.32-2.74,0-4.12-.83-4.12-2.48,0-1.01.7-2.05,2.11-3.14.28-.21.42-.46.42-.74,0-.13-.03-.27-.08-.42-.41-1.04-.75-2.15-1.02-3.35,0-.05-.01-.1-.01-.15,0-.21.07-.38.22-.52s.32-.22.52-.22c.18,0,.33.06.47.18.14.12.22.27.26.45.18.93.43,1.87.77,2.81.11.31.29.46.53.46.13,0,.27-.04.41-.13.08-.05,1.12-.61,3.09-1.69.12-.07.23-.1.34-.1.2,0,.36.07.5.21s.2.31.2.5c0,.29-.13.5-.39.63-1.15.57-2.39,1.24-3.72,2.02-.85.49-1.53.96-2.03,1.39-.73.63-1.09,1.19-1.09,1.71,0,.84.88,1.26,2.63,1.26,1.45,0,2.92-.13,4.41-.38.21-.04.39.01.56.15.17.14.25.32.25.53Z"/>
      <path class="cls-1" d="M89.62,84.75c0,.28-.13.48-.39.59-.63.26-1.21.53-1.76.8-.38.19-.62.38-.71.59-.07.15-.1.45-.1.9v.9c0,.19-.07.34-.2.47-.13.13-.29.19-.48.19s-.34-.06-.47-.19-.19-.28-.19-.47v-.53c0-.33-.12-.49-.36-.49-.1,0-.21.04-.34.11-1.13.7-1.69,1.3-1.69,1.81,0,.29.19.5.57.62.38.13,1.04.19,1.96.19.73,0,1.69-.08,2.9-.24.2-.03.37.02.51.15.15.13.22.29.22.49,0,.17-.06.31-.17.44-.11.13-.25.2-.42.22-1.06.12-2.11.18-3.14.18s-1.88-.09-2.45-.27c-.95-.31-1.43-.87-1.43-1.69,0-.95,1.03-2.04,3.09-3.26.34-.2.5-.39.5-.59,0-.24-.2-.36-.59-.36-.54,0-1.23.26-2.06.77-.67.42-1.27.89-1.78,1.4l-.36.43c-.15.14-.31.21-.49.21-.19,0-.34-.06-.47-.19s-.19-.28-.19-.47c0-.17.05-.31.15-.43.97-1.17,1.78-2.33,2.44-3.5.07-.11.1-.22.1-.32,0-.24-.17-.36-.52-.35-.31,0-.76.01-1.36.01-.17,0-.31-.06-.43-.18-.12-.12-.17-.27-.17-.43,0-.18.06-.33.19-.45.13-.12.27-.18.44-.17.58.02,1.22.02,1.92,0,.55,0,.92-.27,1.12-.77l.28-.73c.11-.29.32-.43.63-.43.19,0,.34.07.47.2s.19.28.19.46c0,.08-.01.16-.04.24-.05.11-.07.18-.08.21-.04.1-.06.2-.06.28,0,.27.17.39.5.35.35-.04,1.03-.13,2.02-.28.19-.03.35.02.5.15.15.13.22.28.22.47,0,.37-.19.58-.56.63-.93.12-1.77.21-2.51.27-.41.04-.72.12-.93.26-.21.14-.41.38-.59.72-.02.03-.07.1-.14.22-.1.18-.15.32-.15.43,0,.14.08.21.25.21.1,0,.24-.03.41-.1.49-.19.95-.28,1.36-.28.56,0,.99.19,1.29.56.21.25.4.38.59.38.1,0,.21-.03.34-.08l1.69-.83c.09-.05.19-.07.28-.07.18,0,.33.06.46.19s.19.28.19.47Z"/>
      <path class="cls-1" d="M99.22,80.98c0,.1-.02.2-.07.28-.23.43-.52.89-.85,1.37-.07.09-.1.18-.1.25,0,.17.12.25.36.25.15,0,.28.05.39.16.11.11.16.24.16.38s-.05.28-.16.38c-.11.11-.24.16-.39.16h-.94c-.39,0-.74.14-1.05.43l-.21.2c-.07.07-.1.13-.1.18,0,.1.08.15.24.15h.69c.62,0,.92.21.92.64,0,.23-.12.46-.35.67l-.7.66c-.11.1-.17.2-.17.29,0,.17.13.23.39.2.55-.07.98-.14,1.3-.2.15-.03.29,0,.41.11.13.1.19.23.19.39,0,.3-.14.47-.43.52-.37.07-.96.16-1.75.28-.35.05-.52.24-.52.59v1.09c0,.51-.09.86-.27,1.04-.18.18-.51.27-1.01.27h-.92c-.14,0-.26-.05-.37-.16-.11-.11-.16-.24-.16-.39s.05-.27.15-.38c.1-.1.23-.15.38-.15h.45c.16,0,.27-.01.34-.04.15-.05.22-.21.22-.49v-.55c0-.4-.2-.58-.59-.53-.37.04-.94.1-1.71.18-.16.02-.3-.03-.42-.14-.12-.11-.18-.25-.18-.41,0-.34.17-.53.5-.56.48-.04,1.1-.09,1.86-.17.35-.04.53-.22.53-.56,0-.21.07-.36.21-.46.09-.07.23-.13.4-.19.17-.06.29-.12.36-.17l.1-.08c.08-.06.13-.13.13-.2,0-.1-.1-.15-.29-.15h-1.01c-.32,0-.61.09-.88.26-.27.17-.63.39-1.1.64-.08.05-.18.07-.28.07-.16,0-.3-.06-.41-.17-.12-.12-.17-.25-.17-.41,0-.25.12-.43.35-.53.72-.32,1.44-.73,2.16-1.25.12-.08.18-.18.18-.28,0-.16-.12-.24-.36-.24h-1.83c-.15,0-.28-.05-.38-.16-.11-.11-.16-.24-.16-.38s.05-.28.16-.38c.11-.11.24-.16.38-.16h1.51c.37,0,.56-.19.56-.56v-.17c0-.37-.19-.56-.56-.56h-1.05c-.15,0-.28-.05-.38-.16-.11-.11-.16-.24-.16-.38s.05-.28.16-.38c.11-.1.24-.15.38-.15h1.05c.37,0,.56-.19.56-.56v-.21c0-.16.06-.3.17-.41.12-.12.25-.17.41-.17s.3.06.41.17c.12.12.17.25.17.41v.21c0,.37.19.56.56.56h.45c.15,0,.28.05.38.15s.15.23.15.38-.05.28-.15.38c-.1.11-.23.16-.38.16h-.46c-.37,0-.56.19-.56.56v.17c0,.37.09.56.27.56.19,0,.36-.11.52-.32.52-.69.94-1.38,1.26-2.07.1-.22.27-.34.52-.34.17,0,.31.06.42.17s.17.25.17.41ZM104.95,82.14c0,.3-.13.48-.39.55-.35.09-.53.28-.56.56-.18,1.65-.54,3.09-1.08,4.31-.08.2-.13.37-.13.53,0,.21.07.41.22.62.43.58.95,1.14,1.55,1.68.16.14.24.31.24.52,0,.19-.07.34-.2.47s-.29.19-.48.19-.34-.06-.46-.18c-.43-.42-.84-.9-1.25-1.43-.16-.21-.32-.31-.49-.31-.16,0-.32.1-.48.29-.49.6-1,1.13-1.54,1.6-.12.1-.27.15-.43.15-.18,0-.33-.07-.45-.2s-.19-.29-.19-.48c0-.21.08-.38.25-.52.74-.6,1.34-1.19,1.81-1.76.16-.2.24-.4.24-.62,0-.16-.04-.33-.13-.52-.29-.62-.54-1.31-.74-2.04-.05-.17-.12-.25-.21-.25-.08,0-.16.07-.22.21l-.2.43c-.09.21-.26.32-.5.32-.16,0-.29-.06-.41-.17-.11-.12-.17-.25-.17-.41,0-.08.02-.16.06-.24.82-1.59,1.43-3.4,1.83-5.45.06-.33.26-.49.59-.49.17,0,.31.06.42.17.11.12.17.25.17.41,0,.08-.06.35-.17.78-.02.07-.03.14-.03.21,0,.3.17.45.5.45h2.42c.16,0,.3.06.41.17.12.12.17.26.17.43ZM102.85,83.31c.03-.38-.15-.57-.55-.57h-.69c-.5,0-.71.25-.66.74.11,1.02.35,1.97.71,2.87.08.2.19.29.32.29.1,0,.18-.07.22-.2.34-.88.55-1.92.63-3.14Z"/>
      <path class="cls-1" d="M117.95,91.05c-.89.18-1.84.27-2.86.27-.9,0-1.49-.28-1.79-.84-.17-.3-.28-.9-.32-1.81-.04-.61-.21-.91-.53-.91-.61,0-1.29.36-2.06,1.08-.24.22-.91.92-1.99,2.1-.15.16-.33.24-.55.24s-.38-.07-.52-.22c-.14-.15-.21-.32-.21-.53s.07-.37.22-.52c1.46-1.45,3.27-3.19,5.45-5.22.15-.14.22-.26.22-.35,0-.16-.17-.22-.5-.2l-3.58.28c-.2.02-.37-.04-.52-.17-.15-.14-.22-.3-.22-.5s.06-.35.19-.48.28-.2.46-.21l5.6-.32c.31-.02.56.05.75.21.19.16.29.36.29.59,0,.27-.13.52-.38.74-.54.48-1.17,1.06-1.88,1.74-.21.2-.31.34-.31.43,0,.1.12.17.36.2.6.07.93.52,1.01,1.36.06.74.12,1.17.15,1.29.12.46.38.69.77.69.3,0,.74-.05,1.33-.15.59-.1,1.02-.15,1.3-.15.19,0,.34.07.46.21.12.14.18.31.18.5,0,.36-.18.58-.53.66ZM115.36,81.18c0,.2-.07.36-.21.5-.14.14-.31.19-.5.18-1.73-.17-3.13-.4-4.2-.69-.34-.09-.5-.31-.5-.66,0-.19.06-.35.2-.48.13-.13.29-.2.48-.2.06,0,.12,0,.18.03,1.07.3,2.39.52,3.95.66.18.02.32.09.44.21.12.12.18.27.18.45Z"/>
      <path class="cls-1" d="M132.37,81.43c0,.37-.25.6-.76.67-1.41.21-2.66.8-3.75,1.74-1.09.95-1.64,1.94-1.64,2.99,0,1.47,1.21,2.43,3.63,2.9.4.08.6.31.6.71,0,.22-.09.41-.26.56-.17.15-.37.21-.6.17-1.35-.23-2.44-.65-3.26-1.26-1.03-.75-1.54-1.74-1.54-2.97,0-.99.34-1.9,1.02-2.74.27-.34.57-.64.9-.91.28-.23.42-.43.42-.6,0-.22-.24-.32-.71-.28-1.46.13-3.01.29-4.66.49-.21.03-.38-.03-.53-.17-.15-.14-.22-.31-.22-.52,0-.18.06-.33.17-.46.12-.13.26-.21.44-.22,1.69-.17,4.99-.42,9.9-.76.25-.02.46.04.62.16s.24.29.24.5Z"/>
      <path class="cls-1" d="M140.7,88.42c-.82,1.61-1.61,2.42-2.37,2.42-.93,0-1.66-.83-2.17-2.49-.4-1.29-.6-2.75-.6-4.38,0-.84.03-1.56.08-2.17.02-.2.1-.36.23-.49s.3-.2.5-.2c.21,0,.39.08.54.25.14.16.21.35.19.57-.07.63-.1,1.35-.1,2.17,0,1.07.12,2.14.35,3.19.26,1.17.61,1.75,1.04,1.75.31,0,.66-.42,1.05-1.26.12-.25.33-.38.63-.38.2,0,.36.07.5.2.13.14.2.3.2.5,0,.12-.02.23-.07.32ZM146.77,87.98c.03.22-.03.42-.18.6-.15.18-.34.27-.57.27-.2,0-.37-.07-.52-.2-.15-.13-.23-.29-.25-.48-.23-2.12-.92-4-2.06-5.66-.08-.12-.13-.26-.13-.41,0-.21.07-.38.21-.52.14-.14.31-.21.52-.21.25,0,.45.1.6.31,1.29,1.79,2.08,3.89,2.38,6.29Z"/>
      <path class="cls-1" d="M156.32,82.91c-.68.13-1.37.24-2.07.32-.38.05-.66.14-.83.29s-.3.41-.38.77c-.52,2.21-1.17,4.34-1.95,6.37-.12.31-.35.46-.69.46-.21,0-.38-.07-.52-.22-.14-.14-.21-.31-.21-.51,0-.09.02-.19.06-.28.79-1.88,1.44-3.86,1.95-5.97.02-.07.03-.14.03-.21,0-.33-.2-.48-.59-.48-.39,0-.75,0-1.08,0-.19,0-.35-.08-.48-.22-.14-.14-.2-.3-.2-.48,0-.2.07-.36.22-.5.15-.14.32-.21.51-.2.53.02.96.02,1.29.01.52-.02.82-.27.9-.77.03-.21.08-.51.14-.92.06-.41.3-.61.71-.61.2,0,.36.07.5.21.14.14.21.3.21.49,0,.09-.04.33-.11.7,0,.07-.01.13-.01.18,0,.37.21.53.62.46.06,0,.38-.07.98-.2.45-.08.76-.13.92-.13.2,0,.36.07.48.21s.19.31.19.5c0,.38-.19.61-.57.69ZM160.74,90.28c0,.4-.2.63-.59.69-.89.13-1.82.2-2.8.2-2.48,0-3.72-.69-3.72-2.09,0-.32.08-.68.24-1.09.11-.28.32-.42.63-.42.44,0,.66.22.66.67,0,.08-.01.18-.04.32-.03.13-.04.24-.04.31,0,.63.8.95,2.39.95.7,0,1.53-.07,2.49-.21.21-.03.39.03.55.16.16.14.24.31.24.51ZM160.35,85.07c0,.2-.07.36-.22.5-.15.14-.32.21-.52.2-1.39-.07-2.88-.04-4.47.1-.2.02-.37-.04-.51-.17-.14-.13-.22-.3-.22-.5,0-.18.06-.33.17-.46.12-.13.26-.2.43-.22,1.58-.16,3.13-.21,4.65-.17.19,0,.35.08.48.22.14.14.2.3.2.49Z"/>
      <path class="cls-1" d="M170.31,82.91c-.78.15-1.47.26-2.07.32-.38.05-.66.14-.83.29-.17.15-.3.41-.39.77-.56,2.45-1.21,4.58-1.95,6.37-.13.31-.36.46-.69.46-.21,0-.38-.07-.52-.22-.14-.14-.21-.31-.21-.51,0-.1.02-.2.06-.28.75-1.75,1.4-3.73,1.95-5.97.02-.07.03-.14.03-.21,0-.33-.2-.48-.59-.48-.39,0-.75,0-1.08,0-.19,0-.35-.08-.48-.22s-.2-.3-.2-.48c0-.2.07-.36.22-.5s.32-.21.51-.2c.53.02.96.02,1.29.01.53-.02.83-.27.9-.77.03-.2.07-.5.14-.91s.3-.62.71-.62c.2,0,.36.07.5.21.14.14.21.3.21.49,0,.09-.04.33-.11.7,0,.07-.01.13-.01.18,0,.37.21.53.62.46.06,0,.38-.07.98-.2.45-.08.76-.13.92-.13.2,0,.36.07.48.21s.19.31.19.5c0,.38-.19.61-.57.69ZM174.74,90.28c0,.18-.06.33-.17.46-.11.13-.25.21-.42.22-1.04.13-1.98.2-2.8.2-2.48,0-3.72-.69-3.72-2.09,0-.34.08-.7.24-1.09.11-.28.32-.42.63-.42.45,0,.67.22.67.67,0,.08-.02.18-.06.32-.04.13-.06.24-.06.31,0,.63.8.95,2.41.95.62,0,1.46-.07,2.49-.21.21-.03.39.03.55.16.16.14.24.31.24.51ZM174.35,85.07c0,.2-.08.36-.22.5-.15.14-.32.21-.52.2-1.44-.1-2.93-.07-4.47.1-.2.02-.37-.04-.51-.17-.15-.13-.22-.3-.22-.5,0-.18.06-.33.17-.46.12-.13.26-.2.43-.22,1.86-.16,3.41-.21,4.65-.17.19,0,.35.08.48.22.14.14.2.3.2.49ZM173.67,82.62c0,.15-.05.28-.16.39s-.24.16-.38.16c-.22,0-.39-.08-.49-.25-.27-.43-.56-.8-.87-1.11-.1-.1-.15-.23-.15-.38,0-.37.18-.56.55-.56.16,0,.3.07.42.21.39.44.72.85.98,1.23.08.11.11.21.11.31ZM175.38,81.82c0,.15-.05.28-.16.38s-.24.16-.38.16c-.21,0-.38-.08-.49-.25-.31-.46-.6-.84-.87-1.13-.1-.11-.15-.23-.15-.35,0-.37.19-.56.56-.56.14,0,.28.06.41.2.33.33.66.74.99,1.25.06.13.1.23.1.31Z"/>
      <path class="cls-1" d="M188.46,83.61c0,.3-.14.5-.43.6-.62.21-1.18.38-1.68.5-.3.07-.45.22-.45.43,0,.12.05.25.14.38.46.63.88,1.18,1.27,1.62.13.15.2.32.2.5,0,.21-.07.4-.22.55-.15.15-.33.23-.55.23-.11,0-.22-.02-.32-.06-1.24-.5-2.41-.74-3.5-.74-1.79,0-2.69.42-2.69,1.27s1.13,1.25,3.39,1.25c.77,0,1.65-.05,2.63-.15.19-.02.35.04.5.16s.22.28.22.47c0,.38-.2.59-.59.63-.89.09-1.82.14-2.8.14-3.15,0-4.72-.82-4.72-2.46s1.26-2.45,3.78-2.45c.59,0,1.27.09,2.06.27.08.02.14.03.2.03.19,0,.28-.07.28-.2,0-.09-.05-.2-.14-.32-.05-.07-.17-.24-.38-.52-.25-.35-.56-.52-.94-.52-.11,0-.24,0-.38.03-1.3.18-2.72.26-4.27.24-.17,0-.31-.06-.43-.18-.12-.12-.17-.27-.17-.43s.06-.32.18-.44.27-.18.43-.17c1.16.04,2.39-.01,3.71-.15.35-.04.53-.18.53-.42,0-.11-.04-.22-.11-.32-.22-.38-.55-.55-.97-.5-.8.09-1.73.14-2.77.14-.16,0-.3-.06-.43-.18s-.19-.26-.19-.42c0-.17.06-.31.19-.43s.27-.17.43-.17c.77,0,1.49-.01,2.16-.07.39-.04.59-.16.59-.38,0,0-.08-.21-.25-.62-.03-.07-.04-.14-.04-.22,0-.19.06-.35.2-.48s.29-.2.49-.2c.31,0,.52.15.63.45.04.11.1.28.2.52.14.35.37.53.7.53.08,0,.17-.01.27-.04.65-.17,1.31-.37,1.96-.6.08-.03.14-.04.21-.04.18,0,.33.06.46.18s.19.27.19.45c0,.32-.15.52-.45.62-.69.22-1.3.4-1.82.52-.34.07-.5.23-.5.46,0,.1.04.21.11.31l.03.04c.2.3.43.45.71.45.07,0,.15,0,.24-.03.74-.18,1.43-.39,2.07-.63.05-.02.11-.03.2-.03.18,0,.33.06.46.18.13.12.19.27.19.45Z"/>
      <path class="cls-1" d="M202.77,89.7c0,.2-.07.36-.2.5-.13.14-.3.2-.5.2-.13,0-.25-.03-.36-.1-.93-.55-1.76-.97-2.49-1.25-.09-.04-.18-.06-.25-.06-.27,0-.43.19-.48.56-.08.56-.26.98-.56,1.25-.47.42-1.3.63-2.51.63-.77,0-1.4-.14-1.9-.43-.62-.36-.92-.91-.92-1.62,0-.81.39-1.41,1.16-1.78.58-.28,1.33-.42,2.24-.42.1,0,.26,0,.48.01.49.02.73-.19.73-.62v-.39c0-.47-.24-.7-.71-.69-.99.03-1.94.04-2.86.03-.17,0-.31-.06-.43-.19-.12-.13-.18-.27-.18-.44s.06-.31.19-.43c.13-.12.27-.17.44-.17.91.02,1.86.02,2.84,0,.46,0,.69-.25.69-.71v-.06c0-.48-.24-.7-.73-.69-1.13.05-2.2.06-3.21.03-.17,0-.31-.08-.43-.2-.12-.13-.18-.27-.18-.44,0-.18.07-.33.2-.45.13-.12.28-.18.46-.17,1.04.03,2.11.03,3.19,0,.46,0,.69-.23.69-.67,0-.04,0-.25-.01-.63,0-.19.06-.35.2-.48s.29-.2.48-.2.34.07.48.2.2.3.2.48v.48c0,.49.24.72.73.67.72-.07,1.5-.17,2.35-.29.19-.03.35.02.5.15.14.13.22.28.22.47,0,.35-.18.56-.55.6-1.01.13-1.86.23-2.56.29-.45.05-.67.29-.67.73v.04c0,.5.24.72.73.67.49-.05,1.18-.13,2.06-.27.19-.03.35.02.5.15.15.13.22.28.22.47,0,.36-.18.57-.53.62-.75.1-1.52.19-2.31.27-.45.04-.67.28-.67.73v.63c0,.51.26.85.77,1.02.95.31,1.99.76,3.12,1.36.24.13.36.34.36.62ZM197.15,89.16c.06-.47-.12-.72-.56-.76-.21-.02-.41-.03-.6-.03-1.34,0-2.02.32-2.02.97,0,.26.13.47.39.63.26.16.59.24,1.01.24.62,0,1.06-.07,1.32-.22.25-.14.41-.42.46-.83Z"/>
      <path class="cls-1" d="M216.84,87.62c0,.13-.04.26-.11.38-.63,1.04-1.4,1.86-2.28,2.48-1,.68-2.06,1.02-3.18,1.02-2.46,0-3.68-1.11-3.68-3.33,0-.9.02-2.1.06-3.57.03-1.19.05-2.49.07-3.89,0-.2.07-.37.22-.51.15-.14.32-.22.52-.22.21,0,.38.07.53.22s.22.33.21.53l-.17,7.13c0,1.47.77,2.2,2.32,2.2.83,0,1.63-.29,2.39-.88.65-.49,1.23-1.13,1.72-1.95.14-.23.35-.35.63-.35.21,0,.38.07.52.22.15.14.22.32.22.52Z"/>
      <path class="cls-1" d="M227.02,82.91c-.68.13-1.37.24-2.07.32-.38.05-.66.14-.83.29s-.3.41-.38.77c-.52,2.21-1.17,4.34-1.95,6.37-.12.31-.35.46-.69.46-.21,0-.38-.07-.52-.22-.14-.14-.21-.31-.21-.51,0-.09.02-.19.06-.28.79-1.88,1.44-3.86,1.95-5.97.02-.07.03-.14.03-.21,0-.33-.2-.48-.59-.48-.39,0-.75,0-1.08,0-.19,0-.35-.08-.48-.22-.14-.14-.2-.3-.2-.48,0-.2.07-.36.22-.5.15-.14.32-.21.51-.2.53.02.96.02,1.29.01.52-.02.82-.27.9-.77.03-.21.08-.51.14-.92.06-.41.3-.61.71-.61.2,0,.36.07.5.21.14.14.21.3.21.49,0,.09-.04.33-.11.7,0,.07-.01.13-.01.18,0,.37.21.53.62.46.06,0,.38-.07.98-.2.45-.08.76-.13.92-.13.2,0,.36.07.48.21s.19.31.19.5c0,.38-.19.61-.57.69ZM231.44,90.28c0,.4-.2.63-.59.69-.89.13-1.82.2-2.8.2-2.48,0-3.72-.69-3.72-2.09,0-.32.08-.68.24-1.09.11-.28.32-.42.63-.42.44,0,.66.22.66.67,0,.08-.01.18-.04.32-.03.13-.04.24-.04.31,0,.63.8.95,2.39.95.7,0,1.53-.07,2.49-.21.21-.03.39.03.55.16.16.14.24.31.24.51ZM231.05,85.07c0,.2-.07.36-.22.5-.15.14-.32.21-.52.2-1.39-.07-2.88-.04-4.47.1-.2.02-.37-.04-.51-.17-.14-.13-.22-.3-.22-.5,0-.18.06-.33.17-.46.12-.13.26-.2.43-.22,1.58-.16,3.13-.21,4.65-.17.19,0,.35.08.48.22.14.14.2.3.2.49Z"/>
      <path class="cls-1" d="M237.57,89.98c0,.57-.2,1.05-.6,1.45s-.89.59-1.46.59-1.05-.2-1.45-.59c-.4-.4-.59-.88-.59-1.45s.2-1.05.59-1.46c.4-.4.88-.6,1.45-.6s1.05.2,1.46.6.6.89.6,1.46ZM236.58,89.98c0-.3-.1-.55-.31-.76s-.46-.31-.76-.31-.54.1-.74.31-.31.46-.31.75.1.53.31.74c.21.2.45.3.74.3s.55-.1.76-.29.31-.44.31-.74Z"/>
      <path class="cls-1" d="M42.22,101.43c0,.17-.06.31-.18.43-.12.12-.27.17-.43.17h-2.97c-.42,0-.63.21-.63.63v3.09c0,.36.1.56.31.6.05,0,.15.01.32.01h.88c.52,0,.85-.13.98-.38.07-.15.13-.54.15-1.16,0-.17.07-.31.2-.43.12-.12.27-.18.45-.18s.33.07.46.2c.13.13.19.28.18.46-.03,1.12-.19,1.85-.5,2.21-.3.35-.93.52-1.87.52h-1.5c-.56,0-.93-.09-1.12-.27-.19-.18-.28-.55-.28-1.11v-3.56c0-.42-.21-.63-.63-.63h-.53c-.4,0-.62.21-.64.62-.16,2.34-1.3,4.04-3.42,5.08-.09.05-.2.07-.32.07-.18,0-.34-.07-.48-.2-.14-.13-.21-.29-.21-.48,0-.29.13-.5.38-.62.89-.44,1.54-.95,1.97-1.55s.68-1.36.76-2.29c.04-.43-.17-.64-.62-.64h-2.49c-.17,0-.31-.06-.43-.17-.12-.12-.18-.26-.18-.43s.06-.31.18-.43c.12-.12.27-.18.43-.18h4.4c.42,0,.63-.21.63-.63v-.84c0-.42-.21-.63-.63-.63h-1.89c-.5,0-.91.19-1.2.57l-.35.45c-.11.15-.28.22-.49.22-.18,0-.33-.06-.45-.19-.12-.13-.18-.28-.18-.46,0-.17.06-.31.17-.43.7-.78,1.3-1.66,1.79-2.63.11-.22.3-.34.57-.34.19,0,.34.06.46.19.12.13.18.28.18.46,0,.08-.03.18-.08.3-.05.12-.08.21-.08.29,0,.23.17.35.5.35h1.04c.42,0,.63-.21.63-.63v-.74c0-.18.06-.33.19-.46.13-.13.28-.19.45-.19s.33.06.46.19.19.28.19.46v.74c0,.42.21.63.63.63h3.23c.17,0,.31.06.43.18.12.12.18.26.18.42,0,.17-.06.31-.18.43-.12.12-.27.18-.43.18h-3.23c-.42,0-.63.21-.63.63v.84c0,.42.21.63.63.63h4.21c.17,0,.31.06.43.18.12.12.18.27.18.43Z"/>
      <path class="cls-1" d="M56.36,106.68c0,.18-.06.33-.19.46s-.28.19-.46.19h-11.12c-.18,0-.33-.06-.45-.19-.12-.13-.18-.28-.18-.46s.06-.33.19-.46.27-.19.44-.19h4.33c.42,0,.63-.21.63-.63v-1.65c0-.42-.21-.63-.63-.63h-2.93c-.17,0-.31-.06-.43-.18-.12-.12-.18-.26-.18-.43s.06-.31.18-.43.26-.17.43-.17h2.93c.42,0,.63-.21.63-.63v-1.27c0-.42-.21-.63-.63-.63h-1.92c-.55,0-.97.23-1.26.7-.12.2-.31.48-.57.85-.13.19-.31.28-.53.28-.18,0-.33-.07-.46-.2-.13-.13-.2-.28-.2-.46,0-.16.04-.29.13-.41.92-1.26,1.64-2.54,2.14-3.84.1-.26.3-.39.6-.39.19,0,.34.07.47.2s.19.28.19.46c0,.1-.1.37-.29.81-.05.11-.07.22-.07.32,0,.28.18.42.55.42h1.23c.42,0,.63-.21.63-.63v-1.26c0-.19.07-.35.2-.48s.3-.2.48-.2.35.07.48.2c.13.14.2.3.2.48v1.26c0,.42.21.63.63.63h3.65c.18,0,.33.06.45.18.12.12.18.27.18.43,0,.18-.06.33-.18.45-.12.12-.27.18-.45.18h-3.65c-.42,0-.63.21-.63.63v1.27c0,.42.21.63.63.63h2.88c.17,0,.31.06.43.17.12.12.18.26.18.43s-.06.31-.18.43c-.12.12-.26.18-.43.18h-2.88c-.42,0-.63.21-.63.63v1.65c0,.42.21.63.63.63h4.17c.18,0,.33.06.46.19s.19.28.19.46Z"/>
      <path class="cls-1" d="M61.33,96.94c-.37,2.14-.56,4.16-.56,6.06,0,1.33.05,2.45.15,3.35.03.21-.03.41-.18.57s-.33.25-.55.25c-.2,0-.36-.07-.5-.2-.14-.13-.22-.29-.24-.48-.09-.9-.14-2.04-.14-3.42,0-2.07.2-4.21.59-6.4.07-.4.31-.6.71-.6.22,0,.41.09.55.26.15.17.2.37.16.59ZM69.83,105.48c0,.17-.06.32-.18.46-.12.14-.27.21-.43.23-1.21.16-2.23.24-3.04.24-2.47,0-3.71-.75-3.71-2.24,0-.42.12-.85.35-1.29.13-.25.33-.38.59-.38.46,0,.69.22.69.66,0,.09-.03.23-.08.41-.06.18-.08.33-.08.44,0,.38.23.65.69.8.39.14,1.01.21,1.86.21.69,0,1.54-.08,2.55-.24.21-.04.4.02.57.16.16.14.25.32.25.54ZM69.34,98.07c0,.18-.06.33-.18.46-.12.13-.26.21-.44.24-1.05.15-2.17.22-3.35.22-.52,0-1.09-.02-1.71-.06-.18,0-.33-.08-.46-.22-.13-.13-.2-.3-.2-.48,0-.21.08-.38.23-.51.15-.13.33-.19.52-.17.52.05,1.08.07,1.67.07,1.05,0,2.09-.08,3.09-.24.21-.04.4.01.57.15.16.14.25.32.25.53Z"/>
      <path class="cls-1" d="M84.04,105.9c0,.96-.48,1.44-1.44,1.44h-8.37c-.96,0-1.44-.48-1.44-1.44v-2.88c0-.18.07-.33.2-.46.13-.13.28-.19.46-.19s.33.06.46.19.19.28.19.46v2.32c0,.49.24.74.73.74h2.17c.47,0,.7-.23.7-.7v-3.11c0-.47-.23-.7-.7-.7h-2.34c-.95,0-1.43-.48-1.43-1.43v-2.97c0-.18.06-.33.19-.46s.28-.19.46-.19.33.06.46.19.19.28.19.46v2.44c0,.5.25.74.74.74h1.75c.47,0,.7-.23.7-.7v-3.44c0-.2.07-.36.2-.5.14-.14.3-.2.5-.2s.35.07.48.21.2.3.2.49v3.44c0,.47.23.7.7.7h1.89c.49,0,.74-.25.74-.74v-2.44c0-.18.06-.33.19-.46s.28-.19.45-.19.33.06.46.19.19.28.19.46v2.97c0,.95-.48,1.43-1.43,1.43h-2.52c-.47,0-.7.23-.7.7v3.11c0,.47.23.7.7.7h2.25c.49,0,.73-.25.73-.74v-2.32c0-.18.06-.33.19-.46s.28-.19.46-.19.33.06.46.19.2.28.2.46v2.88Z"/>
      <path class="cls-1" d="M98.95,100.02c0,.18-.06.33-.19.46s-.27.19-.44.19c-.1,0-.2-.02-.29-.07-1.95-.99-3.58-2.14-4.9-3.46-.19-.19-.39-.28-.6-.28s-.44.11-.66.32c-1.2,1.21-2.77,2.35-4.69,3.42-.08.05-.19.07-.31.07-.18,0-.33-.06-.45-.18-.12-.12-.18-.27-.18-.43,0-.25.11-.44.34-.56,1.81-.97,3.34-2.09,4.58-3.37.41-.42.87-.63,1.37-.63.48,0,.9.19,1.27.56,1.33,1.32,2.94,2.45,4.8,3.4.23.12.35.31.35.57ZM98.47,102.37c0,.17-.06.31-.18.43s-.26.18-.43.18h-5.03c-.52,0-.91.24-1.15.71-.21.42-.54,1.01-.98,1.76-.07.12-.1.23-.1.32,0,.25.17.36.5.34.88-.08,1.95-.21,3.22-.38.29-.04.43-.16.43-.36,0-.11-.06-.23-.17-.36l-.39-.43c-.1-.11-.15-.25-.15-.41s.06-.3.17-.42.26-.18.43-.18c.18,0,.34.08.49.24.82.87,1.65,1.82,2.49,2.84.09.11.14.25.14.41,0,.18-.06.33-.19.46s-.28.2-.46.2c-.27,0-.5-.16-.69-.48-.26-.34-.59-.52-.98-.52-.08,0-.18,0-.28.03-2.3.37-4.78.68-7.45.91-.19.02-.35-.04-.48-.17-.14-.13-.2-.29-.2-.48,0-.17.06-.32.17-.44s.26-.19.43-.2c.4,0,.69-.05.85-.11.25-.09.47-.29.66-.59.38-.62.76-1.3,1.12-2.03.06-.1.08-.2.08-.29,0-.24-.17-.36-.5-.36h-2.6c-.17,0-.31-.06-.43-.18s-.17-.27-.17-.43c0-.16.06-.3.17-.42.12-.12.26-.18.43-.18h10.6c.17,0,.31.06.43.18.12.12.18.26.18.42ZM95.87,99.78c0,.16-.06.3-.18.41-.12.12-.25.17-.41.17h-5.46c-.16,0-.3-.06-.41-.17-.12-.12-.17-.25-.17-.41s.06-.3.17-.41c.12-.12.25-.17.41-.17h5.46c.16,0,.3.06.41.17.12.12.18.25.18.41Z"/>
      <path class="cls-1" d="M112.08,107.05c-.89.18-1.84.27-2.86.27-.9,0-1.49-.28-1.79-.84-.17-.3-.28-.9-.32-1.81-.04-.61-.21-.91-.53-.91-.61,0-1.29.36-2.06,1.08-.24.22-.91.92-1.99,2.1-.15.16-.33.24-.55.24s-.38-.07-.52-.22c-.14-.15-.21-.32-.21-.53s.07-.37.22-.52c1.46-1.45,3.27-3.19,5.45-5.22.15-.14.22-.26.22-.35,0-.16-.17-.22-.5-.2l-3.58.28c-.2.02-.37-.04-.52-.17-.15-.14-.22-.3-.22-.5s.06-.35.19-.48.28-.2.46-.21l5.6-.32c.31-.02.56.05.75.21.19.16.29.36.29.59,0,.27-.13.52-.38.74-.54.48-1.17,1.06-1.88,1.74-.21.2-.31.34-.31.43,0,.1.12.17.36.2.6.07.93.52,1.01,1.36.06.74.12,1.17.15,1.29.12.46.38.69.77.69.3,0,.74-.05,1.33-.15.59-.1,1.02-.15,1.3-.15.19,0,.34.07.46.21.12.14.18.31.18.5,0,.36-.18.58-.53.66ZM109.49,97.18c0,.2-.07.36-.21.5-.14.13-.31.19-.5.17-1.73-.17-3.13-.4-4.2-.69-.34-.09-.5-.31-.5-.66,0-.19.06-.35.2-.48.13-.13.29-.2.48-.2.06,0,.12,0,.18.03,1.07.3,2.39.52,3.95.66.18.02.32.09.44.21s.18.27.18.45Z"/>
      <path class="cls-1" d="M126.5,97.43c0,.37-.25.6-.76.67-1.41.21-2.66.8-3.75,1.74-1.09.95-1.64,1.94-1.64,2.99,0,1.46,1.21,2.43,3.63,2.9.4.08.6.31.6.71,0,.22-.09.41-.26.56-.17.15-.37.21-.6.17-1.35-.23-2.44-.65-3.26-1.26-1.03-.75-1.54-1.74-1.54-2.97,0-.99.34-1.9,1.02-2.74.27-.34.57-.64.9-.91.28-.23.42-.43.42-.6,0-.22-.24-.32-.71-.28-1.46.13-3.01.29-4.66.49-.21.03-.38-.03-.53-.17-.15-.14-.22-.31-.22-.52,0-.18.06-.33.17-.46s.26-.21.44-.22c1.69-.17,4.99-.42,9.9-.76.25-.02.46.04.62.16s.24.29.24.5Z"/>
      <path class="cls-1" d="M140.89,107.15c0,.18-.07.33-.2.47s-.29.2-.47.2c-.05,0-.1,0-.17-.03-1.43-.43-2.59-.95-3.47-1.55-.99-.67-1.85-1.59-2.58-2.74-.28-.45-.67-.67-1.18-.67h-.53c-.37,0-.56.19-.56.56v2.2c0,.35.14.52.43.52.06,0,.12,0,.18-.03.73-.18,1.4-.36,2.03-.56.06-.02.11-.03.17-.03.16,0,.3.06.42.17.12.12.18.26.18.43,0,.3-.15.49-.43.59-1.54.48-3.24.87-5.11,1.15-.18.03-.34-.02-.48-.15-.15-.13-.22-.28-.22-.47,0-.37.18-.58.53-.62l.24-.03c.47-.06.7-.33.7-.83v-7.53c0-.86.43-1.29,1.29-1.29h2c.37,0,.56-.19.56-.56v-.24c0-.2.07-.36.2-.5.14-.14.3-.21.5-.21s.36.07.5.21c.14.14.21.31.21.5v.24c0,.37.19.56.56.56h2.3c.87,0,1.3.43,1.3,1.29v3.32c0,.87-.43,1.3-1.3,1.3h-2.59c-.34,0-.5.12-.5.36,0,.1.04.21.13.32.53.72.98,1.08,1.36,1.08.19,0,.38-.07.57-.2.47-.31.94-.67,1.41-1.08.12-.1.26-.15.42-.15.18,0,.33.06.45.18s.18.27.18.45c0,.21-.08.37-.24.5-.27.21-.65.48-1.13.78-.19.12-.28.25-.28.39,0,.15.1.27.31.36.55.26,1.16.49,1.83.69.32.09.48.3.48.63ZM138.43,98.75v-.03c0-.42-.21-.63-.64-.63h-5.4c-.43,0-.64.21-.64.63v.03c0,.37.19.56.56.56h5.57c.37,0,.56-.19.56-.56ZM138.43,101.01v-.04c0-.37-.19-.56-.56-.56h-5.57c-.37,0-.56.19-.56.56v.13c0,.37.19.56.56.56h5.49c.43,0,.64-.21.64-.64Z"/>
      <path class="cls-1" d="M151.41,100.76c0,1.47-.25,3.12-.74,4.93-.14.52-.3.9-.48,1.13-.26.34-.62.5-1.06.5-.48,0-1.13-.13-1.93-.41-.32-.1-.48-.31-.48-.63,0-.19.07-.35.2-.48.14-.13.29-.2.47-.2.08,0,.17.02.29.06.4.14.71.21.91.21.22,0,.38-.07.48-.2.07-.1.16-.31.25-.63.44-1.57.66-2.93.66-4.09,0-.45-.09-.75-.27-.9-.18-.15-.51-.22-1.01-.22-.44,0-.74.05-.9.14-.2.11-.34.31-.42.6-.61,2.03-1.44,4.08-2.49,6.15-.14.27-.36.41-.66.41-.21,0-.38-.07-.52-.22-.14-.14-.21-.32-.21-.53,0-.16.03-.28.08-.38.95-1.65,1.73-3.39,2.32-5.22.03-.09.04-.18.04-.25,0-.34-.2-.48-.6-.42-.29.04-.74.1-1.36.2-.2.03-.38-.03-.54-.16-.16-.14-.25-.31-.25-.51,0-.39.2-.62.61-.67s1.06-.14,1.95-.25c.45-.05.75-.33.91-.84.03-.07.11-.53.24-1.37.06-.4.3-.6.7-.6.22,0,.4.08.54.24.13.16.19.36.15.58,0,.05-.05.25-.13.62-.06.27-.1.47-.1.6,0,.39.22.57.66.55h.21c.72-.06,1.29.07,1.72.36.48.34.73.97.73,1.89ZM155.63,101.81c0,.21-.07.38-.22.53s-.32.22-.53.22c-.34,0-.57-.16-.7-.49-.48-1.26-1.11-2.41-1.86-3.44-.08-.11-.13-.24-.13-.39,0-.2.07-.36.2-.5.13-.14.3-.21.5-.21.23,0,.42.1.57.29.85,1.11,1.55,2.35,2.12,3.71.03.07.04.16.04.28Z"/>
      <path class="cls-1" d="M168.45,102.2c0,1.33-.62,2.38-1.86,3.14-.92.56-2.15.94-3.68,1.15-.2.03-.37-.03-.52-.16-.15-.13-.22-.3-.22-.5,0-.16.06-.3.17-.43.11-.13.25-.2.41-.22,2.88-.38,4.31-1.38,4.31-2.98,0-1.13-.75-1.69-2.24-1.69-1.2,0-3.1.35-5.73,1.05-.07.02-.13.03-.18.03-.18,0-.34-.07-.48-.2-.14-.14-.21-.3-.21-.48,0-.35.18-.57.53-.66.92-.22,1.78-.42,2.6-.57,1.49-.29,2.66-.43,3.5-.43,1.04,0,1.87.2,2.46.6.76.5,1.13,1.29,1.13,2.37Z"/>
      <path class="cls-1" d="M178.72,98.91c-.68.13-1.37.24-2.07.32-.38.05-.66.14-.83.29s-.3.41-.38.77c-.52,2.21-1.17,4.33-1.95,6.37-.12.31-.35.46-.69.46-.21,0-.38-.07-.52-.22-.14-.14-.21-.31-.21-.51,0-.09.02-.19.06-.28.79-1.88,1.44-3.86,1.95-5.96.02-.07.03-.14.03-.21,0-.33-.2-.48-.59-.48-.39,0-.75,0-1.08,0-.19,0-.35-.08-.48-.22-.14-.14-.2-.3-.2-.48,0-.2.07-.36.22-.5.15-.14.32-.21.51-.2.53.02.96.02,1.29.01.52-.02.82-.28.9-.77.03-.21.08-.51.14-.92.06-.41.3-.61.71-.61.2,0,.36.07.5.21s.21.3.21.49c0,.09-.04.33-.11.7,0,.07-.01.13-.01.18,0,.37.21.53.62.46.06,0,.38-.08.98-.2.45-.08.76-.13.92-.13.2,0,.36.07.48.21s.19.31.19.5c0,.38-.19.61-.57.69ZM183.15,106.28c0,.4-.2.63-.59.69-.89.13-1.82.2-2.8.2-2.48,0-3.72-.69-3.72-2.09,0-.32.08-.68.24-1.09.11-.28.32-.42.63-.42.44,0,.66.22.66.67,0,.08-.01.18-.04.32-.03.13-.04.24-.04.31,0,.63.8.95,2.39.95.7,0,1.53-.07,2.49-.21.21-.03.39.03.55.16.16.14.24.31.24.51ZM182.75,101.07c0,.2-.07.36-.22.5-.15.14-.32.21-.52.2-1.39-.07-2.88-.04-4.47.1-.2.02-.37-.04-.51-.17-.14-.13-.22-.3-.22-.5,0-.18.06-.33.17-.46.12-.13.26-.2.43-.22,1.58-.16,3.13-.21,4.65-.17.19,0,.35.08.48.22.14.14.2.3.2.49Z"/>
      <path class="cls-1" d="M196.98,97.43c0,.37-.25.6-.76.67-1.41.21-2.66.8-3.75,1.74s-1.64,1.94-1.64,2.99c0,1.51,1.21,2.48,3.63,2.9.4.07.6.3.6.71,0,.22-.09.41-.26.57s-.37.21-.59.16c-1.45-.28-2.55-.71-3.3-1.29-1-.77-1.5-1.75-1.5-2.94,0-1.01.34-1.92,1.02-2.74.3-.35.59-.65.88-.9s.43-.45.43-.62c0-.22-.24-.32-.71-.28-1.91.17-3.47.33-4.66.49-.21.03-.38-.03-.53-.17s-.22-.31-.22-.52c0-.18.06-.33.17-.47.12-.13.26-.21.44-.22,1.72-.17,5.02-.42,9.9-.76.25,0,.46.05.62.17.16.13.24.29.24.48ZM196.22,101.56c0,.15-.05.28-.16.38s-.24.16-.38.16c-.22,0-.39-.08-.49-.25-.27-.43-.56-.8-.87-1.11-.1-.1-.15-.23-.15-.38,0-.37.18-.56.55-.56.16,0,.3.07.42.21.39.44.72.85.98,1.23.07.11.11.21.11.31ZM197.93,100.76c0,.15-.05.28-.16.38s-.24.16-.38.16c-.21,0-.38-.08-.49-.25-.31-.46-.6-.83-.87-1.13-.1-.11-.15-.23-.15-.35,0-.37.19-.56.56-.56.14,0,.28.07.41.2.33.33.66.74.99,1.25.07.13.1.23.1.31Z"/>
      <path class="cls-1" d="M211.86,98.2c0,.19-.07.35-.2.48-.13.13-.29.2-.48.2-1.47-.02-2.45-.02-2.95-.01-.46,0-.69.24-.69.71v.77c0,.34.09.87.28,1.58.08.29.11.59.11.9,0,1.23-.34,2.24-1.01,3.03s-1.71,1.4-3.12,1.84c-.07.02-.14.03-.21.03-.18,0-.33-.07-.47-.2-.14-.13-.2-.29-.2-.49,0-.33.16-.54.49-.64,1.33-.4,2.25-1.02,2.77-1.85.09-.15.14-.28.14-.38,0-.13-.07-.2-.21-.2-.08,0-.18.03-.29.08-.26.13-.55.2-.85.2-.69,0-1.25-.17-1.67-.52-.46-.38-.69-.91-.69-1.58s.26-1.25.77-1.67c.48-.38,1.07-.57,1.78-.57.06,0,.16,0,.29.01.13,0,.22.01.28.01.27,0,.41-.12.41-.35,0-.48-.24-.71-.71-.69-1.7.07-3.41.16-5.14.29-.2.02-.37-.04-.51-.17-.14-.13-.22-.3-.22-.5s.06-.34.19-.47.28-.19.46-.2l5.21-.25c.45-.02.67-.23.67-.63v-.63c0-.2.07-.37.22-.51.14-.14.32-.22.51-.22s.36.07.5.21.21.31.21.5v.53c0,.48.23.71.7.7,1.41-.02,2.4-.02,2.97-.01.19,0,.34.06.47.19s.19.28.19.47ZM206.06,102.2c.04-.13.06-.25.06-.36,0-.35-.15-.59-.45-.71-.16-.07-.35-.1-.56-.1-.32,0-.59.1-.8.31-.22.21-.33.46-.33.77,0,.64.34.97,1.02.97.56,0,.91-.29,1.06-.87Z"/>
      <path class="cls-1" d="M217.56,105.98c0,.57-.2,1.05-.6,1.45s-.89.59-1.46.59-1.05-.2-1.45-.59c-.4-.4-.59-.88-.59-1.45s.2-1.05.59-1.46c.4-.4.88-.6,1.45-.6s1.05.2,1.46.6.6.89.6,1.46ZM216.56,105.98c0-.3-.1-.55-.31-.76s-.46-.31-.76-.31-.54.1-.74.31-.31.46-.31.75.1.53.31.74c.21.2.45.3.74.3s.55-.1.76-.29.31-.44.31-.74Z"/>
      <path class="cls-1" d="M37.91,119.44c0,1.19-.42,2.15-1.26,2.86-.73.62-1.72,1.02-2.97,1.19-.2.03-.37-.03-.53-.16-.15-.13-.23-.3-.23-.5,0-.38.19-.61.56-.67,2-.34,3-1.27,3-2.77,0-1.04-.42-1.76-1.27-2.18-.11-.06-.22-.08-.32-.08-.24,0-.44.15-.59.46-.61,1.27-1.3,2.38-2.09,3.32-1.2,1.44-2.4,2.16-3.6,2.16-.62,0-1.09-.18-1.44-.53s-.51-.83-.51-1.43c0-1.06.31-2.03.94-2.9.48-.66,1.07-1.2,1.78-1.62.42-.25.64-.6.67-1.05v-.27c.03-.43-.17-.64-.59-.64-.52,0-1.12,0-1.78-.01-.18,0-.33-.07-.46-.2s-.19-.28-.19-.46.07-.33.2-.46c.14-.13.3-.19.48-.18.86.04,1.5.05,1.92.04.38,0,.6-.21.66-.6l.08-.6c.06-.41.27-.62.66-.62.2,0,.37.08.52.25s.21.34.18.52l-.04.27c-.04.22,0,.4.1.52.1.12.27.17.49.15.96-.08,2.04-.2,3.25-.38.2-.03.37.02.52.15.15.13.23.3.23.5,0,.38-.2.6-.59.64-1.47.18-2.67.29-3.6.35-.44.03-.67.23-.7.6-.02.22.03.38.15.48.12.1.29.13.51.11.36-.05.68-.07.94-.07,1.43,0,2.56.27,3.4.81,1,.65,1.5,1.66,1.5,3.01ZM29.52,121.48c.42-.22.61-.67.56-1.33,0-.42-.02-.83-.03-1.25-.04-.65-.16-.98-.36-.98-.13,0-.28.07-.45.22-.36.32-.66.72-.88,1.2-.24.51-.36,1.03-.36,1.54,0,.55.23.83.69.83.26,0,.54-.08.84-.24ZM33.04,117.35c.05-.09.07-.18.07-.25,0-.23-.15-.34-.43-.32-.43.03-.75.1-.95.22-.29.17-.44.45-.45.84,0,.35,0,.76.01,1.2,0,.28.11.42.29.42.13,0,.25-.08.36-.24.42-.59.78-1.21,1.09-1.88Z"/>
      <path class="cls-1" d="M45.37,117c-.49.83-.89,1.64-1.22,2.42-.14.34-.38.5-.71.5-.47,0-.74-.24-.81-.73-.08-.55-.13-1.38-.13-2.48s.16-2.42.48-3.93c.09-.46.34-.69.73-.69.2,0,.36.07.49.2.13.13.2.3.2.5,0,.06,0,.11-.01.17-.34,1.54-.51,2.7-.53,3.49,0,.31.06.46.21.46.12,0,.25-.11.39-.34l.07-.11c.09-.15.23-.22.42-.22.34,0,.5.17.5.5,0,.09-.02.18-.07.25ZM50.19,117.07c0,1.58-.28,2.87-.85,3.88-.6,1.05-1.58,1.93-2.94,2.65-.1.06-.21.08-.34.08-.2,0-.36-.08-.5-.23-.14-.15-.21-.33-.21-.52,0-.26.13-.46.39-.6,1.14-.6,1.94-1.32,2.39-2.16.43-.77.64-1.82.64-3.15,0-1.2-.13-2.62-.38-4.24-.04-.21.02-.41.17-.58s.33-.26.55-.26c.18,0,.33.06.47.18.14.12.22.27.25.45.24,1.75.36,3.25.36,4.51Z"/>
      <path class="cls-1" d="M62.77,116.85c0,1.51-.25,3.15-.74,4.93-.15.53-.31.91-.49,1.13-.25.34-.6.5-1.05.5-.51,0-1.16-.13-1.93-.41-.32-.11-.48-.32-.48-.63,0-.19.07-.35.2-.48s.29-.2.47-.2c.07,0,.14,0,.2.03.49.16.82.24,1.01.24.22,0,.38-.07.48-.2.07-.09.16-.3.25-.63.44-1.5.66-2.87.66-4.09,0-.45-.09-.75-.27-.9-.18-.15-.51-.22-1.01-.22h-.2c-.08,0-.15.01-.21.01-.47,0-.77.24-.91.73-.63,2.12-1.46,4.17-2.49,6.15-.14.27-.36.41-.66.41-.21,0-.38-.07-.52-.22-.14-.14-.21-.32-.21-.53,0-.15.03-.28.08-.38.88-1.54,1.65-3.28,2.32-5.22.03-.09.04-.18.04-.25,0-.34-.2-.48-.6-.42-.29.05-.74.11-1.36.2-.2.03-.38-.03-.54-.16-.16-.14-.25-.31-.25-.51,0-.39.21-.62.62-.68s1.06-.14,1.95-.25c.45-.04.75-.32.91-.84.08-.46.16-.92.24-1.37.07-.4.3-.6.7-.6.22,0,.4.08.54.24.14.16.18.36.15.58,0,.05-.05.25-.13.62-.07.25-.1.45-.1.6,0,.39.22.57.66.55h.21c.71-.06,1.28.07,1.72.36.48.34.73.97.73,1.89ZM64.65,113.78c0,.15-.05.28-.16.38-.11.11-.24.16-.39.16-.22,0-.39-.08-.49-.25-.27-.43-.56-.8-.87-1.11-.1-.1-.15-.23-.15-.38,0-.37.18-.56.55-.56.16,0,.3.07.42.21.39.44.72.85.98,1.23.07.11.11.21.11.31ZM65.54,118.68c-.39-1.02-.92-2.01-1.58-2.98-.08-.11-.11-.24-.11-.38,0-.2.07-.36.22-.5.14-.13.31-.2.51-.2.23,0,.42.1.57.31.74,1.04,1.33,2.11,1.79,3.22.04.09.06.19.06.28,0,.2-.08.37-.24.52-.16.15-.35.22-.55.22-.31,0-.53-.16-.66-.49ZM66.35,112.98c0,.15-.05.28-.16.38-.11.11-.24.16-.39.16-.21,0-.38-.08-.49-.25-.31-.46-.6-.83-.87-1.13-.1-.11-.15-.23-.15-.35,0-.37.19-.56.56-.56.14,0,.27.07.41.2.33.33.66.74.99,1.25.06.13.1.23.1.31Z"/>
      <path class="cls-1" d="M79.47,122.08c0,.4-.2.63-.6.69-1.54.21-3.08.32-4.62.32-2.74,0-4.12-.83-4.12-2.48,0-1.01.7-2.05,2.11-3.14.28-.21.42-.46.42-.74,0-.13-.03-.27-.08-.42-.41-1.04-.75-2.15-1.02-3.35,0-.05-.01-.1-.01-.15,0-.21.07-.38.22-.53.14-.14.32-.22.52-.22.18,0,.33.06.47.18s.22.27.26.45c.18.93.43,1.87.77,2.81.11.31.29.46.53.46.13,0,.27-.04.41-.13.08-.05,1.12-.61,3.09-1.69.12-.06.23-.1.34-.1.2,0,.36.07.5.21s.2.31.2.5c0,.29-.13.5-.39.63-1.15.57-2.39,1.24-3.72,2.02-.85.49-1.53.96-2.03,1.39-.73.62-1.09,1.19-1.09,1.71,0,.84.88,1.26,2.63,1.26,1.45,0,2.92-.13,4.41-.38.21-.04.39.01.56.15.17.14.25.32.25.53Z"/>
      <path class="cls-1" d="M93.31,118.11c0,1.44-.61,2.66-1.82,3.65-.97.81-2.24,1.42-3.81,1.83-.08.02-.13.03-.17.03-.19,0-.35-.07-.48-.2-.14-.14-.2-.3-.2-.5,0-.35.16-.56.49-.66,1.2-.35,2.19-.81,2.95-1.4,1.03-.77,1.54-1.68,1.54-2.72,0-1.25-.63-1.88-1.89-1.88s-2.88.33-4.77.99c-.08.03-.16.04-.22.04-.19,0-.35-.07-.49-.21-.14-.14-.21-.31-.21-.5,0-.35.17-.57.5-.67,2.19-.66,3.95-.99,5.26-.99,1.05,0,1.85.27,2.42.8.6.56.9,1.35.9,2.38ZM91.68,113.21c0,.21-.07.38-.22.51-.15.13-.32.19-.52.17-1.89-.17-3.39-.4-4.48-.7-.35-.09-.52-.32-.52-.67,0-.2.07-.36.2-.5.14-.13.3-.2.5-.2.06,0,.12,0,.18.03,1.24.34,2.65.56,4.21.67.18,0,.33.08.46.22.13.14.19.29.19.47Z"/>
      <path class="cls-1" d="M167.99,121.72c0,.39-.19.62-.57.7-1.47.27-2.9.41-4.27.41s-2.34-.11-3.11-.32c-1.25-.36-1.88-1.03-1.88-2.03,0-.68.44-1.46,1.33-2.35.12-.12.28-.18.46-.18.18,0,.33.06.46.19s.2.28.2.46c0,.17-.06.31-.18.43-.5.5-.76.94-.76,1.3,0,.78,1.19,1.16,3.56,1.16.93,0,2.25-.14,3.95-.43.21-.04.39.01.56.15.17.14.25.31.25.53ZM166.47,114.48c-.7.28-1.65.8-2.86,1.55-.12.08-.23.11-.32.11-.16,0-.3-.06-.41-.17s-.17-.26-.17-.43c0-.21.09-.38.28-.49l.18-.11c.18-.1.27-.21.27-.31,0-.12-.13-.18-.41-.18-.84,0-1.99-.03-3.44-.08-.18,0-.33-.08-.46-.21-.13-.13-.19-.28-.19-.46,0-.2.07-.36.22-.5.14-.13.31-.2.51-.19,1.84.13,4,.14,6.5.04.27,0,.49.06.65.2.16.14.24.31.24.5,0,.33-.2.57-.59.73ZM168.02,117.2c0,.15-.05.28-.16.38s-.24.16-.39.16c-.22,0-.39-.08-.49-.25-.27-.43-.56-.8-.87-1.11-.1-.1-.15-.23-.15-.38,0-.37.18-.56.55-.56.16,0,.3.07.42.21.39.44.72.85.98,1.23.07.11.11.21.11.31ZM169.73,116.4c0,.15-.05.28-.16.38s-.24.16-.39.16c-.21,0-.38-.08-.49-.25-.31-.46-.6-.83-.87-1.13-.1-.11-.15-.23-.15-.35,0-.37.19-.56.56-.56.14,0,.27.07.41.2.33.33.66.74.99,1.25.07.13.1.23.1.31Z"/>
      <path class="cls-1" d="M181.59,114.03c0,.28-.13.48-.39.6,0,0-.55.21-1.61.62-.3.11-.45.27-.45.46,0,.11.05.23.15.36.66.9,1.35,1.7,2.06,2.41.2.2.29.42.29.66,0,.21-.08.4-.23.55-.15.15-.35.22-.58.22-.15,0-.3-.03-.46-.1-1.13-.5-2.28-.76-3.46-.76-.86,0-1.53.13-2,.39-.48.26-.71.62-.71,1.08,0,1.05,1.14,1.58,3.42,1.58.91,0,1.81-.07,2.72-.2.2-.03.37.03.52.16.15.14.23.31.23.51,0,.17-.06.31-.17.44-.12.13-.25.2-.41.22-.91.12-1.81.18-2.72.18-3.34,0-5.01-.93-5.01-2.8,0-1.02.44-1.76,1.33-2.23.68-.36,1.58-.55,2.7-.55.51,0,1.02.06,1.51.18.16.04.29.06.39.06.2,0,.29-.07.29-.21,0-.11-.06-.24-.17-.38-.36-.43-.62-.76-.78-.99-.31-.42-.67-.63-1.09-.63-.11,0-.24.01-.38.04-1.06.18-2.33.27-3.79.27-.19,0-.34-.07-.48-.2-.13-.13-.2-.29-.2-.48s.07-.35.2-.48c.13-.13.29-.2.48-.2,1.01,0,2.04-.06,3.08-.18.33-.04.49-.18.49-.42,0-.12-.04-.25-.13-.38l-.48-.78c-.07-.11-.1-.23-.1-.35,0-.19.07-.35.2-.48.14-.13.3-.2.48-.2.28,0,.49.12.62.36.32.62.52.98.6,1.09.3.43.62.64.95.64.11,0,.24-.02.38-.06.58-.18,1.16-.4,1.74-.67.09-.05.19-.07.29-.07.19,0,.34.07.48.2.13.13.2.3.2.48ZM182.65,113.23c0,.14-.05.26-.15.36-.1.1-.22.15-.37.15-.2,0-.43-.17-.7-.52-.2-.26-.39-.52-.59-.78-.1-.1-.15-.22-.15-.35,0-.35.18-.53.53-.53.14,0,.27.07.39.2.38.43.7.82.94,1.18.07.09.1.19.1.29ZM184.29,112.46c0,.14-.05.26-.16.36-.11.1-.23.15-.37.15-.21,0-.36-.08-.46-.24-.3-.44-.57-.8-.83-1.08-.09-.1-.14-.21-.14-.34,0-.35.18-.53.53-.53.12,0,.25.07.38.2.34.34.65.73.95,1.18.07.13.1.23.1.29Z"/>
      <path class="cls-1" d="M191.33,120.42c-.82,1.61-1.61,2.42-2.37,2.42-.93,0-1.66-.83-2.17-2.49-.4-1.29-.6-2.75-.6-4.38,0-.84.03-1.56.08-2.17.02-.2.1-.36.23-.49.13-.13.3-.2.5-.2.21,0,.39.08.54.25s.21.35.19.57c-.07.62-.1,1.35-.1,2.17,0,1.07.12,2.14.35,3.19.26,1.17.61,1.75,1.04,1.75.31,0,.66-.42,1.05-1.26.12-.25.33-.38.63-.38.2,0,.36.07.5.2s.2.3.2.5c0,.12-.02.23-.07.32ZM197.39,119.98c.03.22-.03.42-.18.6-.15.18-.34.27-.57.27-.2,0-.37-.07-.52-.2-.15-.13-.23-.29-.25-.48-.23-2.12-.92-4-2.06-5.66-.08-.12-.13-.26-.13-.41,0-.21.07-.38.21-.52.14-.14.31-.21.52-.21.25,0,.45.1.6.31,1.29,1.79,2.08,3.89,2.38,6.29Z"/>
      <path class="cls-1" d="M210.97,121.7c0,.2-.07.36-.2.5-.13.14-.3.2-.5.2-.13,0-.25-.03-.36-.1-.93-.55-1.76-.97-2.49-1.25-.09-.04-.18-.06-.25-.06-.27,0-.43.19-.48.56-.08.56-.26.98-.56,1.25-.47.42-1.3.63-2.51.63-.77,0-1.4-.14-1.9-.43-.62-.36-.92-.91-.92-1.62,0-.81.39-1.41,1.16-1.78.58-.28,1.33-.42,2.24-.42.1,0,.26,0,.48.01.49.02.73-.19.73-.62v-.39c0-.47-.24-.7-.71-.69-.99.03-1.94.04-2.86.03-.17,0-.31-.06-.43-.19-.12-.13-.18-.27-.18-.44s.06-.31.19-.43c.13-.12.27-.17.44-.17.91.02,1.86.02,2.84,0,.46,0,.69-.25.69-.71v-.06c0-.48-.24-.7-.73-.69-1.13.05-2.2.06-3.21.03-.17,0-.31-.08-.43-.2-.12-.13-.18-.27-.18-.44,0-.18.07-.33.2-.45.13-.12.28-.18.46-.17,1.04.03,2.11.03,3.19,0,.46,0,.69-.23.69-.67,0-.04,0-.25-.01-.63,0-.19.06-.35.2-.48.13-.13.29-.2.48-.2s.34.07.48.2c.13.14.2.3.2.48v.48c0,.5.24.72.73.67.72-.08,1.5-.17,2.35-.29.19-.03.35.02.5.15.14.13.22.28.22.47,0,.36-.18.56-.55.6-1.01.13-1.86.23-2.56.29-.45.05-.67.29-.67.73v.04c0,.5.24.72.73.67.49-.05,1.18-.13,2.06-.27.19-.03.35.02.5.15.15.13.22.28.22.47,0,.36-.18.57-.53.62-.75.1-1.52.19-2.31.27-.45.04-.67.28-.67.73v.63c0,.51.26.85.77,1.02.95.31,1.99.76,3.12,1.36.24.13.36.34.36.62ZM205.36,121.16c.06-.47-.12-.72-.56-.76-.21-.02-.41-.03-.6-.03-1.34,0-2.02.32-2.02.97,0,.26.13.47.39.63.26.16.59.24,1.01.24.62,0,1.06-.07,1.32-.22.25-.14.41-.42.46-.83Z"/>
      <path class="cls-1" d="M225.04,119.62c0,.13-.04.26-.11.38-.63,1.04-1.4,1.86-2.28,2.48-1,.68-2.06,1.02-3.18,1.02-2.46,0-3.68-1.11-3.68-3.33,0-.9.02-2.09.06-3.57.03-1.19.05-2.49.07-3.89,0-.2.07-.37.22-.51s.32-.22.52-.22c.21,0,.38.08.53.22.15.15.22.33.21.53l-.17,7.13c0,1.47.77,2.2,2.32,2.2.83,0,1.63-.29,2.39-.88.65-.49,1.23-1.13,1.72-1.95.14-.23.35-.35.63-.35.21,0,.38.07.52.22.15.14.22.32.22.52Z"/>
      <path class="cls-1" d="M235.22,114.91c-.68.13-1.37.24-2.07.32-.38.05-.66.14-.83.29s-.3.41-.38.77c-.52,2.21-1.17,4.33-1.95,6.37-.12.31-.35.46-.69.46-.21,0-.38-.07-.52-.22-.14-.14-.21-.31-.21-.51,0-.09.02-.19.06-.28.79-1.88,1.44-3.86,1.95-5.96.02-.07.03-.14.03-.21,0-.33-.2-.48-.59-.48-.39,0-.75,0-1.08,0-.19,0-.35-.08-.48-.22-.14-.14-.2-.3-.2-.48,0-.2.07-.36.22-.5.15-.14.32-.21.51-.2.53.02.96.02,1.29.01.52-.02.82-.28.9-.77.03-.21.08-.51.14-.92.06-.41.3-.61.71-.61.2,0,.36.07.5.21s.21.3.21.49c0,.09-.04.33-.11.7,0,.07-.01.13-.01.18,0,.37.21.53.62.46.06,0,.38-.08.98-.2.45-.08.76-.13.92-.13.2,0,.36.07.48.21s.19.31.19.5c0,.38-.19.61-.57.69ZM239.65,122.28c0,.4-.2.63-.59.69-.89.13-1.82.2-2.8.2-2.48,0-3.72-.69-3.72-2.09,0-.32.08-.68.24-1.09.11-.28.32-.42.63-.42.44,0,.66.22.66.67,0,.08-.01.18-.04.32-.03.13-.04.24-.04.31,0,.63.8.95,2.39.95.7,0,1.53-.07,2.49-.21.21-.03.39.03.55.16.16.14.24.31.24.51ZM239.25,117.07c0,.2-.07.36-.22.5-.15.14-.32.21-.52.2-1.39-.07-2.88-.04-4.47.1-.2.02-.37-.04-.51-.17-.14-.13-.22-.3-.22-.5,0-.18.06-.33.17-.46.12-.13.26-.2.43-.22,1.58-.16,3.13-.21,4.65-.17.19,0,.35.08.48.22.14.14.2.3.2.49Z"/>
      <path class="cls-1" d="M245.78,121.98c0,.57-.2,1.05-.6,1.45s-.89.59-1.46.59-1.05-.2-1.45-.59c-.4-.4-.59-.88-.59-1.45s.2-1.05.59-1.46c.4-.4.88-.6,1.45-.6s1.05.2,1.46.6.6.89.6,1.46ZM244.78,121.98c0-.3-.1-.55-.31-.76s-.46-.31-.76-.31-.54.1-.74.31-.31.46-.31.75.1.53.31.74c.21.2.45.3.74.3s.55-.1.76-.29.31-.44.31-.74Z"/>
    </g>
    <g>
      <path class="cls-1" d="M223.45,148.58c-.89.18-1.84.27-2.86.27-.9,0-1.49-.28-1.79-.84-.17-.3-.28-.9-.32-1.81-.04-.61-.21-.91-.53-.91-.61,0-1.29.36-2.06,1.08-.24.22-.91.92-1.99,2.1-.15.16-.33.24-.55.24s-.38-.07-.52-.22c-.14-.15-.21-.32-.21-.53s.08-.37.22-.52c1.46-1.45,3.27-3.19,5.45-5.22.15-.14.22-.26.22-.35,0-.16-.17-.22-.5-.2l-3.58.28c-.2.02-.37-.04-.52-.17-.15-.14-.22-.3-.22-.5s.06-.35.19-.48.28-.2.46-.21l5.6-.32c.31-.02.56.05.75.21.19.16.29.36.29.59,0,.27-.13.52-.38.74-.54.48-1.17,1.06-1.88,1.74-.21.2-.31.34-.31.43,0,.1.12.17.36.2.6.07.93.52,1.01,1.36.07.74.12,1.17.15,1.29.12.46.38.69.77.69.3,0,.74-.05,1.33-.15.59-.1,1.02-.15,1.3-.15.19,0,.34.07.46.21.12.14.18.31.18.5,0,.36-.18.58-.53.66ZM220.86,138.71c0,.2-.07.36-.21.5-.14.13-.31.19-.5.17-1.73-.17-3.13-.4-4.2-.69-.34-.09-.5-.31-.5-.66,0-.19.07-.35.2-.48s.29-.2.48-.2c.06,0,.12,0,.18.03,1.07.3,2.39.52,3.95.66.18.02.32.09.44.21.12.12.17.27.17.45Z"/>
      <path class="cls-1" d="M231.19,142.54c-.49.83-.89,1.64-1.22,2.42-.14.34-.38.5-.71.5-.47,0-.74-.24-.81-.73-.08-.55-.13-1.38-.13-2.48s.16-2.42.48-3.93c.09-.46.34-.69.73-.69.2,0,.36.07.49.2.13.13.2.3.2.5,0,.06,0,.11-.01.17-.34,1.54-.51,2.7-.53,3.49,0,.31.06.46.21.46.12,0,.25-.11.39-.34l.07-.11c.09-.15.23-.22.42-.22.34,0,.5.17.5.5,0,.09-.02.18-.07.25ZM236,142.6c0,1.58-.29,2.87-.85,3.88-.6,1.05-1.58,1.93-2.94,2.65-.1.06-.21.08-.34.08-.2,0-.36-.08-.5-.23-.14-.15-.21-.33-.21-.52,0-.26.13-.46.39-.6,1.14-.6,1.94-1.32,2.39-2.16.43-.77.64-1.82.64-3.15,0-1.2-.13-2.62-.38-4.24-.04-.21.02-.41.17-.58s.33-.26.55-.26c.18,0,.33.06.47.18.14.12.22.27.25.45.24,1.75.36,3.25.36,4.51Z"/>
    </g>
  </g>
</svg>