<?xml version="1.0" encoding="UTF-8"?>
<svg xmlns="http://www.w3.org/2000/svg" viewBox="0 0 286.1 187">
  <defs>
    <style>
      .cls-1 {
        fill: #5b5b5b;
      }

      .cls-2 {
        fill: #f3fcff;
        stroke: #cecece;
        stroke-linecap: round;
        stroke-linejoin: round;
        stroke-width: 7px;
      }
    </style>
  </defs>
  <g id="_レイヤー_1" data-name="レイヤー 1">
    <path class="cls-2" d="M117.77,147.26c18.12,41.17,113.2,53.28,120.42,4.36,39.24,13.64,65.62-44.45,21.39-73.93,5.18-70.12-61.16-74.62-86.06-44.74-7.4-41.61-101.67-38.64-106.97,5.84-102.51,1.42-74.88,166.93,45.67,124.09"/>
  </g>
  <g id="hiroko2kb">
    <g>
      <path class="cls-1" d="M93.42,58.38c-.14-.17-.26-.25-.36-.25-.15,0-.22.16-.21.49.07,1.79-.26,3.21-.98,4.26-.78,1.13-1.97,1.69-3.56,1.69-1.13,0-2.04-.31-2.72-.92-.72-.64-1.08-1.53-1.08-2.65,0-1.5.51-3.04,1.53-4.61.13-.2.2-.35.2-.46,0-.13-.08-.2-.25-.2-.11,0-.26.03-.45.1-.64.22-1.06.34-1.25.34-.21,0-.39-.07-.52-.2-.14-.14-.2-.3-.2-.48,0-.38.19-.61.56-.67,1.26-.21,2.45-.52,3.56-.92.11-.04.22-.06.32-.06.22,0,.41.07.57.22.15.15.23.33.23.53,0,.18-.07.34-.2.49-1.81,2.03-2.72,3.96-2.72,5.81,0,.72.23,1.29.68,1.71.45.42,1.04.64,1.77.64,1.27,0,2.16-.53,2.67-1.58.37-.76.56-1.85.56-3.28,0-1.28-.19-2.57-.57-3.88-.03-.1-.04-.2-.04-.29,0-.21.06-.37.17-.5s.27-.19.46-.19c.32,0,.54.19.66.57.44,1.38,1.32,2.66,2.63,3.82.2.17.29.36.29.57,0,.2-.07.37-.22.51s-.31.22-.5.22c-.23,0-.58-.28-1.04-.84Z"/>
      <path class="cls-1" d="M103.21,62.19c-.71,1.42-1.41,2.13-2.11,2.13-.85,0-1.49-.73-1.93-2.18-.34-1.12-.5-2.39-.5-3.81,0-.76.03-1.4.08-1.92.02-.18.09-.32.22-.43s.28-.17.46-.17c.21,0,.37.07.5.22.13.15.19.32.17.52-.07.58-.1,1.21-.1,1.89,0,.93.1,1.85.29,2.74.21.97.49,1.46.84,1.46.25,0,.56-.35.92-1.06.11-.22.3-.34.56-.34.19,0,.34.07.47.2.13.13.19.28.19.46,0,.1-.02.2-.07.29ZM108.43,61.81c.03.21-.03.4-.18.56s-.32.24-.54.24c-.41,0-.64-.21-.69-.62-.21-1.83-.81-3.46-1.79-4.9-.08-.12-.13-.25-.13-.38,0-.19.07-.35.2-.48.13-.13.29-.2.48-.2.23,0,.42.1.56.29,1.13,1.62,1.82,3.44,2.09,5.47Z"/>
      <path class="cls-1" d="M121.7,58.38c-.14-.17-.26-.25-.36-.25-.15,0-.22.16-.21.49.07,1.79-.26,3.21-.98,4.26-.78,1.13-1.97,1.69-3.56,1.69-1.13,0-2.04-.31-2.72-.92-.72-.64-1.08-1.53-1.08-2.65,0-1.5.51-3.04,1.53-4.61.13-.2.2-.35.2-.46,0-.13-.08-.2-.25-.2-.11,0-.26.03-.45.1-.64.22-1.06.34-1.25.34-.21,0-.39-.07-.52-.2-.14-.14-.2-.3-.2-.48,0-.38.19-.61.56-.67,1.26-.21,2.45-.52,3.56-.92.11-.04.22-.06.32-.06.22,0,.41.07.57.22.15.15.23.33.23.53,0,.18-.07.34-.2.49-1.81,2.03-2.72,3.96-2.72,5.81,0,.72.23,1.29.68,1.71.45.42,1.04.64,1.77.64,1.27,0,2.16-.53,2.67-1.58.37-.76.56-1.85.56-3.28,0-1.28-.19-2.57-.57-3.88-.03-.1-.04-.2-.04-.29,0-.21.06-.37.17-.5s.27-.19.46-.19c.32,0,.54.19.66.57.44,1.38,1.32,2.66,2.63,3.82.2.17.29.36.29.57,0,.2-.07.37-.22.51s-.31.22-.5.22c-.23,0-.58-.28-1.04-.84Z"/>
      <path class="cls-1" d="M131.49,62.19c-.71,1.42-1.41,2.13-2.11,2.13-.85,0-1.49-.73-1.93-2.18-.34-1.12-.5-2.39-.5-3.81,0-.76.03-1.4.08-1.92.02-.18.09-.32.22-.43s.28-.17.46-.17c.21,0,.37.07.5.22.13.15.19.32.17.52-.07.58-.1,1.21-.1,1.89,0,.93.1,1.85.29,2.74.21.97.49,1.46.84,1.46.25,0,.56-.35.92-1.06.11-.22.3-.34.56-.34.19,0,.34.07.47.2.13.13.19.28.19.46,0,.1-.02.2-.07.29ZM136.71,61.81c.03.21-.03.4-.18.56s-.32.24-.54.24c-.41,0-.64-.21-.69-.62-.21-1.83-.81-3.46-1.79-4.9-.08-.12-.13-.25-.13-.38,0-.19.07-.35.2-.48.13-.13.29-.2.48-.2.23,0,.42.1.56.29,1.13,1.62,1.82,3.44,2.09,5.47Z"/>
      <path class="cls-1" d="M151.92,54.84c0,.17-.06.31-.18.43-.12.12-.27.18-.43.18h-11.14c-.17,0-.31-.06-.43-.18-.12-.12-.18-.27-.18-.43s.06-.31.18-.43.26-.17.43-.17h4.13c.47,0,.7-.23.7-.7v-.21c0-.2.07-.36.2-.5.14-.14.3-.2.5-.2s.36.07.5.2c.14.14.21.3.21.5v.21c0,.47.23.7.7.7h4.2c.17,0,.31.06.43.18.12.12.18.26.18.42ZM150.78,63.54c0,.77-.39,1.16-1.16,1.16h-7.78c-.77,0-1.16-.39-1.16-1.16v-1.69c0-.77.39-1.16,1.16-1.16h7.78c.78,0,1.16.39,1.16,1.16v1.69ZM150.25,57.01c0,.15-.05.28-.16.38-.11.11-.23.16-.38.16h-7.99c-.15,0-.28-.05-.39-.16-.11-.11-.16-.24-.16-.38s.05-.28.16-.39c.11-.11.24-.16.39-.16h7.99c.15,0,.28.05.38.16.11.11.16.24.16.39ZM150.25,59.11c0,.15-.05.28-.15.39-.1.11-.23.16-.38.16h-8.02c-.15,0-.28-.05-.38-.16-.1-.11-.15-.24-.15-.39s.05-.27.15-.38.23-.15.38-.15h8.02c.15,0,.28.05.38.15.1.1.15.23.15.38ZM149.44,62.98v-.66c0-.37-.19-.56-.56-.56h-6.3c-.37,0-.56.19-.56.56v.66c0,.37.19.56.56.56h6.3c.37,0,.56-.19.56-.56Z"/>
      <path class="cls-1" d="M159.66,61.6c-.82,1.61-1.61,2.42-2.37,2.42-.93,0-1.66-.83-2.17-2.49-.4-1.29-.6-2.75-.6-4.38,0-.84.03-1.56.08-2.17.02-.2.1-.36.23-.49.13-.13.3-.2.5-.2.21,0,.39.08.54.25.14.16.21.35.19.57-.07.63-.1,1.35-.1,2.17,0,1.07.12,2.14.35,3.19.26,1.17.61,1.75,1.04,1.75.31,0,.66-.42,1.05-1.26.12-.25.33-.38.63-.38.2,0,.36.07.5.2s.2.3.2.5c0,.12-.02.23-.07.32ZM165.72,61.16c.03.22-.03.42-.18.6s-.34.27-.57.27c-.2,0-.37-.07-.52-.2-.15-.13-.23-.29-.25-.48-.23-2.12-.92-4-2.06-5.66-.08-.12-.13-.26-.13-.41,0-.21.07-.38.21-.52.14-.14.31-.21.52-.21.25,0,.45.1.6.31,1.29,1.79,2.08,3.89,2.38,6.29Z"/>
      <path class="cls-1" d="M174.48,56.05c-.48.1-.94.19-1.39.25-.52.08-.87.37-1.05.87-.65,1.88-1.4,3.66-2.23,5.35-.13.27-.35.41-.64.41-.2,0-.36-.07-.5-.21-.14-.14-.21-.31-.21-.5,0-.11.03-.22.08-.34.78-1.51,1.46-3.04,2.03-4.59.04-.1.06-.19.06-.27,0-.29-.2-.43-.59-.43h-.8c-.19,0-.35-.07-.48-.2-.13-.14-.2-.3-.2-.48,0-.2.07-.36.21-.5s.31-.2.5-.19c.41.02.79.02,1.15.01.57,0,.92-.29,1.06-.85.08-.32.15-.63.24-.95.14-.35.37-.53.69-.53.2,0,.36.07.5.21.14.14.21.3.21.49,0,.07-.05.28-.14.6-.03.11-.04.21-.04.29,0,.28.13.42.38.42.05,0,.1,0,.15-.01l.73-.15c.08-.02.14-.03.17-.03.19,0,.34.07.46.2.12.14.18.3.18.5,0,.35-.18.57-.53.64ZM179.79,62.98c0,.19-.07.35-.2.49-.13.14-.3.21-.5.21-.12,0-.25-.04-.38-.13-.31-.21-.63-.4-.98-.59-.11-.07-.21-.1-.31-.1-.22,0-.38.16-.48.49-.27.94-1.1,1.41-2.49,1.41-.74,0-1.35-.16-1.85-.48-.59-.36-.88-.9-.88-1.6s.27-1.22.83-1.58c.48-.32,1.08-.48,1.81-.48.21,0,.44.02.7.06.21.03.38,0,.5-.1.12-.09.18-.25.18-.48v-2.04c-.01-.19.05-.35.18-.48s.29-.2.48-.2.35.07.48.2.2.29.2.48v2.35c.01.51.27.89.78,1.12.45.21.98.49,1.6.85.23.14.35.34.35.59ZM175.71,62.59c0-.39-.22-.63-.67-.7-.27-.05-.51-.07-.71-.07-.85,0-1.27.3-1.27.9,0,.27.11.48.34.64.23.15.52.23.89.23.65,0,1.08-.16,1.27-.48.1-.17.15-.34.15-.52ZM179.92,56.74c0,.19-.07.35-.2.48-.13.14-.3.2-.48.2-.13,0-.26-.04-.38-.13-.71-.48-1.46-.88-2.25-1.22-.26-.11-.39-.32-.39-.62,0-.19.07-.35.2-.48.13-.13.29-.2.47-.2.1,0,.19.02.25.06.88.37,1.7.81,2.46,1.3.21.14.32.34.32.59Z"/>
      <path class="cls-1" d="M190.33,58.03c0,1.51-.25,3.15-.74,4.93-.15.53-.31.91-.49,1.13-.25.34-.6.5-1.05.5-.51,0-1.16-.14-1.93-.41-.32-.11-.48-.32-.48-.63,0-.19.07-.35.2-.48.14-.13.29-.2.47-.2.08,0,.14,0,.2.03.49.16.82.24,1.01.24.22,0,.38-.07.48-.2.07-.09.16-.3.25-.63.44-1.5.66-2.87.66-4.09,0-.45-.09-.75-.27-.9s-.51-.22-1.01-.22h-.2c-.08,0-.15.01-.21.01-.47,0-.77.24-.91.73-.62,2.12-1.46,4.17-2.49,6.15-.14.27-.36.41-.66.41-.21,0-.38-.07-.52-.22-.14-.14-.21-.32-.21-.53,0-.15.03-.27.08-.38.88-1.54,1.65-3.28,2.32-5.22.03-.09.04-.18.04-.25,0-.34-.2-.48-.6-.42-.29.05-.74.11-1.36.2-.2.03-.38-.03-.54-.16s-.25-.31-.25-.51c0-.39.21-.62.62-.68.41-.06,1.06-.14,1.95-.25.45-.04.75-.32.91-.84.08-.46.16-.91.24-1.37.07-.4.3-.6.7-.6.22,0,.4.08.54.25.13.16.18.36.15.58,0,.05-.05.25-.13.62-.06.25-.1.45-.1.6,0,.39.22.57.66.55h.21c.71-.06,1.28.07,1.72.36.49.34.73.97.73,1.89ZM192.21,54.96c0,.15-.05.28-.16.38s-.24.16-.38.16c-.22,0-.39-.08-.49-.25-.27-.43-.56-.8-.87-1.11-.1-.1-.15-.23-.15-.38,0-.37.18-.56.55-.56.16,0,.3.07.42.21.39.44.72.85.98,1.23.07.11.11.21.11.31ZM193.1,59.86c-.39-1.02-.92-2.01-1.58-2.98-.07-.11-.11-.24-.11-.38,0-.2.07-.36.22-.5s.31-.2.51-.2c.23,0,.42.1.57.31.74,1.04,1.33,2.11,1.79,3.22.04.09.06.19.06.28,0,.2-.08.37-.25.52-.16.15-.35.22-.55.22-.31,0-.53-.16-.66-.49ZM193.92,54.16c0,.15-.05.28-.16.39s-.24.16-.38.16c-.21,0-.38-.08-.49-.25-.31-.46-.6-.83-.87-1.13-.1-.11-.15-.23-.15-.35,0-.37.19-.56.56-.56.14,0,.28.07.41.2.33.33.66.74.99,1.25.07.13.1.23.1.31Z"/>
      <path class="cls-1" d="M207.58,60.84c0,1.36-.67,2.37-2.02,3.01-1.1.53-2.46.78-4.09.76h-.97c-.18-.01-.33-.08-.46-.22-.13-.14-.2-.29-.2-.47,0-.19.07-.35.21-.48.14-.13.31-.2.5-.19.51.02.83.03.97.03,1.09,0,2.04-.15,2.86-.46,1.14-.42,1.71-1.08,1.71-1.99,0-.61-.23-1.06-.7-1.37-.38-.25-.9-.38-1.54-.38-.77,0-1.58.17-2.42.52s-1.54.8-2.11,1.35c-.31.3-.61.45-.91.45-.23,0-.42-.09-.55-.28-.13-.19-.19-.43-.17-.74l.28-4.33c.03-.43.26-.64.69-.64.21,0,.38.07.52.22.14.15.2.32.18.52l-.18,2.35c-.03.4.09.6.36.6.13,0,.28-.05.45-.15,1.26-.79,2.59-1.19,4-1.19,1.06,0,1.91.24,2.53.73.7.53,1.05,1.32,1.05,2.35ZM204.3,55.03c0,.2-.07.36-.2.5-.14.14-.31.21-.51.21-.12,0-.21-.02-.28-.06-1.08-.5-2.34-.93-3.77-1.29-.35-.08-.53-.3-.53-.66,0-.19.07-.35.2-.48.13-.13.29-.2.47-.2.07,0,.13,0,.15.01,1.39.32,2.73.74,4.02,1.27.3.12.45.35.45.67Z"/>
      <path class="cls-1" d="M222.33,58.38c0,1.53-.72,2.73-2.16,3.58-1.06.64-2.47,1.08-4.23,1.3-.21.03-.39-.03-.55-.17-.16-.14-.24-.31-.24-.52,0-.18.06-.33.18-.47.12-.14.27-.21.43-.23,3.35-.43,5.03-1.6,5.03-3.5,0-1.34-.88-2.02-2.65-2.02-1.38,0-3.59.4-6.64,1.2-.07.02-.13.03-.2.03-.2,0-.37-.07-.51-.21-.15-.14-.22-.31-.22-.52,0-.38.19-.62.56-.71,3.25-.77,5.59-1.16,7.04-1.16,1.18,0,2.11.23,2.8.69.89.59,1.33,1.49,1.33,2.7Z"/>
      <path class="cls-1" d="M55.45,76.6c-.82,1.61-1.61,2.42-2.37,2.42-.93,0-1.66-.83-2.17-2.49-.4-1.29-.6-2.75-.6-4.38,0-.84.03-1.56.08-2.17.02-.2.1-.36.23-.49s.3-.2.5-.2c.21,0,.39.08.54.25.14.16.21.35.19.57-.07.63-.1,1.35-.1,2.17,0,1.07.12,2.14.35,3.19.26,1.17.61,1.75,1.04,1.75.31,0,.66-.42,1.05-1.26.12-.25.33-.38.63-.38.2,0,.36.07.5.2s.2.3.2.5c0,.12-.02.23-.07.32ZM61.51,76.16c.03.22-.03.42-.18.6-.15.18-.34.27-.57.27-.2,0-.37-.07-.52-.2-.15-.13-.23-.29-.25-.48-.23-2.12-.92-4-2.06-5.66-.08-.12-.13-.26-.13-.41,0-.21.07-.38.21-.52.14-.14.31-.21.52-.21.25,0,.45.1.6.31,1.29,1.79,2.08,3.89,2.38,6.29Z"/>
      <path class="cls-1" d="M75.4,69.61c0,.37-.25.6-.76.67-1.41.21-2.66.8-3.75,1.74-1.09.95-1.64,1.94-1.64,2.99,0,1.47,1.21,2.43,3.63,2.9.4.07.6.31.6.71,0,.22-.09.41-.26.56-.17.15-.37.21-.6.17-1.35-.23-2.44-.65-3.26-1.26-1.03-.75-1.54-1.74-1.54-2.97,0-.99.34-1.9,1.02-2.74.27-.34.57-.64.9-.91.28-.23.42-.43.42-.6,0-.22-.24-.32-.71-.28-1.46.13-3.01.29-4.66.49-.21.03-.38-.03-.53-.17-.15-.14-.22-.31-.22-.52,0-.18.06-.33.17-.46.12-.13.26-.21.44-.22,1.69-.17,4.99-.42,9.9-.76.25-.02.46.04.62.16s.24.29.24.5Z"/>
      <path class="cls-1" d="M89.06,71.8c0,.3-.15.5-.43.6-.62.21-1.18.38-1.68.5-.3.07-.45.22-.45.43,0,.12.05.25.14.38.46.63.88,1.18,1.27,1.62.13.15.2.32.2.5,0,.21-.07.4-.22.55-.15.15-.33.23-.55.23-.11,0-.22-.02-.32-.06-1.24-.49-2.41-.74-3.5-.74-1.79,0-2.69.42-2.69,1.27s1.13,1.25,3.39,1.25c.77,0,1.65-.05,2.63-.15.19-.02.35.03.5.16.15.13.22.28.22.47,0,.38-.2.59-.59.63-.89.09-1.82.14-2.8.14-3.15,0-4.72-.82-4.72-2.46s1.26-2.45,3.78-2.45c.59,0,1.27.09,2.06.27.07.02.14.03.2.03.19,0,.28-.06.28-.2,0-.09-.05-.2-.14-.32-.05-.06-.17-.24-.38-.52-.25-.35-.56-.52-.94-.52-.11,0-.24,0-.38.03-1.3.18-2.72.26-4.27.24-.17,0-.31-.06-.43-.18-.12-.12-.17-.27-.17-.43s.06-.31.18-.44c.12-.13.27-.18.43-.18,1.16.04,2.39-.01,3.71-.15.35-.04.53-.18.53-.42,0-.11-.04-.22-.11-.32-.22-.38-.55-.55-.97-.5-.8.09-1.73.14-2.77.14-.16,0-.3-.06-.43-.18-.13-.12-.19-.26-.19-.42,0-.17.06-.31.19-.43s.27-.17.43-.17c.77,0,1.49-.01,2.16-.07.39-.04.59-.16.59-.38,0,0-.08-.21-.25-.62-.03-.07-.04-.14-.04-.22,0-.19.07-.35.2-.48.13-.14.29-.2.49-.2.31,0,.52.15.63.45.04.11.1.28.2.52.14.35.37.53.7.53.08,0,.17-.01.27-.04.65-.17,1.31-.37,1.96-.6.07-.03.14-.04.21-.04.18,0,.33.06.45.18s.19.27.19.45c0,.32-.15.52-.45.62-.69.22-1.3.4-1.82.52-.34.07-.5.23-.5.46,0,.1.04.21.11.31l.03.04c.2.3.43.45.71.45.07,0,.15,0,.24-.03.74-.18,1.43-.39,2.07-.63.05-.02.11-.03.2-.03.18,0,.33.06.46.18.13.12.19.27.19.45Z"/>
      <path class="cls-1" d="M103.37,77.89c0,.2-.07.36-.2.5s-.3.2-.5.2c-.13,0-.25-.03-.36-.1-.93-.55-1.76-.97-2.49-1.25-.09-.04-.18-.06-.25-.06-.27,0-.43.19-.48.56-.07.56-.26.98-.56,1.25-.47.42-1.3.63-2.51.63-.77,0-1.4-.14-1.9-.43-.62-.36-.92-.9-.92-1.62,0-.81.39-1.4,1.16-1.78.58-.28,1.33-.42,2.24-.42.1,0,.26,0,.48.01.49.02.73-.19.73-.62v-.39c0-.47-.24-.7-.71-.69-.99.03-1.94.04-2.86.03-.17,0-.31-.06-.43-.19-.12-.13-.17-.27-.17-.44s.06-.31.19-.43.27-.18.44-.18c.91.02,1.86.02,2.84,0,.46,0,.69-.25.69-.71v-.06c0-.48-.24-.7-.73-.69-1.13.05-2.2.06-3.21.03-.17,0-.31-.08-.43-.2-.12-.13-.18-.27-.18-.44,0-.18.07-.33.2-.45.13-.12.28-.18.46-.17,1.04.03,2.11.03,3.19,0,.46,0,.69-.23.69-.67,0-.04,0-.25-.01-.63,0-.19.07-.35.2-.48.13-.14.29-.2.48-.2s.35.07.48.2.2.3.2.48v.48c0,.49.24.72.73.67.72-.07,1.5-.17,2.35-.29.19-.03.35.02.5.15.15.13.22.28.22.47,0,.35-.18.56-.55.6-1.01.13-1.86.23-2.56.29-.45.05-.67.29-.67.73v.04c0,.5.24.72.73.67.49-.05,1.18-.14,2.06-.27.19-.03.35.02.5.15s.22.28.22.47c0,.36-.18.57-.53.62-.75.1-1.52.19-2.31.27-.45.04-.67.28-.67.73v.63c0,.51.26.85.77,1.02.95.31,1.99.76,3.12,1.36.24.13.36.34.36.62ZM97.75,77.34c.07-.47-.12-.72-.56-.76-.21-.02-.41-.03-.6-.03-1.34,0-2.02.32-2.02.97,0,.26.13.47.38.63s.6.24,1.02.24c.62,0,1.06-.07,1.32-.22s.41-.42.46-.83Z"/>
      <path class="cls-1" d="M117.44,75.8c0,.13-.04.26-.11.38-.63,1.04-1.4,1.86-2.28,2.48-1,.68-2.06,1.02-3.18,1.02-2.46,0-3.68-1.11-3.68-3.33,0-.91.02-2.1.06-3.57.03-1.19.05-2.49.07-3.89,0-.2.07-.37.22-.51.15-.14.32-.22.52-.22s.38.07.53.22.22.33.21.53l-.17,7.13c0,1.47.77,2.2,2.32,2.2.83,0,1.63-.29,2.39-.88.65-.48,1.23-1.13,1.72-1.95.14-.23.35-.35.63-.35.21,0,.38.07.52.22s.22.32.22.52Z"/>
      <path class="cls-1" d="M127.62,71.1c-.68.13-1.37.24-2.07.32-.38.05-.66.15-.83.29-.17.15-.3.41-.39.77-.52,2.21-1.17,4.34-1.95,6.37-.12.31-.35.46-.69.46-.21,0-.38-.07-.52-.22s-.21-.31-.21-.51c0-.09.02-.19.06-.28.79-1.88,1.44-3.86,1.95-5.96.02-.07.03-.14.03-.21,0-.33-.2-.49-.59-.48s-.75,0-1.08,0c-.19,0-.35-.08-.48-.22-.14-.13-.2-.3-.2-.48s.07-.36.22-.5c.14-.14.31-.21.51-.2.53.02.96.02,1.29.01.52-.02.82-.27.9-.77.03-.21.07-.51.14-.92.07-.41.3-.61.71-.61.2,0,.36.07.5.21.14.14.21.3.21.49,0,.09-.04.33-.11.7,0,.07-.01.13-.01.18,0,.37.21.53.62.46.06,0,.38-.07.98-.2.45-.08.76-.13.92-.13.2,0,.36.07.48.21s.19.31.19.5c0,.38-.19.61-.57.69ZM132.04,78.46c0,.4-.2.63-.59.69-.89.13-1.82.2-2.8.2-2.48,0-3.72-.7-3.72-2.09,0-.32.08-.68.24-1.09.11-.28.32-.42.63-.42.44,0,.66.22.66.67,0,.08-.01.18-.04.31-.03.14-.04.24-.04.32,0,.63.8.95,2.39.95.7,0,1.53-.07,2.49-.21.21-.03.39.03.55.16s.24.31.24.51ZM131.65,73.25c0,.2-.08.36-.22.5-.15.14-.32.21-.52.2-1.39-.07-2.88-.04-4.47.1-.2.02-.37-.04-.51-.18-.14-.14-.22-.3-.22-.5,0-.18.06-.33.17-.45s.26-.2.43-.22c1.58-.16,3.13-.21,4.65-.17.19,0,.35.08.48.22s.2.3.2.49Z"/>
      <path class="cls-1" d="M142.68,73.03c0,1.51-.25,3.15-.74,4.93-.15.53-.31.91-.49,1.13-.25.34-.6.5-1.05.5-.51,0-1.16-.14-1.93-.41-.32-.11-.48-.32-.48-.63,0-.19.07-.35.2-.48.14-.13.29-.2.47-.2.07,0,.14,0,.2.03.49.16.82.24,1.01.24.22,0,.38-.07.48-.2.07-.09.16-.3.25-.63.44-1.5.66-2.87.66-4.09,0-.45-.09-.75-.27-.9s-.51-.22-1.01-.22h-.2c-.08,0-.15.01-.21.01-.47,0-.77.24-.91.73-.63,2.12-1.46,4.17-2.49,6.15-.14.27-.36.41-.66.41-.21,0-.38-.07-.52-.22-.14-.14-.21-.32-.21-.53,0-.15.03-.27.08-.38.88-1.54,1.65-3.28,2.32-5.22.03-.09.04-.18.04-.25,0-.34-.2-.48-.6-.42-.29.05-.74.11-1.36.2-.2.03-.38-.03-.54-.16s-.25-.31-.25-.51c0-.39.21-.62.62-.68.41-.06,1.06-.14,1.95-.25.45-.04.75-.32.91-.84.08-.46.16-.91.24-1.37.07-.4.3-.6.7-.6.22,0,.4.08.54.25.14.16.18.36.15.58,0,.05-.05.25-.13.62-.07.25-.1.45-.1.6,0,.39.22.57.66.55h.21c.71-.06,1.28.07,1.72.36.48.34.73.97.73,1.89ZM144.56,69.96c0,.15-.05.28-.16.38-.11.11-.24.16-.39.16-.22,0-.39-.08-.49-.25-.27-.43-.56-.8-.87-1.11-.1-.1-.15-.23-.15-.38,0-.37.18-.56.55-.56.16,0,.3.07.42.21.39.44.72.85.98,1.23.07.11.11.21.11.31ZM145.45,74.86c-.39-1.02-.92-2.01-1.58-2.98-.08-.11-.11-.24-.11-.38,0-.2.07-.36.22-.5.14-.14.31-.2.51-.2.23,0,.42.1.57.31.74,1.04,1.33,2.11,1.79,3.22.04.09.06.19.06.28,0,.2-.08.37-.24.52-.16.15-.35.22-.55.22-.31,0-.53-.16-.66-.49ZM146.26,69.16c0,.15-.05.28-.16.39s-.24.16-.38.16c-.21,0-.38-.08-.49-.25-.31-.46-.6-.83-.87-1.13-.1-.11-.15-.23-.15-.35,0-.37.19-.56.56-.56.14,0,.28.07.41.2.33.33.66.74.99,1.25.06.13.1.23.1.31Z"/>
      <path class="cls-1" d="M152,79.08c0,.22-.07.41-.22.56-.15.15-.34.22-.56.22-.24,0-.44-.09-.6-.28-.55-.66-1.11-1.23-1.67-1.71-.18-.15-.27-.34-.27-.56s.07-.39.22-.54c.14-.14.32-.22.54-.22.19,0,.35.06.49.18.78.68,1.41,1.28,1.88,1.81.13.14.2.32.2.53Z"/>
      <path class="cls-1" d="M168.57,76.6c-.82,1.61-1.61,2.42-2.37,2.42-.93,0-1.66-.83-2.17-2.49-.4-1.29-.6-2.75-.6-4.38,0-.84.03-1.56.08-2.17.02-.2.1-.36.23-.49.13-.13.3-.2.5-.2.21,0,.39.08.54.25.14.16.21.35.19.57-.07.63-.1,1.35-.1,2.17,0,1.07.12,2.14.35,3.19.26,1.17.61,1.75,1.04,1.75.31,0,.66-.42,1.05-1.26.12-.25.33-.38.63-.38.2,0,.36.07.5.2s.2.3.2.5c0,.12-.02.23-.07.32ZM174.63,76.16c.03.22-.03.42-.18.6s-.34.27-.57.27c-.2,0-.37-.07-.52-.2-.15-.13-.23-.29-.25-.48-.23-2.12-.92-4-2.06-5.66-.08-.12-.13-.26-.13-.41,0-.21.07-.38.21-.52.14-.14.31-.21.52-.21.25,0,.45.1.6.31,1.29,1.79,2.08,3.89,2.38,6.29Z"/>
      <path class="cls-1" d="M188.82,73.38c0,1.53-.72,2.73-2.16,3.58-1.06.64-2.47,1.08-4.23,1.3-.21.03-.39-.03-.55-.17-.16-.14-.24-.31-.24-.52,0-.18.06-.33.18-.47.12-.14.27-.21.43-.23,3.35-.43,5.03-1.6,5.03-3.5,0-1.34-.88-2.02-2.65-2.02-1.38,0-3.59.4-6.64,1.2-.07.02-.13.03-.2.03-.2,0-.37-.07-.51-.21-.15-.14-.22-.31-.22-.52,0-.38.19-.62.56-.71,3.25-.77,5.59-1.16,7.04-1.16,1.18,0,2.11.23,2.8.69.89.59,1.33,1.49,1.33,2.7Z"/>
      <path class="cls-1" d="M202.28,76.42c0,1.03-.38,1.85-1.14,2.46-.76.61-1.8.92-3.13.92-2.62,0-3.93-1.11-3.93-3.33,0-.19,0-.46.03-.81.02-.42-.21-.68-.7-.78-.42-.03-.84-.06-1.25-.1-.17-.02-.31-.09-.42-.22-.11-.13-.17-.28-.17-.45,0-.2.08-.36.23-.5s.33-.19.53-.16c.29.05.72.11,1.29.18.46.06.71-.15.77-.63l.06-.5c.06-.47-.15-.72-.63-.77-.22-.02-.53-.06-.93-.11s-.59-.27-.59-.66c0-.2.08-.36.23-.49.15-.13.33-.18.53-.15.19.03.51.07.97.11.46.05.71-.16.77-.62l.15-1.19c.06-.42.29-.63.7-.63.22,0,.41.08.55.25s.2.36.16.57l-.15.98c-.04.24,0,.43.11.57.11.14.29.2.52.19.78-.02,1.49-.06,2.11-.13.19-.02.35.04.5.16s.22.28.22.47c0,.17-.06.31-.17.44-.11.13-.25.2-.41.22-.86.09-1.7.14-2.53.14-.45,0-.7.21-.74.64l-.06.5c-.03.23.01.42.13.55.11.13.28.2.52.2.79,0,1.58-.06,2.37-.14.2-.02.37.03.51.16s.22.29.22.48c0,.17-.06.32-.17.44-.12.13-.26.2-.43.22-.79.07-1.68.11-2.67.11-.48,0-.72.26-.74.78v.5c0,1.46.86,2.18,2.59,2.18.76,0,1.39-.17,1.9-.5.6-.39.9-.95.9-1.67,0-.53-.13-1.07-.38-1.62-.06-.12-.08-.22-.08-.29,0-.2.07-.36.21-.49.14-.13.31-.2.5-.2.31,0,.52.14.64.41.35.77.53,1.54.53,2.31Z"/>
      <path class="cls-1" d="M217.3,74.48c0,.11-.03.21-.08.31-.5.86-1.04,1.29-1.64,1.29-.35,0-.67-.13-.98-.38-.19-.15-.35-.22-.5-.22-.14,0-.33.1-.56.31-.17.15-.34.3-.5.46-.12.1-.26.15-.41.15-.16,0-.3-.06-.41-.18-.12-.12-.17-.26-.17-.43,0-.2.07-.35.22-.46.29-.21.58-.46.87-.74.18-.17.27-.35.27-.56,0-.12-.03-.25-.08-.39-.29-.8-.51-1.75-.66-2.83-.05-.35-.25-.53-.6-.53h-4.12c-.4,0-.6.2-.6.6v.88c0,1.68-.33,3.05-.98,4.12-.13.21-.32.32-.57.32-.19,0-.34-.06-.47-.19s-.19-.28-.19-.46c0-.13.03-.25.1-.35.6-.94.9-2.22.9-3.84v-1.08c0-.79.4-1.19,1.19-1.19h4.59c.37,0,.56-.15.55-.43v-.43c-.02-.18.03-.33.15-.45.12-.12.27-.18.45-.18.17,0,.31.06.42.17.11.12.17.25.18.41v.36c.02.36.21.55.57.55h.87l-.07-.04-.56-.41c-.12-.08-.18-.21-.18-.39,0-.14.05-.26.16-.36s.23-.15.37-.15c.11,0,.22.04.34.11l.49.34c.19.16.28.32.28.48,0,.18-.08.32-.24.43h.62c.16,0,.3.06.41.17.12.12.17.25.17.41s-.06.3-.17.41c-.12.12-.25.17-.41.17h-1.92c-.41,0-.59.2-.53.6.07.5.16.97.25,1.4.05.21.14.31.29.31.12,0,.22-.08.29-.25.16-.36.29-.74.39-1.13.08-.28.26-.42.55-.42.16,0,.29.06.4.17.11.11.16.24.16.39,0,.07,0,.13-.03.18-.26.81-.58,1.54-.97,2.2-.12.2-.18.37-.18.52,0,.16.07.3.21.42.14.12.29.18.45.18.09,0,.24-.16.44-.48.2-.32.41-.48.64-.48.17,0,.3.06.41.17.1.11.15.25.15.42ZM207.46,76.77s0,.1-.03.2c-.3.86-.69,1.64-1.18,2.34-.13.19-.3.28-.52.28-.18,0-.32-.06-.44-.18-.12-.12-.17-.27-.17-.43,0-.13.04-.25.11-.35.46-.62.82-1.3,1.08-2.04.09-.26.28-.39.56-.39.17,0,.31.06.42.17.11.12.17.25.17.41ZM212.3,71.45c0,.13-.05.25-.15.34-.1.1-.21.15-.34.15h-3.44c-.13,0-.24-.05-.34-.15-.1-.1-.15-.21-.15-.34s.05-.25.15-.34c.1-.1.21-.15.34-.15h3.44c.13,0,.25.05.34.15.1.1.15.21.15.34ZM212.08,74.64c0,.65-.33.98-.98.98h-2.09c-.65,0-.98-.33-.98-.98v-1.04c0-.65.33-.98.98-.98h2.09c.65,0,.98.33.98.98v1.04ZM214.54,77.96c-.05.78-.21,1.29-.49,1.53-.28.24-.83.36-1.65.36h-2.52c-.55,0-.93-.08-1.13-.25-.21-.16-.31-.47-.31-.92v-1.78c0-.17.06-.31.18-.43.12-.12.27-.18.43-.18s.31.06.43.18c.12.12.18.27.18.43v1.19c0,.25.04.41.12.47.08.06.26.09.54.09h1.83c.43,0,.71-.12.85-.35.07-.22.14-.45.23-.68.09-.23.31-.34.67-.34.19,0,.34.07.46.2.12.14.18.29.17.47ZM210.97,74.29v-.29c0-.26-.15-.39-.46-.39h-.9c-.32,0-.48.13-.48.39v.29c0,.26.16.39.48.39h.9c.31,0,.46-.13.46-.39ZM212.36,77.42c0,.16-.06.29-.17.4-.11.11-.25.16-.41.16-.21,0-.36-.07-.46-.21-.22-.32-.5-.64-.83-.98-.1-.1-.15-.23-.15-.38s.06-.28.17-.38.24-.16.39-.16.28.06.39.17c.34.35.65.68.92,1.01.09.11.14.24.14.38ZM217.34,78.68c0,.18-.07.33-.2.46s-.29.19-.46.19c-.25,0-.44-.12-.57-.36-.35-.68-.78-1.32-1.27-1.92-.07-.08-.1-.21-.1-.36,0-.17.06-.31.18-.43.12-.12.26-.18.43-.18.19,0,.34.08.48.24.62.77,1.1,1.45,1.44,2.04.06.09.08.2.08.32Z"/>
      <path class="cls-1" d="M223.15,70.02c0,.17-.06.31-.17.42-.11.11-.25.17-.42.17h-2.81c-.17,0-.31-.06-.42-.17-.11-.11-.17-.25-.17-.42,0-.16.06-.3.17-.41.12-.12.25-.17.41-.17h.34c.33,0,.49-.16.49-.49v-.71c0-.17.06-.31.18-.43.12-.12.27-.18.43-.18s.31.06.43.18.18.26.18.43v.71c0,.33.16.49.49.49h.27c.16,0,.3.06.41.17.12.12.17.25.17.41ZM222.91,78.78c0,.65-.33.98-.98.98h-1.48c-.65,0-.98-.33-.98-.98v-2.11c0-.65.33-.98.98-.98h1.48c.65,0,.98.33.98.98v2.11ZM222.87,72.13c0,.16-.06.29-.17.4s-.24.16-.39.16h-2.24c-.15,0-.28-.05-.38-.16s-.16-.24-.16-.4c0-.15.05-.28.16-.39.11-.11.24-.16.38-.16h2.24c.15,0,.28.05.39.16.11.11.17.24.17.39ZM222.87,74.16c0,.15-.05.28-.16.39s-.24.16-.38.16h-2.25c-.15,0-.28-.05-.38-.16s-.16-.24-.16-.39.05-.28.16-.38.24-.16.38-.16h2.25c.15,0,.28.05.38.16s.16.24.16.38ZM221.84,78.15v-.9c0-.31-.15-.46-.45-.46h-.36c-.3,0-.45.15-.45.46v.9c0,.3.15.45.45.45h.36c.3,0,.45-.15.45-.45ZM227.48,74.6c-.2.33-.29.68-.29,1.05v2.8c0,.6-.09,1-.27,1.22-.18.21-.51.32-.99.32h-.62c-.15,0-.28-.06-.39-.17-.11-.11-.16-.25-.16-.41,0-.15.05-.28.16-.38.11-.11.24-.16.39-.16h.28c.22,0,.37-.05.45-.14.08-.09.11-.26.11-.5v-.99c0-.26-.07-.39-.2-.39-.08,0-.19.07-.31.2-.43.47-.93.95-1.5,1.44-.09.08-.22.13-.38.13-.37,0-.56-.19-.56-.56,0-.21.08-.36.25-.48.44-.3.91-.67,1.4-1.11.13-.11.2-.21.2-.29,0-.11-.08-.17-.25-.17-.06,0-.12,0-.18.03-.23.06-.58.14-1.05.24-.16.04-.31,0-.45-.11-.14-.11-.21-.25-.21-.42,0-.23.08-.39.22-.46.24-.12.36-.27.36-.46v-4.7c0-.56.24-.88.71-.95.32-.06.5-.2.55-.43l.13-.66c.06-.32.26-.48.59-.48.17,0,.31.06.41.17.11.11.16.25.16.41,0,.05,0,.09-.01.14l-.08.36c0,.06-.01.11-.01.15,0,.21.13.31.41.31.56,0,.84.33.84.98v3.36c0,.14.08.26.24.35.13.08.2.2.2.36,0,.13-.05.27-.14.42ZM226.13,70.76v-.1c0-.3-.13-.45-.38-.45h-.8c-.24,0-.36.15-.36.45v.1c0,.23.12.35.35.35h.84c.23,0,.35-.12.35-.35ZM226.13,72.59v-.18c0-.23-.12-.35-.35-.35h-.84c-.23,0-.35.12-.35.35v.18c0,.23.12.35.35.35h.84c.23,0,.35-.12.35-.35ZM226.15,74.39v-.11c0-.23-.12-.35-.35-.35h-.85c-.23,0-.35.12-.35.35v.35c0,.25.14.35.43.31.23-.04.47-.07.7-.11.28-.08.42-.23.42-.43ZM231.93,70.93c0,.17-.06.31-.18.43s-.27.18-.43.18c-.33,0-.49.19-.49.56v5.98c0,.77-.13,1.26-.38,1.5-.19.18-.57.27-1.16.27h-.57c-.17,0-.31-.06-.43-.18s-.18-.27-.18-.43.06-.31.18-.43.27-.18.43-.18h.24c.34,0,.54-.08.62-.25.05-.11.07-.36.07-.74v-5.53c0-.37-.19-.56-.56-.56h-.95c-.17,0-.31-.06-.43-.18-.12-.12-.17-.27-.17-.43s.06-.31.17-.43c.12-.12.26-.18.43-.18h.91c.37,0,.56-.19.56-.56v-1.36c0-.17.06-.31.18-.43.12-.12.27-.18.43-.18s.31.06.43.18c.12.12.18.27.18.43v1.36c0,.37.16.56.49.56.17,0,.31.06.43.18.12.12.18.27.18.43ZM229.24,75.39c0,.14-.05.26-.15.36s-.22.15-.36.15c-.27,0-.43-.14-.49-.41-.12-.58-.33-1.27-.62-2.09-.02-.06-.03-.11-.03-.15,0-.13.05-.25.15-.34.1-.1.22-.15.36-.15.24,0,.4.11.48.34.44,1.33.66,2.09.66,2.28Z"/>
      <path class="cls-1" d="M43.74,93.26c0,.4-.2.63-.6.69-1.54.21-3.08.32-4.62.32-2.74,0-4.12-.83-4.12-2.48,0-1.01.7-2.05,2.11-3.14.28-.21.42-.46.42-.74,0-.13-.03-.27-.08-.42-.41-1.04-.75-2.15-1.02-3.35,0-.05-.01-.1-.01-.15,0-.21.07-.38.22-.52s.32-.22.52-.22c.18,0,.33.06.47.18.14.12.22.27.26.45.18.93.43,1.87.77,2.81.11.31.29.46.53.46.13,0,.27-.04.41-.13.08-.05,1.12-.61,3.09-1.69.12-.07.23-.1.34-.1.2,0,.36.07.5.21s.2.31.2.5c0,.29-.13.5-.39.63-1.15.57-2.39,1.24-3.72,2.02-.85.5-1.53.96-2.03,1.39-.73.63-1.09,1.19-1.09,1.71,0,.84.88,1.26,2.63,1.26,1.45,0,2.92-.13,4.41-.38.21-.04.39.01.56.15.17.14.25.32.25.53Z"/>
      <path class="cls-1" d="M59.28,91.88c0,.15-.05.28-.15.39s-.23.16-.38.16h-1.76c-.37,0-.56.19-.56.56v.6c0,.57-.1.95-.31,1.14-.21.19-.61.29-1.2.29h-1.61c-.15,0-.28-.05-.39-.16s-.17-.24-.17-.4c0-.15.06-.28.17-.38s.24-.15.39-.15h1.09c.3,0,.49-.06.57-.17.06-.08.1-.24.1-.46v-.31c0-.37-.19-.56-.56-.56h-7.08c-.15,0-.28-.05-.38-.16s-.15-.24-.15-.39.05-.27.15-.38c.1-.1.23-.15.38-.15h7.22c.28,0,.42-.11.42-.32s-.14-.32-.42-.32h-5.35c-.77,0-1.15-.38-1.15-1.15v-2.65c0-.77.38-1.16,1.15-1.16h1.4c.28,0,.42-.12.42-.36s-.14-.35-.42-.35h-3.15c-.15,0-.28-.05-.39-.16-.11-.11-.16-.24-.16-.38s.05-.28.16-.38c.11-.1.24-.15.39-.15h2.38c.27,0,.41-.08.41-.24,0-.04-.03-.1-.08-.2-.05-.09-.08-.19-.08-.29,0-.17.06-.31.18-.43.12-.12.27-.18.43-.18.21,0,.39.09.52.28.03.04.14.22.33.55.19.33.47.5.85.5h1.16c.39,0,.67-.16.84-.48.12-.23.21-.42.28-.56.1-.23.29-.35.56-.35.17,0,.31.06.43.17.12.12.18.26.18.43,0,.08-.02.18-.07.28-.05.1-.07.18-.07.24,0,.18.12.27.36.27h2.45c.15,0,.28.05.39.15.11.1.16.23.16.38s-.05.28-.16.38-.24.16-.39.16h-3.36c-.28,0-.42.12-.42.35s.14.36.42.36h1.6c.77,0,1.15.39,1.15,1.16v2.65c0,.77-.38,1.15-1.15,1.15h-.01c-.28,0-.42.11-.42.32s.14.32.42.32h1.9c.15,0,.28.05.38.15.1.1.15.23.15.38ZM50.88,86.85c0-.16-.11-.24-.34-.24h-.62c-.35,0-.53.18-.53.53v.87c0,.28.14.42.42.42h.6c-.31-.05-.46-.22-.46-.53,0-.21.07-.35.22-.43.47-.24.7-.45.7-.62ZM56.76,89.48c0-.19-.14-.28-.42-.28h-6.52c-.28,0-.42.1-.42.31,0,.17.13.25.39.25h6.58c.26,0,.39-.09.39-.28ZM49.71,93.63c-.14-.13-.21-.28-.21-.45,0-.18.07-.34.21-.48s.3-.21.48-.21c.17,0,.39.12.67.35.2.18.39.36.57.55.13.12.2.27.2.43,0,.19-.07.35-.22.5s-.32.22-.5.22c-.17,0-.38-.12-.64-.36-.18-.19-.36-.37-.55-.56ZM56.76,88.17c0-.17-.14-.25-.42-.25h-1.72c-.4,0-.66-.04-.77-.13-.14-.1-.21-.34-.21-.71,0-.31-.16-.46-.49-.46h-.49c-.24,0-.42.13-.55.39-.21.44-.63.88-1.27,1.33-.07.06-.16.09-.25.1h5.75c.28,0,.42-.09.42-.27ZM53.64,85.38c0-.23-.14-.35-.42-.35h-.48c-.28,0-.42.12-.42.35s.14.36.42.36h.48c.28,0,.42-.12.42-.36ZM56.76,86.95c0-.22-.13-.34-.39-.34h-1.04c-.33,0-.49.09-.49.28,0,.23.12.35.36.35h1.13c.28,0,.42-.1.42-.29Z"/>
      <path class="cls-1" d="M73.73,85.33c0,.3-.13.48-.39.55-.35.09-.53.28-.56.56-.18,1.65-.54,3.09-1.08,4.31-.08.2-.13.37-.13.53,0,.21.07.41.22.62.43.58.95,1.14,1.55,1.68.16.14.24.31.24.52,0,.19-.07.34-.2.47s-.29.19-.48.19-.34-.06-.46-.18c-.43-.42-.84-.9-1.25-1.43-.16-.21-.32-.31-.49-.31-.16,0-.32.1-.48.29-.49.6-1,1.13-1.54,1.6-.12.1-.27.15-.43.15-.18,0-.33-.07-.45-.2-.13-.13-.19-.29-.19-.48,0-.21.08-.38.25-.52.74-.6,1.34-1.19,1.81-1.76.16-.2.24-.4.24-.62,0-.16-.04-.33-.13-.52-.29-.62-.54-1.31-.74-2.04-.05-.17-.12-.25-.21-.25-.08,0-.16.07-.22.21l-.2.43c-.09.21-.26.32-.5.32-.21,0-.36-.08-.48-.25v2.39c0,1.43-.12,2.34-.36,2.72s-.82.58-1.74.58h-.77c-.15,0-.28-.06-.38-.17-.11-.11-.16-.24-.16-.39,0-.16.05-.29.16-.4.11-.11.24-.16.38-.16h.56c.49,0,.81-.1.94-.31.13-.21.2-.78.2-1.7v-3.61c0-.37-.19-.56-.56-.56h-1.81c-.44,0-.76.15-.95.45-.02.02-.03.04-.03.06-.05.07-.07.12-.07.17,0,.11.08.17.24.17h1.33c.65,0,.98.33.98.98v2.42c0,.65-.33.98-.98.98h-1.44c-.65,0-.98-.33-.98-.98v-2.06c0-.19-.04-.28-.11-.28-.03,0-.09.03-.17.08-.09.05-.19.08-.3.08-.17,0-.31-.06-.43-.17-.12-.11-.18-.25-.18-.42,0-.16.06-.3.17-.42.81-.87,1.42-1.77,1.83-2.7-.21-.09-.31-.27-.31-.52v-.04c0-.33-.16-.49-.49-.49h-.56c-.16,0-.29-.06-.41-.17-.11-.11-.17-.25-.17-.41s.06-.29.17-.41c.11-.11.25-.17.41-.17h.56c.33,0,.49-.16.49-.49v-.04c0-.17.06-.31.17-.42s.25-.17.42-.17c.16,0,.3.06.41.18.12.12.17.25.17.41v.04c0,.33.16.49.49.49h.74c.33,0,.49-.16.49-.49v-.04c0-.16.06-.3.17-.41s.26-.18.43-.18c.16,0,.3.06.41.18s.18.25.18.41v.04c0,.33.16.49.49.49h.43c.16,0,.29.06.41.17.11.11.17.25.17.41s-.06.29-.17.41c-.11.11-.25.17-.41.17h-.43c-.33,0-.49.16-.49.49v.04c0,.16-.06.3-.18.41s-.25.17-.41.17c-.17,0-.31-.06-.43-.17s-.17-.25-.17-.41v-.04c0-.33-.16-.49-.49-.49h-.74c-.33,0-.49.16-.49.49v.13c.22.12.33.3.32.53-.02.32.1.48.35.48h1.93c.77,0,1.16.38,1.16,1.15v.88c.8-1.57,1.4-3.36,1.79-5.36.06-.33.26-.49.59-.49.17,0,.31.06.42.17.11.12.17.25.17.41,0,.08-.06.35-.17.78-.02.07-.03.14-.03.21,0,.3.17.45.5.45h2.42c.16,0,.3.06.41.17.12.12.17.26.17.43ZM64.3,91.26v-1.34c0-.31-.14-.46-.42-.46h-.35c-.26,0-.39.15-.39.46v1.34c0,.31.13.46.39.46h.35c.28,0,.42-.15.42-.46ZM71.63,86.49c.03-.38-.15-.57-.55-.57h-.69c-.5,0-.71.25-.66.74.11,1.02.35,1.97.71,2.87.08.2.19.29.32.29.1,0,.18-.07.22-.2.34-.88.55-1.92.63-3.14Z"/>
      <path class="cls-1" d="M86.64,90.8c0,.13-.04.26-.11.38-.63,1.04-1.4,1.86-2.28,2.48-1,.68-2.06,1.02-3.18,1.02-2.46,0-3.68-1.11-3.68-3.33,0-.91.02-2.1.06-3.57.03-1.19.05-2.49.07-3.89,0-.2.07-.37.22-.51.15-.14.32-.22.52-.22s.38.07.53.22.22.33.21.53l-.17,7.13c0,1.47.77,2.2,2.32,2.2.83,0,1.63-.29,2.39-.88.65-.48,1.23-1.13,1.72-1.95.14-.23.35-.35.63-.35.21,0,.38.07.52.22s.22.32.22.52Z"/>
      <path class="cls-1" d="M101.16,84.61c0,.37-.25.6-.76.67-1.41.21-2.66.8-3.75,1.74-1.09.95-1.64,1.94-1.64,2.99,0,1.47,1.21,2.43,3.63,2.9.4.07.6.31.6.71,0,.22-.09.41-.26.56-.17.15-.37.21-.6.17-1.35-.23-2.44-.65-3.26-1.26-1.03-.75-1.54-1.74-1.54-2.97,0-.99.34-1.9,1.02-2.74.27-.34.57-.64.9-.91.28-.23.42-.43.42-.6,0-.22-.24-.32-.71-.28-1.46.13-3.01.29-4.66.49-.21.03-.38-.03-.53-.17-.15-.14-.22-.31-.22-.52,0-.18.06-.33.17-.46.12-.13.26-.21.44-.22,1.69-.17,4.99-.42,9.9-.76.25-.02.46.04.62.16s.24.29.24.5Z"/>
      <path class="cls-1" d="M109.49,91.6c-.82,1.61-1.61,2.42-2.37,2.42-.93,0-1.66-.83-2.17-2.49-.4-1.29-.6-2.75-.6-4.38,0-.84.03-1.56.08-2.17.02-.2.1-.36.23-.49s.3-.2.5-.2c.21,0,.39.08.54.25.14.16.21.35.19.57-.07.63-.1,1.35-.1,2.17,0,1.07.12,2.14.35,3.19.26,1.17.61,1.75,1.04,1.75.31,0,.66-.42,1.05-1.26.12-.25.33-.38.63-.38.2,0,.36.07.5.2s.2.3.2.5c0,.12-.02.23-.07.32ZM115.55,91.16c.03.22-.03.42-.18.6-.15.18-.34.27-.57.27-.2,0-.37-.07-.52-.2-.15-.13-.23-.29-.25-.48-.23-2.12-.92-4-2.06-5.66-.08-.12-.13-.26-.13-.41,0-.21.07-.38.21-.52.14-.14.31-.21.52-.21.25,0,.45.1.6.31,1.29,1.79,2.08,3.89,2.38,6.29Z"/>
      <path class="cls-1" d="M129.13,92.89c0,.2-.07.36-.2.5s-.3.2-.5.2c-.13,0-.25-.03-.36-.1-.93-.55-1.76-.97-2.49-1.25-.09-.04-.18-.06-.25-.06-.27,0-.43.19-.48.56-.07.56-.26.98-.56,1.25-.47.42-1.3.63-2.51.63-.77,0-1.4-.14-1.9-.43-.62-.36-.92-.9-.92-1.62,0-.81.39-1.4,1.16-1.78.58-.28,1.33-.42,2.24-.42.1,0,.26,0,.48.01.49.02.73-.19.73-.62v-.39c0-.47-.24-.7-.71-.69-.99.03-1.94.04-2.86.03-.17,0-.31-.06-.43-.19-.12-.13-.17-.27-.17-.44s.06-.31.19-.43.27-.18.44-.18c.91.02,1.86.02,2.84,0,.46,0,.69-.25.69-.71v-.06c0-.48-.24-.7-.73-.69-1.13.05-2.2.06-3.21.03-.17,0-.31-.08-.43-.2-.12-.13-.18-.27-.18-.44,0-.18.07-.33.2-.45.13-.12.28-.18.46-.17,1.04.03,2.11.03,3.19,0,.46,0,.69-.23.69-.67,0-.04,0-.25-.01-.63,0-.19.07-.35.2-.48.13-.14.29-.2.48-.2s.35.07.48.2.2.3.2.48v.48c0,.49.24.72.73.67.72-.07,1.5-.17,2.35-.29.19-.03.35.02.5.15.15.13.22.28.22.47,0,.35-.18.56-.55.6-1.01.13-1.86.23-2.56.29-.45.05-.67.29-.67.73v.04c0,.5.24.72.73.67.49-.05,1.18-.14,2.06-.27.19-.03.35.02.5.15s.22.28.22.47c0,.36-.18.57-.53.62-.75.1-1.52.19-2.31.27-.45.04-.67.28-.67.73v.63c0,.51.26.85.77,1.02.95.31,1.99.76,3.12,1.36.24.13.36.34.36.62ZM123.52,92.34c.07-.47-.12-.72-.56-.76-.21-.02-.41-.03-.6-.03-1.34,0-2.02.32-2.02.97,0,.26.13.47.38.63s.6.24,1.02.24c.62,0,1.06-.07,1.32-.22s.41-.42.46-.83Z"/>
      <path class="cls-1" d="M143.2,90.8c0,.13-.04.26-.11.38-.63,1.04-1.4,1.86-2.28,2.48-1,.68-2.06,1.02-3.18,1.02-2.46,0-3.68-1.11-3.68-3.33,0-.91.02-2.1.06-3.57.03-1.19.05-2.49.07-3.89,0-.2.07-.37.22-.51.15-.14.32-.22.52-.22s.38.07.53.22.22.33.21.53l-.17,7.13c0,1.47.77,2.2,2.32,2.2.83,0,1.63-.29,2.39-.88.65-.48,1.23-1.13,1.72-1.95.14-.23.35-.35.63-.35.21,0,.38.07.52.22s.22.32.22.52Z"/>
      <path class="cls-1" d="M153.38,86.1c-.68.13-1.37.24-2.07.32-.38.05-.66.15-.83.29-.17.15-.3.41-.38.77-.52,2.21-1.17,4.34-1.95,6.37-.12.31-.35.46-.69.46-.21,0-.38-.07-.52-.22-.14-.14-.21-.31-.21-.51,0-.09.02-.19.06-.28.79-1.88,1.44-3.86,1.95-5.96.02-.07.03-.14.03-.21,0-.33-.2-.49-.59-.48-.39,0-.75,0-1.08,0-.19,0-.35-.08-.48-.22-.14-.13-.2-.3-.2-.48s.07-.36.22-.5.32-.21.51-.2c.53.02.96.02,1.29.01.52-.02.82-.27.9-.77.03-.21.07-.51.14-.92.07-.41.3-.61.71-.61.2,0,.36.07.5.21.14.14.21.3.21.49,0,.09-.04.33-.11.7,0,.07-.01.13-.01.18,0,.37.21.53.62.46.06,0,.38-.07.98-.2.45-.08.76-.13.92-.13.2,0,.36.07.48.21.13.14.19.31.19.5,0,.38-.19.61-.57.69ZM157.8,93.46c0,.4-.2.63-.59.69-.89.13-1.82.2-2.8.2-2.48,0-3.72-.7-3.72-2.09,0-.32.08-.68.24-1.09.11-.28.32-.42.63-.42.44,0,.66.22.66.67,0,.08-.01.18-.04.31-.03.14-.04.24-.04.32,0,.63.8.95,2.39.95.7,0,1.53-.07,2.49-.21.21-.03.39.03.54.16s.24.31.24.51ZM157.41,88.25c0,.2-.07.36-.22.5-.15.14-.32.21-.52.2-1.39-.07-2.88-.04-4.47.1-.2.02-.37-.04-.51-.18-.14-.14-.22-.3-.22-.5,0-.18.06-.33.18-.45.12-.13.26-.2.43-.22,1.58-.16,3.13-.21,4.65-.17.19,0,.35.08.48.22.14.14.2.3.2.49Z"/>
      <path class="cls-1" d="M163.93,93.17c0,.57-.2,1.05-.6,1.45-.4.4-.89.59-1.46.59s-1.05-.2-1.45-.59c-.4-.4-.59-.88-.59-1.45s.2-1.05.59-1.46c.4-.4.88-.6,1.45-.6s1.05.2,1.46.6c.4.4.6.89.6,1.46ZM162.94,93.17c0-.3-.1-.55-.31-.76-.21-.21-.46-.31-.76-.31s-.54.1-.74.31-.31.46-.31.75.1.53.31.74.45.3.74.3.55-.1.76-.29.31-.44.31-.74Z"/>
      <path class="cls-1" d="M177.65,83.24c0,.12-.15.61-.46,1.47-.21.6-.32,1.18-.32,1.74v7.94c0,.19-.06.34-.18.46-.12.12-.28.18-.46.18s-.34-.06-.47-.18c-.13-.12-.19-.28-.19-.46v-5.17c0-.24-.07-.36-.21-.36-.07,0-.27.22-.59.66-.13.18-.31.27-.53.27-.17,0-.32-.06-.44-.19s-.19-.27-.19-.44c0-.14.04-.27.13-.38,1.19-1.62,2.08-3.52,2.69-5.7.08-.31.28-.46.6-.46.17,0,.32.06.44.19s.19.27.19.44ZM186.87,84.08c0,.18-.06.33-.18.45-.12.12-.27.18-.45.18h-.17c-.47,0-.7.23-.7.7v7.59c0,.68-.12,1.15-.36,1.41-.24.26-.68.38-1.32.38h-1.22c-.17,0-.31-.06-.44-.19-.13-.13-.19-.28-.19-.46,0-.17.06-.31.19-.44.13-.13.27-.19.44-.19h.81c.31,0,.52-.07.63-.21.08-.11.13-.33.13-.66v-7.24c0-.47-.23-.7-.7-.7h-4.91c-.18,0-.33-.06-.45-.18-.12-.12-.18-.27-.18-.45,0-.17.06-.31.18-.44s.27-.19.45-.19h7.81c.18,0,.33.06.45.19s.18.27.18.44ZM182.69,90.73c0,.77-.38,1.15-1.15,1.15h-2.16c-.77,0-1.15-.38-1.15-1.15v-3.36c0-.77.38-1.15,1.15-1.15h2.16c.76,0,1.15.38,1.15,1.15v3.36ZM181.46,90.14v-2.21c0-.38-.19-.57-.56-.57h-.85c-.38,0-.57.19-.57.57v2.21c0,.38.19.57.57.57h.85c.37,0,.56-.19.56-.57Z"/>
      <path class="cls-1" d="M196.76,87.94c0,1.47-.25,3.12-.74,4.93-.14.52-.3.9-.48,1.13-.26.34-.62.5-1.06.5-.49,0-1.13-.14-1.93-.41-.32-.1-.48-.31-.48-.63,0-.19.07-.35.2-.48.14-.13.29-.2.47-.2.08,0,.17.02.29.06.4.14.71.21.91.21.22,0,.38-.07.48-.2.07-.1.16-.31.25-.63.44-1.57.66-2.93.66-4.09,0-.45-.09-.75-.27-.9s-.51-.22-1.01-.22c-.44,0-.74.05-.9.14-.2.11-.34.31-.42.6-.61,2.03-1.44,4.08-2.49,6.15-.14.27-.36.41-.66.41-.21,0-.38-.07-.52-.22-.14-.14-.21-.32-.21-.53,0-.16.03-.28.08-.38.95-1.65,1.73-3.39,2.32-5.22.03-.09.04-.18.04-.25,0-.34-.2-.48-.6-.42-.29.04-.74.1-1.36.2-.2.03-.38-.03-.54-.16s-.25-.31-.25-.51c0-.39.2-.62.61-.67.41-.06,1.06-.14,1.95-.25.45-.05.75-.33.91-.84.03-.07.11-.53.24-1.37.07-.4.3-.6.7-.6.22,0,.4.08.54.25.13.16.18.36.15.58,0,.05-.05.25-.13.62-.06.27-.1.47-.1.6,0,.39.22.57.66.55h.21c.72-.06,1.29.07,1.72.36.49.34.73.97.73,1.89ZM200.99,88.99c0,.21-.07.38-.22.53s-.32.22-.53.22c-.34,0-.57-.16-.7-.49-.49-1.26-1.11-2.41-1.86-3.44-.08-.11-.13-.24-.13-.39,0-.2.07-.36.2-.5.13-.14.3-.21.5-.21.23,0,.42.1.57.29.85,1.11,1.55,2.35,2.11,3.71.03.07.04.16.04.28Z"/>
      <path class="cls-1" d="M214.3,88.94c0,2.85-1.44,4.59-4.33,5.22-.03,0-.08.01-.15.01-.19,0-.35-.07-.48-.2-.13-.13-.2-.29-.2-.49,0-.37.17-.6.5-.69,2.16-.54,3.23-1.84,3.23-3.89,0-1.07-.29-1.93-.87-2.58-.21-.24-.48-.46-.8-.64-.36-.21-.69-.31-.98-.31-.4,0-.64.23-.73.7-.35,2.04-.77,3.67-1.26,4.91-.31.78-.61,1.37-.91,1.76-.48.61-1.03.91-1.67.91-.85,0-1.53-.42-2.04-1.27-.45-.73-.67-1.54-.67-2.44,0-1.74.58-3.17,1.73-4.31,1.15-1.14,2.6-1.71,4.33-1.71,1.63,0,2.91.42,3.84,1.26.97.88,1.46,2.12,1.46,3.74ZM208.08,86.12c0-.06.01-.13.01-.2,0-.35-.16-.52-.48-.52-.11,0-.23.02-.36.07-.86.3-1.56.86-2.1,1.67-.54.82-.81,1.75-.81,2.81,0,.58.14,1.09.41,1.53s.57.67.91.67c.4,0,.83-.56,1.29-1.69.38-.95.76-2.4,1.13-4.34Z"/>
      <path class="cls-1" d="M223.77,88.08c0,.17-.06.31-.18.43s-.27.17-.43.17h-.31c-.37,0-.56.19-.56.56v5.08c0,.17-.06.31-.19.44s-.27.19-.44.19-.31-.06-.43-.19-.18-.27-.18-.44v-5.08c0-.37-.19-.56-.56-.56h-.52c-.37,0-.57.19-.57.56-.03.93-.1,1.7-.22,2.3-.2,1-.56,1.94-1.08,2.81-.14.23-.34.35-.6.35-.19,0-.35-.07-.48-.2-.14-.14-.2-.3-.2-.48,0-.14.03-.26.1-.35.5-.74.83-1.53,1.01-2.38.11-.51.19-1.19.22-2.03.02-.38-.17-.57-.56-.57h-.53c-.17,0-.31-.06-.42-.17-.11-.12-.17-.26-.17-.43s.06-.31.17-.43c.11-.12.25-.18.42-.18h.56c.37,0,.56-.19.56-.56v-1.97c0-.37-.19-.56-.56-.56h-.31c-.16,0-.3-.06-.41-.17-.12-.12-.17-.25-.17-.41s.06-.3.17-.41c.12-.12.25-.17.41-.17h5.7c.16,0,.3.06.41.17.12.12.17.25.17.41s-.06.3-.17.41c-.12.12-.25.17-.41.17h-.14c-.37,0-.56.19-.56.56v1.97c0,.37.19.56.56.56h.31c.17,0,.31.06.43.18.12.12.18.26.18.42ZM221.04,86.92v-1.97c0-.37-.19-.56-.56-.56h-.5c-.37,0-.56.19-.56.56v1.97c0,.37.19.56.56.56h.5c.37,0,.56-.19.56-.56ZM228.19,83.52c0,.16-.06.3-.18.43-1,1.07-2.19,1.95-3.58,2.63-.09.05-.19.07-.29.07-.18,0-.33-.06-.46-.19s-.19-.28-.19-.47c0-.27.12-.46.36-.57,1.25-.57,2.33-1.35,3.25-2.34.12-.13.28-.2.46-.2s.33.06.45.18.18.27.18.45ZM228.98,90.77c0,.16-.05.3-.15.42-1.18,1.39-2.62,2.51-4.33,3.36-.09.05-.19.07-.29.07-.2,0-.36-.06-.49-.19s-.2-.29-.2-.48c0-.29.13-.49.38-.62,1.49-.7,2.81-1.7,3.95-3,.13-.15.29-.22.48-.22s.34.06.47.19.19.28.19.47ZM228.47,86.96c0,.14-.05.27-.15.39-.93,1.12-2.09,2.07-3.47,2.86-.1.06-.21.08-.32.08-.18,0-.33-.06-.46-.18s-.19-.27-.19-.46c0-.26.11-.45.34-.57,1.25-.66,2.31-1.51,3.18-2.53.11-.13.27-.2.46-.2.17,0,.31.06.43.17.12.12.18.26.18.43Z"/>
      <path class="cls-1" d="M38.63,99.61c0,.37-.25.6-.76.67-1.41.21-2.66.8-3.75,1.74-1.09.95-1.64,1.94-1.64,2.99,0,1.51,1.21,2.48,3.63,2.9.4.07.6.3.6.71,0,.22-.09.41-.26.57s-.37.21-.59.16c-1.45-.28-2.55-.71-3.3-1.29-1-.77-1.5-1.75-1.5-2.94,0-1.01.34-1.92,1.02-2.74.3-.35.59-.65.88-.9.29-.24.43-.45.43-.62,0-.22-.24-.32-.71-.28-1.91.17-3.47.33-4.66.49-.21.03-.38-.03-.53-.17-.15-.14-.22-.31-.22-.52,0-.18.06-.33.17-.47.12-.13.26-.21.44-.22,1.72-.17,5.02-.42,9.9-.76.25,0,.46.05.62.17s.24.29.24.48ZM37.88,103.74c0,.15-.05.28-.16.38-.11.11-.24.16-.39.16-.22,0-.39-.08-.49-.25-.27-.43-.56-.8-.87-1.11-.1-.1-.15-.23-.15-.38,0-.37.18-.56.55-.56.16,0,.3.07.42.21.39.44.72.85.98,1.23.07.11.11.21.11.31ZM39.58,102.94c0,.15-.05.28-.16.38-.11.11-.24.16-.39.16-.21,0-.38-.08-.49-.25-.31-.46-.6-.84-.87-1.13-.1-.11-.15-.23-.15-.35,0-.37.19-.56.56-.56.14,0,.27.07.41.2.33.33.66.74.99,1.25.06.13.1.23.1.31Z"/>
      <path class="cls-1" d="M53.47,104.89c0,.17-.06.31-.17.43-.12.12-.26.17-.43.17s-.31-.06-.43-.17c-.12-.12-.17-.26-.17-.43v-.69c0-.28-.19-.42-.56-.42h-3.54c-.37,0-.56.14-.56.42v.7c0,.16-.06.3-.17.41-.11.12-.25.17-.41.17s-.29-.06-.41-.17c-.11-.12-.17-.25-.17-.41v-.04c-.12.07-.25.1-.39.08-.12,0-.22-.08-.31-.21-.13-.2-.31-.28-.53-.24l-.17.03c-.35.06-.53.25-.53.59v4.44c0,.17-.06.31-.18.43-.12.12-.27.17-.43.17s-.31-.06-.43-.17c-.12-.12-.18-.26-.18-.43v-4.21c0-.32-.2-.49-.59-.52-.18-.02-.58.01-1.2.1-.17.02-.31-.04-.43-.16-.12-.13-.18-.3-.17-.51.02-.26.16-.41.42-.46.26-.04.46-.15.6-.32l.56-.64c.13-.15.2-.29.2-.43s-.07-.27-.2-.41l-1.32-1.33c-.12-.12-.18-.27-.18-.43,0-.34.18-.55.55-.6.09-.02.2,0,.31.05.11.05.2.08.27.08.09,0,.19-.07.28-.2.09-.13.45-.67,1.06-1.62.13-.2.29-.29.49-.29.16,0,.3.06.41.17.12.12.18.25.18.41,0,.11-.03.21-.08.31-.19.32-.6.9-1.23,1.75-.1.13-.15.26-.15.39,0,.12.05.25.15.37s.21.19.33.19c.19,0,.47-.26.84-.78.21-.33.43-.66.66-.99.12-.18.28-.27.48-.27.16,0,.3.06.41.17.12.12.18.25.18.41,0,.13-.03.24-.1.34-.47.65-1.23,1.63-2.3,2.93-.08.1-.13.2-.13.29,0,.19.13.26.38.22l.55-.07c.24-.03.36-.12.36-.27,0-.07-.03-.16-.1-.27l-.04-.07c-.04-.08-.06-.17-.06-.27,0-.34.17-.5.5-.5.21,0,.38.1.49.29l.78,1.36c.04-.7.42-1.05,1.15-1.05h4.7c.77,0,1.16.38,1.16,1.15v1.02ZM42.69,106c-.13.91-.31,1.73-.53,2.48-.08.29-.27.43-.56.43-.17,0-.31-.06-.41-.17-.11-.11-.16-.25-.16-.41,0-.04,0-.1.03-.2.27-.76.47-1.53.59-2.31.05-.3.22-.45.53-.45.16,0,.29.06.4.18s.15.27.12.43ZM46.56,107.73c0,.15-.05.28-.16.38-.11.1-.24.15-.39.15-.27,0-.44-.14-.52-.42-.22-.87-.37-1.53-.43-1.97-.03-.16,0-.3.11-.41.1-.12.23-.17.39-.17.29,0,.46.14.5.42.11.61.27,1.23.46,1.88.02.07.03.12.03.15ZM53.75,99.28c0,.16-.06.29-.18.4s-.25.16-.4.16h-2.06c-.37,0-.56.17-.56.52s.19.52.56.52h1.54c.15,0,.28.06.39.17.11.11.17.24.17.39,0,.16-.06.29-.17.4-.11.11-.24.16-.39.16h-5.4c-.15,0-.28-.05-.39-.16-.11-.11-.16-.24-.16-.4,0-.15.05-.28.16-.39.11-.11.24-.17.39-.17h1.46c.37,0,.56-.17.56-.52s-.19-.52-.56-.52h-1.89c-.15,0-.28-.05-.38-.16-.11-.11-.16-.24-.16-.4,0-.15.05-.28.16-.39.11-.11.24-.17.38-.17h1.89c.37,0,.56-.15.56-.45,0-.18.06-.33.19-.46s.28-.19.46-.19.33.06.45.19c.13.13.19.28.19.46,0,.3.19.45.56.45h2.06c.15,0,.28.06.4.17s.18.24.18.39ZM49.38,105.41c0,1.76-.59,3.21-1.78,4.33-.14.13-.29.2-.45.2-.17,0-.31-.06-.43-.19-.12-.13-.18-.27-.18-.44s.06-.31.2-.43c.99-.9,1.48-2.05,1.48-3.47,0-.18,0-.31,0-.39.02-.39.21-.59.59-.59s.57.2.57.59v.41ZM53.57,107.63c0,.87-.05,1.39-.11,1.57-.16.44-.56.66-1.2.66h-.98c-.41,0-.69-.08-.84-.25-.15-.16-.22-.47-.22-.92v-3.67c0-.16.06-.3.17-.41.12-.12.25-.17.41-.17s.3.06.41.17c.12.12.17.25.17.41v3.23c0,.31.11.46.32.46h.29c.22,0,.36-.14.41-.43,0-.02,0-.25.01-.69,0-.15.06-.28.17-.39.11-.11.25-.16.41-.16s.29.06.41.17c.11.11.17.25.17.41Z"/>
      <path class="cls-1" d="M59.55,105.44c-.36.89-.68,1.77-.94,2.66-.13.45-.39.67-.77.67-.41,0-.68-.26-.8-.77-.25-1.05-.38-2.31-.38-3.77,0-1.58.16-3.31.48-5.21.06-.39.29-.59.69-.59.21,0,.39.08.54.25.15.17.2.36.16.57-.36,2.13-.55,3.83-.55,5.11v.81c0,.3.09.45.24.45.13,0,.24-.12.34-.36l.08-.21c.08-.21.23-.31.45-.31.14,0,.26.05.36.15.1.1.15.22.15.36,0,.06-.01.12-.04.18ZM67.64,101.32c0,.34-.19.57-.57.7,0,0-.35.07-1.01.18-.42.07-.63.32-.63.74v1.05c0,2.5-.93,4.32-2.8,5.46-.11.07-.23.1-.36.1-.2,0-.36-.07-.5-.21-.14-.14-.21-.31-.21-.5,0-.26.11-.46.34-.6.79-.5,1.36-1.11,1.71-1.83.31-.66.46-1.49.46-2.49v-.73c0-.48-.25-.7-.74-.67-.87.06-1.48.08-1.83.07h-.57c-.18-.01-.33-.08-.46-.21s-.2-.29-.2-.46c0-.19.07-.35.21-.48.14-.13.3-.2.49-.19h.52c.48.02,1.1,0,1.86-.06.47-.04.69-.29.66-.76l-.08-1.51c0-.2.05-.37.19-.52.14-.15.31-.22.51-.22.19,0,.35.06.48.19s.21.28.22.47c0,.29.03.74.06,1.36.02.45.21.67.56.67.06,0,.12,0,.18-.03l.71-.17c.08-.02.14-.03.17-.03.18,0,.33.07.46.2.13.14.2.3.2.48Z"/>
      <path class="cls-1" d="M81.28,99.61c0,.37-.25.6-.76.67-1.41.21-2.66.8-3.75,1.74-1.09.95-1.64,1.94-1.64,2.99,0,1.46,1.21,2.43,3.63,2.9.4.08.6.31.6.71,0,.22-.09.41-.26.56-.17.15-.37.21-.6.17-1.35-.23-2.44-.65-3.26-1.26-1.03-.75-1.54-1.74-1.54-2.97,0-.99.34-1.9,1.02-2.74.27-.34.57-.64.9-.91.28-.23.42-.43.42-.6,0-.22-.24-.32-.71-.28-1.46.13-3.01.29-4.66.49-.21.03-.38-.03-.53-.17-.15-.14-.22-.31-.22-.52,0-.18.06-.33.17-.46.12-.13.26-.21.44-.22,1.69-.17,4.99-.42,9.9-.76.25-.02.46.04.62.16s.24.29.24.5Z"/>
      <path class="cls-1" d="M87.18,109.08c0,.22-.07.41-.22.56-.15.15-.34.22-.56.22-.24,0-.44-.09-.6-.28-.55-.66-1.11-1.23-1.67-1.71-.18-.15-.27-.34-.27-.56s.07-.39.22-.54c.14-.14.32-.22.54-.22.19,0,.35.06.49.18.78.68,1.41,1.28,1.88,1.81.13.14.2.32.2.53Z"/>
      <path class="cls-1" d="M108.49,108.38c0,.4-.2.63-.6.69-1.54.21-3.08.32-4.62.32-2.74,0-4.12-.83-4.12-2.48,0-1.01.7-2.05,2.11-3.14.29-.22.43-.47.43-.74,0-.13-.03-.27-.1-.42-.33-.79-.67-1.91-1.02-3.35,0-.04-.01-.09-.01-.15,0-.21.07-.38.22-.53.15-.14.32-.22.53-.22.18,0,.33.06.47.18s.22.27.26.45c.2,1,.45,1.94.77,2.81.11.31.29.46.53.46.13,0,.27-.04.41-.13.72-.39,1.75-.96,3.09-1.69.12-.07.23-.1.34-.1.2,0,.36.07.5.21.14.14.2.31.2.5,0,.3-.13.51-.39.63-1.28.61-2.52,1.28-3.72,2.02-.97.6-1.65,1.06-2.03,1.39-.73.63-1.09,1.2-1.09,1.71,0,.84.88,1.26,2.63,1.26,1.45,0,2.92-.13,4.41-.38.21-.04.39.01.56.15.17.14.25.32.25.53ZM108.7,99.64c0,.14-.05.26-.15.36-.1.1-.22.15-.37.15-.2,0-.43-.17-.7-.52-.2-.26-.39-.52-.59-.78-.1-.1-.15-.22-.15-.35,0-.35.18-.53.53-.53.14,0,.27.07.39.2.38.43.7.82.94,1.18.06.09.1.19.1.29ZM110.34,98.87c0,.14-.05.26-.16.36-.11.1-.23.15-.37.15-.21,0-.36-.08-.46-.24-.3-.44-.57-.8-.83-1.08-.09-.1-.14-.21-.14-.34,0-.36.18-.53.53-.53.12,0,.25.07.38.2.34.34.65.73.95,1.18.07.13.1.23.1.29Z"/>
      <path class="cls-1" d="M123.11,107.9c0,.4-.19.63-.57.7-1.53.27-2.95.41-4.27.41s-2.34-.11-3.11-.32c-1.25-.36-1.88-1.03-1.88-2.03,0-.68.44-1.46,1.33-2.35.12-.12.28-.18.46-.18.18,0,.33.06.46.19.13.13.2.28.2.46,0,.16-.06.3-.18.43-.5.52-.76.96-.76,1.3,0,.78,1.19,1.16,3.56,1.16,1.13,0,2.45-.14,3.95-.43.21-.04.39.01.56.15.17.14.25.31.25.53ZM121.58,100.66c-.78.31-1.74.83-2.86,1.55-.11.08-.22.11-.32.11-.16,0-.3-.06-.41-.17s-.18-.26-.18-.43c0-.21.09-.38.28-.49l.18-.11c.18-.1.27-.21.27-.31,0-.12-.14-.18-.41-.18-1.03.02-2.17,0-3.44-.08-.18,0-.33-.08-.45-.21s-.19-.28-.19-.46c0-.2.07-.36.22-.5.14-.13.31-.2.51-.19,2.23.13,4.4.14,6.5.04.27,0,.49.06.65.2.16.14.25.31.25.5,0,.33-.2.57-.59.73Z"/>
      <path class="cls-1" d="M134.46,102.94c0,1.47-.25,3.12-.74,4.93-.14.52-.3.9-.48,1.13-.26.34-.62.5-1.06.5-.49,0-1.13-.13-1.93-.41-.32-.1-.48-.31-.48-.63,0-.19.07-.35.2-.48s.29-.2.47-.2c.07,0,.17.02.29.06.4.14.7.21.91.21.22,0,.38-.07.48-.2.07-.1.16-.31.25-.63.44-1.57.66-2.93.66-4.09,0-.45-.09-.75-.27-.9s-.51-.22-1.01-.22c-.44,0-.74.05-.9.14-.2.11-.34.31-.42.6-.61,2.03-1.44,4.08-2.49,6.15-.14.27-.36.41-.66.41-.21,0-.38-.07-.52-.22-.14-.14-.21-.32-.21-.53,0-.16.03-.28.08-.38.95-1.65,1.73-3.39,2.32-5.22.03-.09.04-.18.04-.25,0-.34-.2-.48-.6-.42-.29.04-.74.1-1.36.2-.2.03-.38-.03-.54-.16-.16-.13-.25-.31-.25-.51,0-.39.2-.62.61-.67.41-.06,1.06-.14,1.95-.25.45-.05.75-.33.91-.84.03-.08.11-.53.24-1.37.07-.4.3-.6.7-.6.22,0,.4.08.54.25.14.16.18.36.15.58,0,.05-.05.25-.13.62-.07.27-.1.47-.1.6,0,.39.22.57.66.55h.21c.72-.06,1.29.07,1.72.36.48.34.73.97.73,1.89ZM138.69,103.99c0,.21-.07.38-.22.53-.15.15-.32.22-.52.22-.34,0-.57-.16-.7-.49-.49-1.26-1.11-2.41-1.86-3.44-.08-.11-.13-.24-.13-.39,0-.2.07-.36.2-.5.13-.14.3-.21.5-.21.23,0,.42.1.57.29.85,1.11,1.55,2.35,2.11,3.71.03.07.04.16.04.28Z"/>
      <path class="cls-1" d="M151.75,99.61c0,.37-.25.6-.76.67-1.41.21-2.66.8-3.75,1.74-1.09.95-1.64,1.94-1.64,2.99,0,1.51,1.21,2.48,3.63,2.9.4.07.6.3.6.71,0,.22-.09.41-.26.57s-.37.21-.59.16c-1.45-.28-2.55-.71-3.3-1.29-1-.77-1.5-1.75-1.5-2.94,0-1.01.34-1.92,1.02-2.74.3-.35.59-.65.88-.9.29-.24.43-.45.43-.62,0-.22-.24-.32-.71-.28-1.91.17-3.47.33-4.66.49-.21.03-.38-.03-.53-.17-.15-.14-.22-.31-.22-.52,0-.18.06-.33.17-.47.12-.13.26-.21.44-.22,1.72-.17,5.02-.42,9.9-.76.25,0,.46.05.62.17.16.13.24.29.24.48ZM151,103.74c0,.15-.05.28-.16.38-.11.11-.24.16-.38.16-.22,0-.39-.08-.49-.25-.27-.43-.56-.8-.87-1.11-.1-.1-.15-.23-.15-.38,0-.37.18-.56.55-.56.16,0,.3.07.42.21.39.44.72.85.98,1.23.07.11.11.21.11.31ZM152.7,102.94c0,.15-.05.28-.16.38s-.24.16-.38.16c-.21,0-.38-.08-.49-.25-.31-.46-.6-.84-.87-1.13-.1-.11-.15-.23-.15-.35,0-.37.19-.56.56-.56.14,0,.28.07.41.2.33.33.66.74.99,1.25.07.13.1.23.1.31Z"/>
      <path class="cls-1" d="M156.8,106.05s0,.1-.03.17c-.26.95-.64,1.86-1.13,2.73-.13.22-.32.34-.57.34-.18,0-.33-.06-.46-.19-.13-.13-.19-.28-.19-.45,0-.13.03-.24.08-.34.47-.75.82-1.55,1.06-2.42.08-.29.28-.43.6-.43.18,0,.33.06.45.17.12.12.18.26.18.43ZM165.65,103.52c0,.79-.4,1.19-1.19,1.19h-7.98c-.79,0-1.19-.4-1.19-1.19v-4.24c0-.79.4-1.19,1.19-1.19h7.98c.79,0,1.19.4,1.19,1.19v4.24ZM164.34,102.97v-3.14c0-.39-.2-.59-.6-.59h-6.55c-.39,0-.59.2-.59.59v3.14c0,.39.2.59.59.59h6.55c.4,0,.6-.2.6-.59ZM163.87,100.7c0,.13-.05.25-.14.34-.09.1-.21.15-.34.15h-1.36c-.21,0-.32.07-.32.21,0,.08.05.16.15.22.27.19.68.39,1.22.6.25.1.38.28.38.52,0,.17-.06.31-.17.41-.11.11-.25.16-.41.16-.08,0-.16-.01-.22-.04-.66-.27-1.23-.6-1.69-.98-.17-.14-.33-.21-.49-.21-.14,0-.3.07-.48.21-.47.38-1.05.72-1.76,1.01-.07.03-.13.04-.2.04-.15,0-.28-.05-.4-.16-.12-.11-.18-.24-.18-.4,0-.25.12-.42.36-.5.5-.17.92-.39,1.26-.66.09-.07.14-.14.14-.22,0-.14-.11-.21-.32-.21h-1.36c-.13,0-.24-.05-.34-.15-.1-.1-.15-.21-.15-.34s.05-.24.15-.34c.1-.09.21-.14.34-.14h1.75c.33,0,.49-.12.49-.35,0-.16.06-.3.17-.41.12-.12.26-.17.43-.17s.31.06.43.17c.12.12.17.25.17.41,0,.23.16.35.49.35h1.9c.32,0,.48.16.48.48ZM163.85,107.97c-.1.75-.31,1.25-.63,1.5s-.88.38-1.69.38h-2.2c-.64,0-1.06-.08-1.25-.24-.19-.16-.28-.51-.28-1.05v-2.48c0-.18.06-.33.19-.45.13-.12.27-.18.44-.18s.32.06.44.18c.13.12.19.27.19.45v1.99c0,.27.04.44.12.5s.27.09.58.09h1.57c.43,0,.72-.04.87-.13.21-.12.34-.38.39-.77.04-.34.25-.52.63-.52.2,0,.36.08.48.22.13.15.17.32.15.5ZM162.2,106.95c0,.17-.06.31-.18.43-.12.12-.26.17-.43.17-.22,0-.39-.09-.5-.27-.33-.5-.71-1.01-1.15-1.51-.09-.11-.14-.24-.14-.38,0-.16.05-.29.16-.41s.24-.17.4-.17c.18,0,.32.06.43.18.38.42.81.95,1.27,1.58.08.11.13.23.13.36ZM166.72,108.35c0,.18-.07.33-.2.45-.13.13-.28.19-.46.19-.28,0-.48-.13-.6-.39-.36-.78-.83-1.55-1.39-2.34-.07-.09-.1-.21-.1-.35,0-.17.06-.31.18-.43.12-.12.27-.18.43-.18.21,0,.39.09.52.27.63.89,1.15,1.72,1.54,2.49.05.09.07.19.07.29Z"/>
      <path class="cls-1" d="M180.79,109.01c0,.17-.06.32-.19.44s-.27.19-.44.19h-5.92c-.79,0-1.42-.09-1.89-.28-.36-.14-.68-.35-.94-.64-.15-.16-.29-.24-.43-.24-.11,0-.23.05-.35.15-.32.26-.71.55-1.16.87-.12.08-.25.13-.38.13-.19,0-.35-.07-.48-.2s-.2-.29-.2-.48c0-.24.11-.43.32-.57.58-.37,1.03-.68,1.36-.92.33-.24.49-.58.49-1.02v-1.83c0-.35-.18-.53-.53-.53h-1.04c-.17,0-.31-.06-.43-.18-.12-.12-.18-.27-.18-.45,0-.17.06-.31.18-.43s.26-.17.43-.17h1.71c.75,0,1.12.37,1.12,1.12v2.59c0,.43.09.77.27,1.02.24.34.57.58.98.7.3.09.71.14,1.25.14h5.82c.17,0,.32.06.44.17.13.12.19.26.19.43ZM171.69,100.16c0,.18-.06.33-.19.46s-.28.2-.47.2-.34-.07-.46-.2c-.42-.44-.85-.83-1.29-1.19-.16-.13-.24-.3-.24-.5,0-.18.06-.33.19-.46s.28-.19.46-.19c.15,0,.28.05.41.14.4.32.87.74,1.4,1.26.13.13.2.29.2.48ZM180.7,103.34c0,.16-.06.29-.17.41-.12.11-.25.17-.41.17h-1.97c-.32,0-.48.11-.48.34,0,.1.04.21.13.34.58.78,1.31,1.43,2.18,1.95.21.12.32.31.32.56,0,.18-.06.33-.19.46-.13.13-.28.2-.46.2-.13,0-.25-.03-.35-.1-.95-.6-1.69-1.24-2.23-1.93-.18-.23-.35-.35-.52-.35-.16,0-.33.12-.52.35-.57.73-1.36,1.39-2.37,1.99-.09.06-.21.08-.34.08-.18,0-.33-.06-.45-.18s-.18-.27-.18-.43c0-.25.11-.44.32-.56,1.09-.62,1.86-1.3,2.3-2.04.06-.09.08-.18.08-.27,0-.26-.17-.39-.52-.39h-1.82c-.16,0-.29-.06-.4-.17s-.16-.25-.16-.41.05-.29.16-.41c.11-.11.24-.17.4-.17h2.18c.37,0,.56-.19.56-.56v-.5c0-.37-.19-.56-.56-.56h-1.79c-.16,0-.29-.06-.41-.17-.11-.11-.17-.25-.17-.41s.06-.29.17-.4.25-.16.41-.16h.48c.29,0,.43-.11.43-.32,0-.08-.02-.17-.07-.25-.11-.19-.23-.37-.35-.56-.06-.08-.08-.19-.08-.32,0-.18.06-.33.18-.45.12-.12.27-.18.45-.18.22,0,.4.1.52.31.26.44.48.83.66,1.16.21.41.51.62.88.62.39,0,.69-.2.9-.59.26-.5.45-.9.57-1.19.1-.26.3-.39.59-.39.18,0,.33.06.46.18.13.12.19.27.19.45,0,.08-.02.16-.07.27-.08.19-.2.42-.34.69-.06.1-.08.2-.08.28,0,.21.14.31.42.31h.52c.16,0,.3.05.41.16.12.11.17.24.17.4s-.06.29-.17.41c-.12.11-.25.17-.41.17h-2.03c-.37,0-.56.19-.56.56v.5c0,.37.19.56.56.56h2.44c.16,0,.3.06.41.17.12.11.17.25.17.41Z"/>
      <path class="cls-1" d="M187.72,103.18c-.49.83-.89,1.64-1.22,2.42-.14.34-.38.5-.71.5-.47,0-.74-.24-.81-.73-.08-.55-.13-1.38-.13-2.48s.16-2.42.48-3.93c.09-.46.34-.69.73-.69.2,0,.36.07.49.2.13.13.2.3.2.5,0,.06,0,.11-.01.17-.34,1.54-.51,2.7-.53,3.49,0,.31.06.46.21.46.12,0,.25-.11.39-.34l.07-.11c.09-.15.23-.22.42-.22.34,0,.5.17.5.5,0,.09-.02.18-.07.25ZM192.53,103.25c0,1.58-.29,2.87-.85,3.88-.6,1.05-1.58,1.93-2.94,2.65-.1.06-.21.08-.34.08-.2,0-.36-.08-.5-.23-.14-.15-.21-.33-.21-.52,0-.26.13-.46.39-.6,1.14-.6,1.94-1.32,2.39-2.16.43-.77.64-1.82.64-3.15,0-1.2-.13-2.62-.38-4.24-.04-.21.02-.41.17-.58s.33-.26.55-.26c.18,0,.33.06.47.18.14.12.22.27.25.45.24,1.75.36,3.25.36,4.51Z"/>
      <path class="cls-1" d="M208.16,105.8c0,.13-.04.26-.11.38-.63,1.04-1.4,1.86-2.28,2.48-1,.68-2.06,1.02-3.18,1.02-2.46,0-3.68-1.11-3.68-3.33,0-.9.02-2.09.06-3.57.03-1.2.05-2.49.07-3.89,0-.2.07-.37.22-.51s.32-.22.52-.22c.21,0,.38.07.53.22s.22.33.21.53l-.17,7.13c0,1.47.77,2.2,2.32,2.2.83,0,1.63-.29,2.39-.88.65-.49,1.23-1.13,1.72-1.95.14-.23.35-.35.63-.35.21,0,.38.07.52.22.15.14.22.32.22.52Z"/>
      <path class="cls-1" d="M218.34,101.1c-.68.13-1.37.24-2.07.32-.38.05-.66.14-.83.29s-.3.41-.38.77c-.52,2.21-1.17,4.34-1.95,6.37-.12.31-.35.46-.69.46-.21,0-.38-.07-.52-.22-.14-.14-.21-.31-.21-.51,0-.09.02-.19.06-.28.79-1.88,1.44-3.86,1.95-5.96.02-.07.03-.14.03-.21,0-.33-.2-.49-.59-.48-.39,0-.75,0-1.08,0-.19,0-.35-.08-.48-.22-.14-.13-.2-.3-.2-.48,0-.2.07-.36.22-.5.15-.14.32-.21.51-.2.53.02.96.02,1.29.01.52-.02.82-.27.9-.77.03-.21.08-.51.14-.92.06-.41.3-.61.71-.61.2,0,.36.07.5.21.14.14.21.3.21.49,0,.09-.04.33-.11.7,0,.07-.01.13-.01.18,0,.37.21.53.62.46.06,0,.38-.07.98-.2.45-.08.76-.13.92-.13.2,0,.36.07.48.21.13.14.19.31.19.5,0,.38-.19.61-.57.69ZM222.76,108.46c0,.4-.2.63-.59.69-.89.13-1.82.2-2.8.2-2.48,0-3.72-.69-3.72-2.09,0-.32.08-.68.24-1.09.11-.28.32-.42.63-.42.44,0,.66.22.66.67,0,.08-.01.18-.04.32-.03.13-.04.24-.04.31,0,.63.8.95,2.39.95.7,0,1.53-.07,2.49-.21.21-.03.39.03.55.16.16.14.24.31.24.51ZM222.37,103.25c0,.2-.07.36-.22.5s-.32.21-.52.2c-1.39-.07-2.88-.04-4.47.1-.2.02-.37-.04-.51-.17s-.22-.3-.22-.5c0-.18.06-.33.17-.46.12-.13.26-.2.43-.22,1.58-.16,3.13-.21,4.65-.17.19,0,.35.08.48.22.14.14.2.3.2.49Z"/>
      <path class="cls-1" d="M231,106.6c-.82,1.61-1.61,2.42-2.37,2.42-.93,0-1.66-.83-2.17-2.49-.4-1.29-.6-2.75-.6-4.38,0-.84.03-1.56.08-2.17.02-.2.1-.36.23-.49.13-.13.3-.2.5-.2.21,0,.39.08.54.25s.21.35.19.57c-.07.63-.1,1.35-.1,2.17,0,1.07.12,2.14.35,3.19.26,1.17.61,1.75,1.04,1.75.31,0,.66-.42,1.05-1.26.12-.25.33-.38.63-.38.2,0,.36.07.5.2s.2.3.2.5c0,.12-.02.23-.07.32ZM237.07,106.16c.03.22-.03.42-.18.6-.15.18-.34.27-.57.27-.2,0-.37-.07-.52-.2-.15-.13-.23-.29-.25-.48-.23-2.12-.92-4-2.06-5.66-.08-.12-.13-.26-.13-.41,0-.21.07-.38.21-.52.14-.14.31-.21.52-.21.25,0,.45.1.6.31,1.29,1.79,2.08,3.89,2.38,6.29Z"/>
      <path class="cls-1" d="M250.73,99.61c0,.37-.25.6-.76.67-1.41.21-2.66.8-3.75,1.74s-1.64,1.94-1.64,2.99c0,1.51,1.21,2.48,3.63,2.9.4.07.6.3.6.71,0,.22-.09.41-.26.57s-.37.21-.59.16c-1.45-.28-2.55-.71-3.3-1.29-1-.77-1.5-1.75-1.5-2.94,0-1.01.34-1.92,1.02-2.74.3-.35.59-.65.88-.9.29-.24.43-.45.43-.62,0-.22-.24-.32-.71-.28-1.91.17-3.47.33-4.66.49-.21.03-.38-.03-.53-.17-.15-.14-.22-.31-.22-.52,0-.18.06-.33.17-.47.12-.13.26-.21.44-.22,1.72-.17,5.02-.42,9.9-.76.25,0,.46.05.62.17.16.13.24.29.24.48ZM249.97,103.74c0,.15-.05.28-.16.38-.11.11-.24.16-.38.16-.22,0-.39-.08-.49-.25-.27-.43-.56-.8-.87-1.11-.1-.1-.15-.23-.15-.38,0-.37.18-.56.55-.56.16,0,.3.07.42.21.39.44.72.85.98,1.23.07.11.11.21.11.31ZM251.68,102.94c0,.15-.05.28-.16.38s-.24.16-.38.16c-.21,0-.38-.08-.49-.25-.31-.46-.6-.84-.87-1.13-.1-.11-.15-.23-.15-.35,0-.37.19-.56.56-.56.14,0,.28.07.41.2.33.33.66.74.99,1.25.07.13.1.23.1.31Z"/>
      <path class="cls-1" d="M42.4,115.38c0,.19-.07.35-.2.48-.13.13-.29.2-.48.2-1.47-.02-2.45-.02-2.95-.01-.46,0-.69.24-.69.71v.77c0,.34.09.87.28,1.58.07.29.11.59.11.9,0,1.23-.34,2.24-1.01,3.03s-1.71,1.4-3.12,1.84c-.07.02-.14.03-.21.03-.18,0-.33-.07-.47-.2s-.2-.29-.2-.49c0-.33.16-.54.49-.64,1.33-.4,2.25-1.02,2.77-1.85.09-.15.14-.28.14-.38,0-.13-.07-.2-.21-.2-.08,0-.18.03-.29.08-.26.13-.55.2-.85.2-.69,0-1.25-.17-1.67-.52-.46-.38-.69-.91-.69-1.58s.26-1.25.77-1.67c.48-.38,1.07-.57,1.78-.57.07,0,.16,0,.29.01.13,0,.22.01.28.01.27,0,.41-.12.41-.35,0-.48-.24-.71-.71-.69-1.7.07-3.41.16-5.14.29-.2.02-.37-.04-.51-.17-.15-.13-.22-.3-.22-.5s.06-.34.19-.47.28-.19.46-.2l5.21-.25c.45-.02.67-.23.67-.63v-.63c0-.2.07-.37.22-.51.14-.14.31-.22.51-.22s.36.07.5.21c.14.14.21.31.21.5v.53c0,.48.23.71.7.7,1.41-.02,2.4-.02,2.97-.01.19,0,.34.06.47.19s.19.28.19.47ZM36.6,119.39c.04-.13.06-.25.06-.36,0-.35-.15-.59-.45-.71-.16-.07-.35-.1-.56-.1-.32,0-.59.1-.8.31-.22.21-.33.46-.33.77,0,.64.34.97,1.02.97.56,0,.91-.29,1.06-.87Z"/>
      <path class="cls-1" d="M48.09,123.17c0,.57-.2,1.05-.6,1.45s-.89.59-1.46.59-1.05-.2-1.45-.59c-.4-.4-.6-.88-.6-1.45s.2-1.05.6-1.46c.4-.4.88-.6,1.45-.6s1.05.2,1.46.6.6.89.6,1.46ZM47.1,123.17c0-.3-.1-.55-.31-.76-.21-.21-.46-.31-.76-.31s-.54.1-.74.31c-.21.21-.31.46-.31.75s.1.53.31.74c.21.2.45.3.74.3s.55-.1.76-.29c.21-.2.31-.44.31-.74Z"/>
      <path class="cls-1" d="M70.16,120.62c0,1.19-.42,2.15-1.26,2.86-.73.62-1.72,1.02-2.97,1.19-.2.03-.37-.03-.53-.16-.15-.13-.23-.3-.23-.5,0-.38.19-.61.56-.67,2-.34,3-1.27,3-2.77,0-1.04-.42-1.76-1.27-2.18-.11-.06-.22-.08-.32-.08-.24,0-.44.15-.59.46-.61,1.27-1.3,2.38-2.09,3.32-1.2,1.44-2.4,2.16-3.6,2.16-.62,0-1.09-.18-1.44-.53s-.51-.83-.51-1.43c0-1.06.31-2.03.94-2.9.48-.66,1.07-1.2,1.78-1.62.42-.25.64-.6.67-1.05v-.27c.03-.43-.17-.64-.59-.64-.52,0-1.12,0-1.78-.01-.18,0-.33-.07-.46-.2s-.19-.28-.19-.46.07-.33.2-.46c.14-.13.3-.19.48-.18.86.04,1.5.05,1.92.04.38,0,.6-.21.66-.6l.08-.6c.06-.41.27-.62.66-.62.2,0,.37.08.52.25s.21.34.18.52l-.04.27c-.04.22,0,.4.1.52.1.12.27.17.49.15.96-.08,2.04-.2,3.25-.38.2-.03.37.02.52.15.15.13.23.3.23.5,0,.38-.2.6-.59.64-1.47.18-2.67.29-3.6.35-.44.03-.67.23-.7.6-.02.22.03.38.15.48.12.1.29.13.51.11.36-.05.68-.07.94-.07,1.43,0,2.56.27,3.4.81,1,.65,1.5,1.66,1.5,3.01ZM61.77,122.66c.42-.22.61-.67.56-1.33,0-.42-.02-.83-.03-1.25-.04-.65-.16-.98-.36-.98-.13,0-.28.07-.45.22-.36.32-.66.72-.88,1.2-.24.51-.36,1.03-.36,1.54,0,.55.23.83.69.83.26,0,.54-.08.84-.24ZM65.29,118.53c.05-.09.07-.18.07-.25,0-.23-.15-.34-.43-.32-.43.03-.75.1-.95.22-.29.17-.44.45-.45.84,0,.35,0,.76.01,1.2,0,.28.11.42.29.42.13,0,.25-.08.36-.24.42-.59.78-1.21,1.09-1.88Z"/>
      <path class="cls-1" d="M77.62,118.18c-.49.83-.89,1.64-1.22,2.42-.14.34-.38.5-.71.5-.47,0-.74-.24-.81-.73-.08-.55-.13-1.38-.13-2.48s.16-2.42.48-3.93c.09-.46.34-.69.73-.69.2,0,.36.07.49.2.13.13.2.3.2.5,0,.06,0,.11-.01.17-.34,1.54-.51,2.7-.53,3.49,0,.31.06.46.21.46.12,0,.25-.11.39-.34l.07-.11c.09-.15.23-.22.42-.22.34,0,.5.17.5.5,0,.09-.02.18-.07.25ZM82.44,118.25c0,1.58-.28,2.87-.85,3.88-.6,1.05-1.58,1.93-2.94,2.65-.1.06-.21.08-.34.08-.2,0-.36-.08-.5-.23-.14-.15-.21-.33-.21-.52,0-.26.13-.46.39-.6,1.14-.6,1.94-1.32,2.39-2.16.43-.77.64-1.82.64-3.15,0-1.2-.13-2.62-.38-4.24-.04-.21.02-.41.17-.58s.33-.26.55-.26c.18,0,.33.06.47.18.14.12.22.27.25.45.24,1.75.36,3.25.36,4.51Z"/>
      <path class="cls-1" d="M95.02,118.03c0,1.51-.25,3.15-.74,4.93-.15.53-.31.91-.49,1.13-.25.34-.6.5-1.05.5-.51,0-1.16-.13-1.93-.41-.32-.11-.48-.32-.48-.63,0-.19.07-.35.2-.48s.29-.2.47-.2c.07,0,.14,0,.2.03.49.16.82.24,1.01.24.22,0,.38-.07.48-.2.07-.09.16-.3.25-.63.44-1.5.66-2.87.66-4.09,0-.45-.09-.75-.27-.9-.18-.15-.51-.22-1.01-.22h-.2c-.08,0-.15.01-.21.01-.47,0-.77.24-.91.73-.63,2.12-1.46,4.17-2.49,6.15-.14.27-.36.41-.66.41-.21,0-.38-.07-.52-.22-.14-.14-.21-.32-.21-.53,0-.15.03-.28.08-.38.88-1.54,1.65-3.28,2.32-5.22.03-.09.04-.18.04-.25,0-.34-.2-.48-.6-.42-.29.05-.74.11-1.36.2-.2.03-.38-.03-.54-.16-.16-.14-.25-.31-.25-.51,0-.39.21-.62.62-.68s1.06-.14,1.95-.25c.45-.04.75-.32.91-.84.08-.46.16-.92.24-1.37.07-.4.3-.6.7-.6.22,0,.4.08.54.24.14.16.18.36.15.58,0,.05-.05.25-.13.62-.07.25-.1.45-.1.6,0,.39.22.57.66.55h.21c.71-.06,1.28.07,1.72.36.48.34.73.97.73,1.89ZM96.9,114.96c0,.15-.05.28-.16.38-.11.11-.24.16-.39.16-.22,0-.39-.08-.49-.25-.27-.43-.56-.8-.87-1.11-.1-.1-.15-.23-.15-.38,0-.37.18-.56.55-.56.16,0,.3.07.42.21.39.44.72.85.98,1.23.07.11.11.21.11.31ZM97.79,119.86c-.39-1.02-.92-2.01-1.58-2.98-.08-.11-.11-.24-.11-.38,0-.2.07-.36.22-.5.14-.13.31-.2.51-.2.23,0,.42.1.57.31.74,1.04,1.33,2.11,1.79,3.22.04.09.06.19.06.28,0,.2-.08.37-.24.52-.16.15-.35.22-.55.22-.31,0-.53-.16-.66-.49ZM98.61,114.16c0,.15-.05.28-.16.38-.11.11-.24.16-.39.16-.21,0-.38-.08-.49-.25-.31-.46-.6-.83-.87-1.13-.1-.11-.15-.23-.15-.35,0-.37.19-.56.56-.56.14,0,.27.07.41.2.33.33.66.74.99,1.25.06.13.1.23.1.31Z"/>
      <path class="cls-1" d="M111.72,123.26c0,.4-.2.63-.6.69-1.54.21-3.08.32-4.62.32-2.74,0-4.12-.83-4.12-2.48,0-1.01.7-2.05,2.11-3.14.28-.21.42-.46.42-.74,0-.13-.03-.27-.08-.42-.41-1.04-.75-2.15-1.02-3.35,0-.05-.01-.1-.01-.15,0-.21.07-.38.22-.53.14-.14.32-.22.52-.22.18,0,.33.06.47.18s.22.27.26.45c.18.93.43,1.87.77,2.81.11.31.29.46.53.46.13,0,.27-.04.41-.13.08-.05,1.12-.61,3.09-1.69.12-.06.23-.1.34-.1.2,0,.36.07.5.21s.2.31.2.5c0,.29-.13.5-.39.63-1.15.57-2.39,1.24-3.72,2.02-.85.49-1.53.96-2.03,1.39-.73.62-1.09,1.19-1.09,1.71,0,.84.88,1.26,2.63,1.26,1.45,0,2.92-.13,4.41-.38.21-.04.39.01.56.15.17.14.25.32.25.53Z"/>
      <path class="cls-1" d="M125.56,119.29c0,1.44-.61,2.66-1.82,3.65-.97.81-2.24,1.42-3.81,1.83-.08.02-.13.03-.17.03-.19,0-.35-.07-.48-.2-.14-.14-.2-.3-.2-.5,0-.35.16-.56.49-.66,1.2-.35,2.19-.81,2.95-1.4,1.03-.77,1.54-1.68,1.54-2.72,0-1.25-.63-1.88-1.89-1.88s-2.88.33-4.77.99c-.08.03-.16.04-.22.04-.19,0-.35-.07-.49-.21-.14-.14-.21-.31-.21-.5,0-.35.17-.57.5-.67,2.19-.66,3.95-.99,5.26-.99,1.05,0,1.85.27,2.42.8.6.56.9,1.35.9,2.38ZM123.93,114.39c0,.21-.07.38-.22.51-.15.13-.32.19-.52.17-1.89-.17-3.39-.4-4.48-.7-.35-.09-.52-.32-.52-.67,0-.2.07-.36.2-.5.14-.13.3-.2.5-.2.06,0,.12,0,.18.03,1.24.34,2.65.56,4.21.67.18,0,.33.08.46.22.13.14.19.29.19.47Z"/>
      <path class="cls-1" d="M139.99,122.9c0,.39-.19.62-.57.7-1.47.27-2.9.41-4.27.41s-2.34-.11-3.11-.32c-1.25-.36-1.88-1.03-1.88-2.03,0-.68.44-1.46,1.33-2.35.12-.12.28-.18.46-.18s.33.06.46.19.2.28.2.46c0,.17-.06.31-.18.43-.5.5-.76.94-.76,1.3,0,.78,1.19,1.16,3.56,1.16.93,0,2.25-.14,3.95-.43.21-.04.39.01.56.15.17.14.25.31.25.53ZM138.46,115.66c-.7.28-1.65.8-2.86,1.55-.12.08-.23.11-.32.11-.16,0-.3-.06-.41-.17-.12-.12-.17-.26-.17-.43,0-.21.09-.38.28-.49l.18-.11c.18-.1.27-.21.27-.31,0-.12-.14-.18-.41-.18-.84,0-1.99-.03-3.44-.08-.18,0-.33-.08-.46-.21-.13-.13-.19-.28-.19-.46,0-.2.07-.36.22-.5.15-.13.32-.2.51-.19,1.84.13,4,.14,6.5.04.27,0,.49.06.65.2.16.14.25.31.25.5,0,.33-.2.57-.59.73ZM140.02,118.38c0,.15-.05.28-.16.38-.11.11-.24.16-.38.16-.22,0-.39-.08-.49-.25-.27-.43-.56-.8-.87-1.11-.1-.1-.15-.23-.15-.38,0-.37.18-.56.55-.56.16,0,.3.07.42.21.39.44.72.85.98,1.23.07.11.11.21.11.31ZM141.73,117.58c0,.15-.05.28-.16.38-.11.11-.24.16-.38.16-.21,0-.38-.08-.49-.25-.31-.46-.6-.83-.87-1.13-.1-.11-.15-.23-.15-.35,0-.37.19-.56.56-.56.14,0,.28.07.41.2.33.33.66.74.99,1.25.07.13.1.23.1.31Z"/>
      <path class="cls-1" d="M153.58,115.21c0,.28-.13.48-.39.6,0,0-.54.21-1.61.62-.3.11-.45.27-.45.46,0,.11.05.23.15.36.66.9,1.35,1.7,2.06,2.41.2.2.29.42.29.66,0,.21-.08.4-.23.55-.15.15-.35.22-.58.22-.15,0-.3-.03-.46-.1-1.13-.5-2.28-.76-3.46-.76-.86,0-1.53.13-2,.39-.48.26-.71.62-.71,1.08,0,1.05,1.14,1.58,3.42,1.58.91,0,1.81-.07,2.72-.2.2-.03.37.03.53.16.15.14.23.31.23.51,0,.17-.06.31-.17.44-.12.13-.26.2-.41.22-.91.12-1.81.18-2.72.18-3.34,0-5.01-.93-5.01-2.8,0-1.02.44-1.76,1.33-2.23.68-.36,1.58-.55,2.7-.55.51,0,1.02.06,1.51.18.16.04.29.06.39.06.2,0,.29-.07.29-.21,0-.11-.06-.24-.17-.38-.36-.43-.62-.76-.78-.99-.31-.42-.67-.63-1.09-.63-.11,0-.24.01-.38.04-1.06.18-2.33.27-3.79.27-.19,0-.34-.07-.48-.2-.13-.13-.2-.29-.2-.48s.06-.35.2-.48c.13-.13.29-.2.48-.2,1.01,0,2.04-.06,3.08-.18.33-.04.49-.18.49-.42,0-.12-.04-.25-.13-.38l-.48-.78c-.07-.11-.1-.23-.1-.35,0-.19.07-.35.2-.48s.3-.2.48-.2c.28,0,.48.12.62.36.32.62.52.98.6,1.09.3.43.62.64.95.64.11,0,.24-.02.38-.06.58-.18,1.16-.4,1.74-.67.09-.05.19-.07.29-.07.19,0,.35.07.48.2.13.13.2.3.2.48ZM154.65,114.42c0,.14-.05.26-.15.36-.1.1-.22.15-.37.15-.2,0-.43-.17-.7-.52-.2-.26-.39-.52-.59-.78-.1-.1-.15-.22-.15-.35,0-.35.18-.53.53-.53.14,0,.27.07.39.2.38.43.7.82.94,1.18.06.09.1.19.1.29ZM156.29,113.65c0,.14-.05.26-.16.36-.11.1-.23.15-.37.15-.21,0-.36-.08-.46-.24-.3-.44-.57-.8-.83-1.08-.09-.1-.14-.21-.14-.34,0-.35.18-.53.53-.53.12,0,.25.07.38.2.34.34.65.73.95,1.18.07.13.1.23.1.29Z"/>
      <path class="cls-1" d="M163.33,121.6c-.82,1.61-1.61,2.42-2.37,2.42-.93,0-1.66-.83-2.17-2.49-.4-1.29-.6-2.75-.6-4.38,0-.84.03-1.56.08-2.17.02-.2.1-.36.23-.49.13-.13.3-.2.5-.2.21,0,.39.08.54.25s.21.35.19.57c-.07.62-.1,1.35-.1,2.17,0,1.07.12,2.14.35,3.19.26,1.17.61,1.75,1.04,1.75.31,0,.66-.42,1.05-1.26.12-.25.33-.38.63-.38.2,0,.36.07.5.2s.2.3.2.5c0,.12-.02.23-.07.32ZM169.39,121.16c.03.22-.03.42-.18.6-.15.18-.34.27-.57.27-.2,0-.37-.07-.52-.2-.15-.13-.23-.29-.25-.48-.23-2.12-.92-4-2.06-5.66-.08-.12-.13-.26-.13-.41,0-.21.07-.38.21-.52.14-.14.31-.21.52-.21.25,0,.45.1.6.31,1.29,1.79,2.08,3.89,2.38,6.29Z"/>
      <path class="cls-1" d="M182.97,122.89c0,.2-.07.36-.2.5-.13.14-.3.2-.5.2-.13,0-.25-.03-.36-.1-.93-.55-1.76-.97-2.49-1.25-.09-.04-.18-.06-.25-.06-.27,0-.43.19-.48.56-.08.56-.26.98-.56,1.25-.47.42-1.3.63-2.51.63-.77,0-1.4-.14-1.9-.43-.62-.36-.92-.91-.92-1.62,0-.81.39-1.41,1.16-1.78.58-.28,1.33-.42,2.24-.42.1,0,.26,0,.48.01.49.02.73-.19.73-.62v-.39c0-.47-.24-.7-.71-.69-.99.03-1.94.04-2.86.03-.17,0-.31-.06-.43-.19-.12-.13-.18-.27-.18-.44s.06-.31.19-.43c.13-.12.27-.17.44-.17.91.02,1.86.02,2.84,0,.46,0,.69-.25.69-.71v-.06c0-.48-.24-.7-.73-.69-1.13.05-2.2.06-3.21.03-.17,0-.31-.08-.43-.2-.12-.13-.18-.27-.18-.44,0-.18.07-.33.2-.45.13-.12.28-.18.46-.17,1.04.03,2.11.03,3.19,0,.46,0,.69-.23.69-.67,0-.04,0-.25-.01-.63,0-.19.06-.35.2-.48.13-.13.29-.2.48-.2s.34.07.48.2c.13.14.2.3.2.48v.48c0,.5.24.72.73.67.72-.08,1.5-.17,2.35-.29.19-.03.35.02.5.15.14.13.22.28.22.47,0,.36-.18.56-.55.6-1.01.13-1.86.23-2.56.29-.45.05-.67.29-.67.73v.04c0,.5.24.72.73.67.49-.05,1.18-.13,2.06-.27.19-.03.35.02.5.15.15.13.22.28.22.47,0,.36-.18.57-.53.62-.75.1-1.52.19-2.31.27-.45.04-.67.28-.67.73v.63c0,.51.26.85.77,1.02.95.31,1.99.76,3.12,1.36.24.13.36.34.36.62ZM177.36,122.34c.06-.47-.12-.72-.56-.76-.21-.02-.41-.03-.6-.03-1.34,0-2.02.32-2.02.97,0,.26.13.47.39.63.26.16.59.24,1.01.24.62,0,1.06-.07,1.32-.22.25-.14.41-.42.46-.83Z"/>
      <path class="cls-1" d="M197.04,120.8c0,.13-.04.26-.11.38-.63,1.04-1.4,1.86-2.28,2.48-1,.68-2.06,1.02-3.18,1.02-2.46,0-3.68-1.11-3.68-3.33,0-.9.02-2.09.06-3.57.03-1.19.05-2.49.07-3.89,0-.2.07-.37.22-.51s.32-.22.52-.22c.21,0,.38.08.53.22.15.15.22.33.21.53l-.17,7.13c0,1.47.77,2.2,2.32,2.2.83,0,1.63-.29,2.39-.88.65-.49,1.23-1.13,1.72-1.95.14-.23.35-.35.63-.35.21,0,.38.07.52.22.15.14.22.32.22.52Z"/>
      <path class="cls-1" d="M207.22,116.1c-.68.13-1.37.24-2.07.32-.38.05-.66.14-.83.29s-.3.41-.38.77c-.52,2.21-1.17,4.33-1.95,6.37-.12.31-.35.46-.69.46-.21,0-.38-.07-.52-.22-.14-.14-.21-.31-.21-.51,0-.09.02-.19.06-.28.79-1.88,1.44-3.86,1.95-5.96.02-.07.03-.14.03-.21,0-.33-.2-.48-.59-.48-.39,0-.75,0-1.08,0-.19,0-.35-.08-.48-.22-.14-.14-.2-.3-.2-.48,0-.2.07-.36.22-.5.15-.14.32-.21.51-.2.53.02.96.02,1.29.01.52-.02.82-.28.9-.77.03-.21.08-.51.14-.92.06-.41.3-.61.71-.61.2,0,.36.07.5.21s.21.3.21.49c0,.09-.04.33-.11.7,0,.07-.01.13-.01.18,0,.37.21.53.62.46.06,0,.38-.08.98-.2.45-.08.76-.13.92-.13.2,0,.36.07.48.21s.19.31.19.5c0,.38-.19.61-.57.69ZM211.64,123.46c0,.4-.2.63-.59.69-.89.13-1.82.2-2.8.2-2.48,0-3.72-.69-3.72-2.09,0-.32.08-.68.24-1.09.11-.28.32-.42.63-.42.44,0,.66.22.66.67,0,.08-.01.18-.04.32-.03.13-.04.24-.04.31,0,.63.8.95,2.39.95.7,0,1.53-.07,2.49-.21.21-.03.39.03.55.16.16.14.24.31.24.51ZM211.25,118.25c0,.2-.07.36-.22.5-.15.14-.32.21-.52.2-1.39-.07-2.88-.04-4.47.1-.2.02-.37-.04-.51-.17-.14-.13-.22-.3-.22-.5,0-.18.06-.33.17-.46.12-.13.26-.2.43-.22,1.58-.16,3.13-.21,4.65-.17.19,0,.35.08.48.22.14.14.2.3.2.49Z"/>
      <path class="cls-1" d="M218.74,123.28c0,.28-.09.52-.28.71s-.42.29-.7.29-.52-.1-.71-.29-.29-.43-.29-.71.1-.52.29-.71.43-.29.71-.29.5.1.69.29.29.43.29.7ZM223.33,114.36c0,.15-.04.3-.13.45l-3.61,6.37c-.13.22-.32.34-.56.34-.18,0-.33-.07-.46-.2-.13-.13-.2-.29-.2-.46,0-.08.02-.17.07-.27l3.15-6.61c.17-.35.44-.53.81-.53.25,0,.47.09.65.27.18.18.27.39.27.64Z"/>
    </g>
    <g>
      <path class="cls-1" d="M183.26,149.82c-.15-.18-.28-.27-.39-.27-.16,0-.24.17-.23.53.07,1.92-.28,3.44-1.05,4.56-.84,1.21-2.11,1.82-3.81,1.82-1.21,0-2.18-.33-2.91-.99-.77-.69-1.16-1.63-1.16-2.83,0-1.61.54-3.25,1.63-4.94.14-.21.21-.38.21-.5,0-.14-.09-.21-.27-.21-.12,0-.28.04-.48.11-.69.24-1.13.36-1.33.36-.23,0-.42-.07-.56-.22-.14-.15-.22-.32-.22-.52,0-.41.2-.65.6-.72,1.35-.23,2.62-.56,3.81-.99.12-.04.24-.06.35-.06.24,0,.44.08.61.24s.25.35.25.57c0,.19-.07.37-.21.52-1.94,2.17-2.91,4.25-2.91,6.23,0,.77.24,1.38.73,1.84.49.46,1.12.68,1.9.68,1.36,0,2.32-.56,2.87-1.69.4-.81.6-1.98.6-3.51,0-1.37-.21-2.75-.61-4.15-.03-.11-.04-.21-.04-.32,0-.22.06-.4.19-.53.12-.13.29-.2.49-.2.34,0,.57.21.71.62.47,1.48,1.41,2.85,2.82,4.1.21.18.32.38.32.61,0,.21-.08.39-.23.55-.16.16-.33.23-.53.23-.25,0-.62-.3-1.11-.9Z"/>
      <path class="cls-1" d="M199.35,152.47c0,1.41-.64,2.46-1.93,3.15-1.01.53-2.29.79-3.83.79-.51,0-1.04-.02-1.59-.04-.18-.01-.33-.08-.46-.22-.13-.13-.2-.29-.2-.47,0-.2.07-.37.22-.51.14-.14.32-.21.52-.2.48.02.96.03,1.45.03,1.04,0,1.95-.17,2.73-.51,1.05-.45,1.58-1.13,1.58-2.04,0-.59-.22-1.05-.65-1.4-.43-.34-1.02-.51-1.77-.51-.97,0-1.96.18-2.98.54-1.02.36-1.94.84-2.77,1.46-.12.1-.25.2-.38.29-.13.1-.27.14-.42.14-.19,0-.36-.06-.5-.19-.14-.13-.22-.29-.22-.5,0-.22.08-.4.24-.54,2.09-1.87,3.89-3.51,5.4-4.94.15-.14.22-.27.22-.4,0-.23-.18-.33-.55-.3-.89.08-1.97.16-3.24.23-.2,0-.38-.06-.53-.2-.16-.15-.23-.32-.23-.52s.07-.37.2-.51c.14-.14.3-.21.5-.21,1.72-.02,3.72-.13,6-.34.3-.03.54.03.73.19.19.16.29.36.29.61,0,.22-.13.45-.39.67-.93.82-1.93,1.72-3.01,2.69-.24.22-.36.4-.36.54s.11.21.33.21c.1,0,.22-.02.36-.04.47-.11.97-.17,1.51-.17,1.1,0,1.98.25,2.64.76.72.57,1.08,1.39,1.08,2.46Z"/>
      <path class="cls-1" d="M214.07,154.66c0,.43-.21.68-.61.75-1.64.29-3.17.43-4.58.43s-2.51-.11-3.33-.34c-1.34-.38-2.01-1.11-2.01-2.17,0-.73.47-1.57,1.42-2.52.13-.13.29-.2.5-.2.19,0,.35.07.5.2.14.13.21.3.21.49,0,.17-.07.33-.2.46-.54.56-.81,1.03-.81,1.4,0,.83,1.27,1.25,3.81,1.25,1.21,0,2.62-.16,4.23-.47.22-.04.42.01.6.16.18.14.27.33.27.56ZM212.43,146.91c-.84.33-1.86.88-3.06,1.67-.12.08-.24.12-.35.12-.17,0-.32-.06-.44-.19-.12-.12-.19-.28-.19-.46,0-.23.1-.41.3-.53l.2-.12c.19-.11.29-.22.29-.33,0-.13-.15-.2-.43-.2-1.1.02-2.33,0-3.69-.09-.19,0-.35-.08-.49-.23-.13-.14-.2-.3-.2-.5,0-.21.08-.39.23-.53.16-.14.34-.21.55-.2,2.39.14,4.71.16,6.96.04.29,0,.52.06.7.21.17.15.26.33.26.54,0,.35-.21.61-.63.78Z"/>
    </g>
  </g>
</svg>