<?xml version="1.0" encoding="UTF-8"?>
<svg xmlns="http://www.w3.org/2000/svg" viewBox="0 0 286.1 187">
  <defs>
    <style>
      .cls-1 {
        fill: #5b5b5b;
      }

      .cls-2 {
        fill: #f3fcff;
        stroke: #cecece;
        stroke-linecap: round;
        stroke-linejoin: round;
        stroke-width: 7px;
      }
    </style>
  </defs>
  <g id="_レイヤー_1" data-name="レイヤー 1">
    <path class="cls-2" d="M117.77,147.26c18.12,41.17,113.2,53.28,120.42,4.36,39.24,13.64,65.62-44.45,21.39-73.93,5.18-70.12-61.16-74.62-86.06-44.74-7.4-41.61-101.67-38.64-106.97,5.84-102.51,1.42-74.88,166.93,45.67,124.09"/>
  </g>
  <g id="mari2kb">
    <g>
      <path class="cls-1" d="M78.84,63.94c0,.27-.09.49-.28.67s-.41.28-.67.28h-2.3c-.49,0-.81.03-.95.08-.32.11-.5.35-.55.72-.03.18-.04.42-.04.74v4.96c0,.27-.09.49-.27.67-.18.18-.4.28-.67.28s-.49-.09-.68-.28-.29-.41-.29-.67v-6.9c0-1,.51-1.5,1.52-1.5h4.22c.25,0,.47.09.67.28.19.19.28.41.28.67Z"/>
      <path class="cls-1" d="M96.15,77.01c0,.53-.26.85-.78.95-2,.37-3.93.55-5.8.55s-3.18-.15-4.22-.44c-1.7-.48-2.55-1.4-2.55-2.76,0-.92.6-1.99,1.8-3.19.16-.16.37-.25.63-.25s.45.09.63.26c.18.17.27.38.27.62s-.08.42-.25.59c-.68.68-1.03,1.27-1.03,1.77,0,1.05,1.61,1.58,4.83,1.58,1.27,0,3.05-.2,5.36-.59.28-.05.53.02.76.2.23.18.34.42.34.71ZM94.08,67.19c-.95.38-2.24,1.08-3.88,2.11-.16.1-.31.15-.44.15-.22,0-.4-.08-.56-.24-.16-.16-.24-.35-.24-.58,0-.29.13-.51.38-.66l.25-.15c.24-.14.36-.28.36-.42,0-.16-.18-.25-.55-.25-1.14,0-2.7-.04-4.67-.11-.24-.01-.45-.11-.62-.29-.17-.18-.26-.39-.26-.63,0-.27.1-.49.29-.67.2-.18.43-.27.69-.26,2.5.18,5.43.2,8.82.06.37-.01.66.08.88.27.22.19.33.42.33.68,0,.44-.27.77-.8.99ZM96.19,70.88c0,.2-.07.38-.22.52-.15.15-.32.22-.52.22-.3,0-.53-.11-.67-.34-.37-.58-.76-1.08-1.18-1.5-.14-.14-.21-.31-.21-.51,0-.51.25-.76.74-.76.22,0,.41.1.57.29.53.6.98,1.15,1.33,1.67.1.15.15.29.15.42ZM98.51,69.79c0,.2-.07.38-.22.52-.15.15-.32.22-.52.22-.29,0-.51-.11-.66-.34-.42-.62-.81-1.13-1.18-1.54-.14-.15-.21-.31-.21-.47,0-.51.25-.76.76-.76.19,0,.37.09.55.27.44.44.89,1.01,1.35,1.69.09.18.13.32.13.42Z"/>
      <path class="cls-1" d="M116.71,72.47c0,3.64-2.07,5.82-6.21,6.55-.29.05-.55-.02-.77-.21s-.33-.42-.33-.7c0-.52.25-.82.74-.91,3.1-.6,4.65-2.18,4.65-4.75,0-2.19-.9-3.54-2.7-4.05-.18-.05-.34-.08-.48-.08h-.02c-.42.01-.69.25-.82.72-.61,2.23-1.32,4.1-2.15,5.6-1.3,2.38-2.75,3.57-4.33,3.57-.95,0-1.72-.39-2.31-1.16-.59-.77-.88-1.75-.88-2.93,0-1.85.65-3.48,1.96-4.88.39-.42.59-.84.59-1.27,0-.16-.03-.34-.08-.51-.19-.76-.32-1.37-.4-1.82-.05-.28.02-.53.2-.75.18-.22.41-.33.69-.33.51,0,.8.26.89.78.05.28.12.67.21,1.18.09.42.3.63.63.63.14,0,.29-.03.46-.09.79-.32,1.53-.53,2.23-.63s1.1-.42,1.19-.95c.03-.2.07-.49.13-.87.09-.54.4-.82.95-.82.29,0,.53.12.72.35s.26.5.21.79l-.1.53c-.01.09-.02.18-.02.27,0,.44.26.73.78.85,1.44.35,2.53,1.06,3.27,2.11.72,1,1.08,2.26,1.08,3.78ZM105.48,75.82c.3-.29.46-.61.46-.97,0-.24-.07-.52-.21-.84-.35-.79-.69-1.65-1.01-2.58-.11-.34-.3-.51-.55-.51-.18,0-.34.11-.48.32-.54.85-.82,1.81-.82,2.87,0,.61.13,1.13.4,1.58.29.48.67.72,1.12.72.3,0,.67-.2,1.08-.59ZM108.9,69.02c.02-.09.04-.18.04-.27,0-.44-.25-.62-.76-.53-.54.09-1.1.27-1.65.55-.38.18-.57.46-.57.84,0,.11.03.25.08.4.24.79.49,1.51.76,2.17.15.37.34.55.57.55.18,0,.31-.11.4-.32.44-1,.82-2.13,1.14-3.38Z"/>
      <path class="cls-1" d="M136.03,74.35c-.44,1.3-1.05,2.41-1.82,3.33-.89,1.04-1.89,1.56-3.02,1.56-.95,0-1.65-.25-2.11-.74-.39-.44-.66-1.15-.8-2.11-.19-1.29-.3-2-.32-2.13-.16-.75-.44-1.12-.84-1.12-.57,0-1.37.58-2.41,1.73-1.13,1.25-1.85,2.28-2.17,3.08l-.25.63c-.14.34-.44.51-.89.51-.28,0-.51-.09-.69-.29-.18-.19-.28-.42-.28-.68,0-.11.02-.22.06-.32,1.17-3.29,2.93-7.77,5.3-13.43.16-.41.46-.61.89-.61.28,0,.51.1.7.29.19.2.29.43.29.69,0,.14-.03.27-.08.4-.51,1.14-1.37,3.12-2.6,5.95-.11.28-.17.51-.17.68,0,.24.09.36.27.36s.4-.1.67-.3c.58-.44,1.15-.67,1.69-.67.91,0,1.54.35,1.9,1.06.25.49.48,1.41.68,2.75.13.86.23,1.39.32,1.6.15.42.42.63.82.63,1.18,0,2.19-1.21,3.02-3.63.15-.44.46-.67.93-.67.28,0,.51.1.7.29s.29.44.29.73c0,.14-.03.28-.08.42Z"/>
      <path class="cls-1" d="M147.95,67.72c-.65.14-1.27.25-1.88.34-.71.11-1.18.51-1.42,1.18-.89,2.55-1.89,4.97-3.02,7.26-.18.37-.47.55-.87.55-.27,0-.49-.09-.68-.28s-.29-.42-.29-.68c0-.15.04-.3.11-.46,1.06-2.05,1.98-4.13,2.75-6.23.05-.14.08-.26.08-.36,0-.39-.27-.59-.8-.59h-1.08c-.25,0-.47-.09-.65-.28-.18-.18-.27-.4-.27-.66,0-.27.09-.49.28-.67.19-.18.42-.27.68-.26.56.03,1.08.03,1.56.02.77-.01,1.25-.4,1.44-1.16.1-.43.21-.86.32-1.29.19-.48.5-.72.93-.72.27,0,.49.09.68.28s.29.41.29.67c0,.1-.06.37-.19.82-.04.15-.06.29-.06.4,0,.38.17.57.51.57.06,0,.13,0,.21-.02l.99-.21c.11-.03.19-.04.23-.04.25,0,.46.09.62.28.16.18.24.41.24.67,0,.48-.24.77-.72.87ZM155.15,77.13c0,.25-.09.48-.28.67s-.41.29-.67.29c-.16,0-.34-.06-.51-.17-.42-.28-.86-.54-1.33-.8-.15-.09-.29-.13-.42-.13-.3,0-.52.22-.64.67-.37,1.28-1.5,1.92-3.38,1.92-1,0-1.84-.22-2.51-.65-.8-.49-1.2-1.22-1.2-2.17s.37-1.65,1.12-2.15c.65-.43,1.46-.65,2.45-.65.28,0,.6.03.95.08.29.04.52,0,.67-.13.16-.13.24-.34.24-.65l-.02-2.77c0-.25.09-.47.27-.66.18-.18.39-.28.64-.28s.47.09.65.27c.18.18.27.39.27.65l.02,3.19c0,.7.35,1.2,1.04,1.52.61.28,1.33.67,2.17,1.16.32.19.47.46.47.8ZM149.62,76.6c0-.53-.3-.85-.91-.95-.37-.06-.69-.1-.97-.1-1.15,0-1.73.41-1.73,1.22,0,.37.16.66.47.86.31.21.71.31,1.21.31.89,0,1.46-.21,1.73-.65.14-.23.21-.46.21-.7ZM155.32,68.65c0,.25-.09.47-.28.66s-.4.28-.66.28c-.18,0-.35-.06-.51-.17-.96-.65-1.98-1.2-3.06-1.65-.35-.15-.53-.43-.53-.84,0-.25.09-.47.28-.65.18-.18.4-.27.64-.27.14,0,.25.03.34.08,1.19.51,2.3,1.1,3.34,1.77.29.19.44.46.44.8Z"/>
      <path class="cls-1" d="M172.95,66.17c0,.37-.18.64-.53.82-.79.38-1.71.73-2.77,1.06-.41.13-.61.33-.61.61,0,.17.07.34.21.51.92,1.23,1.86,2.32,2.79,3.27.27.27.4.56.4.89,0,.29-.1.54-.31.74-.21.2-.47.3-.79.3-.2,0-.41-.04-.63-.13-1.53-.68-3.1-1.03-4.69-1.03-1.17,0-2.07.18-2.72.53-.65.35-.97.84-.97,1.46,0,1.43,1.54,2.15,4.64,2.15,1.14,0,2.37-.09,3.69-.27.27-.04.5.04.71.22s.31.42.31.69c0,.23-.08.43-.24.6s-.34.27-.56.29c-1.23.16-2.46.25-3.69.25-4.54,0-6.8-1.27-6.8-3.8,0-1.38.6-2.39,1.81-3.02.92-.49,2.15-.74,3.67-.74.62,0,1.3.08,2.05.25.11.03.18.04.21.04.11.03.22.04.32.04.27,0,.4-.09.4-.28,0-.15-.08-.32-.23-.51-.48-.58-.84-1.03-1.06-1.35-.42-.56-.92-.84-1.5-.84-.14,0-.3.01-.49.04-1.6.24-3.31.36-5.15.36-.25,0-.47-.09-.65-.27-.18-.18-.27-.39-.27-.65s.09-.47.27-.65c.18-.18.39-.27.65-.27,1.49-.01,2.89-.1,4.18-.25.44-.05.67-.24.67-.57,0-.16-.06-.34-.17-.51l-.65-1.06c-.09-.15-.13-.31-.13-.48,0-.25.09-.47.28-.66s.4-.28.66-.28c.38,0,.66.17.84.49.43.84.7,1.33.82,1.48.41.58.84.87,1.29.87.17,0,.34-.03.51-.08.99-.28,1.97-.66,2.94-1.14.13-.06.26-.1.4-.1.25,0,.47.09.65.28.18.18.27.4.27.66Z"/>
      <path class="cls-1" d="M185.4,75.25c-1.12,2.19-2.18,3.29-3.21,3.29-1.27,0-2.25-1.13-2.95-3.38-.54-1.75-.82-3.73-.82-5.95,0-1.14.04-2.12.11-2.95.03-.27.13-.49.31-.66s.41-.27.67-.27c.29,0,.54.11.73.33s.28.48.26.77c-.09.85-.13,1.83-.13,2.94,0,1.46.16,2.9.47,4.33.35,1.58.82,2.38,1.41,2.38.42,0,.89-.57,1.42-1.71.16-.34.45-.51.85-.51.27,0,.49.09.67.28.18.18.28.41.28.67,0,.16-.03.31-.09.44ZM193.62,74.66c.04.3-.04.58-.25.82-.2.24-.46.36-.78.36-.27,0-.5-.09-.7-.27-.2-.18-.32-.39-.34-.65-.32-2.88-1.25-5.43-2.79-7.68-.11-.16-.17-.35-.17-.55,0-.28.09-.51.28-.7.19-.19.42-.29.7-.29.34,0,.61.14.82.42,1.75,2.43,2.82,5.28,3.23,8.53Z"/>
      <path class="cls-1" d="M203.1,78.38c0,1.01-.5,1.52-1.5,1.52h-4.24c-.27,0-.49-.09-.67-.28-.18-.18-.27-.41-.27-.67s.09-.49.27-.67c.18-.18.4-.28.67-.28h2.3c.49,0,.81-.03.95-.08.32-.11.5-.35.55-.72.03-.18.04-.42.04-.74v-4.98c0-.27.09-.49.28-.67s.41-.28.67-.28.47.09.67.28c.19.19.28.41.28.67v6.9Z"/>
      <path class="cls-1" d="M231.7,71.64c0,3.86-1.96,6.23-5.87,7.09-.04.01-.11.02-.21.02-.25,0-.47-.09-.66-.27s-.28-.4-.28-.67c0-.51.23-.82.68-.93,2.93-.73,4.39-2.5,4.39-5.28,0-1.46-.39-2.62-1.18-3.5-.29-.33-.65-.62-1.08-.87-.49-.28-.94-.42-1.33-.42-.54,0-.87.32-.99.95-.48,2.76-1.05,4.98-1.71,6.67-.42,1.06-.83,1.86-1.24,2.39-.65.82-1.4,1.23-2.26,1.23-1.15,0-2.08-.58-2.77-1.73-.61-.99-.91-2.09-.91-3.31,0-2.36.78-4.31,2.35-5.85,1.56-1.54,3.52-2.32,5.88-2.32,2.22,0,3.95.57,5.21,1.71,1.32,1.19,1.98,2.88,1.98,5.07ZM223.24,67.82c.01-.09.02-.18.02-.27,0-.47-.22-.7-.65-.7-.15,0-.32.03-.49.09-1.17.41-2.12,1.16-2.85,2.27-.73,1.11-1.1,2.38-1.1,3.81,0,.79.18,1.48.55,2.08.37.6.78.9,1.23.9.54,0,1.13-.77,1.75-2.3.52-1.29,1.03-3.26,1.54-5.89Z"/>
      <path class="cls-1" d="M49.25,88.07c0,.23-.08.42-.25.59-.17.16-.36.25-.59.25h-15.12c-.23,0-.42-.08-.58-.25-.16-.16-.24-.36-.24-.59s.08-.42.24-.58c.16-.16.35-.24.58-.24h5.6c.63,0,.95-.32.95-.95v-.29c0-.27.09-.49.28-.67s.41-.28.67-.28.49.09.68.28c.19.18.28.41.28.67v.29c0,.63.32.95.95.95h5.7c.23,0,.42.08.59.25.16.16.25.35.25.57ZM47.71,99.89c0,1.05-.53,1.58-1.58,1.58h-10.56c-1.05,0-1.58-.53-1.58-1.58v-2.3c0-1.05.53-1.58,1.58-1.58h10.56c1.05,0,1.58.53,1.58,1.58v2.3ZM46.99,91.02c0,.2-.07.38-.22.52-.15.15-.32.22-.52.22h-10.85c-.2,0-.38-.07-.52-.22-.15-.15-.22-.32-.22-.52s.07-.38.22-.52c.15-.15.32-.22.52-.22h10.85c.2,0,.38.07.52.22.15.15.22.32.22.52ZM46.99,93.87c0,.2-.07.38-.21.52-.14.15-.31.22-.51.22h-10.89c-.2,0-.37-.07-.51-.22-.14-.15-.21-.32-.21-.52s.07-.37.21-.51c.14-.14.31-.21.51-.21h10.89c.2,0,.37.07.51.21.14.14.21.31.21.51ZM45.89,99.13v-.89c0-.51-.25-.76-.76-.76h-8.55c-.51,0-.76.25-.76.76v.89c0,.51.25.76.76.76h8.55c.51,0,.76-.25.76-.76Z"/>
      <path class="cls-1" d="M59.76,97.25c-1.11,2.19-2.19,3.29-3.21,3.29-1.27,0-2.25-1.13-2.95-3.38-.54-1.75-.82-3.73-.82-5.95,0-1.14.04-2.12.11-2.95.02-.27.13-.49.31-.66.18-.18.41-.27.67-.27.29,0,.54.11.73.33s.28.48.26.77c-.09.85-.13,1.83-.13,2.94,0,1.46.16,2.9.48,4.33.35,1.58.82,2.38,1.41,2.38.42,0,.89-.57,1.43-1.71.16-.34.45-.51.85-.51.27,0,.49.09.67.28.18.18.28.41.28.67,0,.17-.03.31-.1.44ZM67.99,96.66c.04.3-.04.58-.25.82-.2.24-.46.36-.78.36-.27,0-.5-.09-.7-.27-.2-.18-.32-.39-.34-.65-.32-2.88-1.25-5.43-2.79-7.68-.11-.16-.17-.35-.17-.55,0-.28.1-.51.29-.7s.42-.29.7-.29c.34,0,.61.14.82.42,1.75,2.43,2.82,5.28,3.23,8.53Z"/>
      <path class="cls-1" d="M87.59,88.7c0,.24-.09.45-.27.63s-.39.27-.63.27h-8.17c-.39,0-.65.14-.76.42-.06.15-.1.46-.11.91-.01.58.27.87.84.87h4.86c1.29,0,1.94.65,1.94,1.94v3.17c0,2.01-.3,3.32-.91,3.91-.54.53-1.68.8-3.4.8h-1.33c-.24,0-.45-.09-.63-.27-.18-.18-.27-.39-.27-.63s.09-.44.27-.61c.18-.17.39-.25.63-.25h1.04c1.22,0,1.97-.17,2.26-.51s.44-1.23.44-2.68v-2.17c0-.66-.33-.99-.99-.99h-4.14c-.53,0-.84.27-.91.8-.23,1.49-.59,2.74-1.08,3.74-.66,1.34-1.65,2.5-2.98,3.46-.18.13-.37.19-.57.19-.27,0-.49-.09-.68-.29s-.29-.42-.29-.68c0-.33.13-.59.4-.78,1.27-.91,2.18-2.03,2.74-3.34.47-1.13.75-2.54.84-4.24.03-.54.04-1.18.06-1.92.01-.58-.27-.87-.85-.87h-3.12c-.24,0-.45-.09-.63-.27-.18-.18-.27-.39-.27-.63s.09-.45.27-.63.39-.27.63-.27h5.55c.57,0,.85-.29.85-.85v-.89c0-.27.09-.49.28-.68.18-.19.41-.29.67-.29s.47.1.66.29.28.42.28.68v.89c0,.57.28.85.85.85h5.76c.24,0,.45.09.63.27.18.18.27.39.27.63Z"/>
      <path class="cls-1" d="M105.57,92.27c0,.38-.18.65-.53.8-.85.35-1.65.72-2.39,1.08-.52.25-.84.52-.97.8-.09.2-.13.61-.13,1.22v1.22c0,.25-.09.47-.27.64s-.39.26-.65.26-.47-.08-.64-.26-.26-.38-.26-.64v-.72c0-.44-.17-.67-.49-.67-.14,0-.29.05-.46.15-1.53.95-2.3,1.77-2.3,2.45,0,.39.26.67.78.85.52.17,1.41.26,2.66.26.99,0,2.3-.11,3.93-.32.27-.04.5.03.69.21.2.18.29.4.29.67,0,.23-.08.43-.23.6-.15.17-.34.27-.57.29-1.44.17-2.86.25-4.26.25s-2.55-.12-3.32-.36c-1.29-.42-1.94-1.18-1.94-2.3,0-1.29,1.4-2.77,4.2-4.43.46-.27.68-.53.68-.8,0-.33-.27-.49-.8-.49-.73,0-1.67.35-2.79,1.05-.91.57-1.72,1.2-2.41,1.9l-.49.59c-.2.19-.42.29-.67.29-.25,0-.47-.09-.64-.26-.17-.17-.26-.38-.26-.64,0-.23.07-.42.21-.59,1.32-1.58,2.42-3.17,3.31-4.75.09-.15.13-.3.13-.44,0-.33-.23-.49-.7-.48-.42.01-1.03.02-1.84.02-.23,0-.42-.08-.58-.25-.16-.16-.24-.36-.24-.59,0-.24.09-.44.26-.61.17-.16.37-.24.6-.23.79.03,1.65.03,2.6,0,.75-.01,1.25-.36,1.52-1.05l.38-.99c.15-.39.44-.59.85-.59.25,0,.47.09.64.27.17.18.26.39.26.63,0,.11-.02.22-.06.32-.06.15-.1.25-.11.29-.05.14-.08.27-.08.38,0,.37.23.53.68.48.48-.05,1.39-.18,2.74-.38.25-.04.48.03.68.2s.3.38.3.64c0,.51-.25.79-.76.85-1.27.16-2.4.28-3.4.36-.56.05-.98.17-1.26.35-.29.18-.55.51-.81.98-.03.04-.09.14-.19.3-.14.24-.21.44-.21.59,0,.19.11.28.34.28.14,0,.32-.04.55-.13.67-.25,1.29-.38,1.84-.38.76,0,1.34.25,1.75.76.28.34.54.51.8.51.14,0,.29-.04.46-.11l2.3-1.12c.13-.06.25-.1.38-.1.24,0,.45.09.62.26.17.17.26.38.26.64Z"/>
      <path class="cls-1" d="M125.23,96.3c0,1.51-.58,2.67-1.73,3.48-.99.7-2.3,1.09-3.93,1.18-.25.01-.48-.07-.67-.24s-.29-.38-.29-.64c0-.23.08-.43.23-.6s.34-.27.57-.29c2.58-.25,3.88-1.22,3.88-2.89,0-.72-.3-1.3-.91-1.74-.61-.44-1.39-.66-2.36-.66s-1.82.08-2.64.25c-.66.13-.99.54-.99,1.25v4.01c0,1.1-.53,1.65-1.6,1.65s-2.06-.31-3.12-.93c-1.2-.72-1.81-1.54-1.82-2.45,0-.67.35-1.38,1.06-2.14.71-.75,1.65-1.42,2.81-2,.58-.29.87-.74.87-1.35v-1.16c0-.57-.29-.85-.87-.84-1.03.03-1.82.03-2.38,0-.23-.01-.42-.1-.59-.28s-.25-.37-.25-.6c0-.25.09-.47.27-.64s.39-.25.65-.24c.76.04,1.54.04,2.34.02.56-.01.84-.3.84-.87v-1.29c0-.24.09-.45.27-.63.18-.18.39-.27.63-.27s.45.09.63.27c.18.18.27.39.27.63v1.04c0,.61.3.87.91.78.42-.06.92-.15,1.5-.25.27-.05.51,0,.72.18.22.17.32.4.32.67,0,.49-.25.79-.74.87-.56.08-1.11.15-1.67.23-.7.17-1.04.49-1.04.97v.87c0,.51.23.76.68.76.09,0,.18,0,.27-.02.86-.16,1.7-.25,2.53-.25,1.53,0,2.77.32,3.72.97,1.09.73,1.63,1.79,1.63,3.15ZM114.61,98.08v-1.96c0-.51-.19-.76-.57-.76-.15,0-.31.05-.48.15-1.17.71-1.75,1.4-1.75,2.07,0,.39.3.75.89,1.06.56.3.98.46,1.25.46.43,0,.65-.34.65-1.03ZM125.58,90.1c0,.25-.09.48-.27.67-.18.19-.39.29-.65.29s-.45-.08-.63-.25c-.71-.66-1.55-1.24-2.51-1.75-.32-.16-.48-.42-.48-.78,0-.25.09-.47.27-.65.18-.18.39-.27.63-.27.15,0,.29.03.42.09,1.06.54,2.03,1.19,2.89,1.94.22.19.32.42.32.7Z"/>
      <path class="cls-1" d="M145.43,95.21c0,.23-.08.42-.25.59-.17.17-.36.25-.59.25h-5.93c-.57,0-.85.29-.85.85v2.05c0,1.1-.16,1.82-.48,2.17-.32.34-1.01.51-2.06.51h-2.09c-.23,0-.42-.08-.59-.25-.16-.17-.25-.36-.25-.59s.08-.42.25-.59.36-.25.59-.25h1.52c.56,0,.91-.09,1.05-.26s.22-.54.22-1.09v-1.71c0-.57-.29-.85-.86-.85h-6.19c-.23,0-.42-.08-.58-.25-.16-.16-.24-.36-.24-.59s.08-.42.24-.58c.16-.16.35-.24.58-.24h6.19c.57,0,.86-.29.86-.85v-.67c0-.57-.29-.85-.86-.85h-4.84c-.23,0-.42-.08-.58-.24-.16-.16-.24-.35-.24-.58,0-.22.08-.4.24-.56s.35-.24.58-.24h4.84c.57,0,.86-.29.86-.86v-.66c0-.6-.3-.87-.89-.82-.95.08-2.36.18-4.24.3-.24.01-.45-.06-.63-.23s-.27-.37-.27-.61c0-.23.08-.42.24-.59.16-.16.34-.25.56-.27,4.5-.2,8.27-.6,11.32-1.2.27-.05.51,0,.72.18s.32.4.32.67c0,.48-.25.77-.74.85-.94.17-2.12.33-3.55.49-.67.08-1.01.45-1.01,1.12v.74c0,.57.29.86.85.86h4.58c.23,0,.42.08.58.24.16.16.24.35.24.56,0,.23-.08.42-.24.58-.16.16-.35.24-.58.24h-4.58c-.57,0-.85.29-.85.85v.67c0,.57.29.85.85.85h5.93c.23,0,.42.08.59.25s.25.35.25.57Z"/>
      <path class="cls-1" d="M164.51,97.95c0,.24-.08.45-.26.63-.17.18-.38.27-.62.27-.2,0-.39-.07-.55-.21-2.06-1.68-3.88-3.58-5.43-5.68-.18-.24-.35-.36-.53-.36-.25,0-.38.22-.38.65v2.74c0,.51.25.76.76.76h1.92c.21,0,.4.08.56.24s.24.34.24.56c0,.23-.08.42-.24.58s-.35.24-.56.24h-1.88c-.51,0-.76.25-.76.76v1.82c0,.24-.09.45-.26.63s-.38.27-.62.27c-.25,0-.47-.09-.64-.27s-.26-.39-.26-.63v-1.82c0-.51-.25-.76-.76-.76h-1.79c-.22,0-.4-.08-.56-.24s-.24-.35-.24-.58c0-.22.08-.4.24-.56s.34-.24.56-.24h1.82c.51,0,.76-.25.76-.76v-2.7c0-.43-.13-.65-.38-.65-.17,0-.34.12-.51.36-1.43,1.96-3.22,3.84-5.36,5.62-.17.14-.35.21-.55.21-.23,0-.43-.09-.6-.26s-.26-.38-.26-.62c0-.28.11-.51.32-.68,2.51-2,4.56-4.21,6.16-6.63.1-.16.15-.31.15-.44,0-.32-.21-.47-.65-.47h-4.86c-.22,0-.4-.08-.56-.24-.16-.16-.24-.35-.24-.58,0-.21.08-.4.24-.56s.34-.24.56-.24h5.64c.57,0,.85-.29.85-.85v-1.25c0-.24.09-.45.26-.63s.38-.27.64-.27c.24,0,.45.09.62.27s.26.39.26.63v1.25c0,.57.28.85.85.85h5.7c.21,0,.41.08.57.24.16.16.25.35.25.56,0,.23-.08.42-.25.58-.17.16-.36.24-.57.24h-4.88c-.44,0-.67.16-.67.47,0,.14.05.29.15.44,1.55,2.31,3.63,4.51,6.25,6.61.22.18.32.41.32.7Z"/>
      <path class="cls-1" d="M171.1,87.1c-.51,2.9-.76,5.64-.76,8.23,0,1.81.07,3.32.21,4.54.04.29-.04.55-.25.78-.2.23-.45.34-.74.34-.27,0-.49-.09-.68-.27-.19-.18-.3-.39-.32-.65-.13-1.22-.19-2.76-.19-4.64,0-2.81.27-5.71.8-8.68.1-.54.42-.82.97-.82.3,0,.55.12.75.35s.27.5.22.81ZM182.63,98.69c0,.23-.08.43-.25.62-.17.18-.36.29-.59.31-1.65.21-3.02.32-4.12.32-3.36,0-5.04-1.01-5.04-3.04,0-.57.16-1.15.47-1.75.18-.34.44-.51.8-.51.62,0,.93.3.93.89,0,.13-.04.31-.11.56s-.11.45-.11.6c0,.52.31.88.93,1.08.53.19,1.38.29,2.53.29.94,0,2.09-.11,3.46-.32.29-.05.55.02.77.22.22.2.33.44.33.73ZM181.97,88.64c0,.24-.08.45-.24.63s-.36.28-.6.32c-1.43.2-2.95.3-4.54.3-.71,0-1.48-.03-2.32-.08-.24-.01-.45-.11-.63-.29-.18-.18-.27-.4-.27-.66,0-.28.1-.51.31-.69.21-.18.45-.26.71-.24.71.06,1.46.1,2.26.1,1.43,0,2.83-.11,4.2-.32.29-.05.55.02.77.21s.33.43.33.72Z"/>
      <path class="cls-1" d="M201.46,96.16c0,.18-.05.35-.15.51-.86,1.41-1.89,2.53-3.1,3.36-1.36.92-2.79,1.39-4.31,1.39-3.33,0-5-1.51-5-4.52,0-1.23.03-2.84.08-4.84.04-1.62.07-3.38.1-5.28,0-.27.1-.5.3-.69.2-.2.44-.29.7-.29s.52.1.72.3c.2.2.3.44.29.72l-.23,9.67c0,1.99,1.05,2.98,3.15,2.98,1.13,0,2.21-.4,3.25-1.2.89-.66,1.67-1.54,2.34-2.64.19-.32.48-.47.86-.47.28,0,.52.1.71.29.2.2.29.43.29.71Z"/>
      <path class="cls-1" d="M220.75,99c0,.27-.09.49-.28.67s-.41.28-.67.28c-.18,0-.34-.04-.49-.13-1.27-.75-2.39-1.31-3.38-1.69-.13-.05-.24-.08-.34-.08-.37,0-.58.25-.65.76-.1.76-.36,1.32-.76,1.69-.63.57-1.77.85-3.4.85-1.04,0-1.9-.2-2.58-.59-.84-.49-1.25-1.23-1.25-2.2,0-1.1.53-1.91,1.58-2.41.79-.38,1.8-.57,3.04-.57.14,0,.35,0,.65.02.66.03.99-.25.99-.84v-.53c0-.63-.32-.94-.97-.93-1.34.04-2.63.05-3.88.04-.23,0-.42-.09-.58-.26-.16-.17-.24-.37-.24-.6s.08-.42.26-.58c.17-.16.37-.24.6-.24,1.24.03,2.53.03,3.86,0,.62-.01.93-.34.93-.97v-.08c0-.65-.33-.96-.99-.93-1.53.06-2.98.08-4.35.04-.23-.01-.42-.1-.59-.28-.17-.17-.25-.37-.25-.6,0-.24.09-.44.27-.61.18-.16.39-.24.63-.23,1.42.04,2.86.04,4.33,0,.62-.01.93-.32.93-.91,0-.05,0-.34-.02-.85,0-.25.09-.47.27-.66.18-.18.39-.28.65-.28s.47.09.65.28c.18.18.27.4.27.66v.65c0,.67.33.98.99.91.97-.1,2.04-.23,3.19-.4.25-.04.48.03.67.2s.29.38.29.64c0,.48-.25.75-.74.82-1.37.18-2.53.31-3.48.4-.61.06-.91.39-.91.99v.06c0,.67.33.98.99.91.67-.06,1.6-.18,2.79-.36.25-.04.48.03.68.2.2.17.3.38.3.64,0,.49-.24.77-.72.84-1.01.14-2.06.26-3.14.36-.61.05-.91.38-.91.99v.85c0,.7.35,1.16,1.04,1.39,1.29.42,2.7,1.03,4.24,1.84.33.18.49.46.49.84ZM213.13,98.25c.09-.63-.16-.98-.76-1.03-.28-.03-.55-.04-.82-.04-1.82,0-2.74.44-2.74,1.31,0,.35.17.64.52.85.35.22.81.32,1.38.32.85,0,1.44-.1,1.79-.29.34-.2.55-.57.63-1.13Z"/>
      <path class="cls-1" d="M241.06,88.81c0,.25-.09.47-.27.65-.18.18-.39.27-.65.27-1.99-.03-3.33-.03-4.01-.02-.62,0-.93.32-.93.97v1.04c0,.47.13,1.18.38,2.15.1.39.15.8.15,1.22,0,1.67-.46,3.04-1.37,4.11-.91,1.07-2.33,1.9-4.24,2.5-.09.03-.18.04-.29.04-.24,0-.45-.09-.64-.27-.18-.18-.28-.4-.28-.67,0-.44.22-.73.67-.87,1.8-.54,3.05-1.38,3.76-2.51.13-.2.19-.37.19-.51,0-.18-.09-.27-.29-.27-.11,0-.25.04-.4.11-.36.18-.74.27-1.16.27-.94,0-1.69-.23-2.26-.7-.62-.52-.93-1.23-.93-2.15s.35-1.7,1.04-2.26c.65-.52,1.45-.78,2.41-.78.09,0,.22,0,.4.02.18.01.3.02.38.02.37,0,.55-.16.55-.48,0-.65-.32-.96-.97-.93-2.31.09-4.63.22-6.97.4-.27.03-.5-.05-.69-.24-.2-.18-.29-.41-.29-.67s.08-.47.26-.64c.17-.17.38-.26.62-.28l7.07-.34c.61-.03.91-.31.91-.85v-.85c0-.27.1-.5.29-.69.2-.2.43-.29.69-.29s.49.1.68.29c.19.19.29.42.29.68v.72c0,.65.32.96.95.95,1.91-.03,3.25-.03,4.03-.02.25,0,.46.09.64.26.17.17.26.38.26.64ZM233.19,94.25c.05-.18.08-.34.08-.49,0-.48-.2-.8-.61-.97-.22-.09-.47-.13-.76-.13-.43,0-.79.14-1.09.42-.3.28-.45.63-.45,1.04,0,.87.46,1.31,1.39,1.31.76,0,1.24-.39,1.44-1.18Z"/>
    </g>
    <g>
      <path class="cls-1" d="M51.62,125.37c0,.19-.07.35-.2.48-.13.14-.29.2-.48.2h-11.12c-.19,0-.35-.07-.48-.2-.13-.13-.2-.3-.2-.48s.06-.35.2-.48c.13-.13.29-.2.48-.2h11.12c.19,0,.35.07.48.2.13.14.2.3.2.48ZM50.44,117.77c0,.18-.07.33-.2.47-.13.13-.28.2-.46.2h-8.83c-.18,0-.33-.07-.46-.2-.13-.14-.2-.29-.2-.47s.07-.33.2-.46c.13-.13.28-.2.46-.2h8.83c.18,0,.33.07.46.2.13.13.2.29.2.46Z"/>
      <path class="cls-1" d="M65.49,126.84c0,.2-.07.36-.2.5-.14.13-.3.2-.5.2-.13,0-.26-.04-.39-.13-2.01-1.33-3.45-2.97-4.34-4.9-.21-.44-.39-.66-.56-.66-.18,0-.37.21-.57.64-.85,1.77-2.31,3.42-4.38,4.93-.13.09-.27.14-.41.14-.19,0-.35-.07-.49-.21-.14-.14-.21-.3-.21-.49,0-.24.1-.43.29-.57,3.3-2.32,4.96-5.1,4.96-8.32v-1.85c0-.21.07-.38.21-.52.14-.14.31-.21.52-.21s.38.07.52.22.22.31.22.51v1.58c0,1.62.49,3.24,1.47,4.86.94,1.55,2.12,2.77,3.54,3.67.21.13.32.33.32.6Z"/>
      <path class="cls-1" d="M78.17,125.9c0,.4-.2.63-.6.69-1.54.21-3.08.32-4.62.32-2.74,0-4.12-.83-4.12-2.48,0-1.01.7-2.05,2.11-3.14.28-.21.42-.46.42-.74,0-.13-.03-.27-.08-.42-.41-1.04-.75-2.15-1.02-3.35,0-.05-.01-.1-.01-.15,0-.21.07-.38.22-.53.14-.14.32-.22.52-.22.18,0,.33.06.47.18s.22.27.26.45c.18.93.43,1.87.77,2.81.11.31.29.46.53.46.13,0,.27-.04.41-.13.08-.05,1.12-.61,3.09-1.69.12-.06.23-.1.34-.1.2,0,.36.07.5.21s.2.31.2.5c0,.29-.13.5-.39.63-1.15.57-2.39,1.24-3.72,2.02-.85.49-1.53.96-2.03,1.39-.73.62-1.09,1.19-1.09,1.71,0,.84.88,1.26,2.63,1.26,1.45,0,2.92-.13,4.41-.38.21-.04.39.01.56.15.17.14.25.32.25.53Z"/>
      <path class="cls-1" d="M92.65,124.05c0,1.03-.38,1.85-1.14,2.46-.76.61-1.8.92-3.13.92-2.62,0-3.93-1.11-3.93-3.33,0-.19,0-.46.03-.81.02-.42-.21-.68-.7-.78-.42-.03-.84-.06-1.25-.1-.17-.02-.31-.09-.42-.22-.11-.13-.17-.28-.17-.45,0-.2.08-.36.23-.5.15-.13.33-.19.53-.16.29.05.72.11,1.29.18.46.06.71-.15.77-.63l.06-.5c.06-.47-.15-.72-.63-.77-.22-.02-.53-.06-.93-.11-.4-.06-.59-.28-.59-.66,0-.2.08-.36.23-.49.15-.13.33-.18.52-.15.19.03.51.07.97.11s.71-.16.77-.62l.15-1.19c.06-.42.29-.63.7-.63.22,0,.41.08.55.25.14.17.2.36.16.57l-.15.98c-.04.24,0,.43.11.57.11.14.28.2.52.19.78-.02,1.49-.06,2.11-.13.19-.02.35.04.5.16.14.13.22.28.22.47,0,.17-.06.32-.17.44s-.25.2-.41.22c-.86.09-1.7.14-2.53.14-.45,0-.7.21-.74.64l-.06.5c-.03.23.01.42.13.55.11.13.28.2.52.2.79,0,1.58-.06,2.37-.14.2-.02.37.04.51.16.14.13.22.29.22.48,0,.17-.06.31-.17.44-.12.13-.26.2-.43.22-.79.07-1.68.11-2.67.11-.48,0-.72.26-.74.78v.5c0,1.46.86,2.18,2.59,2.18.76,0,1.39-.17,1.9-.5.6-.39.9-.95.9-1.67,0-.53-.13-1.07-.38-1.62-.06-.12-.08-.22-.08-.29,0-.2.07-.36.21-.49.14-.13.31-.2.5-.2.31,0,.52.14.64.41.35.77.53,1.54.53,2.31Z"/>
      <path class="cls-1" d="M102.55,118.73c-.78.15-1.47.26-2.07.32-.38.05-.66.14-.83.29-.17.15-.3.41-.38.77-.56,2.45-1.21,4.58-1.95,6.37-.13.31-.36.46-.69.46-.21,0-.38-.07-.52-.22-.14-.14-.21-.31-.21-.51,0-.1.02-.2.06-.28.75-1.75,1.4-3.73,1.95-5.96.02-.07.03-.14.03-.21,0-.33-.2-.48-.59-.48-.39,0-.75,0-1.08,0-.19,0-.35-.08-.48-.22s-.2-.3-.2-.48c0-.2.07-.36.22-.5s.31-.21.51-.2c.53.02.96.02,1.29.01.53-.02.83-.28.9-.77.03-.2.07-.5.14-.91.07-.41.3-.62.71-.62.2,0,.36.07.5.21.14.14.21.3.21.49,0,.09-.04.33-.11.7,0,.07-.01.13-.01.18,0,.37.21.53.62.46.06,0,.38-.08.98-.2.45-.08.76-.13.92-.13.2,0,.36.07.48.21s.19.31.19.5c0,.38-.19.61-.57.69ZM106.97,126.1c0,.18-.06.33-.17.46-.11.13-.25.21-.42.22-1.05.13-1.98.2-2.8.2-2.48,0-3.72-.69-3.72-2.09,0-.34.08-.7.24-1.09.11-.28.32-.42.63-.42.45,0,.67.22.67.67,0,.08-.02.18-.06.32-.04.13-.06.24-.06.31,0,.63.8.95,2.41.95.62,0,1.46-.07,2.49-.21.21-.03.39.03.55.16.16.14.24.31.24.51ZM106.58,120.89c0,.2-.07.36-.22.5-.15.14-.32.21-.52.2-1.44-.1-2.93-.07-4.47.1-.2.02-.37-.04-.51-.17-.14-.13-.22-.3-.22-.5,0-.18.06-.33.17-.46s.26-.2.43-.22c1.86-.16,3.41-.21,4.65-.17.19,0,.35.08.48.22.14.14.2.3.2.49ZM105.91,118.44c0,.15-.05.28-.16.39s-.24.16-.38.16c-.22,0-.39-.08-.49-.25-.27-.43-.56-.8-.87-1.11-.1-.1-.15-.23-.15-.38,0-.37.18-.56.55-.56.16,0,.3.07.42.21.39.44.72.85.98,1.23.07.11.11.21.11.31ZM107.62,117.64c0,.15-.05.28-.16.39-.11.11-.24.16-.38.16-.21,0-.38-.08-.49-.25-.31-.46-.6-.83-.87-1.13-.1-.11-.15-.23-.15-.35,0-.37.19-.56.56-.56.14,0,.27.07.41.2.33.33.66.74.99,1.25.07.13.1.23.1.31Z"/>
      <path class="cls-1" d="M115.22,124.24c-.82,1.61-1.61,2.42-2.37,2.42-.93,0-1.66-.83-2.17-2.49-.4-1.29-.6-2.75-.6-4.38,0-.84.03-1.56.08-2.17.02-.2.1-.36.23-.49s.3-.2.5-.2c.21,0,.39.08.54.25.14.16.21.35.19.57-.07.62-.1,1.35-.1,2.17,0,1.07.12,2.14.35,3.19.26,1.17.61,1.75,1.04,1.75.31,0,.66-.42,1.05-1.26.12-.25.33-.38.63-.38.2,0,.36.07.5.2s.2.3.2.5c0,.12-.02.23-.07.32ZM121.28,123.8c.03.22-.03.42-.18.6-.15.18-.34.27-.57.27-.2,0-.37-.07-.52-.2-.15-.13-.23-.29-.25-.48-.23-2.12-.92-4-2.06-5.66-.08-.12-.13-.26-.13-.41,0-.21.07-.38.21-.52.14-.14.31-.21.52-.21.25,0,.45.1.6.31,1.29,1.79,2.08,3.89,2.38,6.29Z"/>
      <path class="cls-1" d="M135.55,118.02c0,.19-.07.35-.2.48-.13.13-.29.2-.47.2-1.47-.02-2.45-.02-2.96-.01-.46,0-.69.24-.69.71v.77c0,.34.09.87.28,1.58.08.29.11.59.11.9,0,1.23-.34,2.24-1.01,3.03s-1.71,1.4-3.12,1.84c-.07.02-.14.03-.21.03-.18,0-.33-.07-.47-.2s-.2-.29-.2-.49c0-.33.16-.54.49-.64,1.33-.4,2.25-1.02,2.77-1.85.09-.15.14-.28.14-.38,0-.13-.07-.2-.21-.2-.08,0-.18.03-.29.08-.26.13-.55.2-.85.2-.69,0-1.25-.17-1.67-.52-.46-.38-.69-.91-.69-1.58s.26-1.25.77-1.67c.48-.38,1.07-.57,1.78-.57.07,0,.16,0,.29.01.13,0,.22.01.28.01.27,0,.41-.12.41-.35,0-.48-.24-.71-.71-.69-1.7.07-3.41.16-5.14.29-.2.02-.37-.04-.51-.17-.15-.13-.22-.3-.22-.5s.06-.34.19-.47.28-.19.46-.2l5.21-.25c.45-.02.67-.23.67-.63v-.63c0-.2.07-.37.22-.51.14-.14.31-.22.51-.22s.36.07.5.21c.14.14.21.31.21.5v.53c0,.48.23.71.7.7,1.41-.02,2.4-.02,2.97-.01.19,0,.34.06.47.19.13.13.19.28.19.47ZM129.75,122.02c.04-.13.06-.25.06-.36,0-.35-.15-.59-.45-.71-.16-.07-.35-.1-.56-.1-.32,0-.59.1-.8.31-.22.21-.33.46-.33.77,0,.64.34.97,1.02.97.56,0,.91-.29,1.06-.87Z"/>
      <path class="cls-1" d="M148.55,119.43c0,.3-.14.5-.43.6-.62.21-1.18.38-1.68.5-.3.07-.45.22-.45.43,0,.12.05.25.14.38.46.63.88,1.18,1.27,1.62.13.15.2.32.2.5,0,.21-.07.4-.22.55-.15.15-.33.23-.55.23-.11,0-.22-.02-.32-.06-1.24-.5-2.41-.74-3.5-.74-1.79,0-2.69.42-2.69,1.27s1.13,1.25,3.39,1.25c.77,0,1.65-.05,2.63-.15.19-.02.35.04.5.16s.22.28.22.47c0,.38-.2.59-.59.63-.89.09-1.82.14-2.8.14-3.15,0-4.72-.82-4.72-2.46s1.26-2.45,3.78-2.45c.59,0,1.27.09,2.06.27.08.02.14.03.2.03.19,0,.28-.07.28-.2,0-.09-.05-.2-.14-.32-.05-.07-.17-.24-.38-.52-.25-.35-.56-.52-.94-.52-.11,0-.24,0-.38.03-1.3.18-2.72.26-4.27.24-.17,0-.31-.06-.43-.18-.12-.12-.17-.27-.17-.43s.06-.32.18-.44.27-.18.43-.17c1.16.04,2.39-.01,3.71-.15.35-.04.53-.18.53-.42,0-.11-.04-.22-.11-.32-.22-.38-.55-.55-.97-.5-.8.09-1.73.14-2.77.14-.16,0-.3-.06-.43-.18-.13-.12-.19-.26-.19-.42,0-.17.06-.31.19-.43.13-.12.27-.17.43-.17.77,0,1.49-.01,2.16-.07.39-.04.59-.16.59-.38,0,0-.08-.21-.25-.62-.03-.06-.04-.14-.04-.22,0-.19.06-.35.2-.48.13-.13.29-.2.49-.2.31,0,.52.15.63.45.04.11.1.29.2.52.14.35.37.53.7.53.08,0,.17-.01.27-.04.65-.17,1.31-.37,1.96-.6.08-.03.14-.04.21-.04.18,0,.33.06.46.18.13.12.19.27.19.45,0,.32-.15.52-.45.62-.69.22-1.3.4-1.82.52-.34.08-.5.23-.5.46,0,.1.04.21.11.31l.03.04c.2.3.43.45.71.45.07,0,.15,0,.24-.03.74-.18,1.43-.39,2.07-.63.05-.02.11-.03.2-.03.18,0,.33.06.46.18.13.12.19.27.19.45Z"/>
      <path class="cls-1" d="M156.07,125.92c0,.28-.09.52-.28.71s-.42.29-.7.29-.52-.1-.71-.29-.29-.43-.29-.71.1-.52.29-.71.43-.29.71-.29.5.1.69.29.29.43.29.7ZM160.66,117c0,.15-.04.3-.13.45l-3.61,6.37c-.13.22-.32.34-.56.34-.18,0-.33-.07-.46-.2-.13-.13-.2-.29-.2-.46,0-.08.02-.17.07-.27l3.15-6.61c.17-.35.44-.53.81-.53.25,0,.47.09.65.27.18.18.27.39.27.64Z"/>
      <path class="cls-1" d="M171.25,117.14c0,.16-.05.29-.16.4s-.24.16-.38.16h-.77c-.24,0-.36.09-.36.28,0,.06.02.13.06.21l.07.17c.04.09.06.18.06.27,0,.18-.06.33-.18.46-.12.13-.28.19-.46.19-.26,0-.45-.14-.57-.42l-.29-.67c-.14-.32-.34-.48-.6-.48s-.5.13-.69.38l-.6.8c-.12.16-.28.24-.48.24-.17,0-.31-.06-.43-.18-.12-.12-.18-.27-.18-.43,0-.15.04-.28.13-.38.66-.77,1.19-1.59,1.6-2.44.11-.23.31-.35.59-.35.17,0,.32.06.45.18.13.12.2.25.2.39l-.07.45c0,.17.1.25.31.25h2.25c.15,0,.28.05.38.15s.16.23.16.38ZM177.53,117.14c0,.16-.06.29-.17.4-.11.11-.24.16-.39.16h-1.18c-.23,0-.35.08-.35.25,0,.06.03.15.08.28.06.13.08.25.08.36,0,.3-.13.5-.39.6.21.07.32.25.32.52,0,.35-.17.55-.5.6-.67.1-1.53.21-2.56.32-.36.04-.53.23-.53.59v.34c0,.37.19.56.56.56h4.37c.16,0,.29.06.41.17.11.11.17.25.17.41s-.06.29-.17.41-.25.17-.41.17h-3.77c-.34,0-.5.12-.5.35,0,.11.05.22.14.34.85,1.04,2.1,1.88,3.75,2.51.28.1.42.29.42.57,0,.18-.06.33-.19.45-.13.12-.27.18-.44.18-.08,0-.15-.01-.22-.04-1.73-.63-3.1-1.53-4.13-2.7-.19-.21-.37-.32-.55-.32s-.36.12-.55.35c-.85,1.06-2.22,1.95-4.1,2.66-.08.03-.15.04-.22.04-.17,0-.31-.06-.44-.18s-.19-.27-.19-.45c0-.3.14-.49.41-.59,1.83-.65,3.09-1.49,3.78-2.51.07-.1.1-.2.1-.29,0-.24-.17-.36-.5-.36h-3.77c-.16,0-.3-.06-.41-.17-.12-.11-.17-.25-.17-.41s.06-.29.17-.41c.12-.11.25-.17.41-.17h4.21c.37,0,.56-.19.56-.56v-.17c0-.39-.19-.57-.57-.55-.9.07-1.9.12-3.02.17-.16,0-.3-.04-.42-.16-.12-.12-.18-.25-.18-.41,0-.15.06-.28.17-.39.11-.11.24-.17.39-.18,2.81-.1,5.35-.34,7.62-.7-.11-.07-.21-.17-.28-.32l-.31-.67c-.15-.32-.38-.48-.69-.48s-.57.13-.76.38l-.53.71c-.12.16-.29.24-.49.24-.18,0-.33-.06-.45-.19-.12-.13-.18-.27-.18-.44,0-.16.06-.3.17-.43.55-.65,1.04-1.41,1.47-2.27.12-.24.32-.36.59-.36.18,0,.34.07.48.2.11.11.17.22.17.32,0,.06-.01.14-.04.25s-.04.19-.04.25c0,.18.11.27.32.27h2.88c.15,0,.28.05.39.15.11.1.17.23.17.38Z"/>
    </g>
    <g>
      <path class="cls-1" d="M187,151.17c0,.28-.1.52-.29.71s-.43.29-.71.29c-.19,0-.36-.05-.52-.14-1.33-.79-2.52-1.38-3.56-1.78-.13-.05-.25-.08-.36-.08-.39,0-.61.27-.68.8-.11.8-.37,1.39-.8,1.78-.67.6-1.86.9-3.58.9-1.09,0-2-.21-2.72-.62-.88-.52-1.32-1.29-1.32-2.32,0-1.16.55-2.01,1.66-2.54.83-.4,1.89-.6,3.2-.6.15,0,.37,0,.68.02.69.03,1.04-.27,1.04-.88v-.56c0-.67-.34-.99-1.02-.98-1.41.04-2.77.05-4.08.04-.24,0-.44-.09-.61-.27-.17-.18-.25-.39-.25-.63s.09-.44.27-.61c.18-.17.39-.25.63-.25,1.31.03,2.66.03,4.06,0,.65-.01.98-.35.98-1.02v-.08c0-.68-.35-1.01-1.04-.98-1.61.07-3.14.08-4.58.04-.24-.01-.45-.11-.62-.29-.17-.18-.26-.39-.26-.63,0-.25.09-.47.28-.64.19-.17.41-.25.66-.24,1.49.04,3.01.04,4.56,0,.65-.01.98-.33.98-.96,0-.05,0-.35-.02-.9,0-.27.09-.5.28-.69.19-.19.41-.29.68-.29s.49.1.68.29.28.42.28.69v.68c0,.71.35,1.03,1.04.96,1.03-.11,2.15-.25,3.36-.42.27-.04.5.03.71.21.21.18.31.4.31.67,0,.51-.26.79-.78.86-1.44.19-2.66.33-3.66.42-.64.07-.96.41-.96,1.04v.06c0,.71.35,1.03,1.04.96.71-.07,1.69-.19,2.94-.38.27-.04.51.03.72.21s.32.4.32.67c0,.52-.25.81-.76.88-1.07.15-2.17.27-3.3.38-.64.05-.96.4-.96,1.04v.9c0,.73.37,1.22,1.1,1.46,1.36.44,2.85,1.09,4.46,1.94.35.19.52.48.52.88ZM178.98,150.39c.09-.67-.17-1.03-.8-1.08-.29-.03-.58-.04-.86-.04-1.92,0-2.88.46-2.88,1.38,0,.37.18.67.55.9.37.23.85.34,1.45.34.89,0,1.52-.1,1.88-.31.36-.21.58-.6.66-1.19Z"/>
      <path class="cls-1" d="M197.9,144.45c-.69,1.19-1.27,2.34-1.74,3.46-.2.48-.54.72-1.02.72-.67,0-1.05-.35-1.16-1.04-.12-.79-.18-1.97-.18-3.54s.23-3.46.68-5.62c.13-.65.48-.98,1.04-.98.28,0,.51.1.7.29.19.19.28.43.28.71,0,.08,0,.16-.02.24-.48,2.2-.73,3.86-.76,4.98-.01.44.09.66.3.66.17,0,.36-.16.56-.48l.1-.16c.13-.21.33-.32.6-.32.48,0,.72.24.72.72,0,.13-.03.25-.1.36ZM204.78,144.55c0,2.25-.41,4.1-1.22,5.54-.85,1.49-2.25,2.75-4.2,3.78-.15.08-.31.12-.48.12-.28,0-.52-.11-.72-.33-.2-.22-.3-.47-.3-.75,0-.37.19-.66.56-.86,1.63-.85,2.77-1.88,3.42-3.08.61-1.11.92-2.61.92-4.5,0-1.72-.18-3.74-.54-6.06-.05-.31.03-.58.24-.83.21-.25.47-.37.78-.37.25,0,.48.09.67.26.19.17.31.39.35.64.35,2.49.52,4.64.52,6.44Z"/>
    </g>
  </g>
</svg>