<?xml version="1.0" encoding="UTF-8"?>
<svg xmlns="http://www.w3.org/2000/svg" viewBox="0 0 286.1 187">
  <defs>
    <style>
      .cls-1 {
        fill: #5b5b5b;
      }

      .cls-2 {
        fill: #f3fcff;
        stroke: #cecece;
        stroke-linecap: round;
        stroke-linejoin: round;
        stroke-width: 7px;
      }
    </style>
  </defs>
  <g id="_レイヤー_1" data-name="レイヤー 1">
    <path class="cls-2" d="M117.77,147.26c18.12,41.17,113.2,53.28,120.42,4.36,39.24,13.64,65.62-44.45,21.39-73.93,5.18-70.12-61.16-74.62-86.06-44.74-7.4-41.61-101.67-38.64-106.97,5.84-102.51,1.42-74.88,166.93,45.67,124.09"/>
  </g>
  <g id="miyabi2kb">
    <g>
      <path class="cls-1" d="M92.57,49.95c0,.15-.06.28-.17.4s-.24.17-.4.17h-3.22c-.4,0-.6.2-.6.6v5.81c0,.71-.11,1.2-.34,1.45-.24.28-.71.42-1.42.42h-1.19c-.15,0-.28-.06-.4-.17-.11-.11-.17-.24-.17-.4s.06-.28.17-.4.24-.17.4-.17h1c.3,0,.5-.06.6-.19.09-.1.13-.31.13-.62v-5.74c0-.4-.2-.6-.6-.6h-3.64c-.15,0-.28-.06-.4-.17-.11-.11-.17-.24-.17-.4s.06-.28.17-.4.24-.17.4-.17h9.26c.15,0,.28.06.4.17.11.11.17.24.17.4Z"/>
      <path class="cls-1" d="M104.9,56.58c0,.14-.05.25-.14.34-.1.09-.21.14-.34.14h-3.71c-.32,0-.48.16-.48.48v.43c0,.5-.11.84-.34,1-.18.13-.54.19-1.07.19h-1.49c-.12,0-.22-.04-.31-.13s-.13-.19-.13-.31c0-.13.04-.24.13-.32s.19-.13.31-.13h1.06c.25,0,.41-.03.49-.08.11-.07.17-.23.17-.48v-.16c0-.32-.16-.48-.48-.48h-3.95c-.13,0-.24-.05-.33-.14-.09-.09-.14-.21-.14-.34,0-.13.05-.24.14-.33s.2-.14.33-.14h9.79c.13,0,.24.05.34.14.1.09.14.2.14.33ZM104.58,51.29c0,.14-.05.26-.15.36s-.22.14-.37.14-.27-.05-.37-.14-.15-.22-.15-.36v-.34c0-.34-.17-.52-.52-.52h-3.58c.06.02.13.06.19.12.12.11.3.28.53.52.09.1.13.2.13.32,0,.14-.05.25-.14.34-.1.09-.21.14-.35.14s-.29-.09-.47-.26c-.12-.14-.24-.29-.37-.43-.08-.08-.12-.18-.12-.31,0-.22.1-.36.31-.43h-3.17c-.34,0-.5.17-.5.52v.32c0,.14-.05.27-.16.37s-.23.15-.37.15-.27-.05-.37-.15c-.1-.1-.15-.22-.15-.37v-.76c0-.68.34-1.02,1.02-1.02h3c.32,0,.48-.14.48-.43,0-.16.05-.29.16-.4s.24-.16.4-.16.3.05.41.16.17.24.17.4c0,.29.16.43.48.43h2.99c.68,0,1.02.34,1.02,1.02v.77ZM103.98,54.79c0,.54-.27.82-.8.82h-7.32c-.54,0-.8-.27-.8-.82v-.6c0-.54.27-.8.8-.8h7.32c.54,0,.8.27.8.8v.6ZM96.79,51.41c0,.09-.01.16-.04.2-.19.39-.47.8-.84,1.24-.1.11-.22.17-.36.17-.13,0-.24-.04-.33-.13-.09-.09-.14-.2-.14-.32,0-.11.04-.21.11-.29.31-.35.55-.7.71-1.06.08-.18.22-.28.42-.28.13,0,.24.05.33.14.09.09.14.2.14.33ZM97.67,54.51v-.02c0-.24-.12-.36-.36-.36h-.84c-.24,0-.36.12-.36.37s.12.37.36.37h.84c.24,0,.36-.12.36-.36ZM101.93,51.84c-.06.45-.18.75-.38.89-.2.15-.56.22-1.09.22h-2.22c-.38,0-.62-.06-.74-.19s-.18-.39-.18-.79v-.68c0-.14.05-.25.15-.35s.22-.15.35-.15.25.05.35.15c.1.1.14.22.14.35v.37c0,.2.02.32.05.37.05.07.17.11.36.11h1.49c.24,0,.41-.02.52-.07.14-.06.22-.2.25-.42.04-.25.2-.37.48-.37.14,0,.26.05.36.16.1.11.14.24.12.39ZM100.32,54.51v-.02c0-.24-.12-.36-.36-.36h-.96c-.24,0-.36.12-.36.36v.02c0,.24.12.36.36.36h.96c.24,0,.36-.12.36-.36ZM102.94,54.49c0-.25-.12-.37-.37-.37h-.92c-.24,0-.36.12-.36.36v.02c0,.24.12.36.36.36h.92c.25,0,.37-.12.37-.37ZM103.91,52.31c0,.14-.05.25-.14.34-.1.09-.21.14-.35.14-.15,0-.31-.1-.48-.31-.13-.18-.26-.35-.38-.52-.09-.1-.18-.19-.26-.29-.1-.13-.16-.24-.16-.35,0-.13.04-.24.13-.33.09-.09.2-.14.32-.14.14,0,.25.05.35.16.28.3.57.63.86,1,.07.09.11.19.11.3Z"/>
      <path class="cls-1" d="M109.09,49.79c-.32,1.83-.48,3.56-.48,5.2,0,1.14.04,2.1.13,2.87.02.18-.03.35-.16.49-.13.14-.28.22-.47.22-.17,0-.31-.06-.43-.17-.12-.11-.19-.25-.2-.41-.08-.77-.12-1.74-.12-2.93,0-1.78.17-3.6.5-5.48.06-.34.27-.52.61-.52.19,0,.35.07.47.22.12.15.17.32.14.51ZM116.38,57.11c0,.14-.05.27-.16.39-.1.12-.23.18-.37.2-1.04.14-1.91.2-2.6.2-2.12,0-3.18-.64-3.18-1.92,0-.36.1-.73.3-1.1.11-.22.28-.32.5-.32.39,0,.59.19.59.56,0,.08-.02.2-.07.35-.05.16-.07.28-.07.38,0,.33.2.56.59.68.34.12.87.18,1.6.18.59,0,1.32-.07,2.18-.2.18-.03.35.01.49.14.14.12.21.28.21.46ZM115.96,50.76c0,.15-.05.28-.15.4-.1.11-.23.18-.38.2-.9.13-1.86.19-2.87.19-.45,0-.94-.02-1.46-.05-.15,0-.28-.07-.4-.19-.11-.12-.17-.25-.17-.41,0-.18.07-.32.2-.44.13-.12.28-.17.45-.15.45.04.92.06,1.43.06.9,0,1.79-.07,2.65-.2.18-.03.35.01.49.13.14.12.21.27.21.46Z"/>
      <path class="cls-1" d="M124.42,49.83c0,.09-.02.17-.06.24-.2.37-.44.76-.73,1.18-.06.08-.08.15-.08.22,0,.14.1.22.31.22.13,0,.24.05.33.14.09.09.14.2.14.33s-.05.24-.14.33-.2.14-.33.14h-.8c-.34,0-.64.12-.9.37l-.18.17c-.06.06-.08.11-.08.16,0,.09.07.13.2.13h.59c.53,0,.79.18.79.55,0,.2-.1.39-.3.58l-.6.56c-.1.09-.14.17-.14.25,0,.14.11.2.34.17.47-.06.84-.12,1.12-.17.13-.02.25,0,.35.1.11.09.16.2.16.34,0,.26-.12.4-.37.44-.32.06-.82.14-1.5.24-.3.04-.44.21-.44.5v.94c0,.44-.08.74-.23.89-.15.15-.44.23-.86.23h-.79c-.12,0-.23-.05-.32-.14-.09-.09-.14-.2-.14-.33s.04-.24.13-.32.2-.13.32-.13h.38c.14,0,.23-.01.29-.04.13-.04.19-.18.19-.42v-.47c0-.34-.17-.5-.5-.46-.32.03-.81.08-1.46.16-.14.02-.26-.02-.36-.12-.1-.1-.16-.21-.16-.35,0-.3.14-.46.43-.48.41-.03.94-.08,1.6-.14.3-.03.46-.19.46-.48,0-.18.06-.31.18-.4.08-.06.19-.11.34-.16.15-.05.25-.1.31-.15l.08-.07c.07-.06.11-.11.11-.17,0-.09-.08-.13-.25-.13h-.86c-.27,0-.52.07-.75.22s-.54.33-.94.55c-.07.04-.15.06-.24.06-.14,0-.25-.05-.35-.15-.1-.1-.15-.22-.15-.35,0-.22.1-.37.3-.46.62-.27,1.23-.63,1.85-1.07.1-.07.16-.15.16-.24,0-.14-.1-.2-.31-.2h-1.57c-.13,0-.24-.05-.33-.14-.09-.09-.14-.2-.14-.33s.05-.24.14-.33c.09-.09.2-.14.33-.14h1.3c.32,0,.48-.16.48-.48v-.14c0-.32-.16-.48-.48-.48h-.9c-.13,0-.24-.05-.33-.14s-.14-.2-.14-.33.05-.24.14-.32c.09-.09.2-.13.33-.13h.9c.32,0,.48-.16.48-.48v-.18c0-.14.05-.25.15-.35s.22-.15.35-.15.25.05.35.15.15.22.15.35v.18c0,.32.16.48.48.48h.38c.13,0,.24.04.32.13.09.09.13.2.13.32s-.04.24-.13.33c-.09.09-.2.14-.32.14h-.4c-.32,0-.48.16-.48.48v.14c0,.32.08.48.23.48s.31-.09.44-.28c.45-.59.81-1.18,1.08-1.78.09-.19.24-.29.44-.29.14,0,.26.05.36.14.1.1.14.21.14.35ZM129.32,50.82c0,.26-.11.41-.34.47-.3.08-.46.24-.48.48-.15,1.42-.46,2.65-.92,3.7-.07.17-.11.32-.11.46,0,.18.06.35.19.53.37.5.81.98,1.33,1.44.14.12.2.27.2.44,0,.16-.06.29-.17.4-.11.11-.25.16-.41.16s-.29-.05-.4-.16c-.37-.36-.72-.77-1.07-1.22-.14-.18-.28-.26-.42-.26-.14,0-.27.08-.41.25-.42.51-.86.97-1.32,1.37-.1.09-.23.13-.37.13-.15,0-.28-.06-.39-.17-.11-.11-.16-.25-.16-.41,0-.18.07-.32.22-.44.63-.51,1.15-1.02,1.55-1.51.14-.17.2-.34.2-.53,0-.14-.04-.28-.11-.44-.25-.54-.46-1.12-.64-1.75-.04-.14-.1-.22-.18-.22-.07,0-.14.06-.19.18l-.17.37c-.08.18-.22.28-.43.28-.14,0-.25-.05-.35-.15s-.14-.22-.14-.35c0-.07.02-.14.05-.2.7-1.36,1.23-2.92,1.57-4.67.06-.28.22-.42.5-.42.14,0,.26.05.36.15.1.1.14.22.14.35,0,.07-.05.3-.14.67-.02.06-.02.12-.02.18,0,.26.14.38.43.38h2.08c.14,0,.25.05.35.15.1.1.15.22.15.37ZM127.52,51.82c.02-.33-.13-.49-.47-.49h-.59c-.42,0-.61.21-.56.64.1.87.3,1.69.61,2.46.07.17.16.25.28.25.09,0,.15-.06.19-.17.29-.75.47-1.65.54-2.69Z"/>
      <path class="cls-1" d="M140.47,58.45c-.76.15-1.58.23-2.45.23-.77,0-1.28-.24-1.54-.72-.14-.26-.24-.77-.28-1.55-.03-.52-.18-.78-.46-.78-.52,0-1.11.31-1.76.92-.21.19-.78.79-1.7,1.8-.13.14-.28.2-.47.2s-.32-.06-.44-.19c-.12-.12-.18-.27-.18-.45s.06-.32.19-.44c1.25-1.24,2.8-2.73,4.67-4.48.13-.12.19-.22.19-.3,0-.14-.14-.19-.43-.17l-3.07.24c-.17.02-.32-.03-.44-.15-.13-.12-.19-.26-.19-.43s.05-.3.16-.41c.11-.11.24-.17.39-.18l4.8-.28c.26-.02.48.04.64.18.16.14.25.3.25.5,0,.23-.11.44-.32.64-.46.41-1,.9-1.61,1.49-.18.17-.26.29-.26.37,0,.09.1.14.31.17.51.06.8.44.86,1.16.06.63.1,1,.13,1.1.1.39.32.59.66.59.26,0,.64-.04,1.14-.13.5-.09.88-.13,1.12-.13.16,0,.29.06.4.18.1.12.16.26.16.43,0,.31-.15.5-.46.56ZM138.25,49.99c0,.17-.06.31-.18.43-.12.12-.26.17-.43.15-1.48-.14-2.68-.34-3.6-.59-.29-.08-.43-.27-.43-.56,0-.16.06-.3.17-.41s.25-.17.41-.17c.05,0,.1,0,.16.02.92.26,2.05.44,3.38.56.15.02.28.08.38.18s.15.23.15.38Z"/>
      <path class="cls-1" d="M152.83,50.21c0,.32-.22.51-.65.58-1.21.18-2.28.68-3.22,1.49-.94.81-1.4,1.67-1.4,2.56,0,1.26,1.04,2.08,3.11,2.48.34.06.52.27.52.61,0,.19-.07.35-.22.48-.15.13-.32.18-.51.14-1.16-.2-2.09-.56-2.79-1.08-.88-.64-1.32-1.49-1.32-2.54,0-.85.29-1.63.88-2.35.23-.29.49-.55.77-.78.24-.2.36-.37.36-.52,0-.19-.2-.27-.61-.24-1.25.11-2.58.25-4,.42-.18.02-.33-.02-.46-.14-.13-.12-.19-.27-.19-.44,0-.15.05-.28.15-.4.1-.11.23-.18.38-.19,1.45-.14,4.28-.36,8.48-.65.22-.02.39.03.53.14.14.11.21.25.21.43Z"/>
      <path class="cls-1" d="M159.97,56.2c-.7,1.38-1.38,2.08-2.03,2.08-.8,0-1.42-.71-1.86-2.14-.34-1.1-.52-2.36-.52-3.76,0-.72.02-1.34.07-1.86.02-.17.08-.31.2-.42.12-.11.26-.17.43-.17.18,0,.34.07.46.21s.18.3.16.49c-.06.54-.08,1.16-.08,1.86,0,.92.1,1.83.3,2.74.22,1,.52,1.5.89,1.5.26,0,.56-.36.9-1.08.1-.22.28-.32.54-.32.17,0,.31.06.43.17.12.12.17.26.17.43,0,.1-.02.2-.06.28ZM165.17,55.83c.02.19-.03.36-.16.52-.13.15-.29.23-.49.23-.17,0-.32-.06-.44-.17-.13-.11-.2-.25-.22-.41-.2-1.82-.79-3.43-1.76-4.85-.07-.1-.11-.22-.11-.35,0-.18.06-.32.18-.44.12-.12.27-.18.44-.18.22,0,.39.09.52.26,1.1,1.54,1.78,3.33,2.04,5.39Z"/>
      <path class="cls-1" d="M173.35,51.48c-.58.11-1.18.2-1.78.28-.33.04-.57.12-.71.25-.15.13-.26.35-.33.66-.45,1.9-1,3.72-1.67,5.46-.1.26-.3.4-.59.4-.18,0-.32-.06-.44-.19-.12-.12-.18-.27-.18-.44,0-.08.02-.16.05-.24.68-1.61,1.24-3.31,1.67-5.11.02-.06.02-.12.02-.18,0-.28-.17-.42-.5-.41-.34,0-.64,0-.92,0-.16,0-.3-.07-.41-.19-.12-.12-.17-.25-.17-.41s.06-.31.19-.43c.12-.12.27-.18.44-.17.46.02.82.02,1.1.01.45-.02.7-.24.77-.66.02-.18.06-.44.12-.79.06-.35.26-.52.61-.52.17,0,.31.06.43.18.12.12.18.26.18.42,0,.08-.03.28-.1.6,0,.06-.01.11-.01.16,0,.32.18.45.53.4.05,0,.33-.06.84-.17.38-.07.65-.11.79-.11.17,0,.31.06.41.18s.16.26.16.43c0,.33-.16.52-.49.59ZM177.14,57.79c0,.34-.17.54-.5.59-.76.11-1.56.17-2.4.17-2.13,0-3.19-.6-3.19-1.79,0-.27.07-.58.2-.94.1-.24.28-.36.54-.36.38,0,.56.19.56.58,0,.06-.01.15-.04.27-.02.12-.04.21-.04.27,0,.54.68.82,2.05.82.6,0,1.31-.06,2.14-.18.18-.02.33.02.47.14.14.12.2.26.2.44ZM176.81,53.33c0,.17-.06.31-.19.43-.13.12-.28.18-.44.17-1.19-.06-2.47-.04-3.83.08-.17.02-.31-.03-.44-.15-.12-.12-.19-.26-.19-.43,0-.15.05-.28.15-.39.1-.11.22-.17.37-.19,1.35-.14,2.68-.18,3.98-.14.16,0,.3.07.41.19.12.12.17.26.17.42Z"/>
      <path class="cls-1" d="M185.35,51.48c-.67.13-1.26.22-1.78.28-.33.04-.57.12-.71.25-.15.13-.26.35-.33.66-.48,2.1-1.04,3.92-1.67,5.46-.11.26-.31.4-.59.4-.18,0-.32-.06-.44-.19s-.18-.27-.18-.44c0-.09.02-.17.05-.24.64-1.5,1.2-3.2,1.67-5.11.02-.06.02-.12.02-.18,0-.28-.17-.42-.5-.41-.34,0-.64,0-.92,0-.16,0-.3-.07-.41-.19-.12-.12-.17-.25-.17-.41s.06-.31.19-.43c.12-.12.27-.18.44-.17.46.02.82.02,1.1.01.46-.02.71-.24.77-.66.02-.17.06-.43.12-.78.06-.35.26-.53.61-.53.17,0,.31.06.43.18.12.12.18.26.18.42,0,.08-.03.28-.1.6,0,.06-.01.11-.01.16,0,.32.18.45.53.4.05,0,.33-.06.84-.17.38-.07.65-.11.79-.11.17,0,.31.06.41.18.11.12.16.26.16.43,0,.33-.16.52-.49.59ZM189.14,57.79c0,.15-.05.28-.14.4-.1.11-.22.18-.36.19-.9.11-1.7.17-2.4.17-2.13,0-3.19-.6-3.19-1.79,0-.29.07-.6.2-.94.1-.24.28-.36.54-.36.38,0,.58.19.58.58,0,.06-.02.15-.05.27-.03.12-.05.21-.05.27,0,.54.69.82,2.06.82.54,0,1.25-.06,2.14-.18.18-.02.33.02.47.14.14.12.2.26.2.44ZM188.81,53.33c0,.17-.06.31-.19.43-.13.12-.28.18-.44.17-1.23-.09-2.51-.06-3.83.08-.17.02-.31-.03-.44-.15-.12-.12-.19-.26-.19-.43,0-.15.05-.28.15-.39.1-.11.22-.17.37-.19,1.59-.14,2.92-.18,3.98-.14.16,0,.3.07.41.19.12.12.17.26.17.42ZM188.23,51.23c0,.13-.05.24-.14.33s-.2.14-.33.14c-.19,0-.33-.07-.42-.22-.23-.37-.48-.68-.74-.95-.09-.09-.13-.2-.13-.32,0-.32.16-.48.47-.48.14,0,.26.06.36.18.34.38.62.73.84,1.06.06.1.1.18.1.26ZM189.7,50.55c0,.13-.05.24-.14.33s-.2.14-.33.14c-.18,0-.32-.07-.42-.22-.26-.39-.51-.72-.74-.97-.09-.1-.13-.2-.13-.3,0-.32.16-.48.48-.48.12,0,.24.06.35.17.28.28.56.64.85,1.07.06.11.08.2.08.26Z"/>
      <path class="cls-1" d="M194.81,55.2c-.31.76-.58,1.52-.8,2.28-.11.38-.33.58-.66.58-.35,0-.58-.22-.68-.66-.22-.9-.32-1.98-.32-3.23,0-1.35.14-2.84.41-4.46.06-.34.25-.5.59-.5.18,0,.34.07.46.22s.17.31.14.49c-.31,1.82-.47,3.28-.47,4.38v.7c0,.26.08.38.2.38.11,0,.21-.1.29-.31l.07-.18c.07-.18.2-.26.38-.26.12,0,.22.04.31.13s.13.19.13.31c0,.05-.01.1-.04.16ZM201.74,51.67c0,.29-.16.49-.49.6,0,0-.3.06-.86.16-.36.06-.54.28-.54.64v.9c0,2.14-.8,3.7-2.4,4.68-.1.06-.2.08-.31.08-.17,0-.31-.06-.43-.18s-.18-.26-.18-.43c0-.22.1-.4.29-.52.68-.42,1.17-.95,1.46-1.57.26-.57.4-1.28.4-2.14v-.62c0-.41-.21-.6-.64-.58-.74.05-1.27.07-1.57.06h-.49c-.15-.01-.28-.07-.4-.18-.11-.11-.17-.24-.17-.4s.06-.3.18-.41c.12-.12.26-.17.42-.16h.44c.41.02.94,0,1.6-.05.4-.03.59-.25.56-.65l-.07-1.3c0-.17.05-.32.16-.44.12-.13.26-.19.44-.19.16,0,.3.05.41.16.12.11.18.24.19.4,0,.25.02.64.05,1.16.02.38.18.58.48.58.05,0,.1,0,.16-.02l.61-.14c.07-.02.12-.02.14-.02.15,0,.28.06.4.17.11.12.17.25.17.41Z"/>
      <path class="cls-1" d="M213.43,50.21c0,.32-.22.51-.65.58-1.21.18-2.28.68-3.22,1.49-.94.81-1.4,1.67-1.4,2.56,0,1.26,1.04,2.08,3.11,2.48.34.06.52.27.52.61,0,.19-.07.35-.22.48-.15.13-.32.18-.51.14-1.16-.2-2.09-.56-2.8-1.08-.88-.64-1.32-1.49-1.32-2.54,0-.85.29-1.63.88-2.35.23-.29.49-.55.77-.78.24-.2.36-.37.36-.52,0-.19-.2-.27-.61-.24-1.25.11-2.58.25-4,.42-.18.02-.33-.02-.46-.14-.13-.12-.19-.27-.19-.44,0-.15.05-.28.15-.4.1-.11.23-.18.38-.19,1.45-.14,4.28-.36,8.48-.65.22-.02.39.03.53.14.14.11.2.25.2.43Z"/>
      <path class="cls-1" d="M218.5,58.32c0,.19-.06.35-.19.48s-.29.19-.48.19c-.21,0-.38-.08-.52-.24-.47-.57-.95-1.06-1.43-1.46-.15-.13-.23-.29-.23-.48s.06-.34.19-.46.28-.19.46-.19c.16,0,.3.05.42.16.67.58,1.21,1.1,1.61,1.55.11.12.17.27.17.46Z"/>
      <path class="cls-1" d="M58.4,72.63c0,.34-.17.54-.52.59-1.32.18-2.64.28-3.96.28-2.35,0-3.53-.71-3.53-2.12,0-.86.6-1.76,1.81-2.69.24-.18.36-.4.36-.64,0-.11-.02-.23-.07-.36-.35-.89-.64-1.84-.88-2.87,0-.04-.01-.08-.01-.13,0-.18.06-.33.19-.45s.27-.19.45-.19c.15,0,.29.05.4.16.12.1.19.23.22.38.15.8.37,1.6.66,2.41.1.26.25.4.46.4.11,0,.23-.04.35-.11.07-.04.96-.52,2.65-1.45.1-.06.2-.08.29-.08.17,0,.31.06.43.18.12.12.17.26.17.43,0,.25-.11.43-.34.54-.98.49-2.05,1.06-3.19,1.73-.73.42-1.31.82-1.74,1.19-.62.54-.94,1.02-.94,1.46,0,.72.75,1.08,2.26,1.08,1.24,0,2.5-.11,3.78-.32.18-.03.34.01.48.13s.22.27.22.46Z"/>
      <path class="cls-1" d="M71.25,65.21c0,.32-.22.51-.65.58-1.21.18-2.28.68-3.22,1.49-.94.81-1.4,1.67-1.4,2.56,0,1.26,1.04,2.08,3.11,2.48.34.06.52.27.52.61,0,.19-.07.35-.22.48s-.32.18-.51.14c-1.16-.2-2.09-.56-2.8-1.08-.88-.64-1.32-1.49-1.32-2.54,0-.85.29-1.63.88-2.35.23-.29.49-.55.77-.78.24-.2.36-.37.36-.52,0-.19-.2-.27-.61-.24-1.25.11-2.58.25-4,.42-.18.02-.33-.02-.46-.14-.13-.12-.19-.27-.19-.44,0-.15.05-.28.15-.4.1-.11.23-.18.38-.19,1.45-.14,4.28-.36,8.48-.65.22-.02.39.03.53.14.14.11.2.25.2.43Z"/>
      <path class="cls-1" d="M83.05,71.04c0,.88-.33,1.58-.98,2.11s-1.55.79-2.68.79c-2.25,0-3.37-.95-3.37-2.86,0-.16,0-.39.02-.7.02-.36-.18-.58-.6-.67-.36-.02-.72-.05-1.07-.08-.14-.02-.26-.08-.36-.19-.1-.11-.14-.24-.14-.38,0-.17.07-.31.2-.43.13-.12.28-.16.45-.14.25.04.62.09,1.1.16.39.05.61-.13.66-.54l.05-.43c.05-.4-.13-.62-.54-.66-.19-.02-.46-.05-.8-.1-.34-.05-.51-.24-.51-.56,0-.17.07-.31.2-.42.13-.11.28-.16.45-.13.16.02.44.06.83.1.39.04.61-.14.66-.53l.13-1.02c.05-.36.25-.54.6-.54.19,0,.35.07.47.22s.17.31.14.49l-.13.84c-.03.21,0,.37.1.49.1.12.24.17.44.16.67-.02,1.28-.05,1.81-.11.16-.02.3.03.43.14.12.11.19.24.19.4,0,.14-.05.27-.14.38s-.21.17-.35.19c-.74.08-1.46.12-2.17.12-.38,0-.6.18-.64.55l-.05.43c-.02.2.01.36.11.47.1.11.24.17.44.17.68,0,1.36-.05,2.03-.12.17-.02.31.03.44.14s.19.25.19.41c0,.14-.05.27-.15.38-.1.11-.22.17-.37.19-.68.06-1.44.1-2.29.1-.41,0-.62.22-.64.67v.43c0,1.25.74,1.87,2.22,1.87.65,0,1.19-.14,1.63-.43.51-.34.77-.81.77-1.43,0-.46-.11-.92-.32-1.39-.05-.1-.07-.19-.07-.25,0-.17.06-.31.18-.42.12-.11.26-.17.43-.17.26,0,.45.12.55.35.3.66.46,1.32.46,1.98Z"/>
      <path class="cls-1" d="M95.72,69.12c0,2.11-1.19,3.52-3.58,4.21-.06.02-.11.02-.16.02-.16,0-.3-.06-.41-.17s-.17-.25-.17-.41c0-.28.14-.46.42-.55,1.8-.56,2.7-1.59,2.7-3.1,0-.62-.18-1.12-.54-1.49-.36-.37-.86-.55-1.5-.55-.82,0-1.64.31-2.46.92-.45.34-.68.82-.7,1.45-.03,1.28-.05,2.53-.06,3.74,0,.16-.06.3-.17.41-.12.12-.25.17-.41.17s-.3-.06-.41-.18c-.12-.12-.17-.26-.17-.42,0-.74.02-1.5.05-2.29,0-.29-.08-.43-.25-.43-.11,0-.22.08-.34.23-.28.38-.55.78-.82,1.18-.12.18-.28.26-.48.26-.16,0-.3-.06-.41-.17s-.17-.25-.17-.41c0-.14.04-.25.11-.35l1.12-1.5c.26-.34.54-.68.85-1.04.31-.36.47-.63.48-.81,0-.21-.05-.36-.16-.46-.12-.1-.27-.13-.47-.1-.17.02-.57.1-1.2.22-.18.03-.33,0-.47-.13-.14-.12-.21-.26-.21-.44,0-.32.16-.51.49-.56.27-.05.78-.13,1.51-.24.38-.06.57-.27.58-.64,0-.22,0-.58.02-1.09,0-.16.07-.3.18-.41s.25-.17.41-.17.3.06.42.19.18.27.17.43c-.02.46-.05,1.08-.07,1.85,0,.32.1.48.31.48.11,0,.24-.04.4-.13.81-.47,1.62-.71,2.45-.71.98,0,1.76.29,2.32.86.56.57.84,1.35.84,2.33Z"/>
      <path class="cls-1" d="M104.72,68.07c0,1.26-.21,2.67-.64,4.22-.12.45-.26.77-.41.97-.22.29-.53.43-.91.43-.42,0-.97-.12-1.66-.35-.27-.09-.41-.27-.41-.54,0-.16.06-.3.17-.41.12-.11.25-.17.4-.17.06,0,.15.02.25.05.34.12.6.18.78.18.19,0,.33-.06.41-.17.06-.09.14-.27.22-.54.38-1.34.56-2.51.56-3.5,0-.38-.08-.64-.23-.77s-.44-.19-.86-.19c-.38,0-.63.04-.77.12-.17.1-.29.27-.36.52-.52,1.74-1.23,3.5-2.14,5.27-.12.23-.31.35-.56.35-.18,0-.32-.06-.44-.19-.12-.12-.18-.27-.18-.45,0-.14.02-.24.07-.32.82-1.42,1.48-2.91,1.99-4.48.02-.08.04-.15.04-.22,0-.29-.17-.41-.52-.36-.25.03-.64.09-1.16.17-.17.02-.32-.02-.46-.14-.14-.12-.21-.26-.21-.44,0-.34.17-.53.52-.58s.91-.12,1.67-.22c.38-.04.64-.28.78-.72.02-.06.09-.46.2-1.18.06-.34.26-.52.6-.52.19,0,.35.07.46.21.12.14.16.31.13.5,0,.04-.04.22-.11.53-.06.23-.08.4-.08.52,0,.34.19.49.56.47h.18c.62-.05,1.11.06,1.48.31.42.29.62.83.62,1.62ZM108.34,68.97c0,.18-.06.33-.19.46s-.27.19-.45.19c-.29,0-.49-.14-.6-.42-.42-1.08-.95-2.06-1.6-2.95-.07-.1-.11-.21-.11-.34,0-.17.06-.31.17-.43.12-.12.26-.18.43-.18.2,0,.36.08.49.25.73.95,1.33,2.01,1.81,3.18.02.06.04.14.04.24Z"/>
      <path class="cls-1" d="M114.01,68.27c-.42.71-.76,1.4-1.04,2.08-.12.29-.32.43-.61.43-.4,0-.63-.21-.7-.62-.07-.47-.11-1.18-.11-2.12s.14-2.08.41-3.37c.08-.39.29-.59.62-.59.17,0,.31.06.42.17.11.12.17.26.17.43,0,.05,0,.1-.01.14-.29,1.32-.44,2.32-.46,2.99,0,.26.05.4.18.4.1,0,.22-.1.34-.29l.06-.1c.08-.13.2-.19.36-.19.29,0,.43.14.43.43,0,.08-.02.15-.06.22ZM118.14,68.33c0,1.35-.24,2.46-.73,3.32-.51.9-1.35,1.65-2.52,2.27-.09.05-.18.07-.29.07-.17,0-.31-.07-.43-.2-.12-.13-.18-.28-.18-.45,0-.22.11-.4.34-.52.98-.51,1.66-1.13,2.05-1.85.37-.66.55-1.56.55-2.7,0-1.03-.11-2.24-.32-3.64-.03-.18.02-.35.14-.5s.28-.22.47-.22c.15,0,.29.05.4.16.12.1.19.23.21.38.21,1.5.31,2.78.31,3.86Z"/>
      <path class="cls-1" d="M132.25,67.89c0,.92-.32,1.61-.95,2.08-.55.42-1.3.62-2.26.62-.1,0-.35-.01-.74-.04-.14,0-.27-.07-.37-.18-.1-.11-.16-.24-.16-.38,0-.16.06-.29.18-.4.12-.11.26-.16.42-.15.38.02.58.02.6.02,1.37,0,2.05-.52,2.05-1.55,0-.37-.13-.65-.4-.86-.26-.2-.61-.31-1.03-.31-.52,0-1.22.15-2.1.44l-1.14.38c-.28.1-.42.26-.42.49,0,.08.02.17.06.28.61,1.55,1.19,3.16,1.75,4.84.02.07.04.14.04.2,0,.17-.06.31-.18.43s-.26.18-.43.18c-.3,0-.5-.14-.6-.43-.55-1.74-1.12-3.36-1.7-4.87-.1-.27-.28-.41-.52-.41-.08,0-.16.02-.25.05l-1.6.54c-.07.02-.13.04-.18.04-.15,0-.29-.06-.4-.17-.12-.11-.17-.25-.17-.41,0-.29.13-.47.4-.55l1.48-.47c.28-.09.42-.24.42-.47,0-.1-.02-.2-.07-.3,0-.02-.2-.48-.59-1.38-.03-.07-.05-.15-.05-.24,0-.17.06-.31.18-.44.12-.12.26-.19.43-.19.27,0,.46.13.57.38.11.25.31.73.59,1.42.14.34.34.5.59.5.12,0,.64-.16,1.57-.48.99-.34,1.81-.52,2.46-.52.73,0,1.32.2,1.78.59.5.42.74.98.74,1.69ZM128.42,65.07c0,.15-.05.28-.16.4-.11.11-.24.17-.4.17-.1,0-.2-.03-.3-.1-.36-.24-.8-.49-1.33-.76-.2-.1-.3-.27-.3-.49,0-.15.05-.28.16-.39.1-.11.23-.16.38-.16.09,0,.17.02.25.06.43.21.91.47,1.43.78.18.11.28.28.28.49Z"/>
      <path class="cls-1" d="M144.42,65.87c0,.16-.06.3-.17.41s-.25.17-.41.17c-1.26-.02-2.1-.02-2.53-.01-.39,0-.59.2-.59.61v.66c0,.3.08.75.24,1.36.06.25.1.5.1.77,0,1.06-.29,1.92-.86,2.6-.58.68-1.47,1.2-2.68,1.58-.06.02-.12.02-.18.02-.15,0-.29-.06-.4-.17-.12-.11-.17-.25-.17-.42,0-.28.14-.46.42-.55,1.14-.34,1.93-.87,2.38-1.58.08-.13.12-.24.12-.32,0-.11-.06-.17-.18-.17-.07,0-.16.02-.25.07-.22.11-.47.17-.73.17-.59,0-1.07-.15-1.43-.44-.39-.33-.59-.78-.59-1.36s.22-1.08.66-1.43c.41-.33.92-.49,1.52-.49.06,0,.14,0,.25.01.11,0,.19.01.24.01.23,0,.35-.1.35-.3,0-.41-.2-.6-.61-.59-1.46.06-2.92.14-4.4.25-.17.02-.31-.03-.44-.15-.12-.12-.19-.26-.19-.43s.05-.29.16-.4c.11-.11.24-.17.39-.17l4.46-.22c.38-.02.58-.2.58-.54v-.54c0-.17.06-.31.19-.44.12-.12.27-.19.44-.19s.31.06.43.18c.12.12.18.26.18.43v.46c0,.41.2.61.6.6,1.21-.02,2.06-.02,2.54-.01.16,0,.29.05.4.16s.16.24.16.4ZM139.45,69.3c.03-.11.05-.22.05-.31,0-.3-.13-.51-.38-.61-.14-.06-.3-.08-.48-.08-.27,0-.5.09-.69.26-.19.18-.28.4-.28.66,0,.55.29.83.88.83.48,0,.78-.25.91-.74Z"/>
      <path class="cls-1" d="M153.92,73.21c0,.18-.06.34-.19.47-.13.13-.28.19-.47.19s-.34-.07-.48-.22c-1.52-1.59-3.06-2.96-4.61-4.12-.46-.34-.68-.67-.68-1s.26-.69.78-1.04c1.86-1.26,3.38-2.46,4.56-3.58.13-.12.27-.18.43-.18.18,0,.33.06.45.19.12.12.19.27.19.45s-.07.34-.2.46c-1.04.93-2.35,1.95-3.94,3.07-.35.25-.53.46-.53.65s.17.41.52.67c1.29.98,2.62,2.15,3.98,3.52.13.13.19.28.19.47Z"/>
      <path class="cls-1" d="M168.58,70.38c0,.13-.05.24-.14.33-.09.09-.2.14-.33.14h-2.7c-.22,0-.32.07-.32.2,0,.08.06.16.18.24.84.54,1.79,1.01,2.86,1.43.22.09.34.25.34.48,0,.14-.05.26-.15.36-.1.1-.22.14-.35.14-.07,0-.14-.01-.19-.04-1.25-.53-2.35-1.14-3.31-1.82-.11-.08-.21-.12-.3-.12-.18,0-.28.14-.28.41v1.46c0,.15-.05.28-.16.38-.11.1-.23.16-.38.16s-.27-.05-.38-.16c-.11-.1-.16-.23-.16-.38v-1.45c0-.27-.09-.41-.28-.41-.09,0-.19.04-.3.12-.96.67-2.05,1.27-3.26,1.8-.06.03-.12.05-.2.05-.14,0-.25-.05-.35-.15s-.15-.22-.15-.37c0-.24.11-.4.32-.48,1.07-.41,2.03-.88,2.87-1.42.12-.08.18-.16.18-.25,0-.13-.1-.19-.31-.19h-2.68c-.13,0-.24-.05-.33-.14-.09-.09-.14-.2-.14-.33s.05-.24.14-.33c.09-.09.2-.14.33-.14h3.68c.32,0,.48-.14.48-.41s-.16-.41-.48-.41h-.19c-.66,0-1-.33-1-1v-2.44c0-.66.29-1,.88-1,.4,0,.64-.13.73-.4l.13-.41c.09-.26.27-.4.54-.4.15,0,.28.06.4.17.11.11.17.24.17.4,0,.04-.01.1-.04.17-.02.08-.04.13-.04.17,0,.19.13.29.38.29h.28c.66,0,.98.33.98,1v2.44c0,.66-.33,1-.98,1h-.2c-.32,0-.48.14-.48.41s.16.41.48.41h3.76c.13,0,.24.05.33.14.09.09.14.2.14.33ZM160.75,67.57c0,.14-.06.27-.18.37-.43.37-.93.73-1.5,1.09-.07.05-.16.07-.28.07-.15,0-.28-.05-.38-.16-.1-.1-.16-.23-.16-.37,0-.2.09-.35.28-.46.62-.36,1.11-.67,1.45-.94.08-.06.18-.1.29-.1.13,0,.24.05.34.14.1.09.14.21.14.34ZM160.56,65.61c0,.14-.05.27-.14.37s-.22.16-.36.16c-.13,0-.35-.14-.66-.42-.21-.19-.42-.39-.62-.59-.1-.09-.16-.21-.16-.36,0-.14.05-.25.14-.35.1-.1.21-.15.35-.15.1,0,.21.04.32.13.22.18.56.46,1,.86.09.08.13.2.13.35ZM164.48,66.06v-.07c0-.3-.16-.44-.49-.44h-1.3c-.32,0-.48.15-.48.44v.07c0,.28.14.42.42.42h1.43c.28,0,.42-.14.42-.42ZM164.48,67.81v-.08c0-.28-.14-.42-.42-.42h-1.43c-.28,0-.42.14-.42.42v.08c0,.3.16.44.48.44h1.3c.33,0,.49-.15.49-.44ZM168.44,68.44c0,.14-.05.27-.15.37-.1.1-.22.15-.37.15-.12,0-.23-.04-.32-.12-.38-.33-.83-.65-1.34-.96-.15-.1-.23-.24-.23-.43,0-.14.05-.25.15-.35.1-.1.22-.14.35-.14.09,0,.18.03.26.08.54.34,1.02.68,1.44,1,.14.1.2.24.2.41ZM168.12,64.65c0,.14-.04.25-.11.34-.33.4-.66.76-1.01,1.07-.1.1-.22.14-.35.14-.14,0-.25-.05-.35-.14-.1-.1-.15-.22-.15-.36,0-.14.04-.25.13-.34.39-.39.69-.73.89-1.01.1-.14.24-.22.42-.22.14,0,.27.05.37.15.1.1.16.22.16.37Z"/>
      <path class="cls-1" d="M180.01,70.51c0,.11-.03.22-.1.32-.54.89-1.2,1.6-1.96,2.12-.86.58-1.76.88-2.72.88-2.1,0-3.16-.95-3.16-2.86,0-.78.02-1.8.05-3.06.02-1.02.04-2.14.06-3.34,0-.17.06-.31.19-.44s.28-.19.44-.19.33.06.46.19.19.28.18.46l-.14,6.11c0,1.26.66,1.88,1.99,1.88.71,0,1.4-.25,2.05-.76.56-.42,1.05-.97,1.48-1.67.12-.2.3-.3.54-.3.18,0,.33.06.45.19s.19.27.19.45Z"/>
      <path class="cls-1" d="M189.56,68.07c0,1.26-.21,2.67-.64,4.22-.12.45-.26.77-.41.97-.22.29-.53.43-.91.43-.42,0-.97-.12-1.66-.35-.27-.09-.41-.27-.41-.54,0-.16.06-.3.17-.41.12-.11.25-.17.4-.17.06,0,.15.02.25.05.34.12.6.18.78.18.19,0,.33-.06.41-.17.06-.09.14-.27.22-.54.38-1.34.56-2.51.56-3.5,0-.38-.08-.64-.23-.77s-.44-.19-.86-.19c-.38,0-.63.04-.77.12-.17.1-.29.27-.36.52-.52,1.74-1.23,3.5-2.14,5.27-.12.23-.31.35-.56.35-.18,0-.32-.06-.44-.19s-.18-.27-.18-.45c0-.14.02-.24.07-.32.82-1.42,1.48-2.91,1.99-4.48.02-.08.04-.15.04-.22,0-.29-.17-.41-.52-.36-.25.03-.64.09-1.16.17-.17.02-.32-.02-.46-.14-.14-.12-.21-.26-.21-.44,0-.34.17-.53.52-.58s.91-.12,1.67-.22c.38-.04.64-.28.78-.72.02-.06.09-.46.2-1.18.06-.34.26-.52.6-.52.19,0,.35.07.46.21s.16.31.13.5c0,.04-.04.22-.11.53-.06.23-.08.4-.08.52,0,.34.19.49.56.47h.18c.62-.05,1.11.06,1.48.31.42.29.62.83.62,1.62ZM193.18,68.97c0,.18-.06.33-.19.46s-.27.19-.45.19c-.29,0-.49-.14-.6-.42-.42-1.08-.95-2.06-1.6-2.95-.07-.1-.11-.21-.11-.34,0-.17.06-.31.17-.43.12-.12.26-.18.43-.18.2,0,.36.08.49.25.73.95,1.33,2.01,1.81,3.18.02.06.04.14.04.24Z"/>
      <path class="cls-1" d="M204.16,69.3c0,1.14-.53,2.04-1.6,2.69-.79.48-1.84.81-3.16.98-.17.02-.32-.02-.44-.14-.13-.12-.19-.26-.19-.43,0-.14.05-.26.14-.37.1-.11.21-.17.35-.19,2.46-.33,3.7-1.18,3.7-2.56,0-.97-.64-1.45-1.92-1.45-1.02,0-2.66.3-4.91.9-.06.02-.11.02-.16.02-.15,0-.29-.06-.41-.17-.12-.12-.18-.25-.18-.41,0-.3.15-.49.46-.56.78-.19,1.53-.36,2.23-.49,1.28-.25,2.28-.37,3-.37.9,0,1.6.17,2.11.52.65.43.97,1.11.97,2.03Z"/>
      <path class="cls-1" d="M212.97,66.48c-.58.11-1.18.2-1.78.28-.33.04-.57.12-.71.25-.15.13-.26.35-.33.66-.45,1.9-1,3.72-1.67,5.46-.1.26-.3.4-.59.4-.18,0-.32-.06-.44-.19-.12-.12-.18-.27-.18-.44,0-.08.02-.16.05-.24.68-1.61,1.24-3.31,1.67-5.11.02-.06.02-.12.02-.18,0-.28-.17-.42-.5-.41-.34,0-.64,0-.92,0-.16,0-.3-.07-.41-.19-.12-.12-.17-.25-.17-.41s.06-.31.19-.43c.12-.12.27-.18.44-.17.46.02.82.02,1.1.01.45-.02.7-.24.77-.66.02-.18.06-.44.12-.79.06-.35.26-.52.61-.52.17,0,.31.06.43.18.12.12.18.26.18.42,0,.08-.03.28-.1.6,0,.06-.01.11-.01.16,0,.32.18.45.53.4.05,0,.33-.06.84-.17.38-.07.65-.11.79-.11.17,0,.31.06.41.18s.16.26.16.43c0,.33-.16.52-.49.59ZM216.76,72.79c0,.34-.17.54-.5.59-.76.11-1.56.17-2.4.17-2.13,0-3.19-.6-3.19-1.79,0-.27.07-.58.2-.94.1-.24.28-.36.54-.36.38,0,.56.19.56.58,0,.06-.01.15-.04.27-.02.12-.04.21-.04.27,0,.54.68.82,2.05.82.6,0,1.31-.06,2.14-.18.18-.02.33.02.47.14.14.12.2.26.2.44ZM216.43,68.33c0,.17-.06.31-.19.43-.13.12-.28.18-.44.17-1.19-.06-2.47-.04-3.83.08-.17.02-.31-.03-.44-.15-.12-.12-.19-.26-.19-.43,0-.15.05-.28.15-.39.1-.11.22-.17.37-.19,1.35-.14,2.68-.18,3.98-.14.16,0,.3.07.41.19.12.12.17.26.17.42Z"/>
      <path class="cls-1" d="M228.62,65.21c0,.32-.22.51-.65.58-1.21.18-2.28.68-3.22,1.49-.94.81-1.4,1.67-1.4,2.56,0,1.3,1.04,2.12,3.11,2.48.34.06.52.26.52.61,0,.19-.07.35-.22.49-.15.13-.32.18-.51.14-1.24-.24-2.18-.61-2.83-1.1-.86-.66-1.28-1.5-1.28-2.52,0-.86.29-1.65.88-2.35.26-.3.51-.56.76-.77s.37-.38.37-.53c0-.19-.2-.27-.61-.24-1.64.14-2.97.28-4,.42-.18.02-.33-.02-.46-.14-.13-.12-.19-.27-.19-.44,0-.15.05-.29.15-.4.1-.12.23-.18.38-.19,1.47-.14,4.3-.36,8.48-.65.22,0,.39.04.53.15.14.11.2.25.2.41ZM227.97,68.75c0,.13-.05.24-.14.33-.09.09-.2.14-.33.14-.19,0-.33-.07-.42-.22-.23-.37-.48-.68-.74-.95-.09-.09-.13-.2-.13-.32,0-.32.16-.48.47-.48.14,0,.26.06.36.18.34.38.62.73.84,1.06.06.1.1.18.1.26ZM229.43,68.07c0,.13-.05.24-.14.33s-.2.14-.33.14c-.18,0-.32-.07-.42-.22-.26-.39-.51-.72-.74-.97-.09-.1-.13-.2-.13-.3,0-.32.16-.48.48-.48.12,0,.24.06.35.17.28.28.56.64.85,1.07.06.11.08.2.08.26Z"/>
      <path class="cls-1" d="M42.46,80.87c0,.16-.06.3-.17.41s-.25.17-.41.17c-1.26-.02-2.1-.02-2.53-.01-.39,0-.59.2-.59.61v.66c0,.3.08.75.24,1.36.06.25.1.5.1.77,0,1.06-.29,1.92-.86,2.6-.58.68-1.47,1.2-2.68,1.58-.06.02-.12.02-.18.02-.15,0-.29-.06-.4-.17-.12-.11-.17-.25-.17-.42,0-.28.14-.46.42-.55,1.14-.34,1.93-.87,2.38-1.58.08-.13.12-.24.12-.32,0-.11-.06-.17-.18-.17-.07,0-.16.02-.25.07-.22.11-.47.17-.73.17-.59,0-1.07-.15-1.43-.44-.39-.33-.59-.78-.59-1.36s.22-1.08.66-1.43c.41-.33.92-.49,1.52-.49.06,0,.14,0,.25.01.11,0,.19.01.24.01.23,0,.35-.1.35-.3,0-.41-.2-.6-.61-.59-1.46.06-2.92.14-4.4.25-.17.02-.31-.03-.44-.15-.12-.12-.19-.26-.19-.43s.05-.29.16-.4c.11-.11.24-.17.39-.17l4.46-.22c.38-.02.58-.2.58-.54v-.54c0-.17.06-.31.19-.44.12-.12.27-.19.44-.19s.31.06.43.18c.12.12.18.26.18.43v.46c0,.41.2.61.6.6,1.21-.02,2.06-.02,2.54-.01.16,0,.29.05.4.16s.16.24.16.4ZM37.49,84.3c.03-.11.05-.22.05-.31,0-.3-.13-.51-.38-.61-.14-.06-.3-.08-.48-.08-.27,0-.5.09-.69.26-.19.18-.28.4-.28.66,0,.55.29.83.88.83.48,0,.78-.25.91-.74Z"/>
      <path class="cls-1" d="M47.34,87.54c0,.49-.17.9-.52,1.24-.34.34-.76.51-1.25.51s-.9-.17-1.24-.51-.51-.75-.51-1.24.17-.9.51-1.25c.34-.34.75-.52,1.24-.52s.9.17,1.25.52c.34.34.52.76.52,1.25ZM46.49,87.54c0-.26-.09-.47-.26-.65s-.39-.26-.65-.26-.46.09-.64.27c-.18.18-.26.39-.26.64s.09.46.26.63c.18.17.39.26.64.26s.47-.08.65-.25.26-.38.26-.64Z"/>
      <path class="cls-1" d="M66.48,82.85c0,.15-.05.28-.16.39-.1.11-.23.16-.38.16-.3,0-.76.02-1.36.07-.82.11-1.57.37-2.23.77-.85.5-1.27,1.11-1.27,1.82,0,.88.89,1.46,2.68,1.74.14.02.26.09.36.2.1.11.14.24.14.38,0,.18-.07.32-.2.44-.14.12-.29.16-.47.14-2.5-.37-3.76-1.27-3.76-2.71,0-.62.24-1.2.71-1.74.18-.2.26-.36.26-.47s-.1-.17-.31-.17c-.06,0-.12,0-.2.01-.75.1-1.8.26-3.14.48-.18.03-.33-.01-.47-.13-.14-.12-.2-.26-.2-.44,0-.14.05-.27.14-.38.1-.11.22-.18.36-.19.09,0,.75-.09,1.99-.25.79-.1,1.39-.35,1.8-.76.97-.96,1.91-2.01,2.83-3.14.12-.15.27-.23.46-.23.17,0,.31.06.43.17.12.12.17.25.17.41,0,.14-.06.27-.17.4-.56.65-1.21,1.36-1.96,2.12-.13.13-.19.25-.19.36,0,.2.16.28.48.25.65-.06,1.67-.15,3.07-.28.16-.02.3.03.41.14.12.11.17.25.17.41ZM60.19,80.97c0,.17-.06.31-.18.43-.12.12-.26.17-.43.17-.24,0-.42-.1-.53-.3-.23-.39-.52-.82-.88-1.27-.08-.1-.12-.22-.12-.34,0-.16.06-.3.17-.41.12-.12.26-.17.43-.17.19,0,.35.08.47.23.43.53.76.98.98,1.36.06.1.08.2.08.31Z"/>
      <path class="cls-1" d="M78.05,85.51c0,.11-.03.22-.1.32-.54.89-1.2,1.6-1.96,2.12-.86.58-1.76.88-2.72.88-2.1,0-3.16-.95-3.16-2.86,0-.78.02-1.8.05-3.06.02-1.02.04-2.14.06-3.34,0-.17.06-.31.19-.44s.28-.19.44-.19.33.06.46.19.19.28.18.46l-.14,6.11c0,1.26.66,1.88,1.99,1.88.71,0,1.4-.25,2.05-.76.56-.42,1.05-.97,1.48-1.67.12-.2.3-.3.54-.3.18,0,.33.06.45.19s.19.27.19.45Z"/>
      <path class="cls-1" d="M90.49,80.21c0,.32-.22.51-.65.58-1.21.18-2.28.68-3.22,1.49-.94.81-1.4,1.67-1.4,2.56,0,1.26,1.04,2.08,3.11,2.48.34.06.52.27.52.61,0,.19-.07.35-.22.48s-.32.18-.51.14c-1.16-.2-2.09-.56-2.8-1.08-.88-.64-1.32-1.49-1.32-2.54,0-.85.29-1.63.88-2.35.23-.29.49-.55.77-.78.24-.2.36-.37.36-.52,0-.19-.2-.27-.61-.24-1.25.11-2.58.25-4,.42-.18.02-.33-.02-.46-.14-.13-.12-.19-.27-.19-.44,0-.15.05-.28.15-.4.1-.11.23-.18.38-.19,1.45-.14,4.28-.36,8.48-.65.22-.02.39.03.53.14.14.11.2.25.2.43Z"/>
      <path class="cls-1" d="M103.19,84.4c0,.14-.05.25-.15.35s-.22.15-.35.15h-.67c-.32,0-.48.16-.49.48,0,.16,0,.38-.01.67-.02.33.14.49.47.49h.55c.13,0,.24.05.34.14.1.09.14.2.14.33,0,.14-.05.25-.14.34-.1.09-.21.14-.34.14h-.7c-.28,0-.46.15-.53.44-.13.52-.34.86-.64,1.02-.22.13-.63.19-1.22.19h-1.02c-.14,0-.25-.05-.35-.14-.1-.1-.15-.21-.15-.35s.05-.25.15-.35c.1-.1.22-.14.35-.14h.88c.34,0,.56-.04.68-.13.08-.06.12-.13.12-.2,0-.09-.05-.17-.14-.23-.1-.07-.21-.1-.34-.1h-4.86c-.58,0-.86-.26-.86-.77,0-.17.02-.38.07-.65.08-.42.12-.63.12-.65.05-.35-.1-.53-.44-.53h-.76c-.14,0-.25-.05-.35-.15s-.15-.22-.15-.35.05-.25.15-.35.22-.15.35-.15h.96c.31,0,.48-.15.52-.44l.12-1.03c.07-.63.43-.95,1.08-.95h4.96c.68,0,1.02.34,1.02,1.02v.92c0,.32.16.48.48.48h.66c.14,0,.25.05.35.15s.15.22.15.35ZM102.83,80.07c0,.14-.05.25-.15.35s-.22.15-.35.15h-6.62c-.43,0-.79.17-1.07.5-.28.33-.64.71-1.07,1.15-.1.1-.23.16-.38.16-.14,0-.27-.05-.38-.15-.11-.1-.16-.22-.16-.37,0-.16.05-.28.14-.37.94-.89,1.69-1.8,2.23-2.72.11-.18.26-.28.46-.28.14,0,.27.05.38.16.11.11.16.23.16.38,0,.03,0,.06-.01.07-.02.1-.02.17-.02.23,0,.17.1.25.31.25h6.05c.14,0,.25.05.35.14.1.1.15.21.15.35ZM97.21,85.41c.03-.34-.12-.5-.46-.5h-1.02c-.3,0-.46.15-.5.44l-.08.59c0,.06-.01.12-.01.17,0,.3.17.44.52.44h1c.31,0,.48-.15.5-.46l.06-.68ZM97.41,82.86c.02-.33-.14-.49-.47-.49h-.96c-.26,0-.4.12-.42.37l-.07.65c-.04.34.11.5.44.5h.94c.3,0,.47-.13.49-.4.02-.14.03-.35.05-.64ZM100.41,85.39c.02-.33-.14-.49-.47-.49h-1.15c-.3,0-.47.15-.49.46l-.06.68c-.03.34.12.5.46.5h1.2c.31,0,.48-.14.49-.43,0-.15.02-.39.02-.72ZM99.94,83.89c.32,0,.48-.16.48-.48v-.65c0-.26-.13-.4-.38-.4h-1.09c-.31,0-.48.16-.49.47l-.02.56c-.02.33.14.49.47.49h1.04Z"/>
      <path class="cls-1" d="M113.89,87.4c0,.82-.41,1.24-1.22,1.24h-5.52c-.82,0-1.24-.41-1.24-1.24v-7c0-.82.41-1.24,1.24-1.24h5.52c.82,0,1.22.41,1.22,1.24v7ZM112.75,82.78v-1.92c0-.42-.21-.62-.62-.62h-4.44c-.42,0-.62.21-.62.62v1.92c0,.36.18.54.54.54h4.61c.36,0,.54-.18.54-.54ZM112.75,86.94v-2.06c0-.36-.18-.54-.54-.54h-4.61c-.36,0-.54.18-.54.54v2.06c0,.42.21.62.62.62h4.44c.42,0,.62-.21.62-.62Z"/>
      <path class="cls-1" d="M126.88,83.92c0,2.44-1.24,3.93-3.71,4.48-.02,0-.07.01-.13.01-.16,0-.3-.06-.41-.17-.12-.11-.17-.25-.17-.42,0-.32.14-.52.43-.59,1.85-.46,2.77-1.58,2.77-3.34,0-.92-.25-1.66-.74-2.21-.18-.21-.41-.39-.68-.55-.31-.18-.59-.26-.84-.26-.34,0-.55.2-.62.6-.3,1.74-.66,3.15-1.08,4.21-.26.67-.52,1.18-.78,1.51-.41.52-.88.78-1.43.78-.73,0-1.31-.36-1.75-1.09-.38-.62-.58-1.32-.58-2.09,0-1.49.49-2.72,1.48-3.7.99-.98,2.23-1.46,3.71-1.46,1.4,0,2.5.36,3.29,1.08.83.75,1.25,1.82,1.25,3.2ZM121.54,81.51c0-.06.01-.11.01-.17,0-.3-.14-.44-.41-.44-.1,0-.2.02-.31.06-.74.26-1.34.73-1.8,1.43-.46.7-.7,1.5-.7,2.41,0,.5.12.93.35,1.31s.49.57.78.57c.34,0,.71-.48,1.1-1.45.33-.82.65-2.06.97-3.72Z"/>
      <path class="cls-1" d="M137.47,85.75c0,.92-.33,1.62-.98,2.09-.57.41-1.33.61-2.29.61-1.22,0-2.2-.34-2.92-1.03-.13-.12-.19-.28-.19-.47s.06-.34.19-.46c.13-.12.28-.19.47-.19s.35.07.48.22c.51.56,1.14.84,1.9.84.59,0,1.07-.13,1.43-.38.42-.29.64-.71.64-1.27,0-.47-.2-.84-.59-1.11-.4-.27-.93-.4-1.6-.4h-.83c-.15,0-.28-.05-.39-.16-.11-.11-.16-.24-.16-.39s.05-.28.16-.39.24-.16.39-.16h.79c.62,0,1.1-.13,1.43-.38.33-.25.5-.61.5-1.06,0-.4-.15-.72-.45-.95s-.72-.35-1.25-.35c-.74,0-1.39.26-1.94.77-.11.1-.25.16-.41.16s-.31-.06-.43-.17c-.12-.12-.17-.26-.17-.43s.06-.32.19-.44c.72-.66,1.65-.98,2.78-.98.78,0,1.44.16,1.98.49.64.4.96.96.96,1.69s-.24,1.32-.71,1.74c-.21.18-.31.31-.31.38s.12.18.36.34c.66.42.98,1.04.98,1.86Z"/>
      <path class="cls-1" d="M149.63,86.02c0,1.11-.17,1.86-.5,2.24-.37.42-1.09.64-2.16.64h-.82c-.14,0-.27-.05-.37-.16-.1-.1-.16-.23-.16-.37s.05-.27.16-.38c.1-.11.23-.16.37-.16h.64c.79,0,1.28-.13,1.45-.38.14-.19.2-.72.2-1.6v-2.06c0-.42-.21-.62-.62-.62h-1.24c-.33,0-.52.17-.56.52-.15,1.16-.46,2.12-.94,2.89-.58.93-1.45,1.68-2.63,2.27-.08.04-.17.06-.28.06-.15,0-.28-.05-.4-.16-.11-.11-.17-.24-.17-.4,0-.25.1-.42.31-.53,1.74-.87,2.71-2.23,2.93-4.08.04-.38-.13-.56-.52-.56h-1.04c-.14,0-.26-.05-.36-.15-.1-.1-.14-.22-.14-.35v-.02c-.27.29-.55.56-.84.83-.12.11-.25.17-.38.17-.16,0-.29-.06-.4-.17-.11-.11-.16-.24-.16-.4,0-.18.06-.32.19-.43,1.14-.98,2.09-2.18,2.83-3.59.1-.18.25-.28.47-.28.16,0,.29.05.39.16.1.1.15.23.15.38,0,.09-.02.18-.07.26-.54.99-1.12,1.86-1.75,2.59h.08s5.11-.01,5.11-.01c.82,0,1.22.41,1.22,1.22v2.64ZM151.51,83.03c0,.16-.05.3-.16.41s-.24.17-.4.17c-.13,0-.26-.05-.37-.14-1.3-1.15-2.37-2.45-3.2-3.9-.06-.1-.08-.19-.08-.28,0-.15.05-.28.16-.38.11-.1.24-.16.39-.16.21,0,.36.09.47.28.8,1.4,1.8,2.59,3,3.58.13.11.2.26.2.43Z"/>
      <path class="cls-1" d="M162.99,87.73c0,.18-.06.33-.19.45s-.27.19-.45.19c-.19,0-.35-.07-.48-.22-.85-.98-1.65-1.84-2.41-2.58-.13-.13-.26-.19-.4-.19-.15,0-.3.08-.44.24-.86.95-2.02,1.86-3.5,2.72-.1.06-.2.08-.3.08-.17,0-.31-.06-.43-.18-.12-.12-.18-.26-.18-.43,0-.24.1-.42.31-.54,2.62-1.48,4.33-3.33,5.11-5.56.06-.15.08-.28.08-.38,0-.3-.23-.44-.7-.44h-4.03c-.16,0-.3-.06-.41-.18s-.17-.26-.17-.42.06-.3.17-.41c.12-.12.25-.17.41-.17h4.93c.39,0,.7.09.92.27.22.18.34.43.34.75,0,.15-.03.33-.1.53-.27.85-.61,1.64-1.02,2.38-.09.16-.13.31-.13.44,0,.2.09.38.26.55.88.85,1.76,1.74,2.63,2.68.11.12.17.26.17.43Z"/>
      <path class="cls-1" d="M175,87.75c0,.16-.06.3-.17.41-.12.12-.25.17-.41.17h-5.81c-.73,0-1.21-.12-1.46-.35-.24-.23-.37-.69-.37-1.37v-6.8c0-.17.06-.31.18-.44s.26-.19.43-.19.31.06.43.19.18.27.18.44v2.41c0,.36.15.54.44.54.07,0,.15-.01.24-.04,1.61-.5,2.95-1.03,4.03-1.57.1-.05.19-.07.29-.07.18,0,.33.06.46.19s.19.27.19.45c0,.28-.12.47-.36.58-1.52.66-3.04,1.22-4.57,1.66-.48.14-.72.45-.72.95v1.14c0,.47.07.77.22.91.14.13.47.2.98.2h5.21c.16,0,.3.06.41.17.12.12.17.26.17.43ZM175.98,79.71c0,.35-.13.65-.39.91-.26.25-.57.38-.92.38s-.65-.12-.9-.37c-.25-.25-.37-.55-.37-.91s.12-.66.37-.91.55-.37.9-.37.66.13.92.38c.26.25.39.55.39.91ZM175.31,79.71c0-.17-.06-.31-.19-.43s-.27-.18-.45-.18-.31.06-.43.17c-.12.12-.17.26-.17.44s.06.32.17.44c.12.12.26.17.43.17s.33-.06.45-.18c.12-.12.19-.26.19-.43Z"/>
      <path class="cls-1" d="M187.65,83.58c0,.18-.06.32-.17.44-.12.12-.26.18-.44.18h-8.84c-.18,0-.32-.06-.44-.18-.12-.12-.17-.27-.17-.44s.06-.32.17-.44c.12-.12.26-.18.44-.18h8.84c.18,0,.32.06.44.18.12.12.17.27.17.44Z"/>
      <path class="cls-1" d="M199.63,83.41c0,.16-.06.3-.17.41-.12.11-.25.17-.4.17h-2.92c-.38,0-.58.19-.62.58-.1.93-.34,1.68-.71,2.26-.5.77-1.31,1.41-2.44,1.93-.09.04-.17.06-.25.06-.18,0-.32-.06-.44-.18s-.18-.27-.18-.44c0-.27.12-.46.36-.58.74-.35,1.3-.74,1.66-1.15.4-.47.66-1.08.77-1.84.06-.42-.13-.64-.58-.64h-3.31c-.15,0-.29-.06-.4-.17-.12-.11-.17-.25-.17-.41,0-.15.06-.28.17-.4.12-.11.25-.17.4-.17h3.37c.4,0,.6-.2.6-.6v-.58c0-.42-.21-.61-.64-.56-.7.08-1.42.14-2.15.18-.17,0-.31-.04-.43-.15-.12-.11-.18-.25-.18-.43,0-.16.06-.3.17-.41.11-.11.24-.17.4-.18,2.22-.09,4.13-.42,5.75-1.01.06-.02.13-.04.19-.04.16,0,.3.06.41.17.12.12.17.26.17.43,0,.29-.14.48-.41.56-.49.16-.96.3-1.43.42-.42.1-.64.37-.64.79v.79c0,.4.2.6.6.6h2.87c.15,0,.29.06.4.17.12.11.17.24.17.4Z"/>
      <path class="cls-1" d="M211.5,80.21c0,.32-.22.51-.65.58-1.21.18-2.28.68-3.22,1.49-.94.81-1.4,1.67-1.4,2.56,0,1.3,1.04,2.12,3.11,2.48.34.06.52.26.52.61,0,.19-.07.35-.22.49-.15.13-.32.18-.51.14-1.24-.24-2.18-.61-2.83-1.1-.86-.66-1.28-1.5-1.28-2.52,0-.86.29-1.65.88-2.35.26-.3.51-.56.76-.77s.37-.38.37-.53c0-.19-.2-.27-.61-.24-1.64.14-2.97.28-4,.42-.18.02-.33-.02-.46-.14-.13-.12-.19-.27-.19-.44,0-.15.05-.29.15-.4.1-.12.23-.18.38-.19,1.47-.14,4.3-.36,8.48-.65.22,0,.39.04.53.15.14.11.2.25.2.41ZM210.85,83.75c0,.13-.05.24-.14.33-.09.09-.2.14-.33.14-.19,0-.33-.07-.42-.22-.23-.37-.48-.68-.74-.95-.09-.09-.13-.2-.13-.32,0-.32.16-.48.47-.48.14,0,.26.06.36.18.34.38.62.73.84,1.06.06.1.1.18.1.26ZM212.32,83.07c0,.13-.05.24-.14.33s-.2.14-.33.14c-.18,0-.32-.07-.42-.22-.26-.39-.51-.72-.74-.97-.09-.1-.13-.2-.13-.3,0-.32.16-.48.48-.48.12,0,.24.06.35.17.28.28.56.64.85,1.07.06.11.08.2.08.26Z"/>
      <path class="cls-1" d="M223.24,81.31c0,.18-.04.36-.11.56-.6,1.66-1.43,3.04-2.5,4.12-1.06,1.08-2.46,1.97-4.18,2.66-.08.03-.16.05-.23.05-.18,0-.32-.06-.44-.19s-.18-.27-.18-.44c0-.29.14-.48.41-.59,1.29-.5,2.36-1.12,3.22-1.84.16-.13.24-.27.24-.42s-.1-.3-.3-.43c-.55-.36-1.14-.7-1.75-1.02-.2-.1-.3-.27-.3-.49,0-.16.06-.29.17-.4.11-.11.24-.16.4-.16.08,0,.17.02.26.07.62.32,1.29.7,1.99,1.14.16.1.31.14.44.14.22,0,.4-.11.55-.34.4-.6.65-1.06.76-1.37.07-.2.11-.36.11-.49,0-.3-.27-.46-.8-.46h-2.2c-.54,0-1,.2-1.36.6-.52.58-1.16,1.18-1.92,1.78-.11.09-.23.13-.36.13-.17,0-.31-.06-.43-.17-.12-.12-.17-.25-.17-.41,0-.2.08-.36.23-.48,1.38-1.08,2.46-2.27,3.22-3.56.12-.2.29-.3.5-.3.16,0,.3.06.42.18s.18.26.18.42c0,.05,0,.11-.03.2-.02.08-.03.15-.03.2,0,.2.13.3.38.3h2.56c.38,0,.69.09.91.27.22.18.34.43.34.74Z"/>
      <path class="cls-1" d="M234.93,86.1c0,.17-.06.31-.18.43-.12.12-.27.18-.44.18s-.32-.06-.44-.18c-.52-.54-1.02-1-1.49-1.4-.13-.11-.26-.17-.38-.17-.16,0-.31.09-.46.26-.98,1.19-2.27,2.26-3.85,3.22-.1.06-.2.08-.32.08-.18,0-.33-.06-.45-.19s-.19-.27-.19-.45c0-.23.11-.41.32-.54,1.48-.86,2.66-1.81,3.54-2.84.1-.13.16-.26.16-.38,0-.17-.09-.32-.28-.44-.46-.3-1.06-.68-1.82-1.13-.21-.12-.31-.29-.31-.52,0-.16.06-.3.18-.42.12-.12.26-.18.42-.18.1,0,.2.03.31.1.6.34,1.22.73,1.85,1.16.14.1.26.14.38.14.18,0,.33-.11.44-.32.4-.77.74-1.64,1.03-2.63.09-.3.29-.46.6-.46.18,0,.33.06.45.19s.19.28.19.44c0,.06-.01.13-.04.2-.37,1.11-.78,2.07-1.22,2.88-.1.17-.14.32-.14.47,0,.22.11.43.34.61.66.54,1.19,1.01,1.61,1.4.14.13.2.28.2.47Z"/>
      <path class="cls-1" d="M28.73,94.79c-.32,1.83-.48,3.56-.48,5.2,0,1.14.04,2.1.13,2.87.02.18-.03.35-.16.49-.13.14-.28.22-.47.22-.17,0-.31-.06-.43-.17-.12-.11-.19-.25-.2-.41-.08-.77-.12-1.74-.12-2.93,0-1.78.17-3.6.5-5.48.06-.34.27-.52.61-.52.19,0,.35.07.47.22.12.15.17.32.14.51ZM36.01,102.11c0,.14-.05.27-.16.39-.1.12-.23.18-.37.2-1.04.14-1.91.2-2.6.2-2.12,0-3.18-.64-3.18-1.92,0-.36.1-.73.3-1.1.11-.22.28-.32.5-.32.39,0,.59.19.59.56,0,.08-.02.2-.07.35-.05.16-.07.28-.07.38,0,.33.2.56.59.68.34.12.87.18,1.6.18.59,0,1.32-.07,2.18-.2.18-.03.35.01.49.14.14.12.21.28.21.46ZM35.59,95.76c0,.15-.05.28-.15.4-.1.11-.23.18-.38.2-.9.13-1.86.19-2.87.19-.45,0-.94-.02-1.46-.05-.15,0-.28-.07-.4-.19-.11-.12-.17-.25-.17-.41,0-.18.07-.32.2-.44s.28-.17.45-.15c.45.04.92.06,1.43.06.9,0,1.79-.07,2.65-.2.18-.03.35.01.49.13.14.12.21.27.21.46Z"/>
      <path class="cls-1" d="M43.84,96.45c-.41.09-.8.16-1.19.22-.45.07-.75.32-.9.74-.56,1.61-1.2,3.14-1.91,4.58-.11.23-.3.35-.55.35-.17,0-.31-.06-.43-.18s-.18-.26-.18-.43c0-.1.02-.19.07-.29.67-1.3,1.25-2.61,1.74-3.94.03-.09.05-.16.05-.23,0-.25-.17-.37-.5-.37h-.68c-.16,0-.3-.06-.41-.17-.11-.12-.17-.25-.17-.41s.06-.31.18-.43c.12-.12.26-.17.43-.16.35.02.68.02.98.01.49,0,.79-.25.91-.73.06-.27.13-.54.2-.82.12-.3.32-.46.59-.46.17,0,.31.06.43.18.12.12.18.26.18.42,0,.06-.04.24-.12.52-.02.1-.04.18-.04.25,0,.24.11.36.32.36.04,0,.08,0,.13-.01l.62-.13c.07-.02.12-.02.14-.02.16,0,.29.06.39.17.1.12.15.26.15.43,0,.3-.15.49-.46.55ZM48.38,102.39c0,.16-.06.3-.17.42-.12.12-.26.18-.43.18-.1,0-.21-.04-.32-.11-.26-.18-.54-.34-.84-.5-.1-.06-.18-.08-.26-.08-.19,0-.33.14-.41.42-.23.81-.94,1.21-2.14,1.21-.63,0-1.16-.14-1.58-.41-.5-.31-.76-.77-.76-1.37s.24-1.04.71-1.36c.41-.27.92-.41,1.55-.41.18,0,.38.02.6.05.18.02.33,0,.43-.08s.15-.22.15-.41v-1.75c-.01-.16.04-.3.16-.41.11-.12.25-.17.41-.17s.3.06.41.17c.11.11.17.25.17.41v2.02c.01.44.23.76.67.96.38.18.84.42,1.37.73.2.12.3.29.3.5ZM44.89,102.05c0-.34-.19-.54-.58-.6-.23-.04-.44-.06-.61-.06-.73,0-1.09.26-1.09.77,0,.23.1.41.29.55.2.13.45.2.76.2.56,0,.92-.14,1.09-.41.09-.14.13-.29.13-.44ZM48.49,97.03c0,.16-.06.3-.17.41-.12.12-.25.17-.41.17-.11,0-.22-.04-.32-.11-.61-.41-1.25-.76-1.93-1.04-.22-.1-.34-.27-.34-.53,0-.16.06-.3.17-.41.12-.11.25-.17.4-.17.09,0,.16.02.22.05.75.32,1.46.69,2.11,1.12.18.12.28.29.28.5Z"/>
      <path class="cls-1" d="M60,100.55c0,1.14-.47,2-1.42,2.56-.75.45-1.67.67-2.75.67-.94,0-1.67-.15-2.21-.45s-.81-.7-.81-1.21.19-.86.56-1.13c.34-.25.75-.37,1.25-.37.67,0,1.24.21,1.7.62.24.22.43.46.58.72.14.26.31.4.5.4.11,0,.24-.04.38-.12.66-.35.98-.89.98-1.62,0-.54-.2-.97-.59-1.27-.4-.3-.93-.45-1.59-.44-1.7.02-3.21.57-4.55,1.64-.2.16-.36.24-.48.24-.15,0-.28-.05-.4-.16-.11-.11-.17-.24-.17-.4,0-.18.07-.32.2-.43,1.18-1,2.67-2.27,4.45-3.8.14-.13.22-.24.22-.35,0-.17-.15-.24-.46-.22-.54.04-1.44.1-2.71.18-.16,0-.3-.04-.42-.16-.12-.11-.18-.25-.18-.41s.05-.3.16-.41c.11-.11.24-.17.4-.17,1.52,0,3.13-.09,4.82-.24.25-.02.45.03.6.15s.23.29.23.49-.11.4-.32.58c-.82.66-1.68,1.37-2.6,2.15-.13.1-.19.2-.19.3,0,.12.09.18.26.18.06,0,.12,0,.18-.02.43-.09.84-.13,1.21-.13.91,0,1.65.21,2.21.62.62.46.94,1.14.94,2.02ZM55.34,102.75c.3.02.46-.1.46-.36,0-.13-.06-.25-.17-.37-.27-.3-.62-.46-1.04-.46s-.66.16-.66.47c0,.28.24.48.71.61.19.05.43.08.71.11Z"/>
      <path class="cls-1" d="M72.48,100.6c0,.95-.36,1.68-1.09,2.2-.62.44-1.45.69-2.48.74-.16,0-.3-.04-.42-.15-.12-.11-.18-.24-.18-.4,0-.14.05-.27.14-.38.1-.11.22-.17.36-.19,1.63-.16,2.45-.77,2.45-1.82,0-.46-.19-.82-.58-1.1-.38-.28-.88-.41-1.49-.41s-1.15.05-1.67.16c-.42.08-.62.34-.62.79v2.53c0,.7-.34,1.04-1.01,1.04s-1.3-.2-1.97-.59c-.76-.46-1.14-.97-1.15-1.55,0-.42.22-.87.67-1.35.45-.48,1.04-.9,1.78-1.27.37-.18.55-.47.55-.85v-.73c0-.36-.18-.54-.55-.53-.65.02-1.15.02-1.5,0-.14,0-.27-.07-.37-.17-.1-.11-.16-.23-.16-.38,0-.16.06-.29.17-.4.11-.11.25-.16.41-.15.48.02.97.03,1.48.01.35,0,.53-.19.53-.55v-.82c0-.15.06-.28.17-.4s.24-.17.4-.17.28.06.4.17c.11.11.17.24.17.4v.66c0,.38.19.55.58.49.26-.04.58-.09.95-.16.17-.03.32,0,.46.11.14.11.2.25.2.43,0,.31-.16.5-.47.55-.35.05-.7.1-1.06.14-.44.1-.66.31-.66.61v.55c0,.32.14.48.43.48.06,0,.11,0,.17-.01.54-.1,1.08-.16,1.6-.16.97,0,1.75.2,2.35.61.69.46,1.03,1.13,1.03,1.99ZM65.77,101.73v-1.24c0-.32-.12-.48-.36-.48-.1,0-.2.03-.3.1-.74.45-1.1.88-1.1,1.31,0,.25.19.47.56.67.35.19.62.29.79.29.27,0,.41-.22.41-.65ZM72.7,96.69c0,.16-.06.3-.17.42-.11.12-.25.18-.41.18-.15,0-.28-.05-.4-.16-.45-.42-.98-.78-1.58-1.1-.2-.1-.3-.27-.3-.49,0-.16.06-.3.17-.41.11-.11.24-.17.4-.17.1,0,.18.02.26.06.67.34,1.28.75,1.82,1.22.14.12.2.27.2.44Z"/>
      <path class="cls-1" d="M79.18,95.55c0,.14-.05.27-.16.37-.1.1-.23.15-.37.15h-3.66c-.14,0-.26-.05-.36-.15-.1-.1-.14-.22-.14-.37s.05-.27.14-.37c.1-.1.22-.15.36-.15h.86c.32,0,.48-.16.48-.48v-.46c0-.15.06-.28.17-.4.11-.11.24-.17.4-.17s.28.06.39.17c.11.11.16.24.16.4v.46c0,.32.16.48.48.48h.72c.14,0,.27.05.37.16s.16.22.16.36ZM78.79,102.94c0,.64-.32.96-.96.96h-2.03c-.64,0-.96-.32-.96-.96v-1.49c0-.64.32-.96.96-.96h2.03c.64,0,.96.32.96.96v1.49ZM78.74,97.39c0,.14-.05.25-.14.34-.1.09-.21.14-.34.14h-2.86c-.13,0-.24-.05-.34-.14s-.14-.21-.14-.34c0-.13.05-.24.14-.34.1-.1.21-.14.34-.14h2.86c.13,0,.24.05.34.14.1.1.14.21.14.34ZM78.74,99.15c0,.14-.05.25-.14.34-.1.09-.21.14-.34.14h-2.86c-.13,0-.24-.05-.34-.14s-.14-.21-.14-.34c0-.13.05-.24.14-.34.1-.1.21-.14.34-.14h2.86c.13,0,.24.05.34.14.1.1.14.21.14.34ZM77.75,102.46v-.58c0-.3-.14-.44-.43-.44h-.97c-.3,0-.44.15-.44.44v.58c0,.3.15.44.44.44h.97c.29,0,.43-.15.43-.44ZM85.2,97.21c0,.14-.05.25-.15.35-.1.1-.22.15-.35.15h-1.5c-.32,0-.48.16-.48.48v.71c0,.32.16.48.48.48h.54c.66,0,.98.33.98.98v2.51c0,.66-.33,1-.98,1h-3.02c-.66,0-1-.33-1-1v-2.51c0-.66.33-.98,1-.98h.43c.32,0,.48-.16.48-.48v-.71c0-.32-.16-.48-.48-.48h-1.44c-.14,0-.25-.05-.35-.15-.1-.1-.15-.22-.15-.35s.05-.25.15-.35c.1-.1.22-.15.35-.15h1.44c.32,0,.48-.16.48-.48v-.53c0-.32-.17-.47-.5-.44l-1.19.1c-.14,0-.27-.04-.38-.14-.11-.1-.17-.22-.17-.37,0-.33.16-.5.47-.52,1.61-.1,3-.32,4.19-.64.06-.02.1-.02.13-.02.14,0,.27.05.37.16s.15.23.15.37c0,.26-.18.46-.54.58-.05.02-.34.07-.88.17-.37.06-.55.28-.55.65v.64c0,.32.16.48.48.48h1.5c.14,0,.25.05.35.15.1.1.15.22.15.35ZM83.66,102.4v-1.55c0-.32-.16-.48-.48-.48h-1.93c-.32,0-.48.16-.48.48v1.55c0,.32.16.48.48.48h1.93c.32,0,.48-.16.48-.48Z"/>
      <path class="cls-1" d="M96.42,98.05c0,.24-.11.41-.34.5-.54.22-1.04.45-1.51.68-.33.16-.53.33-.61.5-.06.13-.08.38-.08.77v.77c0,.16-.06.29-.17.4-.11.11-.25.16-.41.16s-.29-.05-.4-.16c-.11-.11-.16-.24-.16-.4v-.46c0-.28-.1-.42-.31-.42-.09,0-.18.03-.29.1-.97.6-1.45,1.12-1.45,1.55,0,.25.16.43.49.53.33.11.89.16,1.68.16.62,0,1.45-.07,2.48-.2.17-.02.31.02.44.13.12.11.19.25.19.42,0,.14-.05.27-.14.38-.1.11-.22.17-.36.19-.91.1-1.81.16-2.69.16s-1.61-.08-2.1-.23c-.82-.26-1.22-.75-1.22-1.45,0-.82.88-1.75,2.65-2.8.29-.17.43-.34.43-.5,0-.21-.17-.31-.5-.31-.46,0-1.05.22-1.76.66-.58.36-1.08.76-1.52,1.2l-.31.37c-.13.12-.27.18-.42.18-.16,0-.29-.05-.4-.16s-.16-.24-.16-.4c0-.14.04-.27.13-.37.83-1,1.53-2,2.09-3,.06-.1.08-.19.08-.28,0-.21-.15-.31-.44-.3-.26,0-.65.01-1.16.01-.14,0-.27-.05-.37-.16-.1-.1-.15-.23-.15-.37,0-.15.05-.28.16-.38.11-.1.23-.15.38-.14.5.02,1.04.02,1.64,0,.47,0,.79-.23.96-.66l.24-.62c.1-.25.28-.37.54-.37.16,0,.29.06.4.17.11.11.16.24.16.4,0,.07-.01.14-.04.2-.04.1-.06.16-.07.18-.03.09-.05.17-.05.24,0,.23.14.33.43.3.3-.03.88-.11,1.73-.24.16-.02.3.02.43.13.13.11.19.24.19.4,0,.32-.16.5-.48.54-.8.1-1.52.18-2.15.23-.35.03-.62.11-.8.22-.18.12-.35.32-.51.62-.02.02-.06.09-.12.19-.09.15-.13.28-.13.37,0,.12.07.18.22.18.09,0,.2-.03.35-.08.42-.16.81-.24,1.16-.24.48,0,.85.16,1.1.48.18.22.34.32.5.32.09,0,.18-.02.29-.07l1.45-.71c.08-.04.16-.06.24-.06.15,0,.28.05.39.16.11.11.16.24.16.4Z"/>
      <path class="cls-1" d="M109.5,95.02c0,.14-.05.27-.16.37-.1.1-.22.15-.36.15h-2.05c-.32,0-.48.14-.48.41s.16.42.48.42h1.13c.64,0,.96.32.96.96v1.33c0,.64-.32.96-.96.96h-2.22c.11.06.44.38.98.96.09.1.13.21.13.34s-.04.24-.13.33c-.09.09-.2.14-.32.14-.15,0-.27-.05-.35-.16-.27-.34-.54-.62-.8-.85-.11-.1-.17-.21-.17-.35,0-.19.08-.33.25-.41h-1.54c-.64,0-.96-.32-.96-.96v-1.33c0-.64.32-.96.96-.96h1.01c.32,0,.48-.14.48-.42s-.16-.41-.48-.41h-1.82c-.14,0-.26-.05-.36-.15-.1-.1-.16-.22-.16-.37,0-.04,0-.09.02-.16-.14.02-.22.06-.26.11-.04.05-.05.15-.05.29v8.4c0,.14-.05.26-.15.36s-.22.16-.35.16c-.14,0-.27-.05-.37-.16s-.15-.22-.15-.36v-1.03c0-.29-.13-.43-.38-.43-.06,0-.12,0-.18.02-.94.26-1.53.4-1.78.4-.14,0-.26-.05-.36-.16-.1-.11-.14-.24-.14-.39,0-.3.15-.47.44-.52.24-.04.36-.19.36-.44v-5.81c0-.26-.1-.4-.3-.42-.31-.02-.47-.2-.47-.52,0-.14.05-.27.16-.37s.22-.15.36-.15h3.48c.14,0,.25.05.35.15s.15.22.15.37c0,.04,0,.09-.02.16.08-.02.13-.02.16-.02h1.82c.32,0,.48-.15.48-.44,0-.15.05-.28.16-.38s.23-.16.38-.16c.14,0,.27.05.37.16.1.11.16.23.16.38,0,.3.16.44.48.44h2.05c.14,0,.26.05.36.15s.16.22.16.37ZM101.32,95.86v-.55c0-.28-.14-.42-.42-.42h-.28c-.28,0-.42.14-.42.42v.55c0,.28.14.42.42.42h.28c.28,0,.42-.14.42-.42ZM101.32,98.25v-.6c0-.28-.14-.42-.42-.42h-.28c-.28,0-.42.14-.42.42v.6c0,.28.14.42.42.42h.28c.28,0,.42-.14.42-.42ZM101.32,100.63v-.6c0-.28-.14-.42-.42-.42h-.28c-.28,0-.42.14-.42.42v.66c0,.34.1.5.31.5.05,0,.1,0,.17-.02l.26-.07c.25-.06.37-.22.37-.47ZM104.14,100.83c-.15.78-.38,1.52-.67,2.24-.09.22-.24.32-.46.32-.14,0-.25-.05-.35-.14-.1-.1-.14-.21-.14-.35,0-.09.01-.16.04-.2.28-.6.5-1.28.67-2.05.06-.26.21-.38.46-.38.14,0,.26.06.36.17.1.12.13.25.1.39ZM104.69,98.32v-.66c0-.24-.12-.36-.36-.36h-.06c-.25,0-.37.13-.37.38v.6c0,.26.12.4.37.4h.07c.23,0,.35-.12.35-.36ZM107.96,102.37c0,.63-.08,1.05-.2,1.25-.16.25-.54.37-1.15.37h-1.1c-.44,0-.72-.06-.85-.19-.12-.13-.19-.42-.19-.89v-1.62c0-.14.05-.25.15-.35.1-.1.22-.15.35-.15s.25.05.35.15c.1.1.14.22.14.35v1.32c0,.16.03.27.09.32s.17.08.33.08h.6c.2,0,.33-.04.38-.11.06-.08.09-.27.11-.57,0-.13.06-.24.16-.33.1-.09.21-.14.34-.14.14,0,.25.05.34.16.09.1.14.22.14.36ZM106.38,98.32v-.66c0-.24-.12-.36-.36-.36h-.13c-.24,0-.36.12-.36.36v.66c0,.24.12.36.36.36h.13c.24,0,.36-.12.36-.36ZM108.07,98.28v-.6c0-.26-.13-.38-.4-.38h-.1c-.24,0-.36.12-.36.36v.66c0,.24.12.36.36.36h.1c.26,0,.4-.13.4-.4ZM109.5,102.52c0,.14-.05.27-.15.37-.1.1-.22.16-.37.16-.25,0-.41-.12-.49-.35-.21-.59-.48-1.19-.83-1.79-.04-.07-.06-.15-.06-.24,0-.14.05-.25.14-.35.1-.1.21-.14.35-.14.18,0,.32.08.42.24.41.7.72,1.34.95,1.91.02.06.04.13.04.19Z"/>
      <path class="cls-1" d="M118.06,98.07c0,1.26-.21,2.67-.64,4.22-.12.45-.26.77-.41.97-.22.29-.53.43-.91.43-.42,0-.97-.12-1.66-.35-.27-.09-.41-.27-.41-.54,0-.16.06-.3.17-.41.12-.11.25-.17.4-.17.06,0,.15.02.25.05.34.12.6.18.78.18.19,0,.33-.06.41-.17.06-.09.14-.27.22-.54.38-1.34.56-2.51.56-3.5,0-.38-.08-.64-.23-.77s-.44-.19-.86-.19c-.38,0-.63.04-.77.12-.17.1-.29.27-.36.52-.52,1.74-1.23,3.5-2.14,5.27-.12.23-.31.35-.56.35-.18,0-.32-.06-.44-.19-.12-.12-.18-.27-.18-.45,0-.14.02-.24.07-.32.82-1.42,1.48-2.91,1.99-4.48.02-.08.04-.15.04-.22,0-.29-.17-.41-.52-.36-.25.03-.64.09-1.16.17-.17.02-.32-.02-.46-.14-.14-.12-.21-.26-.21-.44,0-.34.17-.53.52-.58s.91-.12,1.67-.22c.38-.04.64-.28.78-.72.02-.06.09-.46.2-1.18.06-.34.26-.52.6-.52.19,0,.35.07.46.21.12.14.16.31.13.5,0,.04-.04.22-.11.53-.06.23-.08.4-.08.52,0,.34.19.49.56.47h.18c.62-.05,1.11.06,1.48.31.42.29.62.83.62,1.62ZM121.68,98.97c0,.18-.06.33-.19.46s-.27.19-.45.19c-.29,0-.49-.14-.6-.42-.42-1.08-.95-2.06-1.6-2.95-.07-.1-.11-.21-.11-.34,0-.17.06-.31.17-.43.12-.12.26-.18.43-.18.2,0,.36.08.49.25.73.95,1.33,2.01,1.81,3.18.02.06.04.14.04.24Z"/>
      <path class="cls-1" d="M133.58,96.73c0,.16-.06.29-.17.4-.11.11-.24.17-.4.17l-1.39.05c-.38.02-.58.21-.6.59-.04.61-.09,1.16-.14,1.66-.06.46-.17.8-.35,1s-.45.31-.81.31c-.3,0-.75-.13-1.37-.4-.22-.1-.34-.26-.34-.49,0-.16.05-.29.15-.4.1-.1.22-.16.35-.16.08,0,.16.02.24.05.37.17.6.25.7.25.19,0,.31-.26.35-.77.02-.36.04-.68.06-.96,0-.2-.04-.35-.14-.46-.1-.1-.26-.15-.46-.14-.68.03-1.42.08-2.21.13-.38.03-.58.24-.58.62v2.87c0,.54.11.9.33,1.07.22.17.67.25,1.34.25,1.08,0,2.25-.06,3.5-.18.17-.02.31.03.44.14s.19.25.19.42c0,.15-.05.28-.16.4-.11.11-.23.17-.38.18-1.33.08-2.56.13-3.71.14-.94,0-1.61-.12-2-.37-.49-.33-.73-.94-.73-1.84v-2.94c0-.43-.21-.62-.64-.58l-1.2.13c-.16.02-.3-.03-.43-.14-.13-.11-.19-.25-.19-.42,0-.14.05-.27.15-.37.1-.1.22-.16.35-.18l1.38-.13c.38-.04.58-.25.58-.62v-1.18c0-.16.06-.3.17-.42.12-.12.26-.18.43-.18s.3.06.41.18c.12.12.17.26.17.42v1.03c0,.42.21.61.62.58.82-.06,1.56-.11,2.21-.14.38-.02.58-.22.59-.6v-1.16c0-.16.06-.3.17-.42.12-.12.25-.18.41-.18s.3.06.41.17.17.25.17.41v1.09c0,.2.05.35.16.45.1.1.26.15.46.14l1.31-.05c.16,0,.3.04.41.16.12.11.17.25.17.41Z"/>
      <path class="cls-1" d="M145.19,95.21c0,.32-.22.51-.65.58-1.21.18-2.28.68-3.22,1.49s-1.4,1.67-1.4,2.56c0,1.26,1.04,2.08,3.11,2.48.34.06.52.27.52.61,0,.19-.07.35-.22.48s-.32.18-.51.14c-1.16-.2-2.09-.56-2.8-1.08-.88-.64-1.32-1.49-1.32-2.54,0-.85.29-1.63.88-2.35.23-.29.49-.55.77-.78.24-.2.36-.37.36-.52,0-.19-.2-.27-.61-.24-1.25.11-2.58.25-4,.42-.18.02-.33-.02-.46-.14s-.19-.27-.19-.44c0-.15.05-.28.15-.4.1-.11.23-.18.38-.19,1.45-.14,4.28-.36,8.48-.65.22-.02.39.03.53.14.14.11.2.25.2.43Z"/>
      <path class="cls-1" d="M155.14,103.21c0,.18-.06.34-.19.47-.13.13-.28.19-.47.19s-.34-.07-.48-.22c-1.52-1.59-3.06-2.96-4.61-4.12-.46-.34-.68-.67-.68-1s.26-.69.78-1.04c1.86-1.26,3.38-2.46,4.56-3.58.13-.12.27-.18.43-.18.18,0,.33.06.45.19s.19.27.19.45-.07.34-.2.46c-1.04.93-2.35,1.95-3.94,3.07-.35.25-.53.46-.53.65s.17.41.52.67c1.29.98,2.62,2.15,3.98,3.52.13.13.19.28.19.47Z"/>
      <path class="cls-1" d="M165.59,96.48c-.67.13-1.26.22-1.78.28-.33.04-.57.12-.71.25-.15.13-.26.35-.33.66-.48,2.1-1.04,3.92-1.67,5.46-.11.26-.31.4-.59.4-.18,0-.32-.06-.44-.19-.12-.12-.18-.27-.18-.44,0-.09.02-.17.05-.24.64-1.5,1.2-3.2,1.67-5.11.02-.06.02-.12.02-.18,0-.28-.17-.42-.5-.41-.34,0-.64,0-.92,0-.16,0-.3-.07-.41-.19s-.17-.25-.17-.41.06-.31.19-.43c.12-.12.27-.18.44-.17.46.02.82.02,1.1.01.46-.02.71-.24.77-.66.02-.17.06-.43.12-.78.06-.35.26-.53.61-.53.17,0,.31.06.43.18.12.12.18.26.18.42,0,.08-.03.28-.1.6,0,.06-.01.11-.01.16,0,.32.18.45.53.4.05,0,.33-.06.84-.17.38-.07.65-.11.79-.11.17,0,.31.06.41.18.11.12.16.26.16.43,0,.33-.16.52-.49.59ZM169.38,102.79c0,.15-.05.28-.14.4-.1.11-.22.18-.36.19-.9.11-1.7.17-2.4.17-2.13,0-3.19-.6-3.19-1.79,0-.29.07-.6.2-.94.1-.24.28-.36.54-.36.38,0,.58.19.58.58,0,.06-.02.15-.05.27-.03.12-.05.21-.05.27,0,.54.69.82,2.06.82.54,0,1.25-.06,2.14-.18.18-.02.33.02.47.14.14.12.2.26.2.44ZM169.04,98.33c0,.17-.06.31-.19.43-.13.12-.28.18-.44.17-1.23-.09-2.51-.06-3.83.08-.17.02-.31-.03-.44-.15s-.19-.26-.19-.43c0-.15.05-.28.15-.39.1-.11.22-.17.37-.19,1.59-.14,2.92-.18,3.98-.14.16,0,.3.07.41.19s.17.26.17.42ZM168.47,96.23c0,.13-.05.24-.14.33s-.2.14-.33.14c-.19,0-.33-.07-.42-.22-.23-.37-.48-.68-.74-.95-.09-.09-.13-.2-.13-.32,0-.32.16-.48.47-.48.14,0,.26.06.36.18.34.38.62.73.84,1.06.06.1.1.18.1.26ZM169.93,95.55c0,.13-.05.24-.14.33s-.2.14-.33.14c-.18,0-.32-.07-.42-.22-.26-.39-.51-.72-.74-.97-.09-.1-.13-.2-.13-.3,0-.32.16-.48.48-.48.12,0,.24.06.35.17.28.28.56.64.85,1.07.06.11.08.2.08.26Z"/>
      <path class="cls-1" d="M180.83,95.46c0,.23-.11.4-.34.52-.5.24-1.08.46-1.75.67-.26.08-.38.21-.38.38,0,.1.04.21.13.32.58.78,1.17,1.46,1.76,2.06.17.17.25.36.25.56,0,.18-.07.34-.2.47-.13.13-.3.19-.5.19-.13,0-.26-.03-.4-.08-.97-.43-1.96-.65-2.96-.65-.74,0-1.31.11-1.72.34-.41.22-.61.53-.61.92,0,.9.98,1.36,2.93,1.36.72,0,1.5-.06,2.33-.17.17-.02.32.02.45.14.13.12.2.26.2.44,0,.14-.05.27-.15.38-.1.11-.22.17-.35.19-.78.1-1.55.16-2.33.16-2.86,0-4.3-.8-4.3-2.4,0-.87.38-1.51,1.14-1.91.58-.31,1.36-.47,2.32-.47.39,0,.82.05,1.3.16.07.02.12.02.13.02.07.02.14.02.2.02.17,0,.25-.06.25-.18,0-.1-.05-.2-.14-.32-.3-.37-.53-.65-.67-.85-.26-.35-.58-.53-.95-.53-.09,0-.19,0-.31.02-1.01.15-2.09.23-3.25.23-.16,0-.3-.06-.41-.17s-.17-.25-.17-.41.06-.3.17-.41c.11-.11.25-.17.41-.17.94,0,1.82-.06,2.64-.16.28-.03.42-.15.42-.36,0-.1-.04-.21-.11-.32l-.41-.67c-.06-.1-.08-.2-.08-.3,0-.16.06-.3.17-.41.12-.12.25-.17.41-.17.24,0,.42.1.53.31.27.53.44.84.52.94.26.37.53.55.82.55.1,0,.21-.02.32-.05.62-.18,1.24-.42,1.86-.72.08-.04.16-.06.25-.06.16,0,.3.06.41.17.11.12.17.25.17.41Z"/>
      <path class="cls-1" d="M187.94,98.27c-.42.71-.76,1.4-1.04,2.08-.12.29-.32.43-.61.43-.4,0-.63-.21-.7-.62-.07-.47-.11-1.18-.11-2.12s.14-2.08.41-3.37c.08-.39.29-.59.62-.59.17,0,.31.06.42.17.11.12.17.26.17.43,0,.05,0,.1-.01.14-.29,1.32-.44,2.32-.46,2.99,0,.26.05.4.18.4.1,0,.22-.1.34-.29l.06-.1c.08-.13.2-.19.36-.19.29,0,.43.14.43.43,0,.08-.02.15-.06.22ZM192.07,98.33c0,1.35-.24,2.46-.73,3.32-.51.9-1.35,1.65-2.52,2.27-.09.05-.18.07-.29.07-.17,0-.31-.07-.43-.2-.12-.13-.18-.28-.18-.45,0-.22.11-.4.34-.52.98-.51,1.66-1.13,2.05-1.85.37-.66.55-1.56.55-2.7,0-1.03-.11-2.24-.32-3.64-.03-.18.02-.35.14-.5s.28-.22.47-.22c.15,0,.29.05.4.16.12.1.19.23.21.38.21,1.5.31,2.78.31,3.86Z"/>
      <path class="cls-1" d="M205.79,100.36c0,1.02-.36,1.84-1.08,2.45-.62.54-1.47.88-2.54,1.02-.17.02-.32-.02-.45-.14-.13-.12-.2-.26-.2-.43,0-.33.16-.52.48-.58,1.71-.3,2.57-1.09,2.57-2.38,0-.89-.36-1.51-1.09-1.87-.1-.05-.19-.07-.28-.07-.21,0-.38.13-.5.4-.52,1.09-1.12,2.04-1.79,2.84-1.03,1.23-2.06,1.85-3.08,1.85-.53,0-.94-.15-1.23-.45-.29-.3-.44-.71-.44-1.23,0-.91.27-1.74.8-2.48.41-.57.92-1.03,1.52-1.39.36-.22.55-.52.58-.9v-.23c.03-.37-.14-.55-.5-.55-.45,0-.96,0-1.52-.01-.15,0-.28-.06-.39-.17-.11-.11-.16-.24-.16-.4s.06-.28.17-.4c.12-.11.25-.16.41-.16.74.03,1.28.04,1.64.04.33,0,.52-.18.56-.52l.07-.52c.05-.35.24-.53.56-.53.17,0,.32.07.44.22s.18.29.16.44l-.04.23c-.03.19,0,.34.08.44s.23.15.42.13c.82-.06,1.75-.17,2.78-.32.17-.02.32.02.45.13.13.11.2.26.2.43,0,.33-.17.51-.5.55-1.26.15-2.28.25-3.08.3-.38.02-.58.2-.6.52-.02.19.03.33.13.41.1.08.25.11.44.09.31-.04.58-.06.8-.06,1.22,0,2.2.23,2.92.7.86.56,1.28,1.42,1.28,2.58ZM198.6,102.11c.36-.19.52-.57.48-1.14,0-.36-.02-.72-.02-1.07-.03-.56-.14-.84-.31-.84-.11,0-.24.06-.38.19-.31.27-.56.62-.76,1.03-.21.44-.31.88-.31,1.32,0,.47.2.71.59.71.22,0,.46-.07.72-.2ZM201.61,98.57c.04-.08.06-.15.06-.22,0-.2-.12-.29-.37-.28-.37.02-.64.09-.82.19-.25.14-.38.38-.38.72,0,.3,0,.65.01,1.03,0,.24.09.36.25.36.11,0,.22-.07.31-.2.36-.5.67-1.04.94-1.61Z"/>
      <path class="cls-1" d="M212.18,98.27c-.42.71-.76,1.4-1.04,2.08-.12.29-.32.43-.61.43-.4,0-.63-.21-.7-.62-.07-.47-.11-1.18-.11-2.12s.14-2.08.41-3.37c.08-.39.29-.59.62-.59.17,0,.31.06.42.17.11.12.17.26.17.43,0,.05,0,.1-.01.14-.29,1.32-.44,2.32-.46,2.99,0,.26.05.4.18.4.1,0,.22-.1.34-.29l.06-.1c.08-.13.2-.19.36-.19.29,0,.43.14.43.43,0,.08-.02.15-.06.22ZM216.31,98.33c0,1.35-.24,2.46-.73,3.32-.51.9-1.35,1.65-2.52,2.27-.09.05-.18.07-.29.07-.17,0-.31-.07-.43-.2-.12-.13-.18-.28-.18-.45,0-.22.11-.4.34-.52.98-.51,1.66-1.13,2.05-1.85.37-.66.55-1.56.55-2.7,0-1.03-.11-2.24-.32-3.64-.03-.18.02-.35.14-.5s.28-.22.47-.22c.15,0,.29.05.4.16.12.1.19.23.21.38.21,1.5.31,2.78.31,3.86Z"/>
      <path class="cls-1" d="M227.1,98.14c0,1.3-.21,2.71-.64,4.22-.13.46-.27.78-.42.97-.22.29-.52.43-.9.43-.44,0-.99-.12-1.66-.35-.27-.1-.41-.28-.41-.54,0-.16.06-.29.17-.41.12-.11.25-.17.4-.17.06,0,.12,0,.17.02.42.14.7.2.86.2.19,0,.33-.06.41-.17.06-.08.14-.26.22-.54.38-1.29.56-2.46.56-3.5,0-.38-.08-.64-.23-.77-.15-.13-.44-.19-.86-.19h-.17c-.07,0-.13.01-.18.01-.4,0-.66.21-.78.62-.54,1.82-1.25,3.57-2.14,5.27-.12.23-.31.35-.56.35-.18,0-.32-.06-.44-.19-.12-.12-.18-.27-.18-.45,0-.13.02-.24.07-.32.75-1.32,1.42-2.81,1.99-4.48.02-.08.04-.15.04-.22,0-.29-.17-.41-.52-.36-.25.04-.64.1-1.16.17-.17.02-.32-.02-.46-.14-.14-.12-.21-.26-.21-.44,0-.34.18-.53.53-.58.35-.05.91-.12,1.67-.21.38-.03.64-.27.78-.72.07-.39.14-.78.2-1.18.06-.34.26-.52.6-.52.19,0,.35.07.46.21.12.14.16.31.13.5,0,.04-.04.22-.11.53-.06.22-.08.39-.08.52,0,.34.19.49.56.47h.18c.61-.05,1.1.06,1.48.31.42.29.62.83.62,1.62ZM228.71,95.51c0,.13-.05.24-.14.33-.09.09-.2.14-.33.14-.19,0-.33-.07-.42-.22-.23-.37-.48-.68-.74-.95-.09-.09-.13-.2-.13-.32,0-.32.16-.48.47-.48.14,0,.26.06.36.18.34.38.62.73.84,1.06.06.1.1.18.1.26ZM229.48,99.71c-.34-.87-.79-1.72-1.36-2.56-.06-.1-.1-.2-.1-.32,0-.17.06-.31.19-.43s.27-.17.44-.17c.2,0,.36.09.49.26.63.89,1.14,1.81,1.54,2.76.03.08.05.16.05.24,0,.17-.07.32-.21.44s-.3.19-.47.19c-.26,0-.45-.14-.56-.42ZM230.17,94.83c0,.13-.05.24-.14.33-.09.09-.2.14-.33.14-.18,0-.32-.07-.42-.22-.26-.39-.51-.72-.74-.97-.09-.1-.13-.2-.13-.3,0-.32.16-.48.48-.48.12,0,.24.06.35.17.28.28.56.64.85,1.07.06.11.08.2.08.26Z"/>
      <path class="cls-1" d="M241.42,102.63c0,.34-.17.54-.52.59-1.32.18-2.64.28-3.96.28-2.35,0-3.53-.71-3.53-2.12,0-.86.6-1.76,1.81-2.69.24-.18.36-.4.36-.64,0-.11-.02-.23-.07-.36-.35-.89-.64-1.84-.88-2.87,0-.04-.01-.08-.01-.13,0-.18.06-.33.19-.45s.27-.19.45-.19c.15,0,.29.05.4.16.12.1.19.23.22.38.15.8.37,1.6.66,2.41.1.26.25.4.46.4.11,0,.23-.04.35-.11.07-.04.96-.52,2.65-1.45.1-.06.2-.08.29-.08.17,0,.31.06.43.18.12.12.17.26.17.43,0,.25-.11.43-.34.54-.98.49-2.05,1.06-3.19,1.73-.73.42-1.31.82-1.74,1.19-.62.54-.94,1.02-.94,1.46,0,.72.75,1.08,2.26,1.08,1.24,0,2.5-.11,3.78-.32.18-.03.34.01.48.13.14.12.22.27.22.46Z"/>
      <path class="cls-1" d="M37.38,114.22c0,1.23-.52,2.28-1.56,3.13-.83.7-1.92,1.22-3.26,1.57-.06.02-.11.02-.14.02-.16,0-.3-.06-.41-.17-.12-.12-.17-.26-.17-.43,0-.3.14-.48.42-.56,1.03-.3,1.88-.7,2.53-1.2.88-.66,1.32-1.44,1.32-2.33,0-1.07-.54-1.61-1.62-1.61s-2.47.28-4.09.85c-.07.02-.14.04-.19.04-.16,0-.3-.06-.42-.18-.12-.12-.18-.26-.18-.43,0-.3.14-.49.43-.58,1.88-.57,3.38-.85,4.51-.85.9,0,1.59.23,2.08.68.51.48.77,1.16.77,2.04ZM35.99,110.02c0,.18-.06.32-.19.44-.13.12-.28.17-.44.15-1.62-.14-2.9-.34-3.84-.6-.3-.08-.44-.27-.44-.58,0-.17.06-.31.17-.43.12-.12.26-.17.43-.17.05,0,.1,0,.16.02,1.06.29,2.27.48,3.61.58.15,0,.28.07.39.19.11.12.16.25.16.4Z"/>
      <path class="cls-1" d="M49.75,117.31c0,.34-.16.54-.49.6-1.26.23-2.48.35-3.66.35s-2.01-.09-2.66-.28c-1.07-.3-1.61-.88-1.61-1.74,0-.58.38-1.26,1.14-2.02.1-.1.24-.16.4-.16.15,0,.28.05.4.16.11.11.17.24.17.39s-.05.27-.16.37c-.43.43-.65.8-.65,1.12,0,.66,1.02,1,3.05,1,.8,0,1.93-.12,3.38-.37.18-.03.34,0,.48.13s.22.27.22.45ZM48.44,111.11c-.6.24-1.42.68-2.45,1.33-.1.06-.2.1-.28.1-.14,0-.25-.05-.35-.15-.1-.1-.15-.22-.15-.37,0-.18.08-.32.24-.42l.16-.1c.15-.09.23-.18.23-.26,0-.1-.12-.16-.35-.16-.72,0-1.7-.02-2.95-.07-.15,0-.28-.07-.39-.18-.11-.11-.16-.24-.16-.4,0-.17.06-.31.19-.43s.27-.17.44-.16c1.58.11,3.43.12,5.57.04.23,0,.42.05.56.17s.21.26.21.43c0,.28-.17.49-.5.62ZM49.77,113.44c0,.13-.05.24-.14.33-.09.09-.2.14-.33.14-.19,0-.33-.07-.42-.22-.23-.37-.48-.68-.74-.95-.09-.09-.13-.2-.13-.32,0-.32.16-.48.47-.48.14,0,.26.06.36.18.34.38.62.73.84,1.06.06.1.1.18.1.26ZM51.24,112.75c0,.13-.05.24-.14.33-.09.09-.2.14-.33.14-.18,0-.32-.07-.42-.22-.26-.39-.51-.72-.74-.97-.09-.1-.13-.2-.13-.3,0-.32.16-.48.48-.48.12,0,.24.06.35.17.28.28.56.64.85,1.07.06.11.08.2.08.26Z"/>
      <path class="cls-1" d="M61.4,110.73c0,.24-.11.41-.34.52,0,0-.47.18-1.38.53-.26.1-.38.23-.38.4,0,.1.04.2.13.31.57.77,1.16,1.46,1.76,2.06.17.17.25.36.25.56,0,.18-.07.34-.2.47-.13.13-.3.19-.5.19-.13,0-.26-.03-.4-.08-.97-.43-1.96-.65-2.96-.65-.74,0-1.31.11-1.72.34-.41.22-.61.53-.61.92,0,.9.98,1.36,2.93,1.36.78,0,1.55-.06,2.33-.17.17-.02.32.02.45.14.13.12.2.26.2.44,0,.14-.05.27-.15.38-.1.11-.22.17-.35.19-.78.1-1.55.16-2.33.16-2.86,0-4.3-.8-4.3-2.4,0-.87.38-1.51,1.14-1.91.58-.31,1.36-.47,2.32-.47.44,0,.87.05,1.3.16.14.03.25.05.34.05.17,0,.25-.06.25-.18,0-.1-.05-.2-.14-.32-.3-.37-.53-.65-.67-.85-.26-.36-.58-.54-.94-.54-.1,0-.2.01-.32.04-.91.15-2,.23-3.25.23-.16,0-.3-.06-.41-.17-.11-.11-.17-.25-.17-.41s.06-.3.17-.41c.11-.11.25-.17.41-.17.86,0,1.74-.05,2.64-.16.28-.03.42-.15.42-.36,0-.1-.04-.21-.11-.32l-.41-.67c-.06-.1-.08-.2-.08-.3,0-.16.06-.3.17-.41.12-.12.25-.17.41-.17.24,0,.42.1.53.31.27.53.44.84.52.94.26.37.53.55.82.55.1,0,.2-.02.32-.05.5-.15.99-.34,1.49-.58.08-.04.16-.06.25-.06.16,0,.3.06.41.17.11.12.17.25.17.41ZM62.31,110.04c0,.12-.04.22-.13.31s-.19.13-.32.13c-.17,0-.37-.15-.6-.44-.17-.22-.34-.45-.5-.67-.09-.09-.13-.19-.13-.3,0-.3.15-.46.46-.46.12,0,.23.06.34.17.33.37.6.7.8,1.01.06.08.08.16.08.25ZM63.72,109.38c0,.12-.05.22-.14.31s-.2.13-.32.13c-.18,0-.31-.07-.4-.2-.26-.38-.49-.68-.71-.92-.08-.09-.12-.18-.12-.29,0-.3.15-.46.46-.46.1,0,.21.06.32.17.29.29.56.62.82,1.01.06.11.08.2.08.25Z"/>
      <path class="cls-1" d="M69.75,116.2c-.7,1.38-1.38,2.08-2.03,2.08-.8,0-1.42-.71-1.86-2.14-.34-1.1-.52-2.36-.52-3.76,0-.72.02-1.34.07-1.86.02-.17.08-.31.2-.42.12-.11.26-.17.43-.17.18,0,.34.07.46.21s.18.3.16.49c-.06.54-.08,1.16-.08,1.86,0,.92.1,1.83.3,2.74.22,1,.52,1.5.89,1.5.26,0,.56-.36.9-1.08.1-.22.28-.32.54-.32.17,0,.31.06.43.17.12.12.17.26.17.43,0,.1-.02.2-.06.28ZM74.95,115.83c.02.19-.03.36-.16.52-.13.15-.29.23-.49.23-.17,0-.32-.06-.44-.17-.13-.11-.2-.25-.22-.41-.2-1.82-.79-3.43-1.76-4.85-.07-.1-.11-.22-.11-.35,0-.18.06-.32.18-.44s.27-.18.44-.18c.22,0,.39.09.52.26,1.1,1.54,1.78,3.33,2.04,5.39Z"/>
      <path class="cls-1" d="M86.59,117.3c0,.17-.06.31-.17.43-.12.12-.26.17-.43.17-.11,0-.22-.03-.31-.08-.8-.47-1.51-.83-2.14-1.07-.08-.03-.15-.05-.22-.05-.23,0-.37.16-.41.48-.06.48-.22.84-.48,1.07-.4.36-1.12.54-2.15.54-.66,0-1.2-.12-1.63-.37-.53-.31-.79-.78-.79-1.39,0-.7.33-1.2,1-1.52.5-.24,1.14-.36,1.92-.36.09,0,.22,0,.41.01.42.02.62-.16.62-.53v-.34c0-.4-.2-.6-.61-.59-.85.02-1.66.03-2.45.02-.14,0-.27-.05-.37-.16s-.15-.23-.15-.38.05-.27.16-.37c.11-.1.23-.15.38-.15.78.02,1.6.02,2.44,0,.39,0,.59-.21.59-.61v-.05c0-.41-.21-.6-.62-.59-.97.04-1.88.05-2.75.02-.14,0-.27-.07-.37-.17s-.16-.23-.16-.38c0-.15.06-.28.17-.38.11-.1.24-.15.4-.14.9.02,1.81.02,2.74,0,.39,0,.59-.2.59-.58,0-.03,0-.21-.01-.54,0-.16.06-.3.17-.41.11-.12.25-.17.41-.17s.3.06.41.17c.11.12.17.25.17.41v.41c0,.42.21.62.62.58.62-.06,1.29-.15,2.02-.25.16-.02.3.02.43.13.12.11.19.24.19.4,0,.3-.16.48-.47.52-.86.11-1.6.2-2.2.25-.38.04-.58.25-.58.62v.04c0,.42.21.62.62.58.42-.04,1.01-.12,1.76-.23.16-.02.3.02.43.13.13.11.19.24.19.4,0,.31-.15.49-.46.53-.64.09-1.3.16-1.98.23-.38.03-.58.24-.58.62v.54c0,.44.22.73.66.88.82.26,1.71.65,2.68,1.16.21.11.31.29.31.53ZM81.78,116.83c.06-.4-.1-.62-.48-.65-.18-.02-.35-.02-.52-.02-1.15,0-1.73.28-1.73.83,0,.22.11.4.33.54.22.14.51.2.87.2.54,0,.91-.06,1.13-.19s.35-.36.4-.71Z"/>
      <path class="cls-1" d="M98.65,115.51c0,.11-.03.22-.1.32-.54.89-1.2,1.6-1.96,2.12-.86.58-1.76.88-2.72.88-2.1,0-3.16-.95-3.16-2.86,0-.78.02-1.8.05-3.06.02-1.02.04-2.14.06-3.34,0-.17.06-.31.19-.44s.28-.19.44-.19.33.06.46.19.19.28.18.46l-.14,6.11c0,1.26.66,1.88,1.99,1.88.71,0,1.4-.25,2.05-.76.56-.42,1.05-.97,1.48-1.67.12-.2.3-.3.54-.3.18,0,.33.06.45.19s.19.27.19.45Z"/>
      <path class="cls-1" d="M107.37,111.48c-.58.11-1.18.2-1.78.28-.33.04-.57.12-.71.25-.15.13-.26.35-.33.66-.45,1.9-1,3.72-1.67,5.46-.1.26-.3.4-.59.4-.18,0-.32-.06-.44-.19-.12-.12-.18-.27-.18-.44,0-.08.02-.16.05-.24.68-1.61,1.24-3.31,1.67-5.11.02-.06.02-.12.02-.18,0-.28-.17-.42-.5-.41-.34,0-.64,0-.92,0-.16,0-.3-.07-.41-.19-.12-.12-.17-.25-.17-.41s.06-.31.19-.43.27-.18.44-.17c.46.02.82.02,1.1.01.45-.02.7-.24.77-.66.02-.18.06-.44.12-.79.06-.35.26-.52.61-.52.17,0,.31.06.43.18s.18.26.18.42c0,.08-.03.28-.1.6,0,.06-.01.11-.01.16,0,.32.18.45.53.4.05,0,.33-.06.84-.17.38-.07.65-.11.79-.11.17,0,.31.06.41.18.11.12.16.26.16.43,0,.33-.16.52-.49.59ZM111.17,117.79c0,.34-.17.54-.5.59-.76.11-1.56.17-2.4.17-2.13,0-3.19-.6-3.19-1.79,0-.27.07-.58.2-.94.1-.24.28-.36.54-.36.38,0,.56.19.56.58,0,.06-.01.15-.04.27-.02.12-.04.21-.04.27,0,.54.68.82,2.05.82.6,0,1.31-.06,2.14-.18.18-.02.33.02.47.14.14.12.2.26.2.44ZM110.83,113.33c0,.17-.06.31-.19.43s-.28.18-.44.17c-1.19-.06-2.47-.04-3.83.08-.17.02-.31-.03-.44-.15s-.19-.26-.19-.43c0-.15.05-.28.15-.39.1-.11.22-.17.37-.19,1.35-.14,2.68-.18,3.98-.14.16,0,.3.07.41.19.12.12.17.26.17.42Z"/>
      <path class="cls-1" d="M116.42,117.54c0,.49-.17.9-.52,1.24-.34.34-.76.51-1.25.51s-.9-.17-1.24-.51c-.34-.34-.51-.75-.51-1.24s.17-.9.51-1.25c.34-.34.75-.52,1.24-.52s.9.17,1.25.52c.34.34.52.76.52,1.25ZM115.57,117.54c0-.26-.09-.47-.26-.65s-.39-.26-.65-.26-.46.09-.64.27c-.18.18-.26.39-.26.64s.09.46.26.63c.18.17.39.26.64.26s.47-.08.65-.25.26-.38.26-.64Z"/>
      <path class="cls-1" d="M135.81,113.64c0,.14-.05.27-.16.37-.1.1-.23.15-.37.15h-2.54c-.36,0-.54.18-.54.54v2.65c0,.31.09.48.26.52.04,0,.13.01.28.01h.76c.45,0,.73-.11.84-.32.06-.13.11-.46.13-1,0-.14.06-.27.17-.37s.23-.16.38-.16.28.06.4.17c.11.11.16.24.16.4-.02.96-.17,1.59-.43,1.89-.26.3-.79.45-1.6.45h-1.28c-.48,0-.8-.08-.96-.23s-.24-.47-.24-.95v-3.05c0-.36-.18-.54-.54-.54h-.46c-.34,0-.53.18-.55.53-.14,2.01-1.11,3.46-2.93,4.36-.08.04-.17.06-.28.06-.15,0-.29-.06-.41-.17-.12-.11-.18-.25-.18-.41,0-.25.11-.42.32-.53.76-.38,1.32-.82,1.69-1.33.37-.51.58-1.16.65-1.96.03-.37-.14-.55-.53-.55h-2.14c-.14,0-.27-.05-.37-.15-.1-.1-.16-.22-.16-.37s.05-.27.16-.37.23-.16.37-.16h3.77c.36,0,.54-.18.54-.54v-.72c0-.36-.18-.54-.54-.54h-1.62c-.43,0-.78.16-1.03.49l-.3.38c-.1.13-.24.19-.42.19-.15,0-.28-.05-.38-.16-.1-.11-.16-.24-.16-.39,0-.14.05-.27.14-.37.6-.67,1.11-1.42,1.54-2.26.1-.19.26-.29.49-.29.16,0,.29.05.4.16.1.11.16.24.16.39,0,.07-.02.16-.07.26-.04.1-.07.18-.07.25,0,.2.14.3.43.3h.89c.36,0,.54-.18.54-.54v-.64c0-.15.05-.28.16-.39.11-.11.24-.16.39-.16s.28.05.39.16c.11.11.16.24.16.39v.64c0,.36.18.54.54.54h2.77c.14,0,.27.05.37.16.1.1.16.22.16.36,0,.14-.05.27-.16.37-.1.1-.23.16-.37.16h-2.77c-.36,0-.54.18-.54.54v.72c0,.36.18.54.54.54h3.61c.14,0,.27.05.37.16s.16.23.16.37Z"/>
      <path class="cls-1" d="M147.93,118.14c0,.15-.05.28-.16.39s-.24.16-.39.16h-9.53c-.15,0-.28-.05-.38-.16-.1-.11-.16-.24-.16-.39s.05-.28.16-.39c.11-.11.23-.16.38-.16h3.71c.36,0,.54-.18.54-.54v-1.42c0-.36-.18-.54-.54-.54h-2.51c-.14,0-.27-.05-.37-.15-.1-.1-.15-.22-.15-.37s.05-.27.15-.37c.1-.1.22-.15.37-.15h2.51c.36,0,.54-.18.54-.54v-1.09c0-.36-.18-.54-.54-.54h-1.64c-.47,0-.83.2-1.08.6-.1.17-.27.41-.49.73-.11.16-.26.24-.46.24-.15,0-.28-.06-.4-.17-.11-.11-.17-.24-.17-.4,0-.14.04-.25.11-.35.79-1.08,1.4-2.18,1.84-3.29.09-.22.26-.34.52-.34.16,0,.29.06.4.17.11.11.16.24.16.4,0,.09-.08.32-.25.7-.04.1-.06.19-.06.28,0,.24.16.36.47.36h1.06c.36,0,.54-.18.54-.54v-1.08c0-.16.06-.3.17-.41.12-.12.25-.17.41-.17s.3.06.41.17c.11.12.17.25.17.41v1.08c0,.36.18.54.54.54h3.13c.15,0,.28.05.38.16.1.1.16.23.16.37,0,.15-.05.28-.16.38s-.23.16-.38.16h-3.13c-.36,0-.54.18-.54.54v1.09c0,.36.18.54.54.54h2.47c.14,0,.27.05.37.15.1.1.15.22.15.37s-.05.27-.15.37-.22.15-.37.15h-2.47c-.36,0-.54.18-.54.54v1.42c0,.36.18.54.54.54h3.58c.15,0,.28.05.39.16.11.11.16.24.16.39Z"/>
      <path class="cls-1" d="M159.6,113.92c0,2.44-1.24,3.93-3.71,4.48-.02,0-.07.01-.13.01-.16,0-.3-.06-.41-.17-.12-.11-.17-.25-.17-.42,0-.32.14-.52.43-.59,1.85-.46,2.77-1.58,2.77-3.34,0-.92-.25-1.66-.74-2.21-.18-.21-.41-.39-.68-.55-.31-.18-.59-.26-.84-.26-.34,0-.55.2-.62.6-.3,1.74-.66,3.15-1.08,4.21-.26.67-.52,1.18-.78,1.51-.41.52-.88.78-1.43.78-.73,0-1.31-.36-1.75-1.09-.38-.62-.58-1.32-.58-2.09,0-1.49.49-2.72,1.48-3.7.99-.98,2.23-1.46,3.71-1.46,1.4,0,2.5.36,3.29,1.08.83.75,1.25,1.82,1.25,3.2ZM154.26,111.51c0-.06.01-.11.01-.17,0-.3-.14-.44-.41-.44-.1,0-.2.02-.31.06-.74.26-1.34.73-1.8,1.43-.46.7-.7,1.5-.7,2.41,0,.5.12.93.35,1.31.23.38.49.57.78.57.34,0,.71-.48,1.1-1.45.33-.82.65-2.06.97-3.72Z"/>
      <path class="cls-1" d="M172.09,116.95c-.02.86-.14,1.41-.36,1.65s-.68.37-1.38.37h-1.67c-.52,0-.87-.07-1.04-.22-.17-.15-.26-.47-.26-.95v-2.26c0-.32-.16-.48-.48-.48h-.54c-.29,0-.45.15-.49.46-.22,1.71-1.27,2.91-3.17,3.59-.06.02-.12.04-.18.04-.15,0-.28-.05-.4-.16-.11-.11-.17-.24-.17-.4,0-.26.12-.43.35-.52.75-.27,1.31-.6,1.69-.98.37-.38.61-.88.73-1.49.06-.35-.08-.53-.44-.53h-.78c-.66,0-1-.33-1-.98v-1.09c0-.23-.13-.32-.38-.28-.17.03-.31,0-.41-.11s-.16-.24-.16-.4c0-.18.06-.32.19-.42,1.42-1.06,2.48-2.1,3.19-3.1.11-.15.25-.23.42-.23.28,0,.46.13.53.4.05.18.08.28.11.31.04.06.12.1.25.1h2.28c.26,0,.48.06.64.18s.24.28.24.47c0,.23-.14.49-.41.77-.28.28-.41.47-.41.57,0,.15.12.23.35.23h1.51c.66,0,.98.33.98,1v1.61c0,.66-.33.98-.98.98h-1.43c-.32,0-.48.16-.48.48v1.82c0,.27.03.44.1.5.07.06.23.09.49.09h.97c.38,0,.63-.06.74-.19.11-.12.18-.41.2-.86,0-.14.06-.27.16-.37.1-.1.22-.15.37-.15s.28.06.39.17c.11.11.16.24.15.4ZM166.32,113.64v-.74c0-.32-.16-.48-.48-.48h-1.76c-.32,0-.48.16-.48.48v.74c0,.32.16.48.48.48h1.76c.32,0,.48-.16.48-.48ZM167.7,110.7c.1-.1.16-.2.16-.28,0-.15-.15-.23-.46-.23h-1.8c-.4,0-.74.14-1.01.42-.36.38-.54.6-.54.66,0,.13.1.19.3.19h1.92c.35,0,.68-.12.98-.35.07-.06.22-.2.44-.42ZM170.3,113.64v-.74c0-.32-.16-.48-.48-.48h-1.96c-.32,0-.48.16-.48.48v.74c0,.32.16.48.48.48h1.96c.32,0,.48-.16.48-.48Z"/>
      <path class="cls-1" d="M184.1,110.13c0,.14-.05.25-.14.35-.1.1-.21.14-.35.14h-6.64c-.34,0-.5.17-.5.52v2.78c0,.96-.09,1.8-.26,2.51-.2.8-.54,1.57-1.01,2.32-.12.19-.29.29-.52.29-.17,0-.31-.06-.43-.17s-.17-.25-.17-.42c0-.13.03-.24.1-.34.59-.87.97-1.77,1.14-2.7.02-.09.02-.15.02-.19,0-.16-.05-.24-.16-.24-.09,0-.25.09-.48.28-.12.1-.24.21-.37.31-.16.13-.3.19-.41.19-.15,0-.28-.05-.38-.16s-.16-.23-.16-.38c0-.18.08-.33.25-.44.7-.47,1.08-.74,1.16-.82.43-.38.65-.76.65-1.16v-2.12c0-.68.34-1.02,1.02-1.02h1.94c.32,0,.48-.16.48-.48v-.12c0-.16.06-.3.17-.41s.25-.17.41-.17.3.06.41.17.17.25.17.41v.12c0,.32.16.48.48.48h3.08c.14,0,.25.05.35.14s.14.21.14.34ZM175.1,112.56c0,.14-.05.25-.14.34s-.21.14-.35.14c-.23,0-.38-.12-.46-.35-.17-.57-.33-1.04-.48-1.42-.02-.06-.04-.12-.04-.17,0-.14.05-.25.14-.34.09-.09.21-.14.34-.14.22,0,.37.1.46.31.21.5.38,1,.5,1.49.02.06.02.11.02.13ZM184.23,118.56c0,.37-.17.55-.52.55-.06,0-.1,0-.12-.01-1.1-.23-2.05-.54-2.84-.91-.17-.08-.33-.12-.49-.12s-.32.04-.49.12c-.75.36-1.61.66-2.57.91-.03,0-.08.01-.13.01-.15,0-.28-.05-.38-.15-.1-.1-.16-.23-.16-.38,0-.29.14-.46.42-.53.66-.15,1.29-.34,1.87-.55.17-.06.25-.16.25-.29,0-.1-.05-.2-.16-.3-.22-.26-.45-.52-.67-.78-.31-.34-.58-.52-.79-.52-.12,0-.23-.04-.32-.13s-.14-.19-.14-.31.05-.23.14-.32.2-.14.32-.14h4.86c.51,0,.77.2.77.6s-.45.94-1.36,1.64c-.14.11-.22.22-.22.32,0,.1.06.17.19.22.63.23,1.33.41,2.09.54.3.05.44.22.44.52ZM184.27,112.74c-.06.54-.16.9-.3,1.08-.18.25-.52.37-1,.37h-1.19c-.31,0-.54-.06-.68-.17-.14-.11-.21-.32-.21-.62v-.78c0-.29-.14-.43-.42-.43h-.96c-.25,0-.4.14-.44.41-.17.88-.78,1.54-1.82,1.97-.08.03-.16.05-.23.05-.32,0-.48-.16-.48-.48,0-.2.1-.35.31-.44.42-.19.72-.4.92-.64.2-.23.32-.56.38-.98.08-.57.38-.85.9-.85h1.99c.58,0,.86.29.86.86v.83c0,.23.12.35.35.35h.5c.27,0,.44-.22.5-.65.02-.12.07-.22.17-.31.1-.09.21-.13.33-.13.15,0,.28.06.38.17.1.12.14.25.13.4ZM181.57,115.78c0-.1-.08-.16-.24-.16h-1.76c-.21,0-.31.08-.31.23,0,.07.03.14.1.22.38.44.69.66.95.66.14,0,.28-.05.43-.16.56-.39.84-.66.84-.79Z"/>
      <path class="cls-1" d="M195.78,115.09c0,1.44-.21,2.42-.62,2.93s-1.18.77-2.31.77h-1.02c-.15,0-.28-.06-.39-.17-.11-.11-.16-.24-.16-.4,0-.14.05-.27.16-.38.11-.11.24-.16.39-.16h.91c.76,0,1.26-.18,1.49-.53.24-.36.35-1.11.35-2.25v-2.34c0-.29-.05-.48-.16-.59s-.3-.16-.59-.16h-2.29c-.38,0-.58.19-.62.58-.14,1.38-.44,2.54-.89,3.48-.58,1.22-1.5,2.22-2.76,3-.1.06-.22.1-.34.1-.17,0-.31-.06-.43-.18-.12-.12-.17-.26-.17-.43,0-.22.09-.38.26-.49,1.09-.69,1.88-1.55,2.39-2.58.36-.74.6-1.69.73-2.83.05-.42-.14-.64-.56-.64h-2.54c-.15,0-.28-.05-.4-.16-.11-.11-.17-.24-.17-.39s.06-.28.17-.39c.11-.11.24-.16.4-.16h2.63c.39,0,.59-.2.6-.6v-.86c.01-.17.07-.31.19-.43.12-.12.26-.18.43-.18s.31.06.43.18c.12.12.18.26.18.43,0,.31,0,.6-.01.85-.02.41.18.61.6.61h2.89c.82,0,1.22.41,1.22,1.22v3.14Z"/>
      <path class="cls-1" d="M207.76,113.05c0,.24-.11.41-.34.5-.54.22-1.04.45-1.51.68-.33.16-.53.33-.61.5-.06.13-.08.38-.08.77v.77c0,.16-.06.29-.17.4-.11.11-.25.16-.41.16s-.29-.05-.4-.16c-.11-.11-.16-.24-.16-.4v-.46c0-.28-.1-.42-.31-.42-.09,0-.18.03-.29.1-.97.6-1.45,1.12-1.45,1.55,0,.25.16.43.49.53.33.11.89.16,1.68.16.62,0,1.45-.07,2.48-.2.17-.02.31.02.44.13.12.11.19.25.19.42,0,.14-.05.27-.14.38-.1.11-.22.17-.36.19-.91.1-1.81.16-2.69.16s-1.61-.08-2.1-.23c-.82-.26-1.22-.75-1.22-1.45,0-.82.88-1.75,2.65-2.8.29-.17.43-.34.43-.5,0-.21-.17-.31-.5-.31-.46,0-1.05.22-1.76.66-.58.36-1.08.76-1.52,1.2l-.31.37c-.13.12-.27.18-.42.18-.16,0-.29-.05-.4-.16-.11-.11-.16-.24-.16-.4,0-.14.04-.27.13-.37.83-1,1.53-2,2.09-3,.06-.1.08-.19.08-.28,0-.21-.15-.31-.44-.3-.26,0-.65.01-1.16.01-.14,0-.27-.05-.37-.16-.1-.1-.15-.23-.15-.37s.05-.28.16-.38c.11-.1.23-.15.38-.14.5.02,1.04.02,1.64,0,.47,0,.79-.23.96-.66l.24-.62c.1-.25.28-.37.54-.37.16,0,.29.06.4.17.11.11.16.24.16.4,0,.07-.01.14-.04.2-.04.1-.06.16-.07.18-.03.09-.05.17-.05.24,0,.23.14.33.43.3.3-.03.88-.11,1.73-.24.16-.02.3.02.43.13.13.11.19.24.19.4,0,.32-.16.5-.48.54-.8.1-1.52.18-2.15.23-.35.03-.62.11-.8.22s-.35.32-.51.62c-.02.02-.06.09-.12.19-.09.15-.13.28-.13.37,0,.12.07.18.22.18.09,0,.2-.03.35-.08.42-.16.81-.24,1.16-.24.48,0,.85.16,1.1.48.18.22.34.32.5.32.09,0,.18-.02.29-.07l1.45-.71c.08-.04.16-.06.24-.06.15,0,.28.05.39.16.11.11.16.24.16.4Z"/>
      <path class="cls-1" d="M220.44,116.97c-.03.86-.15,1.41-.37,1.65s-.67.37-1.37.37h-1.51c-.5,0-.84-.08-1.02-.24s-.26-.47-.26-.94v-1.97c0-.36-.18-.54-.54-.54h-.42c-.31,0-.5.17-.56.5-.3,1.53-1.37,2.64-3.22,3.34-.06.02-.13.04-.2.04-.15,0-.28-.06-.4-.17s-.17-.25-.17-.41c0-.26.12-.44.37-.53,1.37-.48,2.16-1.21,2.38-2.2,0-.05.01-.1.01-.14,0-.29-.17-.43-.5-.43h-.25c-.68,0-1.02-.34-1.02-1.02v-4.39c0-.68.34-1.02,1.02-1.02h5.77c.68,0,1.02.34,1.02,1.02v4.39c0,.68-.34,1.02-1.02,1.02h-.61c-.36,0-.54.18-.54.54v1.54c0,.27.04.44.11.5.07.06.24.09.49.09h.8c.38,0,.62-.06.74-.19s.19-.42.21-.86c0-.14.06-.25.16-.35.1-.1.22-.15.37-.15s.28.06.39.17.16.24.15.4ZM218.07,110.33v-.04c0-.3-.17-.44-.52-.44h-4.55c-.34,0-.52.15-.52.44v.04c0,.28.14.42.42.42h4.74c.28,0,.42-.14.42-.42ZM218.07,112.11v-.05c0-.28-.14-.42-.42-.42h-4.74c-.28,0-.42.14-.42.42v.05c0,.28.14.42.42.42h4.74c.28,0,.42-.14.42-.42ZM218.07,113.89v-.06c0-.28-.14-.42-.42-.42h-4.74c-.28,0-.42.14-.42.42v.06c0,.28.17.42.52.42h4.55c.34,0,.52-.14.52-.42Z"/>
      <path class="cls-1" d="M231.62,117.84c0,.68-.34,1.02-1.02,1.02h-6.28c-.68,0-1.02-.34-1.02-1.02v-2.59c0-.68.34-1.02,1.02-1.02h1.66c.3,0,.52-.13.64-.4l.1-.22c-.18.1-.46.16-.86.16h-1.02c-.12,0-.22-.04-.31-.13s-.13-.19-.13-.31.04-.22.13-.31.19-.13.31-.13h.62c.26,0,.42-.04.48-.12.06-.08.1-.26.1-.53v-1.91c0-.34-.17-.5-.5-.5h-2.83c-.13,0-.24-.05-.32-.14-.09-.09-.13-.2-.13-.33s.04-.24.13-.32.2-.13.32-.13h3.38c.68,0,1.02.34,1.02,1.02v2.66c0,.34-.05.59-.16.77.1-.04.18-.06.26-.06.16,0,.29.05.4.16.1.11.16.24.16.39,0,.04-.01.08-.01.11,0,.17.11.25.32.25h2.53c.68,0,1.02.34,1.02,1.02v2.59ZM225.69,111.81c0,.19-.09.33-.26.41-.71.33-1.47.65-2.28.97-.06.02-.12.04-.18.04-.13,0-.24-.05-.34-.14-.1-.09-.14-.21-.14-.34,0-.24.11-.4.34-.47.82-.26,1.57-.56,2.26-.88.05-.02.11-.04.18-.04.12,0,.22.04.31.13.08.09.13.19.13.31ZM224.81,110.94c0,.13-.05.24-.14.34s-.21.14-.34.14c-.12,0-.22-.03-.29-.08-.17-.13-.43-.31-.79-.55-.15-.08-.23-.21-.23-.4,0-.12.05-.23.14-.32s.2-.14.33-.14c.07,0,.14.02.22.06.27.15.56.34.88.55.15.1.23.24.23.4ZM230.49,115.65v-.08c0-.3-.17-.44-.52-.44h-5.04c-.34,0-.5.15-.5.44v.08c0,.28.14.42.42.42h5.22c.28,0,.42-.14.42-.42ZM230.49,117.47v-.13c0-.28-.14-.42-.42-.42h-5.22c-.28,0-.42.14-.42.42v.13c0,.3.17.44.5.44h5.04c.34,0,.52-.15.52-.44ZM232.35,112.56c0,.47-.09.79-.26.96-.17.17-.5.25-.99.25h-1.07c-.12,0-.22-.04-.31-.13s-.13-.19-.13-.31.04-.22.13-.31.19-.13.31-.13h.67c.26,0,.42-.04.48-.11.06-.08.1-.25.1-.53v-1.91c0-.34-.17-.5-.5-.5h-2.81c-.13,0-.24-.05-.32-.14-.09-.09-.13-.2-.13-.33s.04-.24.13-.32.2-.13.32-.13h3.36c.68,0,1.02.34,1.02,1.02v2.62ZM230.93,111.77c0,.18-.08.32-.25.4-.73.34-1.49.67-2.29.97-.08.02-.13.02-.16.02-.13,0-.24-.04-.34-.13-.1-.09-.14-.2-.14-.34,0-.22.11-.36.32-.43.89-.3,1.64-.6,2.24-.89.05-.02.1-.04.17-.04.12,0,.22.04.31.13s.13.19.13.31ZM229.98,110.93c0,.32-.16.48-.48.48-.11,0-.2-.03-.28-.08-.22-.18-.49-.36-.8-.54-.15-.09-.23-.22-.23-.4,0-.13.04-.24.13-.32s.2-.13.32-.13c.1,0,.17.02.23.05.4.24.69.42.88.55.15.1.23.24.23.4Z"/>
      <path class="cls-1" d="M244.01,114.3c0,1.14-.53,2.04-1.6,2.69-.79.48-1.84.81-3.16.98-.17.02-.32-.02-.44-.14-.13-.12-.19-.26-.19-.43,0-.14.05-.26.14-.37.1-.11.21-.17.35-.19,2.46-.33,3.7-1.18,3.7-2.56,0-.97-.64-1.45-1.92-1.45-1.02,0-2.66.3-4.91.9-.06.02-.11.02-.16.02-.15,0-.29-.06-.41-.17s-.18-.25-.18-.41c0-.3.15-.49.46-.56.78-.19,1.53-.36,2.23-.49,1.28-.25,2.28-.37,3-.37.9,0,1.6.17,2.11.52.65.43.97,1.11.97,2.03Z"/>
      <path class="cls-1" d="M256.53,110.21c0,.32-.22.51-.65.58-1.21.18-2.28.68-3.22,1.49-.94.81-1.4,1.67-1.4,2.56,0,1.26,1.04,2.08,3.11,2.48.34.06.52.27.52.61,0,.19-.07.35-.22.48-.15.13-.32.18-.51.14-1.16-.2-2.09-.56-2.8-1.08-.88-.64-1.32-1.49-1.32-2.54,0-.85.29-1.63.88-2.35.23-.29.49-.55.77-.78.24-.2.36-.37.36-.52,0-.19-.2-.27-.61-.24-1.25.11-2.58.25-4,.42-.18.02-.33-.02-.46-.14s-.19-.27-.19-.44c0-.15.05-.28.15-.4s.23-.18.38-.19c1.45-.14,4.28-.36,8.48-.65.22-.02.39.03.53.14.14.11.2.25.2.43Z"/>
      <path class="cls-1" d="M46.52,131.86c0,.92-.46,1.38-1.38,1.38h-6.3c-.17,0-.31-.06-.43-.18-.12-.12-.17-.26-.17-.43s.06-.31.17-.43c.12-.12.26-.18.43-.18h5.62c.34,0,.57-.05.68-.16.11-.11.16-.33.16-.67v-1.01c0-.4-.2-.6-.6-.6h-5.2c-.17,0-.31-.06-.43-.17-.12-.12-.17-.26-.17-.43s.06-.31.17-.43c.12-.12.26-.17.43-.17h5.2c.4,0,.6-.2.6-.6v-.83c0-.34-.05-.56-.16-.67-.11-.11-.33-.16-.68-.16h-5.47c-.17,0-.31-.06-.43-.18-.12-.12-.17-.26-.17-.43s.06-.31.17-.43c.12-.12.26-.17.43-.17h6.16c.92,0,1.38.46,1.38,1.38v5.57Z"/>
      <path class="cls-1" d="M59.6,128.58c0,.18-.06.32-.17.44-.12.12-.26.18-.44.18h-8.84c-.18,0-.32-.06-.44-.18-.12-.12-.17-.27-.17-.44s.06-.32.17-.44c.12-.12.26-.18.44-.18h8.84c.18,0,.32.06.44.18.12.12.17.27.17.44Z"/>
      <path class="cls-1" d="M70.6,126.31c0,.14-.03.29-.08.47-.53,1.62-1.31,2.99-2.35,4.11-1.04,1.12-2.39,2.04-4.07,2.77-.07.03-.15.05-.24.05-.17,0-.31-.06-.44-.18-.12-.12-.19-.27-.19-.44,0-.27.13-.46.4-.58,2.65-1.09,4.44-2.78,5.38-5.08.07-.18.11-.34.11-.47,0-.29-.24-.44-.71-.44h-2.12c-.52,0-.96.21-1.33.64-.54.62-1.17,1.21-1.87,1.76-.11.09-.24.13-.38.13-.17,0-.31-.06-.43-.18s-.18-.26-.18-.43c0-.2.08-.36.25-.49,1.42-1.12,2.45-2.3,3.07-3.55.1-.22.29-.32.55-.32.17,0,.31.06.43.18.12.12.18.26.18.43,0,.04,0,.1-.02.19-.02.08-.02.15-.02.19,0,.2.12.3.36.3h2.53c.37,0,.66.09.87.26s.32.41.32.7ZM71.15,125.11c0,.12-.04.22-.13.31s-.19.13-.32.13c-.17,0-.37-.15-.6-.44-.17-.22-.34-.45-.5-.67-.09-.09-.13-.19-.13-.3,0-.3.15-.46.46-.46.12,0,.23.06.34.17.33.37.6.7.8,1.01.06.08.08.16.08.25ZM72.56,124.45c0,.12-.05.22-.14.31-.09.09-.2.13-.32.13-.18,0-.31-.07-.4-.2-.26-.38-.49-.68-.71-.92-.08-.09-.12-.18-.12-.29,0-.3.15-.46.46-.46.1,0,.21.06.32.17.29.29.56.62.82,1.01.06.11.08.2.08.25Z"/>
      <path class="cls-1" d="M77.03,126.66c0,1.48-.09,2.65-.26,3.5-.24,1.18-.72,2.28-1.43,3.28-.14.19-.32.29-.54.29-.18,0-.33-.06-.46-.19s-.19-.28-.19-.46c0-.15.04-.28.13-.4.63-.82,1.06-1.77,1.3-2.86.17-.79.25-1.86.25-3.2v-1.44c0-.17.06-.31.18-.43.12-.12.26-.18.43-.18s.3.06.41.18c.12.12.17.26.17.43v1.48ZM84.1,129.53c0,.12-.03.22-.08.31-.97,1.58-2.26,2.78-3.86,3.58-.24.12-.46.18-.67.18-.26,0-.47-.09-.63-.28-.16-.18-.23-.43-.23-.73v-7.45c0-.17.06-.31.18-.43s.26-.18.43-.18.3.06.42.18.18.26.18.43v6.19c0,.4.12.6.35.6.12,0,.27-.06.44-.17.75-.46,1.53-1.31,2.33-2.56.13-.2.31-.3.54-.3.17,0,.31.06.43.18.12.12.18.27.18.44Z"/>
      <path class="cls-1" d="M94.98,129.79c0,.18-.06.32-.18.44-.12.12-.27.18-.44.18-.1,0-.2-.02-.28-.06-1.27-.63-2.55-1.18-3.84-1.64-.1-.03-.18-.05-.25-.05-.3,0-.44.18-.44.54v4.18c0,.18-.06.33-.19.45s-.27.19-.44.19-.33-.06-.46-.19-.19-.27-.19-.45v-8.84c0-.18.06-.33.19-.45s.28-.19.46-.19.31.06.44.19.19.27.19.45v1.87c0,.55.26.92.78,1.1,1.63.58,3.06,1.16,4.3,1.72.24.11.36.3.36.56Z"/>
      <path class="cls-1" d="M107.6,128.05c0,.24-.11.41-.34.5-.54.22-1.04.45-1.51.68-.33.16-.53.33-.61.5-.06.13-.08.38-.08.77v.77c0,.16-.06.29-.17.4-.11.11-.25.16-.41.16s-.29-.05-.4-.16c-.11-.11-.16-.24-.16-.4v-.46c0-.28-.1-.42-.31-.42-.09,0-.18.03-.29.1-.97.6-1.45,1.12-1.45,1.55,0,.25.16.43.49.53.33.11.89.16,1.68.16.62,0,1.45-.07,2.48-.2.17-.02.31.02.44.13.12.11.19.25.19.42,0,.14-.05.27-.14.38-.1.11-.22.17-.36.19-.91.1-1.81.16-2.69.16s-1.61-.08-2.1-.23c-.82-.26-1.22-.75-1.22-1.45,0-.82.88-1.75,2.65-2.8.29-.17.43-.34.43-.5,0-.21-.17-.31-.5-.31-.46,0-1.05.22-1.76.66-.58.36-1.08.76-1.52,1.2l-.31.37c-.13.12-.27.18-.42.18-.16,0-.29-.05-.4-.16s-.16-.24-.16-.4c0-.14.04-.27.13-.37.83-1,1.53-2,2.09-3,.06-.1.08-.19.08-.28,0-.21-.15-.31-.44-.3-.26,0-.65.01-1.16.01-.14,0-.27-.05-.37-.16-.1-.1-.15-.23-.15-.37s.05-.28.16-.38c.11-.1.23-.15.38-.14.5.02,1.04.02,1.64,0,.47,0,.79-.23.96-.66l.24-.62c.1-.25.28-.37.54-.37.16,0,.29.06.4.17.11.11.16.24.16.4,0,.07-.01.14-.04.2-.04.1-.06.16-.07.18-.03.09-.05.17-.05.24,0,.23.14.33.43.3.3-.03.88-.11,1.73-.24.16-.02.3.02.43.13.13.11.19.24.19.4,0,.32-.16.5-.48.54-.8.1-1.52.18-2.15.23-.35.03-.62.11-.8.22-.18.12-.35.32-.51.62-.02.02-.06.09-.12.19-.09.15-.13.28-.13.37,0,.12.07.18.22.18.09,0,.2-.03.35-.08.42-.16.81-.24,1.16-.24.48,0,.85.16,1.1.48.18.22.34.32.5.32.09,0,.18-.02.29-.07l1.45-.71c.08-.04.16-.06.24-.06.15,0,.28.05.39.16s.16.24.16.4Z"/>
      <path class="cls-1" d="M115.03,131.2c-.7,1.38-1.38,2.08-2.03,2.08-.8,0-1.42-.71-1.86-2.14-.34-1.1-.52-2.36-.52-3.76,0-.72.02-1.34.07-1.86.02-.17.08-.31.2-.42.12-.11.26-.17.43-.17.18,0,.34.07.46.21s.18.3.16.49c-.06.54-.08,1.16-.08,1.86,0,.92.1,1.83.3,2.74.22,1,.52,1.5.89,1.5.26,0,.56-.36.9-1.08.1-.22.28-.32.54-.32.17,0,.31.06.43.17.12.12.17.26.17.43,0,.1-.02.2-.06.28ZM120.22,130.83c.02.19-.03.36-.16.52-.13.15-.29.23-.49.23-.17,0-.32-.06-.44-.17-.13-.11-.2-.25-.22-.41-.2-1.82-.79-3.43-1.76-4.85-.07-.1-.11-.22-.11-.35,0-.18.06-.32.18-.44s.27-.18.44-.18c.22,0,.39.09.52.26,1.1,1.54,1.78,3.33,2.04,5.39Z"/>
      <path class="cls-1" d="M131.72,129.3c0,1.14-.53,2.04-1.6,2.69-.79.48-1.84.81-3.16.98-.17.02-.32-.02-.44-.14-.13-.12-.19-.26-.19-.43,0-.14.05-.26.14-.37.1-.11.21-.17.35-.19,2.46-.33,3.7-1.18,3.7-2.56,0-.97-.64-1.45-1.92-1.45-1.02,0-2.66.3-4.91.9-.06.02-.11.02-.16.02-.15,0-.29-.06-.41-.17-.12-.12-.18-.25-.18-.41,0-.3.15-.49.46-.56.78-.19,1.53-.36,2.23-.49,1.28-.25,2.28-.37,3-.37.9,0,1.6.17,2.11.52.65.43.97,1.11.97,2.03Z"/>
      <path class="cls-1" d="M136.64,124.79c-.3,1.88-.46,3.66-.46,5.35,0,.92.05,1.9.16,2.94.02.18-.04.34-.16.48-.12.14-.27.2-.46.2-.16,0-.3-.06-.43-.17-.12-.11-.19-.24-.2-.4-.09-1.15-.13-2.16-.13-3.04,0-1.98.15-3.83.46-5.57.06-.34.26-.52.6-.52.18,0,.34.07.47.22.13.14.18.31.14.49ZM144.44,132.28c0,.17-.06.31-.17.42-.11.11-.25.17-.42.17-.14,0-.25-.04-.35-.11-.21-.15-.44-.3-.7-.46-.1-.06-.19-.08-.28-.08-.18,0-.32.13-.42.4-.27.77-1.02,1.15-2.23,1.15-.61,0-1.12-.13-1.54-.38-.5-.3-.74-.74-.74-1.31s.21-1.01.62-1.33c.42-.32.99-.47,1.72-.47.21,0,.42.02.62.05.19.03.34,0,.44-.08s.15-.22.15-.4l-.04-1.85c0-.41-.22-.6-.62-.58-.29.02-.99.02-2.1.02-.15,0-.28-.06-.39-.17s-.16-.24-.16-.4.06-.29.17-.4c.12-.11.25-.16.41-.15.7.02,1.39.02,2.09,0,.38-.02.57-.22.56-.62v-1.07c-.01-.16.04-.3.16-.41.11-.12.25-.17.41-.17s.3.06.41.17c.11.11.17.25.17.41v.9c.02.38.19.56.52.56.04,0,.09,0,.14-.01l.73-.13c.17-.03.32,0,.46.11.14.11.2.25.2.43,0,.29-.18.48-.54.59-.06.02-.36.06-.91.13-.38.05-.56.26-.55.64l.04,2.27c0,.46.22.78.64.98.5.24.9.47,1.22.68.18.12.28.29.28.5ZM141.05,132.06c.02-.07.04-.14.04-.2,0-.26-.16-.43-.48-.49-.25-.05-.48-.07-.71-.07-.8,0-1.2.24-1.2.72,0,.21.1.38.31.5.21.13.47.19.79.19.69,0,1.1-.22,1.25-.65ZM145.12,124.29c0,.35-.13.66-.38.91-.26.26-.56.38-.91.38s-.65-.13-.91-.38-.38-.56-.38-.92.12-.65.37-.9c.25-.25.55-.37.91-.37s.66.12.91.37c.26.25.38.55.38.9ZM144.45,124.29c0-.17-.06-.31-.18-.43s-.27-.17-.44-.17-.32.06-.44.17c-.12.12-.17.26-.17.43,0,.18.06.32.18.44s.26.18.43.18.31-.06.44-.19c.12-.12.19-.27.19-.44Z"/>
      <path class="cls-1" d="M151.38,131.2c-.7,1.38-1.38,2.08-2.03,2.08-.8,0-1.42-.71-1.86-2.14-.34-1.1-.52-2.36-.52-3.76,0-.72.02-1.34.07-1.86.02-.17.08-.31.2-.42s.26-.17.43-.17c.18,0,.34.07.46.21s.18.3.16.49c-.06.54-.08,1.16-.08,1.86,0,.92.1,1.83.3,2.74.22,1,.52,1.5.89,1.5.26,0,.56-.36.9-1.08.1-.22.28-.32.54-.32.17,0,.31.06.43.17.12.12.17.26.17.43,0,.1-.02.2-.06.28ZM156.58,130.83c.02.19-.03.36-.16.52-.13.15-.29.23-.49.23-.17,0-.32-.06-.44-.17s-.2-.25-.22-.41c-.2-1.82-.79-3.43-1.76-4.85-.07-.1-.11-.22-.11-.35,0-.18.06-.32.18-.44.12-.12.27-.18.44-.18.22,0,.39.09.52.26,1.1,1.54,1.78,3.33,2.04,5.39Z"/>
      <path class="cls-1" d="M169.1,127.13c0,.16-.05.29-.16.4-.11.1-.24.16-.39.16-.09,0-.17-.02-.25-.06-.19-.1-.43-.22-.72-.37-.06-.03-.12-.05-.17-.05-.13,0-.19.08-.19.25v2.24c0,.66-.33,1-.98,1h-1.74c-.25,0-.37.08-.37.25,0,.1.05.19.16.28.45.39.78.59,1,.59.16,0,.32-.06.48-.19.43-.34.89-.75,1.38-1.25.1-.1.22-.16.36-.16s.25.05.35.14c.1.1.14.21.14.35,0,.13-.05.24-.14.34-.31.31-.67.63-1.08.96-.14.11-.2.22-.2.34,0,.14.09.24.28.31.44.18.95.34,1.54.49.27.07.41.24.41.52,0,.15-.05.28-.16.38-.11.1-.23.16-.38.16-.04,0-.09,0-.14-.02-2.34-.64-4.1-1.67-5.29-3.08-.22-.26-.5-.4-.82-.4h-.23c-.32,0-.48.16-.48.48v1.1c0,.3.13.44.38.44.04,0,.08,0,.13-.01l1.43-.29c.15-.03.29,0,.42.1.13.1.19.23.19.39,0,.26-.13.42-.4.48-1.51.34-2.99.6-4.44.76-.15.02-.29-.03-.4-.13-.12-.1-.17-.23-.17-.38,0-.3.16-.48.48-.52.18-.02.42-.05.71-.08.38-.05.56-.26.56-.64v-4.96c0-.18-.06-.26-.19-.26-.05,0-.1.02-.17.05-.19.12-.45.26-.78.43-.08.04-.16.06-.24.06-.14,0-.27-.05-.38-.16-.11-.1-.16-.23-.16-.37,0-.23.1-.4.3-.49,1.43-.68,2.7-1.54,3.82-2.59.4-.38.82-.56,1.26-.56.39,0,.75.15,1.07.44,1.1,1,2.46,1.88,4.09,2.64.21.1.31.26.31.5ZM166.16,127.73h0c0-.28-.16-.42-.49-.42h-4.03c-.24,0-.36.14-.36.41h0c0,.29.14.43.42.43h4.04c.28,0,.42-.14.42-.42ZM166.16,129.42v-.02c0-.28-.14-.42-.42-.42h-4.04c-.28,0-.42.14-.42.42v.02c0,.28.14.42.42.42h3.97c.33,0,.49-.14.49-.42ZM165.68,126.1c-.66-.46-1.14-.83-1.43-1.09-.2-.18-.42-.28-.65-.28s-.46.1-.66.29c-.25.24-.7.6-1.36,1.08-.1.06-.14.13-.14.2,0,.1.09.16.26.16h.89c.32,0,.48-.16.48-.48v-.05c0-.15.05-.28.16-.4.11-.11.24-.17.39-.17s.28.06.39.17c.11.11.16.24.16.4v.05c0,.32.16.48.48.48h.92c.17,0,.25-.05.25-.14,0-.07-.05-.14-.16-.22Z"/>
      <path class="cls-1" d="M180.91,131.89c0,.18-.06.33-.19.46s-.28.19-.46.19c-.15,0-.29-.05-.41-.16-2.05-1.74-3.57-3.16-4.57-4.27-.35-.39-.62-.59-.82-.59s-.4.16-.64.47c-.87,1.15-1.56,1.98-2.05,2.47-.14.14-.3.2-.48.2s-.33-.06-.46-.19-.2-.28-.2-.46c0-.15.07-.3.2-.46,1.15-1.26,1.99-2.26,2.52-3.01.3-.42.64-.64,1.03-.64s.76.21,1.13.64c1.48,1.7,3.19,3.31,5.14,4.84.17.13.25.3.25.5ZM178.8,126.71c0,.13-.05.24-.14.33-.09.09-.2.14-.33.14-.19,0-.33-.07-.42-.22-.23-.37-.48-.68-.74-.95-.09-.09-.13-.2-.13-.32,0-.32.16-.48.47-.48.14,0,.26.06.36.18.34.38.62.73.84,1.06.06.1.1.18.1.26ZM180.27,126.03c0,.13-.05.24-.14.33s-.2.14-.33.14c-.18,0-.32-.07-.42-.22-.26-.39-.51-.72-.74-.97-.09-.1-.13-.2-.13-.3,0-.32.16-.48.48-.48.12,0,.24.06.35.17.28.28.56.64.85,1.07.06.11.08.2.08.26Z"/>
      <path class="cls-1" d="M192.46,132.3c0,.17-.06.31-.17.43-.12.12-.26.17-.43.17-.11,0-.22-.03-.31-.08-.8-.47-1.51-.83-2.14-1.07-.08-.03-.15-.05-.22-.05-.23,0-.37.16-.41.48-.06.48-.22.84-.48,1.07-.4.36-1.12.54-2.15.54-.66,0-1.2-.12-1.63-.37-.53-.31-.79-.78-.79-1.39,0-.7.33-1.2,1-1.52.5-.24,1.14-.36,1.92-.36.09,0,.22,0,.41.01.42.02.62-.16.62-.53v-.34c0-.4-.2-.6-.61-.59-.85.02-1.66.03-2.45.02-.14,0-.27-.05-.37-.16-.1-.11-.15-.23-.15-.38s.05-.27.16-.37c.11-.1.23-.15.38-.15.78.02,1.6.02,2.44,0,.39,0,.59-.21.59-.61v-.05c0-.41-.21-.6-.62-.59-.97.04-1.88.05-2.75.02-.14,0-.27-.07-.37-.17-.1-.11-.16-.23-.16-.38,0-.15.06-.28.17-.38.11-.1.24-.15.4-.14.9.02,1.81.02,2.74,0,.39,0,.59-.2.59-.58,0-.03,0-.21-.01-.54,0-.16.06-.3.17-.41.11-.12.25-.17.41-.17s.3.06.41.17c.11.12.17.25.17.41v.41c0,.42.21.62.62.58.62-.06,1.29-.15,2.02-.25.16-.02.3.02.43.13s.19.24.19.4c0,.3-.16.48-.47.52-.86.11-1.6.2-2.2.25-.38.04-.58.25-.58.62v.04c0,.42.21.62.62.58.42-.04,1.01-.12,1.76-.23.16-.02.3.02.43.13.13.11.19.24.19.4,0,.31-.15.49-.46.53-.64.09-1.3.16-1.98.23-.38.03-.58.24-.58.62v.54c0,.44.22.73.66.88.82.26,1.71.65,2.68,1.16.21.11.31.29.31.53ZM187.65,131.83c.06-.4-.1-.62-.48-.65-.18-.02-.35-.02-.52-.02-1.15,0-1.73.28-1.73.83,0,.22.11.4.33.54.22.14.51.2.87.2.54,0,.91-.06,1.13-.19s.35-.36.4-.71Z"/>
      <path class="cls-1" d="M205.29,125.87c0,.16-.06.3-.17.41s-.25.17-.41.17c-1.26-.02-2.1-.02-2.53-.01-.39,0-.59.2-.59.61v.66c0,.3.08.75.24,1.36.06.25.1.5.1.77,0,1.06-.29,1.92-.86,2.6-.58.68-1.47,1.2-2.68,1.58-.06.02-.12.02-.18.02-.15,0-.29-.06-.4-.17-.12-.11-.17-.25-.17-.42,0-.28.14-.46.42-.55,1.14-.34,1.93-.87,2.38-1.58.08-.13.12-.24.12-.32,0-.11-.06-.17-.18-.17-.07,0-.16.02-.25.07-.22.11-.47.17-.73.17-.59,0-1.07-.15-1.43-.44-.39-.33-.59-.78-.59-1.36s.22-1.08.66-1.43c.41-.33.92-.49,1.52-.49.06,0,.14,0,.25.01.11,0,.19.01.24.01.23,0,.35-.1.35-.3,0-.41-.2-.6-.61-.59-1.46.06-2.92.14-4.4.25-.17.02-.31-.03-.44-.15s-.19-.26-.19-.43.05-.29.16-.4c.11-.11.24-.17.39-.17l4.46-.22c.38-.02.58-.2.58-.54v-.54c0-.17.06-.31.19-.44.12-.12.27-.19.44-.19s.31.06.43.18.18.26.18.43v.46c0,.41.2.61.6.6,1.21-.02,2.06-.02,2.54-.01.16,0,.29.05.4.16.11.11.16.24.16.4ZM200.32,129.3c.03-.11.05-.22.05-.31,0-.3-.13-.51-.38-.61-.14-.06-.3-.08-.48-.08-.27,0-.5.09-.69.26-.19.18-.28.4-.28.66,0,.55.29.83.88.83.48,0,.78-.25.91-.74Z"/>
      <path class="cls-1" d="M210.17,132.54c0,.49-.17.9-.52,1.24s-.76.51-1.25.51-.9-.17-1.24-.51-.51-.75-.51-1.24.17-.9.51-1.25c.34-.34.75-.52,1.24-.52s.9.17,1.25.52c.34.34.52.76.52,1.25ZM209.32,132.54c0-.26-.09-.47-.26-.65-.18-.18-.39-.26-.65-.26s-.46.09-.64.27c-.18.18-.26.39-.26.64s.09.46.26.63c.18.17.39.26.64.26s.47-.08.65-.25c.18-.17.26-.38.26-.64Z"/>
    </g>
    <g>
      <path class="cls-1" d="M183.09,157.65c0,.17-.06.31-.18.43s-.26.17-.43.17c-.1,0-.2-.02-.29-.07l-.5-.26c-.12-.06-.23-.1-.32-.1-.2,0-.36.13-.47.4-.46,1.09-1.17,2-2.14,2.72-.1.08-.22.12-.36.12-.17,0-.31-.06-.43-.18s-.18-.26-.18-.43c0-.21.08-.37.25-.49.8-.59,1.4-1.36,1.79-2.3.04-.1.06-.18.06-.26,0-.23-.14-.4-.41-.5-.57-.22-1.16-.38-1.76-.49-.06-.02-.13-.02-.19-.02-.34,0-.58.18-.74.55-.17.39-.45,1.03-.85,1.91-.26.56-.53.96-.79,1.19-.26.24-.6.35-1,.35-.49,0-.9-.19-1.22-.57s-.49-.84-.49-1.39c0-1,.4-1.8,1.2-2.39.54-.39,1.17-.65,1.91-.77.54-.09.9-.35,1.09-.78.27-.62.46-1.06.56-1.32.04-.1.06-.2.06-.28,0-.22-.19-.32-.56-.29-.38.04-1.02.1-1.91.17-.16,0-.3-.04-.43-.15s-.19-.25-.19-.41c0-.15.05-.28.16-.4.1-.11.23-.17.38-.18.86-.03,1.83-.12,2.93-.26.12-.02.21-.02.26-.02.58,0,.88.24.88.72,0,.17-.04.34-.12.53l-.89,2.06c-.05.12-.07.22-.07.31,0,.21.16.34.48.4.43.08.94.22,1.51.41.1.03.18.05.26.05.26,0,.42-.16.46-.48.05-.42.08-.84.1-1.24,0-.16.07-.3.19-.41s.25-.17.41-.17.31.06.43.19.18.27.17.44c0,.18-.04.5-.1.95-.05.4-.07.7-.07.9,0,.34.17.59.52.77.22.1.45.21.67.31.25.16.37.35.37.58ZM175.52,156.91c.05-.1.07-.2.07-.29,0-.18-.09-.26-.26-.26-.06,0-.14.01-.22.04-.33.11-.62.27-.86.48-.46.39-.7.9-.7,1.51,0,.19.05.36.15.51.1.15.23.22.39.22.3,0,.6-.32.88-.96l.55-1.25Z"/>
      <path class="cls-1" d="M194.77,155.15c0,.92-.32,1.61-.95,2.08-.55.42-1.3.62-2.26.62-.1,0-.35-.01-.74-.04-.14,0-.27-.07-.37-.18-.1-.11-.16-.24-.16-.38,0-.16.06-.29.18-.4.12-.11.26-.16.42-.15.38.02.58.02.6.02,1.37,0,2.05-.52,2.05-1.55,0-.37-.13-.65-.4-.86s-.61-.31-1.03-.31c-.52,0-1.22.15-2.1.44l-1.14.38c-.28.1-.42.26-.42.49,0,.08.02.17.06.28.61,1.55,1.19,3.16,1.75,4.84.02.07.04.14.04.2,0,.17-.06.31-.18.43-.12.12-.26.18-.43.18-.3,0-.5-.14-.6-.43-.55-1.74-1.12-3.36-1.7-4.87-.1-.27-.28-.41-.52-.41-.08,0-.16.02-.25.05l-1.6.54c-.07.02-.13.04-.18.04-.15,0-.29-.06-.4-.17s-.17-.25-.17-.41c0-.29.13-.47.4-.55l1.48-.47c.28-.09.42-.24.42-.47,0-.1-.02-.2-.07-.3,0-.02-.2-.48-.59-1.38-.03-.07-.05-.15-.05-.24,0-.17.06-.31.18-.44s.26-.19.43-.19c.27,0,.46.13.57.38.11.25.31.73.59,1.42.14.34.34.5.59.5.12,0,.64-.16,1.57-.48.99-.34,1.81-.52,2.46-.52.73,0,1.32.2,1.78.59.5.42.74.98.74,1.69ZM190.94,152.33c0,.15-.05.28-.16.4-.11.11-.24.17-.4.17-.1,0-.2-.03-.3-.1-.36-.24-.8-.49-1.33-.76-.2-.1-.3-.27-.3-.49,0-.15.05-.28.16-.39.1-.11.23-.16.38-.16.09,0,.17.02.25.06.43.21.91.47,1.43.78.18.11.28.28.28.49Z"/>
      <path class="cls-1" d="M205.1,155.82c-.12-.14-.22-.22-.31-.22-.13,0-.19.14-.18.42.04,1.54-.24,2.76-.85,3.65-.67.97-1.68,1.45-3.04,1.45-.97,0-1.74-.26-2.33-.79-.62-.55-.92-1.31-.92-2.27,0-1.29.44-2.6,1.31-3.95.11-.17.17-.3.17-.4,0-.11-.07-.17-.22-.17-.1,0-.22.03-.38.08-.58.19-.93.29-1.07.29-.18,0-.33-.06-.45-.17s-.17-.25-.17-.41c0-.34.16-.53.48-.58.92-.14,1.94-.4,3.05-.79.1-.03.19-.05.28-.05.19,0,.35.07.49.2s.2.28.2.45c0,.15-.06.29-.17.42-1.55,1.72-2.33,3.38-2.33,4.98,0,.62.19,1.11.58,1.47.39.36.89.55,1.52.55,1.09,0,1.85-.45,2.29-1.36.32-.65.48-1.58.48-2.81,0-1.12-.16-2.23-.49-3.32-.02-.09-.04-.17-.04-.25,0-.18.05-.32.15-.43.1-.11.23-.16.39-.16.26,0,.45.16.56.49.4,1.19,1.15,2.28,2.26,3.28.16.14.24.31.24.49,0,.17-.06.31-.18.44s-.26.19-.42.19c-.21,0-.5-.24-.89-.72ZM206.03,152.37c0,.12-.04.22-.13.31s-.19.13-.32.13c-.17,0-.37-.15-.6-.44-.17-.22-.34-.45-.5-.67-.09-.09-.13-.19-.13-.3,0-.3.15-.46.46-.46.12,0,.23.06.34.17.33.37.6.7.8,1.01.06.08.08.16.08.25ZM207.44,151.71c0,.12-.05.22-.14.31-.09.09-.2.13-.32.13-.18,0-.31-.07-.4-.2-.26-.38-.49-.68-.71-.92-.08-.09-.12-.18-.12-.29,0-.3.15-.46.46-.46.1,0,.21.06.32.17.29.29.56.62.82,1.01.06.11.08.2.08.25Z"/>
    </g>
  </g>
</svg>