<?xml version="1.0" encoding="UTF-8"?>
<svg xmlns="http://www.w3.org/2000/svg" viewBox="0 0 229.65 225.83">
  <defs>
    <style>
      .cls-1 {
        fill: #5b5b5b;
      }

      .cls-2 {
        fill: none;
      }

      .cls-2, .cls-3 {
        stroke: #cecece;
        stroke-linecap: round;
        stroke-linejoin: round;
        stroke-width: 7px;
      }

      .cls-3 {
        fill: #fff9e1;
      }
    </style>
  </defs>
  <g id="_レイヤー_1" data-name="レイヤー 1">
    <path class="cls-3" d="M224.95,155.23c2.52-2.12.78-6.23-2.5-5.91-36.17-4.16-1.99-39.1-26.9-93.86C165.51-11.74,63.52-13.65,27.71,49.1l-24.04,7.65s-2.19,18.58,9.51,26.01c-.91,53.06,18.17,121.05,101.33,114.55,41.55-3.56,81.27-17.6,110.44-42.08Z"/>
    <path class="cls-2" d="M58.73,187.2s-6.41,15.27-19.55,23.11"/>
    <path class="cls-2" d="M123.21,199.22s-6.41,15.27-19.55,23.11"/>
  </g>
  <g id="naoko2kb">
    <g>
      <path class="cls-1" d="M95.23,29.97c0,.19-.06.35-.19.48-.13.13-.29.2-.48.2-.13,0-.25-.04-.38-.12-.68-.47-1.2-.8-1.56-.99-.22-.11-.33-.3-.33-.57,0-.18.06-.33.19-.46s.28-.19.46-.19c.13,0,.24.03.33.08.61.35,1.17.69,1.67,1.03.2.14.3.32.3.54ZM95.24,33.01s-.01.11-.03.21c-.42,1.19-.96,2.37-1.6,3.54-.13.23-.33.34-.58.34-.19,0-.35-.06-.48-.19-.13-.13-.19-.29-.19-.47,0-.13.03-.24.09-.34.59-1.01,1.11-2.12,1.56-3.31.1-.28.3-.42.6-.42.18,0,.33.06.46.19s.19.28.19.46ZM95.56,26.31c0,.18-.06.33-.19.46-.13.13-.29.19-.46.19-.15,0-.28-.04-.39-.12-.49-.36-.97-.68-1.44-.96-.21-.12-.31-.31-.31-.56,0-.18.06-.33.19-.46s.29-.2.46-.2c.12,0,.23.03.33.09.39.23.9.56,1.53,1,.19.13.28.31.28.54ZM105.44,33.55c0,.17-.06.31-.18.43-.12.12-.26.17-.42.17h-2.13c-.32,0-.48.1-.48.31,0,.12.07.24.21.35.68.54,1.5.99,2.47,1.35.28.1.42.3.42.6,0,.18-.07.33-.2.46-.13.13-.28.19-.46.19-.08,0-.16-.02-.23-.04-.93-.38-1.67-.75-2.21-1.11-.46-.31-.88-.65-1.24-1.04-.19-.2-.37-.3-.54-.3-.19,0-.38.12-.57.36-.77.96-1.88,1.67-3.31,2.11-.1.02-.17.03-.19.03-.18,0-.33-.06-.46-.19s-.19-.28-.19-.46c0-.31.15-.52.45-.62,1.06-.34,1.87-.8,2.43-1.38.11-.11.17-.22.17-.33,0-.21-.16-.31-.48-.31h-2.04c-.16,0-.29-.06-.4-.17-.11-.11-.17-.26-.17-.43,0-.16.05-.3.17-.41.11-.12.24-.17.4-.17h2.81c.38,0,.59-.13.63-.4s-.16-.41-.58-.41h-1.25c-.83,0-1.25-.41-1.25-1.23v-2.23c0-.82.37-1.23,1.1-1.23.31,0,.46-.1.46-.3,0-.35-.17-.52-.52-.52h-1.4c-.16,0-.3-.06-.42-.17-.12-.11-.18-.25-.18-.42s.06-.31.18-.43c.12-.11.26-.17.42-.17h1.4c.35,0,.52-.16.52-.47,0-.18.06-.33.2-.46.13-.12.28-.19.46-.19s.33.06.46.19c.12.13.19.28.19.46,0,.31.17.47.52.47h1.06c.35,0,.52-.16.52-.47,0-.18.06-.33.2-.46.13-.12.28-.19.46-.19s.33.06.46.19c.12.13.19.28.19.46,0,.31.17.47.52.47h1.4c.16,0,.3.06.42.17.12.12.18.26.18.43s-.06.31-.18.42c-.12.11-.26.17-.42.17h-1.4c-.35,0-.52.17-.52.52,0,.2.16.3.48.3.72,0,1.08.41,1.08,1.23v2.23c0,.82-.41,1.23-1.23,1.23h-1.53c-.36,0-.56.14-.61.41-.05.27.15.4.58.4h3.17c.16,0,.3.06.42.17.12.11.18.25.18.41ZM103.12,28.87c0-.26-.17-.39-.52-.39h-4.08c-.36,0-.54.13-.54.39,0,.28.17.42.52.42h4.1c.35,0,.52-.14.52-.42ZM103.12,30.72c0-.29-.17-.44-.52-.44h-4.1c-.35,0-.52.15-.52.44,0,.27.18.41.54.41h4.08c.35,0,.52-.14.52-.41ZM101.6,27.04c0-.27-.17-.4-.52-.4h-1.06c-.35,0-.52.13-.52.4s.17.42.52.42h1.06c.35,0,.52-.14.52-.42Z"/>
      <path class="cls-1" d="M120.46,28.08c0,.17-.06.31-.18.44-.12.12-.26.18-.43.18h-2.01c-.37,0-.56.14-.56.42,0,.09.03.19.08.29.59,1.28,1.49,2.38,2.69,3.3.18.14.27.32.27.54,0,.18-.07.34-.2.47-.14.13-.3.2-.49.2-.16,0-.3-.05-.42-.15-.93-.77-1.67-1.61-2.23-2.51-.18-.29-.36-.44-.53-.44s-.34.15-.52.44c-.6.97-1.5,1.85-2.69,2.62-.11.07-.22.1-.34.1-.18,0-.33-.06-.46-.19-.12-.12-.19-.28-.19-.46,0-.22.1-.39.3-.52,1.48-.93,2.45-2.08,2.92-3.45.03-.08.04-.16.04-.23,0-.3-.19-.45-.56-.45h-.96c-.22,0-.39-.08-.51-.25-1.04,2.12-2.66,3.89-4.84,5.31-.11.07-.23.1-.35.1-.18,0-.34-.06-.47-.2-.14-.13-.2-.28-.2-.46,0-.24.11-.42.33-.55.54-.32,1.07-.7,1.59-1.14.15-.13.22-.27.22-.41,0-.21-.29-.52-.89-.93-.15-.1-.22-.25-.22-.45,0-.16.06-.3.17-.41.11-.11.25-.17.41-.17.11,0,.21.04.31.1.35.24.62.44.83.6.14.11.27.17.4.17.16,0,.31-.08.44-.25l.04-.06c.1-.13.15-.26.15-.38,0-.21-.3-.5-.9-.87-.18-.11-.27-.26-.27-.46,0-.15.06-.28.18-.39s.25-.17.4-.17c.13,0,.41.14.84.42.13.08.25.12.36.12.18,0,.33-.11.46-.35.06-.1.12-.23.18-.4.03-.08.04-.15.04-.23,0-.25-.19-.38-.55-.38h-1.01c-.43,0-.79.19-1.08.57-.47.62-1.04,1.23-1.72,1.83-.12.11-.25.17-.4.17-.17,0-.32-.06-.44-.18-.12-.12-.19-.27-.19-.44,0-.19.07-.35.21-.47,1.14-1.02,1.99-2.17,2.56-3.45.11-.25.3-.38.58-.38.18,0,.34.06.47.19.13.13.19.28.17.45-.05.34.08.51.38.51h1.33c.8,0,1.2.32,1.2.96,0,.19-.1.55-.31,1.08h1.27c.4,0,.6-.2.6-.6v-1.8c0-.18.06-.33.19-.46s.28-.19.46-.19c.17,0,.32.06.45.19s.2.28.2.46v1.8c-.01.4.18.6.58.6h2.16c.17,0,.31.06.43.18s.18.27.18.44ZM109.94,34.57c0,.06-.01.13-.04.21-.31.88-.66,1.66-1.03,2.34-.14.25-.35.38-.62.38-.19,0-.35-.07-.49-.2-.14-.13-.2-.3-.2-.49,0-.12.04-.24.1-.36.39-.66.73-1.36,1-2.11.1-.28.31-.42.62-.42.18,0,.33.06.46.19.13.13.19.29.19.46ZM112.99,36.67c.04.21,0,.39-.15.55-.14.16-.32.23-.53.23-.4,0-.62-.2-.67-.58-.1-.76-.21-1.41-.34-1.95-.01-.04-.02-.09-.02-.17,0-.18.07-.33.2-.44s.29-.17.48-.17c.34,0,.55.17.63.51.16.68.29,1.35.4,2.02ZM116.42,36.61c0,.2-.07.36-.21.49-.14.12-.31.19-.51.19-.36,0-.58-.18-.66-.54-.12-.57-.28-1.19-.48-1.88-.02-.07-.03-.13-.03-.18,0-.18.07-.34.2-.47.13-.13.29-.2.46-.2.33,0,.54.16.65.46.39,1.17.58,1.88.58,2.13ZM120.34,36.61c0,.19-.07.35-.2.5-.13.14-.3.21-.5.21-.3,0-.52-.13-.65-.4-.4-.87-.75-1.56-1.06-2.08-.06-.1-.09-.21-.09-.31,0-.19.06-.35.19-.48.13-.13.29-.19.46-.19.26,0,.46.1.58.31.39.62.79,1.33,1.19,2.15.05.1.08.21.08.31ZM119.98,26.29c0,.16-.06.3-.17.42-.11.12-.26.18-.43.18-.18,0-.34-.08-.46-.25-.23-.31-.51-.62-.83-.95-.11-.11-.17-.24-.17-.39,0-.16.05-.3.17-.41.11-.12.25-.17.4-.17s.29.06.41.17c.47.47.79.82.96,1.04.08.1.12.23.12.38Z"/>
      <path class="cls-1" d="M69.48,53.61c0,.43-.22.67-.65.73-1.65.23-3.3.35-4.95.35-2.94,0-4.41-.89-4.41-2.66,0-1.08.75-2.2,2.26-3.36.3-.23.45-.5.45-.79,0-.14-.03-.29-.09-.45-.44-1.11-.81-2.3-1.1-3.58,0-.05-.02-.1-.02-.17,0-.22.08-.41.23-.56s.34-.23.56-.23c.19,0,.36.07.5.2.14.13.24.29.28.48.19,1,.46,2,.83,3.01.12.33.31.5.57.5.14,0,.29-.04.44-.13.09-.05,1.19-.65,3.31-1.81.13-.07.25-.1.36-.1.21,0,.39.07.53.22.14.15.22.33.22.54,0,.31-.14.54-.42.68-1.23.61-2.56,1.33-3.99,2.16-.91.53-1.64,1.03-2.18,1.49-.78.67-1.17,1.28-1.17,1.83,0,.9.94,1.35,2.82,1.35,1.55,0,3.12-.13,4.73-.4.22-.04.42.02.6.17s.27.34.27.57Z"/>
      <path class="cls-1" d="M85.14,50.97c0,.14-.04.28-.12.41-.68,1.11-1.5,2-2.45,2.65-1.07.73-2.21,1.1-3.4,1.1-2.63,0-3.94-1.19-3.94-3.57,0-.97.02-2.24.06-3.82.03-1.28.06-2.67.08-4.17,0-.21.08-.39.24-.55.16-.15.34-.23.55-.23s.41.08.57.24c.16.16.23.35.22.57l-.18,7.64c0,1.57.83,2.35,2.49,2.35.89,0,1.75-.31,2.56-.95.7-.52,1.31-1.21,1.85-2.08.15-.25.38-.38.67-.38.22,0,.41.08.56.23s.23.34.23.56Z"/>
      <path class="cls-1" d="M101.25,45.16c0,.2-.07.37-.21.51-.14.14-.31.21-.51.21-1.57-.02-2.62-.02-3.17-.01-.49,0-.73.25-.73.76v.83c0,.37.1.94.3,1.69.08.31.12.63.12.96,0,1.32-.36,2.4-1.08,3.25-.72.85-1.83,1.5-3.34,1.97-.07.02-.15.03-.23.03-.19,0-.36-.07-.5-.21-.15-.14-.22-.31-.22-.52,0-.35.17-.58.52-.69,1.42-.43,2.41-1.09,2.97-1.98.1-.16.15-.29.15-.41,0-.14-.07-.21-.23-.21-.09,0-.19.03-.31.09-.28.14-.58.21-.92.21-.74,0-1.33-.19-1.78-.56-.49-.41-.74-.98-.74-1.69s.27-1.34.83-1.79c.51-.41,1.15-.61,1.9-.61.07,0,.17,0,.31.01.14.01.24.02.3.02.29,0,.44-.12.44-.38,0-.51-.25-.75-.77-.73-1.82.07-3.66.17-5.5.31-.21.02-.39-.04-.55-.19-.16-.15-.23-.32-.23-.53s.07-.37.2-.5c.14-.13.3-.21.49-.22l5.58-.27c.48-.02.72-.25.72-.68v-.67c0-.21.08-.39.23-.55.15-.16.34-.23.55-.23s.39.07.54.22c.15.15.23.33.23.54v.57c0,.51.25.76.75.75,1.51-.02,2.57-.02,3.18-.02.2,0,.37.07.5.2s.2.3.2.5ZM95.04,49.45c.04-.14.06-.27.06-.39,0-.38-.16-.63-.48-.77-.17-.07-.37-.1-.6-.1-.34,0-.63.11-.86.33-.23.22-.35.5-.35.83,0,.69.37,1.03,1.1,1.03.6,0,.98-.31,1.14-.93Z"/>
      <path class="cls-1" d="M115.03,46.83c0,.33-.16.54-.46.65-.79.26-1.39.44-1.8.54-.32.08-.48.23-.48.46,0,.13.05.27.15.4.46.64.92,1.22,1.36,1.74.14.16.21.34.21.54,0,.22-.08.42-.25.58s-.36.25-.59.25c-.11,0-.22-.02-.33-.06-1.36-.53-2.61-.79-3.75-.79-1.92,0-2.88.46-2.88,1.37s1.21,1.33,3.63,1.33c.93,0,1.87-.06,2.82-.17.2-.02.38.04.54.17.16.13.24.3.24.5,0,.41-.21.63-.63.67-.95.1-1.95.15-3,.15-3.37,0-5.06-.88-5.06-2.64s1.35-2.62,4.05-2.62c.67,0,1.29.07,1.86.21.29.07.48.1.57.1.2,0,.3-.08.3-.23,0-.09-.05-.2-.17-.33-.02-.02-.16-.21-.42-.57s-.59-.54-.99-.54c-.12,0-.25.01-.4.03-1.22.17-2.75.25-4.58.25-.18,0-.33-.06-.46-.2-.13-.13-.19-.28-.19-.46s.06-.34.19-.47c.13-.13.29-.2.46-.19.98.04,2.31-.01,3.98-.16.38-.04.57-.19.57-.45,0-.12-.04-.23-.12-.35-.24-.42-.58-.6-1.03-.54-.79.1-1.78.15-2.97.15-.17,0-.32-.06-.46-.2-.14-.13-.2-.28-.2-.45,0-.18.06-.33.19-.46s.29-.19.46-.19c.95,0,1.72-.02,2.31-.08.42-.04.63-.17.63-.4,0,0-.09-.23-.27-.66-.03-.07-.05-.15-.05-.24,0-.2.07-.37.21-.52.14-.15.31-.22.52-.22.33,0,.55.16.67.48.05.13.12.31.21.56.14.37.39.56.75.56.09,0,.18-.01.29-.03.53-.13,1.1-.31,1.72-.54.08-.03.16-.04.23-.04.19,0,.35.06.49.19.13.13.2.29.2.48,0,.33-.16.55-.48.66-.55.19-1.08.34-1.58.45-.36.08-.54.25-.54.49,0,.11.04.22.12.33l.03.04c.21.32.46.48.76.48.08,0,.17-.01.25-.03.44-.1,1.18-.32,2.22-.67.06-.02.13-.03.21-.03.19,0,.35.07.49.2.13.13.2.29.2.48ZM115.47,44.37c0,.15-.05.28-.16.39-.1.11-.24.17-.4.17-.21,0-.46-.19-.75-.55-.21-.28-.42-.56-.63-.84-.11-.11-.17-.23-.17-.38,0-.38.19-.57.57-.57.15,0,.29.07.42.21.41.46.75.88,1,1.26.07.1.1.21.1.32ZM117.22,43.54c0,.15-.06.28-.17.39s-.25.17-.4.17c-.22,0-.38-.08-.5-.26-.32-.47-.61-.85-.88-1.15-.1-.11-.15-.23-.15-.36,0-.38.19-.57.57-.57.13,0,.26.07.41.21.36.36.7.78,1.02,1.26.07.14.11.25.11.31Z"/>
      <path class="cls-1" d="M130.56,51.01c0,1.43-.59,2.5-1.77,3.19-.94.56-2.09.84-3.44.84-1.17,0-2.09-.19-2.77-.56s-1.01-.88-1.01-1.51.24-1.07.71-1.41c.42-.31.94-.46,1.56-.46.84,0,1.55.26,2.13.78.3.27.54.57.72.9.18.33.39.5.63.5.14,0,.3-.05.48-.15.82-.44,1.23-1.11,1.23-2.02,0-.68-.25-1.21-.74-1.59-.5-.38-1.16-.56-1.99-.56-2.12.03-4.02.71-5.69,2.06-.25.2-.45.3-.6.3-.19,0-.36-.07-.5-.2-.14-.13-.21-.3-.21-.5,0-.22.08-.4.25-.54,1.48-1.25,3.33-2.83,5.57-4.75.18-.16.27-.31.27-.44,0-.21-.19-.3-.57-.27-.67.05-1.8.12-3.39.23-.2.01-.38-.05-.52-.19-.15-.14-.23-.31-.23-.51s.07-.37.2-.51c.14-.14.3-.21.5-.21,1.9,0,3.91-.11,6.03-.3.31-.03.56.03.75.19.19.16.29.36.29.61s-.14.5-.41.72c-1.02.82-2.11,1.71-3.25,2.69-.16.13-.24.25-.24.38,0,.15.11.22.33.22.07,0,.14,0,.22-.03.54-.11,1.04-.17,1.52-.17,1.14,0,2.06.26,2.76.78.78.58,1.17,1.42,1.17,2.52ZM124.74,53.76c.38.03.57-.12.57-.45,0-.16-.07-.31-.21-.47-.34-.38-.78-.57-1.3-.57s-.83.19-.83.58c0,.35.29.6.88.77.24.06.54.1.88.13Z"/>
      <path class="cls-1" d="M140.08,45.16c0,.16-.05.29-.17.4-.11.11-.25.17-.41.17h-.34c-.4,0-.6.2-.6.6v.18c0,.19-.07.35-.2.49-.13.13-.3.2-.49.2-.2,0-.37-.07-.51-.2-.14-.14-.21-.3-.21-.49v-.18c0-.4-.2-.6-.6-.6h-.39c-.34,0-.55.18-.64.54-.14.55-.36,1.06-.66,1.53-.14.22-.33.33-.57.33-.19,0-.35-.07-.48-.2-.13-.14-.2-.29-.2-.47,0-.11.04-.22.1-.33.47-.77.71-1.74.71-2.91v-.21c0-.75.38-1.15,1.14-1.19,1.11-.06,2.11-.18,3.01-.36.19-.04.36,0,.51.12.15.12.23.28.23.48,0,.35-.18.56-.53.61-.71.11-1.56.19-2.55.24-.35.02-.53.14-.53.36s.15.33.45.33h3.34c.16,0,.29.06.41.17.11.11.17.24.17.39ZM146.83,45.16c0,.16-.05.29-.17.4-.11.11-.25.17-.41.17h-.81c-.4,0-.6.2-.6.6v.13c0,.2-.07.37-.21.52-.14.15-.31.22-.51.22s-.37-.07-.52-.22c-.14-.14-.22-.32-.22-.52v-.13c0-.4-.2-.6-.6-.6h-.58c-.26,0-.49.15-.67.44-.15.28-.3.56-.45.83-.11.15-.25.24-.41.27h3.15c.8,0,1.2.4,1.2,1.2v3.66c0,.8-.4,1.2-1.2,1.2h-1.77l.12.05c1.29.48,2.45.8,3.48.97.36.06.54.27.54.63,0,.19-.08.35-.23.48-.16.13-.33.17-.52.13-1.45-.28-2.71-.65-3.76-1.09-.25-.11-.38-.3-.38-.57,0-.32.16-.52.48-.6h-3.5c.32.08.48.28.48.6,0,.28-.13.48-.39.58-1.04.45-2.26.81-3.67,1.06-.19.03-.36-.01-.52-.13s-.23-.28-.23-.46c0-.35.17-.56.53-.62,1.2-.2,2.34-.53,3.42-.99l.1-.05h-1.65c-.8,0-1.2-.4-1.2-1.2v-3.66c0-.8.4-1.2,1.2-1.2h4.09c-.33-.06-.5-.26-.5-.6,0-.12.03-.22.08-.3.42-.68.63-1.44.63-2.29v-.12c0-.75.38-1.14,1.14-1.18,1.17-.06,2.25-.2,3.24-.41.19-.04.36,0,.51.14.15.13.23.29.23.48,0,.34-.17.54-.51.6-.88.15-1.83.25-2.83.3-.36.02-.54.16-.54.4,0,.22.15.33.45.33h3.92c.16,0,.29.06.41.17.11.11.17.24.17.39ZM143.65,48.63c0-.24-.16-.36-.48-.36h-6.15c-.33,0-.5.12-.5.36s.15.36.45.36h6.23c.3,0,.45-.12.45-.36ZM143.65,50.26c0-.24-.15-.36-.45-.36h-6.23c-.3,0-.45.12-.45.36s.15.36.45.36h6.23c.3,0,.45-.12.45-.36ZM143.65,51.91c0-.25-.15-.38-.45-.38h-6.23c-.3,0-.45.12-.45.38s.17.38.5.38h6.15c.32,0,.48-.12.48-.38Z"/>
      <path class="cls-1" d="M154.48,46.42c0,.82-.41,1.23-1.23,1.23h-2.17c-.4,0-.6.2-.6.6v6.5c0,.19-.07.35-.2.5-.14.14-.3.21-.49.21s-.35-.07-.49-.21c-.13-.14-.2-.31-.2-.5v-10.75c0-.9.45-1.35,1.35-1.35h2.8c.82,0,1.23.41,1.23,1.23v2.55ZM153.13,44.22c0-.3-.17-.45-.51-.45h-1.59c-.37,0-.55.17-.55.51,0,.25.17.38.52.38h1.61c.35,0,.53-.14.53-.44ZM153.13,46.12c0-.31-.18-.47-.53-.47h-1.61c-.35,0-.52.15-.52.45s.17.46.52.46h1.62c.34,0,.51-.15.51-.45ZM158.1,52.08c0,.82-.41,1.23-1.23,1.23h-3.24c-.83,0-1.24-.41-1.24-1.23v-2.06c0-.83.41-1.25,1.24-1.25h3.24c.82,0,1.23.42,1.23,1.25v2.06ZM156.79,51.51v-.98c0-.4-.2-.6-.6-.6h-1.91c-.4,0-.6.2-.6.6v.98c0,.4.2.6.6.6h1.91c.4,0,.6-.2.6-.6ZM161.37,53.32c0,.77-.12,1.29-.37,1.55-.25.26-.73.4-1.45.4h-1.28c-.17,0-.32-.06-.45-.19s-.19-.27-.19-.44c0-.18.06-.33.19-.46s.28-.19.45-.19h.79c.36,0,.6-.06.73-.18s.19-.37.19-.75v-4.81c0-.4-.2-.6-.6-.6h-2.27c-.82,0-1.23-.41-1.23-1.23v-2.55c0-.82.41-1.23,1.23-1.23h2.9c.9,0,1.35.45,1.35,1.35v9.33ZM159.99,44.28c0-.34-.18-.51-.54-.51h-1.7c-.35,0-.52.15-.52.45s.17.44.52.44h1.71c.35,0,.52-.12.52-.38ZM159.99,46.11c0-.3-.17-.45-.52-.45h-1.71c-.35,0-.52.16-.52.47s.17.45.52.45h1.71c.35,0,.52-.15.52-.46Z"/>
      <path class="cls-1" d="M55.25,65.89c0,.3-.14.51-.42.63-.67.28-1.3.56-1.89.85-.41.2-.67.41-.77.63-.07.16-.1.48-.1.96v.96c0,.2-.07.37-.21.5-.14.13-.31.2-.51.2s-.37-.07-.5-.2c-.13-.14-.2-.3-.2-.5v-.57c0-.35-.13-.52-.39-.52-.11,0-.23.04-.36.12-1.21.75-1.82,1.4-1.82,1.94,0,.31.21.53.62.67.41.13,1.11.2,2.1.2.78,0,1.81-.08,3.1-.25.21-.03.39.02.55.17.15.14.23.31.23.52,0,.18-.06.34-.18.47-.12.13-.27.21-.45.23-1.14.13-2.26.19-3.36.19s-2.02-.1-2.62-.28c-1.02-.33-1.53-.94-1.53-1.81,0-1.02,1.1-2.19,3.31-3.5.36-.21.54-.42.54-.63,0-.26-.21-.39-.63-.39-.58,0-1.31.27-2.21.82-.72.45-1.35.95-1.9,1.5l-.39.47c-.16.15-.33.23-.52.23-.2,0-.37-.07-.5-.2s-.2-.3-.2-.5c0-.18.05-.33.17-.47,1.04-1.25,1.91-2.5,2.61-3.75.07-.12.1-.23.1-.34,0-.26-.19-.38-.55-.38-.33,0-.82.02-1.46.02-.18,0-.33-.06-.46-.2-.12-.13-.19-.28-.19-.46,0-.19.07-.35.2-.48.13-.13.29-.19.47-.18.62.02,1.31.02,2.06,0,.59,0,.99-.28,1.2-.82l.3-.78c.12-.31.34-.46.67-.46.2,0,.37.07.5.21.14.14.2.31.2.5,0,.09-.02.17-.04.25-.05.12-.08.19-.09.23-.04.11-.06.21-.06.3,0,.29.18.42.54.38.38-.04,1.1-.14,2.16-.3.2-.03.38.02.54.16.16.14.24.3.24.5,0,.4-.2.63-.6.68-1,.13-1.9.23-2.69.28-.44.04-.77.13-1,.28s-.44.4-.64.77c-.02.03-.07.11-.15.24-.11.19-.16.35-.16.47,0,.15.09.23.27.23.11,0,.26-.04.44-.11.53-.2,1.02-.3,1.46-.3.6,0,1.06.2,1.38.6.22.27.43.4.63.4.11,0,.23-.03.36-.09l1.81-.88c.1-.05.2-.08.3-.08.19,0,.35.07.49.2s.2.3.2.5Z"/>
      <path class="cls-1" d="M65.27,63.88c-.51.11-1,.2-1.48.27-.56.09-.94.4-1.12.93-.7,2.01-1.5,3.92-2.38,5.73-.14.29-.37.44-.69.44-.21,0-.39-.08-.54-.23-.15-.15-.23-.33-.23-.54,0-.12.03-.24.09-.36.84-1.62,1.56-3.26,2.17-4.92.04-.11.06-.21.06-.29,0-.31-.21-.46-.63-.46h-.85c-.2,0-.37-.07-.51-.22-.14-.14-.21-.32-.21-.52s.07-.39.22-.53c.15-.15.33-.21.54-.2.44.02.85.02,1.23.02.61,0,.99-.31,1.14-.92.08-.34.17-.68.25-1.02.15-.38.4-.57.74-.57.21,0,.39.07.54.22s.23.33.23.53c0,.08-.05.29-.15.65-.03.12-.04.22-.04.31,0,.3.13.45.4.45.05,0,.1,0,.17-.01l.78-.17c.09-.02.15-.03.18-.03.2,0,.36.07.49.22.12.15.19.32.19.53,0,.38-.19.61-.57.69ZM70.96,71.31c0,.2-.07.38-.22.52-.15.15-.32.23-.53.23-.13,0-.27-.04-.4-.14-.33-.22-.68-.43-1.05-.63-.12-.07-.23-.1-.33-.1-.24,0-.41.17-.51.52-.29,1.01-1.18,1.52-2.67,1.52-.79,0-1.45-.17-1.98-.51-.63-.39-.94-.96-.94-1.71s.29-1.3.88-1.69c.51-.34,1.15-.51,1.94-.51.22,0,.47.02.75.06.23.03.41,0,.53-.1.12-.1.19-.27.19-.51v-2.19c-.01-.2.06-.37.2-.52.14-.15.31-.22.51-.22s.37.07.51.21c.14.14.21.31.21.51l.02,2.52c0,.55.27.95.82,1.2.48.22,1.05.52,1.71.91.25.15.38.36.38.63ZM66.59,70.89c0-.42-.24-.67-.72-.75-.29-.05-.54-.08-.77-.08-.91,0-1.36.32-1.36.96,0,.29.12.52.37.68.24.17.56.25.95.25.7,0,1.16-.17,1.37-.51.11-.18.17-.36.17-.55ZM71.09,64.62c0,.2-.07.37-.22.52-.15.15-.32.22-.52.22-.14,0-.27-.04-.4-.14-.76-.51-1.56-.94-2.42-1.3-.28-.12-.42-.34-.42-.66,0-.2.07-.37.22-.51s.31-.21.5-.21c.11,0,.2.02.27.06.94.4,1.82.87,2.64,1.4.23.15.35.36.35.63Z"/>
      <path class="cls-1" d="M77.48,68.74c-.39.95-.73,1.9-1,2.85-.14.48-.42.72-.84.72s-.71-.27-.84-.83c-.27-1.17-.4-2.51-.4-4.03,0-1.83.17-3.69.51-5.58.08-.42.33-.63.74-.63.23,0,.42.09.58.27.16.18.21.38.17.61-.39,2.43-.58,4.25-.58,5.48v.87c0,.32.08.48.24.48.15,0,.27-.13.38-.39l.09-.23c.09-.22.25-.33.48-.33.15,0,.28.05.38.16s.16.23.16.38c0,.06-.01.13-.04.2ZM86,64.33c0,.4-.19.65-.58.73-.24.04-.61.11-1.11.21-.45.09-.68.35-.68.79v1.12c0,1.33-.22,2.45-.66,3.36-.48.98-1.26,1.81-2.34,2.49-.11.07-.24.1-.39.1-.21,0-.39-.07-.54-.23-.15-.15-.23-.33-.23-.54,0-.28.12-.5.36-.65.85-.53,1.46-1.19,1.83-1.97.33-.71.5-1.6.5-2.67v-.78c0-.51-.27-.75-.79-.72-.93.06-1.59.08-1.97.08l-.61-.02c-.19,0-.35-.07-.5-.21s-.21-.31-.21-.5c0-.2.08-.37.23-.52.15-.14.32-.21.52-.2h.56c.6.04,1.26,0,1.99-.06.5-.05.74-.32.71-.81l-.09-1.62c-.01-.21.06-.4.2-.56.14-.16.33-.24.55-.24.2,0,.37.07.52.2.14.13.22.3.23.5,0,.31.03.79.06,1.46.03.48.23.72.6.72.06,0,.12,0,.19-.03l.77-.18c.09-.02.15-.03.18-.03.19,0,.35.07.5.22s.21.32.21.52ZM85.85,62.53c0,.15-.05.28-.16.39-.1.11-.24.17-.4.17-.21,0-.46-.19-.75-.56-.21-.28-.42-.56-.63-.84-.11-.11-.17-.23-.17-.38,0-.38.19-.57.57-.57.15,0,.29.07.42.21.41.46.74.88,1,1.26.07.1.1.21.1.31ZM87.26,61.41c0,.15-.06.28-.17.39-.11.11-.25.17-.4.17-.22,0-.38-.08-.49-.25-.32-.47-.62-.85-.89-1.16-.1-.11-.15-.23-.15-.36,0-.38.19-.57.57-.57.13,0,.27.07.41.21.36.36.7.78,1.02,1.26.07.14.1.25.1.31Z"/>
      <path class="cls-1" d="M97.45,65.91c0,1.58-.27,3.34-.79,5.28-.15.56-.32.97-.51,1.21-.28.36-.66.54-1.14.54-.52,0-1.21-.15-2.07-.44-.34-.11-.51-.33-.51-.67,0-.2.07-.37.22-.51.14-.14.31-.21.5-.21.08,0,.18.02.31.06.43.15.75.23.98.23.24,0,.41-.07.51-.21.08-.11.17-.33.27-.67.47-1.68.71-3.14.71-4.38,0-.48-.1-.8-.29-.96-.19-.16-.55-.24-1.08-.24-.47,0-.79.05-.96.15-.21.12-.36.33-.45.65-.65,2.18-1.54,4.38-2.67,6.58-.15.29-.39.44-.71.44-.22,0-.41-.08-.56-.23-.15-.16-.23-.34-.23-.56,0-.17.03-.31.09-.41,1.02-1.77,1.85-3.63,2.49-5.59.03-.1.04-.19.04-.27,0-.36-.21-.51-.65-.45-.31.04-.79.11-1.46.21-.21.03-.4-.03-.58-.17-.18-.15-.26-.33-.26-.55,0-.42.22-.66.65-.72.44-.06,1.13-.15,2.09-.27.48-.05.8-.35.98-.9.03-.08.11-.57.25-1.47.07-.43.32-.65.75-.65.24,0,.43.09.58.26.14.18.2.38.16.62,0,.05-.06.27-.13.66-.07.29-.1.5-.1.64,0,.42.23.62.71.59l.22-.02c.77-.05,1.39.08,1.85.4.52.36.78,1.04.78,2.02ZM101.98,67.03c0,.22-.08.41-.23.57-.16.16-.34.24-.56.24-.36,0-.61-.17-.75-.52-.52-1.35-1.19-2.58-2-3.69-.09-.12-.14-.26-.14-.42,0-.21.07-.39.22-.54.14-.15.32-.23.53-.23.25,0,.46.1.62.31.91,1.19,1.67,2.52,2.27,3.98.03.07.04.17.04.3Z"/>
      <path class="cls-1" d="M108.08,68.58c-.39.95-.73,1.9-1.01,2.85-.14.48-.42.72-.82.72-.44,0-.73-.27-.85-.83-.27-1.13-.41-2.47-.41-4.03,0-1.69.17-3.55.51-5.58.07-.42.31-.63.73-.63.23,0,.42.09.58.27.15.18.21.38.17.61-.39,2.28-.58,4.1-.58,5.48v.87c0,.32.09.48.25.48.14,0,.26-.13.36-.39l.09-.23c.09-.22.25-.33.48-.33.15,0,.28.05.38.16s.16.23.16.38c0,.06-.02.13-.04.2ZM116.75,64.17c0,.36-.21.61-.61.75-.01.01-.37.08-1.08.19-.45.08-.67.35-.67.79v1.12c0,2.68-1,4.63-3,5.85-.12.07-.25.1-.39.1-.21,0-.39-.07-.54-.22-.15-.15-.22-.33-.22-.54,0-.28.12-.5.36-.65.85-.53,1.46-1.19,1.83-1.97.33-.71.5-1.6.5-2.67v-.78c0-.51-.26-.75-.79-.72-.93.06-1.58.08-1.96.08l-.62-.02c-.19,0-.36-.07-.49-.21-.14-.14-.21-.31-.21-.5,0-.2.07-.37.22-.52.15-.14.33-.21.53-.2h.56c.51.02,1.17,0,2-.06.5-.04.73-.31.7-.81l-.09-1.62c0-.21.06-.4.2-.56.14-.16.33-.24.55-.24.2,0,.37.07.52.2.15.13.22.3.23.5,0,.31.03.79.06,1.46.02.48.22.72.6.72.06,0,.12,0,.2-.03l.76-.18c.09-.02.15-.03.18-.03.19,0,.35.07.49.22.14.15.21.32.21.52Z"/>
      <path class="cls-1" d="M131.36,62.34c0,.4-.27.64-.81.72-1.51.23-2.85.85-4.02,1.87-1.17,1.02-1.76,2.08-1.76,3.2,0,1.57,1.29,2.6,3.89,3.1.43.08.64.33.64.77,0,.24-.09.44-.28.6-.19.16-.4.22-.64.18-1.45-.25-2.62-.7-3.5-1.35-1.1-.8-1.65-1.86-1.65-3.18,0-1.06.36-2.04,1.09-2.94.29-.36.61-.69.96-.98.3-.25.45-.46.45-.65,0-.24-.25-.34-.77-.3-1.56.14-3.22.31-4.99.52-.22.03-.41-.03-.57-.18s-.24-.33-.24-.56c0-.19.06-.35.19-.49s.28-.22.47-.24c1.81-.18,5.34-.45,10.6-.81.27-.02.49.04.66.17.17.13.25.31.25.53Z"/>
      <path class="cls-1" d="M140.29,69.82c-.88,1.73-1.72,2.6-2.54,2.6-1,0-1.78-.89-2.33-2.67-.43-1.38-.64-2.94-.64-4.7,0-.9.03-1.67.09-2.32.02-.21.1-.38.25-.52.14-.14.32-.21.53-.21.23,0,.42.09.58.26.16.18.22.38.2.61-.07.67-.11,1.45-.11,2.33,0,1.15.12,2.29.38,3.42.28,1.25.65,1.88,1.11,1.88.33,0,.71-.45,1.12-1.35.13-.27.35-.4.67-.4.21,0,.39.07.53.22.14.15.22.32.22.53,0,.13-.03.25-.08.34ZM146.78,69.36c.03.24-.04.46-.2.65s-.37.29-.62.29c-.21,0-.39-.07-.55-.21s-.25-.31-.27-.51c-.25-2.27-.99-4.29-2.21-6.06-.09-.13-.13-.27-.13-.44,0-.22.07-.4.22-.55s.33-.23.55-.23c.27,0,.49.11.65.33,1.38,1.92,2.23,4.17,2.55,6.73Z"/>
      <path class="cls-1" d="M161.23,69.01c0,1.43-.59,2.5-1.77,3.19-.94.56-2.09.84-3.44.84-1.17,0-2.09-.19-2.77-.56s-1.01-.88-1.01-1.51.24-1.07.71-1.41c.42-.31.94-.46,1.56-.46.84,0,1.55.26,2.13.78.3.27.54.57.72.9.18.33.39.5.63.5.14,0,.3-.05.48-.15.82-.44,1.23-1.11,1.23-2.02,0-.68-.25-1.21-.74-1.59-.5-.38-1.16-.56-1.99-.56-2.12.03-4.02.71-5.69,2.06-.25.2-.45.3-.6.3-.19,0-.36-.07-.5-.2-.14-.13-.21-.3-.21-.5,0-.22.08-.4.25-.54,1.48-1.25,3.33-2.83,5.57-4.75.18-.16.27-.31.27-.44,0-.21-.19-.3-.57-.27-.67.05-1.8.12-3.39.23-.2.01-.38-.05-.52-.19-.15-.14-.23-.31-.23-.51s.07-.37.2-.51c.14-.14.3-.21.5-.21,1.9,0,3.91-.11,6.03-.3.31-.03.56.03.75.19.19.16.29.36.29.61s-.14.5-.41.72c-1.02.82-2.11,1.71-3.25,2.69-.16.13-.24.25-.24.38,0,.15.11.22.33.22.07,0,.14,0,.22-.03.54-.11,1.04-.17,1.52-.17,1.14,0,2.06.26,2.76.78.78.58,1.17,1.42,1.17,2.52ZM155.4,71.76c.38.03.57-.12.57-.45,0-.16-.07-.31-.21-.47-.34-.38-.78-.57-1.3-.57s-.83.19-.83.58c0,.35.29.6.88.77.24.06.54.1.88.13Z"/>
      <path class="cls-1" d="M167.59,61.81c-.4,2.29-.6,4.46-.6,6.5,0,1.43.05,2.62.17,3.58.03.23-.04.44-.2.61-.16.18-.36.27-.58.27-.21,0-.39-.07-.54-.21-.15-.14-.24-.31-.25-.51-.1-.96-.15-2.18-.15-3.66,0-2.22.21-4.5.63-6.85.08-.43.33-.65.77-.65.24,0,.44.09.59.28.16.19.21.4.17.64ZM176.69,70.96c0,.18-.07.34-.2.49s-.29.23-.46.25c-1.3.17-2.39.26-3.25.26-2.65,0-3.98-.8-3.98-2.4,0-.45.12-.91.38-1.38.14-.27.35-.4.63-.4.49,0,.74.23.74.71,0,.1-.03.25-.09.44-.06.19-.09.35-.09.47,0,.41.24.69.73.85.42.15,1.08.22,2,.22.74,0,1.65-.08,2.73-.25.23-.04.43.02.61.17.17.16.26.35.26.58ZM176.17,63.03c0,.19-.06.35-.19.5s-.28.23-.47.25c-1.13.16-2.33.24-3.58.24-.56,0-1.17-.02-1.83-.06-.19,0-.35-.09-.5-.23-.14-.15-.21-.32-.21-.52,0-.22.08-.4.25-.55s.35-.21.56-.19c.56.05,1.15.07,1.79.07,1.13,0,2.23-.08,3.31-.25.23-.04.43.02.61.17s.26.34.26.57Z"/>
      <path class="cls-1" d="M43.21,87.63c0,1.1-.41,1.98-1.22,2.63-.82.66-1.93.98-3.35.98-2.81,0-4.21-1.19-4.21-3.57,0-.2,0-.49.03-.87.02-.45-.23-.73-.75-.84-.45-.03-.9-.06-1.33-.1-.18-.02-.33-.1-.45-.24-.12-.14-.18-.3-.18-.48,0-.21.08-.39.25-.53.16-.15.35-.2.56-.17.31.05.77.11,1.38.19.49.06.76-.17.82-.67l.06-.54c.06-.5-.17-.77-.67-.83-.24-.02-.57-.06-1-.12-.43-.06-.64-.29-.64-.7,0-.21.08-.39.25-.53.17-.14.35-.19.56-.17.2.03.54.07,1.04.12.49.05.77-.17.83-.66l.16-1.27c.06-.45.31-.67.75-.67.24,0,.44.09.59.27.15.18.21.38.17.61l-.17,1.05c-.04.26,0,.46.12.61s.3.21.56.2c.84-.02,1.59-.06,2.26-.14.2-.02.38.04.53.17.15.14.23.3.23.5,0,.18-.06.34-.18.47-.12.14-.26.21-.43.23-.92.1-1.83.15-2.72.15-.48,0-.75.23-.79.69l-.06.54c-.03.25.02.44.14.58.12.14.3.21.55.21.85,0,1.7-.06,2.54-.15.21-.02.39.04.55.17.16.13.23.31.23.52,0,.18-.06.34-.19.47-.12.14-.28.21-.46.23-.85.08-1.8.12-2.86.12-.51,0-.77.28-.79.84v.54c0,1.56.92,2.34,2.77,2.34.81,0,1.49-.18,2.04-.54.64-.42.96-1.01.96-1.79,0-.57-.13-1.15-.4-1.74-.06-.13-.09-.23-.09-.31,0-.21.08-.39.23-.53.15-.14.33-.21.54-.21.33,0,.56.15.69.44.38.83.57,1.66.57,2.48Z"/>
      <path class="cls-1" d="M51.97,82.33c0,.8-.4,1.2-1.2,1.2h-2.28c-.4,0-.6.2-.6.6v6.54c0,.19-.07.35-.21.49-.14.13-.31.2-.5.2s-.35-.07-.5-.2c-.14-.14-.21-.3-.21-.49v-10.89c0-.8.4-1.2,1.2-1.2h3.09c.8,0,1.2.4,1.2,1.2v2.55ZM50.62,80.13c0-.28-.14-.42-.42-.42h-1.89c-.28,0-.42.14-.42.42s.15.44.45.44h1.83c.3,0,.45-.15.45-.44ZM50.62,82.03h0c0-.31-.15-.46-.45-.46h-1.83c-.3,0-.45.15-.45.44s.15.45.45.45h1.86c.28,0,.42-.14.42-.42ZM56.77,87.33c0,.15-.05.27-.16.38s-.23.15-.37.15h-1.96c-.27,0-.41.09-.41.27,0,.1.06.19.18.28.4.32.88.61,1.44.86.23.1.34.27.34.52,0,.17-.06.31-.18.43-.12.12-.26.17-.42.17-.09,0-.18-.02-.26-.06-.75-.39-1.33-.75-1.75-1.1-.2-.16-.38-.24-.55-.24-.18,0-.37.09-.57.28-.54.51-1.23.96-2.08,1.33-.07.03-.15.04-.24.04-.16,0-.3-.06-.43-.17s-.19-.26-.19-.43c0-.27.12-.46.36-.56.7-.3,1.27-.67,1.71-1.1.09-.09.14-.18.14-.27,0-.19-.14-.29-.41-.29h-1.78c-.14,0-.26-.05-.37-.15s-.16-.23-.16-.38c0-.14.05-.26.16-.37s.23-.16.37-.16h2.34c.3,0,.45-.13.45-.39s-.15-.38-.45-.38h-1.89c-.14,0-.26-.05-.36-.16s-.15-.23-.15-.37c0-.34.17-.51.51-.51h.29c.3,0,.45-.08.45-.25,0-.04-.03-.1-.08-.19-.05-.08-.08-.17-.08-.26,0-.16.06-.3.17-.41.11-.11.25-.17.41-.17.24,0,.41.1.52.29l.29.5c.2.34.5.51.9.51h.33c.41,0,.71-.17.9-.52l.25-.46c.13-.23.31-.35.54-.35.16,0,.3.06.42.17.12.12.18.26.18.43-.04.18-.08.29-.11.34-.04.05-.05.1-.05.15,0,.16.15.24.44.24h.36c.34,0,.51.17.51.51,0,.14-.05.26-.15.37s-.22.16-.36.16h-1.98c-.3,0-.45.12-.45.38s.15.39.45.39h2.48c.14,0,.26.05.37.16s.16.23.16.37ZM58.93,89.37c0,.76-.12,1.27-.37,1.54s-.73.4-1.45.4h-.84c-.17,0-.32-.06-.44-.19s-.19-.27-.19-.44c0-.18.06-.33.19-.46.12-.12.27-.19.44-.19h.33c.36,0,.6-.06.73-.17.12-.11.19-.36.19-.74v-4.98c0-.4-.2-.6-.6-.6h-2.37c-.8,0-1.2-.4-1.2-1.2v-2.55c0-.8.4-1.2,1.2-1.2h3.18c.8,0,1.2.4,1.2,1.2v9.59ZM57.52,80.13c0-.28-.14-.42-.42-.42h-1.98c-.28,0-.42.14-.42.42s.15.44.45.44h1.92c.3,0,.45-.15.45-.44ZM57.52,82c0-.29-.15-.44-.45-.44h-1.92c-.3,0-.45.15-.45.45h0c0,.29.14.44.42.44h1.95c.3,0,.45-.15.45-.45Z"/>
      <path class="cls-1" d="M74.2,85.23c0,2.64-1.49,4.4-4.47,5.27-.07.02-.13.03-.19.03-.2,0-.37-.07-.52-.22-.15-.15-.22-.32-.22-.52,0-.35.17-.58.53-.69,2.25-.7,3.38-1.99,3.38-3.87,0-.78-.23-1.4-.68-1.86-.45-.46-1.08-.69-1.88-.69-1.02,0-2.04.39-3.07,1.16-.56.42-.85,1.02-.87,1.81-.04,1.6-.07,3.16-.08,4.68,0,.2-.07.37-.22.52-.15.15-.32.22-.52.22s-.37-.08-.52-.23-.22-.32-.22-.52c0-.92.03-1.88.06-2.87,0-.36-.1-.54-.32-.54-.14,0-.28.1-.42.29-.35.48-.69.97-1.02,1.47-.15.22-.35.33-.6.33-.2,0-.37-.07-.52-.22-.15-.15-.22-.32-.22-.52,0-.17.04-.31.14-.44l1.4-1.88c.32-.42.67-.85,1.06-1.3.39-.44.59-.78.6-1.01,0-.26-.06-.45-.2-.58-.15-.12-.34-.17-.59-.13-.21.03-.71.12-1.5.27-.22.04-.42-.01-.59-.16-.18-.15-.26-.33-.26-.55,0-.4.21-.64.62-.71.34-.06.97-.16,1.89-.3.47-.07.71-.33.72-.8,0-.27,0-.72.03-1.36,0-.2.08-.37.22-.51.14-.14.31-.21.51-.21s.38.08.52.23c.15.16.22.33.21.53-.03.58-.06,1.35-.09,2.31-.01.4.12.6.39.6.14,0,.3-.06.49-.17,1.01-.59,2.03-.89,3.06-.89,1.23,0,2.19.36,2.9,1.07.7.71,1.05,1.69,1.05,2.92Z"/>
      <path class="cls-1" d="M88.73,87.01c0,1.46-.72,2.53-2.16,3.22-1.18.57-2.64.84-4.38.81l-1.04-.02c-.19,0-.35-.07-.49-.22-.14-.15-.21-.31-.21-.5,0-.2.07-.37.22-.52.15-.15.33-.21.54-.2.55.02.9.03,1.04.03,1.17,0,2.19-.17,3.06-.5,1.22-.45,1.83-1.16,1.83-2.13,0-.65-.25-1.14-.75-1.47-.41-.27-.96-.4-1.65-.4-.83,0-1.69.19-2.59.56s-1.65.86-2.26,1.45c-.33.32-.66.48-.98.48-.25,0-.45-.1-.59-.3-.15-.2-.21-.46-.19-.79l.3-4.64c.03-.46.27-.69.73-.69.22,0,.41.08.56.24s.21.34.19.55l-.19,2.52c-.03.43.1.65.39.65.14,0,.3-.05.48-.17,1.35-.85,2.78-1.27,4.29-1.27,1.14,0,2.04.26,2.71.78.75.57,1.12,1.41,1.12,2.52ZM85.22,80.79c0,.21-.07.39-.22.54-.15.15-.33.22-.55.22-.13,0-.23-.02-.3-.06-1.16-.54-2.5-1-4.03-1.38-.38-.09-.57-.32-.57-.71,0-.2.07-.37.22-.51.14-.14.31-.21.5-.21.08,0,.13,0,.17.02,1.49.34,2.92.79,4.31,1.36.32.13.48.37.48.72Z"/>
      <path class="cls-1" d="M104.62,81.16c0,.2-.07.37-.21.51-.14.14-.31.21-.51.21s-.74,0-1.62-.01c-.65-.01-1.17-.01-1.54,0-.49,0-.73.26-.73.76v.83c0,.32.1.88.3,1.69.08.33.12.65.12.96,0,2.65-1.48,4.39-4.43,5.22-.07.02-.14.03-.21.03-.2,0-.37-.07-.52-.21s-.22-.31-.22-.52c0-.35.17-.58.52-.69,1.42-.43,2.41-1.09,2.97-1.98.1-.16.15-.29.15-.41,0-.14-.08-.21-.23-.21-.09,0-.19.03-.31.09-.28.14-.58.21-.92.21-.74,0-1.33-.19-1.79-.56-.49-.41-.73-.98-.73-1.69s.27-1.33.83-1.79c.51-.41,1.15-.61,1.9-.61.18,0,.31,0,.41.01.43.05.65-.07.65-.36,0-.5-.26-.74-.77-.73-1.17.03-2.02.06-2.56.09-1.05.05-2.03.12-2.94.23-.21.02-.39-.04-.55-.19-.15-.15-.23-.32-.23-.53s.07-.37.2-.5.3-.21.49-.22c1.38-.08,3.24-.17,5.58-.27.48-.02.72-.25.72-.68v-.67c0-.21.08-.39.23-.55.15-.16.34-.23.55-.23s.39.07.54.22c.15.15.23.33.23.54v.57c0,.52.25.77.75.75.32-.01,1.38-.02,3.18-.02.2,0,.37.07.5.2s.2.3.2.5ZM98.41,85.45c.04-.14.06-.27.06-.39,0-.38-.16-.63-.48-.77-.17-.07-.37-.1-.6-.1-.34,0-.63.11-.86.33-.24.22-.35.5-.35.83,0,.69.36,1.03,1.1,1.03.6,0,.98-.31,1.14-.93ZM103.61,85.36c0,.16-.06.3-.17.41s-.25.17-.41.17c-.24,0-.42-.09-.52-.27-.29-.46-.6-.85-.93-1.18-.11-.11-.17-.25-.17-.41,0-.4.2-.6.58-.6.17,0,.32.08.45.23.42.47.77.91,1.05,1.32.08.12.12.23.12.33ZM105.44,84.51c0,.16-.06.3-.17.41s-.25.17-.41.17c-.23,0-.41-.09-.52-.27-.33-.49-.64-.89-.93-1.21-.11-.12-.17-.25-.17-.38,0-.4.2-.6.6-.6.15,0,.29.07.44.21.35.35.71.8,1.06,1.33.07.14.1.25.1.33Z"/>
      <path class="cls-1" d="M110.54,90.48c0,.24-.08.44-.24.6-.16.16-.36.24-.6.24-.26,0-.47-.1-.64-.3-.59-.71-1.19-1.32-1.78-1.83-.19-.16-.29-.36-.29-.6s.08-.42.23-.58.35-.23.58-.23c.2,0,.38.07.52.2.84.73,1.51,1.38,2.01,1.93.14.15.21.34.21.57Z"/>
      <path class="cls-1" d="M128.29,87.82c-.88,1.73-1.72,2.6-2.54,2.6-1,0-1.78-.89-2.33-2.67-.43-1.38-.64-2.94-.64-4.7,0-.9.03-1.67.09-2.32.02-.21.1-.38.25-.52.14-.14.32-.21.53-.21.23,0,.42.09.58.26.16.18.22.38.2.61-.07.67-.11,1.45-.11,2.33,0,1.15.12,2.29.38,3.42.28,1.25.65,1.88,1.11,1.88.33,0,.71-.45,1.12-1.35.13-.27.35-.4.67-.4.21,0,.39.07.53.22.14.15.22.32.22.53,0,.13-.03.25-.08.34ZM134.78,87.36c.03.24-.04.46-.2.65s-.37.29-.62.29c-.21,0-.39-.07-.55-.21s-.25-.31-.27-.51c-.25-2.27-.99-4.29-2.21-6.06-.09-.13-.13-.27-.13-.44,0-.22.07-.4.22-.55s.33-.23.55-.23c.27,0,.49.11.65.33,1.38,1.92,2.23,4.17,2.55,6.73Z"/>
      <path class="cls-1" d="M149.99,84.37c0,1.64-.77,2.92-2.31,3.84-1.14.69-2.65,1.16-4.53,1.4-.22.03-.42-.03-.58-.18-.17-.15-.25-.33-.25-.55,0-.19.07-.36.2-.5s.29-.23.46-.25c3.59-.46,5.38-1.71,5.38-3.75,0-1.44-.95-2.16-2.83-2.16-1.48,0-3.85.43-7.11,1.29-.07.02-.14.03-.21.03-.21,0-.39-.07-.55-.22-.16-.15-.23-.33-.23-.56,0-.41.2-.67.6-.77,3.48-.83,6-1.24,7.54-1.24,1.26,0,2.26.25,3,.73.95.63,1.42,1.6,1.42,2.9Z"/>
      <path class="cls-1" d="M164.41,87.63c0,1.1-.41,1.98-1.22,2.63-.82.66-1.93.98-3.35.98-2.81,0-4.21-1.19-4.21-3.57,0-.2,0-.49.03-.87.02-.45-.23-.73-.75-.84-.45-.03-.89-.06-1.33-.1-.18-.02-.33-.1-.45-.24s-.18-.3-.18-.48c0-.21.08-.39.25-.53s.35-.2.56-.17c.31.05.77.11,1.38.19.49.06.76-.17.83-.67l.06-.54c.06-.5-.17-.77-.67-.83-.24-.02-.57-.06-1-.12-.42-.06-.64-.29-.64-.7,0-.21.08-.39.25-.53.17-.14.35-.19.56-.17.2.03.54.07,1.04.12.49.05.76-.17.83-.66l.17-1.27c.06-.45.31-.67.75-.67.24,0,.44.09.59.27.16.18.21.38.17.61l-.17,1.05c-.04.26,0,.46.12.61s.3.21.55.2c.84-.02,1.6-.06,2.27-.14.2-.02.38.04.53.17.16.14.23.3.23.5,0,.18-.06.34-.18.47-.12.14-.27.21-.44.23-.92.1-1.83.15-2.71.15-.48,0-.75.23-.79.69l-.06.54c-.03.25.01.44.13.58s.3.21.55.21c.85,0,1.7-.06,2.54-.15.21-.02.39.04.55.17.15.13.23.31.23.52,0,.18-.06.34-.19.47-.12.14-.28.21-.46.23-.85.08-1.8.12-2.87.12-.51,0-.77.28-.79.84v.54c0,1.56.92,2.34,2.78,2.34.81,0,1.49-.18,2.04-.54.64-.42.96-1.01.96-1.79,0-.57-.13-1.15-.41-1.74-.06-.13-.09-.23-.09-.31,0-.21.08-.39.23-.53.15-.14.33-.21.54-.21.33,0,.56.15.69.44.38.83.57,1.66.57,2.48Z"/>
      <path class="cls-1" d="M180.38,80.01c0,.19-.07.35-.21.5-.14.14-.3.21-.49.21h-4.02c-.5,0-.75.25-.75.75v7.26c0,.89-.14,1.5-.42,1.81-.3.35-.89.52-1.77.52h-1.49c-.19,0-.36-.07-.5-.21-.14-.14-.21-.31-.21-.5s.07-.35.21-.5c.14-.14.3-.21.5-.21h1.25c.38,0,.63-.08.75-.24.11-.13.17-.39.17-.78v-7.17c0-.5-.25-.75-.75-.75h-4.54c-.19,0-.36-.07-.5-.21-.14-.14-.21-.3-.21-.5s.07-.35.21-.49c.14-.14.3-.21.5-.21h11.58c.19,0,.35.07.49.21.14.14.21.3.21.49Z"/>
      <path class="cls-1" d="M44.98,106.3c0,.17-.06.31-.18.43-.12.12-.26.17-.42.17h-4.63c-.4,0-.6.2-.6.6v.54c0,.63-.14,1.04-.42,1.25-.23.16-.68.24-1.33.24h-1.86c-.15,0-.28-.05-.39-.17-.11-.11-.17-.24-.17-.39,0-.16.05-.29.17-.41.11-.11.24-.17.39-.17h1.32c.31,0,.51-.04.61-.1.14-.09.21-.29.21-.6v-.19c0-.4-.2-.6-.6-.6h-4.94c-.16,0-.3-.06-.41-.17-.12-.11-.17-.26-.17-.43,0-.16.06-.3.17-.41.11-.11.25-.17.41-.17h12.24c.16,0,.3.06.42.17.12.12.18.25.18.41ZM44.57,99.69c0,.18-.06.33-.19.45-.13.12-.28.18-.46.18s-.33-.06-.46-.18c-.13-.12-.19-.27-.19-.45v-.42c0-.43-.22-.65-.65-.65h-4.47c.08.03.16.08.24.15.15.14.37.36.66.64.11.12.17.26.17.41,0,.17-.06.31-.18.43-.12.12-.27.17-.44.17s-.37-.11-.58-.33c-.15-.18-.31-.36-.47-.54-.1-.1-.15-.23-.15-.39,0-.27.13-.45.39-.54h-3.96c-.42,0-.63.21-.63.65v.41c0,.18-.07.33-.2.46s-.29.19-.46.19-.33-.06-.46-.19-.19-.28-.19-.46v-.95c0-.85.42-1.27,1.27-1.27h3.75c.4,0,.6-.18.6-.54,0-.2.07-.37.2-.5.13-.14.3-.2.5-.2s.37.07.51.2c.14.13.21.3.21.5,0,.36.2.54.6.54h3.73c.85,0,1.28.42,1.28,1.27v.96ZM43.82,104.07c0,.68-.34,1.02-1.01,1.02h-9.15c-.67,0-1-.34-1-1.02v-.75c0-.67.33-1,1-1h9.15c.67,0,1.01.33,1.01,1v.75ZM34.84,99.84c0,.11-.01.19-.04.25-.24.49-.59,1-1.05,1.54-.12.14-.27.21-.45.21-.16,0-.3-.05-.41-.17-.11-.11-.17-.25-.17-.41,0-.14.04-.26.14-.36.39-.44.68-.88.88-1.32.1-.23.27-.34.52-.34.16,0,.3.06.41.17.11.12.17.25.17.41ZM35.93,103.71v-.03c0-.3-.15-.45-.45-.45h-1.05c-.3,0-.45.16-.45.46s.15.46.45.46h1.05c.3,0,.45-.15.45-.45ZM41.26,100.38c-.07.56-.23.93-.48,1.12-.25.18-.7.28-1.36.28h-2.77c-.47,0-.78-.08-.93-.23s-.23-.48-.23-.98v-.86c0-.17.06-.32.19-.44.12-.12.27-.19.44-.19s.32.06.44.19c.12.13.18.27.18.44v.46c0,.25.02.41.06.47.06.09.21.13.45.13h1.86c.3,0,.51-.03.65-.09.17-.08.27-.25.31-.53.05-.31.25-.46.6-.46.18,0,.33.07.45.2.12.14.17.3.15.49ZM39.25,103.71v-.03c0-.3-.15-.45-.45-.45h-1.2c-.3,0-.45.15-.45.45v.03c0,.3.15.45.45.45h1.2c.3,0,.45-.15.45-.45ZM42.52,103.69c0-.31-.16-.46-.46-.46h-1.16c-.3,0-.45.15-.45.45v.03c0,.3.15.45.45.45h1.16c.31,0,.46-.15.46-.46ZM43.73,100.97c0,.17-.06.31-.18.43-.12.12-.27.17-.44.17-.19,0-.39-.13-.6-.39-.16-.22-.32-.44-.48-.65-.11-.12-.22-.24-.33-.36-.13-.16-.19-.3-.19-.43,0-.16.05-.3.17-.41.11-.11.24-.17.4-.17.17,0,.31.06.44.2.35.37.71.79,1.08,1.25.09.11.13.23.13.38Z"/>
      <path class="cls-1" d="M50.21,97.81c-.4,2.29-.6,4.46-.6,6.5,0,1.43.06,2.62.17,3.58.03.23-.04.43-.19.62-.16.18-.35.27-.58.27-.21,0-.39-.07-.54-.21s-.24-.31-.25-.51c-.1-.96-.15-2.18-.15-3.66,0-2.22.21-4.5.63-6.85.08-.43.33-.65.76-.65.24,0,.44.09.59.28.15.19.21.4.17.64ZM59.32,106.97c0,.18-.06.34-.19.49-.13.14-.29.23-.47.25-1.3.17-2.38.25-3.25.25-2.65,0-3.98-.8-3.98-2.4,0-.45.12-.91.38-1.38.14-.27.35-.41.63-.41.49,0,.73.24.73.71,0,.1-.03.25-.09.44-.06.2-.09.35-.09.47,0,.41.25.7.74.85.42.15,1.08.23,1.99.23.74,0,1.65-.08,2.73-.25.23-.04.43.02.61.17.17.16.26.35.26.58ZM58.79,99.03c0,.19-.06.35-.19.5s-.28.22-.47.25c-1.13.16-2.32.24-3.58.24-.56,0-1.17-.02-1.83-.06-.19,0-.35-.09-.49-.23-.14-.14-.21-.32-.21-.52,0-.22.08-.4.25-.55.17-.15.35-.21.56-.19.56.05,1.16.08,1.79.08,1.13,0,2.23-.09,3.31-.26.23-.04.43.02.61.17s.26.34.26.57Z"/>
      <path class="cls-1" d="M74.89,103.01c0,.19-.07.35-.2.48-.14.13-.3.2-.49.2-.2,0-.37-.07-.5-.2-.13-.13-.2-.29-.2-.48v-.65c0-.45-.22-.67-.67-.67h-8.56c-.45,0-.68.22-.68.67v.65c0,.19-.07.35-.2.48-.14.13-.3.2-.49.2-.2,0-.37-.07-.49-.2-.13-.13-.2-.29-.2-.48v-1.26c0-.88.44-1.32,1.31-1.32h.25c.3,0,.45-.09.45-.27,0-.09-.06-.21-.17-.35-.11-.14-.17-.29-.17-.43,0-.17.06-.32.19-.44.12-.12.27-.19.44-.19.2,0,.36.07.48.21.24.28.5.6.77.95.27.35.61.53,1.03.53h.59c.34,0,.51-.09.51-.27,0-.06-.02-.12-.08-.2l-.3-.45c-.07-.11-.1-.23-.1-.38,0-.18.06-.33.19-.46.13-.13.29-.19.47-.19.23,0,.41.09.54.28.19.29.41.65.66,1.08.22.39.54.58.95.58h.01c.42,0,.75-.17.99-.5.35-.49.64-.93.87-1.33.14-.24.33-.36.58-.36.19,0,.35.07.49.19.14.13.2.29.2.48,0,.11-.12.38-.38.79-.14.18-.21.34-.21.46,0,.17.13.26.4.26h.39c.88,0,1.32.44,1.32,1.32v1.26ZM74.9,108.7c0,.21-.08.39-.25.53-.17.14-.36.2-.57.16-1.87-.35-3.45-.83-4.74-1.46-.3-.14-.58-.21-.84-.21s-.52.07-.8.2c-1.31.63-2.8,1.13-4.48,1.5-.04,0-.1.01-.17.01-.2,0-.36-.07-.48-.21-.12-.14-.18-.31-.18-.51,0-.37.18-.59.55-.66,1.4-.28,2.64-.63,3.72-1.07.21-.09.31-.21.31-.36,0-.13-.07-.25-.21-.38-.67-.57-1.25-1.19-1.73-1.86-.11-.16-.35-.3-.73-.42-.29-.09-.44-.28-.44-.55,0-.4.2-.6.6-.6h7.14c.79,0,1.19.28,1.19.84,0,.32-.17.66-.5,1-.55.58-1.19,1.14-1.92,1.67-.16.12-.24.25-.24.38,0,.14.1.25.3.33,1.13.43,2.41.76,3.84.98.41.06.62.29.62.69ZM73.72,96.99c0,.35-.17.56-.52.62-2.74.48-5.88.78-9.41.9-.17.01-.32-.05-.45-.17-.13-.12-.19-.27-.19-.44s.06-.32.19-.44c.12-.12.27-.19.44-.19,3.55-.09,6.61-.39,9.19-.9.19-.04.36,0,.52.14.15.13.23.29.23.49ZM70.63,104.58c.13-.13.19-.24.19-.33,0-.15-.15-.22-.44-.22h-3.38c-.26,0-.39.09-.39.27,0,.09.04.19.13.29.42.44.81.8,1.17,1.08.21.16.42.24.63.24s.42-.08.66-.24c.63-.42,1.1-.78,1.41-1.08Z"/>
      <path class="cls-1" d="M81.61,104.58c-.39.95-.73,1.9-1.01,2.85-.14.48-.42.72-.82.72-.44,0-.73-.28-.85-.83-.27-1.13-.41-2.47-.41-4.04,0-1.69.17-3.55.51-5.58.07-.42.31-.63.73-.63.23,0,.42.09.58.27.15.18.21.38.17.61-.39,2.28-.58,4.1-.58,5.48v.87c0,.32.09.48.25.48.14,0,.26-.13.36-.39l.09-.22c.09-.22.25-.33.48-.33.15,0,.28.05.38.16.1.1.16.23.16.38,0,.06-.02.12-.04.19ZM90.28,100.17c0,.36-.21.61-.62.75,0,.01-.37.08-1.08.2-.45.08-.67.34-.67.79v1.12c0,2.68-1,4.63-3,5.85-.12.07-.25.1-.39.1-.21,0-.39-.08-.54-.22-.15-.15-.22-.33-.22-.54,0-.28.12-.5.36-.65.85-.53,1.46-1.18,1.83-1.96.33-.71.49-1.6.49-2.67v-.78c0-.51-.26-.75-.79-.72-.93.06-1.58.08-1.96.08h-.62c-.19-.01-.35-.08-.49-.23-.14-.14-.21-.3-.21-.49,0-.2.07-.37.22-.52.15-.15.33-.21.53-.2l.55.02c.51,0,1.18-.02,2-.08.5-.04.73-.31.71-.81l-.09-1.62c-.01-.21.06-.4.2-.56.15-.16.33-.24.55-.24.2,0,.37.07.52.2.15.13.22.3.23.5,0,.31.03.79.06,1.45.02.48.22.72.6.72.06,0,.12,0,.2-.03l.76-.18c.09-.02.15-.03.18-.03.19,0,.35.07.5.22.14.14.21.32.21.52Z"/>
      <path class="cls-1" d="M105.52,107.98c0,.2-.07.37-.2.51-.13.14-.3.21-.5.21h-11.94c-.2,0-.37-.07-.5-.21-.13-.14-.2-.31-.2-.51s.07-.37.2-.51c.14-.14.3-.21.5-.21h.75c.5,0,.75-.25.75-.75v-6.96c0-.2.07-.37.22-.52.14-.15.32-.22.52-.22s.37.07.52.22.22.32.22.52v6.96c0,.5.25.75.75.75h1.48c.5,0,.75-.25.75-.75v-9.42c0-.2.07-.38.22-.52s.32-.23.53-.23.37.08.52.23c.14.15.22.33.22.52v2.46c0,.5.25.75.75.75h2.94c.19,0,.35.07.5.21.14.14.21.3.21.5s-.07.35-.21.5c-.14.14-.31.21-.5.21h-2.94c-.5,0-.75.25-.75.75v4.05c0,.5.25.75.75.75h3.75c.2,0,.37.07.5.21.14.14.2.31.2.51Z"/>
      <path class="cls-1" d="M120.19,103.64c0,2.87-1.63,4.59-4.9,5.17-.23.04-.43-.02-.61-.17-.17-.15-.26-.33-.26-.55,0-.41.2-.65.58-.72,2.45-.47,3.68-1.72,3.68-3.75,0-1.73-.71-2.79-2.13-3.19-.14-.04-.27-.06-.38-.06h-.02c-.33,0-.54.2-.64.57-.48,1.76-1.04,3.24-1.7,4.42-1.03,1.88-2.17,2.82-3.42,2.82-.75,0-1.36-.31-1.82-.92-.46-.61-.7-1.38-.7-2.31,0-1.46.52-2.75,1.55-3.85.31-.33.46-.67.46-1,0-.13-.02-.27-.06-.41-.15-.6-.25-1.08-.31-1.44-.04-.22.01-.42.16-.59.14-.17.33-.26.55-.26.4,0,.63.21.71.61.04.22.09.53.17.93.07.33.23.5.49.5.11,0,.23-.03.36-.08.62-.25,1.21-.42,1.76-.5s.87-.33.94-.75c.02-.16.05-.39.1-.69.07-.43.32-.65.75-.65.23,0,.42.09.57.28.15.19.2.39.16.62l-.08.42c0,.07-.01.14-.01.21,0,.35.2.58.61.67,1.14.28,2,.83,2.58,1.67.57.79.85,1.79.85,2.99ZM111.32,106.27c.24-.23.36-.49.36-.76,0-.19-.05-.41-.17-.66-.28-.62-.54-1.3-.79-2.04-.09-.27-.24-.41-.44-.41-.14,0-.26.08-.38.25-.43.67-.64,1.42-.64,2.27,0,.48.11.89.32,1.24.23.38.52.57.88.57.24,0,.52-.15.85-.46ZM114.02,100.9c.02-.07.03-.14.03-.21,0-.35-.2-.49-.6-.42-.43.07-.86.21-1.3.43-.3.14-.45.36-.45.66,0,.09.02.2.06.32.19.62.39,1.19.6,1.71.12.29.27.43.45.43.14,0,.25-.08.31-.25.35-.79.65-1.68.9-2.67Z"/>
      <path class="cls-1" d="M135.19,98.34c0,.4-.27.64-.81.72-1.51.23-2.85.85-4.02,1.87-1.17,1.02-1.76,2.08-1.76,3.2,0,1.57,1.29,2.6,3.89,3.1.43.08.64.33.64.76,0,.24-.09.44-.28.6-.19.16-.4.22-.64.18-1.45-.25-2.62-.7-3.5-1.35-1.1-.8-1.65-1.86-1.65-3.18,0-1.06.36-2.04,1.09-2.94.29-.36.61-.68.96-.98.3-.25.45-.46.45-.64,0-.24-.25-.34-.77-.3-1.56.14-3.22.31-4.99.52-.22.03-.41-.03-.57-.18s-.24-.33-.24-.56c0-.19.06-.35.19-.49s.28-.22.47-.24c1.81-.18,5.34-.45,10.6-.81.27-.02.49.04.66.17.17.13.25.31.25.53Z"/>
      <path class="cls-1" d="M144.11,105.82c-.88,1.73-1.72,2.59-2.54,2.59-1,0-1.78-.89-2.33-2.67-.43-1.38-.64-2.94-.64-4.69,0-.9.03-1.67.09-2.33.02-.21.1-.38.25-.52.14-.14.32-.21.53-.21.23,0,.42.09.58.26.16.18.22.38.2.61-.07.67-.11,1.45-.11,2.33,0,1.15.12,2.29.38,3.42.28,1.25.65,1.88,1.11,1.88.33,0,.71-.45,1.12-1.35.13-.27.35-.41.67-.41.21,0,.39.07.53.22.14.14.22.32.22.53,0,.13-.03.25-.08.34ZM150.61,105.36c.03.24-.04.46-.2.65-.16.19-.37.28-.62.28-.21,0-.39-.07-.55-.21-.16-.14-.25-.31-.27-.51-.25-2.27-.99-4.29-2.21-6.06-.09-.13-.13-.27-.13-.43,0-.22.07-.41.22-.55.15-.15.33-.23.55-.23.27,0,.49.11.65.33,1.38,1.92,2.23,4.17,2.55,6.74Z"/>
      <path class="cls-1" d="M160.84,99.93c-.73.14-1.47.25-2.22.34-.41.05-.71.16-.89.32-.19.16-.32.43-.41.82-.56,2.37-1.25,4.65-2.08,6.83-.13.33-.38.5-.73.5-.22,0-.41-.08-.56-.23-.15-.16-.22-.34-.22-.55,0-.1.02-.2.06-.3.85-2.01,1.54-4.14,2.08-6.39.02-.08.03-.16.03-.23,0-.35-.21-.52-.63-.51s-.8,0-1.16,0c-.2,0-.37-.09-.52-.23s-.22-.32-.22-.52.08-.39.23-.54c.15-.15.34-.22.55-.21.57.02,1.03.03,1.38.01.56-.02.88-.29.96-.82.03-.22.08-.55.15-.98s.33-.65.76-.65c.21,0,.39.07.54.23.15.15.23.32.23.52,0,.1-.04.35-.12.75,0,.07-.01.13-.01.19,0,.4.22.57.66.5.06,0,.41-.08,1.05-.21.48-.09.81-.14.99-.14.21,0,.38.08.52.23.13.15.2.33.2.54,0,.41-.21.66-.62.74ZM165.58,107.82c0,.43-.21.67-.63.74-.95.14-1.95.21-3,.21-2.66,0-3.99-.75-3.99-2.24,0-.34.08-.73.25-1.17.12-.3.34-.45.67-.45.47,0,.71.24.71.72,0,.08-.01.19-.04.34-.03.15-.04.26-.04.34,0,.68.85,1.02,2.56,1.02.75,0,1.64-.08,2.67-.22.22-.03.42.03.58.17.17.15.26.33.26.55ZM165.16,102.24c0,.21-.08.39-.24.54-.16.15-.35.22-.56.21-1.49-.08-3.08-.04-4.78.11-.21.02-.39-.04-.55-.19-.16-.15-.23-.32-.23-.53,0-.19.06-.35.19-.49s.28-.21.46-.23c1.69-.17,3.35-.23,4.98-.18.2,0,.37.09.52.24.14.15.22.32.22.52Z"/>
      <path class="cls-1" d="M175.84,99.93c-.84.16-1.58.27-2.22.34-.41.05-.71.16-.89.32-.19.16-.32.43-.41.82-.6,2.63-1.3,4.91-2.08,6.83-.14.33-.39.5-.74.5-.22,0-.41-.08-.55-.23-.15-.16-.23-.34-.23-.55,0-.11.02-.21.06-.3.8-1.87,1.49-4,2.08-6.39.02-.08.03-.16.03-.23,0-.35-.21-.52-.63-.51s-.8,0-1.15,0c-.2,0-.37-.09-.52-.23-.15-.14-.22-.32-.22-.52s.08-.39.23-.54.34-.22.55-.21c.57.02,1.03.03,1.38.01.57-.02.89-.29.96-.82.03-.21.08-.53.15-.97.07-.44.33-.66.77-.66.21,0,.39.07.54.23.15.15.22.32.22.52,0,.1-.04.35-.12.75,0,.07-.01.13-.01.19,0,.4.22.57.66.5.06,0,.41-.08,1.05-.21.48-.09.81-.14.99-.14.21,0,.38.08.52.23.13.15.2.33.2.54,0,.41-.21.66-.62.74ZM180.58,107.82c0,.19-.06.36-.18.5s-.27.22-.45.24c-1.12.14-2.12.21-3,.21-2.66,0-3.99-.75-3.99-2.24,0-.36.08-.75.25-1.17.12-.3.35-.45.67-.45.48,0,.72.24.72.72,0,.08-.02.19-.06.34-.04.15-.06.26-.06.34,0,.68.86,1.02,2.58,1.02.67,0,1.56-.08,2.67-.22.22-.03.42.03.58.17.17.15.25.33.25.55ZM180.16,102.24c0,.21-.08.39-.24.54-.16.15-.34.22-.55.21-1.54-.11-3.13-.08-4.79.11-.21.02-.39-.04-.55-.19-.16-.15-.23-.32-.23-.53,0-.19.06-.35.19-.49s.28-.21.46-.23c1.99-.17,3.65-.23,4.98-.18.2,0,.37.09.52.24.15.15.22.32.22.52ZM179.44,99.61c0,.16-.06.3-.17.41-.12.11-.25.17-.41.17-.24,0-.42-.09-.53-.27-.29-.46-.6-.86-.93-1.18-.11-.11-.17-.25-.17-.41,0-.4.19-.6.58-.6.17,0,.32.08.45.23.42.47.77.91,1.05,1.32.08.12.12.23.12.33ZM181.27,98.76c0,.16-.06.3-.17.41-.12.12-.25.17-.41.17-.23,0-.41-.09-.53-.27-.33-.49-.64-.89-.93-1.21-.11-.12-.17-.25-.17-.38,0-.4.2-.6.6-.6.15,0,.29.07.43.21.35.35.71.8,1.07,1.33.07.14.11.25.11.33Z"/>
      <path class="cls-1" d="M40.91,123.82c-.88,1.73-1.73,2.59-2.54,2.59-1,0-1.77-.89-2.32-2.67-.43-1.38-.65-2.94-.65-4.69,0-.9.03-1.67.09-2.33.02-.21.1-.38.25-.53.15-.14.32-.21.53-.21.23,0,.42.09.58.26.16.17.22.38.2.61-.07.67-.1,1.45-.1,2.33,0,1.15.12,2.29.38,3.42.28,1.25.65,1.88,1.11,1.88.33,0,.71-.45,1.12-1.35.13-.27.35-.41.68-.41.21,0,.39.07.53.22.15.14.22.32.22.53,0,.13-.03.25-.08.34ZM47.41,123.36c.03.24-.04.46-.2.65-.16.19-.36.28-.61.28-.21,0-.4-.07-.56-.21-.16-.14-.25-.31-.27-.51-.25-2.27-.98-4.29-2.2-6.06-.09-.13-.14-.28-.14-.44,0-.22.08-.41.23-.55.15-.15.33-.23.55-.23.27,0,.49.11.65.33,1.38,1.92,2.23,4.17,2.55,6.74Z"/>
      <path class="cls-1" d="M62.29,116.34c0,.4-.27.64-.81.72-1.51.23-2.85.85-4.02,1.87-1.17,1.02-1.75,2.08-1.75,3.2,0,1.57,1.29,2.6,3.88,3.1.43.08.65.33.65.76,0,.24-.09.44-.28.6-.19.16-.4.22-.64.18-1.45-.25-2.62-.7-3.49-1.35-1.1-.8-1.65-1.86-1.65-3.18,0-1.06.37-2.04,1.1-2.94.29-.36.61-.68.96-.98.3-.25.45-.46.45-.64,0-.24-.26-.34-.77-.3-1.56.14-3.23.31-5,.52-.22.03-.41-.03-.57-.18-.16-.15-.24-.33-.24-.55,0-.19.06-.36.19-.5s.28-.22.47-.24c1.81-.18,5.34-.45,10.6-.81.27-.02.49.04.66.17.17.14.25.31.25.53Z"/>
      <path class="cls-1" d="M77.44,122.77c0,1.28-.45,2.3-1.35,3.06-.78.67-1.84,1.1-3.18,1.28-.21.03-.4-.03-.56-.17-.16-.14-.25-.32-.25-.53,0-.41.2-.65.6-.72,2.14-.37,3.21-1.36,3.21-2.97,0-1.11-.46-1.89-1.36-2.34-.12-.06-.24-.09-.35-.09-.26,0-.47.17-.63.5-.65,1.36-1.4,2.54-2.23,3.55-1.29,1.54-2.58,2.31-3.85,2.31-.66,0-1.17-.19-1.54-.56-.37-.38-.55-.89-.55-1.54,0-1.14.33-2.17,1-3.1.51-.71,1.15-1.29,1.9-1.74.45-.27.69-.64.72-1.12l.02-.29c.02-.46-.2-.69-.65-.69-.56,0-1.2,0-1.91-.02-.19,0-.35-.07-.49-.21-.14-.14-.2-.3-.2-.49s.07-.36.22-.5c.14-.14.32-.21.52-.2.92.04,1.6.05,2.06.04.41,0,.65-.22.71-.64l.09-.65c.06-.44.29-.66.71-.66.21,0,.4.09.56.27.16.18.23.37.19.55l-.04.29c-.04.24,0,.42.1.55.11.13.29.19.52.17,1.03-.08,2.19-.21,3.48-.41.21-.03.4.03.56.17.17.14.25.32.25.54,0,.41-.21.64-.63.69-1.57.19-2.86.31-3.85.38-.47.03-.72.25-.75.64-.02.24.03.41.16.52.12.11.31.14.55.11.39-.05.72-.08,1-.08,1.53,0,2.75.29,3.65.87,1.07.7,1.6,1.77,1.6,3.22ZM68.45,124.97c.45-.24.65-.71.6-1.43,0-.45-.02-.89-.03-1.33-.04-.7-.17-1.05-.39-1.05-.14,0-.3.08-.48.24-.39.34-.71.77-.94,1.29-.26.55-.39,1.1-.39,1.65,0,.59.25.89.73.89.28,0,.58-.08.9-.25ZM72.22,120.54c.05-.1.08-.19.08-.27,0-.25-.16-.37-.46-.34-.46.03-.8.11-1.02.24-.31.18-.47.48-.48.9-.01.38,0,.81.01,1.29,0,.3.12.45.31.45.14,0,.27-.08.39-.25.45-.63.84-1.3,1.17-2.01Z"/>
      <path class="cls-1" d="M85.43,120.16c-.52.89-.96,1.75-1.3,2.6-.15.36-.41.54-.77.54-.5,0-.79-.26-.87-.78-.09-.59-.13-1.47-.13-2.66s.17-2.59.51-4.21c.1-.49.36-.74.78-.74.21,0,.38.07.52.22.14.15.21.32.21.53,0,.06,0,.12-.02.18-.36,1.65-.55,2.89-.57,3.73-.01.33.06.5.23.5.13,0,.27-.12.42-.36l.08-.12c.1-.16.25-.24.45-.24.36,0,.54.18.54.54,0,.1-.02.19-.08.27ZM90.59,120.24c0,1.69-.31,3.08-.92,4.16-.64,1.12-1.69,2.07-3.15,2.83-.11.06-.23.09-.36.09-.21,0-.39-.08-.54-.25s-.23-.35-.23-.56c0-.28.14-.5.42-.65,1.22-.64,2.08-1.41,2.56-2.31.46-.83.69-1.96.69-3.38,0-1.29-.13-2.81-.4-4.54-.04-.23.02-.44.18-.62.16-.18.35-.28.58-.28.19,0,.36.07.5.2.14.13.23.29.26.48.26,1.87.39,3.48.39,4.83Z"/>
      <path class="cls-1" d="M104.08,120c0,1.62-.27,3.38-.79,5.28-.16.57-.33.98-.52,1.21-.27.36-.65.54-1.12.54-.55,0-1.24-.14-2.07-.43-.34-.12-.51-.34-.51-.67,0-.2.07-.37.22-.51.15-.14.31-.21.5-.21.08,0,.15.01.21.03.52.17.88.25,1.08.25.24,0,.41-.07.51-.21.08-.1.17-.33.27-.67.47-1.61.71-3.07.71-4.38,0-.48-.1-.8-.29-.96s-.55-.24-1.08-.24h-.21c-.09,0-.17.01-.23.01-.5,0-.82.26-.97.78-.67,2.27-1.56,4.46-2.67,6.58-.15.29-.38.44-.7.44-.22,0-.41-.08-.56-.23-.15-.15-.23-.34-.23-.56,0-.16.03-.29.09-.4.94-1.65,1.77-3.52,2.49-5.6.03-.1.04-.19.04-.27,0-.36-.22-.51-.65-.45-.31.05-.79.12-1.46.21-.21.03-.4-.03-.58-.17-.18-.15-.26-.33-.26-.55,0-.42.22-.66.66-.73.44-.06,1.13-.15,2.08-.26.48-.04.8-.34.98-.9.09-.49.17-.98.25-1.47.07-.43.32-.64.75-.64.24,0,.43.09.58.26.14.17.2.38.16.62-.01.05-.06.27-.13.66-.07.27-.1.49-.1.64,0,.42.23.62.7.58h.23c.76-.06,1.38.07,1.85.39.52.36.78,1.04.78,2.02ZM106.09,116.72c0,.16-.06.3-.17.41-.11.12-.25.17-.41.17-.24,0-.42-.09-.53-.27-.29-.46-.6-.85-.93-1.18-.11-.11-.17-.25-.17-.41,0-.4.19-.6.58-.6.17,0,.32.07.45.22.42.47.77.91,1.05,1.32.08.12.12.23.12.33ZM107.05,121.97c-.42-1.09-.99-2.16-1.7-3.2-.08-.12-.12-.25-.12-.41,0-.21.08-.39.23-.53.15-.14.34-.22.55-.22.25,0,.46.11.62.33.79,1.11,1.43,2.26,1.92,3.45.04.1.06.2.06.3,0,.21-.09.4-.26.55-.18.16-.37.24-.59.24-.33,0-.57-.17-.71-.52ZM107.92,115.86c0,.16-.06.3-.17.41-.11.12-.25.17-.41.17-.23,0-.4-.09-.52-.27-.33-.49-.64-.9-.93-1.22-.11-.12-.17-.24-.17-.38,0-.4.2-.6.6-.6.15,0,.29.07.44.21.35.35.71.79,1.06,1.33.07.14.11.25.11.33Z"/>
      <path class="cls-1" d="M121.97,125.61c0,.43-.21.67-.64.74-1.65.23-3.3.34-4.95.34-2.94,0-4.41-.88-4.41-2.66,0-1.08.75-2.2,2.27-3.36.3-.23.45-.5.45-.79,0-.14-.03-.29-.09-.45-.44-1.11-.8-2.3-1.09-3.58,0-.05-.01-.11-.01-.17,0-.22.08-.41.23-.56.15-.16.34-.23.56-.23.19,0,.36.06.5.19.15.13.24.29.28.48.19,1,.46,2,.82,3.01.12.33.31.5.57.5.14,0,.29-.04.43-.13.09-.05,1.2-.66,3.32-1.82.13-.07.25-.1.36-.1.21,0,.39.08.53.22.14.15.22.33.22.54,0,.31-.14.54-.42.67-1.23.61-2.56,1.33-3.99,2.16-.91.53-1.63,1.03-2.17,1.49-.78.67-1.17,1.28-1.17,1.83,0,.9.94,1.35,2.82,1.35,1.55,0,3.12-.13,4.73-.41.22-.04.42.02.6.17.18.15.27.34.27.57Z"/>
      <path class="cls-1" d="M136.79,121.35c0,1.54-.65,2.84-1.95,3.92-1.04.87-2.4,1.52-4.08,1.96-.08.02-.14.03-.18.03-.2,0-.37-.07-.52-.22s-.22-.32-.22-.53c0-.37.17-.61.52-.71,1.29-.37,2.35-.87,3.17-1.5,1.1-.83,1.65-1.8,1.65-2.91,0-1.34-.67-2.01-2.03-2.01s-3.08.35-5.11,1.06c-.09.03-.17.04-.24.04-.2,0-.38-.08-.53-.22-.15-.15-.22-.33-.22-.54,0-.37.18-.61.54-.72,2.35-.71,4.23-1.07,5.64-1.07,1.12,0,1.99.29,2.6.86.64.6.96,1.45.96,2.55ZM135.05,116.1c0,.22-.08.4-.24.55-.16.15-.34.21-.55.19-2.03-.18-3.63-.43-4.8-.75-.37-.1-.56-.34-.56-.72,0-.21.07-.39.22-.53.14-.14.32-.22.53-.22.06,0,.12,0,.2.03,1.33.36,2.83.6,4.51.72.19,0,.35.09.49.23.14.15.2.31.2.5Z"/>
      <path class="cls-1" d="M152.26,125.22c0,.42-.21.67-.62.75-1.58.29-3.1.43-4.57.43s-2.51-.11-3.33-.34c-1.34-.38-2.01-1.11-2.01-2.17,0-.73.48-1.57,1.43-2.52.13-.13.29-.2.49-.2s.36.07.5.2c.14.13.21.3.21.49,0,.18-.06.33-.19.46-.54.54-.81,1-.81,1.4,0,.83,1.27,1.25,3.81,1.25,1,0,2.41-.16,4.23-.47.22-.04.42.01.6.16.18.14.27.33.27.56ZM150.62,117.47c-.75.3-1.77.85-3.06,1.67-.13.08-.25.12-.34.12-.17,0-.32-.06-.44-.19-.12-.12-.19-.28-.19-.46,0-.23.1-.41.3-.53l.2-.12c.19-.11.29-.22.29-.33,0-.13-.15-.2-.44-.2-.9,0-2.13-.03-3.69-.09-.19,0-.35-.08-.49-.23-.14-.14-.2-.3-.2-.5,0-.21.08-.39.23-.53.16-.14.34-.21.55-.2,1.97.14,4.29.16,6.96.04.29,0,.52.06.7.21.17.15.26.33.26.54,0,.35-.21.61-.63.78ZM152.29,120.37c0,.16-.06.3-.17.41s-.25.17-.41.17c-.24,0-.42-.09-.53-.27-.29-.46-.6-.86-.93-1.18-.11-.11-.17-.25-.17-.41,0-.4.2-.6.58-.6.17,0,.32.08.45.23.42.47.77.91,1.05,1.32.08.12.12.23.12.33ZM154.12,119.52c0,.16-.06.3-.17.41-.12.12-.25.17-.41.17-.23,0-.41-.09-.53-.27-.33-.49-.64-.89-.93-1.21-.11-.12-.17-.25-.17-.38,0-.4.2-.6.6-.6.15,0,.29.07.44.21.35.35.71.79,1.06,1.33.07.14.11.25.11.33Z"/>
      <path class="cls-1" d="M166.82,116.98c0,.3-.14.52-.42.65,0,0-.58.22-1.72.66-.32.12-.48.29-.48.5,0,.12.05.25.17.39.71.96,1.45,1.82,2.21,2.58.21.21.32.44.32.7,0,.23-.08.43-.25.58-.17.16-.37.24-.62.24-.16,0-.33-.04-.5-.1-1.21-.54-2.45-.81-3.71-.81-.92,0-1.63.14-2.15.42-.51.28-.76.67-.76,1.16,0,1.13,1.22,1.7,3.66,1.7.97,0,1.94-.07,2.91-.21.21-.03.4.03.56.17.17.15.25.33.25.55,0,.18-.06.34-.19.47s-.27.21-.44.23c-.97.13-1.94.2-2.91.2-3.58,0-5.37-1-5.37-3,0-1.09.48-1.88,1.42-2.39.73-.39,1.7-.58,2.9-.58.55,0,1.09.07,1.62.2.17.04.31.06.42.06.21,0,.31-.07.31-.22,0-.12-.06-.25-.18-.41-.38-.46-.66-.81-.84-1.06-.33-.45-.72-.67-1.17-.67-.12,0-.25.01-.41.04-1.14.19-2.5.28-4.06.28-.2,0-.37-.07-.51-.21s-.21-.31-.21-.51.07-.37.21-.51c.14-.14.31-.21.51-.21,1.08,0,2.18-.07,3.3-.2.35-.04.52-.19.52-.45,0-.13-.04-.26-.13-.4l-.51-.84c-.07-.12-.11-.25-.11-.38,0-.2.07-.37.22-.52.14-.15.32-.22.52-.22.3,0,.52.13.66.39.34.66.55,1.05.64,1.17.32.46.66.69,1.02.69.12,0,.25-.02.41-.06.62-.19,1.24-.43,1.86-.72.1-.05.21-.08.32-.08.2,0,.37.07.51.22.14.15.21.32.21.52ZM167.96,116.13c0,.15-.05.28-.16.39-.1.11-.24.17-.4.17-.21,0-.46-.19-.75-.55l-.63-.84c-.11-.11-.17-.23-.17-.38,0-.38.19-.57.57-.57.15,0,.29.07.42.21.41.46.75.88,1,1.26.07.1.1.21.1.32ZM169.72,115.3c0,.15-.06.28-.17.39-.12.11-.25.17-.4.17-.22,0-.38-.08-.5-.25-.32-.47-.62-.86-.88-1.16-.1-.11-.15-.23-.15-.36,0-.38.19-.57.57-.57.13,0,.26.07.41.21.36.36.7.78,1.02,1.26.07.14.11.25.11.32Z"/>
      <path class="cls-1" d="M177.26,123.82c-.88,1.73-1.72,2.59-2.54,2.59-1,0-1.78-.89-2.33-2.67-.43-1.38-.64-2.94-.64-4.69,0-.9.03-1.67.09-2.33.02-.21.1-.38.25-.53.14-.14.32-.21.53-.21.23,0,.42.09.58.26s.22.38.2.61c-.07.67-.11,1.45-.11,2.33,0,1.15.12,2.29.38,3.42.28,1.25.65,1.88,1.11,1.88.33,0,.71-.45,1.12-1.35.13-.27.35-.41.67-.41.21,0,.39.07.53.22.14.14.22.32.22.53,0,.13-.03.25-.08.34ZM183.76,123.36c.03.24-.04.46-.2.65-.16.19-.37.28-.62.28-.21,0-.39-.07-.55-.21-.16-.14-.25-.31-.27-.51-.25-2.27-.99-4.29-2.21-6.06-.09-.13-.13-.28-.13-.44,0-.22.07-.41.22-.55.15-.15.33-.23.55-.23.27,0,.49.11.65.33,1.38,1.92,2.23,4.17,2.55,6.74Z"/>
      <path class="cls-1" d="M52.59,143.2c0,.21-.07.39-.22.53-.15.14-.32.22-.53.22-.14,0-.27-.03-.39-.1-1-.59-1.89-1.04-2.67-1.33-.1-.04-.19-.06-.27-.06-.29,0-.46.2-.51.6-.08.6-.28,1.04-.6,1.33-.5.45-1.4.67-2.69.67-.82,0-1.5-.16-2.04-.46-.66-.39-.99-.97-.99-1.74,0-.87.41-1.5,1.24-1.91.62-.3,1.42-.45,2.4-.45.11,0,.28,0,.51.01.52.02.78-.2.78-.66v-.42c0-.5-.25-.75-.76-.74-1.06.03-2.08.04-3.06.03-.18,0-.33-.07-.46-.2-.12-.14-.19-.29-.19-.47s.07-.33.2-.46c.13-.12.29-.19.47-.19.98.02,2,.02,3.04,0,.49,0,.74-.26.74-.76v-.06c0-.51-.26-.75-.78-.74-1.21.05-2.35.06-3.44.03-.18,0-.33-.08-.46-.22s-.19-.29-.19-.47c0-.19.07-.35.21-.48.14-.13.3-.19.5-.18,1.12.03,2.26.03,3.42,0,.49,0,.73-.25.73-.72,0-.04,0-.26-.02-.67,0-.2.07-.37.21-.52s.31-.22.51-.22.37.07.51.22.21.32.21.52v.51c0,.53.26.77.78.72.77-.08,1.61-.18,2.52-.31.2-.03.38.02.53.16.16.13.23.3.23.5,0,.38-.2.59-.59.64-1.08.14-1.99.25-2.74.32-.48.05-.72.31-.72.78v.04c0,.53.26.77.78.72.53-.05,1.26-.15,2.2-.29.2-.03.38.02.54.16.16.13.24.3.24.5,0,.39-.19.61-.57.66-.8.11-1.63.21-2.48.28-.48.04-.72.3-.72.78v.67c0,.55.27.92.83,1.1,1.02.33,2.13.81,3.34,1.45.26.14.39.36.39.66ZM46.58,142.62c.07-.5-.13-.77-.6-.81-.22-.02-.44-.03-.65-.03-1.44,0-2.16.34-2.16,1.04,0,.28.14.5.41.67.27.17.64.25,1.09.25.67,0,1.14-.08,1.41-.23.27-.15.43-.45.49-.89Z"/>
      <path class="cls-1" d="M67.67,140.97c0,.14-.04.27-.12.4-.68,1.11-1.5,2-2.45,2.66-1.07.73-2.21,1.09-3.4,1.09-2.63,0-3.94-1.19-3.94-3.57,0-.97.02-2.25.06-3.83.03-1.28.06-2.67.08-4.17,0-.21.08-.39.24-.55.16-.15.34-.23.55-.23s.41.08.57.24c.16.16.23.35.22.57l-.18,7.63c0,1.57.83,2.35,2.49,2.35.89,0,1.75-.31,2.56-.94.7-.52,1.31-1.22,1.85-2.08.15-.25.38-.38.67-.38.22,0,.41.08.56.23.16.16.23.34.23.56Z"/>
      <path class="cls-1" d="M78.57,135.93c-.73.14-1.47.25-2.22.34-.41.05-.71.16-.89.32-.19.16-.32.43-.41.82-.56,2.37-1.25,4.65-2.08,6.83-.13.33-.38.5-.73.5-.22,0-.4-.08-.56-.23-.15-.16-.22-.34-.22-.55,0-.1.02-.2.06-.3.85-2.01,1.54-4.14,2.08-6.39.02-.08.03-.16.03-.23,0-.35-.21-.52-.63-.51s-.81,0-1.16,0c-.2,0-.37-.09-.52-.23-.15-.14-.22-.32-.22-.52s.08-.39.23-.54c.16-.15.34-.22.55-.21.57.02,1.03.03,1.38.01.56-.02.88-.29.96-.82.03-.22.08-.55.15-.98.07-.44.32-.65.77-.65.21,0,.39.08.54.23.15.15.23.33.23.52,0,.1-.04.35-.12.75-.01.07-.02.14-.02.2,0,.4.22.57.66.5.06,0,.41-.08,1.05-.21.48-.09.81-.13.99-.13.21,0,.38.08.52.22.14.15.2.33.2.54,0,.41-.21.66-.61.74ZM83.31,143.82c0,.43-.21.67-.63.74-.95.14-1.95.21-3,.21-2.66,0-3.99-.75-3.99-2.24,0-.34.08-.73.26-1.17.12-.3.34-.45.67-.45.47,0,.71.24.71.72,0,.08-.02.19-.04.34-.03.15-.04.26-.04.34,0,.68.85,1.02,2.56,1.02.75,0,1.64-.08,2.67-.22.22-.03.41.03.58.17.17.15.25.33.25.55ZM82.89,138.24c0,.21-.08.39-.24.54-.16.15-.35.22-.56.21-1.49-.08-3.08-.04-4.79.11-.21.02-.39-.04-.55-.19-.16-.15-.23-.32-.23-.53,0-.19.06-.35.19-.49.12-.13.28-.21.46-.23,1.69-.17,3.35-.23,4.98-.18.2,0,.37.09.52.24.14.15.22.32.22.52Z"/>
      <path class="cls-1" d="M89.88,143.51c0,.61-.21,1.13-.65,1.55-.43.42-.95.64-1.56.64s-1.13-.21-1.55-.64c-.43-.42-.64-.94-.64-1.55s.21-1.13.64-1.56c.42-.43.94-.64,1.55-.64s1.13.21,1.56.64c.43.43.65.95.65,1.56ZM88.82,143.51c0-.32-.11-.59-.33-.81-.22-.22-.49-.33-.81-.33s-.58.11-.8.34c-.22.22-.33.49-.33.8s.11.57.33.79c.22.21.48.32.8.32s.59-.1.81-.31c.22-.21.33-.48.33-.79Z"/>
    </g>
    <g>
      <path class="cls-1" d="M136.83,160.36c-.54.12-1.07.21-1.58.29-.6.1-1,.43-1.2.99-.75,2.14-1.59,4.18-2.54,6.11-.15.31-.4.46-.74.46-.22,0-.42-.08-.58-.24-.16-.16-.24-.35-.24-.58,0-.13.03-.26.1-.38.9-1.73,1.67-3.48,2.32-5.25.04-.12.06-.22.06-.3,0-.33-.22-.5-.67-.5h-.91c-.21,0-.39-.08-.54-.23s-.22-.34-.22-.55c0-.22.08-.41.24-.57s.35-.23.58-.22c.47.02.91.03,1.31.02.65-.01,1.06-.34,1.22-.98.08-.36.18-.73.27-1.09.16-.41.42-.61.78-.61.22,0,.42.08.58.24s.24.35.24.56c0,.09-.05.32-.16.69-.03.13-.05.24-.05.34,0,.32.14.48.43.48.05,0,.11,0,.18-.02l.83-.18c.1-.02.16-.03.19-.03.21,0,.39.08.52.23.13.15.2.34.2.57,0,.41-.2.65-.61.74ZM142.89,168.28c0,.21-.08.4-.23.56-.16.16-.34.24-.57.24-.14,0-.28-.05-.43-.14-.35-.23-.73-.46-1.12-.67-.13-.08-.25-.11-.35-.11-.26,0-.44.19-.54.56-.31,1.08-1.26,1.62-2.85,1.62-.84,0-1.55-.18-2.11-.54-.67-.42-1.01-1.02-1.01-1.82s.31-1.39.94-1.81c.54-.36,1.23-.54,2.06-.54.23,0,.5.02.8.06.25.03.43,0,.57-.11.13-.11.2-.29.2-.54l-.02-2.34c0-.21.08-.4.22-.55.15-.15.33-.23.54-.23s.39.07.54.22.22.33.22.54l.02,2.69c0,.59.29,1.01.88,1.28.51.24,1.12.56,1.82.98.27.16.4.38.4.67ZM138.23,167.84c0-.45-.26-.71-.77-.8-.31-.05-.58-.08-.82-.08-.97,0-1.46.34-1.46,1.02,0,.31.13.55.39.73.26.18.6.26,1.02.26.75,0,1.23-.18,1.46-.54.12-.19.18-.39.18-.59ZM143.03,161.15c0,.21-.08.4-.23.55s-.34.23-.55.23c-.15,0-.29-.05-.43-.14-.81-.54-1.67-1.01-2.58-1.39-.3-.13-.45-.36-.45-.7,0-.21.08-.39.23-.54.16-.15.33-.22.54-.22.12,0,.21.02.29.06,1,.43,1.94.92,2.82,1.49.25.16.37.38.37.67Z"/>
      <path class="cls-1" d="M158.86,165.9c0,1.27-.49,2.25-1.46,2.93-.83.59-1.94.92-3.31.99-.21.01-.4-.06-.56-.2-.16-.14-.24-.32-.24-.54,0-.19.06-.36.19-.5.13-.14.29-.23.48-.25,2.18-.21,3.26-1.02,3.26-2.43,0-.61-.26-1.1-.77-1.46-.51-.37-1.17-.55-1.98-.55s-1.53.07-2.22.21c-.55.11-.83.46-.83,1.06v3.38c0,.93-.45,1.39-1.34,1.39s-1.74-.26-2.62-.78c-1.01-.61-1.53-1.3-1.54-2.06,0-.57.3-1.17.9-1.8.6-.63,1.39-1.2,2.37-1.69.49-.25.74-.62.74-1.14v-.98c0-.48-.25-.71-.74-.7-.86.02-1.53.02-2,0-.19,0-.36-.09-.5-.23-.14-.14-.21-.31-.21-.5,0-.21.08-.39.22-.54.15-.14.33-.21.54-.2.64.03,1.3.04,1.97.02.47,0,.7-.26.7-.74v-1.09c0-.2.07-.38.22-.53s.33-.22.53-.22.38.07.53.22c.15.15.22.33.22.53v.88c0,.51.26.73.77.66.35-.05.77-.12,1.26-.21.22-.04.43,0,.61.15.18.14.27.33.27.57,0,.42-.21.66-.62.74-.47.06-.94.13-1.41.19-.59.14-.88.41-.88.82v.74c0,.43.19.64.58.64.07,0,.15,0,.22-.02.73-.14,1.43-.21,2.13-.21,1.29,0,2.34.27,3.14.82.92.62,1.38,1.5,1.38,2.66ZM149.91,167.4v-1.65c0-.43-.16-.64-.48-.64-.13,0-.26.04-.4.13-.98.6-1.47,1.18-1.47,1.74,0,.33.25.63.75.9.47.26.82.38,1.06.38.36,0,.54-.29.54-.86ZM159.15,160.68c0,.21-.07.4-.22.56s-.33.24-.54.24-.38-.07-.53-.21c-.6-.55-1.3-1.05-2.11-1.47-.27-.14-.4-.36-.4-.66,0-.21.07-.39.22-.54s.33-.22.53-.22c.13,0,.25.03.35.08.9.46,1.71,1,2.43,1.63.18.16.27.36.27.59Z"/>
      <path class="cls-1" d="M174.33,168.19c0,.46-.22.73-.66.8-1.75.31-3.38.46-4.88.46s-2.68-.12-3.55-.37c-1.43-.41-2.14-1.18-2.14-2.32,0-.78.51-1.67,1.52-2.69.14-.14.31-.21.53-.21.2,0,.38.07.53.22.15.14.22.32.22.52,0,.18-.07.35-.21.5-.58.6-.86,1.09-.86,1.49,0,.89,1.35,1.33,4.06,1.33,1.29,0,2.79-.17,4.51-.5.23-.04.45.01.64.17.19.16.29.35.29.6ZM172.59,159.92c-.9.35-1.98.94-3.26,1.78-.13.08-.25.13-.37.13-.18,0-.34-.07-.47-.2-.13-.13-.2-.3-.2-.49,0-.25.11-.43.32-.56l.21-.13c.2-.12.3-.23.3-.35,0-.14-.16-.21-.46-.21-1.17.02-2.49,0-3.94-.1-.2-.01-.38-.09-.52-.24-.14-.15-.22-.33-.22-.53,0-.22.08-.41.25-.57.17-.15.36-.23.58-.22,2.55.15,5.02.17,7.42.05.31-.01.56.06.74.22.19.16.28.35.28.58,0,.37-.22.65-.67.83Z"/>
    </g>
  </g>
</svg>