<?xml version="1.0" encoding="UTF-8"?>
<svg xmlns="http://www.w3.org/2000/svg" viewBox="0 0 286.1 187">
  <defs>
    <style>
      .cls-1 {
        fill: #5b5b5b;
      }

      .cls-2 {
        fill: #f3fcff;
        stroke: #cecece;
        stroke-linecap: round;
        stroke-linejoin: round;
        stroke-width: 7px;
      }
    </style>
  </defs>
  <g id="_レイヤー_1" data-name="レイヤー 1">
    <path class="cls-2" d="M117.77,147.26c18.12,41.17,113.2,53.28,120.42,4.36,39.24,13.64,65.62-44.45,21.39-73.93,5.18-70.12-61.16-74.62-86.06-44.74-7.4-41.61-101.67-38.64-106.97,5.84-102.51,1.42-74.88,166.93,45.67,124.09"/>
  </g>
  <g id="_レイヤー_2" data-name="レイヤー 2">
    <g>
      <path class="cls-1" d="M188.71,153.47c0,.98-.27,1.78-.81,2.41s-1.29,1.01-2.25,1.15c-.37.06-.7.26-1,.6-.5.58-1.22,1.06-2.17,1.43-.06.02-.13.04-.2.04-.14,0-.27-.05-.38-.16-.11-.11-.17-.24-.17-.4,0-.26.12-.44.36-.53.46-.17.84-.38,1.16-.62.13-.1.19-.2.19-.32,0-.16-.11-.3-.34-.43-.38-.23-.71-.54-.97-.94-.06-.1-.1-.2-.1-.31,0-.36.18-.54.53-.54.2,0,.35.08.44.23.3.47.59.71.88.71.23,0,.36-.15.4-.44.04-.38.06-.76.06-1.12,0-.66-.01-1.29-.04-1.88-.02-.43-.18-.65-.48-.65-.1,0-.2.02-.32.07-.68.26-1.3.76-1.87,1.5-.54.7-.93,1.49-1.16,2.39-.06.25-.1.55-.1.91,0,.17-.06.32-.17.44s-.25.19-.42.19-.3-.05-.41-.16c-.11-.11-.17-.24-.18-.4-.09-2.36-.05-4.5.11-6.43.02-.16.08-.29.2-.4.12-.1.25-.16.41-.16.18,0,.32.07.44.2.12.14.17.29.14.47-.09.73-.15,1.47-.18,2.23,0,.24.05.36.18.36.1,0,.2-.08.3-.23.73-1.08,1.64-1.78,2.75-2.11.42-.12.62-.36.6-.71v-.28c-.02-.18.03-.33.15-.46.12-.13.27-.2.45-.2.16,0,.3.05.42.16s.18.24.19.4v.24c.03.36.23.56.61.6.78.09,1.4.38,1.88.86.57.58.85,1.34.85,2.29ZM187.54,153.52c0-1.1-.48-1.78-1.43-2.04-.06-.02-.12-.02-.18-.02-.31,0-.46.2-.46.6.02.78.02,1.41.02,1.91,0,.58-.02,1.02-.05,1.32-.04.35.08.53.35.53.06,0,.13-.01.2-.04,1.02-.36,1.54-1.11,1.54-2.26Z"/>
      <path class="cls-1" d="M200.22,152.18c0,.26-.12.43-.37.52-.53.18-1.01.33-1.44.43-.26.06-.38.19-.38.37,0,.1.04.21.12.32.39.54.76,1.01,1.09,1.39.11.13.17.27.17.43,0,.18-.06.34-.19.47s-.28.2-.47.2c-.1,0-.19-.02-.28-.05-1.06-.42-2.06-.64-3-.64-1.54,0-2.3.36-2.3,1.09s.97,1.07,2.9,1.07c.66,0,1.42-.04,2.26-.13.16-.02.3.03.43.14.13.11.19.24.19.4,0,.33-.17.51-.5.54-.76.08-1.56.12-2.4.12-2.7,0-4.04-.7-4.04-2.11s1.08-2.1,3.24-2.1c.5,0,1.09.08,1.76.23.06.02.12.02.17.02.16,0,.24-.06.24-.17,0-.08-.04-.17-.12-.28-.04-.06-.15-.2-.32-.44-.22-.3-.48-.44-.8-.44-.1,0-.2,0-.32.02-1.11.15-2.33.22-3.66.2-.14,0-.27-.05-.37-.16-.1-.1-.15-.23-.15-.37s.05-.27.16-.38c.1-.11.23-.16.37-.15.99.03,2.05-.01,3.18-.13.3-.03.46-.15.46-.36,0-.1-.03-.19-.1-.28-.19-.33-.47-.47-.83-.43-.69.08-1.48.12-2.38.12-.14,0-.26-.05-.37-.16-.11-.1-.16-.22-.16-.36,0-.14.05-.27.16-.37.11-.1.23-.15.37-.15.66,0,1.28-.01,1.85-.06.34-.03.5-.14.5-.32,0,0-.07-.18-.22-.53-.02-.06-.04-.12-.04-.19,0-.16.06-.3.17-.41.11-.12.25-.17.42-.17.26,0,.44.13.54.38.03.1.09.24.17.44.12.3.32.46.6.46.07,0,.15-.01.23-.04.56-.14,1.12-.32,1.68-.52.06-.02.12-.04.18-.04.15,0,.28.05.39.16.11.1.16.23.16.38,0,.27-.13.45-.38.53-.59.19-1.11.34-1.56.44-.29.06-.43.2-.43.4,0,.09.03.18.1.26l.02.04c.17.26.37.38.61.38.06,0,.13,0,.2-.02.63-.15,1.22-.33,1.78-.54.04-.02.1-.02.17-.02.15,0,.28.05.39.16.11.1.16.23.16.38Z"/>
      <path class="cls-1" d="M208.36,151.54c-.41.09-.8.16-1.19.22-.45.07-.75.32-.9.74-.56,1.61-1.2,3.14-1.91,4.58-.11.23-.3.35-.55.35-.17,0-.31-.06-.43-.18-.12-.12-.18-.26-.18-.43,0-.1.02-.19.07-.29.67-1.3,1.25-2.61,1.74-3.94.03-.09.05-.16.05-.23,0-.25-.17-.37-.5-.37h-.68c-.16,0-.3-.06-.41-.17-.11-.12-.17-.25-.17-.41s.06-.31.18-.43.26-.17.43-.16c.35.02.68.02.98.01.49,0,.79-.25.91-.73.06-.27.13-.54.2-.82.12-.3.32-.46.59-.46.17,0,.31.06.43.18s.18.26.18.42c0,.06-.04.24-.12.52-.02.1-.04.18-.04.25,0,.24.11.36.32.36.04,0,.08,0,.13-.01l.62-.13c.07-.02.12-.02.14-.02.16,0,.29.06.39.17.1.12.15.26.15.43,0,.3-.15.49-.46.55ZM212.9,157.48c0,.16-.06.3-.17.42s-.26.18-.43.18c-.1,0-.21-.04-.32-.11-.26-.18-.54-.34-.84-.5-.1-.06-.18-.08-.26-.08-.19,0-.33.14-.41.42-.23.81-.94,1.21-2.14,1.21-.63,0-1.16-.14-1.58-.41-.5-.31-.76-.77-.76-1.37s.24-1.04.71-1.36c.41-.27.92-.41,1.55-.41.18,0,.38.02.6.05.18.02.33,0,.43-.08.1-.08.15-.22.15-.41v-1.75c-.01-.16.04-.3.16-.41.11-.12.25-.17.41-.17s.3.06.41.17.17.25.17.41v2.02c.01.44.23.76.67.96.38.18.84.42,1.37.73.2.12.3.29.3.5ZM209.41,157.15c0-.34-.19-.54-.58-.6-.23-.04-.44-.06-.61-.06-.73,0-1.09.26-1.09.77,0,.23.1.41.29.55.2.13.45.2.76.2.56,0,.92-.14,1.09-.41.09-.14.13-.29.13-.44ZM213.01,152.13c0,.16-.06.3-.17.41s-.25.17-.41.17c-.11,0-.22-.04-.32-.11-.61-.41-1.25-.76-1.93-1.04-.22-.1-.34-.27-.34-.53,0-.16.06-.3.17-.41.12-.11.25-.17.4-.17.09,0,.16.02.22.05.75.32,1.46.69,2.11,1.12.18.12.28.29.28.5Z"/>
    </g>
    <g>
      <path class="cls-1" d="M117.1,41.12c0,.16-.06.3-.17.41s-.24.17-.4.17h-.55c-.36,0-.54.18-.54.54v.8c0,.17-.06.31-.18.44-.12.12-.26.19-.43.19s-.31-.06-.44-.19-.19-.27-.19-.44v-.8c0-.36-.18-.54-.54-.54h-2.99c-.7,0-1.06-.25-1.06-.74,0-.24.09-.49.28-.74l3.7-5.21c.26-.37.6-.55,1-.55.25,0,.45.09.61.26.16.17.24.41.24.7v4.61c0,.36.18.54.54.54h.55c.15,0,.28.06.4.17.11.11.17.24.17.4ZM114.2,40.02v-3.29c0-.22-.06-.34-.17-.34-.06,0-.14.06-.23.18l-2.4,3.41c-.12.17-.18.29-.18.37,0,.14.16.2.48.2h1.96c.36,0,.54-.18.54-.54Z"/>
      <path class="cls-1" d="M129.16,39.68c0,1.29-.04,2.13-.11,2.53-.2,1.14-.67,1.7-1.42,1.7-.42,0-.93-.06-1.52-.18-.3-.06-.46-.24-.46-.54,0-.15.05-.28.16-.39s.23-.16.38-.16c.11,0,.28.02.5.07.22.05.39.07.5.07.34,0,.55-.18.65-.54.11-.41.17-1.3.17-2.68v-.22c0-.31-.05-.52-.16-.61-.11-.1-.35-.14-.71-.14h-1.27c-.34,0-.53.17-.58.52-.13.93-.35,1.72-.66,2.39-.46.98-1.17,1.78-2.12,2.42-.08.06-.18.08-.31.08-.16,0-.29-.05-.4-.16-.11-.11-.16-.24-.16-.4,0-.2.08-.36.24-.47.68-.48,1.2-1.03,1.56-1.66.34-.58.57-1.29.71-2.15.06-.38-.1-.58-.5-.58h-1.75c-.15,0-.28-.05-.38-.16s-.16-.24-.16-.39c0-.14.05-.27.16-.37s.23-.16.38-.16h1.85c.35,0,.53-.18.54-.53,0-.41.01-.69.01-.84s.05-.28.16-.4c.11-.11.24-.17.4-.17.15,0,.28.06.4.17.11.12.17.25.17.4v.82c0,.36.18.54.53.54h1.97c.84,0,1.26.42,1.26,1.26v.9Z"/>
      <path class="cls-1" d="M141.19,42.45c0,.68-.13,1.14-.39,1.38-.26.24-.74.36-1.45.36h-1.19c-.14,0-.27-.05-.37-.16s-.16-.24-.16-.39.05-.28.16-.38c.1-.1.23-.15.37-.15h1.04c.34,0,.57-.06.68-.17s.17-.34.17-.67v-1.13c0-.36-.18-.54-.54-.54h-3.77c-.33,0-.52.17-.58.5-.18,1.09-.57,2.05-1.15,2.89-.13.18-.3.28-.5.28-.17,0-.31-.06-.43-.18-.12-.12-.18-.26-.18-.42,0-.11.04-.22.11-.32.78-1.16,1.16-2.54,1.16-4.14v-3.88c0-.82.41-1.22,1.22-1.22h4.56c.82,0,1.22.41,1.22,1.22v7.12ZM140.06,36.33v-.56c0-.39-.2-.59-.59-.59h-3.58c-.39,0-.59.2-.59.59v.56c0,.32.16.48.48.48h3.79c.32,0,.48-.16.48-.48ZM140.06,39.07v-.74c0-.32-.16-.48-.48-.48h-3.79c-.32,0-.48.16-.48.48v.74c0,.32.16.48.48.48h3.79c.32,0,.48-.16.48-.48Z"/>
      <path class="cls-1" d="M86.8,52.08c0,.64-.32.96-.96.96h-1.82c-.32,0-.48.16-.48.48v5.27c0,.15-.06.28-.17.39-.11.11-.24.16-.4.16s-.28-.05-.4-.16c-.11-.11-.17-.24-.17-.39v-8.75c0-.64.32-.96.96-.96h2.47c.64,0,.96.32.96.96v2.04ZM85.72,50.31c0-.22-.11-.34-.34-.34h-1.51c-.22,0-.34.11-.34.34s.12.35.36.35h1.46c.24,0,.36-.12.36-.35ZM85.72,51.84h0c0-.25-.12-.37-.36-.37h-1.46c-.24,0-.36.12-.36.35s.12.36.36.36h1.49c.22,0,.34-.11.34-.34ZM89.7,57.15c0,.64-.32.96-.96.96h-2.77c-.64,0-.96-.32-.96-.96v-2.44c0-.64.32-.96.96-.96h2.77c.64,0,.96.32.96.96v2.44ZM88.69,55.15v-.14c0-.26-.15-.4-.46-.4h-1.75c-.3,0-.46.13-.46.4v.14c0,.24.12.36.36.36h1.94c.24,0,.36-.12.36-.36ZM88.69,56.82v-.18c0-.24-.12-.36-.36-.36h-1.94c-.24,0-.36.12-.36.36v.18c0,.26.15.4.46.4h1.75c.3,0,.46-.13.46-.4ZM92.36,57.66c0,.61-.1,1.02-.29,1.23-.2.21-.58.32-1.16.32h-1.03c-.14,0-.25-.05-.35-.15-.1-.1-.15-.22-.15-.35,0-.14.05-.27.15-.37.1-.1.22-.15.35-.15h.62c.29,0,.48-.05.58-.14.1-.09.15-.29.15-.59v-3.94c0-.32-.16-.48-.48-.48h-1.9c-.64,0-.96-.32-.96-.96v-2.04c0-.64.32-.96.96-.96h2.54c.64,0,.96.32.96.96v7.62ZM91.24,50.31c0-.22-.11-.34-.34-.34h-1.58c-.22,0-.34.11-.34.34s.12.35.36.35h1.54c.24,0,.36-.12.36-.35ZM91.24,51.81c0-.23-.12-.35-.36-.35h-1.54c-.24,0-.36.12-.36.36h0c0,.24.11.35.34.35h1.56c.24,0,.36-.12.36-.36Z"/>
      <path class="cls-1" d="M104.35,55.57c0,1.02-.36,1.84-1.08,2.45-.62.54-1.47.88-2.54,1.02-.17.02-.32-.02-.45-.14-.13-.12-.2-.26-.2-.43,0-.33.16-.52.48-.58,1.71-.3,2.57-1.09,2.57-2.38,0-.89-.36-1.51-1.09-1.87-.1-.05-.19-.07-.28-.07-.21,0-.38.13-.5.4-.52,1.09-1.12,2.04-1.79,2.84-1.03,1.23-2.06,1.85-3.08,1.85-.53,0-.94-.15-1.23-.45s-.44-.71-.44-1.23c0-.91.27-1.74.8-2.48.41-.57.92-1.03,1.52-1.39.36-.22.55-.52.58-.9v-.23c.03-.37-.14-.55-.5-.55-.45,0-.96,0-1.52-.01-.15,0-.28-.06-.39-.17-.11-.11-.16-.24-.16-.4s.06-.28.17-.4c.12-.11.25-.16.41-.16.74.03,1.28.04,1.64.04.33,0,.52-.18.56-.52l.07-.52c.05-.35.24-.53.56-.53.17,0,.32.07.44.22s.18.29.16.44l-.04.23c-.03.19,0,.34.08.44.09.1.23.15.42.13.82-.06,1.75-.17,2.78-.32.17-.02.32.02.45.13.13.11.2.26.2.43,0,.33-.17.51-.5.55-1.26.15-2.28.25-3.08.3-.38.02-.58.2-.6.52-.02.19.03.33.13.41s.25.11.44.09c.31-.04.58-.06.8-.06,1.22,0,2.2.23,2.92.7.86.56,1.28,1.42,1.28,2.58ZM97.17,57.32c.36-.19.52-.57.48-1.14,0-.36-.02-.72-.02-1.07-.03-.56-.14-.84-.31-.84-.11,0-.24.06-.38.19-.31.27-.56.62-.76,1.03-.21.44-.31.88-.31,1.32,0,.47.2.71.59.71.22,0,.46-.07.72-.2ZM100.18,53.78c.04-.08.06-.15.06-.22,0-.2-.12-.29-.37-.28-.37.02-.64.09-.82.19-.25.14-.38.38-.38.72,0,.3,0,.65.01,1.03,0,.24.09.36.25.36.11,0,.22-.07.31-.2.36-.5.67-1.04.94-1.61Z"/>
      <path class="cls-1" d="M110.75,53.48c-.42.71-.76,1.4-1.04,2.08-.12.29-.32.43-.61.43-.4,0-.63-.21-.7-.62-.07-.47-.11-1.18-.11-2.12s.14-2.08.41-3.37c.08-.39.29-.59.62-.59.17,0,.31.06.42.17.11.12.17.26.17.43,0,.05,0,.1-.01.14-.29,1.32-.44,2.32-.46,2.99,0,.26.05.4.18.4.1,0,.22-.1.34-.29l.06-.1c.08-.13.2-.19.36-.19.29,0,.43.14.43.43,0,.08-.02.15-.06.22ZM114.88,53.54c0,1.35-.24,2.46-.73,3.32-.51.9-1.35,1.65-2.52,2.27-.09.05-.18.07-.29.07-.17,0-.31-.07-.43-.2-.12-.13-.18-.28-.18-.45,0-.22.11-.4.34-.52.98-.51,1.66-1.13,2.05-1.85.37-.66.55-1.56.55-2.7,0-1.03-.11-2.24-.32-3.64-.03-.18.02-.35.14-.5s.28-.22.47-.22c.15,0,.29.05.4.16.12.1.19.23.21.38.21,1.5.31,2.78.31,3.86Z"/>
      <path class="cls-1" d="M125.66,53.35c0,1.3-.21,2.7-.64,4.22-.13.46-.27.78-.42.97-.22.29-.52.43-.9.43-.44,0-.99-.12-1.66-.35-.27-.1-.41-.28-.41-.54,0-.16.06-.3.17-.41.12-.11.25-.17.4-.17.06,0,.12,0,.17.02.42.14.7.2.86.2.19,0,.33-.06.41-.17.06-.08.14-.26.22-.54.38-1.29.56-2.46.56-3.5,0-.38-.08-.64-.23-.77-.15-.13-.44-.19-.86-.19h-.17c-.07,0-.13.01-.18.01-.4,0-.66.21-.78.62-.54,1.82-1.25,3.57-2.14,5.27-.12.23-.31.35-.56.35-.18,0-.32-.06-.44-.19s-.18-.27-.18-.45c0-.13.02-.24.07-.32.75-1.32,1.42-2.81,1.99-4.48.02-.08.04-.15.04-.22,0-.29-.17-.41-.52-.36-.25.04-.64.1-1.16.17-.17.02-.32-.02-.46-.14-.14-.12-.21-.26-.21-.44,0-.34.18-.53.53-.58.35-.05.91-.12,1.67-.21.38-.03.64-.27.78-.72.07-.39.14-.78.2-1.18.06-.34.26-.52.6-.52.19,0,.35.07.46.21.12.14.16.31.13.5,0,.04-.04.22-.11.53-.06.22-.08.39-.08.52,0,.34.19.49.56.47h.18c.61-.05,1.1.06,1.48.31.42.29.62.83.62,1.62ZM127.27,50.72c0,.13-.05.24-.14.33s-.2.14-.33.14c-.19,0-.33-.07-.42-.22-.23-.37-.48-.68-.74-.95-.09-.09-.13-.2-.13-.32,0-.32.16-.48.47-.48.14,0,.26.06.36.18.34.38.62.73.84,1.06.06.1.1.18.1.26ZM128.04,54.92c-.34-.87-.79-1.72-1.36-2.56-.06-.1-.1-.2-.1-.32,0-.17.06-.31.19-.43.12-.12.27-.17.44-.17.2,0,.36.09.49.26.63.89,1.14,1.81,1.54,2.76.03.08.05.16.05.24,0,.17-.07.32-.21.44-.14.13-.3.19-.47.19-.26,0-.45-.14-.56-.42ZM128.74,50.04c0,.13-.05.24-.14.33s-.2.14-.33.14c-.18,0-.32-.07-.42-.22-.26-.39-.51-.72-.74-.97-.09-.1-.13-.2-.13-.3,0-.32.16-.48.48-.48.12,0,.24.06.35.17.28.28.56.64.85,1.07.06.11.08.2.08.26Z"/>
      <path class="cls-1" d="M139.98,57.84c0,.34-.17.54-.52.59-1.32.18-2.64.28-3.96.28-2.35,0-3.53-.71-3.53-2.12,0-.86.6-1.76,1.81-2.69.24-.18.36-.4.36-.64,0-.11-.02-.23-.07-.36-.35-.89-.64-1.84-.88-2.87,0-.04-.01-.08-.01-.13,0-.18.06-.33.19-.45s.27-.19.45-.19c.15,0,.29.05.4.16.12.1.19.23.22.38.15.8.37,1.6.66,2.41.1.26.25.4.46.4.11,0,.23-.04.35-.11.07-.04.96-.52,2.65-1.45.1-.06.2-.08.29-.08.17,0,.31.06.43.18.12.12.17.26.17.43,0,.25-.11.43-.34.54-.98.49-2.05,1.06-3.19,1.73-.73.42-1.31.82-1.74,1.19-.62.54-.94,1.02-.94,1.46,0,.72.75,1.08,2.26,1.08,1.24,0,2.5-.11,3.78-.32.18-.03.34.01.48.13s.22.27.22.46Z"/>
      <path class="cls-1" d="M151.84,54.43c0,1.23-.52,2.28-1.56,3.13-.83.7-1.92,1.22-3.26,1.57-.06.02-.11.02-.14.02-.16,0-.3-.06-.41-.17-.12-.12-.17-.26-.17-.43,0-.3.14-.48.42-.56,1.03-.3,1.88-.7,2.53-1.2.88-.66,1.32-1.44,1.32-2.33,0-1.07-.54-1.61-1.62-1.61s-2.47.28-4.09.85c-.07.02-.14.04-.19.04-.16,0-.3-.06-.42-.18-.12-.12-.18-.26-.18-.43,0-.3.14-.49.43-.58,1.88-.57,3.38-.85,4.51-.85.9,0,1.59.23,2.08.68.51.48.77,1.16.77,2.04ZM150.44,50.23c0,.18-.06.32-.19.44-.13.12-.28.17-.44.15-1.62-.14-2.9-.34-3.84-.6-.3-.08-.44-.27-.44-.58,0-.17.06-.31.17-.43.12-.12.26-.17.43-.17.05,0,.1,0,.16.02,1.06.29,2.27.48,3.61.58.15,0,.28.07.39.19.11.12.16.25.16.4Z"/>
      <path class="cls-1" d="M164.21,57.53c0,.34-.16.54-.49.6-1.26.23-2.48.35-3.66.35s-2.01-.09-2.66-.28c-1.07-.3-1.61-.88-1.61-1.74,0-.58.38-1.26,1.14-2.02.1-.1.24-.16.4-.16s.28.05.4.16c.11.11.17.24.17.39,0,.14-.05.27-.16.37-.43.43-.65.8-.65,1.12,0,.66,1.02,1,3.05,1,.8,0,1.93-.12,3.38-.37.18-.03.34.01.48.13.14.12.22.27.22.45ZM162.9,51.32c-.6.24-1.42.68-2.45,1.33-.1.06-.2.1-.28.1-.14,0-.25-.05-.35-.15-.1-.1-.15-.22-.15-.37,0-.18.08-.32.24-.42l.16-.1c.15-.09.23-.18.23-.26,0-.1-.12-.16-.35-.16-.72,0-1.7-.02-2.95-.07-.15,0-.28-.07-.39-.18s-.16-.24-.16-.4c0-.17.06-.31.19-.43.12-.12.27-.17.44-.16,1.58.11,3.43.12,5.57.04.23,0,.42.05.56.17.14.12.21.26.21.43,0,.28-.17.49-.5.62ZM164.23,53.65c0,.13-.05.24-.14.33-.09.09-.2.14-.33.14-.19,0-.33-.07-.42-.22-.23-.37-.48-.68-.74-.95-.09-.09-.13-.2-.13-.32,0-.32.16-.48.47-.48.14,0,.26.06.36.18.34.38.62.73.84,1.06.06.1.1.18.1.26ZM165.7,52.97c0,.13-.05.24-.14.33s-.2.14-.33.14c-.18,0-.32-.07-.42-.22-.26-.39-.51-.72-.74-.97-.09-.1-.13-.2-.13-.3,0-.32.16-.48.48-.48.12,0,.24.06.35.17.28.28.56.64.85,1.07.06.11.08.2.08.26Z"/>
      <path class="cls-1" d="M175.86,50.94c0,.24-.11.41-.34.52,0,0-.47.18-1.38.53-.26.1-.38.23-.38.4,0,.1.04.2.13.31.57.77,1.16,1.46,1.76,2.06.17.17.25.36.25.56,0,.18-.07.34-.2.47-.13.13-.3.19-.5.19-.13,0-.26-.03-.4-.08-.97-.43-1.96-.65-2.96-.65-.74,0-1.31.11-1.72.34-.41.22-.61.53-.61.92,0,.9.98,1.36,2.93,1.36.78,0,1.55-.06,2.33-.17.17-.02.32.02.45.14.13.12.2.26.2.44,0,.14-.05.27-.15.38-.1.11-.22.17-.35.19-.78.1-1.55.16-2.33.16-2.86,0-4.3-.8-4.3-2.4,0-.87.38-1.51,1.14-1.91.58-.31,1.36-.47,2.32-.47.44,0,.87.05,1.3.16.14.03.25.05.34.05.17,0,.25-.06.25-.18,0-.1-.05-.2-.14-.32-.3-.37-.53-.65-.67-.85-.26-.36-.58-.54-.94-.54-.1,0-.2.01-.32.04-.91.15-2,.23-3.25.23-.16,0-.3-.06-.41-.17-.11-.11-.17-.25-.17-.41s.06-.3.17-.41c.11-.11.25-.17.41-.17.86,0,1.74-.05,2.64-.16.28-.03.42-.15.42-.36,0-.1-.04-.21-.11-.32l-.41-.67c-.06-.1-.08-.2-.08-.3,0-.16.06-.3.17-.41.12-.12.25-.17.41-.17.24,0,.42.1.53.31.27.53.44.84.52.94.26.37.53.55.82.55.1,0,.2-.02.32-.05.5-.15.99-.34,1.49-.58.08-.04.16-.06.25-.06.16,0,.3.06.41.17.11.12.17.25.17.41ZM176.77,50.25c0,.12-.04.22-.13.31s-.19.13-.32.13c-.17,0-.37-.15-.6-.44-.17-.22-.34-.45-.5-.67-.09-.09-.13-.19-.13-.3,0-.3.15-.46.46-.46.12,0,.23.06.34.17.33.37.6.7.8,1.01.06.08.08.16.08.25ZM178.18,49.59c0,.12-.05.22-.14.31-.09.09-.2.13-.32.13-.18,0-.31-.07-.4-.2-.26-.38-.49-.68-.71-.92-.08-.09-.12-.18-.12-.29,0-.3.15-.46.46-.46.1,0,.21.06.32.17.29.29.56.62.82,1.01.06.11.08.2.08.25Z"/>
      <path class="cls-1" d="M184.21,56.41c-.7,1.38-1.38,2.08-2.03,2.08-.8,0-1.42-.71-1.86-2.14-.34-1.1-.52-2.36-.52-3.76,0-.72.02-1.34.07-1.86.02-.17.08-.31.2-.42.12-.11.26-.17.43-.17.18,0,.34.07.46.21s.18.3.16.49c-.06.54-.08,1.16-.08,1.86,0,.92.1,1.83.3,2.74.22,1,.52,1.5.89,1.5.26,0,.56-.36.9-1.08.1-.22.28-.32.54-.32.17,0,.31.06.43.17.12.12.17.26.17.43,0,.1-.02.2-.06.28ZM189.41,56.04c.02.19-.03.36-.16.52-.13.15-.29.23-.49.23-.17,0-.32-.06-.44-.17-.13-.11-.2-.25-.22-.41-.2-1.82-.79-3.43-1.76-4.85-.07-.1-.11-.22-.11-.35,0-.18.06-.32.18-.44.12-.12.27-.18.44-.18.22,0,.39.09.52.26,1.1,1.54,1.78,3.33,2.04,5.39Z"/>
      <path class="cls-1" d="M201.05,57.51c0,.17-.06.31-.17.43-.12.12-.26.17-.43.17-.11,0-.22-.03-.31-.08-.8-.47-1.51-.83-2.14-1.07-.08-.03-.15-.05-.22-.05-.23,0-.37.16-.41.48-.06.48-.22.84-.48,1.07-.4.36-1.12.54-2.15.54-.66,0-1.2-.12-1.63-.37-.53-.31-.79-.78-.79-1.39,0-.7.33-1.2,1-1.52.5-.24,1.14-.36,1.92-.36.09,0,.22,0,.41.01.42.02.62-.16.62-.53v-.34c0-.4-.2-.6-.61-.59-.85.02-1.66.03-2.45.02-.14,0-.27-.05-.37-.16-.1-.11-.15-.23-.15-.38s.05-.27.16-.37c.11-.1.23-.15.38-.15.78.02,1.6.02,2.44,0,.39,0,.59-.21.59-.61v-.05c0-.41-.21-.6-.62-.59-.97.04-1.88.05-2.75.02-.14,0-.27-.07-.37-.17-.1-.11-.16-.23-.16-.38,0-.15.06-.28.17-.38.11-.1.24-.15.4-.14.9.02,1.81.02,2.74,0,.39,0,.59-.2.59-.58,0-.03,0-.21-.01-.54,0-.16.06-.3.17-.41.11-.12.25-.17.41-.17s.3.06.41.17c.11.12.17.25.17.41v.41c0,.42.21.62.62.58.62-.06,1.29-.15,2.02-.25.16-.02.3.02.43.13s.19.24.19.4c0,.3-.16.48-.47.52-.86.11-1.6.2-2.2.25-.38.04-.58.25-.58.62v.04c0,.42.21.62.62.58.42-.04,1.01-.12,1.76-.23.16-.02.3.02.43.13.13.11.19.24.19.4,0,.31-.15.49-.46.53-.64.09-1.3.16-1.98.23-.38.03-.58.24-.58.62v.54c0,.44.22.73.66.88.82.26,1.71.65,2.68,1.16.21.11.31.29.31.53ZM196.24,57.05c.06-.4-.1-.62-.48-.65-.18-.02-.35-.02-.52-.02-1.15,0-1.73.28-1.73.83,0,.22.11.4.33.54.22.14.51.2.87.2.54,0,.91-.06,1.13-.19s.35-.36.4-.71Z"/>
      <path class="cls-1" d="M213.11,55.73c0,.11-.03.22-.1.32-.54.89-1.2,1.6-1.96,2.12-.86.58-1.76.88-2.72.88-2.1,0-3.16-.95-3.16-2.86,0-.78.02-1.8.05-3.06.02-1.02.04-2.14.06-3.34,0-.17.06-.31.19-.44s.28-.19.44-.19.33.06.46.19.19.28.18.46l-.14,6.11c0,1.26.66,1.88,1.99,1.88.71,0,1.4-.25,2.05-.76.56-.42,1.05-.97,1.48-1.67.12-.2.3-.3.54-.3.18,0,.33.06.45.19s.19.27.19.45Z"/>
      <path class="cls-1" d="M55.41,66.69c-.58.11-1.18.2-1.78.28-.33.04-.57.12-.71.25-.15.13-.26.35-.33.66-.45,1.9-1,3.72-1.67,5.46-.1.26-.3.4-.59.4-.18,0-.32-.06-.44-.19s-.18-.27-.18-.44c0-.08.02-.16.05-.24.68-1.61,1.24-3.31,1.67-5.11.02-.06.02-.12.02-.18,0-.28-.17-.42-.5-.41-.34,0-.64,0-.92,0-.16,0-.3-.07-.41-.19-.12-.12-.17-.25-.17-.41s.06-.31.19-.43c.12-.12.27-.18.44-.17.46.02.82.02,1.1.01.45-.02.7-.24.77-.66.02-.18.06-.44.12-.79.06-.35.26-.52.61-.52.17,0,.31.06.43.18s.18.26.18.42c0,.08-.03.28-.1.6,0,.06-.01.11-.01.16,0,.32.18.45.53.4.05,0,.33-.06.84-.17.38-.07.65-.11.79-.11.17,0,.31.06.41.18s.16.26.16.43c0,.33-.16.52-.49.59ZM59.2,73.01c0,.34-.17.54-.5.59-.76.11-1.56.17-2.4.17-2.13,0-3.19-.6-3.19-1.79,0-.27.07-.58.2-.94.1-.24.28-.36.54-.36.38,0,.56.19.56.58,0,.06-.01.15-.04.27-.02.12-.04.21-.04.27,0,.54.68.82,2.05.82.6,0,1.31-.06,2.14-.18.18-.02.33.02.47.14.14.12.2.26.2.44ZM58.87,68.54c0,.17-.06.31-.19.43-.13.12-.28.18-.44.17-1.19-.06-2.47-.04-3.83.08-.17.02-.31-.03-.44-.15-.12-.12-.19-.26-.19-.43,0-.15.05-.28.15-.39s.22-.17.37-.19c1.35-.14,2.68-.18,3.98-.14.16,0,.3.07.41.19.12.12.17.26.17.42Z"/>
      <path class="cls-1" d="M65.29,72.85c0,.24-.08.44-.24.61-.16.16-.36.25-.6.25s-.44-.08-.61-.25c-.17-.16-.25-.37-.25-.61s.08-.44.25-.61c.17-.16.37-.25.61-.25s.43.08.59.25c.16.17.25.37.25.6ZM69.22,65.21c0,.13-.04.26-.11.38l-3.1,5.46c-.11.19-.27.29-.48.29-.15,0-.28-.06-.4-.17-.11-.11-.17-.24-.17-.4,0-.07.02-.15.06-.23l2.7-5.66c.14-.3.38-.46.7-.46.22,0,.4.08.56.23.16.15.23.34.23.55Z"/>
      <path class="cls-1" d="M78.39,71.41c-.7,1.38-1.38,2.08-2.03,2.08-.8,0-1.42-.71-1.86-2.14-.34-1.1-.52-2.36-.52-3.76,0-.72.02-1.34.07-1.86.02-.17.08-.31.2-.42.12-.11.26-.17.43-.17.18,0,.34.07.46.21s.18.3.16.49c-.06.54-.08,1.16-.08,1.86,0,.92.1,1.83.3,2.74.22,1,.52,1.5.89,1.5.26,0,.56-.36.9-1.08.1-.22.28-.32.54-.32.17,0,.31.06.43.17.12.12.17.26.17.43,0,.1-.02.2-.06.28ZM83.59,71.04c.02.19-.03.36-.16.52-.13.15-.29.23-.49.23-.17,0-.32-.06-.44-.17-.13-.11-.2-.25-.22-.41-.2-1.82-.79-3.43-1.76-4.85-.07-.1-.11-.22-.11-.35,0-.18.06-.32.18-.44s.27-.18.44-.18c.22,0,.39.09.52.26,1.1,1.54,1.78,3.33,2.04,5.39Z"/>
      <path class="cls-1" d="M95.76,68.65c0,1.31-.62,2.34-1.85,3.07-.91.55-2.12.92-3.62,1.12-.18.02-.33-.02-.47-.14s-.2-.27-.2-.44c0-.15.05-.29.16-.4.1-.12.23-.18.37-.2,2.87-.37,4.31-1.37,4.31-3,0-1.15-.76-1.73-2.27-1.73-1.18,0-3.08.34-5.69,1.03-.06.02-.11.02-.17.02-.17,0-.31-.06-.44-.18-.12-.12-.19-.27-.19-.44,0-.33.16-.53.48-.61,2.78-.66,4.8-1,6.04-1,1.01,0,1.81.2,2.4.59.76.5,1.14,1.28,1.14,2.32Z"/>
      <path class="cls-1" d="M107.29,71.25c0,.88-.33,1.58-.98,2.11s-1.55.79-2.68.79c-2.25,0-3.37-.95-3.37-2.86,0-.16,0-.39.02-.7.02-.36-.18-.58-.6-.67-.36-.02-.72-.05-1.07-.08-.14-.02-.26-.08-.36-.19-.1-.11-.14-.24-.14-.38,0-.17.07-.31.2-.43.13-.12.28-.16.45-.14.25.04.62.09,1.1.16.39.05.61-.13.66-.54l.05-.43c.05-.4-.13-.62-.54-.66-.19-.02-.46-.05-.8-.1-.34-.05-.51-.24-.51-.56,0-.17.07-.31.2-.42.13-.11.28-.16.45-.13.16.02.44.06.83.1.39.04.61-.14.66-.53l.13-1.02c.05-.36.25-.54.6-.54.19,0,.35.07.47.22s.17.31.14.49l-.13.84c-.03.21,0,.37.1.49.1.12.24.17.44.16.67-.02,1.28-.05,1.81-.11.16-.02.3.03.43.14.12.11.19.24.19.4,0,.14-.05.27-.14.38s-.21.17-.35.19c-.74.08-1.46.12-2.17.12-.38,0-.6.18-.64.55l-.05.43c-.02.2.01.36.11.47.1.11.24.17.44.17.68,0,1.36-.05,2.03-.12.17-.02.31.03.44.14s.19.25.19.41c0,.14-.05.27-.15.38-.1.11-.22.17-.37.19-.68.06-1.44.1-2.29.1-.41,0-.62.22-.64.67v.43c0,1.25.74,1.87,2.22,1.87.65,0,1.19-.14,1.63-.43.51-.34.77-.81.77-1.43,0-.46-.11-.92-.32-1.39-.05-.1-.07-.19-.07-.25,0-.17.06-.31.18-.42.12-.11.26-.17.43-.17.26,0,.45.12.55.35.3.66.46,1.32.46,1.98Z"/>
      <path class="cls-1" d="M112.44,64.35s0,.08-.02.14c-.14.55-.3,1.04-.46,1.48-.14.4-.22.8-.22,1.19v6.78c0,.15-.05.29-.16.4-.11.12-.24.17-.39.17s-.28-.06-.4-.17c-.11-.11-.17-.24-.17-.4v-4.39c0-.18-.05-.26-.16-.26-.07,0-.14.06-.2.17l-.16.29c-.08.15-.23.23-.46.23-.15,0-.28-.05-.38-.16-.1-.1-.16-.23-.16-.38,0-.1.03-.21.1-.31,1.1-1.76,1.82-3.4,2.18-4.92.06-.26.23-.38.5-.38.15,0,.28.05.38.16s.16.23.16.37ZM120.12,69.62c0,.15-.05.28-.16.38-.1.1-.23.15-.37.15h-.02s.12.13.24.26c.07.08.11.18.11.31,0,.12-.04.22-.13.31s-.19.13-.32.13c-.15,0-.27-.05-.35-.14l-.7-.82c-.09-.1-.13-.2-.13-.3,0-.12.04-.22.13-.31s.19-.13.31-.13.22.04.3.12l.02.02v-.35c0-.21-.1-.31-.31-.31h-2.22c.2.18.3.33.3.46,0,.27-.14.41-.41.41-.14,0-.26-.05-.34-.16-.03-.04-.12-.14-.28-.29-.06-.06-.1-.15-.1-.26,0-.06,0-.11.02-.16h-2.02c-.21,0-.31.1-.31.31v.4c.09-.1.19-.14.31-.14.29,0,.43.14.43.43,0,.1-.03.18-.08.26-.25.35-.52.67-.8.96-.08.08-.18.12-.3.12s-.22-.04-.31-.13-.13-.19-.13-.31c0-.11.06-.24.19-.38.11-.1.22-.21.32-.32-.06.02-.12.02-.16.02-.15,0-.28-.05-.38-.15s-.16-.23-.16-.38v-.47c0-.58.25-.86.74-.86.22,0,.34-.14.34-.42v-1.52c0-.56.28-.84.84-.84h.86c.21,0,.34-.08.38-.24.05-.15-.07-.23-.36-.23h-2.06c-.13,0-.24-.05-.32-.14-.09-.09-.13-.2-.13-.33s.04-.24.13-.33c.09-.09.2-.14.32-.14h6.48c.13,0,.24.05.33.14.09.09.14.2.14.33s-.05.24-.14.33c-.09.09-.2.14-.33.14h-2.56c-.21,0-.34.08-.38.23-.05.16.07.24.35.24h1.27c.56,0,.84.28.84.84v1.52c0,.28.1.42.29.42.28,0,.48.07.59.2.11.14.17.36.17.66v.47ZM120.03,73.82c0,.15-.06.28-.17.37-.11.1-.24.13-.4.1-1.04-.21-1.94-.45-2.7-.72-.17-.06-.33-.1-.48-.1-.17,0-.35.04-.55.12-.83.32-1.74.56-2.71.73-.14.02-.26,0-.37-.1-.11-.09-.16-.21-.16-.34,0-.27.13-.42.4-.46h.1c.59-.08,1.19-.21,1.79-.38.16-.05.24-.13.24-.24,0-.1-.06-.18-.17-.26-.02-.02-.06-.06-.12-.1-.15-.12-.3-.18-.44-.18-.1,0-.21.03-.31.08l-.67.34s-.11.04-.18.04c-.11,0-.21-.04-.3-.12-.09-.08-.13-.18-.13-.29,0-.19.09-.32.26-.4.88-.35,1.64-.79,2.27-1.31h-.24c-.37,0-.55-.2-.55-.6v-.46c0-.13.04-.24.13-.33.09-.09.2-.14.32-.14.12,0,.22.05.31.14.09.09.13.2.13.33v.17c0,.2.09.3.26.3h1.18c.18,0,.31-.02.38-.07.07-.04.12-.15.14-.32.03-.24.18-.36.44-.36.13,0,.24.05.32.14.09.1.12.21.11.35-.04.32-.12.54-.25.66-.13.12-.36.18-.68.18h-1.22l.04.07c.06.24.17.36.31.36h1.51c.52,0,.78.17.78.5,0,.22-.12.43-.37.62-.1.08-.27.2-.49.36-.12.08-.18.16-.18.25,0,.1.08.18.25.22.69.16,1.28.27,1.76.34.27.03.41.2.41.49ZM118.03,66.31c0-.12-.09-.18-.28-.18h-3.04c-.18,0-.28.06-.28.18,0,.14.1.2.3.2h2.99c.2,0,.3-.07.3-.2ZM118.03,67.2c0-.13-.1-.19-.3-.19h-2.99c-.2,0-.3.06-.3.19,0,.14.1.2.3.2h2.99c.2,0,.3-.07.3-.2ZM118.03,68.09c0-.14-.1-.2-.3-.2h-2.99c-.2,0-.3.07-.3.2s.1.2.3.2h2.99c.2,0,.3-.07.3-.2ZM117.31,71.79c0-.08-.06-.12-.19-.12h-1.37c-.18.01-.26.07-.26.18,0,.1.16.23.47.41.13.07.25.11.37.11s.24-.04.37-.11c.41-.23.61-.39.61-.47Z"/>
      <path class="cls-1" d="M131.53,70.73c0,.11-.03.22-.1.32-.54.89-1.2,1.6-1.96,2.12-.86.58-1.76.88-2.72.88-2.1,0-3.16-.95-3.16-2.86,0-.78.02-1.8.05-3.06.02-1.02.04-2.14.06-3.34,0-.17.06-.31.19-.44s.28-.19.44-.19.33.06.46.19.19.28.18.46l-.14,6.11c0,1.26.66,1.88,1.99,1.88.71,0,1.4-.25,2.05-.76.56-.42,1.05-.97,1.48-1.67.12-.2.3-.3.54-.3.18,0,.33.06.45.19s.19.27.19.45Z"/>
      <path class="cls-1" d="M141.8,73.43c0,.18-.06.34-.19.47-.13.13-.28.19-.47.19s-.34-.07-.48-.22c-1.52-1.59-3.06-2.96-4.61-4.12-.46-.34-.68-.67-.68-1s.26-.69.78-1.04c1.86-1.26,3.38-2.46,4.56-3.58.13-.12.27-.18.43-.18.18,0,.33.06.45.19s.19.27.19.45-.07.34-.2.46c-1.04.93-2.35,1.95-3.94,3.07-.35.25-.53.46-.53.65s.17.41.52.67c1.29.98,2.62,2.15,3.98,3.52.13.13.19.28.19.47Z"/>
      <path class="cls-1" d="M156.32,69.33c0,2.11-1.19,3.52-3.58,4.21-.06.02-.11.02-.16.02-.16,0-.3-.06-.41-.17-.12-.12-.17-.25-.17-.41,0-.28.14-.46.42-.55,1.8-.56,2.7-1.59,2.7-3.1,0-.62-.18-1.12-.54-1.49-.36-.37-.86-.55-1.5-.55-.82,0-1.64.31-2.46.92-.45.34-.68.82-.7,1.45-.03,1.28-.05,2.53-.06,3.74,0,.16-.06.3-.17.41-.12.12-.25.17-.41.17s-.3-.06-.41-.18-.17-.26-.17-.42c0-.74.02-1.5.05-2.29,0-.29-.08-.43-.25-.43-.11,0-.22.08-.34.23-.28.38-.55.78-.82,1.18-.12.18-.28.26-.48.26-.16,0-.3-.06-.41-.17-.12-.12-.17-.25-.17-.41,0-.14.04-.25.11-.35l1.12-1.5c.26-.34.54-.68.85-1.04.31-.36.47-.63.48-.81,0-.21-.05-.36-.16-.46-.12-.1-.27-.13-.47-.1-.17.02-.57.1-1.2.22-.18.03-.33,0-.47-.13-.14-.12-.21-.26-.21-.44,0-.32.16-.51.49-.56.27-.05.78-.13,1.51-.24.38-.06.57-.27.58-.64,0-.22,0-.58.02-1.09,0-.16.07-.3.18-.41.11-.11.25-.17.41-.17s.3.06.42.19.18.27.17.43c-.02.46-.05,1.08-.07,1.85,0,.32.1.48.31.48.11,0,.24-.04.4-.13.81-.47,1.62-.71,2.45-.71.98,0,1.76.29,2.32.86.56.57.84,1.35.84,2.33Z"/>
      <path class="cls-1" d="M165.32,68.28c0,1.26-.21,2.67-.64,4.22-.12.45-.26.77-.41.97-.22.29-.53.43-.91.43-.42,0-.97-.12-1.66-.35-.27-.09-.41-.27-.41-.54,0-.16.06-.3.17-.41.12-.11.25-.17.4-.17.06,0,.15.02.25.05.34.12.6.18.78.18.19,0,.33-.06.41-.17.06-.09.14-.27.22-.54.38-1.34.56-2.51.56-3.5,0-.38-.08-.64-.23-.77s-.44-.19-.86-.19c-.38,0-.63.04-.77.12-.17.1-.29.27-.36.52-.52,1.74-1.23,3.5-2.14,5.27-.12.23-.31.35-.56.35-.18,0-.32-.06-.44-.19s-.18-.27-.18-.45c0-.14.02-.24.07-.32.82-1.42,1.48-2.91,1.99-4.48.02-.08.04-.15.04-.22,0-.29-.17-.41-.52-.36-.25.03-.64.09-1.16.17-.17.02-.32-.02-.46-.14-.14-.12-.21-.26-.21-.44,0-.34.17-.53.52-.58s.91-.12,1.67-.22c.38-.04.64-.28.78-.72.02-.06.09-.46.2-1.18.06-.34.26-.52.6-.52.19,0,.35.07.46.21s.16.31.13.5c0,.04-.04.22-.11.53-.06.23-.08.4-.08.52,0,.34.19.49.56.47h.18c.62-.05,1.11.06,1.48.31.42.29.62.83.62,1.62ZM168.94,69.18c0,.18-.06.33-.19.46s-.27.19-.45.19c-.29,0-.49-.14-.6-.42-.42-1.08-.95-2.06-1.6-2.95-.07-.1-.11-.21-.11-.34,0-.17.06-.31.17-.43.12-.12.26-.18.43-.18.2,0,.36.08.49.25.73.95,1.33,2.01,1.81,3.18.02.06.04.14.04.24Z"/>
      <path class="cls-1" d="M174.61,68.48c-.42.71-.76,1.4-1.04,2.08-.12.29-.32.43-.61.43-.4,0-.63-.21-.7-.62-.07-.47-.11-1.18-.11-2.12s.14-2.08.41-3.37c.08-.39.29-.59.62-.59.17,0,.31.06.42.17.11.12.17.26.17.43,0,.05,0,.1-.01.14-.29,1.32-.44,2.32-.46,2.99,0,.26.05.4.18.4.1,0,.22-.1.34-.29l.06-.1c.08-.13.2-.19.36-.19.29,0,.43.14.43.43,0,.08-.02.15-.06.22ZM178.74,68.54c0,1.35-.24,2.46-.73,3.32-.51.9-1.35,1.65-2.52,2.27-.09.05-.18.07-.29.07-.17,0-.31-.07-.43-.2s-.18-.28-.18-.45c0-.22.11-.4.34-.52.98-.51,1.66-1.13,2.05-1.85.37-.66.55-1.56.55-2.7,0-1.03-.11-2.24-.32-3.64-.03-.18.02-.35.14-.5s.28-.22.47-.22c.15,0,.29.05.4.16.12.1.19.23.21.38.21,1.5.31,2.78.31,3.86Z"/>
      <path class="cls-1" d="M192.85,68.1c0,.92-.32,1.61-.95,2.08-.55.42-1.3.62-2.26.62-.1,0-.35-.01-.74-.04-.14,0-.27-.07-.37-.18-.1-.11-.16-.24-.16-.38,0-.16.06-.29.18-.4s.26-.16.42-.15c.38.02.58.02.6.02,1.37,0,2.05-.52,2.05-1.55,0-.37-.13-.65-.4-.86-.26-.2-.61-.31-1.03-.31-.52,0-1.22.15-2.1.44l-1.14.38c-.28.1-.42.26-.42.49,0,.08.02.17.06.28.61,1.55,1.19,3.16,1.75,4.84.02.07.04.14.04.2,0,.17-.06.31-.18.43-.12.12-.26.18-.43.18-.3,0-.5-.14-.6-.43-.55-1.74-1.12-3.36-1.7-4.87-.1-.27-.28-.41-.52-.41-.08,0-.16.02-.25.05l-1.6.54c-.07.02-.13.04-.18.04-.15,0-.29-.06-.4-.17-.12-.11-.17-.25-.17-.41,0-.29.13-.47.4-.55l1.48-.47c.28-.09.42-.24.42-.47,0-.1-.02-.2-.07-.3,0-.02-.2-.48-.59-1.38-.03-.07-.05-.15-.05-.24,0-.17.06-.31.18-.44s.26-.19.43-.19c.27,0,.46.13.57.38.11.25.31.73.59,1.42.14.34.34.5.59.5.12,0,.64-.16,1.57-.48.99-.34,1.81-.52,2.46-.52.73,0,1.32.2,1.78.59.5.42.74.98.74,1.69ZM189.02,65.28c0,.15-.05.28-.16.4-.11.11-.24.17-.4.17-.1,0-.2-.03-.3-.1-.36-.24-.8-.49-1.33-.76-.2-.1-.3-.27-.3-.49,0-.15.05-.28.16-.39.1-.11.23-.16.38-.16.09,0,.17.02.25.06.43.21.91.47,1.43.78.18.11.28.28.28.49Z"/>
      <path class="cls-1" d="M205.02,66.08c0,.16-.06.3-.17.41-.11.11-.25.17-.41.17-1.26-.02-2.1-.02-2.53-.01-.39,0-.59.2-.59.61v.66c0,.3.08.75.24,1.36.06.25.1.5.1.77,0,1.06-.29,1.92-.86,2.6-.58.68-1.47,1.2-2.68,1.58-.06.02-.12.02-.18.02-.15,0-.29-.06-.4-.17-.12-.11-.17-.25-.17-.42,0-.28.14-.46.42-.55,1.14-.34,1.93-.87,2.38-1.58.08-.13.12-.24.12-.32,0-.11-.06-.17-.18-.17-.07,0-.16.02-.25.07-.22.11-.47.17-.73.17-.59,0-1.07-.15-1.43-.44-.39-.33-.59-.78-.59-1.36s.22-1.08.66-1.43c.41-.33.92-.49,1.52-.49.06,0,.14,0,.25.01.11,0,.19.01.24.01.23,0,.35-.1.35-.3,0-.41-.2-.6-.61-.59-1.46.06-2.92.14-4.4.25-.17.02-.31-.03-.44-.15-.12-.12-.19-.26-.19-.43s.05-.29.16-.4c.11-.11.24-.17.39-.17l4.46-.22c.38-.02.58-.2.58-.54v-.54c0-.17.06-.31.19-.44s.27-.19.44-.19.31.06.43.18c.12.12.18.26.18.43v.46c0,.41.2.61.6.6,1.21-.02,2.06-.02,2.54-.01.16,0,.29.05.4.16.11.11.16.24.16.4ZM200.05,69.51c.03-.11.05-.22.05-.31,0-.3-.13-.51-.38-.61-.14-.06-.3-.08-.48-.08-.27,0-.5.09-.69.26-.19.18-.28.4-.28.66,0,.55.29.83.88.83.48,0,.78-.25.91-.74Z"/>
      <path class="cls-1" d="M214.52,73.43c0,.18-.06.34-.19.47-.13.13-.28.19-.47.19s-.34-.07-.48-.22c-1.52-1.59-3.06-2.96-4.61-4.12-.46-.34-.68-.67-.68-1s.26-.69.78-1.04c1.86-1.26,3.38-2.46,4.56-3.58.13-.12.27-.18.43-.18.18,0,.33.06.45.19s.19.27.19.45-.07.34-.2.46c-1.04.93-2.35,1.95-3.94,3.07-.35.25-.53.46-.53.65s.17.41.52.67c1.29.98,2.62,2.15,3.98,3.52.13.13.19.28.19.47Z"/>
      <path class="cls-1" d="M224.64,65.04c0,.09-.02.17-.06.24-.2.37-.44.76-.73,1.18-.06.08-.08.15-.08.22,0,.14.1.22.31.22.13,0,.24.05.33.14.09.09.14.2.14.33s-.05.24-.14.33c-.09.09-.2.14-.33.14h-.8c-.34,0-.64.12-.9.37l-.18.17c-.06.06-.08.11-.08.16,0,.09.07.13.2.13h.59c.53,0,.79.18.79.55,0,.2-.1.39-.3.58l-.6.56c-.1.09-.14.17-.14.25,0,.14.11.2.34.17.47-.06.84-.12,1.12-.17.13-.02.25,0,.35.1.11.09.16.2.16.34,0,.26-.12.4-.37.44-.32.06-.82.14-1.5.24-.3.04-.44.21-.44.5v.94c0,.44-.08.74-.23.89-.15.15-.44.23-.86.23h-.79c-.12,0-.23-.05-.32-.14-.09-.09-.14-.2-.14-.33s.04-.24.13-.32c.09-.09.2-.13.32-.13h.38c.14,0,.23-.01.29-.04.13-.04.19-.18.19-.42v-.47c0-.34-.17-.5-.5-.46-.32.03-.81.08-1.46.16-.14.02-.26-.02-.36-.12-.1-.1-.16-.21-.16-.35,0-.3.14-.46.43-.48.41-.03.94-.08,1.6-.14.3-.03.46-.19.46-.48,0-.18.06-.31.18-.4.08-.06.19-.11.34-.16.15-.05.25-.1.31-.15l.08-.07c.07-.06.11-.11.11-.17,0-.09-.08-.13-.25-.13h-.86c-.27,0-.52.07-.75.22-.23.15-.54.33-.94.55-.07.04-.15.06-.24.06-.14,0-.25-.05-.35-.15-.1-.1-.15-.22-.15-.35,0-.22.1-.37.3-.46.62-.27,1.23-.63,1.85-1.07.1-.07.16-.15.16-.24,0-.14-.1-.2-.31-.2h-1.57c-.13,0-.24-.05-.33-.14-.09-.09-.14-.2-.14-.33s.05-.24.14-.33.2-.14.33-.14h1.3c.32,0,.48-.16.48-.48v-.14c0-.32-.16-.48-.48-.48h-.9c-.13,0-.24-.05-.33-.14-.09-.09-.14-.2-.14-.33s.05-.24.14-.32c.09-.09.2-.13.33-.13h.9c.32,0,.48-.16.48-.48v-.18c0-.14.05-.25.15-.35.1-.1.22-.15.35-.15s.25.05.35.15c.1.1.15.22.15.35v.18c0,.32.16.48.48.48h.38c.13,0,.24.04.32.13.09.09.13.2.13.32s-.04.24-.13.33c-.09.09-.2.14-.32.14h-.4c-.32,0-.48.16-.48.48v.14c0,.32.08.48.23.48.16,0,.31-.09.44-.28.45-.59.81-1.18,1.08-1.78.09-.19.24-.29.44-.29.14,0,.26.05.36.14.1.1.14.21.14.35ZM229.54,66.03c0,.26-.11.41-.34.47-.3.08-.46.24-.48.48-.15,1.42-.46,2.65-.92,3.7-.07.17-.11.32-.11.46,0,.18.06.35.19.53.37.5.81.98,1.33,1.44.14.12.2.27.2.44,0,.16-.06.29-.17.4s-.25.16-.41.16-.29-.05-.4-.16c-.37-.36-.72-.77-1.07-1.22-.14-.18-.28-.26-.42-.26-.14,0-.27.08-.41.25-.42.51-.86.97-1.32,1.37-.1.09-.23.13-.37.13-.15,0-.28-.06-.39-.17-.11-.11-.16-.25-.16-.41,0-.18.07-.32.22-.44.63-.51,1.15-1.02,1.55-1.51.14-.17.2-.34.2-.53,0-.14-.04-.28-.11-.44-.25-.54-.46-1.12-.64-1.75-.04-.14-.1-.22-.18-.22-.07,0-.14.06-.19.18l-.17.37c-.08.18-.22.28-.43.28-.14,0-.25-.05-.35-.15s-.14-.22-.14-.35c0-.07.02-.14.05-.2.7-1.36,1.23-2.92,1.57-4.67.06-.28.22-.42.5-.42.14,0,.26.05.36.15.1.1.14.22.14.35,0,.07-.05.3-.14.67-.02.06-.02.12-.02.18,0,.26.14.38.43.38h2.08c.14,0,.25.05.35.15.1.1.15.22.15.37ZM227.74,67.03c.02-.33-.13-.49-.47-.49h-.59c-.42,0-.61.21-.56.64.1.87.3,1.69.61,2.46.07.17.16.25.28.25.09,0,.15-.06.19-.17.29-.75.47-1.65.54-2.69Z"/>
      <path class="cls-1" d="M41.77,88.67c-.76.15-1.58.23-2.45.23-.77,0-1.28-.24-1.54-.72-.14-.26-.24-.77-.28-1.55-.03-.52-.18-.78-.46-.78-.52,0-1.11.31-1.76.92-.21.19-.78.79-1.7,1.8-.13.14-.28.2-.47.2s-.32-.06-.44-.19c-.12-.12-.18-.27-.18-.45s.06-.32.19-.44c1.25-1.24,2.8-2.73,4.67-4.48.13-.12.19-.22.19-.3,0-.14-.14-.19-.43-.17l-3.07.24c-.17.02-.32-.03-.44-.15-.13-.12-.19-.26-.19-.43s.05-.3.16-.41c.11-.11.24-.17.39-.18l4.8-.28c.26-.02.48.04.64.18.16.14.25.3.25.5,0,.23-.11.44-.32.64-.46.41-1,.9-1.61,1.49-.18.17-.26.29-.26.37,0,.09.1.14.31.17.51.06.8.44.86,1.16.06.63.1,1,.13,1.1.1.39.32.59.66.59.26,0,.64-.04,1.14-.13.5-.09.88-.13,1.12-.13.16,0,.29.06.4.18.1.12.16.26.16.43,0,.31-.15.5-.46.56ZM39.56,80.21c0,.17-.06.31-.18.43-.12.12-.26.17-.43.15-1.48-.14-2.68-.34-3.6-.59-.29-.08-.43-.27-.43-.56,0-.16.06-.3.17-.41s.25-.17.41-.17c.05,0,.1,0,.16.02.92.26,2.05.44,3.38.56.15.02.28.08.38.18s.15.23.15.38Z"/>
      <path class="cls-1" d="M54.14,80.42c0,.32-.22.51-.65.58-1.21.18-2.28.68-3.22,1.49-.94.81-1.4,1.67-1.4,2.56,0,1.26,1.04,2.08,3.11,2.48.34.06.52.27.52.61,0,.19-.07.35-.22.48s-.32.18-.51.14c-1.16-.2-2.09-.56-2.8-1.08-.88-.64-1.32-1.49-1.32-2.54,0-.85.29-1.63.88-2.35.23-.29.49-.55.77-.78.24-.2.36-.37.36-.52,0-.19-.2-.27-.61-.24-1.25.11-2.58.25-4,.42-.18.02-.33-.02-.46-.14-.13-.12-.19-.27-.19-.44,0-.15.05-.28.15-.4.1-.11.23-.18.38-.19,1.45-.14,4.28-.36,8.48-.65.22-.02.39.03.53.14.14.11.2.25.2.43Z"/>
      <path class="cls-1" d="M64.08,88.43c0,.18-.06.34-.19.47-.13.13-.28.19-.47.19s-.34-.07-.48-.22c-1.52-1.59-3.06-2.96-4.61-4.12-.46-.34-.68-.67-.68-1s.26-.69.78-1.04c1.86-1.26,3.38-2.46,4.56-3.58.13-.12.27-.18.43-.18.18,0,.33.06.45.19s.19.27.19.45-.07.34-.2.46c-1.04.93-2.35,1.95-3.94,3.07-.35.25-.53.46-.53.65s.17.41.52.67c1.29.98,2.62,2.15,3.98,3.52.13.13.19.28.19.47Z"/>
      <path class="cls-1" d="M74.53,81.69c-.67.13-1.26.22-1.78.28-.33.04-.57.12-.71.25-.15.13-.26.35-.33.66-.48,2.1-1.04,3.92-1.67,5.46-.11.26-.31.4-.59.4-.18,0-.32-.06-.44-.19-.12-.12-.18-.27-.18-.44,0-.09.02-.17.05-.24.64-1.5,1.2-3.2,1.67-5.11.02-.06.02-.12.02-.18,0-.28-.17-.42-.5-.41-.34,0-.64,0-.92,0-.16,0-.3-.07-.41-.19-.12-.12-.17-.25-.17-.41s.06-.31.19-.43c.12-.12.27-.18.44-.17.46.02.82.02,1.1.01.46-.02.71-.24.77-.66.02-.17.06-.43.12-.78s.26-.53.61-.53c.17,0,.31.06.43.18s.18.26.18.42c0,.08-.03.28-.1.6,0,.06-.01.11-.01.16,0,.32.18.45.53.4.05,0,.33-.06.84-.17.38-.07.65-.11.79-.11.17,0,.31.06.41.18s.16.26.16.43c0,.33-.16.52-.49.59ZM78.33,88.01c0,.15-.05.28-.14.4-.1.11-.22.18-.36.19-.9.11-1.7.17-2.4.17-2.13,0-3.19-.6-3.19-1.79,0-.29.07-.6.2-.94.1-.24.28-.36.54-.36.38,0,.58.19.58.58,0,.06-.02.15-.05.27-.03.12-.05.21-.05.27,0,.54.69.82,2.06.82.54,0,1.25-.06,2.14-.18.18-.02.33.02.47.14.14.12.2.26.2.44ZM77.99,83.54c0,.17-.06.31-.19.43-.13.12-.28.18-.44.17-1.23-.09-2.51-.06-3.83.08-.17.02-.31-.03-.44-.15-.12-.12-.19-.26-.19-.43,0-.15.05-.28.15-.39s.22-.17.37-.19c1.59-.14,2.92-.18,3.98-.14.16,0,.3.07.41.19.12.12.17.26.17.42ZM77.42,81.44c0,.13-.05.24-.14.33-.09.09-.2.14-.33.14-.19,0-.33-.07-.42-.22-.23-.37-.48-.68-.74-.95-.09-.09-.13-.2-.13-.32,0-.32.16-.48.47-.48.14,0,.26.06.36.18.34.38.62.73.84,1.06.06.1.1.18.1.26ZM78.88,80.76c0,.13-.05.24-.14.33s-.2.14-.33.14c-.18,0-.32-.07-.42-.22-.26-.39-.51-.72-.74-.97-.09-.1-.13-.2-.13-.3,0-.32.16-.48.48-.48.12,0,.24.06.35.17.28.28.56.64.85,1.07.06.11.08.2.08.26Z"/>
      <path class="cls-1" d="M89.77,80.67c0,.23-.11.4-.34.52-.5.24-1.08.46-1.75.67-.26.08-.38.21-.38.38,0,.1.04.21.13.32.58.78,1.17,1.46,1.76,2.06.17.17.25.36.25.56,0,.18-.07.34-.2.47s-.3.19-.5.19c-.13,0-.26-.03-.4-.08-.97-.43-1.96-.65-2.96-.65-.74,0-1.31.11-1.72.34-.41.22-.61.53-.61.92,0,.9.98,1.36,2.93,1.36.72,0,1.5-.06,2.33-.17.17-.02.32.02.45.14.13.12.2.26.2.44,0,.14-.05.27-.15.38s-.22.17-.35.19c-.78.1-1.55.16-2.33.16-2.86,0-4.3-.8-4.3-2.4,0-.87.38-1.51,1.14-1.91.58-.31,1.36-.47,2.32-.47.39,0,.82.05,1.3.16.07.02.12.02.13.02.07.02.14.02.2.02.17,0,.25-.06.25-.18,0-.1-.05-.2-.14-.32-.3-.37-.53-.65-.67-.85-.26-.35-.58-.53-.95-.53-.09,0-.19,0-.31.02-1.01.15-2.09.23-3.25.23-.16,0-.3-.06-.41-.17-.11-.11-.17-.25-.17-.41s.06-.3.17-.41c.11-.11.25-.17.41-.17.94,0,1.82-.06,2.64-.16.28-.03.42-.15.42-.36,0-.1-.04-.21-.11-.32l-.41-.67c-.06-.1-.08-.2-.08-.3,0-.16.06-.3.17-.41.12-.12.25-.17.41-.17.24,0,.42.1.53.31.27.53.44.84.52.94.26.37.53.55.82.55.1,0,.21-.02.32-.05.62-.18,1.24-.42,1.86-.72.08-.04.16-.06.25-.06.16,0,.3.06.41.17.11.12.17.25.17.41Z"/>
      <path class="cls-1" d="M96.89,83.48c-.42.71-.76,1.4-1.04,2.08-.12.29-.32.43-.61.43-.4,0-.63-.21-.7-.62-.07-.47-.11-1.18-.11-2.12s.14-2.08.41-3.37c.08-.39.29-.59.62-.59.17,0,.31.06.42.17.11.12.17.26.17.43,0,.05,0,.1-.01.14-.29,1.32-.44,2.32-.46,2.99,0,.26.05.4.18.4.1,0,.22-.1.34-.29l.06-.1c.08-.13.2-.19.36-.19.29,0,.43.14.43.43,0,.08-.02.15-.06.22ZM101.02,83.54c0,1.35-.24,2.46-.73,3.32-.51.9-1.35,1.65-2.52,2.27-.09.05-.18.07-.29.07-.17,0-.31-.07-.43-.2-.12-.13-.18-.28-.18-.45,0-.22.11-.4.34-.52.98-.51,1.66-1.13,2.05-1.85.37-.66.55-1.56.55-2.7,0-1.03-.11-2.24-.32-3.64-.03-.18.02-.35.14-.5s.28-.22.47-.22c.15,0,.29.05.4.16.12.1.19.23.21.38.21,1.5.31,2.78.31,3.86Z"/>
      <path class="cls-1" d="M107.68,88.53c0,.19-.06.35-.19.48s-.29.19-.48.19c-.21,0-.38-.08-.52-.24-.47-.57-.95-1.06-1.43-1.46-.15-.13-.23-.29-.23-.48s.06-.34.19-.46.28-.19.46-.19c.16,0,.3.05.42.16.67.58,1.21,1.1,1.61,1.55.11.12.17.27.17.46Z"/>
      <path class="cls-1" d="M118.56,85.69s-.01.1-.04.17c-.24.66-.56,1.32-.96,1.96-.1.17-.26.25-.46.25-.14,0-.27-.05-.37-.15s-.15-.22-.15-.37c0-.11.03-.21.08-.29.38-.54.68-1.12.92-1.74.09-.22.24-.32.46-.32.14,0,.26.05.36.14.1.1.14.21.14.35ZM122.44,80.53c0,.14-.05.27-.15.37-.1.1-.22.15-.35.15h-4.75c-.14,0-.25-.05-.35-.15s-.15-.22-.15-.37c0-.14.05-.25.15-.35s.22-.15.35-.15h1.44c.32,0,.48-.16.48-.48v-.25c0-.15.05-.28.16-.38.1-.1.23-.16.38-.16.14,0,.27.05.38.16.11.1.16.23.16.38v.25c0,.32.16.48.48.48h1.27c.14,0,.25.05.35.15.1.1.15.22.15.35ZM121.92,83.77c0,.64-.32.96-.96.96h-.3c-.32,0-.48.16-.48.48v2.94c0,.42-.08.71-.23.86-.15.15-.43.22-.84.22h-.59c-.14,0-.25-.05-.35-.15-.1-.1-.14-.22-.14-.35s.05-.25.14-.35.21-.14.35-.14h.25c.17,0,.27-.04.3-.11.03-.04.05-.16.05-.35v-2.57c0-.32-.16-.48-.48-.48h-.46c-.64,0-.96-.32-.96-.96v-1c0-.64.32-.96.96-.96h2.77c.64,0,.96.32.96.96v1ZM120.9,83.4v-.22c0-.3-.15-.46-.46-.46h-1.74c-.3,0-.46.15-.46.46v.22c0,.3.15.46.46.46h1.74c.3,0,.46-.15.46-.46ZM121.4,87c-.06-.14-.26-.51-.58-1.1-.04-.07-.06-.14-.06-.22,0-.13.04-.24.13-.33.09-.09.2-.14.34-.14.18,0,.31.07.4.22.26.41.48.79.67,1.15.04.08.06.16.06.23,0,.14-.06.25-.17.35-.11.1-.24.14-.37.14-.2,0-.34-.1-.42-.3ZM127.31,86.67v1.16c-.03.44-.13.77-.29.98-.2.28-.53.42-.98.42h-.67c-.34,0-.56-.07-.68-.22-.12-.14-.17-.42-.17-.82v-4.44c-.29,2.04-.86,3.77-1.7,5.18-.1.18-.26.26-.46.26-.14,0-.27-.05-.37-.15s-.15-.22-.15-.37c0-.12.03-.22.08-.3.93-1.33,1.5-3.14,1.7-5.42.03-.34-.12-.5-.47-.5h-.41c-.14,0-.27-.05-.37-.16s-.16-.23-.16-.38c0-.14.05-.27.16-.37s.23-.16.37-.16h.5c.31,0,.47-.16.48-.47.02-.58.03-1.12.04-1.64,0-.14.05-.26.15-.36.1-.1.22-.16.35-.16.14,0,.27.05.37.16.1.1.15.22.15.36,0,.1-.01.64-.04,1.62,0,.33.15.49.48.49h1.54c.14,0,.27.05.38.16s.16.23.16.37c0,.15-.05.28-.16.38s-.23.16-.38.16h-1.67c-.23,0-.38.09-.46.28-.03.08-.06.27-.08.56.09-.16.23-.24.42-.24.13,0,.24.05.33.14.09.09.14.2.14.33v4.22c0,.28.1.42.3.42h.16c.22,0,.36-.08.42-.25.05-.14.08-.57.08-1.27,0-.13.04-.24.13-.32.09-.09.2-.13.32-.13.12,0,.22.05.31.14.09.09.13.2.13.33ZM126.93,80.41c0,.13-.04.24-.13.32-.09.09-.2.13-.32.13-.18,0-.3-.07-.38-.2-.14-.23-.33-.5-.56-.8-.07-.1-.11-.19-.11-.28,0-.13.05-.24.14-.33s.2-.14.32-.14c.14,0,.26.06.36.18.26.33.46.61.62.85.05.07.07.16.07.26Z"/>
      <path class="cls-1" d="M139.8,87.71c0,.1-.02.2-.07.29-.5.88-.94,1.32-1.32,1.32-.34,0-.63-.24-.86-.71-.1-.22-.22-.32-.34-.32-.1,0-.2.06-.32.19-.32.34-.59.6-.8.77-.11.09-.22.13-.34.13-.14,0-.25-.05-.34-.14-.09-.1-.14-.21-.14-.35,0-.15.06-.28.17-.37.5-.44.9-.86,1.22-1.25.21-.25.31-.52.31-.82,0-.08,0-.17-.02-.26-.07-.54-.14-1.37-.19-2.5-.02-.32-.18-.48-.49-.48h-3.6c-.32,0-.48-.16-.48-.47s.16-.47.48-.47h.07c.26,0,.37-.13.34-.38-.02-.16-.08-.47-.18-.92-.03-.14-.14-.24-.32-.29-.21-.06-.31-.19-.31-.41,0-.06.01-.12.04-.18-.02,0-.05.01-.08.01-.12,0-.18.1-.18.3v8.53c0,.14-.05.25-.14.35-.1.1-.21.14-.35.14s-.25-.05-.35-.14c-.1-.1-.15-.21-.15-.35v-1.13c0-.26-.11-.38-.32-.38-.05,0-.1,0-.14.02-.64.16-1.12.29-1.43.4-.2.03-.36,0-.47-.11-.12-.11-.17-.24-.17-.4,0-.29.12-.46.36-.52h.05c.18-.06.26-.17.26-.34v-6.07c0-.2-.08-.3-.23-.3-.12,0-.22-.05-.3-.16s-.12-.23-.12-.37c0-.14.05-.25.15-.35.1-.1.22-.15.37-.15h3.08c.14,0,.27.05.37.15s.16.22.16.35c0,.1-.02.18-.06.26.04,0,.08-.01.12-.01h.7c.28,0,.42-.14.42-.42v-.16c0-.14.05-.27.15-.37s.22-.15.37-.15.27.05.37.15.15.22.15.37v.16c0,.28.14.42.42.42h.76c.12,0,.23.04.32.13.09.09.14.19.14.31,0,.2-.09.33-.28.4s-.29.17-.32.29c-.14.67-.22,1.01-.22,1.02,0,.19.11.29.32.29h.23c.33,0,.48-.16.47-.48-.02-.39-.02-1.24-.02-2.54,0-.13.05-.24.14-.34.1-.1.21-.15.34-.15s.24.05.34.15c.1.1.14.21.14.34,0,1.14.01,2,.04,2.56.02.31.18.47.48.47h1.09c.13,0,.24.05.33.14.09.09.14.2.14.33s-.05.24-.14.33c-.09.09-.2.14-.33.14h-1.03c-.33,0-.48.16-.47.49,0,.1.03.54.06,1.32,0,.14.05.22.13.22.06,0,.12-.05.17-.14.1-.23.23-.56.38-.97.07-.2.21-.3.41-.3.12,0,.22.04.31.13.08.09.13.19.13.31,0,.02,0,.08-.02.16-.29.77-.6,1.45-.95,2.05-.15.26-.23.5-.23.72,0,.14.02.28.07.42.11.31.22.47.34.47.04,0,.18-.22.41-.65.07-.14.21-.2.41-.2.31,0,.47.16.47.48ZM131.1,81.13v-.67c0-.24-.12-.36-.36-.36h-.25c-.24,0-.36.12-.36.36v.67c0,.24.12.36.36.36h.25c.24,0,.36-.12.36-.36ZM131.1,83.53v-.73c0-.24-.12-.36-.36-.36h-.25c-.24,0-.36.12-.36.36v.73c0,.24.12.36.36.36h.25c.24,0,.36-.12.36-.36ZM131.1,85.93v-.73c0-.24-.12-.36-.36-.36h-.25c-.24,0-.36.12-.36.36v.9c0,.22.1.32.29.32.03,0,.07,0,.12-.02l.26-.07c.2-.06.3-.19.3-.4ZM136.05,87.42c0,.58-.29.86-.88.86h-1.5c-.58,0-.86-.29-.86-.86v-2.69c0-.58.29-.88.86-.88h1.5c.58,0,.88.29.88.88v2.69ZM135.13,85.27v-.23c0-.24-.12-.36-.36-.36h-.7c-.24,0-.36.12-.36.36v.23c0,.24.12.36.36.36h.7c.24,0,.36-.12.36-.36ZM135.13,87.01v-.26c0-.24-.12-.36-.36-.36h-.7c-.24,0-.36.12-.36.36v.26c0,.24.12.36.36.36h.7c.24,0,.36-.12.36-.36ZM134.98,81.11c.05-.26-.06-.4-.34-.4h-.48c-.27,0-.38.13-.32.4.04.2.08.46.13.78.04.26.18.38.41.38s.37-.1.42-.3c.08-.36.14-.65.18-.86ZM139.44,81.18c0,.12-.04.23-.13.32-.09.09-.19.14-.31.14-.21,0-.35-.1-.42-.29-.22-.58-.38-.98-.5-1.18-.03-.06-.05-.12-.05-.2,0-.12.04-.22.13-.31.09-.08.19-.13.31-.13.18,0,.32.08.4.23.22.42.41.83.55,1.25.02.08.02.14.02.17Z"/>
      <path class="cls-1" d="M150.77,85.73c0,.11-.03.22-.1.32-.54.89-1.2,1.6-1.96,2.12-.86.58-1.76.88-2.72.88-2.1,0-3.16-.95-3.16-2.86,0-.78.02-1.8.05-3.06.02-1.02.04-2.14.06-3.34,0-.17.06-.31.19-.44s.28-.19.44-.19.33.06.46.19.19.28.18.46l-.14,6.11c0,1.26.66,1.88,1.99,1.88.71,0,1.4-.25,2.05-.76.56-.42,1.05-.97,1.47-1.67.12-.2.3-.3.54-.3.18,0,.33.06.45.19.12.12.19.27.19.45Z"/>
      <path class="cls-1" d="M159.49,81.69c-.58.11-1.18.2-1.78.28-.33.04-.57.12-.71.25-.15.13-.26.35-.33.66-.45,1.9-1,3.72-1.67,5.46-.1.26-.3.4-.59.4-.18,0-.32-.06-.44-.19-.12-.12-.18-.27-.18-.44,0-.08.02-.16.05-.24.68-1.61,1.24-3.31,1.67-5.11.02-.06.02-.12.02-.18,0-.28-.17-.42-.5-.41-.34,0-.64,0-.92,0-.16,0-.3-.07-.41-.19-.12-.12-.17-.25-.17-.41s.06-.31.19-.43c.12-.12.27-.18.44-.17.46.02.82.02,1.1.01.45-.02.7-.24.77-.66.02-.18.06-.44.12-.79.06-.35.26-.52.61-.52.17,0,.31.06.43.18.12.12.18.26.18.42,0,.08-.03.28-.1.6,0,.06-.01.11-.01.16,0,.32.18.45.53.4.05,0,.33-.06.84-.17.38-.07.65-.11.79-.11.17,0,.31.06.41.18s.16.26.16.43c0,.33-.16.52-.49.59ZM163.29,88.01c0,.34-.17.54-.5.59-.76.11-1.56.17-2.4.17-2.13,0-3.19-.6-3.19-1.79,0-.27.07-.58.2-.94.1-.24.28-.36.54-.36.38,0,.56.19.56.58,0,.06-.01.15-.04.27-.02.12-.04.21-.04.27,0,.54.68.82,2.05.82.6,0,1.31-.06,2.14-.18.18-.02.33.02.47.14.14.12.2.26.2.44ZM162.95,83.54c0,.17-.06.31-.19.43-.13.12-.28.18-.44.17-1.19-.06-2.47-.04-3.83.08-.17.02-.31-.03-.44-.15-.12-.12-.19-.26-.19-.43,0-.15.05-.28.15-.39.1-.11.22-.17.37-.19,1.35-.14,2.68-.18,3.98-.14.16,0,.3.07.41.19.12.12.17.26.17.42Z"/>
      <path class="cls-1" d="M175.07,85.76c0,1.17-.58,2.03-1.73,2.58-.94.46-2.11.67-3.5.65h-.83c-.15-.01-.28-.07-.4-.19-.11-.12-.17-.25-.17-.4,0-.16.06-.3.18-.41.12-.12.26-.17.43-.16.44.02.72.02.83.02.94,0,1.75-.13,2.45-.4.98-.36,1.46-.93,1.46-1.7,0-.52-.2-.91-.6-1.18-.33-.22-.77-.32-1.32-.32-.66,0-1.35.15-2.07.45-.72.3-1.32.69-1.81,1.16-.26.26-.52.38-.78.38-.2,0-.36-.08-.47-.24s-.17-.37-.15-.64l.24-3.71c.02-.37.22-.55.59-.55.18,0,.32.06.44.19s.17.28.16.44l-.16,2.02c-.02.34.08.52.31.52.11,0,.24-.04.38-.13,1.08-.68,2.22-1.02,3.43-1.02.91,0,1.64.21,2.17.62.6.46.9,1.13.9,2.02ZM172.26,80.78c0,.17-.06.31-.17.43-.12.12-.26.18-.44.18-.1,0-.18-.02-.24-.05-.93-.43-2-.8-3.23-1.1-.3-.07-.46-.26-.46-.56,0-.16.06-.3.17-.41.12-.11.25-.17.4-.17.06,0,.11,0,.13.01,1.19.27,2.34.64,3.44,1.09.26.1.38.3.38.58Z"/>
      <path class="cls-1" d="M180.59,81.95c0,.13-.07.28-.2.46-.11.14-.22.27-.34.41-.26.32-.38.67-.38,1.04v4.94c0,.14-.05.27-.16.38-.11.11-.23.17-.38.17s-.28-.05-.39-.16c-.11-.11-.16-.24-.16-.39v-3.79c0-.21-.07-.31-.2-.31-.08,0-.16.04-.24.12l-.22.2c-.09.08-.21.12-.36.12-.16,0-.29-.05-.4-.16-.11-.11-.16-.24-.16-.39,0-.18.07-.33.2-.43.95-.74,1.77-1.58,2.45-2.52.1-.14.25-.22.43-.22.14,0,.27.05.37.15.1.1.15.23.15.38ZM180.29,79.43c0,.1-.04.2-.11.3-.58.78-1.27,1.51-2.08,2.18-.1.09-.22.13-.35.13-.15,0-.28-.05-.39-.16-.11-.1-.16-.23-.16-.38,0-.17.07-.31.2-.42.73-.58,1.38-1.24,1.96-1.98.1-.14.24-.2.4-.2.14,0,.27.05.37.16.1.1.16.23.16.37ZM187.85,88.58c0,.16-.05.29-.16.4s-.24.16-.39.16c-.06,0-.12-.01-.17-.04-1-.35-1.83-.73-2.5-1.13-.18-.1-.34-.16-.48-.16-.16,0-.34.06-.53.17-.61.35-1.46.75-2.54,1.19-.06.02-.12.04-.19.04-.15,0-.28-.05-.38-.16s-.16-.24-.16-.4c0-.26.11-.43.32-.5.71-.24,1.4-.53,2.05-.86.2-.1.3-.23.3-.38,0-.11-.05-.22-.14-.31-.45-.45-.82-.96-1.12-1.52-.18-.36-.4-.54-.65-.54-.13,0-.24-.04-.34-.13-.1-.09-.14-.2-.14-.34,0-.13.05-.24.14-.33.1-.09.21-.14.34-.14h5.06c.53,0,.79.22.79.65,0,.16-.04.31-.12.46-.29.52-.74,1.12-1.36,1.79-.13.14-.19.26-.19.38,0,.23.32.48.95.74.13.05.53.19,1.21.42.26.09.38.27.38.54ZM187.9,81.05c-.02.56-.12.99-.29,1.28-.21.36-.57.54-1.09.54h-.88c-.39,0-.66-.06-.8-.19-.14-.13-.21-.4-.21-.82v-1.33c0-.33-.16-.49-.49-.49h-.65c-.31,0-.49.16-.53.48-.08.61-.24,1.12-.48,1.55-.29.51-.68.92-1.18,1.24-.1.06-.21.1-.31.1-.14,0-.27-.05-.37-.15-.1-.1-.15-.22-.15-.37,0-.18.06-.31.18-.4.78-.55,1.21-1.37,1.28-2.45.05-.66.38-.98,1-.98h1.75c.66,0,1,.33,1,.98v1.39c0,.19.02.31.07.37s.18.08.38.08h.19c.22,0,.36-.11.44-.32.04-.11.07-.31.1-.61.02-.29.19-.44.5-.44.14,0,.27.05.37.16.1.11.15.23.14.38ZM185.38,85.11c.09-.16.13-.28.13-.36,0-.13-.15-.19-.46-.19l-1.85-.02c-.26,0-.4.1-.4.29,0,.21.3.6.89,1.18.14.14.29.2.44.2.14,0,.29-.06.43-.17.34-.26.6-.57.8-.92Z"/>
      <path class="cls-1" d="M200.2,88.27c0,.15-.05.28-.16.38-.1.1-.23.16-.38.16h-9.82c-.15,0-.28-.05-.38-.16-.1-.1-.16-.23-.16-.38s.05-.28.16-.38c.1-.1.23-.16.38-.16h4.48c.54,0,.92-.24,1.12-.72.49-1.16.96-2.56,1.4-4.19.08-.29.27-.43.58-.43.17,0,.31.06.42.17.11.12.17.26.17.43,0,.04,0,.1-.02.18-.41,1.33-.87,2.62-1.39,3.86-.04.1-.06.2-.06.29,0,.27.18.41.53.41h2.6c.15,0,.28.05.38.16.1.1.16.23.16.38ZM199.78,81.18c0,.15-.05.28-.16.38-.1.1-.23.16-.38.16h-9c-.15,0-.28-.05-.38-.16-.1-.1-.15-.23-.15-.38s.05-.28.16-.38c.1-.1.23-.16.37-.16h3.31c.4,0,.6-.2.6-.6v-.68c0-.16.06-.3.17-.41.12-.12.25-.17.41-.17s.3.06.41.17c.11.12.17.25.17.41v.68c0,.4.2.6.6.6h3.32c.15,0,.28.05.38.16.1.1.16.23.16.38ZM193.68,86.54c0,.15-.05.29-.16.4-.11.12-.24.17-.4.17-.28,0-.46-.13-.54-.38-.39-1.21-.84-2.32-1.33-3.32-.04-.08-.06-.16-.06-.25,0-.15.05-.28.16-.39.1-.11.24-.16.4-.16.22,0,.39.1.49.3.54,1.06,1.02,2.22,1.43,3.46.02.08.02.14.02.18Z"/>
      <path class="cls-1" d="M211.96,83.65c0,1.31-.62,2.34-1.85,3.07-.91.55-2.12.92-3.62,1.12-.18.02-.33-.02-.47-.14s-.2-.27-.2-.44c0-.15.05-.29.16-.4.1-.12.23-.18.37-.2,2.87-.37,4.31-1.37,4.31-3,0-1.15-.76-1.73-2.27-1.73-1.18,0-3.08.34-5.69,1.03-.06.02-.11.02-.17.02-.17,0-.31-.06-.44-.18s-.19-.27-.19-.44c0-.33.16-.53.48-.61,2.78-.66,4.8-1,6.04-1,1.01,0,1.81.2,2.4.59.76.5,1.14,1.28,1.14,2.32Z"/>
      <path class="cls-1" d="M223.59,87.95c0,.18-.06.33-.19.45s-.27.19-.45.19c-.19,0-.35-.07-.48-.22-.85-.98-1.65-1.84-2.41-2.58-.13-.13-.26-.19-.4-.19-.15,0-.3.08-.44.24-.86.95-2.02,1.86-3.5,2.72-.1.06-.2.08-.3.08-.17,0-.31-.06-.43-.18-.12-.12-.18-.26-.18-.43,0-.24.1-.42.31-.54,2.62-1.48,4.33-3.33,5.11-5.56.06-.15.08-.28.08-.38,0-.3-.23-.44-.7-.44h-4.03c-.16,0-.3-.06-.41-.18s-.17-.26-.17-.42.06-.3.17-.41c.12-.12.25-.17.41-.17h4.93c.39,0,.7.09.92.27.22.18.34.43.34.75,0,.15-.03.33-.1.53-.27.85-.61,1.64-1.02,2.38-.09.16-.13.31-.13.44,0,.2.09.38.26.55.88.85,1.76,1.74,2.63,2.68.11.12.17.26.17.43Z"/>
      <path class="cls-1" d="M236.07,84.48c0,.15-.05.28-.15.39-.1.11-.22.17-.37.19l-2.86.31c-.41.05-.58.27-.53.67l.36,2.42c.02.18-.02.35-.14.49s-.27.21-.46.21c-.15,0-.28-.05-.4-.16-.11-.1-.18-.23-.2-.37l-.37-2.47c-.06-.39-.28-.57-.67-.53l-3.31.37c-.17.02-.32-.03-.45-.14-.13-.11-.2-.25-.2-.42,0-.14.05-.27.15-.38.1-.11.22-.18.37-.19l3.25-.36c.42-.05.59-.27.53-.67l-.11-.72c-.06-.38-.28-.56-.67-.52l-2.33.23c-.17.02-.31-.03-.44-.14-.12-.11-.19-.25-.19-.42,0-.35.17-.54.5-.58l2.24-.23c.41-.04.58-.26.53-.67l-.14-1.02c-.02-.18.02-.35.14-.49.12-.14.27-.22.45-.22.15,0,.28.05.4.15.11.1.18.22.2.37l.18,1.13c.06.38.28.56.66.52l2.35-.23c.17-.02.32.03.44.15.13.12.19.26.19.43,0,.14-.05.27-.16.38-.1.11-.23.18-.37.19l-2.26.22c-.42.04-.59.26-.53.67l.11.68c.06.38.29.56.67.52l2.92-.32c.17-.02.32.03.45.15.13.12.2.26.2.43Z"/>
      <path class="cls-1" d="M29.5,96.88c0,1.48-.09,2.65-.26,3.5-.24,1.18-.72,2.28-1.43,3.28-.14.19-.32.29-.54.29-.18,0-.33-.06-.46-.19s-.19-.28-.19-.46c0-.15.04-.28.13-.4.63-.82,1.06-1.77,1.3-2.86.17-.79.25-1.86.25-3.21v-1.44c0-.17.06-.31.18-.43.12-.12.26-.18.43-.18s.3.06.41.18c.12.12.17.26.17.43v1.48ZM36.56,99.74c0,.12-.03.22-.08.31-.97,1.58-2.26,2.78-3.86,3.58-.24.12-.46.18-.67.18-.26,0-.47-.09-.63-.28-.16-.18-.23-.43-.23-.73v-7.45c0-.17.06-.31.18-.43.12-.12.26-.18.43-.18s.3.06.42.18c.12.12.18.26.18.43v6.19c0,.4.12.6.35.6.12,0,.27-.06.44-.17.75-.46,1.53-1.31,2.33-2.56.13-.2.31-.3.54-.3.17,0,.31.06.43.18s.18.27.18.44Z"/>
      <path class="cls-1" d="M47.94,98.27c0,.24-.11.41-.34.5-.54.22-1.04.45-1.51.68-.33.16-.53.33-.61.5-.06.13-.08.38-.08.77v.77c0,.16-.06.29-.17.4-.11.11-.25.16-.41.16s-.29-.05-.4-.16c-.11-.11-.16-.24-.16-.4v-.46c0-.28-.1-.42-.31-.42-.09,0-.18.03-.29.1-.97.6-1.45,1.12-1.45,1.55,0,.25.16.43.49.53.33.11.89.16,1.68.16.62,0,1.45-.07,2.48-.2.17-.02.31.02.44.13.12.11.19.25.19.42,0,.14-.05.27-.14.38-.1.11-.22.17-.36.19-.91.1-1.81.16-2.69.16s-1.61-.08-2.1-.23c-.82-.26-1.22-.75-1.22-1.45,0-.82.88-1.75,2.65-2.8.29-.17.43-.34.43-.5,0-.21-.17-.31-.5-.31-.46,0-1.05.22-1.76.66-.58.36-1.08.76-1.52,1.2l-.31.37c-.13.12-.27.18-.42.18-.16,0-.29-.05-.4-.16s-.16-.24-.16-.4c0-.14.04-.27.13-.37.83-1,1.53-2,2.09-3,.06-.1.08-.19.08-.28,0-.21-.15-.31-.44-.3-.26,0-.65.01-1.16.01-.14,0-.27-.05-.37-.16-.1-.1-.15-.23-.15-.37,0-.15.05-.28.16-.38.11-.1.23-.15.38-.14.5.02,1.04.02,1.64,0,.47,0,.79-.23.96-.66l.24-.62c.1-.25.28-.37.54-.37.16,0,.29.06.4.17.11.11.16.24.16.4,0,.07-.01.14-.04.2-.04.1-.06.16-.07.18-.03.09-.05.17-.05.24,0,.23.14.33.43.3.3-.03.88-.11,1.73-.24.16-.02.3.02.43.13.13.11.19.24.19.4,0,.32-.16.5-.48.54-.8.1-1.52.18-2.15.23-.35.03-.62.11-.8.22-.18.12-.35.32-.51.62-.02.02-.06.09-.12.19-.09.15-.13.28-.13.37,0,.12.07.18.22.18.09,0,.2-.03.35-.08.42-.16.81-.24,1.16-.24.48,0,.85.16,1.1.48.18.22.34.32.5.32.09,0,.18-.02.29-.07l1.45-.71c.08-.04.16-.06.24-.06.15,0,.28.05.39.16.11.11.16.24.16.4Z"/>
      <path class="cls-1" d="M56.63,96.7c-.58.11-1.18.2-1.78.28-.33.04-.57.12-.71.25-.15.13-.26.35-.33.66-.45,1.9-1,3.72-1.67,5.46-.1.26-.3.4-.59.4-.18,0-.32-.06-.44-.19-.12-.12-.18-.27-.18-.44,0-.08.02-.16.05-.24.68-1.61,1.24-3.31,1.67-5.11.02-.06.02-.12.02-.18,0-.28-.17-.42-.5-.41-.34,0-.64,0-.92,0-.16,0-.3-.07-.41-.19-.12-.12-.17-.25-.17-.41s.06-.31.19-.43c.12-.12.27-.18.44-.17.46.02.82.02,1.1.01.45-.02.7-.24.77-.66.02-.18.06-.44.12-.79.06-.35.26-.52.61-.52.17,0,.31.06.43.18s.18.26.18.42c0,.08-.03.28-.1.6,0,.06-.01.11-.01.16,0,.32.18.45.53.4.05,0,.33-.06.84-.17.38-.07.65-.11.79-.11.17,0,.31.06.41.18s.16.26.16.43c0,.33-.16.52-.49.59ZM60.42,103.01c0,.34-.17.54-.5.59-.76.11-1.56.17-2.4.17-2.13,0-3.19-.6-3.19-1.79,0-.27.07-.58.2-.94.1-.24.28-.36.54-.36.38,0,.56.19.56.58,0,.06-.01.15-.04.27-.02.12-.04.21-.04.27,0,.54.68.82,2.05.82.6,0,1.31-.06,2.14-.18.18-.02.33.02.47.14.14.12.2.26.2.44ZM60.08,98.54c0,.17-.06.31-.19.43-.13.12-.28.18-.44.17-1.19-.06-2.47-.04-3.83.08-.17.02-.31-.03-.44-.15s-.19-.26-.19-.43c0-.15.05-.28.15-.39.1-.11.22-.17.37-.19,1.35-.14,2.68-.18,3.98-.14.16,0,.3.07.41.19.12.12.17.26.17.42Z"/>
      <path class="cls-1" d="M70.3,103.43c0,.18-.06.34-.19.47s-.28.19-.47.19-.34-.07-.48-.22c-1.52-1.59-3.06-2.96-4.61-4.12-.46-.34-.68-.67-.68-1s.26-.69.78-1.04c1.86-1.26,3.38-2.46,4.56-3.58.13-.12.27-.18.43-.18.18,0,.33.06.45.19s.19.27.19.45-.07.34-.2.46c-1.04.93-2.35,1.95-3.94,3.07-.35.25-.53.46-.53.65s.17.41.52.67c1.29.98,2.62,2.15,3.98,3.52.13.13.19.28.19.47Z"/>
      <path class="cls-1" d="M83.87,95.67c0,.23-.11.4-.34.52-.5.24-1.08.46-1.75.67-.26.08-.38.21-.38.38,0,.1.04.21.13.32.58.78,1.17,1.46,1.76,2.06.17.17.25.36.25.56,0,.18-.07.34-.2.47-.13.13-.3.19-.5.19-.13,0-.26-.03-.4-.08-.97-.43-1.96-.65-2.96-.65-.74,0-1.31.11-1.72.34-.41.22-.61.53-.61.92,0,.9.98,1.36,2.93,1.36.72,0,1.5-.06,2.33-.17.17-.02.32.02.45.14.13.12.2.26.2.44,0,.14-.05.27-.15.38s-.22.17-.35.19c-.78.1-1.55.16-2.33.16-2.86,0-4.3-.8-4.3-2.4,0-.87.38-1.51,1.14-1.91.58-.31,1.36-.47,2.32-.47.39,0,.82.05,1.3.16.07.02.12.02.13.02.07.02.14.02.2.02.17,0,.25-.06.25-.18,0-.1-.05-.2-.14-.32-.3-.37-.53-.65-.67-.85-.26-.35-.58-.53-.95-.53-.09,0-.19,0-.31.02-1.01.15-2.09.23-3.25.23-.16,0-.3-.06-.41-.17-.11-.11-.17-.25-.17-.41s.06-.3.17-.41c.11-.11.25-.17.41-.17.94,0,1.82-.06,2.64-.16.28-.03.42-.15.42-.36,0-.1-.04-.21-.11-.32l-.41-.67c-.06-.1-.08-.2-.08-.3,0-.16.06-.3.17-.41.12-.12.25-.17.41-.17.24,0,.42.1.53.31.27.53.44.84.52.94.26.37.53.55.82.55.1,0,.21-.02.32-.05.62-.18,1.24-.42,1.86-.72.08-.04.16-.06.25-.06.16,0,.3.06.41.17.11.12.17.25.17.41Z"/>
      <path class="cls-1" d="M96.91,100.85c-.28.82-.66,1.52-1.15,2.1-.56.66-1.2.98-1.91.98-.6,0-1.04-.16-1.33-.47-.25-.28-.42-.72-.5-1.33-.12-.82-.19-1.26-.2-1.34-.1-.47-.28-.71-.53-.71-.36,0-.87.36-1.52,1.09-.71.79-1.17,1.44-1.37,1.94l-.16.4c-.09.22-.28.32-.56.32-.18,0-.32-.06-.44-.18-.12-.12-.17-.26-.17-.43,0-.07.01-.14.04-.2.74-2.08,1.85-4.91,3.35-8.48.1-.26.29-.38.56-.38.18,0,.32.06.44.19.12.12.18.27.18.44,0,.09-.02.17-.05.25-.32.72-.87,1.97-1.64,3.76-.07.18-.11.32-.11.43,0,.15.06.23.17.23s.25-.06.42-.19c.37-.28.72-.42,1.07-.42.58,0,.98.22,1.2.67.16.31.3.89.43,1.74.08.54.15.88.2,1.01.1.26.27.4.52.4.74,0,1.38-.76,1.91-2.29.1-.28.29-.42.59-.42.18,0,.32.06.44.19s.18.28.18.46c0,.09-.02.18-.05.26Z"/>
      <path class="cls-1" d="M108.16,103.06c0,.68-.34,1.02-1.02,1.02h-6.28c-.68,0-1.02-.34-1.02-1.02v-2.59c0-.68.34-1.02,1.02-1.02h1.66c.3,0,.52-.13.64-.4l.1-.22c-.18.1-.46.16-.86.16h-1.02c-.12,0-.22-.04-.31-.13s-.13-.19-.13-.31.04-.22.13-.31.19-.13.31-.13h.62c.26,0,.42-.04.48-.12s.1-.26.1-.53v-1.91c0-.34-.17-.5-.5-.5h-2.83c-.13,0-.24-.05-.32-.14-.09-.09-.13-.2-.13-.33s.04-.24.13-.32.2-.13.32-.13h3.38c.68,0,1.02.34,1.02,1.02v2.66c0,.34-.05.59-.16.77.1-.04.18-.06.26-.06.16,0,.29.05.4.16.1.11.16.24.16.39,0,.04-.01.08-.01.11,0,.17.11.25.32.25h2.53c.68,0,1.02.34,1.02,1.02v2.59ZM102.23,97.02c0,.19-.09.33-.26.41-.71.33-1.47.65-2.28.97-.06.02-.12.04-.18.04-.13,0-.24-.05-.34-.14s-.14-.21-.14-.34c0-.24.11-.4.34-.47.82-.26,1.57-.56,2.26-.88.05-.02.11-.04.18-.04.12,0,.22.04.31.13s.13.19.13.31ZM101.34,96.16c0,.13-.05.24-.14.34-.09.1-.21.14-.34.14-.12,0-.22-.03-.29-.08-.17-.13-.43-.31-.79-.55-.15-.08-.23-.21-.23-.4,0-.12.05-.23.14-.32.09-.09.2-.14.33-.14.07,0,.14.02.22.06.27.15.56.34.88.55.15.1.23.24.23.4ZM107.03,100.86v-.08c0-.3-.17-.44-.52-.44h-5.04c-.34,0-.5.15-.5.44v.08c0,.28.14.42.42.42h5.22c.28,0,.42-.14.42-.42ZM107.03,102.68v-.13c0-.28-.14-.42-.42-.42h-5.22c-.28,0-.42.14-.42.42v.13c0,.3.17.44.5.44h5.04c.34,0,.52-.15.52-.44ZM108.89,97.78c0,.47-.09.79-.26.96s-.5.25-.99.25h-1.07c-.12,0-.22-.04-.31-.13s-.13-.19-.13-.31.04-.22.13-.31.19-.13.31-.13h.67c.26,0,.42-.04.48-.11.06-.08.1-.25.1-.53v-1.91c0-.34-.17-.5-.5-.5h-2.81c-.13,0-.24-.05-.32-.14-.09-.09-.13-.2-.13-.33s.04-.24.13-.32c.09-.09.2-.13.32-.13h3.36c.68,0,1.02.34,1.02,1.02v2.62ZM107.46,96.98c0,.18-.08.32-.25.4-.73.34-1.49.67-2.29.97-.08.02-.13.02-.16.02-.13,0-.24-.04-.34-.13-.1-.09-.14-.2-.14-.34,0-.22.11-.36.32-.43.89-.3,1.64-.6,2.24-.89.05-.02.1-.04.17-.04.12,0,.22.04.31.13.09.08.13.19.13.31ZM106.51,96.14c0,.32-.16.48-.48.48-.11,0-.2-.03-.28-.08-.22-.18-.49-.36-.8-.54-.15-.09-.23-.22-.23-.4,0-.13.04-.24.13-.32s.2-.13.32-.13c.1,0,.17.02.23.05.4.24.69.42.88.55.15.1.23.24.23.4Z"/>
      <path class="cls-1" d="M114.14,96.95c0,.12-.04.23-.11.32-.14.18-.29.38-.47.6-.26.32-.38.67-.38,1.04v4.88c0,.14-.05.27-.16.38-.11.11-.23.17-.38.17-.15,0-.28-.05-.39-.16-.11-.11-.16-.24-.16-.39v-3.75c0-.21-.07-.31-.22-.31-.07,0-.15.04-.23.11l-.18.17c-.11.09-.24.13-.37.13-.15,0-.28-.05-.4-.16-.11-.11-.17-.24-.17-.39,0-.18.07-.32.22-.43.94-.73,1.76-1.57,2.45-2.52.1-.14.24-.2.42-.2.15,0,.28.05.38.15.1.1.15.22.15.37ZM113.83,94.42c0,.1-.04.2-.11.3-.61.82-1.3,1.55-2.08,2.2-.1.09-.22.13-.36.13-.15,0-.28-.05-.38-.16-.1-.1-.16-.23-.16-.38,0-.17.07-.31.2-.42.76-.6,1.42-1.26,1.97-1.98.1-.14.24-.2.4-.2.14,0,.27.05.37.15s.15.22.15.37ZM121.46,100.73c0,.14-.05.25-.15.35s-.21.14-.34.14h-.7c-.32,0-.48.16-.48.48v1.04c0,.6-.09.99-.26,1.18-.17.18-.54.28-1.11.28h-.88c-.14,0-.25-.05-.35-.14-.1-.1-.14-.21-.14-.35s.05-.25.14-.35.21-.14.35-.14h.52c.29,0,.46-.05.53-.14.06-.1.1-.29.1-.59v-.78c0-.32-.16-.48-.48-.48h-3.86c-.13,0-.24-.05-.34-.14-.1-.1-.14-.21-.14-.35,0-.13.05-.24.14-.33.1-.09.21-.14.34-.14h3.86c.32,0,.48-.12.48-.36s-.16-.35-.48-.35h-3.58c-.13,0-.24-.05-.33-.14-.09-.09-.14-.2-.14-.33s.05-.24.14-.33c.09-.09.2-.14.33-.14h6.17c.13,0,.24.05.33.14.09.09.14.2.14.33s-.05.24-.14.33c-.09.09-.2.14-.33.14h-.53c-.32,0-.48.12-.48.35s.16.36.48.36h.7c.13,0,.24.05.34.14s.15.2.15.33ZM120.79,97.01c0,.66-.33,1-1,1h-4.14c-.66,0-.98-.33-.98-1v-1.97c0-.66.33-1,.98-1h4.14c.66,0,1,.33,1,1v1.97ZM116.9,102.64c0,.15-.05.28-.16.39-.11.11-.23.16-.38.16-.2,0-.35-.09-.46-.26-.16-.27-.36-.54-.59-.82-.07-.09-.11-.19-.11-.31,0-.14.05-.27.16-.37.1-.1.23-.16.37-.16.17,0,.31.07.42.2.27.34.49.63.66.89.06.09.08.18.08.28ZM119.69,95.29c0-.2-.14-.3-.41-.3h-3.08c-.28,0-.42.1-.42.3,0,.22.14.32.42.32h3.07c.28,0,.42-.11.42-.32ZM119.69,96.8c0-.23-.14-.35-.42-.35h-3.07c-.28,0-.42.12-.42.35,0,.2.14.3.42.3h3.08c.27,0,.41-.1.41-.3Z"/>
      <path class="cls-1" d="M133.51,96.08c0,.16-.06.3-.17.41-.11.11-.25.17-.41.17-1.26-.02-2.1-.02-2.53-.01-.39,0-.59.2-.59.61v.66c0,.3.08.75.24,1.36.06.25.1.5.1.77,0,1.06-.29,1.92-.86,2.6-.58.68-1.47,1.2-2.68,1.58-.06.02-.12.02-.18.02-.15,0-.29-.06-.4-.17-.12-.11-.17-.25-.17-.42,0-.28.14-.46.42-.55,1.14-.34,1.93-.87,2.38-1.58.08-.13.12-.24.12-.32,0-.11-.06-.17-.18-.17-.07,0-.16.02-.25.07-.22.11-.47.17-.73.17-.59,0-1.07-.15-1.43-.44-.39-.33-.59-.78-.59-1.36s.22-1.08.66-1.43c.41-.33.92-.49,1.52-.49.06,0,.14,0,.25.01.11,0,.19.01.24.01.23,0,.35-.1.35-.3,0-.41-.2-.6-.61-.59-1.46.06-2.92.14-4.4.25-.17.02-.31-.03-.44-.15s-.19-.26-.19-.43.05-.29.16-.4.24-.17.39-.17l4.46-.22c.38-.02.58-.2.58-.54v-.54c0-.17.06-.31.19-.44.12-.12.27-.19.44-.19s.31.06.43.18c.12.12.18.26.18.43v.46c0,.41.2.61.6.6,1.21-.02,2.06-.02,2.54-.01.16,0,.29.05.4.16.11.11.16.24.16.4ZM128.54,99.51c.03-.11.05-.22.05-.31,0-.3-.13-.51-.38-.61-.14-.06-.3-.08-.48-.08-.27,0-.5.09-.69.26-.19.18-.28.4-.28.66,0,.55.29.83.88.83.48,0,.78-.25.91-.74Z"/>
      <path class="cls-1" d="M144.84,100.76c0,1.14-.47,2-1.42,2.56-.75.45-1.67.67-2.75.67-.94,0-1.67-.15-2.21-.45s-.81-.7-.81-1.21.19-.86.56-1.13c.34-.25.75-.37,1.25-.37.67,0,1.24.21,1.7.62.24.22.43.46.58.72.14.26.31.4.5.4.11,0,.24-.04.38-.12.66-.35.98-.89.98-1.62,0-.54-.2-.97-.59-1.27-.4-.3-.93-.45-1.59-.44-1.7.02-3.21.57-4.55,1.64-.2.16-.36.24-.48.24-.15,0-.28-.05-.4-.16-.11-.11-.17-.24-.17-.4,0-.18.07-.32.2-.43,1.18-1,2.67-2.27,4.45-3.8.14-.13.22-.24.22-.35,0-.17-.15-.24-.46-.22-.54.04-1.44.1-2.71.18-.16,0-.3-.04-.42-.16-.12-.11-.18-.25-.18-.41s.05-.3.16-.41c.11-.11.24-.17.4-.17,1.52,0,3.13-.09,4.82-.24.25-.02.45.03.6.15s.23.29.23.49-.11.4-.32.58c-.82.66-1.68,1.37-2.6,2.15-.13.1-.19.2-.19.3,0,.12.09.18.26.18.06,0,.12,0,.18-.02.43-.09.84-.13,1.21-.13.91,0,1.65.21,2.21.62.62.46.94,1.14.94,2.02ZM140.19,102.96c.3.02.46-.1.46-.36,0-.13-.06-.25-.17-.37-.27-.3-.62-.46-1.04-.46s-.66.16-.66.47c0,.28.24.48.71.61.19.05.43.08.71.11Z"/>
      <path class="cls-1" d="M156.8,102.53c0,.34-.16.54-.49.6-1.31.23-2.53.35-3.66.35s-2.01-.09-2.66-.28c-1.07-.3-1.61-.88-1.61-1.74,0-.58.38-1.25,1.14-2.02.11-.1.24-.16.4-.16s.29.05.4.16c.11.11.17.24.17.39,0,.14-.05.26-.16.37-.43.45-.65.82-.65,1.12,0,.66,1.02,1,3.05,1,.97,0,2.1-.12,3.38-.37.18-.03.34,0,.48.13.14.12.22.27.22.45ZM155.5,96.32c-.67.26-1.49.71-2.45,1.33-.1.06-.19.1-.28.1-.13,0-.25-.05-.35-.15-.1-.1-.15-.22-.15-.37,0-.18.08-.32.24-.42l.16-.1c.15-.09.23-.18.23-.26,0-.1-.12-.16-.35-.16-.88.02-1.87,0-2.95-.07-.15,0-.28-.07-.39-.18-.11-.11-.16-.24-.16-.4,0-.17.06-.31.19-.43.12-.12.27-.17.44-.16,1.91.11,3.77.12,5.57.04.23,0,.42.05.56.17.14.12.21.26.21.43,0,.28-.17.49-.5.62Z"/>
      <path class="cls-1" d="M168.7,102.84c0,.34-.17.54-.52.59-1.32.18-2.64.28-3.96.28-2.35,0-3.53-.71-3.53-2.12,0-.86.6-1.76,1.81-2.69.24-.18.36-.4.36-.64,0-.11-.02-.23-.07-.36-.35-.89-.64-1.84-.88-2.87,0-.04-.01-.08-.01-.13,0-.18.06-.33.19-.45s.27-.19.45-.19c.15,0,.29.05.4.16.12.1.19.23.22.38.15.8.37,1.6.66,2.41.1.26.25.4.46.4.11,0,.23-.04.35-.11.07-.04.96-.52,2.65-1.45.1-.06.2-.08.29-.08.17,0,.31.06.43.18.12.12.17.26.17.43,0,.25-.11.43-.34.54-.98.49-2.05,1.06-3.19,1.73-.73.42-1.31.82-1.74,1.19-.62.54-.94,1.02-.94,1.46,0,.72.75,1.08,2.26,1.08,1.24,0,2.5-.11,3.78-.32.18-.03.34.01.48.13.14.12.22.27.22.46Z"/>
      <path class="cls-1" d="M178.62,98.35c0,1.3-.21,2.71-.64,4.22-.13.46-.27.78-.42.97-.22.29-.52.43-.9.43-.44,0-.99-.12-1.66-.35-.27-.1-.41-.28-.41-.54,0-.16.06-.29.17-.41.12-.11.25-.17.4-.17.06,0,.12,0,.17.02.42.14.7.2.86.2.19,0,.33-.06.41-.17.06-.08.14-.26.22-.54.38-1.29.56-2.46.56-3.5,0-.38-.08-.64-.23-.77-.15-.13-.44-.19-.86-.19h-.17c-.07,0-.13.01-.18.01-.4,0-.66.21-.78.62-.54,1.82-1.25,3.57-2.14,5.27-.12.23-.31.35-.56.35-.18,0-.32-.06-.44-.19-.12-.12-.18-.27-.18-.45,0-.13.02-.24.07-.32.75-1.32,1.42-2.81,1.99-4.48.02-.08.04-.15.04-.22,0-.29-.17-.41-.52-.36-.25.04-.64.1-1.16.17-.17.02-.32-.02-.46-.14-.14-.12-.21-.26-.21-.44,0-.34.18-.53.53-.58.35-.05.91-.12,1.67-.21.38-.03.64-.27.78-.72.07-.39.14-.78.2-1.18.06-.34.26-.52.6-.52.19,0,.35.07.46.21.12.14.16.31.13.5,0,.04-.04.22-.11.53-.06.22-.08.39-.08.52,0,.34.19.49.56.47h.18c.61-.05,1.1.06,1.48.31.42.29.62.83.62,1.62ZM180.23,95.72c0,.13-.05.24-.14.33-.09.09-.2.14-.33.14-.19,0-.33-.07-.42-.22-.23-.37-.48-.68-.74-.95-.09-.09-.13-.2-.13-.32,0-.32.16-.48.47-.48.14,0,.26.06.36.18.34.38.62.73.84,1.06.06.1.1.18.1.26ZM181,99.92c-.34-.87-.79-1.72-1.36-2.56-.06-.1-.1-.2-.1-.32,0-.17.06-.31.19-.43s.27-.17.44-.17c.2,0,.36.09.49.26.63.89,1.14,1.81,1.54,2.76.03.08.05.16.05.24,0,.17-.07.32-.21.44s-.3.19-.47.19c-.26,0-.45-.14-.56-.42ZM181.69,95.04c0,.13-.05.24-.14.33-.09.09-.2.14-.33.14-.18,0-.32-.07-.42-.22-.26-.39-.51-.72-.74-.97-.09-.1-.13-.2-.13-.3,0-.32.16-.48.48-.48.12,0,.24.06.35.17.28.28.56.64.85,1.07.06.11.08.2.08.26Z"/>
      <path class="cls-1" d="M193.48,95.42c0,.32-.22.51-.65.58-1.21.18-2.28.68-3.22,1.49s-1.4,1.67-1.4,2.56c0,1.3,1.04,2.12,3.11,2.48.34.06.52.26.52.61,0,.19-.07.35-.22.49-.15.13-.32.18-.51.14-1.24-.24-2.18-.61-2.83-1.1-.86-.66-1.28-1.5-1.28-2.52,0-.86.29-1.65.88-2.35.26-.3.51-.56.76-.77s.37-.38.37-.53c0-.19-.2-.27-.61-.24-1.64.14-2.97.28-4,.42-.18.02-.33-.02-.46-.14s-.19-.27-.19-.44c0-.15.05-.29.15-.4.1-.12.23-.18.38-.19,1.47-.14,4.3-.36,8.48-.65.22,0,.39.04.53.15.14.11.2.25.2.41ZM192.83,98.96c0,.13-.05.24-.14.33s-.2.14-.33.14c-.19,0-.33-.07-.42-.22-.23-.37-.48-.68-.74-.95-.09-.09-.13-.2-.13-.32,0-.32.16-.48.47-.48.14,0,.26.06.36.18.34.38.62.73.84,1.06.06.1.1.18.1.26ZM194.29,98.28c0,.13-.05.24-.14.33s-.2.14-.33.14c-.18,0-.32-.07-.42-.22-.26-.39-.51-.72-.74-.97-.09-.1-.13-.2-.13-.3,0-.32.16-.48.48-.48.12,0,.24.06.35.17.28.28.56.64.85,1.07.06.11.08.2.08.26Z"/>
      <path class="cls-1" d="M205.38,97.29c0,.26-.12.43-.37.52-.53.18-1.01.33-1.44.43-.26.06-.38.19-.38.37,0,.1.04.21.12.32.39.54.76,1.01,1.09,1.39.11.13.17.27.17.43,0,.18-.06.34-.19.47s-.28.2-.47.2c-.1,0-.19-.02-.28-.05-1.06-.42-2.06-.64-3-.64-1.54,0-2.3.36-2.3,1.09s.97,1.07,2.9,1.07c.66,0,1.42-.04,2.26-.13.16-.02.3.03.43.14.13.11.19.24.19.4,0,.33-.17.51-.5.54-.76.08-1.56.12-2.4.12-2.7,0-4.04-.7-4.04-2.11s1.08-2.1,3.24-2.1c.5,0,1.09.08,1.76.23.06.02.12.02.17.02.16,0,.24-.06.24-.17,0-.08-.04-.17-.12-.28-.04-.06-.15-.2-.32-.44-.22-.3-.48-.44-.8-.44-.1,0-.2,0-.32.02-1.11.15-2.33.22-3.66.2-.14,0-.27-.05-.37-.16-.1-.1-.15-.23-.15-.37s.05-.27.16-.38c.1-.11.23-.16.37-.15.99.03,2.05-.01,3.18-.13.3-.03.46-.15.46-.36,0-.1-.03-.19-.1-.28-.19-.33-.47-.47-.83-.43-.69.08-1.48.12-2.38.12-.14,0-.26-.05-.37-.16-.11-.1-.16-.22-.16-.36,0-.14.05-.27.16-.37.11-.1.23-.15.37-.15.66,0,1.28-.01,1.85-.06.34-.03.5-.14.5-.32,0,0-.07-.18-.22-.53-.02-.06-.04-.12-.04-.19,0-.16.06-.3.17-.41.11-.12.25-.17.42-.17.26,0,.44.13.54.38.03.1.09.24.17.44.12.3.32.46.6.46.07,0,.15-.01.23-.04.56-.14,1.12-.32,1.68-.52.06-.02.12-.04.18-.04.15,0,.28.05.39.16.11.1.16.23.16.38,0,.27-.13.45-.38.53-.59.19-1.11.34-1.56.44-.29.06-.43.2-.43.4,0,.09.03.18.1.26l.02.04c.17.26.37.38.61.38.06,0,.13,0,.2-.02.63-.15,1.22-.33,1.78-.54.04-.02.1-.02.17-.02.15,0,.28.05.39.16.11.1.16.23.16.38Z"/>
      <path class="cls-1" d="M218.34,99.6c0,.1-.02.18-.07.26-.42.74-.89,1.1-1.4,1.1-.3,0-.58-.11-.84-.32-.16-.13-.3-.19-.43-.19-.12,0-.28.09-.48.26-.14.13-.29.26-.43.4-.1.09-.22.13-.35.13-.14,0-.25-.05-.35-.15-.1-.1-.15-.22-.15-.37,0-.17.06-.3.19-.4.25-.18.5-.4.74-.64.15-.14.23-.3.23-.48,0-.1-.02-.22-.07-.34-.25-.69-.44-1.5-.56-2.42-.04-.3-.21-.46-.52-.46h-3.53c-.34,0-.52.17-.52.52v.76c0,1.44-.28,2.62-.84,3.53-.11.18-.28.28-.49.28-.16,0-.29-.05-.4-.16-.11-.11-.16-.24-.16-.39,0-.11.03-.21.08-.3.51-.81.77-1.9.77-3.29v-.92c0-.68.34-1.02,1.02-1.02h3.94c.32,0,.48-.12.47-.37v-.37c-.02-.15.03-.28.13-.38.1-.1.23-.16.38-.16s.26.05.36.15.15.22.16.35v.31c.02.31.18.47.49.47h.74l-.06-.04-.48-.35c-.1-.07-.16-.18-.16-.34,0-.12.05-.22.14-.31s.2-.13.32-.13c.1,0,.19.03.29.1l.42.29c.16.14.24.27.24.41,0,.15-.07.28-.2.37h.53c.14,0,.25.05.35.15.1.1.15.22.15.35s-.05.25-.15.35c-.1.1-.22.15-.35.15h-1.64c-.35,0-.5.17-.46.52.06.43.14.83.22,1.2.04.18.12.26.25.26.1,0,.19-.07.25-.22.14-.31.25-.64.34-.97.06-.24.22-.36.47-.36.14,0,.25.05.34.14s.14.21.14.34c0,.06,0,.11-.02.16-.22.7-.5,1.32-.83,1.88-.1.17-.16.32-.16.44,0,.14.06.26.18.36.12.1.25.16.38.16.08,0,.21-.14.38-.41.17-.27.35-.41.55-.41.14,0,.26.05.35.14.09.1.13.22.13.36ZM209.9,101.56s0,.09-.02.17c-.26.74-.59,1.4-1.01,2-.11.16-.26.24-.44.24-.15,0-.28-.05-.38-.16-.1-.1-.15-.23-.15-.37,0-.11.03-.21.1-.3.39-.53.7-1.11.92-1.75.08-.22.24-.34.48-.34.14,0,.26.05.36.15.1.1.14.22.14.35ZM214.06,97c0,.11-.04.21-.13.29s-.18.13-.29.13h-2.95c-.11,0-.21-.04-.29-.13s-.13-.18-.13-.29.04-.21.13-.29.18-.13.29-.13h2.95c.11,0,.21.04.29.13s.13.18.13.29ZM213.86,99.73c0,.56-.28.84-.84.84h-1.79c-.56,0-.84-.28-.84-.84v-.89c0-.56.28-.84.84-.84h1.79c.56,0,.84.28.84.84v.89ZM215.98,102.58c-.04.67-.18,1.11-.42,1.31s-.71.31-1.42.31h-2.16c-.47,0-.8-.07-.97-.21-.18-.14-.26-.4-.26-.79v-1.52c0-.14.05-.27.16-.37s.23-.16.37-.16.27.05.37.16.16.23.16.37v1.02c0,.22.03.35.1.4.07.05.22.08.46.08h1.57c.37,0,.61-.1.73-.3.06-.19.12-.39.2-.58.08-.2.27-.29.57-.29.16,0,.29.06.4.17.1.12.15.25.14.4ZM212.92,99.43v-.25c0-.22-.13-.34-.4-.34h-.77c-.27,0-.41.11-.41.34v.25c0,.22.14.34.41.34h.77c.26,0,.4-.11.4-.34ZM214.1,102.12c0,.14-.05.25-.14.34-.1.09-.21.14-.35.14-.18,0-.31-.06-.4-.18-.19-.27-.43-.55-.71-.84-.09-.09-.13-.2-.13-.32s.05-.24.14-.33c.1-.09.21-.14.34-.14s.24.05.34.14c.3.3.56.58.79.86.08.1.12.2.12.32ZM218.38,103.2c0,.15-.06.28-.17.39-.11.11-.24.16-.4.16-.22,0-.38-.1-.49-.31-.3-.58-.67-1.13-1.09-1.64-.06-.07-.08-.18-.08-.31,0-.14.05-.27.15-.37s.22-.15.37-.15c.16,0,.3.07.41.2.53.66.94,1.24,1.24,1.75.05.08.07.17.07.28Z"/>
      <path class="cls-1" d="M223.36,95.77c0,.14-.05.26-.14.36-.1.1-.22.14-.36.14h-2.41c-.14,0-.26-.05-.36-.14-.1-.1-.14-.22-.14-.36s.05-.25.15-.35c.1-.1.22-.15.35-.15h.29c.28,0,.42-.14.42-.42v-.61c0-.14.05-.27.16-.37.1-.1.23-.15.37-.15s.27.05.37.15c.1.1.16.22.16.37v.61c0,.28.14.42.42.42h.23c.14,0,.25.05.35.15.1.1.15.22.15.35ZM223.15,103.28c0,.56-.28.84-.84.84h-1.27c-.56,0-.84-.28-.84-.84v-1.81c0-.56.28-.84.84-.84h1.27c.56,0,.84.28.84.84v1.81ZM223.12,97.58c0,.14-.05.25-.14.34-.1.09-.21.14-.34.14h-1.92c-.13,0-.24-.05-.33-.14-.09-.09-.14-.21-.14-.34,0-.13.05-.24.14-.33s.2-.14.33-.14h1.92c.13,0,.24.05.34.14s.14.2.14.33ZM223.12,99.32c0,.13-.05.24-.14.33s-.2.14-.33.14h-1.93c-.13,0-.24-.05-.33-.14s-.14-.2-.14-.33.05-.24.14-.33.2-.14.33-.14h1.93c.13,0,.24.05.33.14s.14.2.14.33ZM222.23,102.74v-.77c0-.26-.13-.4-.38-.4h-.31c-.26,0-.38.13-.38.4v.77c0,.26.13.38.38.38h.31c.26,0,.38-.13.38-.38ZM227.06,99.7c-.17.28-.25.58-.25.9v2.4c0,.51-.08.86-.23,1.04-.16.18-.44.28-.85.28h-.53c-.13,0-.24-.05-.33-.14-.09-.1-.14-.21-.14-.35,0-.13.05-.24.14-.33.09-.09.2-.14.33-.14h.24c.19,0,.32-.04.38-.12.06-.08.1-.22.1-.43v-.85c0-.22-.06-.34-.17-.34-.07,0-.16.06-.26.17-.37.4-.8.81-1.28,1.24-.08.07-.19.11-.32.11-.32,0-.48-.16-.48-.48,0-.18.07-.31.22-.41.38-.26.78-.57,1.2-.95.11-.1.17-.18.17-.25,0-.1-.07-.14-.22-.14-.05,0-.1,0-.16.02-.2.05-.5.12-.9.2-.14.03-.26,0-.38-.1s-.18-.22-.18-.36c0-.2.06-.33.19-.4.21-.1.31-.24.31-.4v-4.03c0-.48.2-.75.61-.82.27-.05.43-.17.47-.37l.11-.56c.06-.27.22-.41.5-.41.14,0,.26.05.35.14.09.1.14.21.14.35,0,.04,0,.08-.01.12l-.07.31s-.01.09-.01.13c0,.18.12.26.35.26.48,0,.72.28.72.84v2.88c0,.12.07.22.2.3.11.06.17.17.17.31,0,.11-.04.23-.12.36ZM225.91,96.41v-.08c0-.26-.11-.38-.32-.38h-.68c-.21,0-.31.13-.31.38v.08c0,.2.1.3.3.3h.72c.2,0,.3-.1.3-.3ZM225.91,97.98v-.16c0-.2-.1-.3-.3-.3h-.72c-.2,0-.3.1-.3.3v.16c0,.2.1.3.3.3h.72c.2,0,.3-.1.3-.3ZM225.92,99.51v-.1c0-.2-.1-.3-.3-.3h-.73c-.2,0-.3.1-.3.3v.3c0,.22.12.3.37.26.2-.03.4-.06.6-.1.24-.07.36-.2.36-.37ZM230.88,96.55c0,.14-.05.27-.16.37s-.23.16-.37.16c-.28,0-.42.16-.42.48v5.12c0,.66-.11,1.08-.32,1.28-.16.15-.49.23-1,.23h-.49c-.14,0-.27-.05-.37-.16-.1-.1-.16-.23-.16-.37s.05-.27.16-.37c.1-.1.23-.15.37-.15h.2c.29,0,.46-.07.53-.22.04-.1.06-.31.06-.64v-4.74c0-.32-.16-.48-.48-.48h-.82c-.14,0-.27-.05-.37-.16-.1-.1-.15-.23-.15-.37s.05-.27.15-.37c.1-.1.22-.16.37-.16h.78c.32,0,.48-.16.48-.48v-1.16c0-.14.05-.27.16-.37.1-.1.23-.16.37-.16s.27.05.37.16c.1.1.16.23.16.37v1.16c0,.32.14.48.42.48.14,0,.27.05.37.16.1.1.16.23.16.37ZM228.58,100.38c0,.12-.04.22-.13.31s-.19.13-.31.13c-.23,0-.37-.12-.42-.35-.1-.5-.28-1.09-.53-1.79-.02-.05-.02-.09-.02-.13,0-.11.04-.21.13-.29.09-.08.19-.13.31-.13.21,0,.34.1.41.29.38,1.14.56,1.79.56,1.96Z"/>
      <path class="cls-1" d="M241.96,95.42c0,.32-.22.51-.65.58-1.21.18-2.28.68-3.22,1.49s-1.4,1.67-1.4,2.56c0,1.3,1.04,2.12,3.11,2.48.34.06.52.26.52.61,0,.19-.07.35-.22.49-.15.13-.32.18-.51.14-1.24-.24-2.18-.61-2.83-1.1-.86-.66-1.28-1.5-1.28-2.52,0-.86.29-1.65.88-2.35.26-.3.51-.56.76-.77s.37-.38.37-.53c0-.19-.2-.27-.61-.24-1.64.14-2.97.28-4,.42-.18.02-.33-.02-.46-.14s-.19-.27-.19-.44c0-.15.05-.29.15-.4.1-.12.23-.18.38-.19,1.47-.14,4.3-.36,8.48-.65.22,0,.39.04.53.15.14.11.2.25.2.41ZM241.31,98.96c0,.13-.05.24-.14.33s-.2.14-.33.14c-.19,0-.33-.07-.42-.22-.23-.37-.48-.68-.74-.95-.09-.09-.13-.2-.13-.32,0-.32.16-.48.47-.48.14,0,.26.06.36.18.34.38.62.73.84,1.06.06.1.1.18.1.26ZM242.77,98.28c0,.13-.05.24-.14.33s-.2.14-.33.14c-.18,0-.32-.07-.42-.22-.26-.39-.51-.72-.74-.97-.09-.1-.13-.2-.13-.3,0-.32.16-.48.48-.48.12,0,.24.06.35.17.28.28.56.64.85,1.07.06.11.08.2.08.26Z"/>
      <path class="cls-1" d="M33.39,116.41c-.7,1.38-1.38,2.08-2.03,2.08-.8,0-1.42-.71-1.86-2.14-.34-1.1-.52-2.36-.52-3.76,0-.72.02-1.34.07-1.86.02-.17.08-.31.2-.42.12-.11.26-.17.43-.17.18,0,.34.07.46.21s.18.3.16.49c-.06.54-.08,1.16-.08,1.86,0,.92.1,1.83.3,2.74.22,1,.52,1.5.89,1.5.26,0,.56-.36.9-1.08.1-.22.28-.32.54-.32.17,0,.31.06.43.17.12.12.17.26.17.43,0,.1-.02.2-.06.28ZM38.59,116.04c.02.19-.03.36-.16.52-.13.15-.29.23-.49.23-.17,0-.32-.06-.44-.17-.13-.11-.2-.25-.22-.41-.2-1.82-.79-3.43-1.76-4.85-.07-.1-.11-.22-.11-.35,0-.18.06-.32.18-.44s.27-.18.44-.18c.22,0,.39.09.52.26,1.1,1.54,1.78,3.33,2.04,5.39Z"/>
      <path class="cls-1" d="M50.09,114.52c0,1.14-.53,2.04-1.6,2.69-.79.48-1.84.81-3.16.98-.17.02-.32-.02-.44-.14-.13-.12-.19-.26-.19-.43,0-.14.05-.26.14-.37.1-.11.21-.17.35-.19,2.46-.33,3.7-1.18,3.7-2.56,0-.97-.64-1.45-1.92-1.45-1.02,0-2.66.3-4.91.9-.06.02-.11.02-.16.02-.15,0-.29-.06-.41-.17-.12-.12-.18-.25-.18-.41,0-.3.15-.49.46-.56.78-.19,1.53-.36,2.23-.49,1.28-.25,2.28-.37,3-.37.9,0,1.6.17,2.11.52.65.43.97,1.11.97,2.03Z"/>
      <path class="cls-1" d="M55.01,110c-.3,1.88-.46,3.66-.46,5.35,0,.92.05,1.9.16,2.94.02.18-.04.34-.16.48-.12.14-.27.2-.46.2-.16,0-.3-.06-.43-.17-.12-.11-.19-.24-.2-.4-.09-1.15-.13-2.16-.13-3.04,0-1.98.15-3.83.46-5.57.06-.34.26-.52.6-.52.18,0,.34.07.47.22.13.14.18.31.14.49ZM62.81,117.49c0,.17-.06.31-.17.42-.11.11-.25.17-.42.17-.14,0-.25-.04-.35-.11-.21-.15-.44-.3-.7-.46-.1-.06-.19-.08-.28-.08-.18,0-.32.13-.42.4-.27.77-1.02,1.15-2.23,1.15-.61,0-1.12-.13-1.54-.38-.5-.3-.74-.74-.74-1.31s.21-1.01.62-1.33c.42-.32.99-.47,1.72-.47.21,0,.42.02.62.05.19.03.34,0,.44-.08s.15-.22.15-.4l-.04-1.85c0-.41-.22-.6-.62-.58-.29.02-.99.02-2.1.02-.15,0-.28-.06-.39-.17s-.16-.24-.16-.4.06-.29.17-.4c.12-.11.25-.16.41-.15.7.02,1.39.02,2.09,0,.38-.02.57-.22.56-.62v-1.07c-.01-.16.04-.3.16-.41.11-.12.25-.17.41-.17s.3.06.41.17c.11.11.17.25.17.41v.9c.02.38.19.56.52.56.04,0,.09,0,.14-.01l.73-.13c.17-.03.32,0,.46.11.14.11.2.25.2.43,0,.29-.18.48-.54.59-.06.02-.36.06-.91.13-.38.05-.56.26-.55.64l.04,2.27c0,.46.22.78.64.98.5.24.9.47,1.22.68.18.12.28.29.28.5ZM59.42,117.28c.02-.07.04-.14.04-.2,0-.26-.16-.43-.48-.49-.25-.05-.48-.07-.71-.07-.8,0-1.2.24-1.2.72,0,.21.1.38.31.5.21.13.47.19.79.19.69,0,1.1-.22,1.25-.65ZM63.49,109.5c0,.35-.13.66-.38.91s-.56.38-.91.38-.65-.13-.91-.38-.38-.56-.38-.92.12-.65.37-.9c.25-.25.55-.37.91-.37s.66.12.91.37.38.55.38.9ZM62.82,109.5c0-.17-.06-.31-.18-.43s-.27-.17-.44-.17-.32.06-.44.17c-.12.12-.17.26-.17.43,0,.18.06.32.18.44s.26.18.43.18.31-.06.44-.19c.12-.12.19-.27.19-.44Z"/>
      <path class="cls-1" d="M69.75,116.41c-.7,1.38-1.38,2.08-2.03,2.08-.8,0-1.42-.71-1.86-2.14-.34-1.1-.52-2.36-.52-3.76,0-.72.02-1.34.07-1.86.02-.17.08-.31.2-.42.12-.11.26-.17.43-.17.18,0,.34.07.46.21s.18.3.16.49c-.06.54-.08,1.16-.08,1.86,0,.92.1,1.83.3,2.74.22,1,.52,1.5.89,1.5.26,0,.56-.36.9-1.08.1-.22.28-.32.54-.32.17,0,.31.06.43.17.12.12.17.26.17.43,0,.1-.02.2-.06.28ZM74.95,116.04c.02.19-.03.36-.16.52-.13.15-.29.23-.49.23-.17,0-.32-.06-.44-.17-.13-.11-.2-.25-.22-.41-.2-1.82-.79-3.43-1.76-4.85-.07-.1-.11-.22-.11-.35,0-.18.06-.32.18-.44s.27-.18.44-.18c.22,0,.39.09.52.26,1.1,1.54,1.78,3.33,2.04,5.39Z"/>
      <path class="cls-1" d="M86.66,110.42c0,.32-.22.51-.65.58-1.21.18-2.28.68-3.22,1.49-.94.81-1.4,1.67-1.4,2.56,0,1.3,1.04,2.12,3.11,2.48.34.06.52.26.52.61,0,.19-.07.35-.22.49-.15.13-.32.18-.51.14-1.24-.24-2.18-.61-2.83-1.1-.86-.66-1.28-1.5-1.28-2.52,0-.86.29-1.65.88-2.35.26-.3.51-.56.76-.77s.37-.38.37-.53c0-.19-.2-.27-.61-.24-1.64.14-2.97.28-4,.42-.18.02-.33-.02-.46-.14s-.19-.27-.19-.44c0-.15.05-.29.15-.4s.23-.18.38-.19c1.47-.14,4.3-.36,8.48-.65.22,0,.39.04.53.15.14.11.2.25.2.41ZM86.01,113.96c0,.13-.05.24-.14.33-.09.09-.2.14-.33.14-.19,0-.33-.07-.42-.22-.23-.37-.48-.68-.74-.95-.09-.09-.13-.2-.13-.32,0-.32.16-.48.47-.48.14,0,.26.06.36.18.34.38.62.73.84,1.06.06.1.1.18.1.26ZM87.48,113.28c0,.13-.05.24-.14.33-.09.09-.2.14-.33.14-.18,0-.32-.07-.42-.22-.26-.39-.51-.72-.74-.97-.09-.1-.13-.2-.13-.3,0-.32.16-.48.48-.48.12,0,.24.06.35.17.28.28.56.64.85,1.07.06.11.08.2.08.26Z"/>
      <path class="cls-1" d="M99.42,111.08c0,.16-.06.3-.17.41-.11.11-.25.17-.41.17-1.26-.02-2.1-.02-2.53-.01-.39,0-.59.2-.59.61v.66c0,.3.08.75.24,1.36.06.25.1.5.1.77,0,1.06-.29,1.92-.86,2.6-.58.68-1.47,1.2-2.68,1.58-.06.02-.12.02-.18.02-.15,0-.29-.06-.4-.17-.12-.11-.17-.25-.17-.42,0-.28.14-.46.42-.55,1.14-.34,1.93-.87,2.38-1.58.08-.13.12-.24.12-.32,0-.11-.06-.17-.18-.17-.07,0-.16.02-.25.07-.22.11-.47.17-.73.17-.59,0-1.07-.15-1.43-.44-.39-.33-.59-.78-.59-1.36s.22-1.08.66-1.43c.41-.33.92-.49,1.52-.49.06,0,.14,0,.25.01.11,0,.19.01.24.01.23,0,.35-.1.35-.3,0-.41-.2-.6-.61-.59-1.46.06-2.92.14-4.4.25-.17.02-.31-.03-.44-.15s-.19-.26-.19-.43.05-.29.16-.4c.11-.11.24-.17.39-.17l4.46-.22c.38-.02.58-.2.58-.54v-.54c0-.17.06-.31.19-.44.12-.12.27-.19.44-.19s.31.06.43.18c.12.12.18.26.18.43v.46c0,.41.2.61.6.6,1.21-.02,2.06-.02,2.54-.01.16,0,.29.05.4.16.11.11.16.24.16.4ZM94.45,114.52c.03-.11.05-.22.05-.31,0-.3-.13-.51-.38-.61-.14-.06-.3-.08-.48-.08-.27,0-.5.09-.69.26s-.28.4-.28.66c0,.55.29.83.88.83.48,0,.78-.25.91-.74Z"/>
      <path class="cls-1" d="M105.13,117.85c0,.24-.08.44-.24.61-.16.16-.36.25-.6.25s-.44-.08-.61-.25-.25-.37-.25-.61.08-.44.25-.61.37-.25.61-.25.43.08.59.25c.16.17.25.37.25.6ZM109.07,110.21c0,.13-.04.26-.11.38l-3.1,5.46c-.11.19-.27.29-.48.29-.15,0-.28-.06-.4-.17-.11-.11-.17-.24-.17-.4,0-.07.02-.15.06-.23l2.7-5.66c.14-.3.38-.46.7-.46.22,0,.4.08.56.23.16.15.23.34.23.55Z"/>
      <path class="cls-1" d="M58.9,132.53c0,.34-.16.54-.49.6-1.31.23-2.53.35-3.66.35s-2.01-.09-2.66-.28c-1.07-.3-1.61-.88-1.61-1.74,0-.58.38-1.26,1.14-2.02.1-.1.24-.16.4-.16.15,0,.28.05.4.16.11.11.17.24.17.39,0,.14-.05.26-.16.37-.43.45-.65.82-.65,1.12,0,.66,1.02,1,3.05,1,.97,0,2.1-.12,3.38-.37.18-.03.34,0,.48.13s.22.27.22.45ZM57.59,126.32c-.67.26-1.49.71-2.45,1.33-.1.06-.19.1-.28.1-.14,0-.25-.05-.35-.15-.1-.1-.15-.22-.15-.37,0-.18.08-.32.24-.42l.16-.1c.15-.09.23-.18.23-.26,0-.1-.12-.16-.35-.16-.88.02-1.86,0-2.95-.07-.15,0-.28-.07-.39-.18-.11-.11-.16-.24-.16-.4,0-.17.06-.31.19-.43s.27-.17.44-.16c1.91.11,3.77.12,5.57.04.23,0,.42.05.56.17.14.12.21.26.21.43,0,.28-.17.49-.5.62Z"/>
      <path class="cls-1" d="M72.26,131.42c0,.15-.06.29-.17.41-.89.94-1.64,1.42-2.26,1.42-.55,0-.92-.22-1.1-.65-.11-.26-.17-.68-.17-1.25,0-.46.03-1.16.08-2.1.05-.94.08-1.64.08-2.1,0-.4-.14-.6-.42-.6-.56,0-1.38.6-2.45,1.81-.38.43-.57.93-.58,1.49-.02,1.7-.02,2.91-.01,3.61,0,.16-.06.3-.18.42-.12.12-.26.18-.43.18s-.3-.06-.41-.17c-.12-.12-.17-.26-.17-.43,0,.16,0-.48.02-1.92,0-.29-.08-.43-.25-.43-.11,0-.22.08-.34.24-.11.16-.36.53-.73,1.12-.11.17-.28.25-.49.25-.16,0-.3-.06-.41-.17-.12-.11-.17-.25-.17-.41,0-.14.06-.29.17-.44.43-.58,1.06-1.41,1.87-2.47.27-.35.41-.73.42-1.13,0-.21-.04-.36-.16-.46-.11-.1-.27-.13-.47-.1-.02,0-.4.07-1.14.22-.2.04-.37,0-.5-.14s-.2-.29-.2-.46c0-.31.16-.5.49-.55.12-.02.6-.1,1.45-.22.38-.06.57-.27.58-.64l.04-1.16c0-.16.07-.3.18-.41.11-.11.25-.17.41-.17s.31.06.43.18.18.26.17.43l-.06,1.75c0,.34.08.52.25.52.11,0,.24-.07.4-.22,1-.97,1.86-1.45,2.58-1.45.88,0,1.32.51,1.32,1.52,0,.47-.03,1.18-.09,2.11-.06.94-.09,1.64-.09,2.1,0,.33,0,.53.02.61.04.22.15.32.32.32.28,0,.66-.29,1.15-.86.11-.13.26-.19.43-.19.16,0,.3.06.41.17.12.12.17.25.17.41Z"/>
      <path class="cls-1" d="M80.75,128.28c0,1.26-.21,2.67-.64,4.22-.12.45-.26.77-.41.97-.22.29-.53.43-.91.43-.42,0-.97-.12-1.66-.35-.27-.09-.41-.27-.41-.54,0-.16.06-.3.17-.41.12-.11.25-.17.4-.17.06,0,.15.02.25.05.34.12.6.18.78.18.19,0,.33-.06.41-.17.06-.09.14-.27.22-.54.38-1.34.56-2.51.56-3.5,0-.38-.08-.64-.23-.77s-.44-.19-.86-.19c-.38,0-.63.04-.77.12-.17.1-.29.27-.36.52-.52,1.74-1.23,3.5-2.14,5.27-.12.23-.31.35-.56.35-.18,0-.32-.06-.44-.19-.12-.12-.18-.27-.18-.45,0-.14.02-.24.07-.32.82-1.42,1.48-2.91,1.99-4.48.02-.08.04-.15.04-.22,0-.29-.17-.41-.52-.36-.25.03-.64.09-1.16.17-.17.02-.32-.02-.46-.14-.14-.12-.21-.26-.21-.44,0-.34.17-.53.52-.58.35-.05.91-.12,1.67-.22.38-.04.64-.28.78-.72.02-.06.09-.46.2-1.18.06-.34.26-.52.6-.52.19,0,.35.07.46.21.12.14.16.31.13.5,0,.04-.04.22-.11.53-.06.23-.08.4-.08.52,0,.34.19.49.56.47h.18c.62-.05,1.11.06,1.48.31.42.29.62.83.62,1.62ZM84.38,129.18c0,.18-.06.33-.19.46s-.27.19-.45.19c-.29,0-.49-.14-.6-.42-.42-1.08-.95-2.06-1.6-2.95-.07-.1-.11-.21-.11-.34,0-.17.06-.31.17-.43.12-.12.26-.18.43-.18.2,0,.36.08.49.25.73.95,1.33,2.01,1.81,3.18.02.06.04.14.04.24Z"/>
      <path class="cls-1" d="M95.5,130.76c0,1.17-.58,2.03-1.73,2.58-.94.46-2.11.67-3.5.65h-.83c-.15-.01-.28-.07-.4-.19-.11-.12-.17-.25-.17-.4,0-.16.06-.3.18-.41.12-.12.26-.17.43-.16.44.02.72.02.83.02.94,0,1.75-.13,2.45-.4.98-.36,1.46-.93,1.46-1.7,0-.52-.2-.91-.6-1.18-.33-.22-.77-.32-1.32-.32-.66,0-1.35.15-2.07.45-.72.3-1.32.69-1.81,1.16-.26.26-.52.38-.78.38-.2,0-.36-.08-.47-.24-.12-.16-.17-.37-.15-.64l.24-3.71c.02-.37.22-.55.59-.55.18,0,.32.06.44.19.12.13.17.28.16.44l-.16,2.02c-.02.34.08.52.31.52.11,0,.24-.04.38-.13,1.08-.68,2.22-1.02,3.43-1.02.91,0,1.64.21,2.17.62.6.46.9,1.13.9,2.02ZM92.69,125.78c0,.17-.06.31-.17.43-.12.12-.26.18-.44.18-.1,0-.18-.02-.24-.05-.93-.43-2-.8-3.23-1.1-.3-.07-.46-.26-.46-.56,0-.16.06-.3.17-.41.12-.11.25-.17.4-.17.06,0,.11,0,.13.01,1.19.27,2.34.64,3.44,1.09.26.1.38.3.38.58Z"/>
      <path class="cls-1" d="M107.56,131.25c0,.88-.33,1.58-.98,2.11s-1.55.79-2.68.79c-2.25,0-3.37-.95-3.37-2.86,0-.16,0-.39.02-.7.02-.36-.18-.58-.6-.67-.36-.02-.72-.05-1.07-.08-.14-.02-.26-.08-.36-.19-.1-.11-.14-.24-.14-.38,0-.17.07-.31.2-.43.13-.12.28-.16.45-.14.25.04.62.09,1.1.16.39.05.61-.13.66-.54l.05-.43c.05-.4-.13-.62-.54-.66-.19-.02-.46-.05-.8-.1-.34-.05-.51-.24-.51-.56,0-.17.07-.31.2-.42.13-.11.28-.16.45-.13.16.02.44.06.83.1.39.04.61-.14.66-.53l.13-1.02c.05-.36.25-.54.6-.54.19,0,.35.07.47.22.12.14.17.31.14.49l-.13.84c-.03.21,0,.37.1.49.1.12.24.17.44.16.67-.02,1.28-.05,1.81-.11.16-.02.3.03.43.14.12.11.19.24.19.4,0,.14-.05.27-.14.38-.1.11-.21.17-.35.19-.74.08-1.46.12-2.17.12-.38,0-.6.18-.64.55l-.05.43c-.02.2.01.36.11.47.1.11.24.17.44.17.68,0,1.36-.05,2.03-.12.17-.02.31.03.44.14.12.11.19.25.19.41,0,.14-.05.27-.15.38-.1.11-.22.17-.37.19-.68.06-1.44.1-2.29.1-.41,0-.62.22-.64.67v.43c0,1.25.74,1.87,2.22,1.87.65,0,1.19-.14,1.63-.43.51-.34.77-.81.77-1.43,0-.46-.11-.92-.32-1.39-.05-.1-.07-.19-.07-.25,0-.17.06-.31.18-.42.12-.11.26-.17.43-.17.26,0,.45.12.55.35.3.66.46,1.32.46,1.98Z"/>
      <path class="cls-1" d="M120.33,126.08c0,.16-.06.3-.17.41s-.25.17-.41.17-.59,0-1.3-.01c-.52,0-.93,0-1.24,0-.39,0-.59.21-.59.61v.66c0,.26.08.71.24,1.36.06.26.1.52.1.77,0,2.12-1.18,3.51-3.54,4.18-.06.02-.11.02-.17.02-.16,0-.3-.06-.41-.17-.12-.11-.17-.25-.17-.42,0-.28.14-.46.42-.55,1.14-.34,1.93-.87,2.38-1.58.08-.13.12-.24.12-.32,0-.11-.06-.17-.18-.17-.07,0-.16.02-.25.07-.22.11-.47.17-.73.17-.59,0-1.07-.15-1.43-.44-.39-.33-.59-.78-.59-1.36s.22-1.07.66-1.43c.41-.33.92-.49,1.52-.49.14,0,.25,0,.32.01.34.04.52-.06.52-.29,0-.4-.2-.6-.61-.59-.94.02-1.62.05-2.05.07-.84.04-1.62.1-2.35.18-.17.02-.31-.03-.44-.15s-.19-.26-.19-.43.05-.29.16-.4c.11-.11.24-.17.39-.17,1.1-.06,2.59-.14,4.46-.22.38-.02.58-.2.58-.54v-.54c0-.17.06-.31.19-.44.12-.12.27-.19.44-.19s.31.06.43.18c.12.12.18.26.18.43v.46c0,.42.2.62.6.6.26,0,1.1-.01,2.54-.01.16,0,.29.05.4.16.11.11.16.24.16.4ZM115.36,129.52c.03-.11.05-.22.05-.31,0-.3-.13-.51-.38-.61-.14-.06-.3-.08-.48-.08-.27,0-.5.09-.69.26-.19.18-.28.4-.28.66,0,.55.29.83.88.83.48,0,.78-.25.91-.74ZM119.52,129.44c0,.13-.05.24-.14.33-.09.09-.2.14-.33.14-.19,0-.33-.07-.42-.22-.23-.37-.48-.68-.74-.95-.09-.09-.13-.2-.13-.32,0-.32.16-.48.47-.48.14,0,.26.06.36.18.34.38.62.73.84,1.06.06.1.1.18.1.26ZM120.99,128.76c0,.13-.05.24-.14.33-.09.09-.2.14-.33.14-.18,0-.32-.07-.42-.22-.26-.39-.51-.72-.74-.97-.09-.1-.13-.2-.13-.3,0-.32.16-.48.48-.48.12,0,.24.06.35.17.28.28.56.64.85,1.07.06.11.08.2.08.26Z"/>
      <path class="cls-1" d="M131.72,129.52c0,1.14-.53,2.04-1.6,2.69-.79.48-1.84.81-3.16.98-.17.02-.32-.02-.44-.14-.13-.12-.19-.26-.19-.43,0-.14.05-.26.14-.37.1-.11.21-.17.35-.19,2.46-.33,3.7-1.18,3.7-2.56,0-.97-.64-1.45-1.92-1.45-1.02,0-2.66.3-4.91.9-.06.02-.11.02-.16.02-.15,0-.29-.06-.41-.17-.12-.12-.18-.25-.18-.41,0-.3.15-.49.46-.56.78-.19,1.53-.36,2.23-.49,1.28-.25,2.28-.37,3-.37.9,0,1.6.17,2.11.52.65.43.97,1.11.97,2.03Z"/>
      <path class="cls-1" d="M143.51,132.84c0,.34-.17.54-.52.59-1.32.18-2.64.28-3.96.28-2.35,0-3.53-.71-3.53-2.12,0-.86.6-1.76,1.81-2.69.24-.18.36-.4.36-.64,0-.11-.02-.23-.07-.36-.35-.89-.64-1.84-.88-2.87,0-.04-.01-.08-.01-.13,0-.18.06-.33.19-.45s.27-.19.45-.19c.15,0,.29.05.4.16.12.1.19.23.22.38.15.8.37,1.6.66,2.41.1.26.25.4.46.4.11,0,.23-.04.35-.11.07-.04.96-.52,2.65-1.45.1-.06.2-.08.29-.08.17,0,.31.06.43.18.12.12.17.26.17.43,0,.25-.11.43-.34.54-.98.49-2.05,1.06-3.19,1.73-.73.42-1.31.82-1.74,1.19-.62.54-.94,1.02-.94,1.46,0,.72.75,1.08,2.26,1.08,1.24,0,2.5-.11,3.78-.32.18-.03.34.01.48.13.14.12.22.27.22.46Z"/>
      <path class="cls-1" d="M156.38,130.81c0,.95-.37,1.68-1.09,2.2-.62.44-1.45.69-2.48.74-.16,0-.3-.04-.42-.15-.12-.11-.18-.24-.18-.4,0-.14.05-.27.14-.38s.22-.17.36-.19c1.63-.16,2.45-.77,2.45-1.82,0-.46-.19-.82-.58-1.1-.38-.28-.88-.41-1.49-.41s-1.15.05-1.67.16c-.42.08-.62.34-.62.79v2.53c0,.7-.34,1.04-1.01,1.04s-1.3-.2-1.97-.59c-.76-.46-1.14-.97-1.15-1.55,0-.42.22-.87.67-1.35.45-.48,1.04-.9,1.78-1.27.37-.18.55-.47.55-.85v-.73c0-.36-.18-.54-.55-.53-.65.02-1.15.02-1.5,0-.14,0-.27-.07-.37-.17-.1-.11-.16-.23-.16-.38,0-.16.06-.29.17-.4.11-.11.25-.16.41-.15.48.02.97.03,1.48.01.35,0,.53-.19.53-.55v-.82c0-.15.06-.28.17-.4s.24-.17.4-.17.28.06.4.17c.11.11.17.24.17.4v.66c0,.38.19.55.58.49.26-.04.58-.09.95-.16.17-.03.32,0,.46.11.14.11.21.25.21.43,0,.31-.16.5-.47.55-.35.05-.7.1-1.05.14-.44.1-.66.31-.66.61v.55c0,.32.14.48.43.48.05,0,.11,0,.17-.01.54-.1,1.08-.16,1.6-.16.97,0,1.75.2,2.35.61.69.46,1.03,1.13,1.03,1.99ZM149.67,131.94v-1.24c0-.32-.12-.48-.36-.48-.1,0-.2.03-.3.1-.74.45-1.1.88-1.1,1.31,0,.25.19.47.56.67.35.19.62.29.79.29.27,0,.41-.22.41-.65ZM156.59,126.9c0,.16-.06.3-.17.42s-.25.18-.41.18-.28-.05-.4-.16c-.45-.42-.97-.78-1.58-1.1-.2-.1-.3-.27-.3-.49,0-.16.05-.3.17-.41.11-.11.24-.17.4-.17.1,0,.18.02.26.06.67.34,1.28.75,1.82,1.22.13.12.2.27.2.44Z"/>
      <path class="cls-1" d="M168.86,127.98c0,.15-.05.28-.16.38s-.23.16-.37.16h-2.23c-.4,0-.6.2-.6.6v3.19c0,.29.04.47.12.55.08.08.27.12.58.12h.43c.4,0,.66-.08.77-.25s.19-.58.21-1.24c0-.15.07-.28.17-.38.11-.1.24-.16.39-.16.16,0,.3.06.41.17.12.11.17.25.16.41-.03.94-.13,1.56-.29,1.86-.25.46-.78.68-1.6.68h-1.18c-.55,0-.92-.08-1.09-.25s-.26-.52-.26-1.06v-3.65c0-.4-.2-.6-.6-.6h-.53c-.38,0-.59.2-.61.6-.06,1.1-.28,2.01-.66,2.75-.46.9-1.19,1.64-2.17,2.24-.1.06-.22.1-.34.1-.16,0-.3-.06-.41-.17s-.17-.26-.17-.43c0-.22.09-.39.28-.5.83-.5,1.42-1.06,1.76-1.67.31-.56.5-1.32.55-2.29.02-.42-.17-.62-.59-.62h-1.9c-.14,0-.27-.05-.37-.16s-.16-.23-.16-.38.05-.27.16-.37c.1-.1.23-.15.37-.15h9.38c.14,0,.27.05.37.15.1.1.16.22.16.37ZM167.8,124.91c0,.14-.05.27-.16.37-.1.1-.23.15-.37.15h-7.25c-.14,0-.27-.05-.37-.15-.1-.1-.16-.22-.16-.37s.05-.27.16-.37c.1-.1.23-.16.37-.16h7.25c.14,0,.27.05.37.16s.16.23.16.37Z"/>
      <path class="cls-1" d="M181.05,125.15c0,.14-.05.27-.15.37s-.22.15-.35.15h-6.67c-.46,0-.85.17-1.18.52-.33.35-.71.7-1.15,1.05-.11.09-.23.13-.35.13-.15,0-.28-.05-.38-.16s-.16-.23-.16-.38c0-.18.06-.32.19-.42,1-.82,1.77-1.67,2.3-2.56.1-.18.26-.26.47-.26.15,0,.28.05.39.16.11.1.16.23.16.38v.04c0,.19,0,.31.02.35.04.09.13.13.28.13h6.07c.14,0,.25.05.35.15s.15.22.15.35ZM177.2,132.97c0,.15-.05.28-.16.39-.11.11-.24.16-.39.16-.14,0-.27-.05-.37-.14-.24-.22-.59-.51-1.06-.89-.14-.11-.27-.17-.41-.17s-.28.06-.43.19c-.67.58-1.48,1.1-2.41,1.56-.08.04-.16.06-.24.06-.14,0-.27-.05-.38-.16-.11-.1-.16-.23-.16-.38,0-.22.1-.38.3-.48.72-.34,1.35-.72,1.9-1.16.16-.13.24-.26.24-.41,0-.17-.1-.32-.29-.44-.31-.21-.61-.4-.9-.58-.16-.1-.24-.24-.24-.42,0-.14.05-.25.14-.35.1-.1.21-.14.35-.14.1,0,.19.02.25.06.46.27.86.52,1.2.74.14.09.26.13.38.13.18,0,.33-.09.46-.26.22-.3.41-.61.59-.95.11-.21.28-.31.49-.31.16,0,.29.05.4.16.1.11.16.24.16.4,0,.1-.02.19-.06.26-.2.37-.42.72-.67,1.04-.1.14-.16.26-.16.38,0,.17.09.32.28.46.26.2.6.47,1,.8.14.11.2.26.2.43ZM181.44,132.55c0,.1-.02.18-.06.26-.51.98-1.04,1.48-1.58,1.48-.98,0-1.54-1.64-1.69-4.91-.02-.42-.22-.62-.62-.62h-5.78c-.32,0-.48-.16-.48-.48,0-.14.05-.25.14-.35.09-.1.21-.14.34-.14h6.25c.8,0,1.21.42,1.24,1.25.02.78.08,1.49.16,2.15.14,1.19.35,1.79.62,1.79.1,0,.26-.24.48-.72.08-.18.24-.28.47-.28.14,0,.27.06.37.17.1.12.16.25.16.4ZM180.22,126.71c0,.12-.04.22-.13.31s-.19.13-.31.13h-6.49c-.28,0-.42-.14-.42-.43,0-.11.04-.21.12-.29s.18-.13.3-.13h6.49c.12,0,.22.04.31.13s.13.18.13.29Z"/>
      <path class="cls-1" d="M192.53,125.42c0,.32-.22.51-.65.58-1.21.18-2.28.68-3.22,1.49-.94.81-1.4,1.67-1.4,2.56,0,1.3,1.04,2.12,3.11,2.48.34.06.52.26.52.61,0,.19-.07.35-.22.49-.15.13-.32.18-.51.14-1.24-.24-2.18-.61-2.83-1.1-.86-.66-1.28-1.5-1.28-2.52,0-.86.29-1.65.88-2.35.26-.3.51-.56.76-.77s.37-.38.37-.53c0-.19-.2-.27-.61-.24-1.64.14-2.97.28-4,.42-.18.02-.33-.02-.46-.14s-.19-.27-.19-.44c0-.15.05-.29.15-.4.1-.12.23-.18.38-.19,1.47-.14,4.3-.36,8.48-.65.22,0,.39.04.53.15.14.11.2.25.2.41ZM191.88,128.96c0,.13-.05.24-.14.33-.09.09-.2.14-.33.14-.19,0-.33-.07-.42-.22-.23-.37-.48-.68-.74-.95-.09-.09-.13-.2-.13-.32,0-.32.16-.48.47-.48.14,0,.26.06.36.18.34.38.62.73.84,1.06.06.1.1.18.1.26ZM193.35,128.28c0,.13-.05.24-.14.33s-.2.14-.33.14c-.18,0-.32-.07-.42-.22-.26-.39-.51-.72-.74-.97-.09-.1-.13-.2-.13-.3,0-.32.16-.48.48-.48.12,0,.24.06.35.17.28.28.56.64.85,1.07.06.11.08.2.08.26Z"/>
      <path class="cls-1" d="M198.88,132.85c0,.24-.08.44-.24.61s-.36.25-.6.25-.44-.08-.61-.25-.25-.37-.25-.61.08-.44.25-.61.37-.25.61-.25.43.08.59.25.25.37.25.6ZM202.82,125.21c0,.13-.04.26-.11.38l-3.1,5.46c-.11.19-.27.29-.48.29-.15,0-.28-.06-.4-.17-.11-.11-.17-.24-.17-.4,0-.07.02-.15.06-.23l2.7-5.66c.14-.3.38-.46.7-.46.22,0,.4.08.56.23s.23.34.23.55Z"/>
      <path class="cls-1" d="M211,132.85c0,.24-.08.44-.24.61s-.36.25-.6.25-.44-.08-.61-.25-.25-.37-.25-.61.08-.44.25-.61.37-.25.61-.25.43.08.59.25.25.37.25.6ZM214.94,125.21c0,.13-.04.26-.11.38l-3.1,5.46c-.11.19-.27.29-.48.29-.15,0-.28-.06-.4-.17-.11-.11-.17-.24-.17-.4,0-.07.02-.15.06-.23l2.7-5.66c.14-.3.38-.46.7-.46.22,0,.4.08.56.23s.23.34.23.55Z"/>
    </g>
  </g>
</svg>