<?xml version="1.0" encoding="UTF-8"?>
<svg xmlns="http://www.w3.org/2000/svg" viewBox="0 0 229.65 225.83">
  <defs>
    <style>
      .cls-1 {
        fill: #5b5b5b;
      }

      .cls-2 {
        fill: none;
      }

      .cls-2, .cls-3 {
        stroke: #cecece;
        stroke-linecap: round;
        stroke-linejoin: round;
        stroke-width: 7px;
      }

      .cls-3 {
        fill: #fff9e1;
      }
    </style>
  </defs>
  <g id="_レイヤー_1" data-name="レイヤー 1">
    <path class="cls-3" d="M224.95,155.23c2.52-2.12.78-6.23-2.5-5.91-36.17-4.16-1.99-39.1-26.9-93.86C165.51-11.74,63.52-13.65,27.71,49.1l-24.04,7.65s-2.19,18.58,9.51,26.01c-.91,53.06,18.17,121.05,101.33,114.55,41.55-3.56,81.27-17.6,110.44-42.08Z"/>
    <path class="cls-2" d="M58.73,187.2s-6.41,15.27-19.55,23.11"/>
    <path class="cls-2" d="M123.21,199.22s-6.41,15.27-19.55,23.11"/>
  </g>
  <g id="yumeno2kb">
    <g>
      <path class="cls-1" d="M70.14,47.79c0,.19-.07.35-.2.48s-.29.2-.47.2h-.63c-.42,0-.63.21-.63.63v.94c0,.2-.07.37-.22.51-.15.14-.31.22-.51.22s-.37-.07-.51-.22c-.15-.14-.22-.31-.22-.51v-.94c0-.42-.21-.63-.63-.63h-3.47c-.83,0-1.25-.29-1.25-.88,0-.27.11-.56.32-.85l4.31-6.08c.31-.43.7-.64,1.16-.64.3,0,.54.1.73.3.19.2.28.47.28.82v5.38c0,.42.21.63.63.63h.63c.18,0,.33.07.47.2s.2.28.2.46ZM66.75,46.5v-3.84c0-.26-.06-.39-.18-.39-.08,0-.17.06-.25.18l-2.83,4c-.13.19-.2.33-.2.43,0,.16.19.24.56.24h2.27c.42,0,.63-.21.63-.63Z"/>
      <path class="cls-1" d="M85.51,46.11c0,1.5-.04,2.49-.13,2.95-.23,1.33-.78,1.99-1.65,1.99-.49,0-1.09-.07-1.78-.21-.35-.07-.53-.28-.53-.63,0-.18.06-.33.19-.46.13-.13.27-.19.44-.19.13,0,.32.03.58.08.26.06.45.08.58.08.39,0,.64-.21.76-.63.13-.48.2-1.52.2-3.12v-.25c0-.36-.06-.6-.19-.71-.13-.11-.4-.17-.83-.17h-1.48c-.39,0-.62.2-.67.6-.15,1.08-.41,2.01-.77,2.79-.54,1.14-1.37,2.08-2.48,2.83-.09.07-.21.1-.36.1-.19,0-.34-.06-.47-.19s-.19-.28-.19-.47c0-.23.09-.42.28-.55.79-.56,1.4-1.2,1.82-1.93.39-.67.67-1.51.83-2.51.07-.45-.12-.67-.59-.67h-2.04c-.18,0-.33-.06-.45-.19s-.18-.28-.18-.46c0-.17.06-.31.18-.43.12-.12.27-.18.45-.18h2.16c.41,0,.62-.21.63-.62,0-.48.01-.8.01-.98s.06-.33.19-.46c.13-.13.28-.2.47-.2.18,0,.33.07.46.2.13.14.2.29.2.47v.95c0,.42.21.63.62.63h2.3c.98,0,1.47.49,1.47,1.47v1.05Z"/>
      <path class="cls-1" d="M99.55,49.34c0,.79-.15,1.33-.46,1.61-.3.28-.87.42-1.69.42h-1.39c-.17,0-.31-.06-.43-.19-.12-.13-.18-.28-.18-.46s.06-.32.18-.44c.12-.12.27-.18.43-.18h1.22c.4,0,.67-.06.8-.2.13-.13.2-.39.2-.78v-1.32c0-.42-.21-.63-.63-.63h-4.4c-.38,0-.61.2-.67.59-.21,1.27-.66,2.39-1.34,3.37-.15.21-.35.32-.59.32-.2,0-.36-.07-.5-.21-.14-.14-.21-.3-.21-.49,0-.13.04-.26.13-.38.91-1.35,1.36-2.96,1.36-4.83v-4.52c0-.95.48-1.43,1.43-1.43h5.32c.95,0,1.43.48,1.43,1.43v8.3ZM98.24,42.2v-.66c0-.46-.23-.69-.69-.69h-4.17c-.46,0-.69.23-.69.69v.66c0,.37.19.56.56.56h4.42c.37,0,.56-.19.56-.56ZM98.24,45.39v-.87c0-.37-.19-.56-.56-.56h-4.42c-.37,0-.56.19-.56.56v.87c0,.37.19.56.56.56h4.42c.37,0,.56-.19.56-.56Z"/>
      <path class="cls-1" d="M108.78,43.07c0,.75-.37,1.12-1.12,1.12h-2.13c-.37,0-.56.19-.56.56v6.15c0,.18-.07.33-.2.46-.13.13-.28.19-.46.19s-.33-.06-.46-.19c-.13-.13-.2-.28-.2-.46v-10.21c0-.75.37-1.12,1.12-1.12h2.88c.75,0,1.12.37,1.12,1.12v2.38ZM107.52,41.01c0-.26-.13-.39-.39-.39h-1.76c-.26,0-.39.13-.39.39s.14.41.42.41h1.71c.28,0,.42-.14.42-.41ZM107.52,42.79h0c0-.29-.14-.43-.42-.43h-1.71c-.28,0-.42.14-.42.41s.14.42.42.42h1.74c.26,0,.39-.13.39-.39ZM112.17,48.99c0,.75-.37,1.12-1.12,1.12h-3.23c-.75,0-1.12-.37-1.12-1.12v-2.84c0-.75.37-1.12,1.12-1.12h3.23c.75,0,1.12.37,1.12,1.12v2.84ZM110.99,46.65v-.17c0-.31-.18-.46-.53-.46h-2.04c-.35,0-.53.15-.53.46v.17c0,.28.14.42.42.42h2.27c.28,0,.42-.14.42-.42ZM110.99,48.6v-.21c0-.28-.14-.42-.42-.42h-2.27c-.28,0-.42.14-.42.42v.21c0,.31.18.46.53.46h2.04c.35,0,.53-.15.53-.46ZM115.28,49.58c0,.71-.11,1.19-.34,1.44-.23.25-.68.37-1.35.37h-1.2c-.16,0-.3-.06-.41-.18s-.17-.25-.17-.41c0-.17.06-.31.17-.43s.25-.18.41-.18h.73c.34,0,.56-.05.68-.16s.18-.34.18-.69v-4.59c0-.37-.19-.56-.56-.56h-2.21c-.75,0-1.12-.37-1.12-1.12v-2.38c0-.75.37-1.12,1.12-1.12h2.97c.75,0,1.12.37,1.12,1.12v8.89ZM113.96,41.01c0-.26-.13-.39-.39-.39h-1.85c-.26,0-.39.13-.39.39s.14.41.42.41h1.79c.28,0,.42-.14.42-.41ZM113.96,42.76c0-.27-.14-.41-.42-.41h-1.79c-.28,0-.42.14-.42.42h0c0,.28.13.41.39.41h1.82c.28,0,.42-.14.42-.42Z"/>
      <path class="cls-1" d="M129.26,47.14c0,1.19-.42,2.15-1.26,2.86-.73.63-1.72,1.02-2.97,1.19-.2.03-.37-.03-.52-.16-.15-.14-.23-.3-.23-.5,0-.38.19-.61.56-.67,2-.35,3-1.27,3-2.77,0-1.04-.42-1.76-1.27-2.18-.11-.06-.22-.08-.32-.08-.24,0-.44.15-.59.46-.61,1.27-1.3,2.38-2.09,3.32-1.2,1.44-2.4,2.16-3.6,2.16-.62,0-1.09-.17-1.44-.52s-.51-.83-.51-1.44c0-1.06.31-2.03.94-2.9.48-.66,1.07-1.2,1.78-1.62.42-.25.64-.6.67-1.05v-.27c.03-.43-.17-.64-.59-.64-.52,0-1.12,0-1.78-.01-.18,0-.33-.06-.45-.2-.13-.13-.19-.28-.19-.46s.07-.33.2-.46c.13-.13.3-.19.48-.18.86.04,1.5.05,1.92.04.38,0,.6-.21.66-.6l.08-.6c.06-.41.28-.62.66-.62.2,0,.37.08.52.25.15.17.21.34.18.52l-.04.27c-.04.22,0,.4.1.52.1.12.27.17.49.15.96-.07,2.04-.2,3.25-.38.2-.03.37.02.53.15.15.13.23.3.23.5,0,.38-.2.6-.59.64-1.47.18-2.67.29-3.6.35-.44.03-.67.23-.7.6-.02.22.03.38.15.48.12.1.29.13.51.1.36-.05.68-.07.94-.07,1.43,0,2.56.27,3.4.81,1,.65,1.5,1.66,1.5,3.01ZM120.88,49.19c.42-.22.61-.67.56-1.33,0-.42-.02-.83-.03-1.25-.04-.65-.16-.98-.36-.98-.13,0-.28.08-.45.22-.36.32-.66.72-.88,1.2-.24.51-.36,1.03-.36,1.54,0,.55.23.83.69.83.26,0,.54-.08.84-.24ZM124.39,45.06c.05-.09.07-.18.07-.25,0-.23-.14-.34-.43-.32-.43.03-.75.1-.95.22-.29.17-.44.45-.45.84,0,.35,0,.76.01,1.2,0,.28.11.42.29.42.13,0,.25-.08.36-.24.42-.59.78-1.21,1.09-1.88Z"/>
      <path class="cls-1" d="M142.93,45.91c0,1.33-.62,2.38-1.86,3.14-.92.56-2.15.94-3.68,1.15-.2.03-.37-.03-.52-.16s-.22-.3-.22-.5c0-.16.06-.3.17-.43.11-.13.25-.2.41-.22,2.88-.38,4.31-1.38,4.31-2.98,0-1.13-.75-1.69-2.24-1.69-1.2,0-3.1.35-5.73,1.05-.07.02-.13.03-.18.03-.18,0-.34-.07-.48-.2-.14-.14-.21-.3-.21-.48,0-.35.18-.57.53-.66.92-.22,1.78-.42,2.6-.57,1.49-.29,2.66-.43,3.5-.43,1.04,0,1.87.2,2.46.6.76.5,1.13,1.29,1.13,2.37Z"/>
      <path class="cls-1" d="M156.69,49.79c0,.4-.2.63-.6.69-1.54.21-3.08.32-4.62.32-2.74,0-4.12-.83-4.12-2.48,0-1.01.71-2.05,2.11-3.14.28-.21.42-.46.42-.74,0-.13-.03-.27-.08-.42-.41-1.04-.75-2.15-1.02-3.35,0-.05-.01-.1-.01-.15,0-.21.07-.38.22-.52.14-.14.32-.22.53-.22.18,0,.33.06.47.18.14.12.22.27.26.45.18.93.43,1.87.77,2.81.11.31.29.46.53.46.13,0,.27-.04.41-.13.08-.05,1.12-.61,3.09-1.69.12-.07.23-.1.34-.1.2,0,.36.07.5.21.13.14.2.31.2.5,0,.29-.13.5-.39.63-1.15.57-2.39,1.24-3.72,2.02-.85.5-1.53.96-2.03,1.39-.73.63-1.09,1.19-1.09,1.71,0,.84.88,1.26,2.63,1.26,1.45,0,2.92-.13,4.41-.38.21-.04.39.01.56.15.17.14.25.32.25.53Z"/>
      <path class="cls-1" d="M53.1,63.12c-.82,1.61-1.61,2.42-2.37,2.42-.93,0-1.66-.83-2.17-2.49-.4-1.29-.6-2.75-.6-4.38,0-.84.03-1.56.08-2.17.02-.2.1-.36.23-.49s.3-.2.5-.2c.21,0,.39.08.54.25.14.16.21.35.19.57-.07.63-.1,1.35-.1,2.17,0,1.07.12,2.14.35,3.19.26,1.17.61,1.75,1.04,1.75.31,0,.66-.42,1.05-1.26.12-.25.33-.38.63-.38.2,0,.36.07.5.2s.2.3.2.5c0,.12-.02.23-.07.32ZM59.17,62.69c.03.22-.03.42-.18.6-.15.18-.34.27-.57.27-.2,0-.37-.07-.52-.2-.15-.13-.23-.29-.25-.48-.23-2.12-.92-4-2.06-5.66-.08-.12-.13-.26-.13-.41,0-.21.07-.38.21-.52.14-.14.31-.21.52-.21.25,0,.45.1.6.31,1.29,1.79,2.08,3.89,2.38,6.29Z"/>
      <path class="cls-1" d="M71.89,60.81c0,1.44-.61,2.66-1.82,3.65-.97.81-2.24,1.42-3.81,1.83-.08.02-.13.03-.17.03-.19,0-.35-.07-.48-.2s-.2-.3-.2-.5c0-.35.16-.56.49-.66,1.2-.35,2.19-.81,2.95-1.4,1.03-.77,1.54-1.68,1.54-2.72,0-1.25-.63-1.88-1.89-1.88s-2.88.33-4.77.99c-.08.03-.16.04-.22.04-.19,0-.35-.07-.49-.21s-.21-.31-.21-.5c0-.35.17-.57.5-.67,2.19-.66,3.95-.99,5.26-.99,1.05,0,1.85.27,2.42.8.6.56.9,1.35.9,2.38ZM70.27,55.91c0,.21-.07.38-.22.51-.15.14-.32.19-.52.18-1.89-.17-3.39-.4-4.48-.7-.35-.09-.52-.32-.52-.67,0-.2.07-.36.2-.5s.3-.2.5-.2c.06,0,.12,0,.18.03,1.24.34,2.65.56,4.21.67.18,0,.33.08.46.22.13.14.19.29.19.47Z"/>
      <path class="cls-1" d="M80.85,58.07c0,.75-.37,1.12-1.12,1.12h-2.13c-.37,0-.56.19-.56.56v6.15c0,.18-.07.33-.2.46-.13.13-.28.19-.46.19s-.33-.06-.46-.19c-.13-.13-.2-.28-.2-.46v-10.21c0-.75.37-1.12,1.12-1.12h2.88c.75,0,1.12.37,1.12,1.12v2.38ZM79.59,56.01c0-.26-.13-.39-.39-.39h-1.76c-.26,0-.39.13-.39.39s.14.41.42.41h1.71c.28,0,.42-.14.42-.41ZM79.59,57.79h0c0-.29-.14-.43-.42-.43h-1.71c-.28,0-.42.14-.42.41s.14.42.42.42h1.74c.26,0,.39-.13.39-.39ZM84.24,63.99c0,.75-.37,1.12-1.12,1.12h-3.23c-.75,0-1.12-.37-1.12-1.12v-2.84c0-.75.37-1.12,1.12-1.12h3.23c.75,0,1.12.37,1.12,1.12v2.84ZM83.06,61.65v-.17c0-.31-.18-.46-.53-.46h-2.04c-.35,0-.53.15-.53.46v.17c0,.28.14.42.42.42h2.27c.28,0,.42-.14.42-.42ZM83.06,63.6v-.21c0-.28-.14-.42-.42-.42h-2.27c-.28,0-.42.14-.42.42v.21c0,.31.18.46.53.46h2.04c.35,0,.53-.15.53-.46ZM87.35,64.58c0,.71-.11,1.19-.34,1.44-.23.25-.68.37-1.35.37h-1.2c-.16,0-.3-.06-.41-.18s-.17-.25-.17-.41c0-.17.06-.31.17-.43s.25-.18.41-.18h.73c.34,0,.56-.05.68-.16s.18-.34.18-.69v-4.59c0-.37-.19-.56-.56-.56h-2.21c-.75,0-1.12-.37-1.12-1.12v-2.38c0-.75.37-1.12,1.12-1.12h2.97c.75,0,1.12.37,1.12,1.12v8.89ZM86.03,56.01c0-.26-.13-.39-.39-.39h-1.85c-.26,0-.39.13-.39.39s.14.41.42.41h1.79c.28,0,.42-.14.42-.41ZM86.03,57.76c0-.27-.14-.41-.42-.41h-1.79c-.28,0-.42.14-.42.42h0c0,.28.13.41.39.41h1.82c.28,0,.42-.14.42-.42Z"/>
      <path class="cls-1" d="M101.11,56.14c0,.37-.25.6-.76.67-1.41.21-2.66.8-3.75,1.74-1.09.95-1.64,1.94-1.64,2.99,0,1.51,1.21,2.48,3.63,2.9.4.07.6.3.6.71,0,.22-.09.41-.26.57-.17.15-.37.21-.59.16-1.45-.28-2.55-.71-3.3-1.29-1-.77-1.5-1.75-1.5-2.94,0-1.01.34-1.92,1.02-2.74.3-.35.59-.65.88-.9.29-.24.43-.45.43-.62,0-.22-.24-.32-.71-.28-1.91.17-3.47.33-4.66.49-.21.03-.38-.03-.53-.17-.15-.14-.22-.31-.22-.52,0-.18.06-.33.17-.47s.26-.21.44-.22c1.72-.17,5.02-.42,9.9-.76.25,0,.46.05.62.18.16.13.24.29.24.48ZM100.35,60.27c0,.15-.05.28-.16.38s-.24.16-.39.16c-.22,0-.39-.08-.49-.25-.27-.43-.56-.8-.87-1.11-.1-.1-.15-.23-.15-.38,0-.37.18-.56.55-.56.16,0,.3.07.42.21.39.44.72.85.98,1.23.07.11.11.21.11.31ZM102.06,59.47c0,.15-.05.28-.16.38s-.24.16-.39.16c-.21,0-.38-.08-.49-.25-.31-.46-.6-.84-.87-1.13-.1-.11-.15-.23-.15-.35,0-.37.19-.56.56-.56.14,0,.27.07.41.2.33.33.66.74.99,1.25.06.13.1.23.1.31Z"/>
      <path class="cls-1" d="M115.1,62.33c0,.13-.04.26-.11.38-.63,1.04-1.39,1.86-2.28,2.48-1,.68-2.06,1.02-3.18,1.02-2.46,0-3.68-1.11-3.68-3.33,0-.91.02-2.1.06-3.57.03-1.19.05-2.49.07-3.89,0-.2.07-.37.22-.51.15-.14.32-.22.52-.22s.38.07.53.22.22.33.21.53l-.17,7.13c0,1.47.77,2.2,2.32,2.2.83,0,1.63-.29,2.39-.88.65-.48,1.23-1.13,1.72-1.95.14-.23.35-.35.63-.35.21,0,.38.07.52.22.15.14.22.32.22.52Z"/>
      <path class="cls-1" d="M125.27,57.62c-.68.13-1.37.24-2.07.32-.38.05-.66.15-.83.29-.17.15-.3.41-.38.77-.52,2.21-1.17,4.34-1.95,6.37-.12.31-.35.46-.69.46-.21,0-.38-.07-.52-.22s-.21-.31-.21-.51c0-.09.02-.19.06-.28.79-1.88,1.44-3.86,1.95-5.96.02-.07.03-.14.03-.21,0-.33-.2-.49-.59-.48-.39,0-.75,0-1.08,0-.19,0-.35-.08-.48-.22-.14-.13-.2-.3-.2-.48s.07-.36.22-.5c.15-.14.32-.21.51-.2.53.02.96.02,1.29.01.52-.02.82-.27.9-.77.03-.21.08-.51.14-.92.06-.41.3-.61.71-.61.2,0,.36.07.5.21.14.14.21.3.21.49,0,.09-.04.33-.11.7,0,.07-.01.13-.01.18,0,.37.21.53.62.46.06,0,.38-.07.98-.2.45-.08.76-.13.92-.13.2,0,.36.07.48.21s.19.31.19.5c0,.38-.19.61-.57.69ZM129.7,64.99c0,.4-.2.63-.59.69-.89.13-1.82.2-2.8.2-2.48,0-3.72-.7-3.72-2.09,0-.32.08-.68.24-1.09.11-.28.32-.42.63-.42.44,0,.66.22.66.67,0,.08-.01.18-.04.31-.03.14-.04.24-.04.32,0,.63.8.95,2.39.95.7,0,1.53-.07,2.49-.21.21-.03.39.03.55.16.16.14.24.31.24.51ZM129.3,59.78c0,.2-.07.36-.22.5-.15.14-.32.21-.52.2-1.39-.07-2.88-.04-4.47.1-.2.02-.37-.04-.51-.18-.14-.14-.22-.3-.22-.5,0-.18.06-.33.17-.45.12-.13.26-.2.43-.22,1.58-.16,3.13-.21,4.65-.17.19,0,.35.08.48.22.14.14.2.3.2.49Z"/>
      <path class="cls-1" d="M140.34,59.55c0,1.51-.25,3.15-.74,4.93-.15.53-.31.91-.49,1.13-.25.34-.6.5-1.05.5-.51,0-1.16-.14-1.93-.41-.32-.11-.48-.32-.48-.63,0-.19.07-.35.2-.48.14-.13.29-.2.47-.2.08,0,.14,0,.2.03.49.16.82.24,1.01.24.22,0,.38-.07.48-.2.07-.09.16-.3.25-.63.44-1.5.66-2.87.66-4.09,0-.45-.09-.75-.27-.9s-.51-.22-1.01-.22h-.2c-.08,0-.15.01-.21.01-.47,0-.77.24-.91.73-.62,2.12-1.46,4.17-2.49,6.15-.14.27-.36.41-.66.41-.21,0-.38-.07-.52-.22-.14-.14-.21-.32-.21-.53,0-.15.03-.27.08-.38.88-1.54,1.65-3.28,2.32-5.22.03-.09.04-.18.04-.25,0-.34-.2-.48-.6-.42-.29.05-.74.11-1.36.2-.2.03-.38-.03-.54-.16s-.25-.31-.25-.51c0-.39.21-.62.62-.68.41-.06,1.06-.14,1.95-.25.45-.04.75-.32.91-.84.08-.46.16-.91.24-1.37.07-.4.3-.6.7-.6.22,0,.4.08.54.25.13.16.18.36.15.58,0,.05-.05.25-.13.62-.06.25-.1.45-.1.6,0,.39.22.57.66.55h.21c.71-.06,1.28.07,1.72.36.49.34.73.97.73,1.89ZM142.21,56.49c0,.15-.05.28-.16.38s-.24.16-.38.16c-.22,0-.39-.08-.49-.25-.27-.43-.56-.8-.87-1.11-.1-.1-.15-.23-.15-.38,0-.37.18-.56.55-.56.16,0,.3.07.42.21.39.44.72.85.98,1.23.07.11.11.21.11.31ZM143.11,61.39c-.39-1.02-.92-2.01-1.58-2.98-.07-.11-.11-.24-.11-.38,0-.2.07-.36.22-.5s.31-.2.51-.2c.23,0,.42.1.57.31.74,1.04,1.33,2.11,1.79,3.22.04.09.06.19.06.28,0,.2-.08.37-.25.52-.16.15-.35.22-.55.22-.31,0-.53-.16-.66-.49ZM143.92,55.69c0,.15-.05.28-.16.39s-.24.16-.38.16c-.21,0-.38-.08-.49-.25-.31-.46-.6-.83-.87-1.13-.1-.11-.15-.23-.15-.35,0-.37.19-.56.56-.56.14,0,.28.07.41.2.33.33.66.74.99,1.25.07.13.1.23.1.31Z"/>
      <path class="cls-1" d="M149.66,65.6c0,.22-.07.41-.22.56-.15.15-.34.22-.56.22-.24,0-.44-.09-.6-.28-.55-.66-1.11-1.23-1.67-1.71-.18-.15-.27-.34-.27-.56s.07-.39.22-.54c.14-.14.32-.22.54-.22.19,0,.35.06.49.18.78.68,1.41,1.28,1.88,1.81.13.14.2.32.2.53Z"/>
      <path class="cls-1" d="M166.35,58.32c0,.16-.06.29-.17.41-.12.11-.25.17-.41.17h-1.16c-.33,0-.49.12-.49.35,0,.1.04.21.11.32.37.55.94,1.21,1.69,1.97.11.11.17.25.17.41s-.06.29-.17.41-.25.17-.41.17c-.22,0-.55-.27-.98-.81-.12-.16-.24-.24-.35-.24-.17,0-.25.14-.25.42v4.03c0,.17-.06.32-.18.44s-.27.19-.43.19-.31-.06-.44-.19-.19-.27-.19-.44v-3.79c0-.24-.07-.36-.2-.36-.09,0-.19.07-.28.22-.29.46-.6.9-.94,1.32-.13.16-.28.24-.46.24-.17,0-.31-.06-.43-.17-.12-.12-.17-.26-.17-.43,0-.16.05-.29.14-.39.84-.96,1.53-1.96,2.07-3,.06-.1.08-.2.08-.28,0-.25-.17-.38-.5-.38h-1.23c-.16,0-.29-.06-.41-.17-.11-.11-.17-.25-.17-.41s.06-.3.17-.41c.11-.12.25-.18.41-.18h1.29c.42,0,.63-.21.63-.63v-.35c0-.45-.22-.65-.66-.6l-.97.1c-.16.02-.3-.03-.43-.14-.13-.11-.19-.25-.19-.41,0-.34.17-.52.52-.55,1.53-.14,2.88-.38,4.06-.71.07-.02.12-.03.15-.03.16,0,.29.06.41.17s.17.25.17.41c0,.26-.15.46-.46.59-.08.04-.35.1-.8.2-.37.08-.56.31-.56.69v.64c0,.42.21.63.63.63h1.2c.16,0,.3.06.41.18.12.12.17.25.17.41ZM172.9,65.27c0,.18-.06.33-.19.46s-.28.2-.47.2c-.33,0-.54-.16-.64-.49l-.06-.18c-.09-.3-.28-.45-.55-.45-.08,0-.16.01-.25.04-.22.07-.89.27-2,.57-1.47.41-2.38.62-2.7.62-.19,0-.34-.06-.47-.19s-.19-.28-.19-.47c0-.36.18-.59.55-.67.37-.08.6-.35.69-.8.61-3.07,1.11-6.01,1.51-8.82.06-.38.28-.57.67-.57.2,0,.36.08.49.24s.18.34.15.53c-.39,2.42-.88,5.17-1.47,8.26,0,.07-.01.13-.01.18,0,.3.14.45.43.45.06,0,.13,0,.21-.03.39-.09.97-.25,1.74-.46.3-.09.45-.27.45-.52,0-.08-.02-.18-.06-.28-.31-.81-.56-1.46-.76-1.95-.03-.06-.04-.14-.04-.22,0-.18.06-.33.18-.45.12-.12.27-.18.45-.18.26,0,.45.13.57.39.68,1.51,1.25,3.04,1.72,4.59.02.09.03.16.03.2Z"/>
      <path class="cls-1" d="M27.19,70.65c-.37,2.14-.56,4.16-.56,6.06,0,1.33.05,2.45.15,3.35.03.21-.03.41-.18.57s-.33.25-.55.25c-.2,0-.36-.07-.5-.2-.14-.13-.22-.29-.24-.48-.09-.9-.14-2.03-.14-3.42,0-2.07.2-4.2.59-6.4.07-.4.31-.6.71-.6.22,0,.41.09.55.26.15.17.2.37.16.59ZM35.69,79.19c0,.17-.06.32-.18.46-.12.14-.27.21-.43.23-1.21.16-2.23.24-3.04.24-2.47,0-3.71-.75-3.71-2.24,0-.42.12-.85.35-1.29.13-.25.33-.38.59-.38.46,0,.69.22.69.66,0,.09-.03.23-.08.41-.06.18-.08.33-.08.44,0,.38.23.65.69.8.39.14,1.01.21,1.86.21.69,0,1.54-.08,2.55-.24.21-.04.4.02.57.16.16.15.25.32.25.54ZM35.2,71.78c0,.18-.06.33-.18.46s-.26.21-.44.24c-1.05.15-2.17.22-3.35.22-.52,0-1.09-.02-1.71-.06-.18,0-.33-.08-.46-.22s-.2-.3-.2-.48c0-.21.08-.38.23-.51s.33-.19.52-.17c.52.05,1.08.07,1.67.07,1.05,0,2.09-.08,3.09-.24.21-.04.4.01.57.15.16.14.25.32.25.53Z"/>
      <path class="cls-1" d="M49.09,79.79c0,.4-.2.63-.6.69-1.54.21-3.08.32-4.62.32-2.74,0-4.12-.83-4.12-2.48,0-1.01.7-2.05,2.11-3.14.28-.21.42-.46.42-.74,0-.13-.03-.27-.08-.42-.41-1.04-.75-2.15-1.02-3.35,0-.05-.01-.1-.01-.15,0-.21.07-.38.22-.52s.32-.22.52-.22c.18,0,.33.06.47.18.14.12.22.27.26.45.18.93.43,1.87.77,2.81.11.31.29.46.53.46.13,0,.27-.04.41-.13.08-.05,1.12-.61,3.09-1.69.12-.07.23-.1.34-.1.2,0,.36.07.5.21s.2.31.2.5c0,.29-.13.5-.39.63-1.15.57-2.39,1.24-3.72,2.02-.85.5-1.53.96-2.03,1.39-.73.63-1.09,1.19-1.09,1.71,0,.84.88,1.26,2.63,1.26,1.45,0,2.92-.13,4.41-.38.21-.04.39.01.56.15.17.14.25.32.25.53Z"/>
      <path class="cls-1" d="M63.6,75.91c0,1.33-.62,2.38-1.86,3.14-.92.56-2.15.94-3.68,1.15-.2.03-.37-.03-.52-.16-.15-.14-.22-.3-.22-.5,0-.16.06-.3.17-.43s.25-.2.41-.22c2.88-.38,4.31-1.38,4.31-2.98,0-1.13-.75-1.69-2.24-1.69-1.19,0-3.1.35-5.73,1.05-.07.02-.13.03-.18.03-.18,0-.34-.07-.48-.2-.14-.14-.21-.3-.21-.48,0-.35.18-.57.53-.66.91-.22,1.78-.42,2.6-.57,1.49-.29,2.66-.43,3.5-.43,1.04,0,1.87.2,2.46.6.76.5,1.13,1.29,1.13,2.37Z"/>
      <path class="cls-1" d="M78.22,71.14c0,.37-.25.6-.76.67-1.41.21-2.66.8-3.75,1.74-1.09.95-1.64,1.94-1.64,2.99,0,1.47,1.21,2.43,3.63,2.9.4.07.6.31.6.71,0,.22-.09.41-.26.56-.17.15-.37.21-.6.17-1.35-.23-2.44-.65-3.26-1.26-1.03-.75-1.54-1.74-1.54-2.97,0-.99.34-1.9,1.02-2.74.27-.34.57-.64.9-.91.28-.23.42-.43.42-.6,0-.22-.24-.32-.71-.28-1.46.13-3.01.29-4.66.49-.21.03-.38-.03-.53-.17-.15-.14-.22-.31-.22-.52,0-.18.06-.33.17-.46.12-.13.26-.21.44-.22,1.69-.17,4.99-.42,9.9-.76.25-.02.46.04.62.16s.24.29.24.5Z"/>
      <path class="cls-1" d="M83.62,70.51c-.35,2.12-.53,4.2-.53,6.24,0,1.18.06,2.32.18,3.43.03.21-.03.4-.17.56-.15.16-.32.24-.54.24-.19,0-.35-.07-.49-.2-.14-.13-.22-.28-.24-.46-.1-1.08-.15-2.26-.15-3.54,0-2.17.18-4.33.53-6.5.07-.4.3-.6.7-.6.21,0,.4.08.55.25s.21.36.17.57ZM92.72,79.24c0,.2-.07.36-.2.49s-.29.2-.49.2c-.16,0-.29-.04-.41-.13-.18-.13-.45-.31-.81-.53-.11-.07-.22-.11-.32-.11-.21,0-.37.16-.49.48-.34.9-1.2,1.34-2.6,1.34-.71,0-1.31-.15-1.79-.45-.58-.35-.87-.86-.87-1.53s.24-1.18.73-1.55,1.15-.55,2-.55c.24,0,.49.02.73.06.22.04.39,0,.51-.09s.18-.25.18-.47l-.04-2.16c0-.48-.25-.7-.73-.67-.72.04-1.54.05-2.45.03-.18,0-.33-.07-.46-.2-.13-.13-.19-.28-.19-.46,0-.19.07-.34.2-.47s.3-.18.48-.18c.81.04,1.62.04,2.44,0,.45-.02.67-.26.66-.73v-1.25c-.01-.19.05-.35.18-.48.13-.14.29-.2.48-.2s.35.07.48.2c.13.13.2.29.2.48v1.05c.02.44.22.66.6.66.05,0,.1,0,.17-.01l.85-.15c.2-.04.37,0,.53.13s.24.29.24.5c0,.34-.21.56-.63.69-.07.02-.42.07-1.06.15-.44.06-.65.3-.64.74l.04,2.65c0,.52.26.91.74,1.15.55.28,1.03.55,1.43.8.21.14.32.34.32.59ZM88.78,78.99c.03-.08.04-.16.04-.24,0-.31-.19-.5-.56-.57-.29-.06-.56-.08-.83-.08-.93,0-1.4.28-1.4.84,0,.24.12.44.36.59.24.15.55.22.92.22.8,0,1.29-.25,1.46-.76Z"/>
      <path class="cls-1" d="M106.96,73.06c0,.18-.06.33-.18.45s-.27.18-.45.18h-3.95c-.42,0-.63.16-.63.49,0,.07.01.16.04.25.68,2.2,2.25,4.08,4.7,5.64.21.13.31.32.31.57,0,.19-.07.35-.2.48-.13.13-.29.2-.48.2-.14,0-.27-.04-.38-.11-2.02-1.32-3.48-2.82-4.38-4.51-.18-.33-.35-.49-.5-.49s-.33.16-.5.49c-.95,1.77-2.42,3.28-4.4,4.51-.1.06-.22.1-.35.1-.19,0-.35-.07-.48-.2-.13-.13-.2-.29-.2-.48,0-.25.11-.44.32-.57,1.3-.77,2.37-1.72,3.22-2.83.7-.92,1.17-1.85,1.4-2.79.02-.07.03-.14.03-.21,0-.36-.22-.55-.66-.55h-3.82c-.18,0-.33-.06-.45-.18-.12-.12-.18-.27-.18-.45s.06-.33.18-.46c.12-.13.27-.19.45-.19h3.95c.47,0,.7-.23.7-.7v-1.78c0-.18.06-.33.2-.47.13-.13.29-.2.48-.2.18,0,.33.07.46.2.13.14.2.29.2.47v1.78c0,.47.23.7.7.7h4.21c.18,0,.33.06.45.19.12.13.18.28.18.46Z"/>
      <path class="cls-1" d="M120.16,73.32c0,.3-.14.5-.43.6-.62.21-1.18.38-1.68.5-.3.07-.45.22-.45.43,0,.12.05.25.14.38.46.63.88,1.18,1.27,1.62.13.15.2.32.2.5,0,.21-.07.4-.22.55-.15.15-.33.23-.55.23-.11,0-.22-.02-.32-.06-1.24-.49-2.41-.74-3.5-.74-1.79,0-2.69.42-2.69,1.27s1.13,1.25,3.39,1.25c.77,0,1.65-.05,2.63-.15.19-.02.35.03.5.16s.22.28.22.47c0,.38-.2.59-.59.63-.89.09-1.82.14-2.8.14-3.15,0-4.72-.82-4.72-2.46s1.26-2.45,3.78-2.45c.59,0,1.27.09,2.06.27.08.02.14.03.2.03.19,0,.28-.06.28-.2,0-.09-.05-.2-.14-.32-.05-.06-.17-.24-.38-.52-.25-.35-.56-.52-.94-.52-.11,0-.24,0-.38.03-1.3.18-2.72.26-4.27.24-.17,0-.31-.06-.43-.18-.12-.12-.17-.27-.17-.43s.06-.31.18-.44c.12-.13.27-.18.43-.18,1.16.04,2.39-.01,3.71-.15.35-.04.53-.18.53-.42,0-.11-.04-.22-.11-.32-.22-.38-.55-.55-.97-.5-.8.09-1.73.14-2.77.14-.16,0-.3-.06-.43-.18-.13-.12-.19-.26-.19-.42,0-.17.06-.31.19-.43s.27-.17.43-.17c.77,0,1.49-.01,2.16-.07.39-.04.59-.16.59-.38,0,0-.08-.21-.25-.62-.03-.07-.04-.14-.04-.22,0-.19.06-.35.2-.48s.29-.2.49-.2c.31,0,.52.15.63.45.04.11.1.28.2.52.14.35.37.53.7.53.08,0,.17-.01.27-.04.65-.17,1.31-.37,1.96-.6.08-.03.14-.04.21-.04.18,0,.33.06.46.18s.19.27.19.45c0,.32-.15.52-.45.62-.69.22-1.3.4-1.82.52-.34.07-.5.23-.5.46,0,.1.04.21.11.31l.03.04c.2.3.43.45.71.45.07,0,.15,0,.24-.03.74-.18,1.43-.39,2.07-.63.05-.02.11-.03.2-.03.18,0,.33.06.46.18.13.12.19.27.19.45Z"/>
      <path class="cls-1" d="M132.25,80.48c0,.21-.08.4-.22.55-.15.15-.33.22-.55.22s-.4-.08-.56-.25c-1.77-1.86-3.57-3.46-5.38-4.8-.53-.39-.8-.78-.8-1.16s.3-.81.91-1.22c2.17-1.47,3.95-2.87,5.32-4.17.15-.14.32-.21.5-.21.21,0,.38.07.53.22.14.15.22.32.22.52s-.08.39-.24.53c-1.21,1.08-2.74,2.28-4.59,3.58-.41.29-.62.54-.62.76s.2.48.6.78c1.5,1.14,3.05,2.51,4.65,4.1.15.15.22.33.22.55Z"/>
      <path class="cls-1" d="M149.51,79.17c0,.09-.02.2-.07.31-.26.63-.5,1.07-.7,1.33-.31.4-.67.6-1.09.6-.61,0-1.14-.41-1.6-1.23-.18-.32-.35-.48-.5-.48-.13,0-.29.1-.49.29-.41.39-.9.81-1.47,1.25-.11.08-.24.13-.39.13-.18,0-.33-.06-.45-.19-.12-.13-.18-.28-.18-.46,0-.22.09-.4.27-.52.76-.53,1.41-1.07,1.93-1.61.22-.23.34-.49.34-.76,0-.12-.02-.27-.06-.45-.3-1.23-.52-2.63-.66-4.19-.04-.36-.23-.55-.57-.55h-3.85c-.39,0-.59.2-.59.59v.53c0,.37.19.56.56.56h1.88c.77,0,1.16.39,1.16,1.16v2.28c0,.82-.12,1.38-.36,1.67-.24.29-.71.43-1.39.43h-.7c-.16,0-.3-.06-.41-.18s-.17-.25-.17-.41.06-.29.17-.4c.12-.11.25-.16.41-.16h.31c.38,0,.62-.07.72-.22.1-.14.15-.48.15-1.02v-1.46c0-.37-.19-.56-.56-.56h-1.23c-.36,0-.55.19-.57.56-.12,1.95-.5,3.57-1.13,4.87-.13.26-.34.39-.62.39-.19,0-.35-.07-.49-.2-.14-.14-.21-.3-.21-.48,0-.12.03-.23.08-.34.76-1.35,1.15-3.24,1.15-5.67v-1.72c0-.95.48-1.43,1.43-1.43h4.16c.38,0,.57-.19.55-.57l-.06-1.12c0-.18.05-.33.19-.47.13-.14.29-.2.47-.2.17,0,.32.06.44.19s.19.27.19.44,0,.37.01.62c0,.32.01.51.01.57,0,.36.2.55.56.55h2.6c.16,0,.3.06.42.17.12.12.18.25.18.41,0,.17-.06.31-.18.43-.12.12-.26.17-.42.17h-2.49c-.39,0-.57.2-.55.59.07.98.19,1.89.34,2.72.05.26.13.39.27.39.1,0,.21-.1.31-.31.32-.65.58-1.34.8-2.07.08-.29.28-.43.57-.43.17,0,.31.06.43.18.12.12.17.27.17.43,0,.04,0,.1-.03.2-.45,1.29-.98,2.43-1.61,3.42-.14.22-.21.43-.21.62,0,.14.03.29.1.45.33.77.62,1.16.9,1.16.24,0,.48-.35.73-1.05.08-.24.25-.36.5-.36.17,0,.31.06.43.17.12.11.18.25.18.42ZM148.23,70.68c0,.15-.05.28-.16.38s-.24.15-.38.15-.28-.06-.39-.18c-.25-.26-.52-.51-.8-.76-.12-.1-.18-.23-.18-.39,0-.14.05-.26.15-.36s.23-.15.38-.15c.12,0,.23.04.34.13.3.24.59.51.88.81.11.11.17.24.17.38Z"/>
      <path class="cls-1" d="M163.59,76.08c0,.16-.06.3-.18.41-.12.12-.25.17-.41.17h-4.48c-.33,0-.49.12-.49.35,0,.1.04.21.13.34.18.24.4.49.67.76.18.17.36.25.55.25.17,0,.34-.06.52-.2.43-.32.83-.67,1.22-1.05.13-.13.28-.2.43-.2.17,0,.31.06.43.18s.18.26.18.43-.07.32-.21.45c-.23.21-.57.48-1.01.8-.17.12-.25.25-.25.39,0,.15.1.28.29.38.45.22,1.07.46,1.88.7.31.09.46.3.46.63,0,.19-.07.34-.2.47s-.28.19-.46.19c-.03,0-.09,0-.18-.03-1.34-.41-2.46-.92-3.33-1.54-.98-.67-1.82-1.56-2.51-2.66-.26-.42-.63-.63-1.09-.63h-.31c-.37,0-.56.19-.56.56v1.97c0,.35.15.52.45.52.06,0,.12,0,.18-.03.56-.13,1.06-.26,1.51-.39.07-.02.12-.03.17-.03.15,0,.28.06.4.17.12.11.17.25.17.42,0,.29-.14.48-.42.56-1.54.47-3.21.83-5.01,1.08-.19.03-.35-.02-.5-.15-.15-.13-.22-.28-.22-.47,0-.16.05-.3.16-.41s.24-.18.39-.2c.2-.02.49-.06.88-.11.34-.06.52-.26.52-.6v-2.3c0-.37-.19-.56-.56-.56h-.97c-.17,0-.31-.06-.43-.18-.12-.12-.17-.27-.17-.43s.06-.31.17-.43c.12-.12.26-.17.43-.17h.97c.37,0,.56-.19.56-.56v-3.98c0-.89.44-1.33,1.33-1.33h7.32c.16,0,.3.06.41.18.12.12.17.25.17.41s-.06.3-.17.41c-.12.12-.25.17-.41.17h-6.79c-.36,0-.55.15-.55.45s.19.45.56.45h6.06c.14,0,.26.05.36.15.1.1.15.22.15.36s-.05.26-.15.36c-.1.1-.22.15-.36.15h-6.06c-.37,0-.56.14-.56.42s.19.43.56.43h6.12c.14,0,.26.05.36.15.1.1.15.22.15.36,0,.15-.05.27-.15.37-.1.1-.22.15-.36.15h-6.12c-.37,0-.56.15-.56.45s.19.45.56.45h7.76c.16,0,.3.06.41.17.12.12.18.25.18.41Z"/>
      <path class="cls-1" d="M177.16,79.61c0,.96-.48,1.44-1.44,1.44h-8.37c-.96,0-1.44-.48-1.44-1.44v-2.88c0-.18.06-.33.2-.46s.29-.19.46-.19.33.06.46.19.19.28.19.46v2.32c0,.5.24.74.73.74h2.17c.47,0,.7-.23.7-.7v-3.11c0-.47-.23-.7-.7-.7h-2.34c-.95,0-1.43-.48-1.43-1.43v-2.97c0-.18.06-.33.19-.46s.28-.19.45-.19.33.06.46.19.19.28.19.46v2.44c0,.49.25.74.74.74h1.75c.47,0,.7-.23.7-.7v-3.44c0-.2.07-.36.2-.5.14-.13.3-.2.5-.2s.35.07.48.21c.13.14.2.3.2.49v3.44c0,.47.23.7.7.7h1.89c.49,0,.74-.25.74-.74v-2.44c0-.18.06-.33.19-.46s.28-.19.46-.19.33.06.46.19.19.28.19.46v2.97c0,.95-.48,1.43-1.43,1.43h-2.52c-.47,0-.7.23-.7.7v3.11c0,.47.23.7.7.7h2.25c.49,0,.73-.25.73-.74v-2.32c0-.18.06-.33.19-.46s.28-.19.46-.19.33.06.46.19.2.28.2.46v2.88Z"/>
      <path class="cls-1" d="M43.17,90.48c0,.16-.06.29-.17.41-.11.11-.25.17-.41.17h-3.5c-.33,0-.49.11-.49.32,0,.12.06.24.18.36,1.09,1.12,2.42,2.17,3.98,3.15.2.12.29.3.29.53,0,.18-.06.33-.19.46s-.27.19-.44.19c-.13,0-.25-.04-.36-.11-1.42-.95-2.67-1.96-3.74-3.02-.13-.13-.26-.2-.38-.2-.2,0-.29.16-.29.48v2.67c0,.18-.06.33-.19.46-.13.13-.28.2-.46.2-.19,0-.34-.07-.47-.2-.13-.13-.19-.29-.19-.46v-2.62c0-.32-.1-.48-.31-.48-.12,0-.25.07-.38.2-1.05,1.05-2.28,2.04-3.68,2.97-.11.07-.23.11-.35.11-.18,0-.33-.06-.45-.18-.12-.12-.18-.27-.18-.45,0-.23.1-.41.29-.53,1.54-.95,2.87-2.01,3.99-3.16.12-.12.18-.24.18-.36,0-.21-.16-.32-.49-.32h-3.5c-.16,0-.29-.06-.41-.17-.11-.11-.17-.25-.17-.41s.06-.3.17-.41c.11-.12.25-.17.41-.17h4.31c.37,0,.56-.19.56-.56v-1.86c0-.37-.19-.56-.56-.56h-3.75c-.17,0-.31-.06-.42-.18-.11-.12-.17-.26-.17-.43s.06-.31.17-.43c.11-.12.25-.17.42-.17h3.75c.37,0,.56-.19.56-.56v-.35c0-.18.06-.33.19-.46.13-.13.28-.2.47-.2s.33.07.46.2c.13.13.19.28.19.46v.35c0,.37.19.56.56.56h3.86c.17,0,.31.06.43.18.12.12.17.26.17.42,0,.17-.06.31-.17.43-.12.12-.26.18-.43.18h-3.86c-.37,0-.56.19-.56.56v1.86c0,.37.19.56.56.56h1.22c-.24-.08-.36-.26-.36-.53,0-.13.03-.24.1-.34.46-.64.79-1.16,1.01-1.55.11-.21.29-.31.55-.31.17,0,.31.06.43.17s.18.26.18.43c0,.12-.03.23-.1.34-.38.59-.76,1.12-1.13,1.6-.07.09-.17.16-.28.2h2.77c.16,0,.29.06.41.17s.17.25.17.41ZM34.97,89.22c0,.17-.06.31-.17.43s-.26.17-.43.17c-.22,0-.4-.1-.52-.29-.34-.52-.65-.98-.94-1.37-.07-.1-.11-.21-.11-.34,0-.17.06-.31.17-.43s.25-.18.41-.18c.21,0,.37.08.5.25.05.07.38.55.99,1.44.06.08.08.19.08.31Z"/>
      <path class="cls-1" d="M52.48,87.62c-.68.13-1.37.24-2.07.32-.38.05-.66.15-.83.29-.17.15-.3.41-.39.77-.52,2.21-1.17,4.34-1.95,6.37-.12.31-.35.46-.69.46-.21,0-.38-.07-.52-.22s-.21-.31-.21-.51c0-.09.02-.19.06-.28.79-1.88,1.44-3.86,1.95-5.96.02-.07.03-.14.03-.21,0-.33-.2-.49-.59-.48s-.75,0-1.08,0c-.19,0-.35-.08-.48-.22-.14-.13-.2-.3-.2-.48s.07-.36.22-.5c.14-.14.31-.21.51-.2.53.02.96.02,1.29.01.52-.02.82-.27.9-.77.03-.21.07-.51.14-.92.07-.41.3-.61.71-.61.2,0,.36.07.5.21.14.14.21.3.21.49,0,.09-.04.33-.11.7,0,.07-.01.13-.01.18,0,.37.21.53.62.46.06,0,.38-.07.98-.2.45-.08.76-.13.92-.13.2,0,.36.07.48.21s.19.31.19.5c0,.38-.19.61-.57.69ZM56.91,94.99c0,.4-.2.63-.59.69-.89.13-1.82.2-2.8.2-2.48,0-3.72-.7-3.72-2.09,0-.32.08-.68.24-1.09.11-.28.32-.42.63-.42.44,0,.66.22.66.67,0,.08-.01.18-.04.31-.03.14-.04.24-.04.32,0,.63.8.95,2.39.95.7,0,1.53-.07,2.49-.21.21-.03.39.03.55.16s.24.31.24.51ZM56.51,89.78c0,.2-.08.36-.22.5-.15.14-.32.21-.52.2-1.39-.07-2.88-.04-4.47.1-.2.02-.37-.04-.51-.18-.14-.14-.22-.3-.22-.5,0-.18.06-.33.17-.45s.26-.2.43-.22c1.58-.16,3.13-.21,4.65-.17.19,0,.35.08.48.22s.2.3.2.49Z"/>
      <path class="cls-1" d="M63.19,93.73c0,.75-.37,1.12-1.12,1.12h-1.44c-.75,0-1.12-.37-1.12-1.12v-7.88c0-.75.37-1.12,1.12-1.12h1.44c.75,0,1.12.37,1.12,1.12v7.88ZM62,88.66v-2.23c0-.34-.17-.5-.5-.5h-.22c-.34,0-.5.17-.5.5v2.23c0,.33.16.49.49.49h.25c.33,0,.49-.16.49-.49ZM62,93.17v-2.37c0-.33-.16-.49-.49-.49h-.25c-.33,0-.49.16-.49.49v2.37c0,.33.17.49.5.49h.22c.34,0,.5-.16.5-.49ZM71.79,88.74c0,.16-.06.3-.17.41s-.25.17-.41.17h-.71c-.37,0-.56.19-.56.56v.2c0,.37.19.56.56.56h.55c.16,0,.29.06.41.17.11.12.17.25.17.41s-.06.29-.17.41c-.11.11-.25.17-.41.17h-.55c-.37,0-.56.19-.56.56v2.49c0,.59-.11.99-.34,1.22-.22.22-.62.34-1.19.34h-1.2c-.17,0-.31-.06-.42-.17-.11-.12-.17-.26-.17-.43s.06-.31.17-.43c.11-.12.25-.18.42-.18h.77c.27,0,.46-.05.55-.15s.15-.28.15-.55v-2.14c0-.37-.19-.56-.56-.56h-3.98c-.16,0-.29-.06-.41-.17s-.17-.25-.17-.41.06-.3.17-.41c.11-.12.25-.17.41-.17h3.96c.37,0,.56-.19.56-.56v-.2c0-.37-.19-.56-.56-.56h-4.1c-.16,0-.29-.06-.41-.17s-.17-.25-.17-.41.06-.29.17-.41c.11-.11.25-.17.41-.17h2.28c.37,0,.56-.19.56-.56v-.31c0-.37-.19-.56-.56-.56h-1.88c-.16,0-.29-.06-.41-.17s-.17-.25-.17-.41.06-.3.17-.41c.11-.12.25-.17.41-.17h1.88c.37,0,.56-.19.56-.56v-.21c0-.18.06-.33.18-.46.12-.13.27-.19.45-.19.17,0,.31.06.43.19.12.13.18.28.18.46v.21c0,.37.19.56.56.56h2.06c.16,0,.29.06.41.17s.17.25.17.41-.06.29-.17.41c-.11.11-.25.17-.41.17h-2.06c-.37,0-.56.19-.56.56v.31c0,.37.19.56.56.56h2.56c.16,0,.29.06.41.17.11.11.17.25.17.41ZM66.75,93.85c0,.18-.06.33-.18.46-.12.13-.27.19-.45.19-.23,0-.41-.1-.53-.29-.21-.33-.45-.69-.74-1.08-.09-.12-.14-.25-.14-.39,0-.17.06-.31.18-.43s.27-.18.45-.18c.19,0,.35.08.48.24.37.47.65.84.83,1.13.07.12.11.24.11.36Z"/>
      <path class="cls-1" d="M78.76,88.07c0,.75-.37,1.12-1.12,1.12h-2.13c-.37,0-.56.19-.56.56v6.15c0,.18-.07.33-.2.46-.13.13-.28.19-.46.19s-.33-.06-.46-.19c-.13-.13-.2-.28-.2-.46v-10.21c0-.75.37-1.12,1.12-1.12h2.88c.75,0,1.12.37,1.12,1.12v2.38ZM77.5,86.01c0-.26-.13-.39-.39-.39h-1.76c-.26,0-.39.13-.39.39s.14.41.42.41h1.71c.28,0,.42-.14.42-.41ZM77.5,87.79h0c0-.29-.14-.43-.42-.43h-1.71c-.28,0-.42.14-.42.41s.14.42.42.42h1.74c.26,0,.39-.13.39-.39ZM82.15,93.99c0,.75-.37,1.12-1.12,1.12h-3.23c-.75,0-1.12-.37-1.12-1.12v-2.84c0-.75.37-1.12,1.12-1.12h3.23c.75,0,1.12.37,1.12,1.12v2.84ZM80.97,91.65v-.17c0-.31-.18-.46-.53-.46h-2.04c-.35,0-.53.15-.53.46v.17c0,.28.14.42.42.42h2.27c.28,0,.42-.14.42-.42ZM80.97,93.6v-.21c0-.28-.14-.42-.42-.42h-2.27c-.28,0-.42.14-.42.42v.21c0,.31.18.46.53.46h2.04c.35,0,.53-.15.53-.46ZM85.25,94.58c0,.71-.11,1.19-.34,1.44-.23.25-.68.37-1.35.37h-1.2c-.16,0-.3-.06-.41-.18s-.17-.25-.17-.41c0-.17.06-.31.17-.43s.25-.18.41-.18h.73c.34,0,.56-.05.68-.16s.18-.34.18-.69v-4.59c0-.37-.19-.56-.56-.56h-2.21c-.75,0-1.12-.37-1.12-1.12v-2.38c0-.75.37-1.12,1.12-1.12h2.97c.75,0,1.12.37,1.12,1.12v8.89ZM83.94,86.01c0-.26-.13-.39-.39-.39h-1.85c-.26,0-.39.13-.39.39s.14.41.42.41h1.79c.28,0,.42-.14.42-.41ZM83.94,87.76c0-.27-.14-.41-.42-.41h-1.79c-.28,0-.42.14-.42.42h0c0,.28.13.41.39.41h1.82c.28,0,.42-.14.42-.42Z"/>
      <path class="cls-1" d="M99.02,86.14c0,.37-.25.6-.76.67-1.41.21-2.66.8-3.75,1.74-1.09.95-1.64,1.94-1.64,2.99,0,1.51,1.21,2.48,3.63,2.9.4.07.6.3.6.71,0,.22-.09.41-.26.57-.17.15-.37.21-.59.16-1.45-.28-2.55-.71-3.3-1.29-1-.77-1.5-1.75-1.5-2.94,0-1.01.34-1.92,1.02-2.74.3-.35.59-.65.88-.9.29-.24.43-.45.43-.62,0-.22-.24-.32-.71-.28-1.91.17-3.47.33-4.66.49-.21.03-.38-.03-.53-.17-.15-.14-.22-.31-.22-.52,0-.18.06-.33.17-.47s.26-.21.44-.22c1.72-.17,5.02-.42,9.9-.76.25,0,.46.05.62.18.16.13.24.29.24.48ZM98.26,90.27c0,.15-.05.28-.16.38s-.24.16-.39.16c-.22,0-.39-.08-.49-.25-.27-.43-.56-.8-.87-1.11-.1-.1-.15-.23-.15-.38,0-.37.18-.56.55-.56.16,0,.3.07.42.21.39.44.72.85.98,1.23.07.11.11.21.11.31ZM99.97,89.47c0,.15-.05.28-.16.38s-.24.16-.39.16c-.21,0-.38-.08-.49-.25-.31-.46-.6-.84-.87-1.13-.1-.11-.15-.23-.15-.35,0-.37.19-.56.56-.56.14,0,.27.07.41.2.33.33.66.74.99,1.25.06.13.1.23.1.31Z"/>
      <path class="cls-1" d="M113,92.33c0,.13-.04.26-.11.38-.63,1.04-1.39,1.86-2.28,2.48-1,.68-2.06,1.02-3.18,1.02-2.46,0-3.68-1.11-3.68-3.33,0-.91.02-2.1.06-3.57.03-1.19.05-2.49.07-3.89,0-.2.07-.37.22-.51.15-.14.32-.22.52-.22s.38.07.53.22.22.33.21.53l-.17,7.13c0,1.47.77,2.2,2.32,2.2.83,0,1.63-.29,2.39-.88.65-.48,1.23-1.13,1.72-1.95.14-.23.35-.35.63-.35.21,0,.38.07.52.22.15.14.22.32.22.52Z"/>
      <path class="cls-1" d="M123.18,87.62c-.68.13-1.37.24-2.07.32-.38.05-.66.15-.83.29-.17.15-.3.41-.38.77-.52,2.21-1.17,4.34-1.95,6.37-.12.31-.35.46-.69.46-.21,0-.38-.07-.52-.22s-.21-.31-.21-.51c0-.09.02-.19.06-.28.79-1.88,1.44-3.86,1.95-5.96.02-.07.03-.14.03-.21,0-.33-.2-.49-.59-.48-.39,0-.75,0-1.08,0-.19,0-.35-.08-.48-.22-.14-.13-.2-.3-.2-.48s.07-.36.22-.5c.15-.14.32-.21.51-.2.53.02.96.02,1.29.01.52-.02.82-.27.9-.77.03-.21.08-.51.14-.92.06-.41.3-.61.71-.61.2,0,.36.07.5.21.14.14.21.3.21.49,0,.09-.04.33-.11.7,0,.07-.01.13-.01.18,0,.37.21.53.62.46.06,0,.38-.07.98-.2.45-.08.76-.13.92-.13.2,0,.36.07.48.21s.19.31.19.5c0,.38-.19.61-.57.69ZM127.6,94.99c0,.4-.2.63-.59.69-.89.13-1.82.2-2.8.2-2.48,0-3.72-.7-3.72-2.09,0-.32.08-.68.24-1.09.11-.28.32-.42.63-.42.44,0,.66.22.66.67,0,.08-.01.18-.04.31-.03.14-.04.24-.04.32,0,.63.8.95,2.39.95.7,0,1.53-.07,2.49-.21.21-.03.39.03.55.16.16.14.24.31.24.51ZM127.21,89.78c0,.2-.07.36-.22.5-.15.14-.32.21-.52.2-1.39-.07-2.88-.04-4.47.1-.2.02-.37-.04-.51-.18-.14-.14-.22-.3-.22-.5,0-.18.06-.33.17-.45.12-.13.26-.2.43-.22,1.58-.16,3.13-.21,4.65-.17.19,0,.35.08.48.22.14.14.2.3.2.49Z"/>
      <path class="cls-1" d="M133.74,94.69c0,.57-.2,1.05-.6,1.45-.4.4-.89.59-1.46.59s-1.05-.2-1.45-.59c-.4-.4-.59-.88-.59-1.45s.2-1.05.59-1.46c.4-.4.88-.6,1.45-.6s1.05.2,1.46.6c.4.4.6.89.6,1.46ZM132.74,94.69c0-.3-.1-.55-.31-.76-.21-.21-.46-.31-.76-.31s-.54.1-.74.31-.31.46-.31.75.1.53.31.74.45.3.74.3.55-.1.76-.29.31-.44.31-.74Z"/>
      <path class="cls-1" d="M55.54,100.77c0,.25-.11.5-.34.76-1.92,2.17-4.64,3.8-8.15,4.9-.09.02-.16.03-.2.03-.17,0-.31-.06-.44-.18-.13-.12-.19-.27-.19-.45,0-.32.15-.52.46-.62,1.18-.35,2.21-.75,3.09-1.18.19-.09.28-.21.28-.35,0-.12-.08-.23-.22-.34-.64-.45-1.09-.67-1.33-.67-.16,0-.6.18-1.32.53-.07.04-.16.06-.27.06-.17,0-.31-.06-.42-.17s-.17-.25-.17-.42c0-.25.11-.43.34-.53,1.84-.86,3.28-1.86,4.33-3,.11-.12.25-.18.42-.18.18,0,.33.06.46.17.13.12.17.25.13.41,0,.05-.01.09-.01.14,0,.19.12.28.36.28h2.03c.35,0,.63.08.84.22.21.15.31.34.31.57ZM58.36,105.62c0,.23-.09.48-.28.74-1.98,2.75-5.03,4.5-9.16,5.25-.2.04-.37,0-.52-.13-.15-.13-.23-.29-.23-.5,0-.36.18-.58.53-.64,1.43-.26,2.69-.64,3.78-1.15.19-.08.28-.2.28-.34,0-.12-.08-.24-.22-.35-.35-.25-.64-.45-.87-.59-.25-.16-.49-.24-.7-.24-.19,0-.42.06-.69.19-.27.13-.6.26-.98.41-.07.03-.14.04-.22.04-.16,0-.29-.06-.41-.17-.11-.11-.17-.25-.17-.42,0-.28.13-.47.38-.56,2.19-.85,4-2,5.42-3.44.11-.11.24-.17.39-.17.16,0,.29.06.41.17.11.11.17.25.17.41,0,.05,0,.11-.03.18-.04.11-.06.2-.06.27,0,.13.1.2.29.2h1.74c.35,0,.63.08.84.23.21.15.31.36.31.61ZM53.36,101.64c.11-.12.17-.23.17-.34,0-.19-.16-.28-.49-.28h-1.79c-.29,0-.51.04-.67.11-.07.04-.24.16-.53.38-.14.11-.21.22-.21.34,0,.12.08.23.24.34.25.15.52.32.81.52.2.13.38.2.56.2.23,0,.49-.1.77-.31.54-.39.92-.71,1.15-.95ZM56.33,106.54c.11-.13.17-.25.17-.35,0-.21-.15-.31-.45-.31h-1.83c-.37,0-.72.12-1.05.35l-.48.34c-.15.1-.22.21-.22.32,0,.12.08.23.24.34l.98.63c.2.13.39.2.57.2.23,0,.48-.1.73-.29.62-.47,1.06-.87,1.34-1.22Z"/>
      <path class="cls-1" d="M69.32,110.48c0,.21-.07.4-.22.55s-.33.22-.55.22-.4-.08-.56-.25c-1.77-1.86-3.57-3.46-5.38-4.8-.53-.39-.8-.78-.8-1.16s.3-.81.91-1.22c2.17-1.47,3.95-2.87,5.32-4.17.15-.14.32-.21.5-.21.21,0,.38.07.52.22s.22.32.22.53-.08.39-.24.53c-1.21,1.08-2.74,2.28-4.59,3.58-.41.29-.62.54-.62.76s.2.48.6.78c1.5,1.14,3.05,2.51,4.65,4.1.15.15.22.33.22.55Z"/>
      <path class="cls-1" d="M86.02,105.47c0,2.85-1.44,4.59-4.33,5.22-.03,0-.08.01-.15.01-.19,0-.35-.06-.48-.2-.14-.13-.2-.29-.2-.49,0-.37.17-.6.5-.69,2.16-.54,3.23-1.84,3.23-3.89,0-1.07-.29-1.93-.87-2.58-.21-.24-.48-.46-.8-.64-.36-.21-.69-.31-.98-.31-.4,0-.64.23-.73.7-.35,2.04-.77,3.67-1.26,4.91-.31.78-.61,1.37-.91,1.76-.48.61-1.03.91-1.67.91-.85,0-1.53-.42-2.04-1.27-.45-.73-.67-1.54-.67-2.44,0-1.74.58-3.17,1.73-4.31,1.15-1.14,2.6-1.71,4.33-1.71,1.63,0,2.91.42,3.84,1.26.97.88,1.46,2.12,1.46,3.74ZM79.79,102.65c0-.07.01-.13.01-.2,0-.34-.16-.52-.48-.52-.11,0-.23.02-.36.07-.86.3-1.56.86-2.1,1.67-.54.82-.81,1.75-.81,2.81,0,.58.14,1.09.41,1.53.27.44.57.67.91.67.4,0,.83-.56,1.29-1.69.38-.95.76-2.4,1.13-4.34Z"/>
      <path class="cls-1" d="M99.55,109.43c0,.4-.19.63-.57.7-1.53.27-2.95.41-4.27.41s-2.34-.11-3.11-.32c-1.25-.36-1.88-1.03-1.88-2.03,0-.68.44-1.46,1.33-2.35.12-.12.28-.18.46-.18.18,0,.33.06.46.19.13.13.2.28.2.46,0,.16-.06.3-.18.43-.5.52-.76.96-.76,1.3,0,.78,1.19,1.16,3.56,1.16,1.13,0,2.45-.14,3.95-.43.21-.04.39.01.56.15.17.14.25.31.25.53ZM98.02,102.19c-.78.31-1.74.83-2.86,1.55-.11.08-.22.11-.32.11-.16,0-.3-.06-.41-.17s-.18-.26-.18-.43c0-.21.09-.38.28-.49l.18-.11c.18-.1.27-.21.27-.31,0-.12-.14-.18-.41-.18-1.03.02-2.17,0-3.44-.08-.18,0-.33-.08-.45-.21-.13-.13-.19-.28-.19-.46,0-.2.07-.36.22-.5.14-.13.31-.2.51-.19,2.23.13,4.4.14,6.5.04.27,0,.49.06.65.2.16.14.25.31.25.5,0,.33-.2.57-.59.73Z"/>
      <path class="cls-1" d="M113.42,109.79c0,.4-.2.63-.6.69-1.54.21-3.08.32-4.62.32-2.74,0-4.12-.83-4.12-2.48,0-1.01.7-2.05,2.11-3.14.28-.21.42-.46.42-.74,0-.13-.03-.27-.08-.42-.41-1.04-.75-2.15-1.02-3.35,0-.05-.01-.1-.01-.15,0-.21.07-.38.22-.53.14-.14.32-.22.52-.22.18,0,.33.06.47.18s.22.27.26.45c.18.93.43,1.87.77,2.81.11.31.29.46.53.46.13,0,.27-.04.41-.13.08-.05,1.11-.61,3.09-1.69.12-.06.23-.1.34-.1.2,0,.36.07.5.21s.2.31.2.5c0,.29-.13.5-.39.63-1.15.57-2.39,1.24-3.72,2.02-.85.49-1.53.96-2.03,1.39-.73.62-1.09,1.19-1.09,1.71,0,.84.88,1.26,2.63,1.26,1.45,0,2.92-.13,4.41-.38.21-.04.39.01.56.15.17.14.25.32.25.53Z"/>
      <path class="cls-1" d="M128.08,104.46c0,.28-.13.48-.39.59-.62.26-1.21.53-1.76.8-.38.19-.62.38-.71.59-.07.15-.1.45-.1.9v.9c0,.19-.07.34-.2.47-.13.13-.29.19-.48.19s-.34-.06-.47-.19-.19-.28-.19-.47v-.53c0-.33-.12-.49-.36-.49-.1,0-.21.04-.34.11-1.13.7-1.69,1.3-1.69,1.81,0,.29.19.5.57.62s1.04.19,1.96.19c.73,0,1.69-.08,2.9-.24.2-.03.37.02.51.15.14.13.22.29.22.49,0,.17-.06.31-.17.44s-.25.2-.42.22c-1.06.12-2.11.18-3.14.18s-1.88-.09-2.45-.27c-.95-.31-1.43-.87-1.43-1.69,0-.95,1.03-2.04,3.09-3.26.34-.2.5-.39.5-.59,0-.24-.2-.36-.59-.36-.54,0-1.23.26-2.06.77-.67.42-1.26.89-1.78,1.4l-.36.43c-.15.14-.31.21-.49.21-.19,0-.34-.06-.47-.19s-.19-.28-.19-.47c0-.17.05-.31.15-.43.97-1.17,1.78-2.33,2.44-3.5.06-.11.1-.22.1-.32,0-.24-.17-.36-.52-.35-.31,0-.76.01-1.36.01-.17,0-.31-.06-.43-.18-.12-.12-.18-.27-.18-.43,0-.18.06-.33.19-.45.13-.12.27-.18.44-.17.58.02,1.22.02,1.92,0,.55,0,.92-.27,1.12-.77l.28-.73c.11-.29.32-.43.63-.43.19,0,.34.07.47.2.13.13.19.29.19.46,0,.08-.01.16-.04.24-.05.11-.08.18-.08.21-.04.1-.06.2-.06.28,0,.27.17.39.5.35.35-.04,1.03-.13,2.02-.28.19-.03.35.02.5.15s.22.28.22.47c0,.37-.19.58-.56.63-.93.12-1.77.21-2.51.27-.41.04-.72.12-.93.26-.21.13-.41.38-.6.72-.02.03-.07.1-.14.22-.1.18-.15.32-.15.43,0,.14.08.21.25.21.1,0,.24-.03.41-.1.5-.19.95-.28,1.36-.28.56,0,.99.19,1.29.56.21.25.4.38.59.38.1,0,.21-.03.34-.08l1.69-.83c.09-.05.19-.07.28-.07.18,0,.33.06.46.19s.19.28.19.47Z"/>
      <path class="cls-1" d="M143.21,107.31c0,.16-.06.3-.18.41-.12.12-.25.17-.41.17h-4.26c-.42,0-.63.21-.63.63v1.2c0,.72-.11,1.18-.34,1.39s-.71.31-1.44.31h-1.58c-.17,0-.31-.06-.43-.18-.12-.12-.18-.27-.18-.43s.06-.31.18-.43.27-.18.43-.18h1.12c.37,0,.61-.04.71-.11.14-.1.21-.34.21-.71v-.85c0-.42-.21-.63-.63-.63h-4.56c-.16,0-.29-.06-.41-.17-.11-.12-.17-.25-.17-.41s.06-.29.17-.41c.11-.11.25-.17.41-.17h4.63c.37,0,.56-.12.56-.36,0-.15.06-.29.19-.41s.28-.19.47-.19c.11,0,.32-.06.62-.14.14-.07.28-.14.41-.24.13-.09.2-.18.2-.27,0-.12-.13-.18-.38-.18h-4.45c-.15,0-.28-.06-.38-.17-.11-.11-.16-.25-.16-.41,0-.15.05-.28.16-.38s.24-.16.38-.16h6.31c.6,0,.9.22.9.66,0,.32-.26.66-.77,1.04-.16.12-.56.36-1.2.73-.17.09-.25.19-.25.29,0,.13.12.2.36.2h3.79c.16,0,.3.06.41.17.12.11.18.25.18.41ZM142.75,104.26c0,.18-.06.33-.19.46s-.28.19-.46.19-.33-.06-.46-.19-.19-.28-.19-.46v-.71c0-.4-.2-.6-.6-.6h-7.92c-.4,0-.6.2-.6.6v.71c0,.18-.06.33-.19.46s-.28.19-.46.19-.33-.06-.46-.19-.19-.28-.19-.46v-1.29c0-.79.4-1.19,1.19-1.19h5.81c.52,0,.92-.22,1.18-.67.27-.44.53-.93.8-1.46.12-.24.31-.36.57-.36.19,0,.35.07.48.2.13.14.2.29.2.46,0,.09-.02.17-.06.24-.21.38-.41.72-.59,1.01-.07.1-.1.2-.1.28,0,.21.14.31.42.31h.6c.79,0,1.19.4,1.19,1.19v1.29ZM134.46,101.07c0,.18-.06.33-.19.46s-.28.19-.46.19c-.21,0-.44-.16-.69-.48-.16-.25-.32-.5-.49-.76-.08-.1-.11-.23-.11-.38,0-.17.06-.32.18-.44.12-.13.27-.19.43-.19.19,0,.34.07.46.22.24.3.49.63.74,1.01.07.11.11.23.11.36ZM137.61,100.87c0,.18-.06.33-.17.45-.12.12-.27.18-.46.18-.27,0-.46-.11-.58-.34-.12-.22-.24-.45-.36-.67-.19-.35-.28-.58-.28-.69,0-.18.06-.33.18-.45.12-.12.27-.18.45-.18.24,0,.42.09.53.27.03.04.23.41.6,1.11.06.1.08.21.08.32Z"/>
      <path class="cls-1" d="M147.68,100.51c-.35,2.19-.53,4.27-.53,6.24,0,1.07.06,2.22.18,3.43.02.21-.04.4-.18.56-.14.16-.32.24-.53.24-.19,0-.35-.07-.5-.2s-.22-.28-.23-.46c-.1-1.34-.15-2.52-.15-3.54,0-2.3.18-4.47.53-6.5.08-.4.31-.6.7-.6.21,0,.4.08.55.25s.21.36.17.57ZM147.68,100.51c-.35,2.12-.53,4.2-.53,6.24,0,1.18.06,2.32.18,3.43.03.21-.03.4-.17.56-.15.16-.32.24-.54.24-.19,0-.35-.07-.49-.2s-.22-.28-.24-.46c-.1-1.08-.15-2.26-.15-3.54,0-2.17.18-4.33.53-6.5.07-.4.3-.6.7-.6.21,0,.4.08.55.25s.21.36.17.57ZM156.78,109.24c0,.2-.07.36-.2.49s-.29.2-.49.2c-.16,0-.29-.04-.41-.13-.24-.18-.51-.35-.81-.53-.11-.07-.22-.1-.32-.1-.21,0-.38.15-.49.46-.32.9-1.19,1.34-2.6,1.34-.71,0-1.31-.15-1.79-.45-.58-.35-.87-.86-.87-1.53s.24-1.18.73-1.55c.49-.37,1.15-.55,2-.55.24,0,.49.02.73.06.22.04.39,0,.51-.09.12-.1.18-.25.18-.47l-.04-2.16c0-.48-.25-.7-.73-.67-.34.02-1.15.03-2.45.03-.18,0-.33-.07-.46-.2-.13-.13-.19-.28-.19-.46,0-.19.07-.34.2-.47.13-.13.3-.18.48-.17.81.03,1.62.03,2.44,0,.45-.02.67-.26.66-.73v-1.25c-.01-.19.05-.35.18-.48.13-.14.29-.2.48-.2s.35.07.48.2.2.29.2.48v1.05c.02.44.22.66.6.66.05,0,.1,0,.17-.01l.85-.15c.2-.04.37,0,.53.13.16.13.24.29.24.5,0,.34-.21.56-.63.69-.07.02-.42.07-1.06.15-.44.06-.65.3-.64.74l.04,2.65c0,.53.26.91.74,1.15.58.28,1.05.55,1.43.8.21.14.32.34.32.59ZM152.83,108.99c.03-.08.04-.16.04-.24,0-.31-.19-.5-.56-.57-.29-.06-.57-.08-.83-.08-.93,0-1.4.28-1.4.84,0,.24.12.44.36.59.24.15.55.22.92.22.8,0,1.29-.25,1.46-.76ZM156.32,100.89c0,.14-.05.26-.15.36-.1.1-.22.15-.37.15-.2,0-.43-.17-.7-.52-.2-.26-.39-.52-.59-.78-.1-.1-.15-.22-.15-.35,0-.36.18-.53.53-.53.14,0,.27.07.39.2.38.43.7.82.94,1.18.07.09.1.19.1.29ZM157.95,100.12c0,.14-.05.26-.16.36s-.23.15-.37.15c-.21,0-.36-.08-.46-.24-.3-.44-.57-.8-.83-1.08-.09-.1-.14-.21-.14-.34,0-.35.18-.53.53-.53.12,0,.25.07.38.2.34.34.65.73.95,1.18.06.13.1.23.1.29Z"/>
      <path class="cls-1" d="M171.44,102.92c0,.19-.07.34-.2.47-.13.13-.28.19-.46.2l-1.62.06c-.44.02-.67.25-.7.69-.05.71-.1,1.35-.17,1.93-.07.54-.2.93-.41,1.17s-.53.36-.95.36c-.35,0-.88-.15-1.6-.46-.26-.11-.39-.3-.39-.57,0-.19.06-.34.17-.46.12-.12.25-.18.41-.18.09,0,.19.02.28.06.43.2.7.29.81.29.22,0,.36-.3.41-.9.03-.42.05-.79.07-1.12,0-.23-.05-.41-.17-.53-.12-.12-.3-.18-.53-.17-.79.04-1.65.09-2.58.15-.45.04-.67.28-.67.73v3.35c0,.63.13,1.05.39,1.25.26.2.78.29,1.56.29,1.26,0,2.62-.07,4.09-.21.2-.02.37.04.51.17s.22.29.22.49c0,.18-.06.33-.19.46s-.27.2-.44.21c-1.55.09-2.99.15-4.33.17-1.1,0-1.88-.14-2.34-.43-.57-.38-.85-1.1-.85-2.14v-3.43c0-.5-.25-.73-.74-.67l-1.4.15c-.19.02-.36-.04-.5-.17-.15-.13-.22-.29-.22-.49,0-.17.06-.31.17-.43.12-.12.25-.19.41-.21l1.61-.15c.45-.05.67-.29.67-.73v-1.37c0-.19.07-.35.2-.49.13-.14.3-.21.5-.21s.35.07.48.21c.14.14.2.3.2.49v1.2c0,.49.24.71.73.67.96-.08,1.82-.13,2.58-.17.45-.02.68-.25.69-.7v-1.36c0-.19.07-.35.2-.49.13-.14.3-.21.48-.21s.35.07.48.2c.14.14.2.3.2.48v1.27c0,.23.06.41.18.52.12.12.3.17.53.16l1.53-.06c.19,0,.35.05.48.18.14.13.2.29.2.48Z"/>
      <path class="cls-1" d="M184.97,101.14c0,.37-.25.6-.76.67-1.41.21-2.66.8-3.75,1.74-1.09.95-1.64,1.94-1.64,2.99,0,1.46,1.21,2.43,3.63,2.9.4.08.6.31.6.71,0,.22-.09.41-.26.56-.17.15-.37.21-.59.17-1.35-.23-2.44-.65-3.26-1.26-1.03-.75-1.54-1.74-1.54-2.97,0-.99.34-1.9,1.02-2.74.27-.34.57-.64.9-.91.28-.23.42-.43.42-.6,0-.22-.24-.32-.71-.28-1.46.13-3.01.29-4.66.49-.21.03-.38-.03-.53-.17s-.22-.31-.22-.52c0-.18.06-.33.17-.46s.26-.21.44-.22c1.69-.17,4.99-.42,9.9-.76.25-.02.46.04.62.16.16.13.24.29.24.5Z"/>
      <path class="cls-1" d="M40.2,123.13c-.82,1.61-1.61,2.42-2.37,2.42-.93,0-1.66-.83-2.17-2.49-.4-1.29-.6-2.75-.6-4.38,0-.84.03-1.56.08-2.17.02-.2.1-.36.23-.49s.3-.2.5-.2c.21,0,.39.08.54.25.14.16.21.35.19.57-.07.62-.1,1.35-.1,2.17,0,1.07.12,2.14.35,3.19.26,1.17.61,1.75,1.04,1.75.31,0,.66-.42,1.05-1.26.12-.25.33-.38.63-.38.2,0,.36.07.5.2s.2.3.2.5c0,.12-.02.23-.07.32ZM46.26,122.69c.03.22-.03.42-.18.6-.15.18-.34.27-.57.27-.2,0-.37-.07-.52-.2-.15-.13-.23-.29-.25-.48-.23-2.12-.92-4-2.06-5.66-.08-.12-.13-.26-.13-.41,0-.21.07-.38.21-.52.14-.14.31-.21.52-.21.25,0,.45.1.6.31,1.29,1.79,2.08,3.89,2.38,6.29Z"/>
      <path class="cls-1" d="M55.81,117.62c-.68.13-1.37.24-2.07.32-.38.05-.66.14-.83.29-.17.15-.3.41-.39.77-.52,2.21-1.17,4.33-1.95,6.37-.12.31-.35.46-.69.46-.21,0-.38-.07-.52-.22-.14-.14-.21-.31-.21-.51,0-.09.02-.19.06-.28.79-1.88,1.44-3.86,1.95-5.96.02-.07.03-.14.03-.21,0-.33-.2-.48-.59-.48-.39,0-.75,0-1.08,0-.19,0-.35-.08-.48-.22-.14-.14-.2-.3-.2-.48,0-.2.07-.36.22-.5.14-.14.31-.21.51-.2.53.02.96.02,1.29.01.52-.02.82-.28.9-.77.03-.21.07-.51.14-.92s.3-.61.71-.61c.2,0,.36.07.5.21.14.14.21.3.21.49,0,.09-.04.33-.11.7,0,.07-.01.13-.01.18,0,.37.21.53.62.46.06,0,.38-.08.98-.2.45-.08.76-.13.92-.13.2,0,.36.07.48.21s.19.31.19.5c0,.38-.19.61-.57.69ZM60.24,124.99c0,.4-.2.63-.59.69-.89.13-1.82.2-2.8.2-2.48,0-3.72-.69-3.72-2.09,0-.32.08-.68.24-1.09.11-.28.32-.42.63-.42.44,0,.66.22.66.67,0,.08-.01.18-.04.32-.03.13-.04.24-.04.31,0,.63.8.95,2.39.95.7,0,1.53-.07,2.49-.21.21-.03.39.03.55.16.16.14.24.31.24.51ZM59.84,119.78c0,.2-.08.36-.22.5-.15.14-.32.21-.52.2-1.39-.07-2.88-.04-4.47.1-.2.02-.37-.04-.51-.17-.14-.13-.22-.3-.22-.5,0-.18.06-.33.17-.46s.26-.2.43-.22c1.58-.16,3.13-.21,4.65-.17.19,0,.35.08.48.22.14.14.2.3.2.49Z"/>
      <path class="cls-1" d="M69.81,117.62c-.78.15-1.47.26-2.07.32-.38.05-.66.14-.83.29-.17.15-.3.41-.38.77-.56,2.45-1.21,4.58-1.95,6.37-.13.31-.36.46-.69.46-.21,0-.38-.07-.52-.22-.14-.14-.21-.31-.21-.51,0-.1.02-.2.06-.28.75-1.75,1.4-3.73,1.95-5.96.02-.07.03-.14.03-.21,0-.33-.2-.48-.59-.48-.39,0-.75,0-1.08,0-.19,0-.35-.08-.48-.22s-.2-.3-.2-.48c0-.2.07-.36.22-.5s.31-.21.51-.2c.53.02.96.02,1.29.01.53-.02.83-.28.9-.77.03-.2.07-.5.14-.91.07-.41.3-.62.71-.62.2,0,.36.07.5.21.14.14.21.3.21.49,0,.09-.04.33-.11.7,0,.07-.01.13-.01.18,0,.37.21.53.62.46.06,0,.38-.08.98-.2.45-.08.76-.13.92-.13.2,0,.36.07.48.21s.19.31.19.5c0,.38-.19.61-.57.69ZM74.23,124.99c0,.18-.06.33-.17.46-.11.13-.25.21-.42.22-1.05.13-1.98.2-2.8.2-2.48,0-3.72-.69-3.72-2.09,0-.34.08-.7.24-1.09.11-.28.32-.42.63-.42.45,0,.67.22.67.67,0,.08-.02.18-.06.32-.04.13-.06.24-.06.31,0,.63.8.95,2.41.95.62,0,1.46-.07,2.49-.21.21-.03.39.03.55.16.16.14.24.31.24.51ZM73.84,119.78c0,.2-.07.36-.22.5-.15.14-.32.21-.52.2-1.44-.1-2.93-.07-4.47.1-.2.02-.37-.04-.51-.17-.14-.13-.22-.3-.22-.5,0-.18.06-.33.17-.46s.26-.2.43-.22c1.86-.16,3.41-.21,4.65-.17.19,0,.35.08.48.22.14.14.2.3.2.49ZM73.17,117.33c0,.15-.05.28-.16.39s-.24.16-.38.16c-.22,0-.39-.08-.49-.25-.27-.43-.56-.8-.87-1.11-.1-.1-.15-.23-.15-.38,0-.37.18-.56.55-.56.16,0,.3.07.42.21.39.44.72.85.98,1.23.07.11.11.21.11.31ZM74.88,116.53c0,.15-.05.28-.16.39-.11.11-.24.16-.38.16-.21,0-.38-.08-.49-.25-.31-.46-.6-.83-.87-1.13-.1-.11-.15-.23-.15-.35,0-.37.19-.56.56-.56.14,0,.27.07.41.2.33.33.66.74.99,1.25.07.13.1.23.1.31Z"/>
      <path class="cls-1" d="M87.96,118.32c0,.3-.15.5-.43.6-.62.21-1.18.38-1.68.5-.3.07-.45.22-.45.43,0,.12.05.25.14.38.46.63.88,1.18,1.27,1.62.13.15.2.32.2.5,0,.21-.07.4-.22.55-.15.15-.33.23-.55.23-.11,0-.22-.02-.32-.06-1.24-.5-2.41-.74-3.5-.74-1.79,0-2.69.42-2.69,1.27s1.13,1.25,3.39,1.25c.77,0,1.65-.05,2.63-.15.19-.02.35.04.5.16.15.13.22.28.22.47,0,.38-.2.59-.59.63-.89.09-1.82.14-2.8.14-3.15,0-4.72-.82-4.72-2.46s1.26-2.45,3.78-2.45c.59,0,1.27.09,2.06.27.07.02.14.03.2.03.19,0,.28-.07.28-.2,0-.09-.05-.2-.14-.32-.05-.07-.17-.24-.38-.52-.25-.35-.56-.52-.94-.52-.11,0-.24,0-.38.03-1.3.18-2.72.26-4.27.24-.17,0-.31-.06-.43-.18-.12-.12-.17-.27-.17-.43s.06-.32.18-.44.27-.18.43-.17c1.16.04,2.39-.01,3.71-.15.35-.04.53-.18.53-.42,0-.11-.04-.22-.11-.32-.22-.38-.55-.55-.97-.5-.8.09-1.73.14-2.77.14-.16,0-.3-.06-.43-.18-.13-.12-.19-.26-.19-.42,0-.17.06-.31.19-.43.13-.12.27-.17.43-.17.77,0,1.49-.01,2.16-.07.39-.04.59-.16.59-.38,0,0-.08-.21-.25-.62-.03-.06-.04-.14-.04-.22,0-.19.07-.35.2-.48.13-.13.29-.2.49-.2.31,0,.52.15.63.45.04.11.1.29.2.52.14.35.37.53.7.53.08,0,.17-.01.27-.04.65-.17,1.31-.37,1.96-.6.07-.03.14-.04.21-.04.18,0,.33.06.45.18.13.12.19.27.19.45,0,.32-.15.52-.45.62-.69.22-1.3.4-1.82.52-.34.08-.5.23-.5.46,0,.1.04.21.11.31l.03.04c.2.3.43.45.71.45.07,0,.15,0,.24-.03.74-.18,1.43-.39,2.07-.63.05-.02.11-.03.2-.03.18,0,.33.06.46.18.13.12.19.27.19.45Z"/>
      <path class="cls-1" d="M102.57,122.14c0,1.19-.42,2.15-1.26,2.86-.73.62-1.72,1.02-2.97,1.19-.2.03-.37-.03-.53-.16-.15-.13-.23-.3-.23-.5,0-.38.19-.61.56-.67,2-.34,3-1.27,3-2.77,0-1.04-.42-1.76-1.27-2.18-.11-.06-.22-.08-.32-.08-.24,0-.44.15-.59.46-.61,1.27-1.3,2.38-2.09,3.32-1.2,1.44-2.4,2.16-3.6,2.16-.62,0-1.09-.18-1.44-.53s-.51-.83-.51-1.43c0-1.06.31-2.03.94-2.9.48-.66,1.07-1.2,1.78-1.62.42-.25.64-.6.67-1.05v-.27c.03-.43-.17-.64-.59-.64-.52,0-1.12,0-1.78-.01-.18,0-.33-.07-.46-.2s-.19-.28-.19-.46.07-.33.2-.46c.14-.13.3-.19.48-.18.86.04,1.5.05,1.92.04.38,0,.6-.21.66-.6l.08-.6c.06-.41.27-.62.66-.62.2,0,.37.08.52.25s.21.34.18.52l-.04.27c-.04.22,0,.4.1.52.1.12.27.17.49.15.96-.08,2.04-.2,3.25-.38.2-.03.37.02.52.15.15.13.23.3.23.5,0,.38-.2.6-.59.64-1.47.18-2.67.29-3.6.35-.44.03-.67.23-.7.6-.02.22.03.38.15.48.12.1.29.13.51.11.36-.05.68-.07.94-.07,1.43,0,2.56.27,3.4.81,1,.65,1.5,1.66,1.5,3.01ZM94.19,124.19c.42-.22.61-.67.56-1.33,0-.42-.02-.83-.03-1.25-.04-.65-.16-.98-.36-.98-.13,0-.28.07-.45.22-.36.32-.66.72-.88,1.2-.24.51-.36,1.03-.36,1.54,0,.55.23.83.69.83.26,0,.54-.08.84-.24ZM97.7,120.06c.05-.09.07-.18.07-.25,0-.23-.15-.34-.43-.32-.43.03-.75.1-.95.22-.29.17-.44.45-.45.84,0,.35,0,.76.01,1.2,0,.28.11.42.29.42.13,0,.25-.08.36-.24.42-.59.78-1.21,1.09-1.88Z"/>
      <path class="cls-1" d="M110.03,119.71c-.49.83-.89,1.64-1.22,2.42-.14.34-.38.5-.71.5-.47,0-.74-.24-.81-.73-.08-.55-.13-1.38-.13-2.48s.16-2.42.48-3.93c.09-.46.34-.69.73-.69.2,0,.36.07.49.2.13.13.2.3.2.5,0,.06,0,.11-.01.17-.34,1.54-.51,2.7-.53,3.49,0,.31.06.46.21.46.12,0,.25-.11.39-.34l.07-.11c.09-.15.23-.22.42-.22.34,0,.5.17.5.5,0,.09-.02.18-.07.25ZM114.85,119.78c0,1.58-.29,2.87-.85,3.88-.6,1.05-1.58,1.93-2.94,2.65-.1.06-.21.08-.34.08-.2,0-.36-.08-.5-.23-.14-.15-.21-.33-.21-.52,0-.26.13-.46.39-.6,1.14-.6,1.94-1.32,2.39-2.16.43-.77.64-1.82.64-3.15,0-1.2-.13-2.62-.38-4.24-.04-.21.02-.41.17-.58.15-.17.33-.26.55-.26.18,0,.33.06.47.18.13.12.22.27.24.45.24,1.75.37,3.25.37,4.51Z"/>
      <path class="cls-1" d="M127.44,119.55c0,1.51-.25,3.15-.74,4.93-.15.53-.31.91-.49,1.13-.25.34-.6.5-1.05.5-.51,0-1.16-.13-1.93-.41-.32-.11-.48-.32-.48-.63,0-.19.07-.35.2-.48s.29-.2.47-.2c.08,0,.14,0,.2.03.49.16.82.24,1.01.24.22,0,.38-.07.48-.2.07-.09.16-.3.25-.63.44-1.5.66-2.87.66-4.09,0-.45-.09-.75-.27-.9-.18-.15-.51-.22-1.01-.22h-.2c-.08,0-.15.01-.21.01-.47,0-.77.24-.91.73-.62,2.12-1.46,4.17-2.49,6.15-.14.27-.36.41-.66.41-.21,0-.38-.07-.52-.22-.14-.14-.21-.32-.21-.53,0-.15.03-.28.08-.38.88-1.54,1.65-3.28,2.32-5.22.03-.09.04-.18.04-.25,0-.34-.2-.48-.6-.42-.29.05-.74.11-1.36.2-.2.03-.38-.03-.54-.16-.16-.14-.25-.31-.25-.51,0-.39.21-.62.62-.68.41-.06,1.06-.14,1.95-.25.45-.04.75-.32.91-.84.08-.46.16-.92.24-1.37.07-.4.3-.6.7-.6.22,0,.4.08.54.24.13.16.18.36.15.58,0,.05-.05.25-.13.62-.06.25-.1.45-.1.6,0,.39.22.57.66.55h.21c.71-.06,1.28.07,1.72.36.49.34.73.97.73,1.89ZM129.31,116.49c0,.15-.05.28-.16.38-.11.11-.24.16-.38.16-.22,0-.39-.08-.49-.25-.27-.43-.56-.8-.87-1.11-.1-.1-.15-.23-.15-.38,0-.37.18-.56.55-.56.16,0,.3.07.42.21.39.44.72.85.98,1.23.07.11.11.21.11.31ZM130.21,121.39c-.39-1.02-.92-2.01-1.58-2.98-.07-.11-.11-.24-.11-.38,0-.2.07-.36.22-.5.14-.13.31-.2.51-.2.23,0,.42.1.57.31.74,1.04,1.33,2.11,1.79,3.22.04.09.06.19.06.28,0,.2-.08.37-.25.52s-.35.22-.55.22c-.31,0-.53-.16-.66-.49ZM131.02,115.69c0,.15-.05.28-.16.38-.11.11-.24.16-.38.16-.21,0-.38-.08-.49-.25-.31-.46-.6-.83-.87-1.13-.1-.11-.15-.23-.15-.35,0-.37.19-.56.56-.56.14,0,.28.07.41.2.33.33.66.74.99,1.25.07.13.1.23.1.31Z"/>
      <path class="cls-1" d="M144.14,124.79c0,.4-.2.63-.6.69-1.54.21-3.08.32-4.62.32-2.74,0-4.12-.83-4.12-2.48,0-1.01.71-2.05,2.11-3.14.28-.21.42-.46.42-.74,0-.13-.03-.27-.08-.42-.41-1.04-.75-2.15-1.02-3.35,0-.05-.01-.1-.01-.15,0-.21.07-.38.22-.53.14-.14.32-.22.53-.22.18,0,.33.06.47.18s.22.27.26.45c.18.93.43,1.87.77,2.81.11.31.29.46.53.46.13,0,.27-.04.41-.13.08-.05,1.12-.61,3.09-1.69.12-.06.23-.1.34-.1.2,0,.36.07.5.21.13.14.2.31.2.5,0,.29-.13.5-.39.63-1.15.57-2.39,1.24-3.72,2.02-.85.49-1.53.96-2.03,1.39-.73.62-1.09,1.19-1.09,1.71,0,.84.88,1.26,2.63,1.26,1.45,0,2.92-.13,4.41-.38.21-.04.39.01.56.15.17.14.25.32.25.53Z"/>
      <path class="cls-1" d="M157.97,120.81c0,1.44-.61,2.66-1.82,3.65-.97.81-2.24,1.42-3.81,1.83-.08.02-.13.03-.17.03-.19,0-.35-.07-.48-.2-.13-.14-.2-.3-.2-.5,0-.35.16-.56.49-.66,1.2-.35,2.19-.81,2.95-1.4,1.03-.77,1.54-1.68,1.54-2.72,0-1.25-.63-1.88-1.89-1.88s-2.88.33-4.77.99c-.08.03-.16.04-.22.04-.19,0-.35-.07-.49-.21-.14-.14-.21-.31-.21-.5,0-.35.17-.57.5-.67,2.19-.66,3.95-.99,5.26-.99,1.04,0,1.85.27,2.42.8.6.56.9,1.35.9,2.38ZM156.35,115.91c0,.21-.08.38-.22.51-.15.13-.32.19-.52.17-1.89-.17-3.39-.4-4.48-.7-.35-.09-.52-.32-.52-.67,0-.2.07-.36.2-.5s.3-.2.5-.2c.06,0,.12,0,.18.03,1.24.34,2.65.56,4.21.67.18,0,.33.08.46.22.13.14.19.29.19.47Z"/>
      <path class="cls-1" d="M172.4,124.43c0,.39-.19.62-.57.7-1.47.27-2.9.41-4.27.41s-2.34-.11-3.11-.32c-1.25-.36-1.88-1.03-1.88-2.03,0-.68.44-1.46,1.33-2.35.12-.12.28-.18.46-.18.18,0,.33.06.46.19s.2.28.2.46c0,.17-.06.31-.18.43-.5.5-.76.94-.76,1.3,0,.78,1.19,1.16,3.56,1.16.93,0,2.25-.14,3.95-.43.21-.04.39.01.56.15.17.14.25.31.25.53ZM170.88,117.19c-.7.28-1.65.8-2.86,1.55-.12.08-.23.11-.32.11-.16,0-.3-.06-.41-.17s-.17-.26-.17-.43c0-.21.09-.38.28-.49l.18-.11c.18-.1.27-.21.27-.31,0-.12-.13-.18-.41-.18-.84,0-1.99-.03-3.44-.08-.18,0-.33-.08-.46-.21-.13-.13-.19-.28-.19-.46,0-.2.07-.36.22-.5.14-.13.31-.2.51-.19,1.84.13,4,.14,6.5.04.27,0,.49.06.65.2.16.14.24.31.24.5,0,.33-.2.57-.59.73ZM172.43,119.9c0,.15-.05.28-.16.38s-.24.16-.39.16c-.22,0-.39-.08-.49-.25-.27-.43-.56-.8-.87-1.11-.1-.1-.15-.23-.15-.38,0-.37.18-.56.55-.56.16,0,.3.07.42.21.39.44.72.85.98,1.23.07.11.11.21.11.31ZM174.14,119.11c0,.15-.05.28-.16.38s-.24.16-.39.16c-.21,0-.38-.08-.49-.25-.31-.46-.6-.83-.87-1.13-.1-.11-.15-.23-.15-.35,0-.37.19-.56.56-.56.14,0,.27.07.41.2.33.33.66.74.99,1.25.07.13.1.23.1.31Z"/>
      <path class="cls-1" d="M186,116.74c0,.28-.13.48-.39.6,0,0-.55.21-1.61.62-.3.11-.45.27-.45.46,0,.11.05.23.15.36.66.9,1.35,1.7,2.06,2.41.2.2.29.42.29.66,0,.21-.08.4-.23.55-.15.15-.35.22-.58.22-.15,0-.3-.03-.46-.1-1.13-.5-2.28-.76-3.46-.76-.86,0-1.53.13-2,.39-.48.26-.71.62-.71,1.08,0,1.05,1.14,1.58,3.42,1.58.91,0,1.81-.07,2.72-.2.2-.03.37.03.52.16.15.14.23.31.23.51,0,.17-.06.31-.17.44-.12.13-.25.2-.41.22-.91.12-1.81.18-2.72.18-3.34,0-5.01-.93-5.01-2.8,0-1.02.44-1.76,1.33-2.23.68-.36,1.58-.55,2.7-.55.51,0,1.02.06,1.51.18.16.04.29.06.39.06.2,0,.29-.07.29-.21,0-.11-.06-.24-.17-.38-.36-.43-.62-.76-.78-.99-.31-.42-.67-.63-1.09-.63-.11,0-.24.01-.38.04-1.06.18-2.33.27-3.79.27-.19,0-.34-.07-.48-.2-.13-.13-.2-.29-.2-.48s.07-.35.2-.48c.13-.13.29-.2.48-.2,1.01,0,2.04-.06,3.08-.18.33-.04.49-.18.49-.42,0-.12-.04-.25-.13-.38l-.48-.78c-.07-.11-.1-.23-.1-.35,0-.19.07-.35.2-.48.14-.13.3-.2.48-.2.28,0,.49.12.62.36.32.62.52.98.6,1.09.3.43.62.64.95.64.11,0,.24-.02.38-.06.58-.18,1.16-.4,1.74-.67.09-.05.19-.07.29-.07.19,0,.34.07.48.2.13.13.2.3.2.48ZM187.06,115.94c0,.14-.05.26-.15.36-.1.1-.22.15-.37.15-.2,0-.43-.17-.7-.52-.2-.26-.39-.52-.59-.78-.1-.1-.15-.22-.15-.35,0-.35.18-.53.53-.53.14,0,.27.07.39.2.38.43.7.82.94,1.18.07.09.1.19.1.29ZM188.7,115.17c0,.14-.05.26-.16.36-.11.1-.23.15-.37.15-.21,0-.36-.08-.46-.24-.3-.44-.57-.8-.83-1.08-.09-.1-.14-.21-.14-.34,0-.35.18-.53.53-.53.12,0,.25.07.38.2.34.34.65.73.95,1.18.07.13.1.23.1.29Z"/>
      <path class="cls-1" d="M44.63,138.13c-.82,1.61-1.61,2.42-2.37,2.42-.93,0-1.66-.83-2.17-2.49-.4-1.29-.6-2.75-.6-4.38,0-.84.03-1.56.08-2.17.02-.2.1-.36.23-.49s.3-.2.5-.2c.21,0,.39.08.54.25.14.16.21.35.19.57-.07.62-.1,1.35-.1,2.17,0,1.07.12,2.14.35,3.19.26,1.17.61,1.75,1.04,1.75.31,0,.66-.42,1.05-1.26.12-.25.33-.38.63-.38.2,0,.36.07.5.2s.2.3.2.5c0,.12-.02.23-.07.32ZM50.69,137.69c.03.22-.03.42-.18.6-.15.18-.34.27-.57.27-.2,0-.37-.07-.52-.2-.15-.13-.23-.29-.25-.48-.23-2.12-.92-4-2.06-5.66-.08-.12-.13-.26-.13-.41,0-.21.07-.38.21-.52.14-.14.31-.21.52-.21.25,0,.45.1.6.31,1.29,1.79,2.08,3.89,2.38,6.29Z"/>
      <path class="cls-1" d="M64.27,139.41c0,.2-.07.36-.2.5-.14.14-.3.2-.5.2-.13,0-.25-.03-.36-.1-.93-.55-1.76-.97-2.49-1.25-.09-.04-.18-.06-.25-.06-.27,0-.43.19-.48.56-.07.56-.26.98-.56,1.25-.47.42-1.3.63-2.51.63-.77,0-1.4-.14-1.9-.43-.62-.36-.92-.91-.92-1.62,0-.81.39-1.41,1.16-1.78.58-.28,1.33-.42,2.24-.42.1,0,.26,0,.48.01.49.02.73-.19.73-.62v-.39c0-.47-.24-.7-.71-.69-.99.03-1.94.04-2.86.03-.17,0-.31-.06-.43-.19s-.17-.27-.17-.44.06-.31.19-.43c.13-.12.27-.17.44-.17.91.02,1.86.02,2.84,0,.46,0,.69-.25.69-.71v-.06c0-.48-.24-.7-.73-.69-1.13.05-2.2.06-3.21.03-.17,0-.31-.08-.43-.2-.12-.13-.18-.27-.18-.44,0-.18.07-.33.2-.45.13-.12.28-.18.46-.17,1.04.03,2.11.03,3.19,0,.46,0,.69-.23.69-.67,0-.04,0-.25-.01-.63,0-.19.07-.35.2-.48.13-.13.29-.2.48-.2s.35.07.48.2c.13.14.2.3.2.48v.48c0,.5.24.72.73.67.72-.08,1.5-.17,2.35-.29.19-.03.35.02.5.15.15.13.22.28.22.47,0,.36-.18.56-.55.6-1.01.13-1.86.23-2.56.29-.45.05-.67.29-.67.73v.04c0,.5.24.72.73.67.49-.05,1.18-.13,2.06-.27.19-.03.35.02.5.15.15.13.22.28.22.47,0,.36-.18.57-.53.62-.75.1-1.52.19-2.31.27-.45.04-.67.28-.67.73v.63c0,.51.26.85.77,1.02.95.31,1.99.76,3.12,1.36.24.13.36.34.36.62ZM58.65,138.87c.07-.47-.12-.72-.56-.76-.21-.02-.41-.03-.6-.03-1.34,0-2.02.32-2.02.97,0,.26.13.47.38.63.26.16.6.24,1.02.24.62,0,1.06-.07,1.32-.22.25-.14.41-.42.46-.83Z"/>
      <path class="cls-1" d="M78.34,137.33c0,.13-.04.26-.11.38-.63,1.04-1.4,1.86-2.28,2.48-1,.68-2.06,1.02-3.18,1.02-2.46,0-3.68-1.11-3.68-3.33,0-.9.02-2.09.06-3.57.03-1.19.05-2.49.07-3.89,0-.2.07-.37.22-.51.15-.14.32-.22.52-.22s.38.08.53.22c.15.15.22.33.21.53l-.17,7.13c0,1.47.77,2.2,2.32,2.2.83,0,1.63-.29,2.39-.88.65-.49,1.23-1.13,1.72-1.95.14-.23.35-.35.63-.35.21,0,.38.07.52.22.14.14.22.32.22.52Z"/>
      <path class="cls-1" d="M88.52,132.62c-.68.13-1.37.24-2.07.32-.38.05-.66.14-.83.29-.17.15-.3.41-.39.77-.52,2.21-1.17,4.33-1.95,6.37-.12.31-.35.46-.69.46-.21,0-.38-.07-.52-.22-.14-.14-.21-.31-.21-.51,0-.09.02-.19.06-.28.79-1.88,1.44-3.86,1.95-5.96.02-.07.03-.14.03-.21,0-.33-.2-.48-.59-.48-.39,0-.75,0-1.08,0-.19,0-.35-.08-.48-.22-.14-.14-.2-.3-.2-.48,0-.2.07-.36.22-.5.14-.14.31-.21.51-.2.53.02.96.02,1.29.01.52-.02.82-.28.9-.77.03-.21.07-.51.14-.92s.3-.61.71-.61c.2,0,.36.07.5.21.14.14.21.3.21.49,0,.09-.04.33-.11.7,0,.07-.01.13-.01.18,0,.37.21.53.62.46.06,0,.38-.08.98-.2.45-.08.76-.13.92-.13.2,0,.36.07.48.21s.19.31.19.5c0,.38-.19.61-.57.69ZM92.94,139.99c0,.4-.2.63-.59.69-.89.13-1.82.2-2.8.2-2.48,0-3.72-.69-3.72-2.09,0-.32.08-.68.24-1.09.11-.28.32-.42.63-.42.44,0,.66.22.66.67,0,.08-.01.18-.04.32-.03.13-.04.24-.04.31,0,.63.8.95,2.39.95.7,0,1.53-.07,2.49-.21.21-.03.39.03.55.16.16.14.24.31.24.51ZM92.55,134.78c0,.2-.08.36-.22.5-.15.14-.32.21-.52.2-1.39-.07-2.88-.04-4.47.1-.2.02-.37-.04-.51-.17-.14-.13-.22-.3-.22-.5,0-.18.06-.33.17-.46s.26-.2.43-.22c1.58-.16,3.13-.21,4.65-.17.19,0,.35.08.48.22.14.14.2.3.2.49Z"/>
      <path class="cls-1" d="M99.07,139.69c0,.57-.2,1.05-.6,1.45s-.89.59-1.46.59-1.05-.2-1.45-.59c-.4-.4-.6-.88-.6-1.45s.2-1.05.6-1.46c.4-.4.88-.6,1.45-.6s1.05.2,1.46.6.6.89.6,1.46ZM98.08,139.69c0-.3-.1-.55-.31-.76-.21-.21-.46-.31-.76-.31s-.54.1-.74.31c-.21.21-.31.46-.31.75s.1.53.31.74c.21.2.45.3.74.3s.55-.1.76-.29c.21-.2.31-.44.31-.74Z"/>
    </g>
    <g>
      <path class="cls-1" d="M140.09,159.77c0,1.14-.31,2.07-.94,2.81s-1.5,1.18-2.62,1.34c-.43.07-.82.3-1.16.7-.58.68-1.42,1.24-2.53,1.67-.08.03-.15.04-.24.04-.17,0-.32-.06-.45-.19-.13-.13-.2-.28-.2-.47,0-.31.14-.51.42-.62.53-.2.98-.44,1.36-.73.15-.11.22-.24.22-.38,0-.19-.13-.35-.39-.5-.45-.27-.83-.63-1.13-1.09-.07-.11-.11-.23-.11-.36,0-.42.21-.63.62-.63.23,0,.41.09.52.27.34.55.69.83,1.02.83.27,0,.42-.17.46-.52.05-.45.07-.88.07-1.3,0-.77-.01-1.51-.04-2.2-.02-.5-.21-.76-.56-.76-.11,0-.24.03-.38.08-.79.31-1.52.89-2.18,1.75-.63.81-1.09,1.74-1.36,2.79-.08.29-.11.64-.11,1.06,0,.2-.07.37-.2.52s-.29.22-.49.22-.34-.06-.48-.19-.2-.28-.21-.47c-.1-2.75-.06-5.25.13-7.5.02-.19.1-.34.23-.46.13-.12.3-.18.48-.18.21,0,.38.08.52.24.14.16.2.34.17.55-.1.85-.17,1.72-.21,2.6,0,.28.06.42.21.42.11,0,.23-.09.35-.27.85-1.26,1.92-2.08,3.21-2.46.49-.14.72-.42.7-.83v-.32c-.02-.21.04-.38.17-.54.13-.15.31-.23.53-.23.19,0,.35.06.49.19.14.13.21.28.22.47v.28c.03.42.27.65.71.7.91.1,1.64.44,2.2,1.01.66.67.99,1.56.99,2.67ZM138.72,159.83c0-1.29-.56-2.08-1.67-2.38-.08-.02-.15-.03-.21-.03-.36,0-.54.23-.53.7.02.91.03,1.65.03,2.23,0,.68-.02,1.2-.06,1.54-.05.41.09.62.41.62.07,0,.15-.01.24-.04,1.19-.42,1.79-1.3,1.79-2.63Z"/>
      <path class="cls-1" d="M154.13,161.01c0,2.68-1.53,4.29-4.58,4.83-.21.04-.4-.01-.57-.15-.16-.14-.25-.31-.25-.52,0-.38.18-.61.55-.67,2.29-.44,3.43-1.61,3.43-3.5,0-1.61-.66-2.61-1.99-2.98-.13-.04-.25-.06-.35-.06h-.01c-.31,0-.51.19-.6.53-.45,1.64-.98,3.02-1.58,4.13-.96,1.75-2.03,2.63-3.19,2.63-.7,0-1.27-.28-1.7-.85-.43-.57-.65-1.29-.65-2.16,0-1.36.48-2.56,1.44-3.6.29-.31.43-.62.43-.94,0-.12-.02-.25-.06-.38-.14-.56-.24-1.01-.29-1.34-.04-.21.01-.39.15-.55.14-.16.31-.25.51-.25.37,0,.59.19.66.57.04.21.09.5.15.87.07.31.22.46.46.46.1,0,.21-.02.34-.07.58-.23,1.13-.39,1.65-.46.52-.08.81-.31.88-.7.02-.15.05-.36.1-.64.07-.4.3-.6.7-.6.21,0,.39.09.53.26.14.17.19.37.15.58l-.07.39c0,.07-.01.13-.01.2,0,.33.19.54.57.63,1.06.26,1.87.78,2.41,1.55.53.74.8,1.67.8,2.79ZM145.86,163.48c.22-.21.34-.45.34-.71,0-.18-.05-.38-.15-.62-.26-.58-.51-1.21-.74-1.9-.08-.25-.22-.38-.41-.38-.13,0-.25.08-.35.24-.4.62-.6,1.33-.6,2.11,0,.45.1.84.29,1.16.21.36.49.53.83.53.22,0,.49-.14.8-.43ZM148.38,158.47c.02-.06.03-.13.03-.2,0-.33-.19-.46-.56-.39-.4.07-.81.2-1.22.41-.28.13-.42.34-.42.62,0,.08.02.18.06.29.18.58.36,1.11.56,1.6.11.27.25.41.42.41.13,0,.23-.08.29-.24.33-.74.61-1.57.84-2.49Z"/>
      <path class="cls-1" d="M168.16,160.4c0,2.85-1.44,4.59-4.33,5.22-.03,0-.08.01-.15.01-.19,0-.35-.06-.48-.2-.13-.13-.2-.29-.2-.49,0-.37.17-.6.5-.69,2.16-.54,3.23-1.84,3.23-3.89,0-1.07-.29-1.93-.87-2.58-.21-.24-.48-.46-.8-.64-.36-.21-.69-.31-.98-.31-.4,0-.64.23-.73.7-.35,2.04-.77,3.67-1.26,4.91-.31.78-.61,1.37-.91,1.76-.48.61-1.03.91-1.67.91-.85,0-1.53-.42-2.04-1.27-.45-.73-.67-1.54-.67-2.44,0-1.74.58-3.17,1.73-4.31,1.15-1.14,2.6-1.71,4.33-1.71,1.63,0,2.91.42,3.84,1.26.97.88,1.46,2.12,1.46,3.74ZM161.93,157.59c0-.07.01-.13.01-.2,0-.34-.16-.52-.48-.52-.11,0-.23.02-.36.07-.86.3-1.56.86-2.1,1.67-.54.82-.81,1.75-.81,2.81,0,.58.14,1.09.41,1.53s.57.67.91.67c.4,0,.83-.56,1.29-1.69.38-.95.76-2.4,1.13-4.34Z"/>
    </g>
  </g>
</svg>