<?xml version="1.0" encoding="UTF-8"?>
<svg id="ai_L" xmlns="http://www.w3.org/2000/svg" viewBox="0 0 291.25 283.13">
  <defs>
    <style>
      .cls-1, .cls-2, .cls-3, .cls-4, .cls-5, .cls-6, .cls-7, .cls-8, .cls-9 {
        stroke: #707070;
      }

      .cls-1, .cls-2, .cls-3, .cls-6 {
        fill: none;
      }

      .cls-1, .cls-3, .cls-4, .cls-8 {
        stroke-width: 3px;
      }

      .cls-1, .cls-4, .cls-5, .cls-7, .cls-8 {
        stroke-miterlimit: 10;
      }

      .cls-2 {
        stroke-width: 4px;
      }

      .cls-2, .cls-3, .cls-6, .cls-9 {
        stroke-linecap: round;
        stroke-linejoin: round;
      }

      .cls-4, .cls-10 {
        fill: #ffcfcf;
      }

      .cls-5 {
        fill: #707070;
      }

      .cls-5, .cls-6, .cls-7, .cls-9 {
        stroke-width: 5px;
      }

      .cls-11 {
        fill: #fff;
      }

      .cls-7, .cls-9 {
        fill: #fff9e1;
      }

      .cls-8, .cls-12 {
        fill: #ffbc5a;
      }
    </style>
  </defs>
  <path class="cls-9" d="M215.88,200.98c-57.27,55.32-155.4,15.29-184.19-41.29,29.12-4.51,14.6-43.49,38.76-80.96,55.46-83.27,196.89-17.77,165.99,84.49"/>
  <path class="cls-3" d="M149.11,112.56c1.56-1.27,14.24-2.27,18.84.95,0,0-13.16,6.27-13.55,7.83"/>
  <path class="cls-7" d="M249.28,175.15s23.67,7.53-1.35,22.85l1.35-22.85Z"/>
  <polygon class="cls-12" points="245.13 175.72 245.66 212.32 219.35 213.89 213.65 177.33 245.13 175.72"/>
  <rect class="cls-11" x="214.41" y="164.47" width="33.04" height="11.96" transform="translate(-10.53 15.28) rotate(-3.7)"/>
  <path class="cls-2" d="M248.51,164.11s-34.84,1.71-36.59,2.11c1.41,9.01,5.95,38.2,7.43,47.67l26.31-1.57,2.85-48.21Z"/>
  <path class="cls-6" d="M124.86,241.93c-.92-.78-5.62-7.26-6.49-17.19"/>
  <path class="cls-6" d="M176.5,226.67s7.75,11.53,10.97,15.23"/>
  <path class="cls-5" d="M212.01,113.4c.85-3.63,6.54-2.22,5.58,1.39-.85,3.63-6.54,2.22-5.58-1.39Z"/>
  <path class="cls-4" d="M203.66,140.01l-.7,9.82-18.52-2.69c-.75-2.07-1.88-12.37-1.88-12.37l21.09,5.24Z"/>
  <path class="cls-8" d="M182.33,147.43s16.27-2.09,21.48,5.33c5.21,7.42-29.49.23-21.48-5.33Z"/>
  <path class="cls-8" d="M178.08,131.12c-1.23-.55-1.27-2.28-.05-2.87,15.83-7.6,28.39-2.5,39.59,8.33-1.84,3.04-15.11,3.77-27.96-.28,0,0-11.57-5.18-11.57-5.18Z"/>
  <polyline class="cls-1" points="208.2 138.74 220.47 149.43 227.21 195.89"/>
  <path class="cls-10" d="M102.75,158.55l18.94,19.88-9.45,1.35s-22.23-8.65-20.2-10.96,10.71-10.27,10.71-10.27Z"/>
  <path class="cls-1" d="M106.5,154.88s-5.98,11.45,6.11,9.52c0,0-5.46,8.63,6.15,6.96,0,0-4.09,8.11,6.01,6.29"/>
  <path class="cls-6" d="M123.11,145.49c-1.27.1-23.3,12.04-28.37,19.07-5.06,7.03,19.93,14.9,19.93,14.9l25.17-4.53"/>
</svg>