<?xml version="1.0" encoding="UTF-8"?>
<svg id="amu_L" xmlns="http://www.w3.org/2000/svg" viewBox="0 0 291.25 283.13">
  <defs>
    <style>
      .cls-1, .cls-2, .cls-3, .cls-4, .cls-5 {
        stroke: #707070;
      }

      .cls-1, .cls-3 {
        fill: none;
      }

      .cls-1, .cls-3, .cls-5 {
        stroke-linecap: round;
        stroke-linejoin: round;
      }

      .cls-1, .cls-4 {
        stroke-width: 3px;
      }

      .cls-2 {
        fill: #707070;
      }

      .cls-2, .cls-3, .cls-5 {
        stroke-width: 5px;
      }

      .cls-2, .cls-4 {
        stroke-miterlimit: 10;
      }

      .cls-4 {
        fill: #ffbc5a;
      }

      .cls-5 {
        fill: #fff9e1;
      }
    </style>
  </defs>
  <path class="cls-5" d="M252.07,155.86c-15.6,42.66-67.45,83.05-136.54,71.21-61.4-7.62-73.8-40.88-76.81-80.54C34.27,56.51,114.15,9.27,191.23,52.75c49.7,34.05,21.98,93.86,60.84,103.11Z"/>
  <path class="cls-3" d="M110.69,229.21s2.63,6.15,2.1,14.61"/>
  <path class="cls-3" d="M168.04,227.5c.33,2.47.12,12.56-7.61,19"/>
  <path class="cls-1" d="M113.34,60.69s-4.74,23.5-26.87,21.34"/>
  <path class="cls-1" d="M149.42,61.58c-.26.84.23,32.42-45.86,17.99"/>
  <path class="cls-1" d="M138.16,62.14s-2.62,18.6-26.1,14.8"/>
  <circle class="cls-2" cx="151.05" cy="118.92" r="2.81"/>
  <circle class="cls-2" cx="87.56" cy="119.03" r="2.81"/>
  <path class="cls-4" d="M100.96,127.42c3.06-1.02,6.31-1.25,9.48-.65,6.4,1.21,17.29,3.82,25.61,8.61,12.57,7.24-25.5,7.89-29.04,7.37s-6.6-5.68-8.69-6.88-6.8-5.95-2.15-7.06c1.72-.41,3.38-.92,4.79-1.39Z"/>
  <path class="cls-3" d="M180.56,138.89s-22.16-3.09-29.6,5.1c-7.44,8.19.46,3.53,10.74,10.68s8.93,11.82,18.82,13.47"/>
  <path class="cls-3" d="M53.27,134.09s5.5-3.86,16.29,3.14c10.79,7,16.96,7.12,15.82,9.38-7.43,9.08-20.61,14.81-32.19,10.86"/>
</svg>