<?xml version="1.0" encoding="UTF-8"?>
<svg id="_レイヤー_18" data-name="レイヤー 18" xmlns="http://www.w3.org/2000/svg" viewBox="0 0 291.25 283.13">
  <defs>
    <style>
      .cls-1 {
        stroke-width: 4px;
      }

      .cls-1, .cls-2, .cls-3, .cls-4, .cls-5, .cls-6, .cls-7 {
        stroke-linecap: round;
        stroke-linejoin: round;
      }

      .cls-1, .cls-2, .cls-3, .cls-4, .cls-5, .cls-6, .cls-7, .cls-8 {
        stroke: #707070;
      }

      .cls-1, .cls-3, .cls-4, .cls-5 {
        fill: none;
      }

      .cls-2 {
        fill: #ddd;
      }

      .cls-2, .cls-5, .cls-7 {
        stroke-width: 5px;
      }

      .cls-9, .cls-8 {
        fill: #fff9e1;
      }

      .cls-3, .cls-6 {
        stroke-width: 3px;
      }

      .cls-4 {
        stroke-width: .5px;
      }

      .cls-6 {
        fill: #ffbc5a;
      }

      .cls-7 {
        fill: #ffcfcf;
      }

      .cls-8 {
        stroke-miterlimit: 10;
      }
    </style>
  </defs>
  <path class="cls-8" d="M64.47,30.89l24.98,10.12-11.25,25.57s-7.02,15.14-17.94,10.14-8.39-21.87-8.39-21.87l12.6-23.96Z"/>
  <path class="cls-1" d="M70.78,15.57l26.33,11.73-17.38,39.5s-9.99,14.33-20.07,9.84c-10.08-4.49-6.25-21.57-6.25-21.57l17.38-39.5Z"/>
  <polygon class="cls-1" points="45.98 107.73 29.22 110.03 55.55 121.77 45.98 107.73"/>
  <line class="cls-3" x1="59.66" y1="76.64" x2="45.98" y2="107.73"/>
  <path class="cls-9" d="M257.03,193.99C327.49,46.86,118.72-18.68,70.54,116.64c-19.43,96.34,37.95,94.52,80.89,124.61,49.2,15.16,77.69-19.2,77.69-19.2"/>
  <path class="cls-9" d="M251.72,180.39s5.87,43.14,10.57,51c4.7,7.87-20.93,2.87-27.74-6.7-6.81-9.57-9.18-13.66-9.18-13.66"/>
  <path class="cls-9" d="M86.17,84.61s-19.51,5.81-27.95,2.97c-8.44-2.84-5.25,9.05-5.25,9.05l15.35,17.24"/>
  <path class="cls-5" d="M95.26,209.9c-65.38-46.08-13.52-172.84,74.35-166.21,73,4.72,128.47,50.97,87.41,150.3"/>
  <path class="cls-5" d="M251.72,180.39s5.87,43.14,10.57,51c4.7,7.87-20.93,2.87-27.74-6.7-6.81-9.57-9.18-13.66-9.18-13.66"/>
  <path class="cls-5" d="M151.44,241.25c49.2,15.17,77.68-19.2,77.68-19.2"/>
  <path class="cls-5" d="M86.17,84.61s-19.51,5.81-27.95,2.97c-8.44-2.84-5.25,9.05-5.25,9.05l15.35,17.24"/>
  <path class="cls-2" d="M48.94,201.96c-2.01-.62-24.48-28.5-28.24-51.7-3.75-23.2,29.19-15.98,34.63-1.11,5.44,14.87-1.17,25.48-4.25,28.82-3.08,3.33,6.78,15.11,6.78,15.11,0,0,.84,11.92-8.92,8.89Z"/>
  <path class="cls-5" d="M51.38,183.14s10.94,3.24,18.92-2.39"/>
  <path class="cls-3" d="M131.91,86.52s11.55,7.78,6.81,15.58"/>
  <path class="cls-3" d="M200.64,127.69c-.94-.87-8.03-6.9-22.45-5.35"/>
  <path class="cls-6" d="M131.73,113.14c10.31-3.17,34.28,10.67,38.89,24.82,3.82,9.03-10.23-7.5-37.63-6.95,0,0-8.67-14.94-1.26-17.88Z"/>
  <path class="cls-2" d="M103.6,205.46s22.89-13.51,33.74-3.81c22.41,20.02,5.59,27.07,7.66,39.72,2.07,12.65,6.23,16.71-.92,21.91-7.14,5.19-11.09,2.97-11.09,2.97"/>
  <path class="cls-7" d="M133,266.24c-5.34-1.66-16.88-12.6-17.38-17.05-.5-4.45-19.22-19.53-15.8-34.92,3.41-15.4,11.25-7.49,19.28,2.98,8.98,11.69,6.31,30.74,15.2,41.06,7.56,8.78-1.3,7.93-1.3,7.93Z"/>
  <ellipse class="cls-4" cx="68.79" cy="40.8" rx="1.85" ry="1.86"/>
  <ellipse class="cls-4" cx="66.6" cy="56.53" rx="1.85" ry="1.86"/>
  <ellipse class="cls-4" cx="60.8" cy="62.99" rx="1.85" ry="1.86"/>
</svg>