<?xml version="1.0" encoding="UTF-8"?>
<svg id="ayumi_L" xmlns="http://www.w3.org/2000/svg" viewBox="0 0 291.25 283.13">
  <defs>
    <style>
      .cls-1 {
        fill: #fff9e1;
      }

      .cls-2 {
        fill: #707070;
        stroke-miterlimit: 10;
      }

      .cls-2, .cls-3, .cls-4, .cls-5, .cls-6, .cls-7, .cls-8 {
        stroke: #707070;
      }

      .cls-2, .cls-3, .cls-6, .cls-8 {
        stroke-width: 5px;
      }

      .cls-3, .cls-4, .cls-5, .cls-6, .cls-7, .cls-8 {
        stroke-linecap: round;
        stroke-linejoin: round;
      }

      .cls-3, .cls-7 {
        fill: none;
      }

      .cls-4 {
        fill: #ffbc5a;
      }

      .cls-4, .cls-5 {
        stroke-width: 3px;
      }

      .cls-5, .cls-8 {
        fill: #ffcfcf;
      }

      .cls-6 {
        fill: #fff;
      }
    </style>
  </defs>
  <path class="cls-1" d="M238.48,159.22c-.57,26.13,18.18,26.13,18.18,26.13-1.7.57-59.07,47.71-77.25,51.12-61.92,7.84-123.49,3.22-134.61-77.82,0,0-21.58-9.66-21.02-35.22,0,0,21.58,6.82,26.13,3.41,0,0,13.63-65.89,66.46-71.57,59.05,5.15,79.48-25.27,118.14,64.18"/>
  <path class="cls-1" d="M222,119.46s18.18,4.54,38.06-3.98c19.88-8.52-11.36,30.1-13.06,32.94-.09.15-16.47,10.79-16.47,10.79"/>
  <path class="cls-3" d="M117.11,55.18c-52.82,5.68-66.46,71.57-66.46,71.57-4.54,3.41-26.13-3.41-26.13-3.41-.57,25.56,21.02,35.22,21.02,35.22,11.17,81.11,72.72,85.63,134.62,77.81,18.17-3.41,75.54-50.55,77.25-51.12,0,0-18.74,0-18.18-26.13"/>
  <path class="cls-3" d="M185.27,55.18c1.7,2.27,30.67,10.22,49.98,64.18"/>
  <path class="cls-3" d="M222.76,119.36s18.18,4.54,38.06-3.98c19.88-8.52-11.36,30.1-13.06,32.94-.09.15-16.47,10.79-16.47,10.79"/>
  <path class="cls-3" d="M99.51,238.53c-4.54,10.34-9.66,14.32-12.5,16.59"/>
  <path class="cls-3" d="M182.43,238.53s-1.14,12.05,2.84,19.43"/>
  <path class="cls-6" d="M177.98,55.18c-10.49,17.73-33.89,7.64-50.08,8.23-18.4-12.76-5.69-11.58-11.2-19.97l10.68-2.59,33.28,2.59c4.68-.27,13.83,9.35,17.32,11.74Z"/>
  <path class="cls-8" d="M103.1,44.2s7.19-13.63,18.93-18.18c7.72-4.53,75.45.15,63.24,29.16,0,0-5.3,2.65-5.3,2.65-8.3-17.05-44.61-17.25-56.8-17.13-3.99,1.36-18.74,9.39-20.07,3.5Z"/>
  <path class="cls-5" d="M118.64,145.78c1.99-3.67-2.41-25.81-2.41-25.81l10.16,2.46,23.22-2.46c-.11.02-1.87,21.22-.85,25.81h-30.11Z"/>
  <line class="cls-7" x1="147.34" y1="26.78" x2="128.47" y2="34.35"/>
  <path class="cls-7" d="M167.48,32.08c-2.21,0-14.39,5.68-14.39,5.68"/>
  <path class="cls-7" d="M183.54,39.72c-4.32,1.45-10.76,3.72-10.76,3.72"/>
  <path class="cls-7" d="M127.34,47.37s-3.03,2.38,1.14,3.64"/>
  <path class="cls-7" d="M133.61,51.07s-1.31,2.45,2.33,2.74"/>
  <path class="cls-7" d="M166.88,56.23c-.83,2.96-4.03,3.49-3.31-.19"/>
  <path class="cls-2" d="M101.79,100.62c.69-3.31,5.87-2.14,5.08,1.14-.69,3.31-5.87,2.14-5.08-1.14Z"/>
  <path class="cls-2" d="M162.59,103.22c.69-3.31,5.87-2.14,5.08,1.14-.69,3.31-5.87,2.14-5.08-1.14Z"/>
  <path class="cls-4" d="M121.09,108.29c3.36,4.22-20.19,6.85-11.93,9.66,4.83,2.27,17.11,4.83,17.11,4.83,0,0,27.48-2.56,28.61-3.41,1.14-.85,2.27-4.54-6.25-8.8-8.52-4.26-27.55-2.27-27.55-2.27Z"/>
  <path class="cls-4" d="M148.75,145.78c11.32,13.61-33.18,4.96-29.75,5.8-14.29-14.34,31.65-4.65,29.75-5.8Z"/>
</svg>