<?xml version="1.0" encoding="UTF-8"?>
<svg id="azusa_L" xmlns="http://www.w3.org/2000/svg" viewBox="0 0 291.25 283.13">
  <defs>
    <style>
      .cls-1, .cls-2, .cls-3, .cls-4, .cls-5, .cls-6 {
        stroke: #707070;
      }

      .cls-1, .cls-3, .cls-4, .cls-5, .cls-6 {
        stroke-linecap: round;
        stroke-linejoin: round;
      }

      .cls-1, .cls-3, .cls-5 {
        stroke-width: 3px;
      }

      .cls-1, .cls-4 {
        fill: none;
      }

      .cls-2 {
        stroke-miterlimit: 10;
      }

      .cls-2, .cls-4, .cls-6 {
        stroke-width: 5px;
      }

      .cls-3, .cls-6 {
        fill: #fff9e1;
      }

      .cls-5 {
        fill: #ffbc5a;
      }
    </style>
  </defs>
  <path class="cls-6" d="M62.65,144.08c-1.54-3.47,8.48-9.26,11.18-15.81,2.7-6.56,8.87-38.18.39-29.31-17.5,17.62-34.22,24.82-31.24,48.59l19.67,21.98c16.67,79.33,169.16,60.52,207.47,25.07-8.24-2.41-14.43-7.82-17.11-12.13l7.16-8.8-10.1-6.07c13.28-62.73-6.86-136.55-93.53-128.4-51.39,3.38-65.38,28.37-80.38,53.21"/>
  <path class="cls-4" d="M226.54,145.24c0,1.16,16.97,21.21,29.31,25.07,17.1,6.7-25.19,23.09-40.49,12.34"/>
  <path class="cls-5" d="M105.19,130.91l14.12-2.64c3.65-.39,22.95,4.73,24.71,12.25-8.72-.24-22.65,9.52-35.69,1.57-9.41-6.6-3.14-11.18-3.14-11.18Z"/>
  <path class="cls-4" d="M130.52,223.96s2.7,9.35-6.94,19.62"/>
  <path class="cls-4" d="M189.14,223.96c0,1.23,2.7,14.06,0,19.62"/>
  <path class="cls-2" d="M97.7,111.28c.73-3.5,6.21-2.27,5.38,1.21-.73,3.5-6.21,2.27-5.38-1.21Z"/>
  <path class="cls-2" d="M162.1,116.29c.73-3.5,6.21-2.27,5.38,1.21-.73,3.5-6.21,2.27-5.38-1.21Z"/>
  <path class="cls-3" d="M40.15,45.91c2.39,10.53,9.14,19.74,19.03,24.31-9.89,4.57-16.64,13.78-19.03,24.31-2.39-10.53-9.14-19.74-19.03-24.31,9.89-4.57,16.64-13.78,19.03-24.31Z"/>
  <path class="cls-1" d="M142.48,115.99c-.36-20.09,39.93-18.09,46.66-6.05,8.94,25.85-45.56,32.51-46.66,6.05Z"/>
  <path class="cls-1" d="M81.16,103.22c1.16-.7,7.33-5.99,10.03-5.81s21.47-.38,25.07,9.33c3.47,9.38,3.09,11.27-3.86,15.85-14,8.5-27.17,6.26-32.78-4.58"/>
  <path class="cls-1" d="M120.11,114.64c1.9-2.12,20.3,1.32,20.44,2.26"/>
</svg>