<?xml version="1.0" encoding="UTF-8"?>
<svg id="eri_L" xmlns="http://www.w3.org/2000/svg" viewBox="0 0 291.25 283.13">
  <defs>
    <style>
      .cls-1, .cls-2 {
        fill: none;
      }

      .cls-1, .cls-2, .cls-3, .cls-4, .cls-5 {
        stroke: #707070;
        stroke-linecap: round;
        stroke-linejoin: round;
      }

      .cls-1, .cls-3 {
        stroke-width: 3px;
      }

      .cls-2, .cls-4, .cls-5 {
        stroke-width: 5px;
      }

      .cls-3 {
        fill: #ffbc5a;
      }

      .cls-4 {
        fill: #ffcfcf;
      }

      .cls-5 {
        fill: #fff9e1;
      }
    </style>
  </defs>
  <path class="cls-4" d="M225.96,84.75c9.39-10.42-16.53-30.12-16.53-30.12l-4.15,1.86,11.7-11.37-8.59-5.47s-11.62,9.68-11.56,8.15c1.68-2.47-95.06-36.81-65.92,9.18"/>
  <path class="cls-5" d="M56.06,127.33s-13.39,1.45-22.91-6.09c-4.71-3.73,1.24,26.2,8.09,32.61s14.67,9.61,14.67,9.61l.15-36.12Z"/>
  <path class="cls-5" d="M128.35,55.78c-52.21,8.26-92.86,87.55-64.28,135.39,7.01,10.95,31.62,32.15,60.37,32.99,27.4,2.35,60.93,7.68,85-5.63,25.05-13.85,49.72-63.36,49.72-63.36-40.1,6.74,4.45-34.53-41.03-79.19-16.4,1.7-76.53-8.45-89.77-20.2Z"/>
  <path class="cls-2" d="M113.64,239.84c6.08-1.43,7.39-15.97,7.39-15.97"/>
  <path class="cls-2" d="M166.62,249.04c9.34-4.01,7.72-19.4,7.72-19.4"/>
  <path class="cls-3" d="M124.98,141.28s-14.98,4.44-33.2,1.87c7.78-3.91,7.41-16.67,26.66-13.61,9.74,1.43,7.14,3.46,15.17,6.18s-2.95,3.52-2.95,3.52"/>
  <path class="cls-1" d="M98.91,119.77s-9.68-5.84-18.47,3.23"/>
  <path class="cls-1" d="M132.47,117.07c3.79-7.35,20.09-4.71,27.45,1.19"/>
  <path class="cls-1" d="M33.2,86.35s11.18-30.75,42.2-41.28"/>
  <line class="cls-1" x1="32.1" y1="64.74" x2="51.38" y2="82.05"/>
  <path class="cls-2" d="M175.03,137.6c-1.02-.04-8.39-1.23-14.03,2.45-5.63,3.67-31.58.14-35.31-.02-2.88,14.96,22.37,34.15,44.18,30.29"/>
  <path class="cls-1" d="M55.35,41.57c.81.96,6.66,24.48,6.66,24.48"/>
  <path class="cls-3" d="M124.58,150.42s-19.84.5-23.7,3.38c-3.86,2.89,1.95,4.84,11.58,4.58,9.62-.26,16.21-3.46,16.21-3.46"/>
</svg>