<?xml version="1.0" encoding="UTF-8"?>
<svg id="erika_L" xmlns="http://www.w3.org/2000/svg" viewBox="0 0 291.25 283.13">
  <defs>
    <style>
      .cls-1, .cls-2, .cls-3, .cls-4, .cls-5, .cls-6 {
        stroke: #707070;
      }

      .cls-1, .cls-3 {
        fill: none;
      }

      .cls-1, .cls-3, .cls-4, .cls-5, .cls-6, .cls-7 {
        stroke-linecap: round;
        stroke-linejoin: round;
      }

      .cls-1, .cls-5 {
        stroke-width: 3px;
      }

      .cls-2 {
        stroke-miterlimit: 10;
      }

      .cls-2, .cls-3, .cls-4, .cls-6, .cls-7 {
        stroke-width: 5px;
      }

      .cls-8, .cls-6 {
        fill: #fff;
      }

      .cls-5 {
        fill: #ffbc5a;
      }

      .cls-7 {
        fill: #fff9e1;
        stroke: #fff9e1;
      }
    </style>
  </defs>
  <path class="cls-7" d="M20.66,133.39s7.11-27.98,11.83-30.07,146.08-2.41,149.83-1.58,11.18,13.62,9.6,17.1c68.47,156.1-214.41,143.91-171.26,14.55Z"/>
  <path class="cls-8" d="M18.62,132.11l-5.37,25.68,7.67,35.4c35.78,13.43,87.85,31.19,162.5,12.11,22.41-4.95,24.72-75.67,20.68-76.9,0,0-11.31-9.7-11.31-9.7-31.32,37.94-117.23,41.27-174.16,13.42Z"/>
  <path class="cls-6" d="M34.17,98.6c.19-4.91.54-30.58,14.01-31.57,15.83-11.37,8.15-25.94,40.84-34.1,35.93-8.08,72.77,4.75,83.97,37.2,10.63-3.15,17.32,22.32,15.07,28.57-1.87,3.8-16.25,5.5-26.27,4.04-14.79.87-40.89.97-61.71-1.29,0,0-26.83,2.52-34.27.62,0,0-26.19,3.32-31.64-3.46Z"/>
  <path class="cls-6" d="M206.08,142.39s9.56,9.6,26.99,51.44c19.12,45.88,17.6,44.15,33.78,49.19,16.18,5.04,10.04,8.02,10.04,8.02-34.5,2.66-75.5,7.9-97.35-34.61"/>
  <path class="cls-3" d="M187.64,104.47s4.15,6.68,5.14,14.23c0,0,13.81,6.77,12.51,15.35-1.3,8.59,1.33,24.52-5.5,50.33-11.02,64.51-146.78,58.08-170.76,14.43l-8.12-5.62s-11.72-35.84-6.49-37.09c-.74-4.42-2.35-23.04,7.22-26.13,0,0,2.96-20.37,13.67-28.5"/>
  <path class="cls-5" d="M87.4,137.52l7.06-4.68c1.99-8.18,25.95-10.78,32.74-3.33,3.88,4.43,10.47,7.32,10.47,7.32,10.27,1.57-33.31,14.78-50.28.7Z"/>
  <path class="cls-2" d="M73.96,127.37c1.04-3.19,6.03-1.48,4.89,1.68-1.04,3.19-6.02,1.48-4.89-1.68Z"/>
  <path class="cls-2" d="M146.31,127.93c1.04-3.19,6.03-1.48,4.89,1.68-1.04,3.19-6.02,1.48-4.89-1.68Z"/>
  <path class="cls-4" d="M90.47,232.45c1.68,1.28,7.97,11.79,7.64,19.03"/>
  <path class="cls-4" d="M137.49,231.77s-7.35,9.75-4.69,19.13"/>
  <path class="cls-1" d="M115.3,151.86c-40.86-2.29-91.41-15.82-92.73-16.99"/>
  <path class="cls-1" d="M189.69,123.61s-25.04,26-98.07,31.84c-73.04,5.83-72.25-1.35-71.21-.87"/>
  <path class="cls-1" d="M36.97,196.04c27.38,13.5,140.3,3.35,160.7-32.26"/>
  <path class="cls-1" d="M191.8,187.51c1.15-1.67-7.73,7.93-50.2,6.65"/>
  <path class="cls-1" d="M49.28,199.89c36.83,14.82,111.86,18.3,143-.18"/>
  <path class="cls-1" d="M57.82,78.63c-.52,1.4-1.9,10.71.9,15.02"/>
  <path class="cls-1" d="M89.77,79.21c-1.24,1.32-1.34,12.22,2.38,14.81"/>
  <path class="cls-1" d="M125.56,78.03s3.13,11.26,1.2,15.59"/>
  <path class="cls-1" d="M156.89,78.19c1.08.12,4.77,13.72,2.62,13.49"/>
  <path class="cls-1" d="M63.71,67.99s55.13-5.61,83.5-.32c28.37,5.29,17.66,3.39,17.66,3.39"/>
  <path class="cls-1" d="M85.21,47.79s-2.43,2.28-.51,4.67"/>
  <path class="cls-1" d="M95.06,47.37s-.86,4.67,1.5,6.39"/>
  <path class="cls-1" d="M232.68,226.18s.38,19.51,14,23.36"/>
  <path class="cls-1" d="M216.4,232.04c-1.36,2.3,1.56,15.37,10.66,16.81"/>
</svg>