<?xml version="1.0" encoding="UTF-8"?>
<svg id="hiroko_L" xmlns="http://www.w3.org/2000/svg" viewBox="0 0 291.25 283.13">
  <defs>
    <style>
      .cls-1, .cls-2 {
        fill: none;
      }

      .cls-1, .cls-2, .cls-3, .cls-4, .cls-5 {
        stroke: #707070;
        stroke-linecap: round;
        stroke-linejoin: round;
      }

      .cls-1, .cls-3 {
        stroke-width: 3px;
      }

      .cls-2, .cls-5 {
        stroke-width: 5px;
      }

      .cls-3 {
        fill: #ffbc5a;
      }

      .cls-4 {
        fill: #ffcfcf;
        stroke-width: 4px;
      }

      .cls-5 {
        fill: #fff9e1;
      }
    </style>
  </defs>
  <path class="cls-5" d="M92.32,212.17c-41.25-36.01-26.2-154.15,48.26-161.02,80.78-14.72,123.67,47.45,114.49,112.37,22.51-4.69,17.26,4.02,3.34,24.37-6.69,10.55-44.23,37.82-69.51,40.73-25.28,2.91-84.81-3.35-96.58-16.44Z"/>
  <path class="cls-3" d="M122.37,130.47c6.16-8.32,25.47.54,31.22,8.77,0,0-10.31,3.49-14.5,4.61-5.81,2.37-44.48-7.23-16.73-13.38Z"/>
  <path class="cls-1" d="M101.55,115.04c1.55-4.07,17.13-.7,17.84,1.95"/>
  <path class="cls-1" d="M168.74,125.36c4.76-1.76,19.95.77,22.3,8.36"/>
  <path class="cls-4" d="M19.09,211.62c1.12-.37,55.76,0,55.76,0,0,0-.74,31.22-27.88,31.22s-27.88-31.22-27.88-31.22Z"/>
  <path class="cls-1" d="M46.97,175.19s-7.06,3.56,0,13.34c0,0,5.58,7.71,0,13.05"/>
  <path class="cls-1" d="M33.98,177.46s-4.64,2.95,0,11.04c0,0,3.67,6.38,0,10.8"/>
  <path class="cls-1" d="M59.74,177.46s-4.64,2.95,0,11.04c0,0,3.67,6.38,0,10.8"/>
  <path class="cls-1" d="M23,249.83c3.1,2.64,37.06,2.28,47.95,0"/>
  <path class="cls-2" d="M206.28,160.49l40.49,10.53c-3.99,15.87-22.93,28.4-40.49,21.84"/>
</svg>