<?xml version="1.0" encoding="UTF-8"?>
<svg id="_レイヤー_2" data-name="レイヤー 2" xmlns="http://www.w3.org/2000/svg" viewBox="0 0 246.69 283.78">
  <defs>
    <style>
      .cls-1, .cls-2, .cls-3, .cls-4, .cls-5 {
        stroke: #707070;
      }

      .cls-1, .cls-2, .cls-4, .cls-5 {
        fill: none;
      }

      .cls-1, .cls-4 {
        stroke-width: 6px;
      }

      .cls-1, .cls-4, .cls-5 {
        stroke-miterlimit: 10;
      }

      .cls-2, .cls-3 {
        stroke-linejoin: round;
      }

      .cls-2, .cls-3, .cls-4 {
        stroke-linecap: round;
      }

      .cls-2, .cls-3, .cls-5 {
        stroke-width: 7px;
      }

      .cls-6 {
        fill: #f8feff;
      }

      .cls-3 {
        fill: #fff;
      }

      .cls-7 {
        fill: #ffcfcf;
      }
    </style>
  </defs>
  <path class="cls-3" d="M45.58,76.49s-21.41,20.09-20.75,77.24c0,0-13.14,13.79-18.39,30.22-5.25,16.42,11.82-.99,18.72,4.27-1.56-5.46,32.45,95.66,60.1,91.96,3.29-1.32-1.64-17.41,2.3-17.41s69.96-7.55,86.05-2.63c0,0,7.55,13.14,7.88,14.45s7.88.33,7.88.33c0,0,31.53-57.48,33.83-90.32,0,0,8.21-1.97,16.75,5.58s-1.31-31.2-12.48-39.74c0,0,.19-44.32-20.83-71.25"/>
  <path class="cls-6" d="M111.86,76.49c12.52,20.85,78.2,26.98,83.19,2.21,27.11,6.91,45.33-22.51,14.78-37.44,3.58-35.51-42.25-37.79-59.45-22.66-5.11-21.07-70.24-19.57-73.9,2.96-70.82.72-51.73,84.54,31.55,62.84"/>
  <path class="cls-2" d="M112.1,76.3c12.52,20.85,78.2,26.98,83.19,2.21,27.11,6.91,45.33-22.51,14.78-37.44,3.58-35.51-42.25-37.79-59.45-22.66-5.11-21.07-70.24-19.57-73.9,2.96-70.82.72-51.73,84.54,31.55,62.84"/>
  <path class="cls-5" d="M81.07,131.55c-1.91-27.57,39.04-31.1,41.88-3.62,1.91,27.57-39.04,31.1-41.88,3.62Z"/>
  <path class="cls-5" d="M140.84,126.39c-1.83-26.42,37.41-29.81,40.14-3.47,1.83,26.42-37.41,29.81-40.14,3.47Z"/>
  <path class="cls-5" d="M122.95,127.93s11.21,2.55,17.89-1.55"/>
  <path class="cls-1" d="M91.17,129.74c7.86-4.08,11.97-3.98,20.03-3.36"/>
  <path class="cls-1" d="M150.62,125.98c4.52-3.53,9.29-4.98,19.71-1.89"/>
  <path class="cls-4" d="M116.46,159.31s7.93,13.14,15.43.99c2.16-.67,10.04,5.83,11.83-.99"/>
  <ellipse class="cls-7" cx="67.2" cy="158.2" rx="18.17" ry="10.29"/>
  <ellipse class="cls-7" cx="182.87" cy="154.12" rx="18.17" ry="10.29"/>
</svg>