<?xml version="1.0" encoding="UTF-8"?>
<svg id="_レイヤー_1" data-name="レイヤー 1" xmlns="http://www.w3.org/2000/svg" viewBox="0 0 246.58 258.49">
  <defs>
    <style>
      .cls-1 {
        stroke: #e7ffe1;
      }

      .cls-1, .cls-2, .cls-3, .cls-4, .cls-5, .cls-6, .cls-7 {
        fill: none;
      }

      .cls-1, .cls-4, .cls-5, .cls-6, .cls-8, .cls-7 {
        stroke-miterlimit: 10;
      }

      .cls-1, .cls-5 {
        stroke-width: 30px;
      }

      .cls-9 {
        fill: #fff;
      }

      .cls-2, .cls-3 {
        stroke-linecap: round;
        stroke-linejoin: round;
      }

      .cls-2, .cls-3, .cls-8, .cls-7 {
        stroke: #707070;
      }

      .cls-2, .cls-8 {
        stroke-width: 5px;
      }

      .cls-3, .cls-7 {
        stroke-width: 7px;
      }

      .cls-4 {
        stroke: #f2e9ff;
        stroke-width: 25px;
      }

      .cls-5 {
        stroke: #ffdede;
      }

      .cls-6 {
        stroke: #fff9e1;
        stroke-width: 40px;
      }

      .cls-8 {
        fill: #ffcfcf;
      }
    </style>
  </defs>
  <path class="cls-9" d="M220.25,181.14c-14.55,46.97-42.13,74.49-42.13,74.49-18.17.95-13.89,1.27-13.02-15.88-13.4-8.43-88.09-4.01-91.53-2.41s1.15,13.65,0,16.86c-1.15,3.21-11.49,0-11.49,0-28.34-28.5-25.66-65.84-32.94-68.65-7.28-2.81-21.65,3.17-24.48-3.26-2.83-6.42,19.51-21.23,19.51-21.23-1.91-15.66,0-43.22,0-43.22,3.51,1.66,24.22-75.97,93.66-80.5,71.4-4.66,104.31,78.47,104.31,78.47,0,.11,5.77,20.75,1.94,41.58,0,0,17.62,7.81,19.91,20.45-5.85,8.44-14.61,1.03-27.96,1.53"/>
  <path class="cls-3" d="M23.25,116.85s-1.91,27.56,0,43.22c0,0-22.33,14.81-19.51,21.23,2.83,6.42,17.21.45,24.48,3.26,7.28,2.81,4.6,40.14,32.94,68.65,0,0,10.34,3.21,11.49,0,1.15-3.21-3.45-15.25,0-16.86s78.13-6.02,91.53,2.41c-.87,17.17-5.13,16.82,13.02,15.88,0,0,27.57-27.52,42.13-74.49"/>
  <path class="cls-3" d="M221.23,114.82c0,.11,5.77,20.75,1.94,41.58,0,0,17.62,7.81,19.91,20.45-5.85,8.44-14.61,1.03-27.96,1.53"/>
  <path class="cls-5" d="M69.12,113.25c0-70.78,96.07-70.78,96.07,0"/>
  <path class="cls-6" d="M45.6,113.25c0-105.17,145.08-104.98,145.08,0"/>
  <path class="cls-1" d="M30.95,113.25c0-124.53,174.39-114.05,173.39,0"/>
  <path class="cls-4" d="M16.19,113.25c1.5-124.5,208.46-134.4,207.5.5"/>
  <path class="cls-3" d="M11.25,115.18s71.02,1.03,70.56,0c7.34-54.2,63.75-60.17,69.07,0,.62-.58,85,2.41,86.24-3.62C240.59-27.7,20.56-35.19,6.77,105.61c0,0-2.61,5.58,4.48,9.57Z"/>
  <path class="cls-7" d="M112.94,138.96s8.98,2.21,17.1,1.1"/>
  <path class="cls-7" d="M72.08,125.93c10.48,1.47,38.76-6,38.72,11.68.65,6.91-4.63,13.19-11.68,13.15-10.48-1.47-38.76,6-38.72-11.68-.65-6.91,4.63-13.19,11.68-13.15Z"/>
  <path class="cls-7" d="M143.86,125.93c10.39,1.43,38.4-5.89,38.33,11.68.65,6.91-4.63,13.19-11.68,13.15-10.39-1.42-38.4,5.89-38.33-11.68-.65-6.91,4.63-13.19,11.68-13.15Z"/>
  <path class="cls-2" d="M73.73,139.57c4.89-3.78,21.44-3.05,25.28,0"/>
  <path class="cls-2" d="M145.12,140.03c3.07-4.57,19.09-5.03,24.13,0"/>
  <path class="cls-8" d="M107,157.63c.36-.93,25.16-.13,29.48.19-6.78,9.47-22.84,10.31-29.48-.19Z"/>
</svg>