<?xml version="1.0" encoding="UTF-8"?>
<svg id="_レイヤー_1" data-name="レイヤー 1" xmlns="http://www.w3.org/2000/svg" viewBox="0 0 272.88 166.53">
  <defs>
    <style>
      .cls-1 {
        stroke: #e8dcff;
        stroke-width: 18px;
      }

      .cls-1, .cls-2, .cls-3, .cls-4, .cls-5 {
        fill: none;
      }

      .cls-1, .cls-3, .cls-4, .cls-5 {
        stroke-miterlimit: 10;
      }

      .cls-2 {
        stroke: #707070;
        stroke-linecap: round;
        stroke-linejoin: round;
        stroke-width: 5px;
      }

      .cls-3 {
        stroke: #fff6d2;
      }

      .cls-3, .cls-4 {
        stroke-width: 40px;
      }

      .cls-6 {
        fill: #ebfdff;
      }

      .cls-4 {
        stroke: #ffd9d9;
      }

      .cls-5 {
        stroke: #dcffd2;
        stroke-width: 25px;
      }
    </style>
  </defs>
  <path class="cls-4" d="M127.82,87.73c0-61.84,94-61,94,26"/>
  <path class="cls-3" d="M103.82,101.73C107.8,16.83,231.82.73,236.82,113.73"/>
  <path class="cls-5" d="M96.32,111.23c4-56,34.54-85,75-85,25,0,72,13,75,90"/>
  <path class="cls-1" d="M80.82,107.73c16-130,174-126,181,8"/>
  <path class="cls-2" d="M78.01,121.4s59.69-8.3,59.31-9.17c3-63,64-62,67,2-.03-.72,66.07,6.32,66.06,1.1-.06-152.1-197.06-148.1-196.17-2.04,0,0-2.21,4.73,3.8,8.11Z"/>
  <path class="cls-6" d="M78.11,145.89c12.06,20.09,75.34,26,80.15,2.13,26.12,6.65,43.68-21.69,14.24-36.07,3.45-34.22-40.71-36.41-57.27-21.83-4.92-20.3-67.68-18.86-71.2,2.85-68.24.69-49.84,81.45,30.4,60.55"/>
  <path class="cls-2" d="M78.55,146.34c12.06,20.09,75.34,26,80.15,2.13,26.12,6.65,43.68-21.69,14.24-36.07,3.45-34.22-40.71-36.41-57.27-21.83-4.92-20.3-67.68-18.86-71.2,2.85-68.24.69-49.84,81.45,30.4,60.55"/>
</svg>