<?xml version="1.0" encoding="UTF-8"?>
<svg id="mari_L" xmlns="http://www.w3.org/2000/svg" viewBox="0 0 291.25 283.13">
  <defs>
    <style>
      .cls-1, .cls-2, .cls-3, .cls-4, .cls-5 {
        stroke: #707070;
        stroke-linecap: round;
        stroke-linejoin: round;
      }

      .cls-1, .cls-2, .cls-4 {
        stroke-width: 3px;
      }

      .cls-1, .cls-3 {
        fill: none;
      }

      .cls-2 {
        fill: #707070;
      }

      .cls-3, .cls-5 {
        stroke-width: 5px;
      }

      .cls-4 {
        fill: #ffbc5a;
      }

      .cls-5 {
        fill: #fff9e1;
      }
    </style>
  </defs>
  <path class="cls-5" d="M60.53,145.51c-20.73-68.1,46.02-125.78,116.56-104.42,27.07,8.2,47.67,30.13,53.36,57.83,6.06,29.53,1.63,58.82,25.95,71.44-12.64,39.21-79.59,61.6-128.35,53.46-47.6-8.51-54.74-33.2-62.68-57.17-13.83,10.48-32.63-14.05-30.13-24.32l21.52-3.17"/>
  <path class="cls-1" d="M58.61,138.11s83.68,77.44,129.12,38.78c40.02-34.04,44.4-60.27,44.4-60.27"/>
  <path class="cls-3" d="M125.64,225.35s-4.84,15.07-10.76,18.3"/>
  <path class="cls-3" d="M176.02,222.65s.2,18.85-6.79,24.77"/>
  <path class="cls-5" d="M204.66,133.96c3.77,1.08,15.89,5.14,23.42,6.75,11.22,1.65-2.96,23.79-17.76,26.37-13.45,2.15-22.6-10.76-22.6-12.91"/>
  <path class="cls-1" d="M100.61,111.28c-5.69-9.09-18.95-8.72-20.38-.51"/>
  <path class="cls-1" d="M134.14,99.65c5.08-10.82,21.7-8.57,26.91,0"/>
  <path class="cls-4" d="M100.61,120.09c3.49.51,16.46-6.25,18.03-7.67,1.67,0,24.02,2.5,21.26,7.67-2.58,4.69-36.92,8.83-39.28,0Z"/>
  <path class="cls-4" d="M113.62,134.1s16.92-7.25,23.09-6c6.17,1.25.8,4.07-3.49,7.09-4.3,3.02-14.41,5.17-18.09,4.7s-4.54-4.77-1.5-5.79Z"/>
  <rect class="cls-2" x="173.57" y="174.34" width="28.31" height="30.49" rx="5.1" ry="5.1" transform="translate(-66.85 109.74) rotate(-27.87)"/>
</svg>