<?xml version="1.0" encoding="UTF-8"?>
<svg id="masami_L" xmlns="http://www.w3.org/2000/svg" viewBox="0 0 291.25 283.13">
  <defs>
    <style>
      .cls-1 {
        fill: #fff9e1;
      }

      .cls-2, .cls-3 {
        fill: none;
      }

      .cls-2, .cls-3, .cls-4, .cls-5, .cls-6 {
        stroke: #707070;
        stroke-linecap: round;
        stroke-linejoin: round;
      }

      .cls-2, .cls-4, .cls-5, .cls-6 {
        stroke-width: 3px;
      }

      .cls-3 {
        stroke-width: 5px;
      }

      .cls-4 {
        fill: #fff;
      }

      .cls-5 {
        fill: #ffbc5a;
      }

      .cls-6 {
        fill: #ffcfcf;
      }
    </style>
  </defs>
  <path class="cls-4" d="M240.48,195.85c.3-1.01,24.41-17.47,24.41-17.47,3.1,3.71,26.8,44.38,20.16,56.79l-55.06,25.07-22.2-36.62c6.64-4.59,26.35-22.18,32.7-27.78Z"/>
  <path class="cls-6" d="M9.06,114.49c-4.06,22.42-6.92,22.68-2.21,35.57l6.8-8.04,3.14-15.44c1.54-7.83,6.39-30.59,8.26-39.4l-10.57-1.53c-.43,3.49-2.95,16.46-5.43,28.83Z"/>
  <path class="cls-1" d="M134.88,55.22c55.59,8.31,131.23,49.94,94.47,130.15,7,7.46,17.57,19.39,16.6,22.43-7.99,7.97-42.22,15.17-54.34-3.75"/>
  <path class="cls-1" d="M203.82,217.67c-43.39,39.57-64.73,22.76-118.45,5.44-35-11.86-57.26-48.23-43.79-81.31,0,0-4.51-2.55-9.89-4.74-5.56-2.25-21.92-24.78-8.26-27.96,13.66-3.18,38.68-10.22,38.68-10.22,30.75-45.36,72.76-43.67,72.76-43.67"/>
  <path class="cls-3" d="M143.89,21.6s-44.36,11.52,5.27,33.61c0,0,36.68,4.16,66.96,30.44,28.71,24.93,25.25,84.66,12.98,99.71,7,7.46,17.57,19.39,16.6,22.43-7.99,7.97-42.22,15.17-54.34-3.75"/>
  <path class="cls-3" d="M203.57,217.67c-43.39,39.57-64.73,22.76-118.45,5.44-35-11.86-57.26-48.23-43.79-81.31,0,0-4.51-2.55-9.89-4.74s-21.92-24.78-8.26-27.96c13.66-3.18,38.68-10.22,38.68-10.22,30.75-45.36,72.76-43.67,72.76-43.67"/>
  <path class="cls-3" d="M45.22,228.67c7.33.6,18.22-1.18,25.06-10.11"/>
  <path class="cls-3" d="M124.95,260.57c8.19-2.02,14.23-18.76,14.23-18.76"/>
  <path class="cls-2" d="M127.93,120.77c-6.76,24.59-55.02,12.79-48.19-12.45,6.76-24.59,55.02-12.79,48.19,12.45Z"/>
  <path class="cls-2" d="M187.17,146.54c-6.76,24.59-55.02,12.79-48.19-12.45,6.76-24.59,55.02-12.79,48.19,12.45Z"/>
  <path class="cls-2" d="M125.38,125.98s9.85-.22,14.89,4.93"/>
  <path class="cls-2" d="M91.03,112.5c3.68-2.68,22.24-3.62,23.05,5.36"/>
  <path class="cls-2" d="M153.56,132.95c11.11-5.22,16.49,7.81,18.77,13.82"/>
  <path class="cls-5" d="M122.32,140.02s16.31,11.92,16.93,14.03c-3.81,8.01-28.57-.64-33.15-.95-17.93-17.7,8.57-13.05,16.23-13.08Z"/>
  <line class="cls-2" x1="258.41" y1="198.71" x2="273.14" y2="224.35"/>
  <line class="cls-2" x1="262.25" y1="231.25" x2="248.72" y2="207.05"/>
  <line class="cls-2" x1="236.53" y1="214.23" x2="249.83" y2="236.84"/>
  <path class="cls-2" d="M223.74,219.71c1.47,2.23,13.57,21.94,13.57,21.94"/>
</svg>