<?xml version="1.0" encoding="UTF-8"?>
<svg id="miyabi_L" xmlns="http://www.w3.org/2000/svg" viewBox="0 0 291.25 283.13">
  <defs>
    <style>
      .cls-1 {
        fill: none;
      }

      .cls-1, .cls-2, .cls-3, .cls-4, .cls-5, .cls-6 {
        stroke: #707070;
      }

      .cls-1, .cls-3, .cls-4, .cls-5, .cls-6 {
        stroke-linecap: round;
        stroke-linejoin: round;
      }

      .cls-1, .cls-4, .cls-5 {
        stroke-width: 3px;
      }

      .cls-2 {
        fill: #ff9d00;
        stroke-miterlimit: 10;
      }

      .cls-3 {
        fill: #ffd28a;
        stroke-width: 4px;
      }

      .cls-4 {
        fill: #d4efc5;
      }

      .cls-5 {
        fill: #ffbc5a;
      }

      .cls-6 {
        fill: #fff9e1;
        stroke-width: 5px;
      }
    </style>
  </defs>
  <path class="cls-6" d="M65.61,204.48s-7.19.92-19.56-6.44-21.4-34.69-11.6-31.79c11.17,3.3,21.18.23,25.72-4.46,2.58-26.91,15.54-53.24,36.54-70.37l65.78-18.89c38.54,0,56.58,11.32,69.97,24.02,6.4,6.07,13.76,17.62,17.31,25.7,41.03,93.42-81.25,119.22-81.25,119.22-36.19,7.02-68.3,8.76-90.52-16.19-7.47-8.39-12.4-18.84-15.26-29.64"/>
  <path class="cls-3" d="M140.11,48.1c7.89,2.84,15.17,11.35,16.41,16.4,3.21,13.09-7.99,27.09-25.02,31.27s-33.45-3.04-36.66-16.13c-3.21-13.09,7.99-27.09,25.02-31.27"/>
  <path class="cls-4" d="M123.82,46.58c3.38-4.63,9.16-9.49,18.23-10.13,0,0,.63,14.52-22.09,18.94-.46.09.54-4.25,3.87-8.81"/>
  <path class="cls-5" d="M119.85,149.59s2.2-4.36,8.56-7.93c8.37-4.7,14.52-5.17,22.68-3.86s18.94,1.96,17.25,3.79-35.62,14.2-39.1,13.01-9.49-5.43-9.39-5.01Z"/>
  <path class="cls-1" d="M117.95,135.36s-6.94-4.41-13.15-1.47-4.52,5.47-5.79,7.57"/>
  <path class="cls-1" d="M157.07,122.24s1.77-6.31,9.68-8.42,15.9,4.21,15.9,4.21"/>
  <circle class="cls-2" cx="108.49" cy="64.28" r="1.37"/>
  <circle class="cls-2" cx="103.17" cy="81.11" r="1.37"/>
  <circle class="cls-2" cx="117.11" cy="76.63" r="1.37"/>
  <circle class="cls-2" cx="118.48" cy="88.37" r="1.37"/>
  <circle class="cls-2" cx="130.95" cy="79.74" r="1.37"/>
  <circle class="cls-2" cx="140.63" cy="83.85" r="1.37"/>
  <path class="cls-6" d="M214.14,109.53s21.37-3.53,28.73-25.96c7.36-22.43,16.12,16.7,16.12,16.7,0,0,6.66,29.33-2.1,37.81-8.76,8.48-19.11,8.59-19.11,8.59"/>
</svg>