<?xml version="1.0" encoding="UTF-8"?>
<svg id="moe_L" xmlns="http://www.w3.org/2000/svg" viewBox="0 0 291.25 283.13">
  <defs>
    <style>
      .cls-1, .cls-2 {
        fill: none;
      }

      .cls-1, .cls-2, .cls-3, .cls-4, .cls-5 {
        stroke: #707070;
        stroke-linecap: round;
        stroke-linejoin: round;
      }

      .cls-1, .cls-3, .cls-4 {
        stroke-width: 3px;
      }

      .cls-2, .cls-5 {
        stroke-width: 5px;
      }

      .cls-3 {
        fill: #ffbc5a;
      }

      .cls-4 {
        fill: #ffcfcf;
      }

      .cls-5 {
        fill: #fff9e1;
      }
    </style>
  </defs>
  <path class="cls-5" d="M200.35,97.78C172.15,6.34,5.29,26.11,21.27,139.72c5.85,27.76,9.38,37.2,14.63,51.08,5.25,13.88,6.27,21.89-1.74,22.91-3.84.49,48.8,26.96,82.08,23.32,60.67-11.92,110.71-38.62,99.28-111.5,0,0,19.88-28.14,17.46-41.19-3.69-19.89-13.33-8.78-13.33-8.78l-23.46,10.13"/>
  <path class="cls-1" d="M162.29,71.39s-6.91,6.69-6.85,10.18c0,0,9.4.75,11.5,2.03"/>
  <path class="cls-1" d="M90.77,100.64c1.14-.15,14.93-1.51,19.8.2,0,0-9.2,6.99-11,11.09"/>
  <path class="cls-3" d="M135.07,107.43c5.68-15.5,23.2-5.7,32.06-4.07,2.34.09-3.28,4.68-9.81,8.23s-32.44,4.12-32.44,4.12l10.2-8.28Z"/>
  <path class="cls-2" d="M60.86,158.35c2.68-4.2,39.31-34.03,50.83-29.65,1.8,2,8.52,10.43,1.31,21.86-9.04,14.33-6.72,26.45-34.35,28.79"/>
  <path class="cls-2" d="M112.49,239.7s1.97,9.44-6.03,16.67"/>
  <path class="cls-2" d="M152.63,227.76c.09,3.38-4.14,15.88-10.74,22"/>
  <path class="cls-4" d="M257.41,29.94c-5.23.66-9.23,4.57-10.28,9.45-5.62-3.75-13.53-4.84-20.18-2.45-.56-7.85-9.02-13.19-16.35-10.22-11.44,3.95-9.27,21.77,2.49,23.16-3.61,7.88-1.71,18.58,4.3,24.74.47-.08,1.42-.58,1.68-.76,6.34-5.71,14.22.72,13.64,8.27,15.29,1.45,28.13-13.33,24.51-28.29,17.82,2.12,18.05-25.74.19-23.89Z"/>
</svg>