<?xml version="1.0" encoding="UTF-8"?>
<svg id="naoko_L" xmlns="http://www.w3.org/2000/svg" viewBox="0 0 291.25 283.13">
  <defs>
    <style>
      .cls-1 {
        stroke-width: 3px;
      }

      .cls-1, .cls-2, .cls-3, .cls-4, .cls-5 {
        stroke: #707070;
      }

      .cls-1, .cls-3 {
        fill: none;
      }

      .cls-1, .cls-3, .cls-4, .cls-5 {
        stroke-linecap: round;
        stroke-linejoin: round;
      }

      .cls-2 {
        fill: #707070;
        stroke-miterlimit: 10;
      }

      .cls-2, .cls-3, .cls-4, .cls-5 {
        stroke-width: 5px;
      }

      .cls-4 {
        fill: #ffbc5a;
      }

      .cls-5 {
        fill: #fff9e1;
      }
    </style>
  </defs>
  <path class="cls-5" d="M16.13,170.14c-2.83-1.53-1.98-5.79,1.21-6.14,33.73-11.13-5.84-37.75,7.11-94.99C39.86-1.14,136.52-20.04,183.16,32.82l29.21,6.1s7.41,8.72-8.28,20.06c11.38,50.51,6.61,119.25-74.13,129.5-40.4,4.82-81.12-.72-113.84-18.34Z"/>
  <path class="cls-2" d="M149.22,56.35c1.09-3.89,7.18-2.09,5.98,1.77-1.09,3.89-7.18,2.09-5.98-1.77Z"/>
  <path class="cls-4" d="M204.09,58.98c-14.48-1.74-22.67-6.1-24.42-7.85-1.74-1.74,4.8-14.39,6.1-14.39l27.67,4.09s-7.69,18.35-9.35,18.15Z"/>
  <path class="cls-1" d="M155.2,38.48s-9.04.2-17.83-3.05"/>
  <path class="cls-3" d="M187.37,161.72s16.73,3.02,16.73,24.14"/>
  <path class="cls-3" d="M135.2,190.34c-3.03-6.24,8.7,9.42-10.9,23.86"/>
  <path class="cls-5" d="M109.91,99.97c-2.77-.4-30.32,13.05-41.52,18.59-2.69,1.33-3.68,4.71-2.07,7.24,12.82,26.74,62.33,16.73,64.08-3.52"/>
  <path class="cls-3" d="M276.22,129.79c.42,1.27,0,50.56,0,50.56h-49.71v50.14h-49.29v50.14h-50.14"/>
</svg>