<?xml version="1.0" encoding="UTF-8"?>
<svg id="natsumi_L" xmlns="http://www.w3.org/2000/svg" viewBox="0 0 291.25 283.13">
  <defs>
    <style>
      .cls-1 {
        fill: #707070;
        stroke-miterlimit: 10;
      }

      .cls-1, .cls-2, .cls-3, .cls-4, .cls-5, .cls-6, .cls-7 {
        stroke: #707070;
      }

      .cls-1, .cls-4, .cls-5 {
        stroke-width: 3px;
      }

      .cls-2 {
        fill: none;
      }

      .cls-2, .cls-3, .cls-4, .cls-5, .cls-6, .cls-7 {
        stroke-linecap: round;
        stroke-linejoin: round;
      }

      .cls-2, .cls-6, .cls-7 {
        stroke-width: 5px;
      }

      .cls-3, .cls-6 {
        fill: #fff;
      }

      .cls-4 {
        fill: #ffbc5a;
      }

      .cls-5 {
        fill: #ffcfcf;
      }

      .cls-7 {
        fill: #fff9e1;
      }
    </style>
  </defs>
  <path class="cls-7" d="M57.67,139.35c2.31-33.98,11.2-49.67,36.96-69.61,38.83-15.11,100.27-4.49,131.02,33.39,4.09,13.22,14.11,35.86-.24,54.87,0,0,2.17,22.2,21.66,15.82,1.94-.64-21.67,50.62-64.42,61.53-42.74,10.91-86.11,8.47-94.93,7-8.64-1.44-35.04-17.13-33.07-50.48.07-1.15-.74-2.15-1.91-2.34-15.7-3.84-26.4-23.06-7.9-66.36,4.12-8.33,18.37,28.67,19.42,32.39"/>
  <path class="cls-2" d="M194.17,140.48c.64-1.14,16.6-16.1,23.3-38.37,6.7-22.27,17.49,35.36,16.34,39.44-1.15,4.08-4.74,14.5-11.45,21.89"/>
  <path class="cls-2" d="M123.63,244.75s-1.87,11.05-8.75,16.41"/>
  <path class="cls-2" d="M181.74,235.63s3.08,9.63-6,19.37"/>
  <path class="cls-6" d="M223.25,96.83C175.85-20.84,55.26,25.45,47.67,117.53l26.46-20.1,24.69,14.87,28.47-22.42,31.2,19.47,24.31-24.66,34.67,17.4"/>
  <path class="cls-3" d="M96.82,134.59c5.91-3.3,16.83-.75,16.89,8.58.28,5.35-13.12,8.05-17.27,5.41-7.41-2.83-3.76-12.32.38-14Z"/>
  <path class="cls-3" d="M143.88,128.66c-1.85,1.07,5.02-3.5,12.05-.89,13.18,6,4.96,19.17-11.52,15.55-8.76-2.62-5.78-11.41-.53-14.66Z"/>
  <path class="cls-1" d="M143.63,131.85c.45-3.33,5.66-2.55,5.12.76-.45,3.33-5.66,2.55-5.12-.76Z"/>
  <path class="cls-1" d="M96.85,138.26c.45-3.33,5.66-2.55,5.12.76-.45,3.33-5.66,2.55-5.12-.76Z"/>
  <path class="cls-4" d="M107.6,162.38s6.95-5.41,7.72-6.01,4.54-.93,10.01-4.33,23.16,3.52,23.87,4.01-14.47,8.69-14.47,8.69c0,0-4.39,3.15-12.73,4.58-8.33,1.43-4.17-3.33-7.97-4.68-4.86-1.73-6.43-2.25-6.43-2.25Z"/>
  <path class="cls-5" d="M112.57,200.55c4.1,22.13,4.98,14.34,20.28,6.14,22.32,6.95,18,7.25,16.8-14.37-.12-1.66-1.88-2.63-3.29-1.83l-15.32,10.89-15.69-4c-1.75-.21-3.16,1.41-2.77,3.17Z"/>
</svg>