<?xml version="1.0" encoding="UTF-8"?>
<svg id="ryo_L" xmlns="http://www.w3.org/2000/svg" viewBox="0 0 291.25 283.13">
  <defs>
    <style>
      .cls-1, .cls-2 {
        fill: none;
      }

      .cls-1, .cls-2, .cls-3, .cls-4, .cls-5, .cls-6 {
        stroke: #707070;
        stroke-linecap: round;
        stroke-linejoin: round;
      }

      .cls-1, .cls-3, .cls-4, .cls-5 {
        stroke-width: 3px;
      }

      .cls-2, .cls-6 {
        stroke-width: 5px;
      }

      .cls-3 {
        fill: #fff;
      }

      .cls-4 {
        fill: #ddd;
      }

      .cls-5 {
        fill: #ffbc5a;
      }

      .cls-6 {
        fill: #fff9e1;
      }
    </style>
  </defs>
  <path class="cls-6" d="M276.46,192.18c-10.22,27.43,12.29,42.84,12.29,42.84-6.93-4.21-25.95,6.22-35.43,8.5-48.85,22.15-181.59-22.84-146.01-104.1-2.43-8.17-17.47-4.23-1.69-16l10.23-6.44s12.66-15.85,22.34-26.06c33.96-35.44,107.53-28.4,138.47,25.44,5.94,10.34,8.61,22.24,7.89,34.15-.69,11.35-2.68,27.09-8.1,41.64Z"/>
  <path class="cls-2" d="M139.58,228.06s-5.77,12.46-14.05,14.61"/>
  <path class="cls-2" d="M171.48,241.68s-7.29,10.38-19.17,12.94"/>
  <path class="cls-4" d="M89.29,140.37l1.18-5.54s-7.68-3.9-13.47-2.86l-7.61,35.84s6.65,6.97,13.47,2.86l3.04-14.32"/>
  <path class="cls-6" d="M99.79,148.46c-1.04-.61-14.97-8.65-15.98-5.74-1.01,2.91,3.99,30.95,16.6,35.97"/>
  <path class="cls-2" d="M226.54,172.01s13.51,21.08,23.64,26.75c10.13,5.67-25.85,9.45-28.09,8.93-6.47-.64-19.87-14.41-9.49-21.6"/>
  <path class="cls-5" d="M111.28,138.55c10.7-.7,22.29,7.32,26.19,5.56,3.89-1.76-7.47-12.69-9.27-18.93-1.8-6.25-9.97-6.42-9.97-6.42,0,0-20.95,7.78-19.56,11.11l1.38,3.33,7.28,6.24,3.97-.88Z"/>
  <line class="cls-1" x1="160.15" y1="131.17" x2="178.85" y2="142.52"/>
  <path class="cls-3" d="M89.35,123.52s-18.45-6.99-36.18-6.35c-17.73.63-17.48-12.98-7.86-14.07,16.89-2.07,27.47-19.33-.11-24.56-20.55-3.78-41.02-9.59-43.39-23.28s9.23-26.92,22.14-26.97c12.91-.05,26.25,6.16,20.79,20.83-5.46,14.67,51.38,31.43,40.61,43.51-10.77,12.08-27.87,10.06-17.51,18.96,5.7,4.9,21.51,11.94,21.51,11.94Z"/>
</svg>