<?xml version="1.0" encoding="UTF-8"?>
<svg id="yosimi_L" xmlns="http://www.w3.org/2000/svg" viewBox="0 0 291.25 283.13">
  <defs>
    <style>
      .cls-1, .cls-2 {
        fill: none;
      }

      .cls-1, .cls-2, .cls-3, .cls-4, .cls-5, .cls-6, .cls-7 {
        stroke: #707070;
        stroke-linecap: round;
        stroke-linejoin: round;
      }

      .cls-1, .cls-6 {
        stroke-width: 4px;
      }

      .cls-2, .cls-7 {
        stroke-width: 5px;
      }

      .cls-3 {
        fill: #fff;
      }

      .cls-3, .cls-4, .cls-5 {
        stroke-width: 3px;
      }

      .cls-4 {
        fill: #ffbc5a;
      }

      .cls-5, .cls-8 {
        fill: #ffcfcf;
      }

      .cls-6 {
        fill: #ddd;
      }

      .cls-7 {
        fill: #fff9e1;
      }
    </style>
  </defs>
  <path class="cls-6" d="M235.13,89.34s23.67-5.22,14.95-16.39c-8.72-11.17-16.16-8.85-54.5-14.51-38.33-5.66-38.45-9.19-55-11.03-28.29-3.65-24.62,22.71-8.59,23.86,0,0,103.13,18.06,103.13,18.06Z"/>
  <path class="cls-6" d="M226.99,60.94c-5.58-32.9-63.44-35.02-78.07-14.13,0,0,33.46,12.62,78.07,14.13Z"/>
  <path class="cls-7" d="M260.51,131.74c-39.2-107.05-182.24-74.96-186.76,19.72l1.98,3.07-30.83-8.28c.51,6.05,6.92,60.09,31.91,39.74,19.08,51.06,103.74,70.66,143.91,43.13,0,0,39.2-21.12,37.94-59.09l-8.69-.77,16.17-2c9.29-6.03,20.6-26.36,20.6-26.36-9.19-8.04-41.74-10.15-41.74-10.15l15.52.99Z"/>
  <path class="cls-2" d="M147.74,240.73s-3,12.54-6.65,17.17"/>
  <path class="cls-2" d="M218.33,230.38s6.37,9.65,7.22,17.2"/>
  <path class="cls-1" d="M114.89,127.39c.18-2.08,7.71-16.26,21.5-4.2"/>
  <path class="cls-1" d="M174.08,116.71s9.72-19.6,22.54-3.06"/>
  <path class="cls-4" d="M144.83,137.64c12.32-11.75,18-5.47,32.63-4.74,0,0,5.83,2.42-3.17,7.34-5.28,5.16-46.5,8.62-29.47-2.6Z"/>
  <path class="cls-3" d="M233.4,223.93c-43.32-2.16-136.43-33.1-162.92-73.74-.37-27.59,8.28-33.53,8.28-33.53,33.3,31.15,116.6,73.47,179.41,76.71,0,0-3.78,13.01-24.77,30.56Z"/>
  <path class="cls-5" d="M29.48,61.8c2.01-21.73,35.06-18.82,33.24,2.93-2.01,21.73-35.06,18.82-33.24-2.93Z"/>
  <line class="cls-5" x1="43.25" y1="24.47" x2="44.16" y2="36.83"/>
  <line class="cls-5" x1="14.89" y1="38.74" x2="24.27" y2="46.84"/>
  <line class="cls-5" x1="4.93" y1="68.89" x2="17.29" y2="67.98"/>
  <line class="cls-5" x1="19.2" y1="97.24" x2="27.29" y2="87.86"/>
  <line class="cls-5" x1="49.34" y1="107.2" x2="48.43" y2="94.85"/>
  <line class="cls-5" x1="77.7" y1="92.93" x2="68.31" y2="84.84"/>
  <line class="cls-5" x1="87.66" y1="62.79" x2="75.3" y2="63.7"/>
  <line class="cls-5" x1="73.39" y1="34.44" x2="65.29" y2="43.82"/>
  <g>
    <path class="cls-8" d="M111.51,176.6c-1.26-.64-1.78-2.08-1.21-3.21l5.02-9.97c.49-.96,1.48-1.4,2.49-1.27l-.75-.38c-.97-.49-.91-1.83-.37-2.9.52-1.03,1.51-1.82,2.49-1.32l16.28,8.19c1.01.51,1.01,1.85.46,2.92-.53,1.05-1.56,1.82-2.59,1.3l-.58-.29c.71.73.94,1.82.47,2.76l-5.02,9.97c-.57,1.14-2.05,1.57-3.3.95l-13.4-6.74ZM133.01,172.32c.55-1.09.03-2.41-1.07-2.96l-3.71-1.87.9-1.78,5.06,2.55c.73.37,1.37-.04,1.66-.62s.24-1.33-.49-1.7l-16.28-8.19c-.69-.35-1.34.05-1.63.63-.29.58-.22,1.34.47,1.69l4.5,2.26-.9,1.78-2.98-1.5c-1.09-.55-2.45-.21-3.01.91l-4.26,8.47c-.54,1.07-.09,2.37,1.07,2.96l13.4,6.74c1.14.57,2.47.17,3.01-.91l4.26-8.47ZM114.35,173.04c-.21-.11-.29-.33-.18-.55l.99-1.97c-.19.65.08,1.44.72,1.76.3.15.68.21,1.1.12,2.63-.58,4.21-1.86,5.91-4.8l1.76.88-1.92,3.82c-.64,1.26-.69,2.5,1.17,3.44l.86.43c1.22.62,2.36.65,3.63-.86l-1.74,3.45c-.11.21-.33.29-.59.16l-11.71-5.89ZM117.68,165.52c.11-.21.37-.35.58-.25l2.14,1.08c-1.22,2.26-2.23,2.88-4.01,3.17-.47.08-.82.29-1.01.57l2.3-4.57ZM116.35,169.28c1.19-.18,1.96-.54,2.79-1.44l-1.74-.87c-.06-.03-.17-.03-.21.05l-1.18,2.34.33-.07ZM123.58,170.07l-1.35-.68c-1.57,2.7-3.07,3.96-5.45,4.59l5.04,2.53c-.75-.86-.55-1.84-.06-2.82l1.82-3.62ZM124.03,165.38l.9-1.78,1.74.87-.9,1.78-1.74-.87ZM126.84,177.87c-.52.33-.99.47-1.48.44l.81.41c.11.05.23.03.27-.05l.4-.79ZM129.01,174.07c-.03-.47-.38-.89-.83-1.12-.45-.23-.99-.23-1.33.24-.4.53-.6.72-1.1.47-.43-.22-.43-.38-.21-.81l1.58-3.13,2.85,1.44c.24.12.33.36.22.57l-1.18,2.34ZM129.21,173.15c.07-.13,0-.25-.09-.29l-2.64-1.33-.72,1.44c-.13.26-.15.35.11.48.36.18.51,0,.8-.41.41-.55,1.06-.57,1.62-.29.32.16.6.41.78.69l.15-.3Z"/>
    <path class="cls-8" d="M144.67,186.83c-1.48,1.5-3.18,2.5-5.28,3.09-.36.1-.66.07-.93-.04-1.03-.46-1.38-2.27-.82-3.54.25-.57.67-1.04,1.33-1.22.36-.1.7-.21,1.03-.36-.9-.45-.91-1.79-.43-2.87.47-1.05,1.4-1.85,2.43-1.39l2.11.93.48-.73-2.87-1.28c-.66-.29-.87-.88-.79-1.43l-4.29,9.65c-.35.79-1.24.84-1.99.51-.75-.33-1.34-1.07-1-1.83l3.54-7.96c-.15-.01-.29-.05-.4-.1-.99-.44-1.1-2.25-.54-3.52.22-.5.58-.95,1.01-1.15,1.85-.86,3.81-2.38,5.51-4.3.42-.47,1.04-.46,1.59-.21.75.33,1.37,1.11,1.21,1.82.34-.24.8-.33,1.28-.11l8.95,3.97c1.29.57,1.7,1.62,1.17,2.8l-1.27,2.85c.81.36.75,1.67.26,2.79-.48,1.08-1.36,1.94-2.2,1.57l-1.41,3.18c-.54,1.21-1.59,1.58-2.87,1.01l-4.82-2.14ZM142.52,173.82c.94-.82,1.83-1.71,2.61-2.62.06-.08.12-.16.16-.24.28-.64-.28-1.38-.96-1.69-.46-.2-1.01-.21-1.37.18-1.73,1.94-3.7,3.48-5.59,4.37-.26.12-.43.31-.53.55-.33.75.01,1.87.69,2.17.22.1.46.1.73,0l-3.71,8.36c-.29.66.21,1.3.85,1.58.64.28,1.4.23,1.7-.45l5.43-12.22ZM154.32,182.95l.22.1c.57.25,1.11-.24,1.37-.84.27-.61.27-1.32-.3-1.58l-.22-.1,1.36-3.07c.47-1.05.09-1.98-1.05-2.49l-8.95-3.97c-.7-.31-1.32.12-1.57.69-.26.59-.17,1.34.53,1.65l2.21.98-1.07,2.41-3.31-1.47c-.68-.3-1.36.16-1.64.79-.25.57-.16,1.3.57,1.62l3.27,1.45c-.51.98-1.03,1.85-1.57,2.58l-2.28-1.01c-.7-.31-1.34.12-1.59.69-.26.59-.15,1.35.55,1.66l1.43.63c-.98.77-2.02,1.31-3.25,1.65-.42.13-.69.38-.83.68-.32.72.08,1.77.85,2.11.26.12.59.16.95.05,2.13-.6,3.82-1.64,5.31-3.16l4.96,2.2c1.14.51,2.08.16,2.56-.91l1.5-3.38ZM146.95,175.97l-2-.89c-.79-.35-.93-1.15-.66-1.82-.63.72-1.34,1.43-2.09,2.04.06-.02.36-.23.58-.3.28-.09.56-.09.87.05l3.09,1.37.21-.46ZM146.96,182.97c.53-.79,1.04-1.64,1.5-2.61l3.22,1.43-1.15,2.59c-.04.09-.13.12-.22.08l-3.36-1.49ZM150.69,183.44l-2.87-1.28c-.13.18-.29.47-.49.7l2.94,1.31s.11,0,.13-.05l.3-.68ZM149.58,177.96l1.07-2.41,3,1.33c.11.05.15.14.11.23l-1,2.26-3.18-1.41ZM152.84,178.62l-2.74-1.22-.19.44,2.74,1.22.2-.44Z"/>
    <path class="cls-8" d="M155.79,196.99c-1.06-.4-1.16-1.75-.74-2.87.41-1.1,1.34-1.98,2.42-1.58l2.99,1.12c.08-.41-.13-1.43-.26-2.02-1.17-.44-1.53-1.45-1.13-2.5l2.15-5.71c.12-.31.29-.56.47-.77-1.08-.46-1.26-1.83-.84-2.96.4-1.06,1.32-1.86,2.51-1.42l16.04,6.04c1.1.41,1.28,1.71.87,2.81-.39,1.03-1.3,1.89-2.45,1.59.02.29-.02.58-.13.9l-2.15,5.71c-.4,1.06-1.31,1.58-2.48,1.14-.51.6-1.13,1.01-1.42,1.39l2.92,1.1c1.01.38,1.08,1.69.67,2.79-.41,1.1-1.34,2.06-2.35,1.68l-17.06-6.45ZM170.32,197.64c.7-.5,1.37-1.05,1.99-1.61.16-.15.27-.31.33-.47.17-.45.03-.96-.26-1.35l1.19.45c1.03.39,1.96-.03,2.32-.97l1.56-4.13c.35-.92-.06-1.82-1.12-2.22l-12.62-4.75c-1.08-.41-1.93.02-2.28.94l-1.56,4.13c-.35.94.04,1.86,1.08,2.25l1.3.49c-.53.06-.98.35-1.14.78-.06.16-.08.35-.01.58.49,1.62.36,2.06.55,2.62l-4.27-1.61c-.72-.27-1.33.19-1.57.82-.23.61-.08,1.38.64,1.65l17.07,6.43c.67.25,1.25-.25,1.48-.88.23-.61.14-1.33-.55-1.59l-4.13-1.56ZM163.25,178.52c-.72-.27-1.32.17-1.55.78-.22.58-.07,1.33.65,1.6l16.04,6.04c.74.28,1.35-.18,1.57-.77.23-.61.07-1.33-.67-1.61l-16.04-6.04ZM162.93,188.09l1.06-2.81,10.36,3.9-1.06,2.81-10.36-3.9ZM173.56,190.66l-9.95-3.75-.36.97,9.95,3.75.36-.97ZM163.37,195.03c.44-.07.82-.33.97-.74.06-.16.1-.32.07-.54-.07-1.05-.43-2.34-.65-2.78l7.05,2.65c-.53.11-.9.97-3.47,2.9l-3.98-1.5ZM164.63,193.32c.08.39.15.9,0,1.28-.08.2-.21.36-.43.46l3.1,1.17c.41-.33,1.24-.97,1.57-1.31l-4.25-1.6Z"/>
    <path class="cls-8" d="M181.77,205.06c-1.33-.39-1.85-1.2-1.47-2.49l4.23-14.31c.37-1.27,1.23-1.71,2.59-1.31l5.38,1.59c.97.29,1.52.8,1.59,1.55.33-.45.89-.74,1.58-.53l7.57,2.24c1.17.35,1.42,1.7,1.07,2.89-.34,1.15-1.26,2.15-2.46,1.8l-1.01-.3-3.5,11.83c-.71,2.39-2.04,2.92-4.53,2.19-.87-.26-1.92-.69-3.13-1.25-1.03-.48-.8-1.79-.69-2.41-.48.34-1.08.33-1.86.1l-5.38-1.59ZM193.76,190.99c.33-1.13-.12-1.86-1.32-2.22l-5.38-1.59c-1.2-.35-1.96.02-2.29,1.15l-3.75,12.7c-.34,1.15.09,1.9,1.29,2.26l5.38,1.59c1.2.35,1.99-.04,2.33-1.19l3.75-12.7ZM183.69,201.2s-.04-.04-.03-.08l1.42-4.81.92.27-1.44,4.88-.87-.26ZM185.23,198.35l-.46-.14-.83,2.81.46.14.83-2.81ZM185.76,194.01l1.27-4.28s.01-.05.06-.03l.87.26-1.28,4.33-.92-.27ZM187.19,191.73l-.46-.14-.67,2.25.46.14.67-2.25ZM186.79,202.12l1.44-4.88.92.27-1.42,4.81s-.02.07-.04.06l-.9-.27ZM188.38,199.29l-.46-.14-.83,2.81.46.14.83-2.81ZM188.92,194.94l1.28-4.33.9.27s.02,0,0,.05l-1.26,4.28-.92-.27ZM190.34,192.66l-.46-.14-.67,2.25.46.14.67-2.25ZM201.16,194.31l1.24.37c.85.25,1.49-.29,1.68-.95.2-.67-.03-1.43-.9-1.69l-7.57-2.24c-.8-.24-1.42.31-1.61.95-.2.67.02,1.46.83,1.69l3.57,1.05-3.39,11.48c-.2.69-.42.93-1.18.7-.51-.15-1.27-.53-2.47-1.11-.07-.02-.13-.06-.18-.08-.71-.21-1.39.39-1.6,1.1-.18.6-.02,1.27.68,1.6,1.21.56,2.26.99,3.13,1.25,2.3.68,3.54.2,4.22-2.1l3.56-12.03ZM197.63,195.24l-3.34-.99c-.53-.16-.85-.53-.97-.96l-3.34,11.32c.34-.32.79-.49,1.28-.35.07.02.14.04.2.08,1.14.54,1.88.91,2.37,1.05.55.16.79.03.95-.5l2.86-9.66Z"/>
  </g>
</svg>