<?xml version="1.0" encoding="UTF-8"?>
<svg id="yukina_L" xmlns="http://www.w3.org/2000/svg" viewBox="0 0 291.25 283.13">
  <defs>
    <style>
      .cls-1, .cls-2 {
        fill: none;
      }

      .cls-1, .cls-2, .cls-3, .cls-4 {
        stroke: #707070;
        stroke-linecap: round;
        stroke-linejoin: round;
      }

      .cls-1, .cls-3 {
        stroke-width: 3px;
      }

      .cls-2, .cls-4 {
        stroke-width: 5px;
      }

      .cls-3 {
        fill: #ffbc5a;
      }

      .cls-4 {
        fill: #fff9e1;
      }
    </style>
  </defs>
  <path class="cls-4" d="M7.13,136.71c-10.05,52.11,56.31,105.27,116.58,100.16,30.52.73,66.08-1.43,87.53-45.78,21.45-44.35,4.8-107.41-20.85-125.15-55.39-40.24-143.9-15.63-156.35,54.04-8.25,17.62-22.2,30.8-26.9,16.73Z"/>
  <path class="cls-2" d="M88.8,152.65c-2.52-5.68-43.53-8.1-51.01-10.91-4.72-1.31-4.91,20.93,3.67,28.68,8.58,7.75,16.83,11.25,32.57,13.29"/>
  <path class="cls-1" d="M129.33,127.96c-.44,3,13.99,17.36,26.63,4.79"/>
  <path class="cls-1" d="M191.19,137.22s13.81,10.46,17.99,1.42"/>
  <path class="cls-3" d="M165.56,149.76s-1.51,4.32-9.3,5.59,2.4,4.6,5.94,5.95c3.53,1.35,10.29,9.86,17.72,10.15s20.18-10.47,18.99-11.99c-11.52-1.71-12.11-15.69-33.34-9.7Z"/>
  <path class="cls-1" d="M237.82,87.37s4.14,2,12.38,3.65c8.24,1.65-12.11,16.6-12.11,16.6,0,0,2.4,3.78,11.19,2.79"/>
  <path class="cls-1" d="M242.24,96.94c.42.88,7.24,7.01,7.24,7.01"/>
  <path class="cls-1" d="M264.66,69.04s5.52,2.67,16.53,4.88c11.01,2.21-16.18,22.17-16.18,22.17,0,0,3.2,5.06,14.95,3.72"/>
  <path class="cls-1" d="M270.58,81.82c.56,1.18,9.67,9.37,9.67,9.37"/>
</svg>