<?xml version="1.0" encoding="UTF-8"?>
<svg id="yumeno_L" xmlns="http://www.w3.org/2000/svg" viewBox="0 0 291.25 283.13">
  <defs>
    <style>
      .cls-1 {
        fill: none;
        stroke: #ffcfcf;
      }

      .cls-1, .cls-2 {
        stroke-width: 3px;
      }

      .cls-1, .cls-2, .cls-3, .cls-4 {
        stroke-linecap: round;
        stroke-linejoin: round;
      }

      .cls-5 {
        fill: #707070;
        stroke-miterlimit: 10;
      }

      .cls-5, .cls-2, .cls-3, .cls-4 {
        stroke: #707070;
      }

      .cls-5, .cls-3, .cls-4 {
        stroke-width: 5px;
      }

      .cls-2 {
        fill: #ffbc5a;
      }

      .cls-3 {
        fill: #fff;
      }

      .cls-4 {
        fill: #fff9e1;
      }
    </style>
  </defs>
  <path class="cls-4" d="M59.87,135.47c5.54-33.71,22.22-54.27,22.1-53.88l22.23,13.26,32.96-14.66,20.55,25.86,24.64-15.02,22.4,23.88,24.76-15.41,10.97,4.78c1.24.54,12.71,31.56,3.02,71.03,0,0-128,80.8-183.63-39.84"/>
  <path class="cls-3" d="M72.01,75.64c10.65-31.88,72.25-73.63,113.47-57.77,34.01,6.63,71.36,68.23,69.66,92.79l-25.62-11.16-24.76,15.41-22.4-23.88-24.64,15.02-20.55-25.86-32.96,14.66c-7.85-4.68-24.57-14.65-32.2-19.2Z"/>
  <path class="cls-3" d="M210.11,184.13l22.44-16.81,19.96,16.67c-25.82,133.35-236.05,93.77-207.49-44.06l14.85-4.45,19.81,30.46c7.7-2.73,33.59-11.97,41.7-14.87l24.14,26.27,32.52-17.68c4.95,3.78,26.99,20.6,32.06,24.47"/>
  <path class="cls-5" d="M184.3,129.77c1.01-3.6,6.65-1.94,5.53,1.64-1.01,3.6-6.65,1.94-5.53-1.64Z"/>
  <path class="cls-5" d="M127.71,119.05c1.01-3.6,6.65-1.94,5.53,1.64-1.01,3.6-6.65,1.94-5.53-1.64Z"/>
  <path class="cls-2" d="M137.11,134.46s4.17-2.7,8.8-2.73,4.25-.14,4.25-.14c0,0,8.72-5.29,18.97,2.73,10.25,8.02,12.22,5.66,10.25,8.02-9.21,8.08-36.94.42-42.28-7.88Z"/>
  <path class="cls-4" d="M90.79,161.98c-1.94-2.25-3.2-3.86-3.2-3.86.57-1.94,2.7-10.56,9.88-13.49,7.18-2.93,18.27-3.86,19.7,10.03,2.14,29.59-14.8,23.05-26.39,7.32"/>
  <path class="cls-4" d="M209.09,179.6c1.72-.77.77-10.07-3.99-14.26-4.76-4.19-18.48-6.47-19.98-3.95-19.7,24.73-14.51,36.88,23.97,18.21Z"/>
  <line class="cls-1" x1="105.67" y1="123.69" x2="104.47" y2="127.75"/>
  <line class="cls-1" x1="113.45" y1="124.28" x2="111.46" y2="127.61"/>
  <line class="cls-1" x1="202.14" y1="141.87" x2="202.88" y2="144.96"/>
  <line class="cls-1" x1="209.23" y1="140.92" x2="209.11" y2="145.37"/>
</svg>