<?xml version="1.0" encoding="UTF-8"?>
<svg xmlns="http://www.w3.org/2000/svg" viewBox="0 0 229.65 225.83">
  <defs>
    <style>
      .cls-1 {
        fill: #5b5b5b;
      }

      .cls-2 {
        fill: none;
      }

      .cls-2, .cls-3 {
        stroke: #cecece;
        stroke-linecap: round;
        stroke-linejoin: round;
        stroke-width: 7px;
      }

      .cls-3 {
        fill: #fff9e1;
      }
    </style>
  </defs>
  <g id="_レイヤー_1" data-name="レイヤー 1">
    <path class="cls-3" d="M224.95,155.23c2.52-2.12.78-6.23-2.5-5.91-36.17-4.16-1.99-39.1-26.9-93.86C165.51-11.74,63.52-13.65,27.71,49.1l-24.04,7.65s-2.19,18.58,9.51,26.01c-.91,53.06,18.17,121.05,101.33,114.55,41.55-3.56,81.27-17.6,110.44-42.08Z"/>
    <path class="cls-2" d="M58.73,187.2s-6.41,15.27-19.55,23.11"/>
    <path class="cls-2" d="M123.21,199.22s-6.41,15.27-19.55,23.11"/>
  </g>
  <g id="amu2km">
    <g>
      <path class="cls-1" d="M72.53,47.81c0,.2-.08.38-.23.52-.15.14-.32.22-.51.22h-10.12c-.55,0-.83.28-.83.83v4.36c0,2.8-.62,5.19-1.87,7.18-.19.3-.45.45-.77.45-.25,0-.46-.09-.63-.26-.17-.17-.25-.39-.25-.64,0-.18.05-.34.14-.49.88-1.28,1.45-2.71,1.71-4.28.06-.37-.05-.56-.32-.56-.12,0-.24.05-.36.16-.24.23-.52.47-.85.74-.13.11-.29.16-.49.16-.22,0-.4-.08-.55-.23s-.22-.34-.22-.56c0-.26.11-.48.34-.65.73-.53,1.38-1.04,1.94-1.55.44-.4.67-.91.67-1.55v-2.9c0-1.12.56-1.67,1.67-1.67h2.86c.48,0,.72-.24.72-.72v-.02c0-.24.09-.45.26-.62s.38-.26.62-.26.45.09.62.26c.17.17.26.38.26.62v.02c0,.48.24.72.72.72h4.72c.19,0,.36.07.51.22.15.14.23.31.23.5ZM58.87,51.42c0,.19-.07.36-.2.5-.13.14-.3.22-.5.22-.36,0-.59-.17-.68-.52-.07-.26-.31-1-.7-2.2-.02-.07-.04-.14-.04-.22,0-.19.07-.36.2-.5.13-.14.3-.22.5-.22.31,0,.53.16.65.47.28.72.53,1.48.76,2.29.01.05.02.11.02.18ZM72.04,59.67c0,.65-.13,1.08-.39,1.3-.26.22-.75.32-1.49.32h-.97c-.18,0-.34-.07-.48-.21s-.21-.3-.21-.48c0-.19.07-.35.21-.49.14-.13.3-.2.48-.2h.59c.4,0,.62-.1.67-.29.02-.1.04-.21.04-.34v-.07c0-.48-.24-.72-.72-.72h-1.51c-.48,0-.72.24-.72.72v.97c0,.2-.07.38-.22.53s-.32.23-.52.23-.38-.08-.54-.23c-.16-.15-.23-.33-.23-.53v-.97c0-.48-.24-.72-.72-.72h-1.33c-.48,0-.72.24-.72.72v1.48c0,.2-.08.38-.23.53s-.33.23-.53.23-.38-.07-.53-.23c-.15-.15-.23-.33-.23-.53v-6.57c0-.98.49-1.48,1.48-1.48h1.31c.3,0,.45-.07.45-.2,0-.06-.08-.15-.23-.27-.16-.12-.25-.21-.3-.27-.04-.06-.06-.17-.06-.32,0-.18.06-.33.19-.46s.28-.19.46-.19c.13,0,.25.04.36.11l.81.54c.25.17.5.25.74.25s.49-.08.76-.25l.56-.36c.23-.14.34-.27.34-.38,0-.13-.14-.2-.43-.2h-5.24c-.17,0-.31-.06-.44-.19s-.19-.28-.19-.46c0-.42.21-.63.63-.63h7.15c.77,0,1.15.28,1.15.83,0,.37-.22.7-.67.99l-1.37.9c-.16.1-.23.2-.23.31,0,.17.13.25.4.25h1.21c.98,0,1.48.49,1.48,1.48v5.54ZM66.03,54.45v-.05c0-.36-.18-.54-.54-.54h-1.69c-.36,0-.54.18-.54.54v.05c0,.36.18.54.54.54h1.69c.36,0,.54-.18.54-.54ZM66.03,56.77v-.05c0-.36-.18-.54-.54-.54h-1.69c-.36,0-.54.18-.54.54v.05c0,.36.18.54.54.54h1.69c.36,0,.54-.18.54-.54ZM70.5,54.45v-.05c0-.36-.18-.54-.54-.54h-1.87c-.36,0-.54.18-.54.54v.05c0,.36.18.54.54.54h1.87c.36,0,.54-.18.54-.54ZM70.5,56.77v-.05c0-.36-.18-.54-.54-.54h-1.87c-.36,0-.54.18-.54.54v.05c0,.36.18.54.54.54h1.87c.36,0,.54-.18.54-.54Z"/>
      <path class="cls-1" d="M91.77,58.55c0,.13-.02.25-.07.36-.68,1.62-1.37,2.43-2.05,2.43-1.5,0-2.25-3.17-2.25-9.5v-3.31c0-.62-.31-.94-.94-.94h-7.33c-.62,0-.94.31-.94.94v4.27c0,3.14-.49,5.84-1.48,8.1-.16.36-.42.54-.79.54-.24,0-.44-.08-.61-.25-.17-.17-.25-.37-.25-.61,0-.11.03-.23.09-.36.59-1.27,1-2.59,1.22-3.94.18-1.1.27-2.47.27-4.1v-4.23c0-1.24.62-1.85,1.85-1.85h8.6c1.24,0,1.85.62,1.85,1.85v4.23c0,1.49.07,2.95.2,4.37.17,1.79.38,2.68.65,2.68.1,0,.26-.35.5-1.04.1-.28.33-.41.7-.41.5,0,.76.26.76.79ZM87.63,60.28c0,.22-.08.4-.23.55s-.33.23-.55.23c-.37,0-.62-.18-.76-.54l-.02-.04c-.13-.34-.35-.5-.65-.5-.07,0-.15,0-.23.02-1.97.43-3.92.74-5.85.94-.23.02-.43-.04-.61-.2-.18-.16-.27-.35-.27-.59,0-.47.39-.77,1.17-.9.59-.04,1.18-.08,1.76-.13.46-.06.68-.32.68-.77v-1.35c0-.48-.24-.72-.72-.72h-.58c-1,0-1.49-.49-1.49-1.48v-2.07c0-.98.5-1.48,1.49-1.48h.58c.48,0,.72-.21.72-.63,0-.4-.25-.57-.76-.52l-1.39.14c-.19.02-.36-.04-.51-.18s-.22-.31-.22-.5c0-.41.21-.63.63-.67,2.27-.17,4.03-.44,5.29-.83.08-.02.15-.04.2-.04.19,0,.36.07.5.22.14.14.22.31.22.5,0,.34-.22.58-.65.74-.13.05-.5.12-1.1.22-.44.07-.67.33-.67.77v.05c0,.48.24.72.72.72h.47c.98,0,1.48.49,1.48,1.48v2.07c0,.98-.49,1.48-1.48,1.48h-.47c-.48,0-.72.24-.72.72v1.03c0,.44.19.67.58.67.06,0,.13,0,.2-.02l.27-.05c.29-.06.43-.19.43-.38,0-.07-.03-.16-.08-.27-.05-.11-.08-.2-.08-.29,0-.19.07-.36.21-.5s.3-.21.5-.21c.28,0,.48.11.61.34.52.88.95,1.76,1.31,2.66.04.08.05.19.05.31ZM82.13,54.41v-1.31c0-.36-.18-.54-.54-.54h-.29c-.37,0-.56.19-.56.56v1.28c0,.37.19.56.56.56h.23c.4,0,.59-.18.59-.54ZM84.93,54.39v-1.28c0-.37-.18-.56-.54-.56h-.23c-.36,0-.54.18-.54.54v1.31c0,.36.18.54.54.54h.23c.36,0,.54-.19.54-.56Z"/>
      <path class="cls-1" d="M107.34,59.2c0,.52-.26.81-.77.88-1.98.28-3.96.41-5.94.41-3.53,0-5.29-1.06-5.29-3.19,0-1.3.91-2.64,2.72-4.03.36-.28.54-.59.54-.95,0-.17-.04-.35-.11-.54-.53-1.33-.97-2.77-1.31-4.3-.01-.06-.02-.13-.02-.2,0-.26.09-.49.28-.67.19-.19.41-.28.67-.28.23,0,.43.08.6.23s.29.35.33.58c.23,1.2.56,2.41.99,3.62.14.4.37.59.68.59.17,0,.34-.05.52-.16.11-.06,1.43-.79,3.98-2.18.16-.08.3-.13.43-.13.25,0,.46.09.64.27.17.18.26.4.26.65,0,.37-.17.64-.5.81-1.48.73-3.07,1.6-4.79,2.59-1.09.64-1.96,1.23-2.61,1.78-.94.8-1.4,1.54-1.4,2.2,0,1.08,1.13,1.62,3.38,1.62,1.86,0,3.75-.16,5.67-.49.26-.05.5.02.72.2.22.18.32.41.32.68Z"/>
      <path class="cls-1" d="M118.47,50.2c0,.96-.48,1.44-1.44,1.44h-2.81c-.48,0-.72.24-.72.72v8.26c0,.23-.08.42-.24.58-.16.16-.36.24-.58.24s-.42-.08-.58-.24c-.16-.16-.24-.36-.24-.58v-13.25c0-.96.48-1.44,1.44-1.44h3.74c.96,0,1.44.48,1.44,1.44v2.83ZM116.85,47.79c0-.34-.19-.5-.58-.5h-2.2c-.38,0-.58.17-.58.5,0,.28.18.41.54.41h2.27c.36,0,.54-.14.54-.41ZM116.85,49.84c0-.3-.18-.45-.54-.45h-2.27c-.36,0-.54.16-.54.47s.18.49.54.49h2.23c.38,0,.58-.17.58-.5ZM124.1,53.06c0,.18-.06.34-.19.47-.13.13-.28.2-.46.2h-.25c-.42,0-.63.21-.63.63v6.05c0,.2-.08.38-.22.54-.15.16-.33.23-.53.23-.22,0-.4-.07-.55-.22-.15-.15-.22-.33-.22-.55v-.36c0-.46-.22-.65-.67-.59-1.51.23-3.21.41-5.09.54-.19.01-.36-.05-.51-.19-.15-.14-.22-.31-.22-.51,0-.43.22-.66.65-.68l.32-.02c.41-.02.61-.24.61-.65v-3.58c0-.42-.21-.63-.63-.63h-.25c-.18,0-.34-.07-.47-.2-.13-.13-.2-.29-.2-.47s.07-.33.2-.46.29-.19.47-.19h8.21c.18,0,.33.06.46.19.13.13.19.28.19.46ZM121.04,54.09c0-.29-.18-.43-.54-.43h-2.32c-.36,0-.54.14-.54.43s.18.43.54.43h2.32c.36,0,.54-.14.54-.43ZM121.04,55.96c0-.29-.18-.43-.54-.43h-2.32c-.36,0-.54.14-.54.43s.18.45.54.45h2.32c.36,0,.54-.15.54-.45ZM121.04,57.76c0-.24-.18-.36-.54-.36h-2.32c-.36,0-.54.17-.54.52s.22.5.65.47c.85-.06,1.6-.13,2.25-.2.33-.04.5-.18.5-.43ZM126.85,58.93c0,.91-.16,1.53-.47,1.85-.31.32-.9.48-1.76.48h-.65c-.2,0-.38-.08-.53-.23-.15-.15-.22-.33-.22-.55,0-.2.07-.38.22-.53.15-.15.33-.23.53-.23h.32c.41,0,.66-.07.76-.2.1-.13.14-.43.14-.9v-6.26c0-.48-.24-.72-.72-.72h-2.92c-.96,0-1.44-.48-1.44-1.44v-2.83c0-.96.48-1.44,1.44-1.44h3.85c.96,0,1.44.48,1.44,1.44v11.56ZM125.2,47.79c0-.34-.19-.5-.56-.5h-2.32c-.4,0-.59.17-.59.5,0,.28.18.41.54.41h2.39c.36,0,.54-.14.54-.41ZM125.2,49.86c0-.31-.18-.47-.54-.47h-2.39c-.36,0-.54.15-.54.45,0,.34.2.5.59.5h2.34c.36,0,.54-.16.54-.49Z"/>
      <path class="cls-1" d="M144.19,50.88c0,.38-.19.64-.56.77-.79.28-1.51.49-2.16.65-.38.1-.58.28-.58.56,0,.16.06.32.18.49.59.82,1.13,1.51,1.64,2.09.17.19.25.41.25.65,0,.28-.1.51-.29.71-.19.2-.43.3-.7.3-.14,0-.28-.02-.41-.07-1.6-.64-3.1-.95-4.5-.95-2.3,0-3.46.55-3.46,1.64s1.45,1.6,4.36,1.6c1,0,2.12-.07,3.38-.2.24-.02.46.04.65.21s.29.36.29.6c0,.49-.25.76-.76.81-1.14.12-2.34.18-3.6.18-4.04,0-6.07-1.06-6.07-3.17s1.62-3.15,4.86-3.15c.76,0,1.64.11,2.65.34.1.02.18.04.25.04.24,0,.36-.08.36-.25,0-.12-.06-.26-.18-.41-.06-.08-.22-.31-.49-.67-.32-.44-.73-.67-1.21-.67-.14,0-.31.01-.49.04-1.67.23-3.5.33-5.49.31-.22,0-.4-.08-.55-.23-.15-.16-.22-.34-.22-.56s.08-.41.23-.57c.16-.16.34-.24.56-.23,1.49.05,3.08-.02,4.77-.2.46-.05.68-.23.68-.54,0-.14-.05-.28-.14-.41-.29-.49-.7-.71-1.24-.65-1.03.12-2.22.18-3.56.18-.2,0-.39-.08-.55-.23s-.24-.34-.24-.54c0-.22.08-.4.24-.55.16-.15.34-.22.55-.22,1,.01,1.92-.02,2.77-.09.5-.05.76-.21.76-.49,0-.01-.11-.28-.32-.79-.04-.08-.05-.18-.05-.29,0-.24.08-.45.25-.62.17-.17.38-.26.63-.26.4,0,.67.19.81.58.05.14.13.37.25.67.18.46.48.68.9.68.11,0,.22-.02.34-.05.84-.22,1.68-.47,2.52-.77.1-.04.19-.05.27-.05.23,0,.42.08.58.23.16.16.24.35.24.58,0,.41-.19.67-.58.79-.89.29-1.67.51-2.34.67-.43.1-.65.29-.65.59,0,.13.05.26.14.4l.04.05c.25.38.56.58.92.58.1,0,.2-.01.31-.04.95-.23,1.84-.5,2.66-.81.06-.02.14-.04.25-.04.23,0,.42.08.58.23.16.16.24.35.24.58Z"/>
      <path class="cls-1" d="M162.59,58.71c0,.25-.09.47-.26.64-.17.17-.39.26-.64.26-.17,0-.32-.04-.47-.13-1.2-.71-2.27-1.24-3.2-1.6-.12-.05-.23-.07-.32-.07-.35,0-.55.24-.61.72-.1.72-.34,1.25-.72,1.6-.6.54-1.67.81-3.22.81-.98,0-1.8-.19-2.45-.56-.79-.47-1.19-1.16-1.19-2.09,0-1.04.5-1.81,1.49-2.29.74-.36,1.7-.54,2.88-.54.13,0,.34,0,.61.02.62.02.94-.24.94-.79v-.5c0-.6-.31-.89-.92-.88-1.27.04-2.5.05-3.67.04-.22,0-.4-.08-.55-.24-.15-.16-.23-.35-.23-.57s.08-.4.24-.55c.16-.15.35-.23.57-.23,1.18.02,2.39.02,3.65,0,.59-.01.88-.32.88-.92v-.07c0-.61-.31-.91-.94-.88-1.45.06-2.83.07-4.12.04-.22-.01-.4-.1-.56-.26-.16-.16-.23-.35-.23-.57,0-.23.08-.42.25-.58.17-.16.37-.23.59-.22,1.34.04,2.71.04,4.1,0,.59-.01.88-.3.88-.86,0-.05,0-.32-.02-.81,0-.24.08-.45.25-.62.17-.17.37-.26.61-.26s.44.09.61.26c.17.17.25.38.25.62v.61c0,.64.31.92.94.86.92-.1,1.93-.22,3.02-.38.24-.04.45.03.64.19.19.16.28.36.28.6,0,.46-.23.71-.7.77-1.3.17-2.39.29-3.29.38-.58.06-.86.37-.86.94v.05c0,.64.31.92.94.86.64-.06,1.52-.17,2.65-.34.24-.04.46.03.65.19.19.16.29.36.29.6,0,.47-.23.73-.68.79-.96.13-1.95.25-2.97.34-.58.05-.86.36-.86.94v.81c0,.66.33,1.1.99,1.31,1.22.4,2.56.98,4.01,1.75.31.17.47.43.47.79ZM155.37,58.01c.08-.6-.16-.92-.72-.97-.26-.02-.52-.04-.77-.04-1.73,0-2.59.41-2.59,1.24,0,.34.16.61.5.81.33.2.76.31,1.3.31.8,0,1.37-.09,1.69-.28.32-.19.52-.54.59-1.07Z"/>
      <path class="cls-1" d="M44.58,77.03c0,.17-.05.33-.14.49-.82,1.33-1.79,2.39-2.93,3.19-1.28.88-2.65,1.31-4.09,1.31-3.16,0-4.73-1.43-4.73-4.28,0-1.16.02-2.69.07-4.59.04-1.54.07-3.2.09-5,0-.25.1-.47.29-.66s.41-.28.67-.28.49.1.68.29c.19.19.28.42.27.68l-.22,9.16c0,1.88,1,2.83,2.99,2.83,1.07,0,2.09-.38,3.08-1.13.84-.62,1.58-1.46,2.21-2.5.18-.3.45-.45.81-.45.26,0,.49.09.67.28s.28.41.28.67Z"/>
      <path class="cls-1" d="M57.67,70.98c-.88.17-1.76.31-2.66.41-.49.06-.85.19-1.07.38-.22.19-.39.52-.5.99-.67,2.84-1.51,5.57-2.5,8.19-.16.4-.45.59-.88.59-.26,0-.49-.09-.67-.28-.18-.19-.27-.41-.27-.66,0-.12.02-.24.07-.36,1.02-2.41,1.85-4.97,2.5-7.67.02-.1.04-.19.04-.27,0-.42-.25-.62-.76-.61-.5.01-.97.01-1.39,0-.24-.01-.45-.1-.62-.28-.17-.17-.26-.38-.26-.62s.09-.47.28-.65c.19-.18.41-.26.66-.25.68.02,1.24.03,1.66.02.67-.02,1.06-.35,1.15-.99.04-.26.1-.66.18-1.18s.39-.78.92-.78c.25,0,.47.09.65.27s.27.39.27.63c0,.12-.05.42-.14.9-.01.08-.02.16-.02.23,0,.48.26.68.79.59.07-.01.49-.1,1.26-.25.58-.11.97-.16,1.19-.16.25,0,.46.09.62.27.16.18.24.4.24.65,0,.49-.25.79-.74.88ZM63.35,80.45c0,.52-.25.81-.76.88-1.14.17-2.34.25-3.6.25-3.19,0-4.79-.89-4.79-2.68,0-.41.1-.88.31-1.4.14-.36.41-.54.81-.54.56,0,.85.29.85.86,0,.1-.02.23-.05.41s-.05.31-.05.4c0,.82,1.03,1.22,3.08,1.22.9,0,1.97-.09,3.2-.27.26-.04.5.03.7.21.2.17.31.39.31.66ZM62.85,73.76c0,.25-.1.47-.29.65s-.41.26-.67.25c-1.79-.1-3.7-.05-5.74.13-.25.02-.47-.05-.66-.23-.19-.17-.28-.39-.28-.64,0-.23.07-.42.23-.58.15-.16.33-.25.55-.28,2.03-.2,4.02-.28,5.98-.22.24.01.45.11.62.29.17.18.26.39.26.63Z"/>
      <path class="cls-1" d="M77.03,73.47c0,1.94-.32,4.06-.95,6.34-.19.68-.4,1.17-.63,1.46-.32.43-.77.65-1.35.65-.66,0-1.49-.17-2.48-.52-.41-.14-.61-.41-.61-.81,0-.24.09-.44.26-.61.17-.17.38-.25.6-.25.1,0,.18.01.25.04.62.2,1.06.31,1.3.31.29,0,.49-.08.61-.25.1-.12.2-.39.32-.81.56-1.93.85-3.68.85-5.26,0-.58-.11-.96-.34-1.15-.23-.19-.66-.29-1.3-.29h-.25c-.11.01-.2.02-.27.02-.6,0-.99.31-1.17.94-.8,2.72-1.87,5.36-3.2,7.9-.18.35-.46.52-.85.52-.26,0-.49-.09-.67-.28-.18-.19-.27-.41-.27-.68,0-.19.04-.35.11-.49,1.13-1.98,2.12-4.22,2.99-6.71.04-.12.05-.23.05-.32,0-.43-.26-.61-.77-.54-.37.06-.95.14-1.75.25-.25.04-.48-.03-.69-.21-.21-.17-.31-.39-.31-.66,0-.5.26-.79.79-.87.53-.08,1.36-.18,2.5-.31.58-.05.97-.41,1.17-1.08.11-.59.21-1.18.31-1.76.08-.52.38-.77.9-.77.29,0,.52.11.69.31.17.21.24.46.19.75-.01.06-.07.32-.16.79-.08.32-.13.58-.13.77,0,.5.28.74.85.7l.27-.02c.91-.06,1.65.1,2.21.49.62.43.94,1.24.94,2.43ZM79.45,69.53c0,.19-.07.36-.21.5-.14.14-.3.21-.5.21-.29,0-.5-.11-.63-.32-.35-.55-.72-1.03-1.12-1.42-.13-.13-.2-.29-.2-.49,0-.48.23-.72.7-.72.2,0,.38.09.54.27.5.56.92,1.09,1.26,1.58.1.14.14.28.14.4ZM80.6,75.83c-.5-1.31-1.18-2.59-2.03-3.83-.1-.14-.14-.31-.14-.49,0-.25.09-.46.28-.64.19-.17.41-.26.66-.26.3,0,.55.13.74.4.95,1.33,1.72,2.71,2.3,4.14.05.12.07.24.07.36,0,.25-.1.47-.31.67s-.45.29-.71.29c-.4,0-.68-.21-.85-.63ZM81.64,68.5c0,.19-.07.36-.21.49-.14.14-.3.21-.49.21-.28,0-.49-.11-.63-.32-.4-.59-.77-1.07-1.12-1.46-.13-.14-.2-.29-.2-.45,0-.48.24-.72.72-.72.18,0,.35.08.52.25.42.42.85.95,1.28,1.6.08.17.13.3.13.4Z"/>
      <path class="cls-1" d="M89.02,81.24c0,.29-.1.53-.29.72s-.43.29-.72.29c-.31,0-.57-.12-.77-.36-.71-.85-1.42-1.58-2.14-2.2-.23-.19-.34-.43-.34-.72s.09-.51.28-.69.42-.28.69-.28c.24,0,.45.08.63.23,1.01.88,1.81,1.65,2.41,2.32.17.18.25.41.25.68Z"/>
      <path class="cls-1" d="M117.5,71.9c0,.11-.01.25-.04.41-.35,2.46-1.12,4.44-2.3,5.94-1.19,1.5-2.95,2.69-5.27,3.58-.12.05-.23.07-.32.07-.25,0-.47-.09-.65-.27-.18-.18-.27-.4-.27-.67,0-.41.21-.7.61-.86,1.98-.79,3.46-1.82,4.45-3.08.46-.59.85-1.27,1.19-2.03.36-.85.54-1.61.54-2.27,0-.34-.09-.56-.28-.67s-.53-.16-1.02-.16h-7.04c-.52,0-.85.08-1.02.24-.16.16-.24.5-.24,1.02v1.39c0,.25-.09.47-.27.65-.18.18-.4.27-.65.27s-.47-.09-.65-.27c-.18-.18-.27-.4-.27-.65v-2.34c0-1.38.69-2.07,2.07-2.07h2.66c.6,0,.9-.3.9-.9v-1.12c0-.25.09-.47.27-.66.18-.19.4-.28.67-.28s.47.09.65.28.27.4.27.66v1.12c0,.6.3.9.9.9h3.12c1.33,0,2,.59,2,1.76Z"/>
      <path class="cls-1" d="M136.25,78.62c0,.25-.09.47-.27.65-.18.18-.4.27-.65.27h-13.27c-.25,0-.47-.09-.65-.27-.18-.18-.27-.4-.27-.65s.09-.46.27-.64c.18-.17.4-.26.65-.26h13.27c.25,0,.47.09.65.26s.27.39.27.64ZM134.4,70.61c0,.25-.09.46-.26.64-.17.17-.39.26-.64.26h-9.68c-.25,0-.46-.09-.64-.26-.17-.17-.26-.39-.26-.64s.09-.47.26-.65c.17-.18.39-.27.64-.27h9.68c.25,0,.46.09.64.27.17.18.26.4.26.65Z"/>
      <path class="cls-1" d="M142.91,68.27c-.46,2.72-.68,5.4-.68,8.03,0,1.51.08,2.98.23,4.41.04.28-.04.52-.22.72-.19.2-.42.31-.69.31-.24,0-.45-.08-.63-.25-.18-.17-.28-.37-.31-.59-.13-1.39-.2-2.91-.2-4.55,0-2.78.23-5.57.68-8.35.08-.52.38-.77.9-.77.28,0,.51.11.7.32.19.22.26.46.22.74ZM154.61,79.5c0,.25-.08.46-.25.63-.17.17-.38.25-.63.25-.2,0-.38-.05-.52-.16-.23-.17-.58-.4-1.04-.68-.14-.1-.28-.14-.41-.14-.26,0-.47.2-.63.61-.43,1.15-1.55,1.73-3.35,1.73-.91,0-1.68-.19-2.3-.58-.74-.46-1.12-1.11-1.12-1.96s.31-1.51.94-1.99c.62-.47,1.48-.71,2.57-.71.31,0,.62.02.94.07.29.05.51,0,.66-.12.15-.13.22-.33.22-.6l-.05-2.77c-.01-.61-.32-.9-.94-.86-.92.05-1.97.06-3.15.04-.23,0-.42-.08-.58-.25-.16-.17-.24-.37-.24-.59,0-.24.09-.44.26-.6s.38-.24.62-.23c1.04.05,2.09.05,3.13,0,.58-.02.86-.34.85-.94l-.02-1.6c0-.24.08-.45.25-.62.17-.17.37-.26.61-.26s.44.08.61.25.25.37.25.61l.02,1.35c.01.56.26.85.76.85.06,0,.13,0,.22-.02l1.1-.2c.25-.05.48,0,.68.17.2.16.31.38.31.64,0,.43-.27.73-.81.88-.08.02-.54.09-1.37.2-.56.07-.84.39-.83.95l.05,3.4c.01.67.33,1.16.95,1.48.71.36,1.32.7,1.84,1.03.28.18.41.43.41.76ZM149.54,79.17c.04-.11.05-.21.05-.31,0-.4-.24-.64-.72-.74-.37-.07-.73-.11-1.06-.11-1.2,0-1.8.36-1.8,1.08,0,.31.16.56.47.76.31.19.71.29,1.19.29,1.03,0,1.66-.32,1.87-.97Z"/>
      <path class="cls-1" d="M164.23,79.88c0,.22-.08.4-.23.57-.16.16-.35.24-.58.24-.22,0-.4-.07-.54-.2-.19-.16-.49-.42-.9-.79-.17-.16-.33-.23-.49-.23-.19,0-.37.11-.52.32-.31.41-1.09,1.16-2.32,2.27-.17.14-.35.22-.56.22-.23,0-.43-.08-.59-.25-.17-.17-.25-.37-.25-.59,0-.28.09-.49.27-.63.84-.66,1.58-1.35,2.21-2.07.14-.16.22-.32.22-.49,0-.19-.1-.37-.31-.54-.24-.19-.72-.57-1.44-1.13-.35-.28-.52-.58-.52-.92,0-.13.03-.29.09-.47.25-.73.61-1.82,1.08-3.26.04-.1.05-.19.05-.29,0-.36-.22-.54-.67-.54h-.61c-.21,0-.38-.07-.53-.23-.15-.15-.23-.33-.23-.55,0-.2.08-.38.23-.53.15-.15.33-.22.53-.22h1.19c.44,0,.71-.21.79-.63.05-.23.16-.79.34-1.69.08-.46.36-.68.83-.68.24,0,.45.1.62.31s.24.4.21.59c-.05.25-.14.68-.27,1.28-.02.1-.04.18-.04.25,0,.38.22.58.65.58h.85c1.03,0,1.49.52,1.39,1.55-.26,2.53-.79,4.59-1.58,6.17-.07.14-.11.28-.11.41,0,.22.1.41.31.58.13.13.52.46,1.15.97.19.16.29.37.29.63ZM162.57,71.81c.05-.48-.11-.72-.49-.72h-.76c-.43,0-.7.2-.79.61-.16.68-.5,1.74-1.03,3.17-.05.12-.07.23-.07.34,0,.24.11.44.32.61l.65.5c.17.13.33.2.5.2.22,0,.4-.13.54-.38.55-1,.92-2.44,1.12-4.34ZM173.46,74.24c0,.22-.08.4-.23.55-.15.15-.33.22-.53.22h-2.14c-.54,0-.81.27-.81.81v4.25c0,.84-.14,1.4-.43,1.67s-.86.41-1.71.41h-.95c-.22,0-.4-.08-.56-.23s-.23-.34-.23-.56.08-.4.23-.56.34-.23.56-.23h.83c.3,0,.49-.09.58-.27.06-.12.09-.35.09-.7v-3.76c0-.54-.27-.81-.81-.81h-2.21c-.2,0-.38-.07-.54-.22-.16-.15-.23-.33-.23-.55s.08-.4.23-.55c.16-.15.34-.23.54-.23h2.21c.54,0,.81-.27.81-.81v-1.17c0-.36.18-.6.54-.72.18-.06.3-.1.36-.13.11-.06.2-.14.29-.23.38-.47.63-.78.74-.94.08-.12.13-.23.13-.32,0-.24-.19-.36-.58-.36h-3.64c-.2,0-.38-.08-.52-.23-.14-.15-.22-.33-.22-.53s.07-.38.22-.51c.14-.14.32-.21.52-.21h5.24c.86,0,1.3.34,1.3,1.03,0,.34-.13.67-.38,1.01l-.09.13c-.52.67-1.12,1.41-1.8,2.21-.34.4-.5.72-.5.97,0,.54.27.81.81.81h2.14c.2,0,.38.08.53.23.15.15.23.33.23.55Z"/>
      <path class="cls-1" d="M50.56,92.88c0,.38-.19.64-.56.77-.79.28-1.51.49-2.16.65-.38.1-.58.28-.58.56,0,.16.06.32.18.49.59.82,1.13,1.51,1.64,2.09.17.19.25.41.25.65,0,.28-.1.51-.29.71-.19.2-.43.3-.7.3-.14,0-.28-.02-.41-.07-1.6-.64-3.1-.95-4.5-.95-2.3,0-3.46.55-3.46,1.64s1.45,1.6,4.36,1.6c1,0,2.12-.07,3.38-.2.24-.02.46.05.65.21.19.16.29.36.29.6,0,.49-.25.76-.76.81-1.14.12-2.34.18-3.6.18-4.04,0-6.07-1.06-6.07-3.17s1.62-3.15,4.86-3.15c.76,0,1.64.11,2.65.34.1.02.18.04.25.04.24,0,.36-.08.36-.25,0-.12-.06-.26-.18-.41-.06-.08-.22-.31-.49-.67-.32-.44-.73-.67-1.21-.67-.14,0-.31.01-.49.04-1.67.23-3.5.33-5.49.31-.22,0-.4-.08-.55-.23-.15-.16-.22-.34-.22-.56s.08-.41.23-.57c.16-.16.34-.24.56-.23,1.49.05,3.08-.02,4.77-.2.46-.05.68-.23.68-.54,0-.14-.05-.28-.14-.41-.29-.49-.7-.71-1.24-.65-1.03.12-2.22.18-3.56.18-.2,0-.39-.08-.55-.23-.16-.16-.24-.34-.24-.54,0-.22.08-.4.24-.55.16-.15.34-.22.55-.22,1,.01,1.92-.02,2.77-.09.5-.05.76-.21.76-.49,0-.01-.11-.28-.32-.79-.04-.08-.05-.18-.05-.29,0-.24.08-.45.25-.62.17-.17.38-.26.63-.26.4,0,.67.19.81.58.05.14.13.37.25.67.18.46.48.68.9.68.11,0,.22-.02.34-.05.84-.22,1.68-.47,2.52-.77.1-.04.19-.05.27-.05.23,0,.42.08.58.23.16.16.24.35.24.58,0,.41-.19.67-.58.79-.89.29-1.67.51-2.34.67-.43.1-.65.29-.65.59,0,.13.05.26.14.4l.04.05c.25.38.56.58.92.58.1,0,.2-.01.31-.04.95-.23,1.84-.5,2.66-.81.06-.02.14-.04.25-.04.23,0,.42.08.58.23.16.16.24.35.24.58Z"/>
      <path class="cls-1" d="M69.06,90.08c0,.48-.32.77-.97.86-1.81.28-3.42,1.02-4.82,2.24-1.4,1.22-2.11,2.5-2.11,3.84,0,1.94,1.55,3.19,4.66,3.73.52.08.77.39.77.92,0,.29-.11.53-.33.73-.22.2-.48.27-.77.21-1.86-.36-3.28-.91-4.25-1.66-1.28-1-1.93-2.26-1.93-3.78,0-1.3.44-2.47,1.31-3.53.38-.46.76-.84,1.13-1.15s.56-.58.56-.79c0-.29-.31-.41-.92-.36-2.46.22-4.46.43-5.99.63-.26.04-.49-.04-.68-.22-.19-.18-.29-.4-.29-.67,0-.23.07-.43.22-.6s.34-.27.57-.28c2.21-.22,6.45-.54,12.73-.97.32-.01.59.06.79.23.2.16.31.37.31.62ZM68.09,95.39c0,.19-.07.36-.21.5s-.3.21-.5.21c-.29,0-.5-.11-.63-.32-.35-.55-.72-1.03-1.12-1.42-.13-.13-.2-.29-.2-.49,0-.48.23-.72.7-.72.2,0,.38.09.54.27.5.56.92,1.09,1.26,1.58.1.14.14.28.14.4ZM70.29,94.36c0,.19-.07.36-.21.5-.14.14-.3.21-.5.21-.28,0-.49-.11-.63-.32-.4-.59-.77-1.07-1.12-1.46-.13-.14-.2-.29-.2-.45,0-.48.24-.72.72-.72.18,0,.35.08.52.25.42.42.85.95,1.28,1.6.08.17.13.3.13.4Z"/>
      <path class="cls-1" d="M88.2,91.07c0,.24-.08.44-.25.61s-.37.25-.61.25c-1.88-.02-3.15-.03-3.8-.02-.59,0-.88.31-.88.92v.99c0,.44.12,1.12.36,2.03.1.37.14.76.14,1.15,0,1.58-.43,2.88-1.3,3.9-.86,1.01-2.2,1.8-4.01,2.37-.08.02-.17.04-.27.04-.23,0-.43-.08-.6-.25s-.26-.38-.26-.63c0-.42.21-.7.63-.83,1.7-.52,2.89-1.31,3.56-2.38.12-.19.18-.35.18-.49,0-.17-.09-.25-.27-.25-.11,0-.23.04-.38.11-.34.17-.7.25-1.1.25-.89,0-1.6-.22-2.14-.67-.59-.49-.88-1.17-.88-2.03s.33-1.61.99-2.14c.61-.49,1.37-.74,2.29-.74.08,0,.21,0,.38.02.17.01.29.02.36.02.35,0,.52-.15.52-.45,0-.61-.31-.91-.92-.88-2.18.08-4.39.21-6.61.38-.25.02-.47-.05-.66-.23-.19-.17-.28-.39-.28-.64s.08-.44.24-.6.36-.25.58-.26l6.7-.32c.58-.02.86-.29.86-.81v-.81c0-.25.09-.47.28-.66.19-.19.41-.28.66-.28s.47.09.65.27.27.4.27.65v.68c0,.61.3.91.9.9,1.81-.02,3.08-.03,3.82-.02.24,0,.44.08.6.24.16.16.24.36.24.6ZM80.75,96.21c.05-.17.07-.32.07-.47,0-.46-.19-.76-.58-.92-.2-.08-.44-.13-.72-.13-.41,0-.75.13-1.04.4-.28.26-.42.59-.42.99,0,.83.44,1.24,1.31,1.24.72,0,1.18-.37,1.37-1.12Z"/>
      <path class="cls-1" d="M101.37,94.36c0,1.9-.32,4.01-.95,6.34-.18.67-.38,1.16-.61,1.46-.34.43-.79.65-1.37.65-.62,0-1.45-.17-2.48-.52-.41-.13-.61-.4-.61-.81,0-.24.09-.44.26-.61.17-.17.38-.25.6-.25.1,0,.22.02.38.07.52.18.91.27,1.17.27.29,0,.49-.08.61-.25.1-.13.2-.4.32-.81.56-2.02.85-3.77.85-5.26,0-.58-.11-.96-.34-1.15s-.66-.29-1.3-.29c-.56,0-.95.06-1.15.18-.25.14-.43.4-.54.77-.78,2.62-1.85,5.25-3.2,7.9-.18.35-.46.52-.85.52-.26,0-.49-.09-.67-.28-.18-.19-.27-.41-.27-.67,0-.2.04-.37.11-.49,1.22-2.12,2.22-4.36,2.99-6.71.04-.12.05-.23.05-.32,0-.43-.26-.61-.77-.54-.37.05-.95.13-1.75.25-.25.04-.48-.03-.69-.21-.21-.17-.32-.39-.32-.66,0-.5.26-.79.78-.86.52-.07,1.36-.18,2.51-.32.58-.06.97-.42,1.17-1.08.04-.1.14-.68.31-1.76.08-.52.38-.77.9-.77.29,0,.52.1.69.31.17.21.24.46.19.75-.01.06-.07.32-.16.79-.08.35-.13.61-.13.77,0,.5.28.74.85.7l.27-.02c.92-.06,1.66.1,2.21.49.62.43.94,1.24.94,2.43ZM106.81,95.71c0,.26-.09.49-.28.68s-.41.29-.67.29c-.43,0-.73-.21-.9-.63-.62-1.62-1.42-3.1-2.39-4.43-.11-.14-.16-.31-.16-.5,0-.25.09-.47.26-.65.17-.18.39-.27.64-.27.3,0,.55.13.74.38,1.09,1.43,2,3.02,2.72,4.77.04.08.05.2.05.36Z"/>
      <path class="cls-1" d="M121.26,91.93c0,.95-.34,1.75-1.03,2.39-.68.49-1.32.97-1.91,1.42-.68.53-1.03,1.14-1.03,1.84v.27c0,.23-.09.42-.27.57s-.38.23-.61.23c-.25,0-.46-.09-.64-.26-.17-.17-.26-.39-.26-.64v-.36c0-.97.32-1.77.97-2.39l1.78-1.35c.65-.49.97-1.03.97-1.62,0-1.22-.86-1.84-2.57-1.84-1.27,0-2.38.44-3.33,1.31-.22.2-.44.31-.68.31-.26,0-.49-.09-.67-.28-.19-.19-.28-.41-.28-.68s.08-.47.23-.63c1.2-1.19,2.83-1.78,4.88-1.78,1.28,0,2.31.25,3.08.76.91.6,1.37,1.51,1.37,2.74ZM117.68,101.24c0,.36-.12.66-.36.91-.24.25-.54.37-.9.37s-.67-.12-.92-.37c-.25-.25-.38-.55-.38-.91s.13-.66.38-.91.56-.37.92-.37.65.13.89.38c.25.25.37.55.37.9Z"/>
      <path class="cls-1" d="M134.76,92.88c0,.2-.08.38-.22.52-.15.14-.33.22-.53.22h-1.49c-.42,0-.63.15-.63.45,0,.13.05.27.14.41.48.71,1.21,1.55,2.18,2.54.14.14.22.32.22.52s-.07.38-.22.52c-.14.14-.32.22-.52.22-.29,0-.71-.35-1.26-1.04-.16-.2-.31-.31-.45-.31-.22,0-.32.18-.32.54v5.18c0,.22-.08.4-.23.57-.16.16-.34.24-.56.24s-.4-.08-.57-.24-.24-.35-.24-.57v-4.88c0-.31-.08-.47-.25-.47-.12,0-.24.1-.36.29-.37.59-.77,1.15-1.21,1.69-.17.2-.37.31-.59.31-.22,0-.4-.07-.55-.22-.15-.15-.23-.33-.23-.55,0-.2.06-.37.18-.5,1.08-1.24,1.97-2.52,2.66-3.85.07-.13.11-.25.11-.36,0-.32-.22-.49-.65-.49h-1.58c-.2,0-.38-.07-.52-.22-.14-.14-.22-.32-.22-.52s.07-.38.22-.53c.14-.15.32-.23.52-.23h1.66c.54,0,.81-.27.81-.81v-.45c0-.58-.28-.83-.85-.77l-1.24.13c-.2.02-.39-.04-.55-.18s-.24-.32-.24-.52c0-.43.22-.67.67-.7,1.97-.18,3.71-.49,5.22-.92.08-.02.15-.04.2-.04.2,0,.38.07.52.22.14.14.22.32.22.52,0,.34-.2.59-.59.76-.11.05-.45.13-1.03.25-.48.11-.72.4-.72.88v.83c0,.54.27.81.81.81h1.55c.2,0,.38.08.53.23.15.15.22.33.22.53ZM143.19,101.81c0,.23-.08.43-.24.59-.16.17-.36.25-.6.25-.42,0-.7-.21-.83-.63l-.07-.23c-.12-.38-.35-.58-.7-.58-.1,0-.21.02-.32.05-.29.1-1.15.34-2.57.74-1.9.53-3.05.79-3.47.79-.24,0-.44-.08-.6-.24s-.24-.36-.24-.6c0-.47.24-.75.71-.86.47-.1.77-.45.89-1.04.78-3.95,1.43-7.73,1.94-11.34.07-.49.36-.74.86-.74.25,0,.46.1.63.31s.23.43.2.68c-.5,3.11-1.13,6.65-1.89,10.62-.01.08-.02.16-.02.23,0,.38.19.58.56.58.08,0,.17-.01.27-.04.5-.12,1.25-.32,2.23-.59.38-.12.58-.34.58-.67,0-.11-.02-.23-.07-.36-.4-1.04-.72-1.88-.97-2.5-.04-.08-.05-.18-.05-.29,0-.23.08-.42.23-.58.16-.16.35-.23.58-.23.33,0,.58.17.74.5.88,1.94,1.61,3.91,2.21,5.9.02.12.04.2.04.25Z"/>
      <path class="cls-1" d="M149.02,89.27c-.46,2.72-.68,5.4-.68,8.03,0,1.51.08,2.98.23,4.41.04.28-.04.52-.22.72-.19.2-.42.31-.69.31-.24,0-.45-.08-.63-.25s-.28-.37-.31-.59c-.13-1.39-.2-2.91-.2-4.55,0-2.78.23-5.57.68-8.35.08-.52.38-.77.9-.77.28,0,.51.11.7.32.19.22.26.46.22.74ZM160.72,100.5c0,.25-.08.46-.25.63-.17.17-.38.25-.63.25-.2,0-.38-.05-.52-.16-.23-.17-.58-.4-1.04-.68-.14-.1-.28-.14-.41-.14-.26,0-.47.2-.63.61-.43,1.15-1.55,1.73-3.35,1.73-.91,0-1.68-.19-2.3-.58-.74-.46-1.12-1.11-1.12-1.96s.31-1.51.94-1.99c.62-.47,1.48-.71,2.57-.71.31,0,.62.02.94.07.29.05.51,0,.66-.12.15-.13.22-.33.22-.6l-.05-2.77c-.01-.61-.32-.9-.94-.86-.92.05-1.97.06-3.15.04-.23,0-.42-.08-.58-.25-.16-.17-.24-.37-.24-.59,0-.24.09-.44.26-.6s.38-.24.62-.23c1.04.05,2.09.05,3.13,0,.58-.02.86-.34.85-.94l-.02-1.6c0-.24.08-.45.25-.62.17-.17.37-.26.61-.26s.44.08.61.25.25.37.25.61l.02,1.35c.01.56.26.85.76.85.06,0,.13,0,.22-.02l1.1-.2c.25-.05.48,0,.68.17.2.16.31.38.31.64,0,.43-.27.73-.81.88-.08.02-.54.09-1.37.2-.56.07-.84.39-.83.95l.05,3.4c.01.67.33,1.16.95,1.48.71.36,1.32.7,1.84,1.03.28.18.41.43.41.76ZM155.64,100.17c.04-.11.05-.21.05-.31,0-.4-.24-.64-.72-.74-.37-.07-.73-.11-1.06-.11-1.2,0-1.8.36-1.8,1.08,0,.31.16.56.47.76.31.19.71.29,1.19.29,1.03,0,1.66-.32,1.87-.97Z"/>
      <path class="cls-1" d="M170.33,100.88c0,.22-.08.41-.23.57-.16.16-.35.24-.58.24-.22,0-.4-.07-.54-.2-.19-.16-.49-.42-.9-.79-.17-.16-.33-.23-.49-.23-.19,0-.37.11-.52.32-.31.41-1.09,1.16-2.32,2.27-.17.14-.35.22-.56.22-.23,0-.43-.08-.59-.25-.17-.17-.25-.37-.25-.59,0-.28.09-.49.27-.63.84-.66,1.58-1.35,2.21-2.07.14-.16.22-.32.22-.49,0-.19-.1-.37-.31-.54-.24-.19-.72-.57-1.44-1.13-.35-.28-.52-.58-.52-.92,0-.13.03-.29.09-.47.25-.73.61-1.82,1.08-3.26.04-.1.05-.19.05-.29,0-.36-.22-.54-.67-.54h-.61c-.21,0-.38-.07-.53-.23-.15-.15-.23-.33-.23-.55,0-.2.08-.38.23-.53.15-.15.33-.22.53-.22h1.19c.44,0,.71-.21.79-.63.05-.23.16-.79.34-1.69.08-.46.36-.68.83-.68.24,0,.45.1.62.31s.24.4.21.59c-.05.25-.14.68-.27,1.28-.02.1-.04.18-.04.25,0,.38.22.58.65.58h.85c1.03,0,1.49.52,1.39,1.55-.26,2.53-.79,4.59-1.58,6.17-.07.14-.11.28-.11.41,0,.22.1.41.31.58.13.13.52.46,1.15.97.19.16.29.37.29.63ZM168.67,92.81c.05-.48-.11-.72-.49-.72h-.76c-.43,0-.7.2-.79.61-.16.68-.5,1.74-1.03,3.17-.05.12-.07.23-.07.34,0,.24.11.44.32.61l.65.5c.17.13.33.2.5.2.22,0,.4-.13.54-.38.55-1,.92-2.44,1.12-4.34ZM179.56,95.24c0,.22-.08.4-.23.55-.15.15-.33.22-.53.22h-2.14c-.54,0-.81.27-.81.81v4.25c0,.84-.14,1.39-.43,1.67-.29.27-.86.4-1.71.4h-.95c-.22,0-.4-.08-.56-.23-.16-.16-.23-.34-.23-.56s.08-.4.23-.56.34-.23.56-.23h.83c.3,0,.49-.09.58-.27.06-.12.09-.35.09-.7v-3.76c0-.54-.27-.81-.81-.81h-2.21c-.2,0-.38-.07-.54-.22-.16-.15-.23-.33-.23-.55s.08-.4.23-.55c.16-.15.34-.23.54-.23h2.21c.54,0,.81-.27.81-.81v-1.17c0-.36.18-.6.54-.72.18-.06.3-.1.36-.13.11-.06.2-.14.29-.23.38-.47.63-.78.74-.94.08-.12.13-.23.13-.32,0-.24-.19-.36-.58-.36h-3.64c-.2,0-.38-.08-.52-.23-.14-.15-.22-.33-.22-.53s.07-.38.22-.51c.14-.14.32-.21.52-.21h5.24c.86,0,1.3.34,1.3,1.03,0,.34-.13.67-.38,1.01l-.09.13c-.52.67-1.12,1.41-1.8,2.21-.34.4-.5.72-.5.97,0,.54.27.81.81.81h2.14c.2,0,.38.08.53.23.15.15.23.33.23.55Z"/>
      <path class="cls-1" d="M53.4,113.88c0,.38-.19.64-.56.77-.79.28-1.51.49-2.16.65-.38.1-.58.28-.58.56,0,.16.06.32.18.49.59.82,1.13,1.51,1.64,2.09.17.19.25.41.25.65,0,.28-.1.51-.29.71s-.43.3-.7.3c-.14,0-.28-.02-.41-.07-1.6-.64-3.1-.95-4.5-.95-2.3,0-3.46.55-3.46,1.64s1.45,1.6,4.36,1.6c1,0,2.12-.07,3.38-.2.24-.02.46.05.65.21.19.16.29.36.29.6,0,.49-.25.76-.76.81-1.14.12-2.34.18-3.6.18-4.04,0-6.07-1.06-6.07-3.17s1.62-3.15,4.86-3.15c.76,0,1.64.11,2.65.34.1.02.18.04.25.04.24,0,.36-.08.36-.25,0-.12-.06-.26-.18-.41-.06-.08-.22-.31-.49-.67-.32-.44-.73-.67-1.21-.67-.14,0-.31.01-.49.04-1.67.23-3.5.33-5.49.31-.22,0-.4-.08-.55-.23s-.22-.34-.22-.56.08-.4.23-.57c.16-.16.34-.24.56-.23,1.49.05,3.08-.02,4.77-.2.46-.05.68-.23.68-.54,0-.14-.05-.28-.14-.41-.29-.49-.7-.71-1.24-.65-1.03.12-2.22.18-3.56.18-.2,0-.39-.08-.55-.23-.16-.16-.24-.34-.24-.54,0-.22.08-.4.24-.55.16-.15.34-.23.55-.23,1,.01,1.92-.02,2.77-.09.5-.05.76-.21.76-.49,0-.01-.11-.28-.32-.79-.04-.08-.05-.18-.05-.29,0-.24.08-.45.25-.62s.38-.26.63-.26c.4,0,.67.19.81.58.05.14.13.37.25.67.18.46.48.68.9.68.11,0,.22-.02.34-.05.84-.22,1.68-.47,2.52-.77.1-.04.19-.05.27-.05.23,0,.42.08.58.23.16.16.24.35.24.58,0,.41-.19.67-.58.79-.89.29-1.67.51-2.34.67-.43.1-.65.29-.65.59,0,.13.05.26.14.4l.04.05c.25.38.56.58.92.58.1,0,.2-.01.31-.04.95-.23,1.84-.5,2.66-.81.06-.02.14-.04.25-.04.23,0,.42.08.58.23.16.16.24.35.24.58Z"/>
      <path class="cls-1" d="M71.91,111.08c0,.48-.32.77-.97.86-1.81.28-3.42,1.02-4.82,2.24-1.4,1.22-2.11,2.5-2.11,3.84,0,1.94,1.55,3.19,4.66,3.73.52.08.77.39.77.92,0,.29-.11.53-.33.73-.22.2-.48.27-.77.21-1.86-.36-3.28-.91-4.25-1.66-1.28-1-1.93-2.26-1.93-3.78,0-1.3.44-2.47,1.31-3.53.38-.46.76-.84,1.13-1.15.37-.31.56-.58.56-.79,0-.29-.31-.41-.92-.36-2.46.22-4.46.43-5.99.63-.26.04-.49-.04-.68-.22s-.29-.4-.29-.67c0-.23.07-.43.22-.6.15-.17.34-.27.57-.28,2.21-.22,6.45-.54,12.73-.97.32-.01.59.06.79.23.2.16.31.37.31.62ZM70.93,116.39c0,.19-.07.36-.21.5-.14.14-.3.21-.5.21-.29,0-.5-.11-.63-.32-.35-.55-.72-1.03-1.12-1.42-.13-.13-.2-.29-.2-.49,0-.48.23-.72.7-.72.2,0,.38.09.54.27.5.56.92,1.09,1.26,1.58.1.14.14.28.14.4ZM73.13,115.36c0,.19-.07.36-.21.5-.14.14-.3.21-.5.21-.28,0-.49-.11-.63-.32-.4-.59-.77-1.07-1.12-1.46-.13-.14-.2-.29-.2-.45,0-.48.24-.72.72-.72.18,0,.35.08.52.25.42.42.85.95,1.28,1.6.08.17.13.3.13.4Z"/>
      <path class="cls-1" d="M91.04,112.07c0,.24-.08.44-.25.61-.17.17-.37.25-.61.25-1.88-.02-3.15-.03-3.8-.02-.59,0-.88.31-.88.92v.99c0,.44.12,1.12.36,2.03.1.37.14.76.14,1.15,0,1.58-.43,2.88-1.3,3.9-.86,1.01-2.2,1.8-4.01,2.37-.08.02-.17.04-.27.04-.23,0-.43-.08-.6-.25s-.26-.38-.26-.63c0-.42.21-.7.63-.83,1.7-.52,2.89-1.31,3.56-2.38.12-.19.18-.35.18-.49,0-.17-.09-.25-.27-.25-.11,0-.23.04-.38.11-.34.17-.7.25-1.1.25-.89,0-1.6-.22-2.14-.67-.59-.49-.88-1.17-.88-2.03s.33-1.61.99-2.14c.61-.49,1.37-.74,2.29-.74.08,0,.21,0,.38.02.17.01.29.02.36.02.35,0,.52-.15.52-.45,0-.61-.31-.91-.92-.88-2.18.08-4.39.21-6.61.38-.25.02-.47-.05-.66-.22s-.28-.39-.28-.64.08-.44.24-.6.36-.25.58-.26l6.7-.32c.58-.02.86-.29.86-.81v-.81c0-.25.09-.47.28-.66.19-.19.41-.28.66-.28s.47.09.65.27.27.4.27.65v.68c0,.61.3.91.9.9,1.81-.02,3.08-.03,3.82-.02.24,0,.44.08.6.24.16.16.24.36.24.6ZM83.59,117.21c.05-.17.07-.32.07-.47,0-.46-.19-.76-.58-.92-.2-.08-.44-.13-.72-.13-.41,0-.75.13-1.04.4-.28.26-.42.59-.42.99,0,.83.44,1.24,1.31,1.24.72,0,1.18-.37,1.37-1.12Z"/>
      <path class="cls-1" d="M99.61,122.22c0,.36-.12.66-.36.91s-.54.37-.9.37-.67-.12-.92-.37-.38-.55-.38-.91.13-.66.38-.91c.25-.25.56-.37.92-.37s.65.13.89.38c.25.25.37.55.37.9ZM105.51,110.75c0,.19-.05.38-.16.58l-4.64,8.19c-.17.29-.41.43-.72.43-.23,0-.43-.08-.59-.25s-.25-.37-.25-.59c0-.11.03-.22.09-.34l4.05-8.5c.22-.46.56-.68,1.04-.68.32,0,.6.11.84.34.23.23.35.5.35.83Z"/>
    </g>
    <g>
      <path class="cls-1" d="M149.17,153.21c0,1.54-.54,2.76-1.62,3.67-.94.8-2.21,1.31-3.82,1.53-.25.04-.48-.03-.67-.21s-.3-.39-.3-.64c0-.49.24-.78.72-.86,2.57-.44,3.85-1.63,3.85-3.56,0-1.33-.55-2.27-1.64-2.81-.14-.07-.28-.11-.41-.11-.31,0-.56.2-.76.59-.78,1.63-1.67,3.05-2.68,4.27-1.55,1.85-3.09,2.77-4.63,2.77-.79,0-1.41-.22-1.85-.67-.44-.45-.66-1.06-.66-1.84,0-1.37.4-2.61,1.21-3.73.61-.85,1.37-1.55,2.29-2.09.54-.32.83-.77.86-1.35l.02-.34c.02-.55-.23-.83-.77-.83-.67,0-1.43,0-2.29-.02-.23,0-.42-.08-.58-.25-.16-.17-.24-.37-.24-.59s.09-.43.26-.59c.17-.17.38-.25.62-.23,1.1.05,1.93.07,2.47.05.49-.01.77-.27.85-.77l.11-.77c.07-.53.35-.79.85-.79.25,0,.47.11.67.32.19.22.27.44.23.67l-.05.34c-.05.29,0,.51.13.67.13.16.34.22.63.2,1.24-.1,2.63-.26,4.18-.49.25-.04.48.03.67.2.2.17.3.38.3.65,0,.49-.25.77-.76.83-1.88.23-3.43.38-4.63.45-.56.04-.86.29-.9.77-.02.29.04.5.19.62.15.13.37.17.66.13.47-.06.87-.09,1.21-.09,1.84,0,3.29.35,4.37,1.04,1.28.84,1.93,2.13,1.93,3.87ZM138.39,155.84c.54-.29.78-.86.72-1.71-.01-.54-.02-1.07-.04-1.6-.05-.84-.2-1.26-.47-1.26-.17,0-.36.1-.58.29-.47.41-.85.92-1.13,1.55-.31.66-.47,1.32-.47,1.98,0,.71.29,1.06.88,1.06.34,0,.7-.1,1.08-.31ZM142.91,150.53c.06-.12.09-.23.09-.32,0-.3-.19-.44-.56-.41-.55.04-.96.13-1.22.29-.37.22-.56.58-.58,1.08-.01.46,0,.97.02,1.55.01.36.14.54.38.54.17,0,.32-.1.47-.31.54-.76,1.01-1.56,1.4-2.41Z"/>
      <path class="cls-1" d="M166.79,155.35c0,1.31-.76,2.19-2.29,2.65-.89.26-2.36.4-4.41.4-1.36,0-2.33-.1-2.93-.31-1.06-.36-1.55-1.09-1.49-2.18.02-.48-.2-.74-.68-.77-.68-.06-1.21-.31-1.59-.76-.38-.45-.57-1.04-.57-1.75,0-.83.25-1.63.74-2.39.54-.84,1.25-1.31,2.14-1.4.34-.04.57-.08.69-.14.13-.05.19-.18.19-.37,0-.6-.31-.89-.92-.86-.56.02-1.22.04-1.96.04-.24,0-.44-.09-.61-.26-.17-.17-.25-.38-.25-.62s.09-.45.28-.62c.19-.17.4-.25.64-.24.66.04,1.31.04,1.96.02.58-.01.86-.32.86-.94v-.68c0-.25.09-.47.26-.65.17-.18.39-.27.64-.27s.47.09.65.27c.18.18.27.4.27.65v.36c0,.56.25.85.74.85.18,0,.43-.04.75-.13.32-.09.56-.13.73-.13.24,0,.45.08.62.25s.26.38.26.63c0,.48-.25.76-.74.85-.49.09-.99.18-1.49.28-.58.17-.86.5-.86.99v1.21c0,.3.07.81.2,1.53.04.19.05.41.05.65,0,.61-.18,1.37-.55,2.27-.37.9-.55,1.52-.55,1.85,0,.48.32.79.97.94.37.08,1.01.13,1.91.13,2.96,0,4.45-.5,4.45-1.49,0-.54-.1-1.32-.29-2.34-.06-.29,0-.54.19-.76.19-.22.43-.32.73-.32.49,0,.79.24.9.72.25,1.13.38,2.09.38,2.9ZM156.91,151.47c0-.77-.34-1.15-1.03-1.15-.43,0-.79.27-1.08.81-.24.46-.36.92-.36,1.4,0,.72.35,1.08,1.06,1.08.47,0,.83-.29,1.1-.88.2-.46.31-.88.31-1.26ZM167.6,147.99c0,.25-.09.47-.26.65-.17.18-.39.27-.64.27s-.44-.08-.61-.25c-.61-.6-1.33-1.15-2.16-1.66-.26-.16-.4-.4-.4-.72,0-.24.09-.45.26-.62s.38-.26.62-.26c.14,0,.29.05.45.14.84.5,1.66,1.1,2.45,1.78.19.17.29.39.29.67Z"/>
    </g>
  </g>
</svg>