<?xml version="1.0" encoding="UTF-8"?>
<svg xmlns="http://www.w3.org/2000/svg" viewBox="0 0 286.1 187">
  <defs>
    <style>
      .cls-1 {
        fill: #5b5b5b;
      }

      .cls-2 {
        fill: #f3fcff;
        stroke: #cecece;
        stroke-linecap: round;
        stroke-linejoin: round;
        stroke-width: 7px;
      }
    </style>
  </defs>
  <g id="_レイヤー_1" data-name="レイヤー 1">
    <path class="cls-2" d="M117.77,147.26c18.12,41.17,113.2,53.28,120.42,4.36,39.24,13.64,65.62-44.45,21.39-73.93,5.18-70.12-61.16-74.62-86.06-44.74-7.4-41.61-101.67-38.64-106.97,5.84-102.51,1.42-74.88,166.93,45.67,124.09"/>
  </g>
  <g id="ayumi2km">
    <g>
      <path class="cls-1" d="M85.1,54.83c0,1.87-.07,3.35-.21,4.45-.21,1.71-.63,3.1-1.25,4.19-.17.3-.42.45-.75.45-.23,0-.44-.08-.6-.25-.17-.17-.25-.37-.25-.6,0-.15.04-.29.11-.42.6-1.03.99-2.27,1.18-3.71.13-.95.19-2.35.19-4.19v-3.7c0-.21.08-.4.24-.55.16-.15.35-.23.56-.23s.39.08.54.23c.15.15.22.34.22.55v3.78ZM89.96,61.78c0,.21-.07.4-.22.54-.15.15-.33.22-.54.22s-.39-.07-.54-.22c-.15-.15-.22-.33-.22-.54v-9.84c0-.21.07-.39.22-.54s.33-.22.54-.22.39.07.54.22.22.33.22.54v9.84ZM95.08,63.11c0,.21-.08.4-.23.56-.15.16-.34.24-.55.24s-.4-.08-.55-.24c-.15-.16-.23-.35-.23-.56v-12.05c0-.21.08-.4.23-.55s.34-.23.55-.23.4.08.55.23c.15.15.23.34.23.55v12.05Z"/>
      <path class="cls-1" d="M104.46,53.49c0,.18-.07.34-.2.47-.13.13-.29.2-.47.2h-.94c-.43,0-.64.16-.64.48,0,.13.07.31.21.54.3.48.92,1.33,1.86,2.54.12.15.18.29.18.43,0,.18-.07.34-.2.47-.13.13-.29.2-.47.2-.23,0-.39-.06-.48-.18-.12-.16-.31-.44-.59-.83-.1-.15-.2-.22-.3-.22-.13,0-.19.11-.19.34v5.49c0,.19-.07.35-.21.49-.14.13-.3.2-.5.2-.2,0-.37-.07-.5-.2-.13-.13-.2-.3-.2-.49v-5.07c0-.22-.07-.34-.21-.34-.06,0-.26.28-.59.85-.19.33-.38.67-.58,1.01-.15.21-.35.32-.59.32-.42,0-.65-.23-.7-.7-.02-.14.05-.31.22-.53.85-1.12,1.61-2.45,2.27-4,.09-.19.13-.35.13-.46,0-.22-.2-.34-.59-.34h-1.23c-.18,0-.34-.07-.47-.2s-.2-.29-.2-.47.07-.34.2-.47.29-.2.47-.2h1.23c.43,0,.64-.21.64-.64v-1.55c0-.19.07-.36.21-.5s.3-.21.5-.21.36.07.5.21.21.3.21.5v1.55c0,.43.21.64.64.64h.94c.18,0,.34.07.47.2.13.13.2.29.2.47ZM112.68,53.52c0,.19-.07.36-.21.5s-.3.21-.5.21h-.46c-.48,0-.72.24-.72.72v6.45c0,.95-.14,1.57-.42,1.87-.28.3-.85.45-1.69.45h-1.18c-.19,0-.36-.07-.5-.21s-.22-.3-.22-.5.07-.36.22-.5.31-.22.5-.22h.83c.45,0,.74-.09.86-.27.1-.14.14-.43.14-.88v-6.19c0-.48-.24-.72-.72-.72h-2.98c-.19,0-.35-.07-.49-.21-.13-.14-.2-.3-.2-.5s.07-.36.2-.5c.13-.14.3-.21.49-.21h2.98c.48,0,.72-.24.72-.72v-1.34c0-.2.07-.38.22-.52s.32-.22.52-.22c.19,0,.36.07.5.22s.22.32.22.52v1.34c0,.48.24.72.72.72h.46c.19,0,.36.07.5.21s.21.3.21.5ZM108.01,58.75c0,.18-.07.34-.21.48s-.3.21-.48.21c-.28,0-.48-.12-.61-.37-.34-.66-.76-1.34-1.25-2.03-.07-.11-.11-.23-.11-.38,0-.18.06-.34.19-.46.13-.13.28-.19.46-.19.23,0,.42.09.54.27.58.81,1.03,1.53,1.36,2.14.06.12.1.23.1.34Z"/>
      <path class="cls-1" d="M128.51,56.74c0,.19-.07.35-.21.49s-.3.2-.5.2h-3.39c-.48,0-.72.24-.72.72v3.54c0,.42.12.65.35.69.05.01.18.02.37.02h1.01c.6,0,.97-.14,1.12-.43.08-.17.14-.61.18-1.33.01-.19.09-.36.22-.5.14-.14.31-.21.51-.21s.38.07.53.22c.15.15.22.33.21.53-.03,1.28-.22,2.12-.57,2.52s-1.06.6-2.14.6h-1.71c-.64,0-1.07-.1-1.28-.31s-.32-.63-.32-1.27v-4.06c0-.48-.24-.72-.72-.72h-.61c-.46,0-.7.23-.74.7-.18,2.68-1.48,4.61-3.9,5.81-.11.05-.23.08-.37.08-.2,0-.38-.07-.54-.22-.16-.15-.24-.33-.24-.54,0-.33.14-.57.43-.7,1.01-.5,1.77-1.09,2.26-1.77.49-.68.78-1.55.86-2.62.04-.49-.19-.74-.7-.74h-2.85c-.19,0-.36-.07-.5-.2s-.21-.3-.21-.49.07-.36.21-.5c.14-.14.3-.21.5-.21h5.02c.48,0,.72-.24.72-.72v-.96c0-.48-.24-.72-.72-.72h-2.16c-.58,0-1.04.22-1.38.66l-.4.51c-.13.17-.31.26-.56.26-.2,0-.37-.07-.51-.22s-.21-.32-.21-.52c0-.19.06-.36.19-.5.8-.9,1.48-1.9,2.05-3.01.13-.26.35-.38.66-.38.21,0,.39.07.53.22s.21.32.21.52c0,.1-.03.21-.09.34-.06.13-.09.24-.09.33,0,.27.19.4.58.4h1.18c.48,0,.72-.24.72-.72v-.85c0-.2.07-.38.22-.52s.32-.22.52-.22.38.07.52.22.22.32.22.52v.85c0,.48.24.72.72.72h3.7c.19,0,.36.07.5.21.14.14.21.3.21.48,0,.19-.07.36-.21.5-.14.14-.3.21-.5.21h-3.7c-.48,0-.72.24-.72.72v.96c0,.48.24.72.72.72h4.82c.19,0,.36.07.5.21.14.14.21.3.21.5Z"/>
      <path class="cls-1" d="M144.67,62.74c0,.2-.07.38-.22.52-.14.14-.32.22-.52.22h-12.7c-.2,0-.37-.07-.51-.22s-.21-.32-.21-.52.07-.38.22-.52.31-.22.5-.22h4.94c.48,0,.72-.24.72-.72v-1.89c0-.48-.24-.72-.72-.72h-3.34c-.19,0-.35-.07-.49-.2s-.2-.3-.2-.49.07-.35.2-.49.3-.2.49-.2h3.34c.48,0,.72-.24.72-.72v-1.46c0-.48-.24-.72-.72-.72h-2.19c-.63,0-1.11.27-1.44.8-.14.22-.36.55-.66.98-.15.21-.35.32-.61.32-.2,0-.38-.07-.53-.22-.15-.15-.22-.33-.22-.53,0-.18.05-.34.14-.46,1.06-1.44,1.87-2.9,2.45-4.38.12-.3.35-.45.69-.45.21,0,.39.07.54.22s.22.33.22.53c0,.12-.11.43-.34.93-.05.13-.08.25-.08.37,0,.32.21.48.62.48h1.41c.48,0,.72-.24.72-.72v-1.44c0-.21.08-.4.23-.55.15-.15.34-.23.55-.23s.39.08.54.23c.15.15.22.34.22.55v1.44c0,.48.24.72.72.72h4.18c.2,0,.37.07.51.21.14.14.21.3.21.5,0,.2-.07.37-.21.51-.14.14-.31.21-.51.21h-4.18c-.48,0-.72.24-.72.72v1.46c0,.48.24.72.72.72h3.3c.19,0,.35.07.49.2s.2.3.2.49-.07.35-.2.49-.3.2-.49.2h-3.3c-.48,0-.72.24-.72.72v1.89c0,.48.24.72.72.72h4.77c.2,0,.38.07.52.22.14.14.22.32.22.52Z"/>
      <path class="cls-1" d="M160.22,57.11c0,3.25-1.65,5.24-4.95,5.97-.03.01-.09.02-.18.02-.21,0-.4-.07-.55-.22-.16-.15-.23-.34-.23-.56,0-.43.19-.69.58-.78,2.46-.62,3.7-2.1,3.7-4.45,0-1.23-.33-2.21-.99-2.94-.24-.28-.55-.52-.91-.74-.42-.23-.79-.35-1.12-.35-.46,0-.74.27-.83.8-.41,2.33-.89,4.2-1.44,5.62-.35.9-.7,1.57-1.04,2.02-.54.69-1.18,1.04-1.9,1.04-.97,0-1.75-.48-2.34-1.46-.51-.83-.77-1.76-.77-2.78,0-1.98.66-3.63,1.98-4.93,1.32-1.3,2.97-1.95,4.95-1.95,1.87,0,3.33.48,4.38,1.44,1.11,1,1.66,2.43,1.66,4.27ZM153.1,53.89c.01-.07.02-.15.02-.22,0-.39-.18-.59-.54-.59-.13,0-.27.03-.42.08-.98.34-1.78.98-2.4,1.91-.62.93-.93,2-.93,3.21,0,.66.15,1.25.46,1.75.31.51.66.76,1.04.76.46,0,.95-.65,1.47-1.94.44-1.09.87-2.74,1.29-4.96Z"/>
      <path class="cls-1" d="M166.62,50.74s-.01.11-.03.19c-.19.74-.39,1.39-.61,1.97-.19.53-.29,1.06-.29,1.58v9.04c0,.2-.07.38-.22.54-.14.15-.32.23-.52.23s-.38-.07-.53-.22-.22-.33-.22-.53v-5.86c0-.23-.07-.35-.21-.35-.1,0-.19.07-.27.22l-.21.38c-.11.2-.31.3-.61.3-.2,0-.37-.07-.51-.21-.14-.14-.21-.31-.21-.51,0-.14.04-.28.13-.42,1.46-2.35,2.43-4.53,2.91-6.56.09-.34.31-.51.67-.51.2,0,.37.07.51.21.14.14.21.3.21.5ZM176.86,57.76c0,.2-.07.37-.21.5s-.3.2-.5.2h-.03c.05.05.16.17.32.35.1.11.14.25.14.42,0,.16-.06.3-.17.41-.11.11-.25.17-.42.17-.2,0-.36-.06-.46-.19l-.93-1.09c-.12-.14-.18-.27-.18-.4,0-.16.06-.3.17-.42.11-.12.25-.18.41-.18s.29.05.4.16l.03.03v-.46c0-.28-.14-.42-.42-.42h-2.96c.27.23.4.44.4.61,0,.36-.18.54-.54.54-.19,0-.34-.07-.45-.21-.04-.05-.17-.18-.37-.38-.08-.08-.13-.2-.13-.35,0-.07.01-.14.03-.21h-2.69c-.28,0-.42.14-.42.42v.53c.12-.13.26-.19.42-.19.38,0,.58.19.58.58,0,.13-.04.25-.11.35-.33.47-.69.9-1.07,1.28-.11.11-.24.16-.4.16s-.3-.06-.42-.18c-.12-.12-.18-.26-.18-.42,0-.15.08-.32.26-.51.15-.14.29-.28.43-.43-.08.02-.15.03-.21.03-.2,0-.37-.07-.51-.2s-.21-.3-.21-.5v-.62c0-.77.33-1.15.99-1.15.3,0,.45-.19.45-.56v-2.03c0-.75.37-1.12,1.12-1.12h1.15c.28,0,.45-.11.51-.32.06-.2-.1-.3-.48-.3h-2.75c-.17,0-.31-.06-.43-.18-.12-.12-.18-.27-.18-.44s.06-.32.18-.44c.12-.12.26-.18.43-.18h8.64c.17,0,.32.06.44.18.12.12.18.27.18.44s-.06.32-.18.44c-.12.12-.27.18-.44.18h-3.41c-.28,0-.45.1-.51.3-.06.21.09.32.46.32h1.7c.75,0,1.12.37,1.12,1.12v2.03c0,.37.13.56.38.56.37,0,.63.09.78.27.15.18.22.47.22.88v.62ZM176.75,63.36c0,.2-.08.37-.22.5s-.33.17-.53.13c-1.39-.28-2.59-.6-3.6-.96-.22-.09-.44-.13-.64-.13-.22,0-.47.05-.74.16-1.11.43-2.31.75-3.62.98-.18.03-.34-.01-.49-.14-.14-.12-.22-.27-.22-.46,0-.36.18-.57.53-.61l.13-.02c.79-.1,1.58-.26,2.38-.5.21-.06.32-.17.32-.32,0-.13-.07-.25-.22-.35-.03-.03-.09-.07-.16-.13-.2-.16-.4-.24-.59-.24-.14,0-.28.04-.42.11l-.9.45c-.06.03-.14.05-.24.05-.15,0-.28-.05-.4-.16s-.18-.23-.18-.38c0-.26.12-.43.35-.53,1.17-.47,2.18-1.05,3.02-1.74h-.32c-.49,0-.74-.27-.74-.8v-.61c0-.17.06-.32.18-.44.12-.12.26-.18.43-.18.16,0,.3.06.42.18s.18.27.18.44v.22c0,.27.12.4.35.4h1.57c.25,0,.42-.03.51-.09.1-.06.16-.2.19-.42.04-.32.24-.48.59-.48.17,0,.31.06.43.19.12.13.17.28.14.46-.05.43-.17.72-.34.88-.17.16-.47.24-.91.24h-1.63l.05.1c.09.32.22.48.42.48h2.02c.69,0,1.04.22,1.04.67,0,.3-.17.58-.5.83-.14.11-.36.27-.66.48-.16.11-.24.22-.24.34,0,.14.11.23.34.29.92.21,1.7.36,2.35.45.36.04.54.26.54.66ZM174.08,53.35c0-.16-.12-.24-.37-.24h-4.05c-.25,0-.37.08-.37.24,0,.18.13.27.4.27h3.98c.27,0,.4-.09.4-.27ZM174.08,54.53c0-.17-.13-.26-.4-.26h-3.98c-.27,0-.4.09-.4.26,0,.18.13.27.4.27h3.98c.27,0,.4-.09.4-.27ZM174.08,55.71c0-.18-.13-.27-.4-.27h-3.98c-.27,0-.4.09-.4.27s.13.27.4.27h3.98c.27,0,.4-.09.4-.27ZM173.12,60.66c0-.11-.09-.16-.26-.16l-1.82.02c-.24,0-.35.08-.35.22,0,.13.21.31.62.54.17.1.34.14.5.14s.33-.05.5-.14c.54-.31.82-.52.82-.62Z"/>
      <path class="cls-1" d="M192.08,59.23c0,.15-.04.29-.13.43-.73,1.18-1.59,2.13-2.61,2.83-1.14.78-2.35,1.17-3.63,1.17-2.81,0-4.21-1.27-4.21-3.81,0-1.03.02-2.39.06-4.08.03-1.37.06-2.85.08-4.45,0-.22.09-.42.26-.58.17-.17.37-.25.59-.25s.44.09.61.26c.17.17.25.37.24.61l-.19,8.14c0,1.67.89,2.51,2.66,2.51.95,0,1.86-.34,2.74-1.01.75-.55,1.4-1.3,1.97-2.22.16-.27.4-.4.72-.4.24,0,.43.08.6.25.17.17.25.37.25.6Z"/>
      <path class="cls-1" d="M202.03,60.15c-.94,1.85-1.84,2.77-2.7,2.77-1.07,0-1.89-.95-2.48-2.85-.46-1.47-.69-3.14-.69-5.01,0-.96.03-1.79.1-2.48.02-.22.11-.41.26-.56.16-.15.34-.22.57-.22.25,0,.45.09.62.28.17.19.24.4.22.65-.07.71-.11,1.54-.11,2.48,0,1.23.13,2.44.4,3.65.3,1.33.69,2,1.18,2,.35,0,.75-.48,1.2-1.44.14-.29.38-.43.72-.43.22,0,.41.08.57.23s.23.34.23.57c0,.14-.03.26-.08.37ZM208.96,59.65c.03.26-.04.49-.21.69s-.39.3-.66.3c-.22,0-.42-.07-.59-.22s-.27-.33-.29-.54c-.27-2.42-1.05-4.58-2.35-6.46-.1-.14-.14-.29-.14-.46,0-.23.08-.43.24-.59.16-.16.36-.24.59-.24.29,0,.52.12.69.35,1.47,2.05,2.38,4.44,2.72,7.18Z"/>
      <path class="cls-1" d="M225.69,54.75c0,.21-.08.39-.22.54s-.33.22-.54.22h-1.74c-.53,0-.8.27-.8.8v.58c0,1.73-.31,3.09-.94,4.07-.62.99-1.73,1.85-3.3,2.58-.12.05-.23.08-.34.08-.22,0-.42-.08-.58-.23-.16-.15-.24-.34-.24-.57,0-.33.16-.57.48-.72,1.3-.6,2.19-1.3,2.67-2.11.43-.73.64-1.78.64-3.17v-.51c0-.53-.27-.8-.8-.8h-2.94c-.53,0-.8.27-.8.8v1.94c0,.21-.08.4-.23.55-.15.15-.34.23-.57.23s-.41-.07-.57-.22-.23-.34-.23-.56v-1.94c0-.53-.27-.8-.8-.8h-1.71c-.21,0-.39-.07-.54-.22s-.22-.33-.22-.54.07-.39.22-.54.33-.22.54-.22h1.71c.53,0,.8-.27.8-.8v-1.54c0-.22.08-.41.23-.57s.34-.23.57-.23c.21,0,.4.08.56.24s.24.35.24.56v1.54c0,.53.27.8.8.8h2.94c.53,0,.8-.27.8-.8v-1.71c0-.21.08-.4.23-.55.15-.15.34-.23.57-.23s.41.08.57.23c.15.15.23.34.23.55v1.71c0,.53.27.8.8.8h1.74c.21,0,.39.07.54.22s.22.33.22.54Z"/>
      <path class="cls-1" d="M46.23,75.99c0,.08-.02.16-.05.26-.52,1.53-1.29,2.95-2.29,4.29-.17.22-.39.34-.67.34-.22,0-.42-.08-.58-.24s-.24-.35-.24-.58c0-.19.06-.36.18-.51.96-1.21,1.65-2.47,2.08-3.81.12-.37.37-.56.77-.56.22,0,.41.08.57.24.15.16.23.35.23.58ZM55.17,72.96c0,.2-.07.38-.22.53s-.33.22-.53.22h-3.84c-.53,0-.8.27-.8.8v6.32c0,.69-.13,1.17-.4,1.42-.27.25-.75.38-1.46.38h-1.18c-.2,0-.38-.07-.53-.22s-.22-.33-.22-.53.07-.38.22-.53c.15-.15.33-.22.53-.22h.5c.37,0,.62-.06.74-.17.12-.11.18-.37.18-.76v-5.68c0-.53-.27-.8-.8-.8h-3.94c-.2,0-.38-.07-.53-.22-.15-.15-.22-.33-.22-.53s.07-.38.22-.53c.15-.15.33-.22.53-.22h3.94c.53,0,.8-.27.8-.8v-.96c0-.22.08-.42.24-.58s.35-.24.58-.24.41.08.57.24c.15.16.23.35.23.58v.96c0,.53.27.8.8.8h3.84c.2,0,.38.08.53.22.15.15.22.33.22.53ZM55.67,79.9c0,.23-.08.43-.23.59-.15.16-.35.24-.58.24-.35,0-.6-.17-.75-.5-.57-1.24-1.35-2.56-2.35-3.97-.09-.12-.13-.27-.13-.45,0-.21.08-.4.23-.55.15-.15.34-.23.55-.23.25,0,.45.11.62.34,1,1.32,1.86,2.71,2.56,4.16.05.11.08.23.08.37ZM55.19,70.03c0,.47-.17.87-.51,1.21-.34.34-.75.5-1.22.5s-.87-.17-1.2-.5c-.33-.33-.5-.74-.5-1.22s.17-.89.5-1.22.73-.5,1.2-.5.87.17,1.22.5c.34.34.51.74.51,1.21ZM54.31,70.03c0-.22-.08-.42-.25-.58-.17-.16-.37-.24-.6-.24s-.43.08-.58.23c-.15.15-.23.35-.23.58s.08.43.23.58.35.23.58.23.43-.08.6-.24c.17-.16.25-.35.25-.58Z"/>
      <path class="cls-1" d="M71.89,75.66c0,.23-.08.43-.23.59-.15.16-.35.24-.58.24h-11.79c-.23,0-.43-.08-.58-.24-.15-.16-.23-.36-.23-.59s.08-.43.23-.59.35-.24.58-.24h11.79c.23,0,.43.08.58.24s.23.36.23.59Z"/>
      <path class="cls-1" d="M86.76,77.27c0,.23-.08.43-.24.59-.16.16-.36.24-.59.24-.14,0-.26-.03-.37-.08-1.7-.84-3.4-1.57-5.12-2.19-.13-.04-.24-.06-.34-.06-.4,0-.59.24-.59.72v5.57c0,.23-.08.43-.25.6-.17.17-.36.25-.58.25-.23,0-.44-.08-.61-.25-.17-.17-.26-.37-.26-.6v-11.79c0-.23.09-.43.26-.6.17-.17.37-.25.61-.25s.42.08.58.25c.17.17.25.37.25.6v2.5c0,.74.35,1.23,1.04,1.47,2.18.78,4.09,1.54,5.73,2.29.32.15.48.4.48.75Z"/>
      <path class="cls-1" d="M103.99,76.11c0,3.25-1.65,5.24-4.94,5.97-.03.01-.09.02-.18.02-.21,0-.4-.07-.55-.22-.15-.15-.23-.34-.23-.56,0-.43.19-.69.58-.78,2.46-.62,3.7-2.1,3.7-4.45,0-1.23-.33-2.21-.99-2.94-.25-.28-.55-.52-.91-.74-.42-.23-.79-.35-1.12-.35-.46,0-.74.27-.83.8-.41,2.33-.89,4.2-1.44,5.62-.35.9-.7,1.57-1.04,2.02-.54.69-1.18,1.04-1.9,1.04-.97,0-1.75-.48-2.34-1.46-.51-.83-.77-1.76-.77-2.78,0-1.98.66-3.63,1.98-4.93,1.32-1.3,2.97-1.95,4.95-1.95,1.87,0,3.33.48,4.38,1.44,1.11,1,1.66,2.43,1.66,4.27ZM96.87,72.89c.01-.07.02-.15.02-.22,0-.39-.18-.59-.54-.59-.13,0-.27.03-.42.08-.98.34-1.78.98-2.4,1.91-.62.93-.93,2-.93,3.21,0,.66.15,1.25.46,1.75.31.51.66.76,1.04.76.46,0,.95-.65,1.47-1.94.44-1.09.87-2.74,1.3-4.96Z"/>
      <path class="cls-1" d="M120.13,78.35c0,1.27-.49,2.25-1.46,2.93-.83.59-1.94.92-3.31.99-.21.01-.4-.06-.56-.2-.16-.14-.24-.32-.24-.54,0-.19.06-.36.19-.5s.29-.23.48-.25c2.18-.21,3.26-1.02,3.26-2.43,0-.61-.26-1.1-.77-1.46-.51-.37-1.17-.55-1.98-.55s-1.53.07-2.22.21c-.55.11-.83.46-.83,1.06v3.38c0,.93-.45,1.39-1.34,1.39s-1.74-.26-2.62-.78c-1.01-.61-1.53-1.3-1.54-2.06,0-.56.3-1.17.9-1.8.6-.63,1.39-1.2,2.37-1.69.49-.25.74-.62.74-1.14v-.98c0-.48-.25-.71-.74-.7-.86.02-1.53.02-2,0-.19-.01-.36-.09-.5-.23-.14-.14-.21-.31-.21-.5,0-.21.07-.39.22-.54s.33-.21.54-.2c.64.03,1.3.04,1.97.02.47-.01.7-.26.7-.74v-1.09c0-.2.07-.38.22-.53s.33-.22.53-.22.38.07.53.22.22.33.22.53v.88c0,.51.26.73.77.66.35-.05.77-.12,1.26-.21.22-.04.43,0,.61.15.18.14.27.33.27.57,0,.42-.21.66-.62.74-.47.06-.94.13-1.41.19-.59.14-.88.41-.88.82v.74c0,.43.19.64.58.64.07,0,.15,0,.22-.02.73-.14,1.43-.21,2.13-.21,1.29,0,2.34.27,3.14.82.92.62,1.38,1.5,1.38,2.66ZM111.19,79.85v-1.65c0-.43-.16-.64-.48-.64-.13,0-.26.04-.4.13-.98.6-1.47,1.18-1.47,1.74,0,.33.25.63.75.9.47.26.82.38,1.06.38.36,0,.54-.29.54-.86ZM120.42,73.13c0,.21-.07.4-.22.56s-.33.24-.54.24-.38-.07-.53-.21c-.6-.55-1.3-1.04-2.11-1.47-.27-.14-.4-.36-.4-.66,0-.21.07-.39.22-.54.15-.15.33-.22.53-.22.13,0,.25.03.35.08.9.46,1.71,1,2.43,1.63.18.16.27.36.27.59Z"/>
      <path class="cls-1" d="M132.42,74.97c0,1.69-.28,3.56-.85,5.63-.16.6-.34,1.03-.54,1.3-.3.38-.7.58-1.22.58-.55,0-1.29-.15-2.21-.46-.36-.12-.54-.36-.54-.72,0-.21.08-.39.23-.54.15-.15.33-.22.54-.22.08,0,.2.02.34.06.46.16.81.24,1.04.24.26,0,.44-.07.54-.22.09-.12.18-.36.29-.72.5-1.79.75-3.35.75-4.67,0-.51-.1-.85-.3-1.02-.2-.17-.59-.26-1.15-.26-.5,0-.84.05-1.02.16-.22.13-.38.36-.48.69-.69,2.33-1.64,4.67-2.85,7.02-.16.31-.41.46-.75.46-.23,0-.43-.08-.59-.25-.16-.17-.24-.37-.24-.6,0-.18.03-.33.1-.43,1.09-1.89,1.97-3.88,2.66-5.97.03-.11.05-.2.05-.29,0-.38-.23-.54-.69-.48-.33.04-.85.12-1.55.22-.22.03-.43-.03-.62-.18s-.28-.35-.28-.58c0-.45.23-.7.7-.77.46-.06,1.21-.16,2.23-.29.51-.05.86-.37,1.04-.96.03-.09.12-.61.27-1.57.07-.46.34-.69.8-.69.26,0,.46.09.62.28s.21.41.17.66c-.01.05-.06.29-.14.7-.08.31-.11.54-.11.69,0,.45.25.66.75.62l.24-.02c.82-.05,1.48.09,1.97.43.55.38.83,1.1.83,2.16ZM137.25,76.17c0,.23-.08.44-.25.61-.17.17-.37.26-.6.26-.38,0-.65-.19-.8-.56-.55-1.44-1.26-2.75-2.13-3.94-.1-.13-.14-.28-.14-.45,0-.22.08-.42.23-.58.15-.16.34-.24.57-.24.27,0,.49.11.66.34.97,1.27,1.78,2.68,2.42,4.24.03.07.05.18.05.32Z"/>
      <path class="cls-1" d="M143.45,77.99c-.42,1.01-.77,2.03-1.07,3.04-.15.51-.45.77-.9.77s-.76-.29-.9-.88c-.29-1.25-.43-2.68-.43-4.3,0-1.95.18-3.94.54-5.95.08-.45.35-.67.78-.67.25,0,.45.1.62.29.17.19.23.41.18.66-.42,2.59-.62,4.54-.62,5.84v.93c0,.34.08.51.26.51.16,0,.29-.14.4-.42l.1-.24c.1-.23.27-.35.51-.35.16,0,.3.06.41.17s.17.25.17.41c0,.06-.02.13-.05.21ZM152.53,73.29c0,.43-.21.69-.62.78-.26.04-.65.12-1.18.22-.48.1-.72.38-.72.85v1.2c0,1.42-.24,2.61-.71,3.58-.51,1.05-1.34,1.93-2.5,2.66-.12.07-.26.11-.42.11-.22,0-.42-.08-.58-.24-.16-.16-.24-.35-.24-.58,0-.3.13-.53.38-.69.91-.57,1.56-1.26,1.95-2.1.35-.76.53-1.71.53-2.85v-.83c0-.54-.28-.8-.85-.77-.99.06-1.69.09-2.1.08l-.66-.02c-.2,0-.38-.07-.53-.22-.15-.15-.22-.33-.22-.53,0-.21.08-.4.24-.55.16-.15.35-.23.56-.22l.59.02c.64.02,1.35,0,2.13-.08.53-.05.78-.34.75-.86l-.1-1.73c-.01-.22.06-.42.22-.59.16-.17.35-.26.58-.26.21,0,.4.07.55.22s.24.32.25.54c0,.33.03.85.06,1.55.03.51.24.77.64.77.06,0,.13-.01.21-.03l.82-.19c.1-.02.16-.03.19-.03.2,0,.38.08.53.23.15.15.22.34.22.55ZM152.37,71.37c0,.16-.06.3-.17.42-.11.12-.25.18-.42.18-.22,0-.49-.2-.8-.59-.22-.3-.45-.6-.67-.9-.12-.12-.18-.25-.18-.4,0-.41.2-.61.61-.61.16,0,.31.07.45.22.44.49.79.94,1.07,1.34.07.11.11.22.11.34ZM153.88,70.17c0,.16-.06.3-.18.42-.12.12-.26.18-.42.18-.23,0-.41-.09-.53-.27-.34-.5-.65-.91-.94-1.23-.11-.12-.16-.25-.16-.38,0-.41.2-.61.61-.61.14,0,.28.07.43.22.38.38.75.83,1.09,1.34.07.15.11.26.11.34Z"/>
      <path class="cls-1" d="M168.34,71.16c0,.43-.29.68-.86.77-1.61.25-3.04.91-4.29,1.99s-1.87,2.22-1.87,3.42c0,1.73,1.38,2.83,4.14,3.31.46.07.69.35.69.82,0,.26-.1.47-.3.65-.2.18-.42.24-.68.18-1.65-.32-2.91-.81-3.78-1.47-1.14-.89-1.71-2-1.71-3.36,0-1.15.39-2.2,1.17-3.14.34-.41.68-.75,1.01-1.02.33-.28.5-.51.5-.7,0-.26-.27-.36-.82-.32-2.19.19-3.96.38-5.33.56-.23.03-.44-.03-.61-.19s-.26-.36-.26-.59c0-.2.07-.38.2-.54.13-.15.3-.24.5-.25,1.96-.19,5.73-.48,11.31-.86.29-.01.52.06.7.2.18.14.27.33.27.55ZM167.48,75.88c0,.17-.06.32-.18.44-.12.12-.27.18-.44.18-.26,0-.44-.1-.56-.29-.31-.49-.64-.91-.99-1.26-.12-.12-.18-.26-.18-.43,0-.43.21-.64.62-.64.18,0,.34.08.48.24.45.5.82.97,1.12,1.41.08.13.13.25.13.35ZM169.43,74.97c0,.17-.06.32-.18.44s-.27.18-.44.18c-.25,0-.43-.1-.56-.29-.35-.52-.68-.95-.99-1.3-.12-.13-.18-.26-.18-.4,0-.43.21-.64.64-.64.16,0,.31.07.46.22.37.37.75.85,1.14,1.42.08.15.11.27.11.35Z"/>
      <path class="cls-1" d="M175.35,81.98c0,.26-.08.47-.26.64-.17.17-.38.26-.64.26-.28,0-.51-.11-.69-.32-.63-.76-1.26-1.41-1.9-1.95-.2-.17-.3-.38-.3-.64s.08-.45.25-.62c.17-.17.37-.25.62-.25.21,0,.4.07.56.21.9.78,1.61,1.47,2.14,2.06.15.16.22.36.22.61Z"/>
      <path class="cls-1" d="M201.56,75.48c0,.19-.07.35-.2.49-.13.13-.3.2-.49.2h-1.6c-.43,0-.73.21-.91.64-.37.91-.95,1.75-1.73,2.54-.13.13-.19.25-.19.37,0,.17.12.3.35.38,1.28.49,2.43.97,3.44,1.42.3.14.45.37.45.69,0,.21-.08.4-.23.55-.16.15-.34.23-.55.23-.12,0-.23-.03-.34-.08-1.3-.64-2.63-1.24-3.98-1.79-.22-.09-.44-.13-.64-.13-.27,0-.56.08-.86.24-1.41.74-3.15,1.3-5.23,1.68-.21.04-.41,0-.58-.15s-.26-.33-.26-.55c0-.41.2-.64.59-.7,1.23-.2,2.37-.5,3.42-.88.28-.1.42-.23.42-.4s-.15-.3-.45-.4l-1.1-.34c-.6-.18-.9-.47-.9-.88,0-.22.12-.53.37-.91.19-.29.38-.58.58-.86.07-.12.11-.22.11-.32,0-.23-.17-.35-.5-.35h-2.48c-.19,0-.35-.07-.49-.2-.13-.13-.2-.3-.2-.49s.07-.35.2-.49.3-.2.49-.2h3.25c.54,0,.94-.23,1.18-.7.17-.32.34-.68.51-1.09.13-.3.36-.45.69-.45.21,0,.39.08.54.24.14.16.22.34.22.54,0,.12-.02.22-.06.3l-.24.48c-.05.11-.08.21-.08.3,0,.25.16.37.48.37h6.34c.19,0,.35.07.49.2.13.13.2.3.2.49ZM201.09,73.53c0,.2-.07.38-.22.52-.14.14-.32.22-.52.22s-.38-.07-.52-.22c-.14-.14-.22-.32-.22-.52v-.66c0-.43-.21-.64-.64-.64h-9.06c-.44,0-.66.21-.66.64v.66c0,.2-.07.38-.22.52-.14.14-.31.22-.5.22-.2,0-.38-.07-.52-.22-.14-.14-.22-.32-.22-.52v-1.36c0-.87.44-1.31,1.31-1.31h3.86c.48,0,.72-.24.72-.72v-.43c0-.2.07-.38.22-.53.15-.15.33-.22.54-.22s.38.07.53.22c.15.15.22.33.22.53v.43c0,.48.24.72.72.72h3.84c.87,0,1.31.44,1.31,1.31v1.36ZM196.66,76.92c.06-.11.1-.21.1-.32,0-.29-.19-.43-.58-.43h-2.42c-.5,0-.88.21-1.15.64-.32.5-.51.8-.58.9-.13.18-.19.33-.19.45,0,.19.15.33.45.42.44.13.92.28,1.46.46.2.07.39.11.58.11.34,0,.66-.14.94-.42.56-.53,1.03-1.14,1.39-1.81Z"/>
      <path class="cls-1" d="M206.33,74.94c-.3,2.01-.76,3.86-1.38,5.55-.13.36-.38.54-.75.54-.22,0-.42-.08-.58-.24s-.24-.35-.24-.56c0-.09.02-.18.06-.29.61-1.48,1.07-3.23,1.38-5.23.06-.42.31-.62.75-.62.22,0,.41.09.57.26.15.17.22.37.18.59ZM214.77,79.1c-.13,1.53-.35,2.49-.66,2.9-.36.47-1.09.7-2.19.7h-1.89c-.9,0-1.47-.12-1.73-.37-.3-.27-.45-.86-.45-1.78v-6.98c0-.21.08-.4.23-.55.15-.15.34-.23.55-.23s.4.08.55.23c.15.15.23.34.23.55v6.75c0,.41.05.66.14.77.1.11.36.16.78.16h1.1c.73,0,1.18-.12,1.38-.38.19-.25.32-.89.38-1.91,0-.2.09-.37.24-.5.15-.13.33-.2.53-.2.22,0,.42.08.58.25.16.17.23.36.21.58ZM213.48,71.55c0,.21-.08.39-.23.54s-.34.22-.55.22c-.14,0-.26-.03-.35-.08-1.19-.65-2.49-1.2-3.87-1.65-.35-.12-.53-.36-.53-.72,0-.21.07-.39.22-.54s.33-.22.53-.22c.06,0,.13.01.21.03,1.19.36,2.57.93,4.13,1.7.3.15.45.39.45.72ZM218.05,79.59c0,.21-.08.41-.25.58-.17.18-.36.26-.57.26-.41,0-.67-.2-.78-.59-.46-1.56-1.13-3.16-2.02-4.8-.06-.12-.1-.24-.1-.37,0-.21.08-.39.22-.54.15-.15.33-.22.54-.22.31,0,.54.13.69.38.88,1.49,1.62,3.18,2.22,5.07.02.11.03.18.03.22Z"/>
      <path class="cls-1" d="M232.81,78.23c0,.15-.04.29-.13.43-.73,1.18-1.59,2.13-2.61,2.83-1.14.78-2.35,1.17-3.63,1.17-2.81,0-4.21-1.27-4.21-3.81,0-1.03.02-2.39.06-4.08.03-1.37.06-2.85.08-4.45,0-.22.09-.42.26-.58.17-.17.37-.25.59-.25s.44.09.61.26c.17.17.25.37.24.61l-.19,8.14c0,1.67.89,2.51,2.66,2.51.95,0,1.86-.34,2.74-1.01.75-.55,1.4-1.3,1.97-2.22.16-.27.4-.4.72-.4.24,0,.43.08.6.25.17.17.25.37.25.6Z"/>
      <path class="cls-1" d="M41.62,90.16c0,.43-.29.68-.86.77-1.61.25-3.04.91-4.29,1.99s-1.87,2.22-1.87,3.42c0,1.67,1.38,2.78,4.14,3.31.46.09.69.36.69.82,0,.26-.1.47-.3.64-.2.17-.42.23-.68.19-1.55-.27-2.79-.75-3.73-1.44-1.17-.85-1.76-1.98-1.76-3.39,0-1.13.39-2.18,1.17-3.14.31-.38.65-.73,1.02-1.04.32-.27.48-.5.48-.69,0-.26-.27-.36-.82-.32-1.66.15-3.44.34-5.33.56-.23.03-.44-.03-.61-.19-.17-.16-.26-.36-.26-.59,0-.2.07-.38.2-.53.13-.15.3-.23.5-.26,1.93-.19,5.7-.48,11.31-.86.29-.02.52.04.7.18s.27.33.27.57Z"/>
      <path class="cls-1" d="M58.54,97.22c0,.18-.07.34-.2.47-.13.13-.29.2-.47.2h-4.86c-.48,0-.72.24-.72.72v1.38c0,.82-.13,1.35-.38,1.59-.26.24-.81.36-1.65.36h-1.81c-.19,0-.36-.07-.5-.21s-.21-.3-.21-.5.07-.36.21-.5c.14-.14.3-.21.5-.21h1.28c.43,0,.7-.04.82-.13.16-.12.24-.39.24-.82v-.98c0-.48-.24-.72-.72-.72h-5.22c-.18,0-.34-.07-.46-.2-.13-.13-.19-.29-.19-.47s.06-.34.19-.46.28-.19.46-.19h5.3c.43,0,.64-.14.64-.42,0-.17.07-.33.22-.47.14-.14.32-.22.54-.22.13-.01.36-.06.7-.16.16-.07.32-.17.47-.27.15-.11.23-.21.23-.3,0-.14-.14-.21-.43-.21h-5.09c-.17,0-.32-.06-.44-.19s-.18-.28-.18-.46c0-.17.06-.32.18-.44s.27-.18.44-.18h7.22c.68,0,1.02.25,1.02.75,0,.36-.29.76-.88,1.18-.18.14-.64.42-1.38.83-.19.11-.29.22-.29.34,0,.15.14.22.42.22h4.34c.18,0,.34.06.47.19.13.13.2.28.2.46ZM58.01,93.73c0,.2-.07.38-.22.52s-.32.22-.52.22-.38-.07-.52-.22-.22-.32-.22-.52v-.82c0-.46-.23-.69-.69-.69h-9.06c-.46,0-.69.23-.69.69v.82c0,.2-.07.38-.22.52s-.32.22-.52.22-.38-.07-.52-.22-.22-.32-.22-.52v-1.47c0-.91.45-1.36,1.36-1.36h6.64c.6,0,1.05-.25,1.35-.76.3-.51.61-1.06.92-1.67.14-.28.36-.42.66-.42.21,0,.39.08.54.23.15.15.22.33.22.52,0,.11-.02.2-.06.27-.25.44-.47.82-.67,1.15-.07.12-.11.22-.11.32,0,.23.16.35.48.35h.69c.91,0,1.36.45,1.36,1.36v1.47ZM48.54,90.08c0,.2-.07.38-.22.52s-.32.22-.52.22c-.25,0-.51-.18-.78-.54-.18-.29-.37-.58-.56-.86-.09-.12-.13-.26-.13-.43,0-.19.07-.36.21-.5.14-.14.3-.22.5-.22.21,0,.39.09.53.26.28.34.56.73.85,1.15.09.13.13.27.13.42ZM52.14,89.86c0,.2-.07.37-.2.51-.13.14-.31.21-.52.21-.31,0-.53-.13-.66-.38-.13-.26-.27-.51-.41-.77-.21-.41-.32-.67-.32-.78,0-.2.07-.37.21-.51.14-.14.31-.21.51-.21.28,0,.48.1.61.3.03.04.26.46.69,1.26.06.12.1.24.1.37Z"/>
      <path class="cls-1" d="M63.61,95.28c-.39,1.6-.93,3.12-1.6,4.56-.16.33-.42.5-.77.5-.23,0-.43-.08-.6-.24-.17-.16-.25-.36-.25-.59,0-.14.03-.26.08-.37.75-1.49,1.25-2.89,1.52-4.18.1-.45.37-.67.82-.67.22,0,.42.08.58.24s.24.35.24.58c0,.07,0,.13-.02.18ZM70.2,99.11c0,.91-.32,1.58-.96,2.02-.51.35-1.15.53-1.92.53-1,0-1.95-.29-2.83-.88-.22-.15-.34-.36-.34-.64,0-.21.07-.4.22-.55.15-.15.33-.23.54-.23.12,0,.25.04.38.13.69.42,1.3.62,1.82.62.91,0,1.36-.37,1.36-1.12,0-.38-.27-.85-.8-1.41-.34-.32-.84-.82-1.5-1.49-.53-.59-.8-1.17-.8-1.76,0-.64.36-1.35,1.09-2.13.15-.16.34-.24.56-.24s.39.07.54.22c.14.15.22.33.22.54,0,.19-.06.36-.19.5-.35.38-.53.73-.53,1.02,0,.32.27.75.82,1.28.84.82,1.34,1.33,1.5,1.54.54.68.82,1.37.82,2.05ZM70.09,90.39c0,.22-.08.42-.23.58-.15.16-.34.24-.55.24-.12,0-.22-.02-.32-.06-1.09-.48-2.31-.9-3.68-1.26-.41-.11-.61-.36-.61-.75,0-.21.08-.39.23-.54.15-.15.33-.22.54-.22.29,0,.97.18,2.03.54.85.28,1.55.53,2.1.75.33.14.5.38.5.74ZM73.3,92.16c0,.17-.06.32-.18.44-.12.12-.27.18-.44.18-.26,0-.44-.1-.56-.29-.31-.49-.64-.91-.99-1.26-.12-.12-.18-.26-.18-.43,0-.43.21-.64.62-.64.18,0,.34.08.48.24.45.5.82.97,1.12,1.41.09.13.13.25.13.35ZM74.76,99.07c0,.24-.08.44-.25.61-.17.17-.37.26-.6.26-.42,0-.69-.2-.82-.59-.49-1.46-1.15-2.83-1.98-4.1-.09-.13-.13-.27-.13-.42,0-.22.08-.42.23-.58s.34-.24.57-.24c.31,0,.54.13.7.38.9,1.4,1.64,2.86,2.22,4.4.03.08.05.18.05.27ZM75.25,91.25c0,.17-.06.32-.18.44s-.27.18-.44.18c-.25,0-.43-.1-.56-.29-.35-.52-.68-.95-.99-1.3-.12-.13-.18-.26-.18-.4,0-.43.21-.64.64-.64.16,0,.31.07.46.22.37.37.75.85,1.14,1.42.07.15.11.27.11.35Z"/>
      <path class="cls-1" d="M89.43,99.63c0,.46-.22.73-.66.8-1.75.31-3.38.46-4.88.46s-2.68-.12-3.55-.37c-1.43-.41-2.14-1.18-2.14-2.32,0-.78.51-1.67,1.52-2.69.14-.14.31-.21.53-.21s.38.07.53.22c.15.14.22.32.22.52,0,.18-.07.35-.21.5-.58.6-.86,1.09-.86,1.49,0,.89,1.35,1.33,4.06,1.33,1.29,0,2.79-.17,4.51-.5.23-.04.45.01.64.17.19.16.29.36.29.6ZM87.69,91.36c-.9.35-1.98.94-3.26,1.78-.13.09-.25.13-.37.13-.18,0-.34-.07-.47-.2s-.2-.3-.2-.49c0-.25.11-.43.32-.56l.21-.13c.2-.12.3-.23.3-.35,0-.14-.15-.21-.46-.21-1.17.02-2.49-.01-3.94-.1-.2-.01-.38-.09-.52-.24-.14-.15-.22-.33-.22-.53,0-.22.08-.41.25-.57.17-.15.36-.23.58-.22,2.55.15,5.02.17,7.42.05.31-.01.56.06.74.22.19.16.28.35.28.58,0,.37-.22.65-.67.83Z"/>
      <path class="cls-1" d="M105.29,100.05c0,.46-.23.72-.69.78-1.76.25-3.52.37-5.28.37-3.14,0-4.7-.94-4.7-2.83,0-1.15.81-2.35,2.42-3.58.32-.25.48-.53.48-.85,0-.15-.03-.31-.1-.48-.47-1.18-.86-2.46-1.17-3.82-.01-.05-.02-.11-.02-.18,0-.23.08-.43.25-.6s.37-.25.6-.25c.2,0,.38.07.54.21s.25.31.3.51c.2,1.07.5,2.14.88,3.22.13.35.33.53.61.53.15,0,.3-.05.46-.14.1-.05,1.27-.7,3.54-1.94.14-.07.27-.11.38-.11.22,0,.41.08.57.24.15.16.23.35.23.58,0,.33-.15.57-.45.72-1.31.65-2.73,1.42-4.26,2.3-.97.57-1.74,1.09-2.32,1.58-.83.71-1.25,1.37-1.25,1.95,0,.96,1,1.44,3.01,1.44,1.65,0,3.33-.14,5.04-.43.23-.04.45.02.64.18.19.16.29.36.29.61Z"/>
      <path class="cls-1" d="M118.52,94.07c0,1.73-.28,3.6-.85,5.63-.17.61-.36,1.04-.56,1.3-.29.38-.69.58-1.2.58-.59,0-1.32-.15-2.21-.46-.36-.13-.54-.37-.54-.72,0-.21.08-.39.23-.54.15-.15.33-.22.54-.22.09,0,.16.01.22.03.55.18.94.27,1.15.27.26,0,.44-.08.54-.22.08-.11.18-.35.29-.72.5-1.72.75-3.27.75-4.67,0-.51-.1-.85-.3-1.02-.2-.17-.59-.26-1.15-.26h-.22c-.1.01-.18.02-.24.02-.53,0-.88.28-1.04.83-.71,2.42-1.66,4.76-2.85,7.02-.16.31-.41.46-.75.46-.23,0-.43-.08-.59-.25-.16-.17-.24-.37-.24-.6,0-.17.03-.31.1-.43,1-1.76,1.89-3.75,2.66-5.97.03-.11.05-.2.05-.29,0-.38-.23-.54-.69-.48-.33.05-.85.13-1.55.22-.22.03-.43-.03-.62-.18-.19-.15-.28-.35-.28-.58,0-.45.23-.71.7-.78s1.21-.16,2.22-.28c.51-.04.86-.36,1.04-.96.1-.52.19-1.04.27-1.57.07-.46.34-.69.8-.69.26,0,.46.09.62.28s.21.41.17.66c-.01.05-.06.29-.14.7-.07.29-.11.52-.11.69,0,.45.25.66.75.62l.24-.02c.81-.05,1.47.09,1.97.43.55.38.83,1.1.83,2.16ZM120.66,90.56c0,.17-.06.32-.18.44s-.27.18-.44.18c-.26,0-.44-.1-.56-.29-.31-.49-.64-.91-.99-1.26-.12-.12-.18-.26-.18-.43,0-.43.21-.64.62-.64.18,0,.34.08.48.24.45.5.82.97,1.12,1.41.08.13.13.25.13.35ZM121.69,96.16c-.45-1.16-1.05-2.3-1.81-3.41-.09-.13-.13-.27-.13-.43,0-.22.08-.41.25-.57.17-.15.36-.23.58-.23.27,0,.49.12.66.35.84,1.18,1.53,2.41,2.05,3.68.04.11.06.21.06.32,0,.22-.09.42-.28.59s-.4.26-.63.26c-.35,0-.6-.19-.75-.56ZM122.61,89.65c0,.17-.06.32-.18.44-.12.12-.27.18-.44.18-.25,0-.43-.1-.56-.29-.35-.52-.68-.95-.99-1.3-.12-.13-.18-.26-.18-.4,0-.43.21-.64.64-.64.16,0,.31.07.46.22.37.37.75.85,1.14,1.42.07.15.11.27.11.35Z"/>
      <path class="cls-1" d="M138.33,90.16c0,.43-.29.68-.86.77-1.61.25-3.04.91-4.29,1.99s-1.87,2.22-1.87,3.42c0,1.73,1.38,2.83,4.14,3.31.46.08.69.35.69.82,0,.26-.1.47-.3.65-.2.18-.42.24-.68.18-1.65-.32-2.91-.81-3.78-1.47-1.14-.88-1.71-2-1.71-3.36,0-1.15.39-2.2,1.17-3.14.34-.41.68-.75,1.01-1.02.33-.28.5-.51.5-.7,0-.26-.27-.36-.82-.32-2.19.19-3.96.38-5.33.56-.23.03-.44-.03-.61-.19-.17-.16-.26-.36-.26-.59,0-.2.07-.38.2-.54s.3-.24.5-.25c1.96-.19,5.73-.48,11.31-.86.29-.01.52.06.7.2.18.14.27.33.27.55ZM137.46,94.88c0,.17-.06.32-.18.44s-.27.18-.44.18c-.26,0-.44-.1-.56-.29-.31-.49-.64-.91-.99-1.26-.12-.12-.18-.26-.18-.43,0-.43.21-.64.62-.64.18,0,.34.08.48.24.45.5.82.97,1.12,1.41.09.13.13.25.13.35ZM139.42,93.97c0,.17-.06.32-.18.44-.12.12-.27.18-.44.18-.25,0-.43-.1-.56-.29-.35-.52-.68-.95-.99-1.3-.12-.13-.18-.26-.18-.4,0-.43.21-.64.64-.64.16,0,.31.07.46.22.37.37.75.85,1.14,1.42.07.15.11.27.11.35Z"/>
      <path class="cls-1" d="M154.2,92.66c0,.34-.17.57-.5.69-.7.25-1.34.44-1.92.58-.34.09-.51.25-.51.5,0,.14.05.28.16.43.52.73,1.01,1.34,1.46,1.86.15.17.22.36.22.58,0,.25-.09.46-.26.63-.17.18-.38.26-.62.26-.13,0-.25-.02-.37-.06-1.42-.56-2.75-.85-4-.85-2.05,0-3.07.49-3.07,1.46s1.29,1.42,3.87,1.42c.89,0,1.89-.06,3.01-.18.21-.02.41.04.58.18.17.14.26.32.26.54,0,.44-.22.68-.67.72-1.01.11-2.08.16-3.2.16-3.59,0-5.39-.94-5.39-2.82s1.44-2.8,4.32-2.8c.67,0,1.46.1,2.35.3.08.02.16.03.22.03.21,0,.32-.08.32-.22,0-.11-.05-.23-.16-.37-.05-.07-.2-.27-.43-.59-.29-.39-.65-.59-1.07-.59-.13,0-.27.01-.43.03-1.48.2-3.11.29-4.88.27-.19,0-.35-.07-.49-.21s-.2-.3-.2-.5.07-.36.21-.5c.14-.14.3-.21.5-.2,1.32.04,2.74-.02,4.24-.18.41-.04.61-.2.61-.48,0-.13-.04-.25-.13-.37-.26-.44-.62-.63-1.1-.58-.92.11-1.97.16-3.17.16-.18,0-.34-.07-.49-.21-.14-.14-.22-.3-.22-.48,0-.19.07-.35.22-.49.14-.13.31-.2.49-.2.88.01,1.71-.02,2.46-.08.45-.04.67-.19.67-.43,0-.01-.1-.25-.29-.7-.03-.07-.05-.16-.05-.26,0-.21.07-.4.22-.55.15-.15.34-.23.56-.23.35,0,.59.17.72.51.04.13.12.33.22.59.16.41.43.61.8.61.1,0,.2-.02.3-.05.75-.19,1.49-.42,2.24-.69.08-.03.17-.05.24-.05.2,0,.38.07.52.21.14.14.22.31.22.51,0,.36-.17.6-.51.7-.79.26-1.48.45-2.08.59-.38.09-.58.26-.58.53,0,.12.04.23.13.35l.03.05c.22.34.5.51.82.51.08,0,.18-.01.27-.03.84-.2,1.63-.44,2.37-.72.05-.02.13-.03.22-.03.2,0,.38.07.52.21.14.14.22.31.22.51Z"/>
      <path class="cls-1" d="M170.55,99.62c0,.22-.08.41-.23.57-.15.16-.34.23-.57.23-.15,0-.29-.04-.42-.11-1.07-.63-2.02-1.1-2.85-1.42-.11-.04-.2-.06-.29-.06-.31,0-.49.21-.54.64-.08.64-.3,1.11-.64,1.42-.53.48-1.49.72-2.86.72-.88,0-1.6-.17-2.18-.5-.7-.42-1.06-1.03-1.06-1.86,0-.93.44-1.61,1.33-2.03.66-.32,1.51-.48,2.56-.48.12,0,.3,0,.54.02.55.02.83-.21.83-.7v-.45c0-.53-.27-.79-.82-.78-1.13.03-2.22.04-3.26.03-.19,0-.35-.07-.49-.22-.13-.14-.2-.31-.2-.5s.07-.35.22-.49c.14-.13.31-.2.5-.2,1.04.02,2.13.02,3.25,0,.52-.01.78-.28.78-.82v-.06c0-.54-.28-.81-.83-.78-1.29.05-2.51.06-3.66.03-.19-.01-.36-.09-.5-.23-.14-.14-.21-.31-.21-.5,0-.2.07-.37.22-.51s.33-.2.53-.19c1.19.03,2.41.03,3.65,0,.52-.01.78-.27.78-.77,0-.04,0-.28-.02-.72,0-.21.07-.4.22-.55s.33-.23.54-.23.39.08.54.23.22.34.22.55v.54c0,.57.28.82.83.77.82-.09,1.72-.2,2.69-.34.21-.03.4.02.57.17.17.14.25.32.25.54,0,.41-.21.63-.62.69-1.15.15-2.13.26-2.93.34-.51.05-.77.33-.77.83v.05c0,.57.28.82.83.77.57-.05,1.35-.15,2.35-.3.21-.03.41.02.58.17.17.14.26.32.26.54,0,.42-.2.65-.61.7-.85.12-1.73.22-2.64.3-.51.04-.77.32-.77.83v.72c0,.59.29.98.88,1.17,1.09.35,2.28.87,3.57,1.55.28.15.42.38.42.7ZM164.14,98.99c.07-.53-.14-.82-.64-.86-.23-.02-.46-.03-.69-.03-1.54,0-2.3.37-2.3,1.1,0,.3.15.54.44.72s.68.27,1.16.27c.71,0,1.22-.08,1.5-.25.29-.17.46-.48.53-.95Z"/>
      <path class="cls-1" d="M186.63,97.23c0,.15-.04.29-.13.43-.73,1.18-1.59,2.13-2.61,2.83-1.14.78-2.35,1.17-3.63,1.17-2.81,0-4.21-1.27-4.21-3.81,0-1.03.02-2.39.06-4.08.03-1.37.06-2.85.08-4.45,0-.22.09-.42.26-.58.17-.17.37-.25.59-.25s.44.09.61.26c.17.17.25.37.24.61l-.19,8.14c0,1.67.89,2.51,2.66,2.51.95,0,1.86-.34,2.74-1.01.75-.55,1.4-1.3,1.97-2.22.16-.27.4-.4.72-.4.24,0,.43.08.6.25.17.17.25.37.25.6Z"/>
      <path class="cls-1" d="M198.26,91.86c-.78.15-1.57.27-2.37.37-.44.05-.75.17-.95.34s-.34.46-.44.88c-.6,2.53-1.34,4.95-2.22,7.28-.14.35-.4.53-.78.53-.24,0-.43-.08-.59-.25-.16-.17-.24-.36-.24-.58,0-.11.02-.21.06-.32.91-2.14,1.65-4.42,2.22-6.82.02-.08.03-.17.03-.24,0-.37-.22-.55-.67-.54s-.86.01-1.23,0c-.21-.01-.4-.09-.55-.25-.15-.15-.23-.34-.23-.55s.08-.42.25-.58c.17-.16.36-.23.58-.22.61.02,1.1.03,1.47.02.6-.02.94-.31,1.02-.88.03-.23.08-.58.16-1.05.07-.46.35-.7.82-.7.22,0,.42.08.58.24.16.16.24.35.24.56,0,.11-.04.37-.13.8-.01.08-.02.14-.02.21,0,.43.23.6.7.53.06-.01.44-.09,1.12-.22.51-.1.86-.14,1.06-.14.22,0,.41.08.55.24.14.16.22.35.22.58,0,.44-.22.7-.66.78ZM203.32,100.27c0,.46-.22.72-.67.78-1.01.15-2.08.22-3.2.22-2.84,0-4.26-.79-4.26-2.38,0-.36.09-.78.27-1.25.13-.32.37-.48.72-.48.5,0,.75.26.75.77,0,.09-.02.21-.05.36s-.05.27-.05.36c0,.73.91,1.09,2.74,1.09.8,0,1.75-.08,2.85-.24.23-.03.44.03.62.18.18.16.27.35.27.58ZM202.87,94.32c0,.22-.09.42-.26.58-.17.16-.37.23-.59.22-1.59-.09-3.29-.05-5.1.11-.22.02-.42-.05-.58-.2-.17-.15-.25-.34-.25-.57,0-.2.07-.38.2-.52.13-.14.3-.23.49-.25,1.8-.18,3.57-.25,5.31-.19.21.01.4.1.55.26.15.16.23.35.23.56Z"/>
      <path class="cls-1" d="M210.33,99.94c0,.65-.23,1.2-.69,1.66-.46.45-1.01.68-1.66.68s-1.2-.23-1.66-.68-.68-1-.68-1.66.23-1.21.68-1.66c.45-.46,1-.69,1.66-.69s1.21.23,1.66.69.69,1.01.69,1.66ZM209.19,99.94c0-.34-.12-.63-.35-.86-.23-.23-.52-.35-.86-.35s-.61.12-.85.36c-.23.24-.35.53-.35.86s.12.61.35.84c.23.23.52.34.85.34s.63-.11.86-.34c.23-.22.35-.51.35-.85Z"/>
      <path class="cls-1" d="M43.21,117.74c0,.2-.07.38-.22.53s-.32.22-.52.22c-.17,0-.33-.06-.46-.18-1.74-1.42-3.26-3.01-4.58-4.78-.15-.2-.3-.3-.45-.3-.21,0-.32.18-.32.54v2.3c0,.43.21.64.64.64h1.62c.18,0,.34.07.47.2.13.13.2.29.2.47,0,.19-.07.35-.2.49-.13.13-.29.2-.47.2h-1.58c-.43,0-.64.21-.64.64v1.54c0,.2-.07.38-.22.53s-.32.22-.52.22c-.21,0-.39-.07-.54-.22-.14-.15-.22-.33-.22-.53v-1.54c0-.43-.21-.64-.64-.64h-1.5c-.18,0-.34-.07-.47-.2-.13-.13-.2-.3-.2-.49s.07-.34.2-.47.29-.2.47-.2h1.54c.43,0,.64-.21.64-.64v-2.27c0-.36-.11-.54-.32-.54-.14,0-.28.1-.43.3-1.21,1.65-2.71,3.23-4.51,4.74-.14.12-.29.18-.46.18-.19,0-.36-.07-.5-.22-.14-.14-.22-.32-.22-.52,0-.23.09-.43.27-.58,2.11-1.68,3.84-3.55,5.18-5.58.09-.14.13-.26.13-.37,0-.27-.18-.4-.54-.4h-4.1c-.18,0-.34-.07-.47-.2-.13-.13-.2-.3-.2-.49,0-.18.07-.34.2-.47.13-.13.29-.2.47-.2h4.75c.48,0,.72-.24.72-.72v-1.06c0-.2.07-.38.22-.53.14-.15.32-.22.54-.22s.38.07.52.22.22.33.22.53v1.06c0,.48.24.72.72.72h4.8c.18,0,.34.07.48.2.14.13.21.29.21.47,0,.19-.07.36-.21.49-.14.13-.3.2-.48.2h-4.11c-.37,0-.56.13-.56.4,0,.12.04.24.13.37,1.3,1.94,3.06,3.8,5.26,5.57.18.15.27.35.27.59Z"/>
      <path class="cls-1" d="M58.52,119.05c0,.98-.5,1.47-1.49,1.47h-10.77c-.19,0-.36-.07-.5-.21s-.22-.3-.22-.5.07-.36.22-.5c.14-.14.31-.22.5-.22h10.06c.44,0,.66-.22.66-.66v-.56c0-.43-.21-.64-.64-.64h-9.39c-.18,0-.34-.07-.47-.21-.13-.14-.2-.3-.2-.48s.07-.34.2-.46c.13-.13.29-.19.47-.19h9.39c.43,0,.64-.21.64-.64v-.51c0-.45-.22-.67-.66-.67h-9.94c-.19,0-.35-.07-.49-.21-.13-.14-.2-.3-.2-.5s.07-.35.2-.49c.13-.13.3-.2.49-.2h4.24c.48,0,.72-.24.72-.72v-4.11c0-.21.07-.39.22-.54s.33-.22.54-.22.39.08.54.22.22.33.22.54v4.11c0,.48.24.72.72.72h3.44c.99,0,1.49.49,1.49,1.47v4.9ZM49.31,111.03c0,.2-.07.37-.21.51-.14.14-.31.21-.51.21-.26,0-.45-.1-.59-.3-.45-.66-1-1.39-1.65-2.18-.12-.14-.18-.3-.18-.48,0-.2.07-.37.22-.51s.32-.21.52-.21c.23,0,.42.09.56.26.61.74,1.18,1.49,1.71,2.27.09.13.13.27.13.43ZM58.41,108.6c0,.16-.05.31-.14.45-.57.84-1.21,1.69-1.94,2.53-.15.17-.34.26-.56.26-.2,0-.38-.07-.52-.22s-.22-.33-.22-.53c0-.15.06-.3.19-.46.71-.88,1.31-1.7,1.79-2.43.14-.21.35-.32.64-.32.2,0,.38.07.53.22.15.14.22.32.22.52Z"/>
      <path class="cls-1" d="M64.92,108.6c-.43,2.44-.64,4.75-.64,6.93,0,1.53.06,2.8.18,3.82.03.25-.04.46-.21.66-.17.19-.38.29-.62.29-.22,0-.42-.08-.58-.22s-.25-.33-.27-.54c-.11-1.02-.16-2.33-.16-3.9,0-2.37.22-4.8.67-7.31.08-.46.36-.69.82-.69.26,0,.47.1.63.3s.23.42.18.68ZM74.63,118.36c0,.19-.07.37-.21.52-.14.15-.3.24-.5.26-1.39.18-2.54.27-3.47.27-2.83,0-4.24-.85-4.24-2.56,0-.48.13-.97.4-1.47.15-.29.37-.43.67-.43.52,0,.78.25.78.75,0,.11-.03.26-.1.47s-.1.38-.1.5c0,.44.26.74.78.91.45.16,1.16.24,2.13.24.79,0,1.76-.09,2.91-.27.25-.04.46.02.65.18.19.17.28.37.28.62ZM74.07,109.9c0,.2-.07.38-.2.53-.13.15-.3.24-.5.27-1.21.17-2.48.26-3.82.26-.6,0-1.25-.02-1.95-.06-.2-.01-.38-.09-.53-.25s-.22-.34-.22-.55c0-.24.09-.43.26-.58.18-.16.38-.22.6-.2.6.05,1.23.08,1.9.08,1.21,0,2.38-.09,3.54-.27.25-.04.46.02.65.18.19.16.28.36.28.61Z"/>
      <path class="cls-1" d="M90.92,116.03c0,1.37-.48,2.45-1.44,3.26-.83.71-1.96,1.17-3.39,1.36-.22.03-.42-.03-.6-.18-.18-.16-.26-.34-.26-.57,0-.44.21-.69.64-.77,2.28-.39,3.42-1.45,3.42-3.17,0-1.18-.49-2.02-1.46-2.5-.13-.06-.25-.1-.37-.1-.28,0-.5.18-.67.53-.69,1.45-1.49,2.71-2.38,3.79-1.38,1.64-2.75,2.46-4.11,2.46-.7,0-1.25-.2-1.64-.6-.39-.4-.58-.95-.58-1.64,0-1.22.36-2.32,1.07-3.31.54-.76,1.22-1.38,2.03-1.86.48-.29.74-.69.77-1.2l.02-.3c.02-.49-.21-.74-.69-.74-.6,0-1.27,0-2.03-.02-.2,0-.38-.07-.52-.22s-.22-.33-.22-.53.08-.38.23-.53c.15-.15.34-.22.55-.21.98.04,1.71.06,2.19.05.44-.01.69-.24.75-.69l.1-.69c.06-.47.31-.7.75-.7.22,0,.42.1.59.29.17.19.24.39.21.59l-.05.3c-.04.26,0,.45.11.59.12.14.3.2.56.18,1.1-.09,2.34-.23,3.71-.43.22-.03.42.03.6.18.18.15.26.34.26.58,0,.44-.22.68-.67.74-1.67.2-3.05.34-4.11.4-.5.03-.77.26-.8.69-.02.26.03.44.17.55.13.11.33.15.58.12.42-.05.77-.08,1.07-.08,1.63,0,2.93.31,3.89.93,1.14.75,1.71,1.89,1.71,3.44ZM81.34,118.36c.48-.26.69-.76.64-1.52-.01-.48-.02-.96-.03-1.42-.04-.75-.18-1.12-.42-1.12-.15,0-.32.08-.51.26-.42.36-.75.82-1.01,1.38-.28.59-.42,1.17-.42,1.76,0,.63.26.94.78.94.3,0,.62-.09.96-.27ZM85.35,113.64c.05-.11.08-.2.08-.29,0-.27-.17-.39-.5-.37-.49.03-.85.12-1.09.26-.33.19-.5.51-.51.96-.01.41,0,.86.02,1.38.01.32.12.48.34.48.15,0,.29-.09.42-.27.48-.67.9-1.39,1.25-2.14Z"/>
      <path class="cls-1" d="M99.45,113.24c-.55.95-1.02,1.87-1.39,2.77-.16.38-.43.58-.82.58-.53,0-.84-.28-.93-.83-.1-.63-.14-1.57-.14-2.83s.18-2.77.54-4.5c.11-.52.38-.78.83-.78.22,0,.41.08.56.23.15.16.22.34.22.57,0,.06,0,.13-.02.19-.38,1.76-.59,3.09-.61,3.98-.01.35.07.53.24.53.14,0,.29-.13.45-.38l.08-.13c.11-.17.27-.26.48-.26.38,0,.58.19.58.58,0,.11-.03.2-.08.29ZM104.96,113.32c0,1.8-.33,3.28-.98,4.43-.68,1.2-1.8,2.2-3.36,3.02-.12.06-.25.1-.38.1-.22,0-.42-.09-.58-.26s-.24-.38-.24-.6c0-.3.15-.53.45-.69,1.3-.68,2.21-1.5,2.74-2.46.49-.89.74-2.08.74-3.6,0-1.38-.14-2.99-.43-4.85-.04-.25.02-.47.19-.66.17-.2.38-.3.62-.3.2,0,.38.07.54.21.15.14.25.31.28.51.28,2,.42,3.71.42,5.15Z"/>
      <path class="cls-1" d="M119.34,113.07c0,1.73-.28,3.61-.85,5.63-.17.61-.36,1.04-.56,1.3-.29.38-.69.58-1.2.58-.59,0-1.32-.15-2.21-.46-.36-.13-.54-.37-.54-.72,0-.21.08-.39.23-.54.15-.15.33-.22.54-.22.09,0,.16.01.22.03.55.18.94.27,1.15.27.26,0,.44-.08.54-.22.08-.11.18-.35.29-.72.5-1.72.75-3.27.75-4.67,0-.51-.1-.85-.3-1.02-.2-.17-.59-.26-1.15-.26h-.22c-.1.01-.18.02-.24.02-.53,0-.88.28-1.04.83-.71,2.42-1.66,4.76-2.85,7.02-.16.31-.41.46-.75.46-.23,0-.43-.08-.59-.25-.16-.17-.24-.37-.24-.6,0-.17.03-.31.1-.43,1-1.76,1.89-3.75,2.66-5.97.03-.11.05-.2.05-.29,0-.38-.23-.54-.69-.48-.33.05-.85.13-1.55.22-.22.03-.43-.03-.62-.18-.19-.16-.28-.35-.28-.58,0-.45.23-.71.7-.78s1.21-.16,2.22-.28c.51-.04.86-.36,1.04-.96.1-.52.19-1.04.27-1.57.07-.46.34-.69.8-.69.26,0,.46.09.62.28s.21.41.17.66c-.01.05-.06.29-.14.7-.07.29-.11.52-.11.69,0,.45.25.66.75.62l.24-.02c.81-.05,1.47.09,1.97.43.55.38.83,1.1.83,2.16ZM121.48,109.56c0,.17-.06.32-.18.44-.12.12-.27.18-.44.18-.26,0-.44-.1-.56-.29-.31-.49-.64-.91-.99-1.26-.12-.12-.18-.26-.18-.43,0-.43.21-.64.62-.64.18,0,.34.08.48.24.45.5.82.97,1.12,1.41.08.13.13.25.13.35ZM122.51,115.16c-.45-1.16-1.05-2.3-1.81-3.41-.09-.13-.13-.27-.13-.43,0-.22.08-.41.25-.57.17-.15.36-.23.58-.23.27,0,.49.12.66.35.84,1.18,1.53,2.41,2.05,3.68.04.11.06.21.06.32,0,.22-.09.42-.28.59-.19.17-.4.26-.63.26-.35,0-.6-.19-.75-.56ZM123.43,108.65c0,.17-.06.32-.18.44-.12.12-.27.18-.44.18-.25,0-.43-.1-.56-.29-.35-.52-.68-.95-.99-1.3-.12-.13-.18-.26-.18-.4,0-.43.21-.64.64-.64.16,0,.31.08.46.22.37.37.75.85,1.14,1.42.07.15.11.27.11.35Z"/>
      <path class="cls-1" d="M138.43,119.05c0,.46-.23.72-.69.78-1.76.25-3.52.37-5.28.37-3.14,0-4.7-.94-4.7-2.83,0-1.15.81-2.35,2.42-3.58.32-.25.48-.53.48-.85,0-.15-.03-.31-.1-.48-.47-1.18-.86-2.46-1.17-3.82-.01-.05-.02-.11-.02-.18,0-.23.08-.43.25-.6.17-.17.37-.25.6-.25.2,0,.38.07.54.21s.25.31.3.51c.2,1.07.5,2.14.88,3.22.13.35.33.53.61.53.15,0,.3-.05.46-.14.1-.05,1.27-.7,3.54-1.94.14-.07.27-.11.38-.11.22,0,.41.08.57.24.15.16.23.35.23.58,0,.33-.15.57-.45.72-1.31.65-2.73,1.42-4.26,2.3-.97.57-1.74,1.09-2.32,1.58-.83.71-1.25,1.37-1.25,1.95,0,.96,1,1.44,3.01,1.44,1.65,0,3.33-.14,5.04-.43.23-.04.45.02.64.18.19.16.29.36.29.61Z"/>
      <path class="cls-1" d="M154.23,114.51c0,1.64-.69,3.03-2.08,4.18-1.11.93-2.56,1.63-4.35,2.1-.08.02-.15.03-.19.03-.21,0-.4-.08-.55-.23s-.23-.34-.23-.57c0-.39.19-.65.56-.75,1.38-.39,2.5-.93,3.38-1.6,1.17-.88,1.76-1.92,1.76-3.1,0-1.43-.72-2.14-2.16-2.14s-3.29.38-5.46,1.14c-.1.03-.18.05-.26.05-.21,0-.4-.08-.56-.24-.16-.16-.24-.35-.24-.58,0-.39.19-.65.58-.77,2.51-.76,4.51-1.14,6.02-1.14,1.19,0,2.12.3,2.77.91.68.64,1.02,1.55,1.02,2.72ZM152.38,108.91c0,.24-.09.43-.26.58-.17.16-.37.22-.59.2-2.17-.19-3.87-.46-5.12-.8-.39-.11-.59-.36-.59-.77,0-.22.08-.41.23-.57.15-.16.34-.23.57-.23.06,0,.13.01.21.03,1.42.38,3.02.64,4.82.77.2.01.38.09.52.25.14.16.21.33.21.54Z"/>
      <path class="cls-1" d="M170.73,118.63c0,.45-.22.71-.66.8-1.69.31-3.31.46-4.88.46s-2.68-.12-3.55-.37c-1.43-.41-2.14-1.18-2.14-2.32,0-.78.51-1.67,1.52-2.69.14-.14.31-.21.53-.21.2,0,.38.07.53.22.15.14.22.32.22.52,0,.19-.07.36-.21.5-.58.58-.86,1.07-.86,1.49,0,.89,1.35,1.33,4.06,1.33,1.07,0,2.57-.17,4.51-.5.23-.04.45.01.64.17.19.16.29.35.29.6ZM168.99,110.36c-.8.32-1.89.91-3.26,1.78-.14.08-.26.13-.37.13-.18,0-.34-.07-.47-.2-.13-.13-.2-.3-.2-.49,0-.25.11-.43.32-.56l.21-.13c.2-.12.3-.23.3-.35,0-.14-.15-.21-.46-.21-.96,0-2.27-.03-3.94-.1-.2-.01-.38-.09-.52-.24-.14-.15-.22-.33-.22-.53,0-.22.08-.41.25-.57.17-.15.36-.23.58-.22,2.1.15,4.58.17,7.42.05.31-.01.56.06.74.22s.28.35.28.58c0,.37-.22.65-.67.83ZM170.76,113.47c0,.17-.06.32-.18.44s-.27.18-.44.18c-.26,0-.44-.1-.56-.29-.31-.49-.64-.91-.99-1.26-.12-.12-.18-.26-.18-.43,0-.43.21-.64.62-.64.18,0,.34.08.48.24.45.5.82.97,1.12,1.41.08.13.13.25.13.35ZM172.71,112.55c0,.17-.06.32-.18.44s-.27.18-.44.18c-.25,0-.43-.1-.56-.29-.35-.52-.68-.96-.99-1.3-.12-.13-.18-.26-.18-.4,0-.43.21-.64.64-.64.16,0,.31.07.46.22.37.37.75.85,1.14,1.42.08.15.11.27.11.35Z"/>
      <path class="cls-1" d="M186.27,109.85c0,.32-.15.55-.45.69-.01,0-.62.24-1.84.7-.34.13-.51.3-.51.53,0,.13.06.27.18.42.76,1.02,1.54,1.94,2.35,2.75.22.22.34.47.34.75,0,.25-.09.45-.26.62-.18.17-.4.26-.66.26-.17,0-.35-.04-.53-.11-1.29-.58-2.61-.86-3.95-.86-.98,0-1.74.15-2.29.45-.54.3-.82.71-.82,1.23,0,1.21,1.3,1.81,3.9,1.81,1.04,0,2.07-.07,3.1-.22.22-.03.42.03.6.18.18.16.26.35.26.58,0,.19-.07.36-.2.5-.13.14-.29.23-.47.25-1.03.14-2.07.21-3.1.21-3.82,0-5.73-1.07-5.73-3.2,0-1.16.51-2.01,1.52-2.54.78-.42,1.81-.62,3.09-.62.59,0,1.16.07,1.73.21.18.04.33.06.45.06.22,0,.34-.08.34-.24,0-.13-.06-.27-.19-.43-.41-.49-.7-.87-.9-1.14-.35-.48-.77-.72-1.25-.72-.13,0-.27.02-.43.05-1.22.2-2.66.3-4.34.3-.21,0-.39-.07-.54-.22s-.22-.33-.22-.54.08-.39.22-.54c.15-.15.33-.22.54-.22,1.15,0,2.33-.07,3.52-.21.37-.04.56-.2.56-.48,0-.14-.05-.28-.14-.43l-.54-.9c-.07-.13-.11-.26-.11-.4,0-.21.08-.4.23-.55s.34-.23.55-.23c.32,0,.55.14.7.42.36.7.59,1.12.69,1.25.34.49.7.74,1.09.74.13,0,.27-.02.43-.06.66-.2,1.32-.46,1.98-.77.11-.05.22-.08.34-.08.21,0,.39.08.54.23.15.15.22.34.22.55ZM187.48,108.94c0,.16-.06.3-.17.42-.11.12-.25.18-.42.18-.22,0-.49-.2-.8-.59-.22-.3-.45-.6-.67-.9-.12-.12-.18-.25-.18-.4,0-.41.2-.61.61-.61.16,0,.31.08.45.22.44.49.79.94,1.07,1.34.07.11.11.22.11.34ZM189.35,108.06c0,.16-.06.3-.18.42-.12.12-.26.18-.42.18-.24,0-.41-.09-.53-.27-.34-.5-.66-.91-.94-1.23-.11-.12-.16-.25-.16-.38,0-.41.2-.61.61-.61.14,0,.28.08.43.22.38.38.75.83,1.09,1.34.07.15.11.26.11.34Z"/>
      <path class="cls-1" d="M197.4,117.15c-.94,1.85-1.84,2.77-2.7,2.77-1.07,0-1.89-.95-2.48-2.85-.46-1.47-.69-3.14-.69-5.01,0-.96.03-1.79.1-2.48.02-.22.11-.41.26-.56.16-.15.34-.22.57-.22.25,0,.45.09.62.28.17.19.24.4.22.65-.07.71-.11,1.54-.11,2.48,0,1.23.13,2.44.4,3.65.3,1.33.69,2,1.18,2,.35,0,.75-.48,1.2-1.44.14-.29.38-.43.72-.43.22,0,.41.08.57.23.15.16.23.34.23.57,0,.14-.03.26-.08.37ZM204.33,116.65c.03.26-.04.49-.21.69-.17.2-.39.3-.66.3-.22,0-.42-.08-.59-.22-.17-.15-.27-.33-.29-.54-.27-2.42-1.05-4.58-2.35-6.46-.1-.14-.14-.29-.14-.46,0-.23.08-.43.24-.59s.36-.24.59-.24c.29,0,.52.12.69.35,1.47,2.05,2.38,4.44,2.72,7.18Z"/>
      <path class="cls-1" d="M219.85,118.62c0,.22-.08.41-.23.57s-.34.23-.57.23c-.15,0-.29-.04-.42-.11-1.07-.63-2.02-1.1-2.85-1.42-.11-.04-.2-.06-.29-.06-.31,0-.49.21-.54.64-.08.64-.3,1.12-.64,1.42-.53.48-1.49.72-2.86.72-.88,0-1.6-.17-2.18-.5-.7-.42-1.06-1.03-1.06-1.86,0-.93.44-1.6,1.33-2.03.66-.32,1.51-.48,2.56-.48.12,0,.3,0,.54.02.55.02.83-.21.83-.7v-.45c0-.53-.27-.79-.82-.78-1.13.03-2.22.04-3.26.03-.19,0-.35-.07-.49-.22-.13-.14-.2-.31-.2-.5s.07-.35.22-.49c.14-.13.31-.2.5-.2,1.04.02,2.13.02,3.25,0,.52-.01.78-.28.78-.82v-.06c0-.54-.28-.81-.83-.78-1.29.05-2.51.06-3.66.03-.19-.01-.36-.09-.5-.23-.14-.14-.21-.31-.21-.5,0-.2.07-.37.22-.51s.33-.2.53-.19c1.19.03,2.41.03,3.65,0,.52,0,.78-.27.78-.77,0-.04,0-.28-.02-.72,0-.21.07-.4.22-.55.15-.15.33-.23.54-.23s.39.08.54.23c.15.16.22.34.22.55v.54c0,.57.28.82.83.77.82-.08,1.72-.2,2.69-.34.21-.03.4.02.57.17.17.14.25.32.25.54,0,.41-.21.63-.62.69-1.15.15-2.13.26-2.93.34-.51.05-.77.33-.77.83v.05c0,.57.28.82.83.77.57-.05,1.35-.15,2.35-.3.21-.03.41.02.58.17.17.14.26.32.26.54,0,.42-.2.65-.61.7-.85.12-1.73.22-2.64.3-.51.04-.77.32-.77.83v.72c0,.59.29.98.88,1.17,1.09.35,2.28.87,3.57,1.55.28.15.42.38.42.7ZM213.43,117.99c.07-.53-.14-.82-.64-.86-.23-.02-.46-.03-.69-.03-1.54,0-2.3.37-2.3,1.1,0,.3.15.54.44.72.29.18.68.27,1.16.27.71,0,1.22-.08,1.5-.25.29-.17.46-.48.53-.95Z"/>
      <path class="cls-1" d="M235.93,116.23c0,.15-.04.29-.13.43-.73,1.18-1.59,2.13-2.61,2.83-1.14.78-2.35,1.17-3.63,1.17-2.81,0-4.21-1.27-4.21-3.81,0-1.03.02-2.39.06-4.08.03-1.37.06-2.85.08-4.45,0-.22.09-.42.26-.58.17-.17.37-.25.59-.25s.44.09.61.26c.17.17.25.37.24.61l-.19,8.14c0,1.67.89,2.51,2.66,2.51.95,0,1.86-.34,2.74-1.01.75-.55,1.4-1.3,1.97-2.22.16-.27.4-.4.72-.4.24,0,.43.08.6.25s.25.37.25.6Z"/>
      <path class="cls-1" d="M50.6,129.86c-.78.15-1.57.27-2.37.37-.44.05-.75.17-.95.34-.2.17-.34.46-.44.88-.6,2.53-1.34,4.96-2.22,7.28-.14.35-.4.53-.78.53-.23,0-.43-.08-.59-.25-.16-.17-.24-.36-.24-.58,0-.11.02-.21.06-.32.91-2.14,1.65-4.42,2.22-6.82.02-.08.03-.17.03-.24,0-.37-.22-.55-.67-.54-.45.01-.86.01-1.23,0-.21,0-.4-.09-.55-.25-.15-.15-.23-.34-.23-.55s.08-.42.25-.58c.17-.16.36-.23.58-.22.61.02,1.1.03,1.47.02.6-.02.94-.31,1.02-.88.03-.23.09-.58.16-1.05s.35-.7.82-.7c.22,0,.42.08.58.24s.24.35.24.56c0,.11-.04.37-.13.8-.01.07-.02.14-.02.21,0,.43.23.6.7.53.06,0,.44-.08,1.12-.22.51-.1.86-.14,1.06-.14.22,0,.41.08.55.24s.22.35.22.58c0,.44-.22.7-.66.78ZM55.66,138.27c0,.46-.22.72-.67.78-1.01.15-2.08.22-3.2.22-2.84,0-4.26-.79-4.26-2.38,0-.36.09-.78.27-1.25.13-.32.37-.48.72-.48.5,0,.75.26.75.77,0,.08-.02.21-.05.36-.03.15-.05.27-.05.36,0,.73.91,1.09,2.74,1.09.8,0,1.75-.08,2.85-.24.23-.03.44.03.62.18.18.15.27.35.27.58ZM55.21,132.32c0,.22-.09.42-.26.58-.17.16-.37.23-.59.22-1.59-.08-3.29-.05-5.1.11-.22.02-.42-.04-.58-.2-.17-.15-.25-.34-.25-.57,0-.2.07-.38.2-.52.13-.14.3-.23.49-.25,1.8-.18,3.57-.25,5.31-.19.21.01.4.1.55.26s.23.35.23.56Z"/>
      <path class="cls-1" d="M63.77,138.07c0,.32-.11.59-.32.81-.21.22-.48.33-.8.33s-.59-.11-.82-.33c-.22-.22-.34-.49-.34-.81s.11-.59.34-.81c.22-.22.5-.33.82-.33s.57.11.79.34c.22.22.33.49.33.8ZM69.02,127.87c0,.17-.05.34-.14.51l-4.13,7.28c-.15.26-.36.38-.64.38-.2,0-.38-.08-.53-.22s-.22-.33-.22-.53c0-.1.03-.2.08-.3l3.6-7.55c.19-.41.5-.61.93-.61.29,0,.54.1.74.3.21.2.31.45.31.74Z"/>
    </g>
    <g>
      <path class="cls-1" d="M177.86,152.12c0,1.37-.48,2.45-1.44,3.26-.83.71-1.96,1.17-3.39,1.36-.22.03-.42-.03-.6-.18-.18-.16-.26-.34-.26-.57,0-.44.21-.69.64-.77,2.28-.39,3.42-1.45,3.42-3.17,0-1.18-.49-2.02-1.46-2.5-.13-.06-.25-.1-.37-.1-.28,0-.5.18-.67.53-.69,1.45-1.49,2.71-2.38,3.79-1.38,1.64-2.75,2.46-4.11,2.46-.7,0-1.25-.2-1.64-.6-.39-.4-.58-.95-.58-1.64,0-1.22.36-2.32,1.07-3.31.54-.76,1.22-1.38,2.03-1.86.48-.29.74-.69.77-1.2l.02-.3c.02-.49-.21-.74-.69-.74-.6,0-1.28,0-2.03-.02-.2,0-.38-.07-.52-.22-.14-.15-.22-.33-.22-.53s.08-.38.23-.53c.15-.15.34-.22.55-.21.98.04,1.71.06,2.19.05.44-.01.69-.24.75-.69l.1-.69c.06-.47.31-.7.75-.7.22,0,.42.1.59.29.17.19.24.39.21.59l-.05.3c-.04.26,0,.45.11.59.12.14.3.2.56.18,1.1-.09,2.34-.23,3.71-.43.22-.03.42.03.6.18.18.15.26.34.26.58,0,.44-.22.68-.67.74-1.67.2-3.05.34-4.11.4-.5.03-.77.26-.8.69-.02.26.03.44.17.55.13.11.33.15.58.12.42-.05.77-.08,1.07-.08,1.63,0,2.93.31,3.89.93,1.14.75,1.71,1.89,1.71,3.44ZM168.27,154.45c.48-.26.69-.76.64-1.52-.01-.48-.02-.96-.03-1.42-.04-.75-.18-1.12-.42-1.12-.15,0-.32.08-.51.26-.42.36-.75.82-1.01,1.38-.28.59-.42,1.17-.42,1.76,0,.63.26.94.78.94.3,0,.62-.09.96-.27ZM172.29,149.73c.05-.11.08-.2.08-.29,0-.27-.17-.39-.5-.37-.49.03-.85.12-1.09.26-.33.19-.5.51-.51.96-.01.41,0,.86.02,1.38,0,.32.12.48.34.48.15,0,.29-.09.42-.27.48-.67.9-1.39,1.25-2.14Z"/>
      <path class="cls-1" d="M194.13,149.48c0,1.3-.36,2.37-1.08,3.21-.72.84-1.72,1.35-3,1.53-.49.08-.93.34-1.33.8-.66.78-1.63,1.41-2.9,1.9-.08.03-.18.05-.27.05-.19,0-.36-.07-.51-.22-.15-.14-.22-.32-.22-.54,0-.35.16-.59.48-.7.61-.22,1.12-.5,1.55-.83.17-.13.26-.27.26-.43,0-.21-.15-.41-.45-.58-.51-.31-.94-.72-1.3-1.25-.08-.13-.13-.27-.13-.42,0-.48.23-.72.7-.72.27,0,.46.1.59.3.39.63.78.94,1.17.94.31,0,.49-.2.53-.59.05-.51.08-1.01.08-1.49,0-.88-.02-1.72-.05-2.51-.02-.58-.24-.86-.64-.86-.13,0-.27.03-.43.1-.91.35-1.74,1.02-2.5,2-.73.93-1.24,1.99-1.55,3.18-.09.33-.13.74-.13,1.22,0,.22-.08.42-.22.59-.15.17-.34.26-.56.26s-.39-.07-.54-.22c-.15-.14-.23-.32-.24-.54-.12-3.15-.07-6,.14-8.58.02-.21.11-.39.26-.53.15-.14.34-.21.55-.21.23,0,.43.09.59.27.16.18.22.39.19.62-.12.97-.2,1.96-.24,2.98-.01.32.07.48.24.48.13,0,.26-.1.4-.3.97-1.44,2.19-2.38,3.66-2.82.55-.16.82-.47.8-.94l-.02-.37c-.01-.23.06-.44.22-.62.15-.18.35-.26.6-.26.21,0,.4.07.56.22.16.14.25.32.26.54l.02.32c.02.48.29.75.8.8,1.03.12,1.87.5,2.51,1.15.76.77,1.14,1.79,1.14,3.06ZM192.56,149.54c0-1.47-.63-2.38-1.9-2.72-.08-.02-.17-.03-.24-.03-.42,0-.62.27-.61.8.02,1.04.03,1.88.03,2.54,0,.78-.02,1.37-.06,1.76-.05.47.1.7.46.7.09,0,.18-.02.27-.05,1.37-.48,2.05-1.48,2.05-3.01Z"/>
      <path class="cls-1" d="M210.82,152.17c0,.22-.08.41-.24.57-.16.15-.35.23-.58.23-.14,0-.27-.03-.38-.1l-.67-.35c-.16-.09-.3-.13-.43-.13-.27,0-.47.18-.62.53-.61,1.45-1.56,2.66-2.85,3.63-.14.11-.3.16-.48.16-.22,0-.42-.08-.58-.24-.16-.16-.24-.35-.24-.58,0-.28.11-.5.34-.66,1.07-.79,1.86-1.81,2.38-3.07.05-.13.08-.25.08-.35,0-.31-.18-.53-.54-.67-.76-.29-1.54-.51-2.35-.66-.08-.02-.17-.03-.26-.03-.45,0-.78.25-.99.74-.22.52-.6,1.37-1.14,2.54-.35.75-.7,1.28-1.06,1.59-.35.31-.79.47-1.33.47-.65,0-1.2-.25-1.63-.76-.44-.51-.66-1.12-.66-1.85,0-1.33.53-2.39,1.6-3.18.71-.52,1.56-.86,2.54-1.02.71-.12,1.2-.46,1.46-1.04.36-.83.61-1.42.75-1.76.05-.14.08-.26.08-.37,0-.3-.25-.43-.75-.38-.51.05-1.36.13-2.54.22-.21.01-.4-.06-.57-.2-.17-.14-.25-.33-.25-.55,0-.2.07-.38.21-.53s.31-.23.51-.24c1.14-.04,2.44-.16,3.9-.35.16-.02.28-.03.35-.03.78,0,1.17.32,1.17.96,0,.22-.05.46-.16.7l-1.18,2.75c-.06.16-.1.3-.1.42,0,.28.21.45.64.53.58.11,1.25.29,2.02.54.13.04.25.06.35.06.35,0,.55-.21.61-.64.06-.57.11-1.11.13-1.65.01-.21.09-.39.25-.54.15-.15.34-.22.55-.22.22,0,.42.08.58.25s.23.36.22.58c-.01.25-.05.67-.13,1.26-.06.53-.1.93-.1,1.2,0,.45.23.79.69,1.02.3.14.6.28.9.42.33.21.5.47.5.77ZM200.72,151.17c.06-.14.1-.27.1-.38,0-.23-.12-.35-.35-.35-.09,0-.18.02-.29.05-.44.15-.82.36-1.15.64-.62.52-.93,1.2-.93,2.02,0,.26.07.48.2.68.13.2.31.3.52.3.41,0,.79-.43,1.17-1.28l.74-1.66Z"/>
    </g>
  </g>
</svg>