<?xml version="1.0" encoding="UTF-8"?>
<svg xmlns="http://www.w3.org/2000/svg" viewBox="0 0 209.97 260">
  <defs>
    <style>
      .cls-1 {
        fill: #5b5b5b;
      }

      .cls-2 {
        fill: #fffffa;
        stroke: #cecece;
        stroke-linecap: round;
        stroke-linejoin: round;
        stroke-width: 7px;
      }
    </style>
  </defs>
  <g id="_レイヤー_1" data-name="レイヤー 1">
    <path class="cls-2" d="M205.91,136.05c5.15,66.33-24.68,120.45-100.96,120.45-69.55,0-106.21-54.13-100.96-120.45C8.48,79.4,50.32,3.5,106.07,3.5s95.35,74.8,99.83,132.55Z"/>
    <polyline class="cls-2" points="4.61 127.5 29.46 155 65.46 127.5 104.46 160 144.46 127.5 184.46 156 205.32 127.5"/>
  </g>
  <g id="hiroko2km">
    <g>
      <path class="cls-1" d="M103.46,43.32c0,.17-.06.31-.18.43-.12.12-.27.18-.43.18h-2.97c-.42,0-.63.21-.63.63v3.09c0,.36.1.56.31.6.05,0,.15.01.32.01h.88c.52,0,.85-.13.98-.38.07-.15.13-.54.15-1.16,0-.17.07-.31.2-.43s.27-.18.45-.18.33.07.46.2c.13.13.19.28.18.46-.03,1.12-.19,1.85-.5,2.21s-.93.52-1.87.52h-1.5c-.56,0-.93-.09-1.12-.27-.19-.18-.28-.55-.28-1.11v-3.56c0-.42-.21-.63-.63-.63h-.53c-.4,0-.62.21-.64.62-.16,2.34-1.3,4.04-3.42,5.08-.09.05-.2.07-.32.07-.18,0-.34-.07-.48-.2-.14-.13-.21-.29-.21-.48,0-.29.13-.49.38-.62.89-.44,1.54-.95,1.97-1.55s.68-1.36.76-2.29c.04-.43-.17-.64-.62-.64h-2.49c-.17,0-.31-.06-.43-.18-.12-.12-.18-.26-.18-.43s.06-.31.18-.43c.12-.12.27-.18.43-.18h4.4c.42,0,.63-.21.63-.63v-.84c0-.42-.21-.63-.63-.63h-1.89c-.5,0-.91.19-1.2.57l-.35.45c-.11.15-.28.22-.49.22-.18,0-.33-.06-.45-.19-.12-.13-.18-.28-.18-.46,0-.17.06-.31.17-.43.7-.78,1.3-1.66,1.79-2.63.11-.22.3-.34.57-.34.19,0,.34.06.46.19.12.13.18.28.18.46,0,.08-.03.18-.08.3-.05.12-.08.21-.08.29,0,.23.17.35.5.35h1.04c.42,0,.63-.21.63-.63v-.74c0-.18.06-.33.19-.46.13-.13.28-.19.45-.19s.33.06.46.19.19.28.19.46v.74c0,.42.21.63.63.63h3.23c.17,0,.31.06.43.18.12.12.18.26.18.42,0,.17-.06.31-.18.43-.12.12-.27.18-.43.18h-3.23c-.42,0-.63.21-.63.63v.84c0,.42.21.63.63.63h4.21c.17,0,.31.06.43.18.12.12.18.27.18.43Z"/>
      <path class="cls-1" d="M117.6,48.57c0,.18-.06.33-.19.46-.13.13-.28.19-.46.19h-11.12c-.18,0-.33-.06-.45-.19-.12-.13-.18-.28-.18-.46s.06-.33.19-.46.27-.19.44-.19h4.33c.42,0,.63-.21.63-.63v-1.65c0-.42-.21-.63-.63-.63h-2.93c-.17,0-.31-.06-.43-.17-.12-.12-.17-.26-.17-.43s.06-.31.17-.43c.12-.12.26-.18.43-.18h2.93c.42,0,.63-.21.63-.63v-1.27c0-.42-.21-.63-.63-.63h-1.92c-.55,0-.97.23-1.26.7-.12.2-.31.48-.57.85-.13.19-.31.28-.53.28-.18,0-.33-.07-.46-.2-.13-.13-.2-.28-.2-.46,0-.16.04-.29.13-.41.92-1.26,1.64-2.54,2.14-3.84.1-.26.3-.39.6-.39.19,0,.34.07.47.2.13.13.19.29.19.46,0,.1-.1.37-.29.81-.05.11-.07.22-.07.32,0,.28.18.42.54.42h1.23c.42,0,.63-.21.63-.63v-1.26c0-.19.07-.35.2-.48.13-.14.29-.2.48-.2s.35.07.48.2.2.3.2.48v1.26c0,.42.21.63.63.63h3.65c.18,0,.33.06.45.18s.18.27.18.43c0,.18-.06.33-.18.45-.12.12-.27.18-.45.18h-3.65c-.42,0-.63.21-.63.63v1.27c0,.42.21.63.63.63h2.88c.17,0,.31.06.43.18.12.12.17.26.17.43s-.06.31-.17.43c-.12.12-.26.17-.43.17h-2.88c-.42,0-.63.21-.63.63v1.65c0,.42.21.63.63.63h4.17c.18,0,.33.06.46.19.12.13.19.28.19.46Z"/>
      <path class="cls-1" d="M75.2,60.64c0,2.85-1.44,4.59-4.33,5.22-.03,0-.08.01-.15.01-.19,0-.35-.07-.48-.2-.14-.13-.2-.29-.2-.49,0-.37.17-.6.5-.69,2.16-.54,3.23-1.84,3.23-3.89,0-1.07-.29-1.93-.87-2.58-.21-.24-.48-.46-.8-.64-.36-.21-.69-.31-.98-.31-.4,0-.64.23-.73.7-.35,2.04-.77,3.67-1.26,4.91-.31.78-.61,1.37-.91,1.76-.48.61-1.03.91-1.67.91-.85,0-1.53-.42-2.04-1.27-.45-.73-.67-1.54-.67-2.44,0-1.74.58-3.17,1.73-4.31,1.15-1.14,2.6-1.71,4.33-1.71,1.63,0,2.91.42,3.84,1.26.97.88,1.46,2.12,1.46,3.74ZM68.97,57.83c0-.06.01-.13.01-.2,0-.35-.16-.52-.48-.52-.11,0-.23.02-.36.07-.86.3-1.56.86-2.1,1.67-.54.82-.81,1.75-.81,2.81,0,.58.14,1.09.41,1.53.27.44.57.67.91.67.4,0,.83-.56,1.29-1.69.38-.95.76-2.4,1.13-4.34Z"/>
      <path class="cls-1" d="M89.83,65.71c0,.17-.06.31-.17.43-.12.12-.26.18-.43.18h-4.69c-1.73,0-3.06-.51-3.99-1.54-.21-.22-.38-.34-.53-.34-.18,0-.34.15-.49.45-.22.45-.47.9-.74,1.34-.14.23-.33.35-.57.35-.18,0-.33-.07-.46-.2-.13-.13-.2-.29-.2-.48,0-.15.03-.27.1-.36.88-1.32,1.5-2.74,1.86-4.27.07-.32.28-.48.62-.48.18,0,.32.06.44.18.12.12.17.27.17.45,0,.09-.03.27-.1.52-.07.25-.1.45-.1.59,0,.22.06.44.2.66.44.69,1.03,1.19,1.76,1.5.09.04.18.06.27.06.3,0,.45-.19.45-.57v-3.99c0-.42-.21-.63-.63-.63h-2.53c-.87,0-1.3-.43-1.3-1.29v-2.06c0-.86.43-1.29,1.3-1.29h7.53c.87,0,1.3.43,1.3,1.29v2.06c0,.86-.43,1.29-1.3,1.29h-2.45c-.42,0-.63.21-.63.63v.69c0,.42.21.63.63.63h3.49c.16,0,.3.06.41.17s.18.25.18.41-.06.3-.18.41c-.12.12-.25.18-.41.18h-3.49c-.42,0-.63.21-.63.63v1.15c0,.42.21.63.63.63h4.09c.17.01.31.08.43.2s.17.27.17.43ZM87.6,57.76v-1.02c0-.42-.21-.63-.64-.63h-6.27c-.43,0-.64.21-.64.63v1.02c0,.43.21.64.64.64h6.27c.43,0,.64-.21.64-.64Z"/>
      <path class="cls-1" d="M100.04,59.73c0,1.51-.25,3.15-.74,4.93-.15.53-.31.91-.49,1.13-.25.34-.6.5-1.05.5-.51,0-1.16-.14-1.93-.41-.32-.11-.48-.32-.48-.63,0-.19.07-.35.2-.48.14-.13.29-.2.47-.2.07,0,.14,0,.2.03.49.16.82.24,1.01.24.22,0,.38-.07.48-.2.07-.09.16-.3.25-.63.44-1.5.66-2.87.66-4.09,0-.45-.09-.75-.27-.9s-.51-.22-1.01-.22h-.2c-.08,0-.15.01-.21.01-.47,0-.77.24-.91.73-.63,2.12-1.46,4.17-2.49,6.15-.14.27-.36.41-.66.41-.21,0-.38-.07-.52-.22-.14-.14-.21-.32-.21-.53,0-.15.03-.27.08-.38.88-1.54,1.65-3.28,2.32-5.22.03-.09.04-.18.04-.25,0-.34-.2-.48-.6-.42-.29.05-.74.11-1.36.2-.2.03-.38-.03-.54-.16s-.25-.31-.25-.51c0-.39.21-.62.62-.68.41-.06,1.06-.14,1.95-.25.45-.04.75-.32.91-.84.08-.46.16-.91.24-1.37.07-.4.3-.6.7-.6.22,0,.4.08.54.25.14.16.18.36.15.58,0,.05-.05.25-.13.62-.07.25-.1.45-.1.6,0,.39.22.57.66.55h.21c.71-.06,1.28.07,1.72.36.48.34.73.97.73,1.89ZM101.91,56.66c0,.15-.05.28-.16.38-.11.11-.24.16-.39.16-.22,0-.39-.08-.49-.25-.27-.43-.56-.8-.87-1.11-.1-.1-.15-.23-.15-.38,0-.37.18-.56.55-.56.16,0,.3.07.42.21.39.44.72.85.98,1.23.07.11.11.21.11.31ZM102.81,61.56c-.39-1.02-.92-2.01-1.58-2.98-.08-.11-.11-.24-.11-.38,0-.2.07-.36.22-.5.14-.14.31-.2.51-.2.23,0,.42.1.57.31.74,1.04,1.33,2.11,1.79,3.22.04.09.06.19.06.28,0,.2-.08.37-.24.52-.16.15-.35.22-.55.22-.31,0-.53-.16-.66-.49ZM103.62,55.87c0,.15-.05.28-.16.39-.11.11-.24.16-.39.16-.21,0-.38-.08-.49-.25-.31-.46-.6-.83-.87-1.13-.1-.11-.15-.23-.15-.35,0-.37.19-.56.56-.56.14,0,.27.07.41.2.33.33.66.74.99,1.25.06.13.1.23.1.31Z"/>
      <path class="cls-1" d="M117.94,56.1c0,.16-.06.29-.17.41-.12.11-.25.17-.4.17h-7.87c-.43,0-.64.21-.64.64v3.39c0,2.17-.48,4.04-1.46,5.59-.15.23-.35.35-.6.35-.2,0-.36-.07-.49-.2-.13-.14-.2-.3-.2-.5,0-.14.04-.27.11-.38.68-1,1.12-2.11,1.33-3.33.05-.29-.04-.43-.25-.43-.09,0-.19.04-.28.13-.19.18-.41.37-.66.57-.1.08-.23.13-.38.13-.17,0-.31-.06-.43-.18-.12-.12-.17-.27-.17-.43,0-.21.09-.37.27-.5.57-.41,1.07-.81,1.51-1.2.35-.31.52-.71.52-1.2v-2.25c0-.87.43-1.3,1.3-1.3h2.23c.37,0,.56-.19.56-.56h0c0-.2.07-.36.2-.5s.3-.2.48-.2.35.07.48.2c.13.14.2.3.2.48h0c0,.39.19.57.56.57h3.67c.15,0,.28.06.4.17.12.11.17.24.17.39ZM107.32,58.92c0,.15-.05.28-.15.39-.1.11-.23.17-.39.17-.28,0-.46-.14-.53-.41-.06-.21-.24-.77-.55-1.71-.02-.06-.03-.11-.03-.17,0-.15.05-.28.15-.39.1-.11.23-.17.39-.17.24,0,.41.12.5.36.21.56.41,1.15.59,1.78,0,.04.01.08.01.14ZM117.56,65.33c0,.5-.1.84-.3,1.01-.2.17-.59.25-1.16.25h-.76c-.14,0-.26-.05-.37-.16s-.16-.23-.16-.37c0-.15.05-.27.16-.38.11-.1.23-.15.37-.15h.46c.31,0,.48-.07.52-.22.02-.07.03-.16.03-.27v-.06c0-.37-.19-.56-.56-.56h-1.18c-.38,0-.56.19-.56.56v.76c0,.16-.06.3-.17.41-.11.12-.25.17-.41.17s-.3-.06-.42-.17-.18-.25-.18-.41v-.76c0-.37-.19-.56-.56-.56h-1.04c-.38,0-.56.19-.56.56v1.15c0,.16-.06.3-.18.41-.12.12-.25.17-.41.17s-.3-.06-.41-.17c-.12-.12-.17-.25-.17-.41v-5.11c0-.77.38-1.15,1.15-1.15h1.02c.23,0,.35-.05.35-.15,0-.05-.06-.12-.18-.21s-.2-.16-.23-.21c-.03-.05-.05-.13-.05-.25,0-.14.05-.26.15-.36.1-.1.22-.15.36-.15.1,0,.2.03.28.08l.63.42c.2.13.39.2.57.2s.38-.06.59-.2l.44-.28c.18-.11.27-.21.27-.29,0-.1-.11-.15-.34-.15h-4.07c-.13,0-.25-.05-.34-.15-.1-.1-.15-.22-.15-.36,0-.33.16-.49.49-.49h5.56c.6,0,.9.21.9.64,0,.29-.17.55-.52.77l-1.06.7c-.12.07-.18.15-.18.24,0,.13.1.2.31.2h.94c.77,0,1.15.38,1.15,1.15v4.31ZM112.89,61.27v-.04c0-.28-.14-.42-.42-.42h-1.32c-.28,0-.42.14-.42.42v.04c0,.28.14.42.42.42h1.32c.28,0,.42-.14.42-.42ZM112.89,63.08v-.04c0-.28-.14-.42-.42-.42h-1.32c-.28,0-.42.14-.42.42v.04c0,.28.14.42.42.42h1.32c.28,0,.42-.14.42-.42ZM116.36,61.27v-.04c0-.28-.14-.42-.42-.42h-1.46c-.28,0-.42.14-.42.42v.04c0,.28.14.42.42.42h1.46c.28,0,.42-.14.42-.42ZM116.36,63.08v-.04c0-.28-.14-.42-.42-.42h-1.46c-.28,0-.42.14-.42.42v.04c0,.28.14.42.42.42h1.46c.28,0,.42-.14.42-.42Z"/>
      <path class="cls-1" d="M125.92,63.3c-.82,1.61-1.61,2.42-2.37,2.42-.93,0-1.66-.83-2.17-2.49-.4-1.29-.6-2.75-.6-4.38,0-.84.03-1.56.08-2.17.02-.2.1-.36.23-.49.13-.13.3-.2.5-.2.21,0,.39.08.54.25.14.16.21.35.19.57-.07.63-.1,1.35-.1,2.17,0,1.07.12,2.14.35,3.19.26,1.17.61,1.75,1.04,1.75.31,0,.66-.42,1.05-1.26.12-.25.33-.38.63-.38.2,0,.36.07.5.2s.2.3.2.5c0,.12-.02.23-.07.32ZM131.98,62.87c.03.22-.03.42-.18.6s-.34.27-.57.27c-.2,0-.37-.07-.52-.2-.15-.13-.23-.29-.25-.48-.23-2.12-.92-4-2.06-5.66-.08-.12-.13-.26-.13-.41,0-.21.07-.38.21-.52.14-.14.31-.21.52-.21.25,0,.45.1.6.31,1.29,1.79,2.08,3.89,2.38,6.29Z"/>
      <path class="cls-1" d="M144.89,64.7c0,.96-.48,1.44-1.43,1.44h-6.44c-.96,0-1.44-.48-1.44-1.44v-8.16c0-.96.48-1.44,1.44-1.44h6.44c.95,0,1.43.48,1.43,1.44v8.16ZM143.56,59.31v-2.24c0-.49-.24-.73-.73-.73h-5.18c-.49,0-.73.24-.73.73v2.24c0,.42.21.63.63.63h5.38c.42,0,.63-.21.63-.63ZM143.56,64.17v-2.41c0-.42-.21-.63-.63-.63h-5.38c-.42,0-.63.21-.63.63v2.41c0,.49.24.73.73.73h5.18c.49,0,.73-.24.73-.73Z"/>
      <path class="cls-1" d="M60.29,80.12c0,1.03-.38,1.85-1.14,2.46-.76.61-1.8.92-3.13.92-2.62,0-3.93-1.11-3.93-3.33,0-.19,0-.46.03-.81.02-.42-.21-.68-.7-.78-.42-.03-.84-.06-1.25-.1-.17-.02-.31-.09-.42-.22-.11-.13-.17-.28-.17-.45,0-.2.08-.36.23-.5.15-.14.33-.19.53-.16.29.05.72.11,1.29.18.46.06.71-.15.77-.63l.06-.5c.06-.47-.15-.72-.63-.77-.22-.02-.53-.06-.93-.11-.4-.06-.59-.27-.59-.66,0-.2.08-.36.23-.49.15-.13.33-.18.52-.15.19.03.51.07.97.11.46.05.71-.16.77-.62l.15-1.19c.06-.42.29-.63.7-.63.22,0,.41.08.55.25.14.17.2.36.16.57l-.15.98c-.04.24,0,.43.11.57.11.14.28.2.52.19.78-.02,1.49-.06,2.11-.13.19-.02.35.04.5.16.14.13.22.28.22.47,0,.17-.06.31-.17.44s-.25.2-.41.22c-.86.09-1.7.14-2.53.14-.45,0-.7.21-.74.64l-.06.5c-.03.23.01.42.13.55.11.13.28.2.52.2.79,0,1.58-.06,2.37-.14.2-.02.37.03.51.16.14.13.22.29.22.48,0,.17-.06.32-.17.44-.12.13-.26.2-.43.22-.79.07-1.68.11-2.67.11-.48,0-.72.26-.74.78v.5c0,1.46.86,2.18,2.59,2.18.76,0,1.39-.17,1.9-.5.6-.39.9-.95.9-1.67,0-.53-.13-1.07-.38-1.62-.06-.12-.08-.22-.08-.29,0-.2.07-.36.21-.49.14-.13.31-.2.5-.2.31,0,.52.14.64.41.35.77.53,1.54.53,2.31Z"/>
      <path class="cls-1" d="M66.58,82.78c0,.22-.07.41-.22.56-.15.15-.34.22-.56.22-.24,0-.44-.09-.6-.28-.55-.66-1.11-1.23-1.67-1.71-.18-.15-.27-.34-.27-.56s.07-.39.22-.54.32-.22.54-.22c.19,0,.35.06.49.18.78.68,1.41,1.28,1.88,1.81.13.14.2.32.2.53Z"/>
      <path class="cls-1" d="M80.6,71.94c0,.12-.15.61-.46,1.47-.21.6-.32,1.18-.32,1.74v7.94c0,.19-.06.34-.18.46-.12.12-.28.18-.46.18s-.34-.06-.47-.18c-.13-.12-.19-.28-.19-.46v-5.17c0-.24-.07-.36-.21-.36-.07,0-.27.22-.59.66-.13.18-.31.27-.53.27-.17,0-.31-.06-.44-.19s-.19-.27-.19-.44c0-.14.04-.27.13-.38,1.19-1.62,2.08-3.52,2.69-5.7.08-.31.28-.46.6-.46.17,0,.31.06.44.19s.19.27.19.44ZM89.82,72.78c0,.18-.06.33-.18.45s-.27.18-.45.18h-.17c-.47,0-.7.23-.7.7v7.59c0,.68-.12,1.15-.36,1.41-.24.26-.68.38-1.32.38h-1.22c-.17,0-.31-.06-.44-.19s-.19-.28-.19-.46c0-.17.06-.31.19-.44s.27-.19.44-.19h.81c.31,0,.52-.07.63-.21.08-.11.13-.33.13-.66v-7.24c0-.47-.23-.7-.7-.7h-4.91c-.18,0-.33-.06-.45-.18-.12-.12-.18-.27-.18-.45,0-.17.06-.31.18-.44.12-.13.27-.19.45-.19h7.81c.18,0,.33.06.45.19.12.13.18.27.18.44ZM85.64,79.43c0,.77-.38,1.15-1.15,1.15h-2.16c-.77,0-1.15-.38-1.15-1.15v-3.36c0-.77.38-1.15,1.15-1.15h2.16c.77,0,1.15.38,1.15,1.15v3.36ZM84.41,78.84v-2.21c0-.38-.19-.57-.56-.57h-.85c-.38,0-.57.19-.57.57v2.21c0,.38.19.57.57.57h.85c.37,0,.56-.19.56-.57Z"/>
      <path class="cls-1" d="M103.38,73.23c0,.17-.06.31-.18.43s-.25.18-.41.18h-8.68c-.49,0-.73.24-.73.73v1.72c0,1.53-.05,2.71-.15,3.54-.14,1.16-.45,2.28-.94,3.37-.12.28-.34.42-.66.42-.2,0-.36-.07-.5-.2-.14-.14-.2-.3-.2-.5,0-.12.02-.23.07-.32.48-.95.79-1.96.94-3.02.11-.8.17-1.94.17-3.42v-2.09c0-.95.48-1.43,1.43-1.43h2.73c.37,0,.56-.19.56-.56v-.06c0-.19.07-.35.2-.48s.3-.2.5-.2.35.07.48.2.2.3.2.48v.06c0,.37.19.56.56.56h4.02c.16,0,.3.06.41.18s.18.25.18.41ZM103.35,75.51c0,.16-.06.29-.17.4-.11.11-.24.16-.39.16h-1.29c-.37,0-.56.19-.56.56v.36c0,.75-.37,1.12-1.11,1.12h-2.97c-.75,0-1.12-.37-1.12-1.12v-.36c0-.37-.19-.56-.56-.56h-1.06c-.15,0-.28-.05-.38-.16-.11-.11-.16-.24-.16-.4,0-.15.05-.28.16-.38.11-.11.24-.16.38-.16h1.06c.37,0,.56-.15.56-.46,0-.17.06-.31.18-.43s.27-.18.43-.18c.16,0,.3.06.42.18.12.12.18.27.18.43,0,.31.19.46.56.46h1.65c.37,0,.56-.15.56-.46,0-.17.06-.31.17-.43.12-.12.26-.18.43-.18.16,0,.3.06.42.18.12.12.18.27.18.43,0,.31.19.46.56.46h1.29c.15,0,.28.05.39.16.11.11.17.24.17.38ZM102.92,83.03c0,.18-.06.33-.19.45-.13.12-.27.18-.44.18-.07,0-.11,0-.14-.01-1.1-.25-2.11-.57-3.04-.97-.28-.11-.54-.17-.77-.17s-.47.05-.74.15c-.35.14-.78.3-1.3.48-1.04.35-1.73.53-2.07.53-.17,0-.31-.06-.43-.17-.12-.12-.18-.26-.18-.43,0-.34.16-.54.49-.6.86-.18,1.63-.38,2.32-.62.21-.07.31-.18.31-.32,0-.12-.07-.24-.22-.35-.35-.26-.71-.59-1.08-.98-.3-.31-.63-.46-.99-.46-.14,0-.26-.05-.36-.15-.1-.1-.15-.22-.15-.36s.05-.26.15-.36.22-.15.36-.15h6.48c.66,0,.99.23.99.7,0,.28-.15.56-.45.83-.36.33-.77.65-1.23.97-.16.11-.24.22-.24.34,0,.14.1.24.31.31.68.22,1.39.42,2.13.57.33.07.49.28.49.6ZM99.69,80.23c.11-.09.17-.18.17-.27,0-.15-.13-.22-.38-.22h-2.17c-.24,0-.36.08-.36.24,0,.09.06.19.17.28.56.44.97.66,1.23.66.19,0,.38-.06.59-.18.36-.22.62-.39.76-.5ZM99.74,76.63v-.11c0-.33-.16-.49-.49-.49h-1.79c-.33,0-.49.16-.49.49v.11c0,.34.17.5.5.5h1.76c.34,0,.5-.17.5-.5Z"/>
      <path class="cls-1" d="M116.85,80.12c0,1.03-.38,1.85-1.14,2.46-.76.61-1.8.92-3.13.92-2.62,0-3.93-1.11-3.93-3.33,0-.19,0-.46.03-.81.02-.42-.21-.68-.7-.78-.42-.03-.84-.06-1.25-.1-.17-.02-.31-.09-.42-.22-.11-.13-.17-.28-.17-.45,0-.2.08-.36.23-.5s.33-.19.53-.16c.29.05.72.11,1.29.18.46.06.71-.15.77-.63l.06-.5c.06-.47-.15-.72-.63-.77-.22-.02-.53-.06-.93-.11s-.6-.27-.6-.66c0-.2.08-.36.23-.49.15-.13.33-.18.53-.15.19.03.51.07.97.11.46.05.71-.16.77-.62l.15-1.19c.06-.42.29-.63.7-.63.22,0,.41.08.55.25s.2.36.16.57l-.15.98c-.04.24,0,.43.11.57.11.14.29.2.52.19.78-.02,1.49-.06,2.11-.13.19-.02.35.04.5.16s.22.28.22.47c0,.17-.06.31-.17.44-.11.13-.25.2-.4.22-.86.09-1.71.14-2.54.14-.45,0-.7.21-.74.64l-.05.5c-.03.23.01.42.12.55s.29.2.52.2c.79,0,1.58-.06,2.37-.14.2-.02.37.03.51.16s.22.29.22.48c0,.17-.06.32-.17.44s-.26.2-.43.22c-.79.07-1.68.11-2.67.11-.48,0-.72.26-.74.78v.5c0,1.46.86,2.18,2.59,2.18.76,0,1.39-.17,1.9-.5.6-.39.9-.95.9-1.67,0-.53-.13-1.07-.38-1.62-.05-.12-.08-.22-.08-.29,0-.2.07-.36.21-.49.14-.13.31-.2.5-.2.31,0,.52.14.64.41.35.77.53,1.54.53,2.31Z"/>
      <path class="cls-1" d="M123.53,80.47c0,.75-.37,1.12-1.12,1.12h-1.37c-.75,0-1.12-.37-1.12-1.12v-7.28c0-.75.37-1.12,1.12-1.12h1.37c.75,0,1.12.37,1.12,1.12v7.28ZM122.34,79.87v-6.08c0-.35-.17-.52-.5-.52h-.18c-.35,0-.52.17-.52.52v6.08c0,.34.17.5.52.5h.18c.34,0,.5-.17.5-.5ZM132.15,78.24c0,.17-.06.31-.19.44s-.27.19-.44.19h-2.2c-.37,0-.56.19-.56.56v2.18c0,.77-.12,1.29-.35,1.56s-.68.4-1.34.4h-1.2c-.17,0-.31-.06-.43-.18-.12-.12-.18-.27-.18-.43s.06-.31.18-.43c.12-.12.27-.18.43-.18h.74c.36,0,.61-.06.73-.18.12-.12.18-.38.18-.77v-1.96c0-.37-.19-.56-.56-.56h-2.44c-.17,0-.31-.06-.43-.18s-.18-.27-.18-.45c0-.17.06-.31.18-.43s.27-.18.43-.18h2.44c.37,0,.56-.19.56-.56v-3.05c0-.39-.2-.56-.59-.52-.65.07-1.32.13-2,.17-.17,0-.31-.04-.44-.15-.13-.11-.19-.25-.19-.42,0-.15.05-.28.16-.4.11-.12.24-.18.38-.19,2.27-.14,4.17-.42,5.71-.85.07-.02.12-.03.17-.03.16,0,.3.06.41.17s.17.26.17.43c0,.31-.15.5-.45.57-.66.17-1.2.28-1.6.35-.34.06-.5.26-.5.6v3.32c0,.37.19.56.56.56h2.2c.17,0,.32.06.44.18s.19.26.19.43ZM126.55,76.44c0,.15-.05.28-.16.39-.11.11-.24.17-.4.17-.23,0-.4-.11-.5-.32-.26-.56-.53-1.08-.81-1.57-.05-.08-.07-.17-.07-.27,0-.15.05-.28.16-.39.11-.11.24-.16.39-.16.21,0,.36.09.46.27.38.66.68,1.21.88,1.64.04.07.06.15.06.24ZM131.77,74.35c0,.08-.02.17-.06.25-.35.79-.69,1.49-1.02,2.09-.1.19-.26.28-.48.28-.16,0-.29-.05-.4-.16-.11-.11-.16-.24-.16-.38,0-.1.02-.19.06-.27.4-.79.71-1.46.91-2,.09-.25.28-.38.56-.38.17,0,.31.06.42.17.11.12.17.25.17.4Z"/>
      <path class="cls-1" d="M145.75,79.64c-.33.96-.77,1.78-1.34,2.45-.65.77-1.4,1.15-2.23,1.15-.7,0-1.22-.18-1.55-.55-.29-.33-.49-.84-.59-1.55-.14-.95-.22-1.47-.24-1.57-.12-.55-.33-.83-.62-.83-.42,0-1.01.42-1.78,1.27-.83.92-1.36,1.68-1.6,2.27l-.18.46c-.1.25-.32.38-.66.38-.21,0-.38-.07-.51-.21-.13-.14-.2-.31-.2-.5,0-.08.01-.16.04-.24.86-2.43,2.16-5.73,3.91-9.9.12-.3.34-.45.66-.45.21,0,.38.07.52.22.14.14.21.31.21.51,0,.1-.02.2-.06.29-.37.84-1.01,2.3-1.92,4.38-.08.21-.13.37-.13.5,0,.18.07.27.2.27s.29-.07.49-.22c.43-.33.84-.49,1.25-.49.67,0,1.14.26,1.4.78.19.36.35,1.04.5,2.03.09.63.17,1.03.24,1.18.11.31.31.46.6.46.87,0,1.61-.89,2.23-2.67.11-.33.34-.49.69-.49.21,0,.38.07.52.22.14.14.21.32.21.54,0,.1-.02.21-.06.31Z"/>
      <path class="cls-1" d="M159.42,73.31c0,.37-.25.6-.76.67-1.41.21-2.66.8-3.75,1.74s-1.64,1.94-1.64,2.99c0,1.51,1.21,2.48,3.63,2.9.4.07.6.3.6.71,0,.22-.09.41-.26.57-.17.15-.37.21-.59.16-1.45-.28-2.55-.71-3.3-1.29-1-.77-1.5-1.75-1.5-2.94,0-1.01.34-1.92,1.02-2.74.3-.35.59-.65.88-.9s.43-.45.43-.62c0-.22-.24-.32-.71-.28-1.91.17-3.47.33-4.66.49-.21.03-.38-.03-.53-.17s-.22-.31-.22-.52c0-.18.06-.33.17-.47.12-.14.26-.21.44-.22,1.72-.17,5.02-.42,9.9-.76.25,0,.46.05.62.18.16.13.24.29.24.48ZM158.67,77.44c0,.15-.05.28-.16.38-.11.11-.24.16-.38.16-.22,0-.39-.08-.49-.25-.27-.43-.56-.8-.87-1.11-.1-.1-.15-.23-.15-.38,0-.37.18-.56.55-.56.16,0,.3.07.42.21.39.44.72.85.98,1.23.07.11.11.21.11.31ZM160.38,76.65c0,.15-.05.28-.16.38-.11.11-.24.16-.38.16-.21,0-.38-.08-.49-.25-.31-.46-.6-.84-.87-1.13-.1-.11-.15-.23-.15-.35,0-.37.19-.56.56-.56.14,0,.28.07.41.2.33.33.66.74.99,1.25.07.13.1.23.1.31Z"/>
      <path class="cls-1" d="M42.6,94.56c0,.14-.04.27-.13.38-.64.86-1.53,1.74-2.66,2.65-.13.1-.27.15-.42.15-.19,0-.34-.07-.47-.2-.13-.13-.19-.28-.19-.46,0-.22.08-.4.25-.53,1.08-.83,1.91-1.62,2.49-2.37.13-.17.29-.25.49-.25.18,0,.33.06.45.18.12.12.18.27.18.45ZM51.03,92.85c0,.17-.06.31-.17.43-.12.12-.26.18-.43.18h-4.35c-.42,0-.63.21-.63.63v2.07c0,.61-.11,1.01-.34,1.22s-.64.32-1.25.32h-1.16c-.15,0-.28-.06-.39-.17s-.17-.25-.17-.41c0-.15.06-.28.17-.39.11-.11.24-.17.39-.17h.84c.26,0,.43-.04.5-.13.07-.09.11-.26.11-.52v-1.82c0-.42-.21-.63-.63-.63h-4.12c-.17,0-.31-.06-.43-.18-.12-.12-.18-.27-.18-.43,0-.16.06-.3.18-.42.12-.12.26-.18.43-.18h1.02c.37,0,.56-.19.56-.56v-2.02c0-.18.06-.33.19-.45.13-.12.28-.18.46-.18.17,0,.31.06.43.18.12.12.18.27.18.45v2.02c0,.37.19.56.56.56h1.01c.37,0,.56-.19.56-.56v-2.67c0-.18.06-.33.19-.46s.28-.19.46-.19c.17,0,.31.06.44.19s.19.28.19.46v.1c0,.37.19.56.56.56h3.33c.17,0,.31.06.43.17.12.11.18.25.18.42s-.06.31-.18.43c-.12.12-.26.17-.42.17h-3.33c-.37,0-.56.19-.56.56v.27c0,.37.19.56.56.56h4.21c.17,0,.31.06.43.18.12.12.17.26.17.42ZM48.31,97.02c0,.18-.07.33-.2.46-1,.98-2.15,1.74-3.44,2.28-1.09.45-2.43.8-4.02,1.05-.21.03-.39-.03-.55-.16s-.24-.31-.24-.51c0-.38.2-.6.59-.66,1.54-.21,2.8-.52,3.78-.92,1.12-.46,2.12-1.12,3.01-2,.11-.11.25-.17.42-.17.18,0,.33.06.46.18.13.12.19.27.19.45ZM51.11,96.8c0,.18-.07.33-.2.46s-.29.2-.46.2c-.13,0-.25-.03-.35-.1-1.02-.64-2-1.41-2.95-2.3-.13-.12-.2-.28-.2-.46,0-.18.06-.33.18-.45s.27-.18.45-.18.32.05.43.15c.9.83,1.82,1.54,2.79,2.13.21.12.31.3.31.55Z"/>
      <path class="cls-1" d="M61.3,93.65c0,1.47-.25,3.12-.74,4.93-.14.52-.3.9-.48,1.13-.26.34-.62.5-1.06.5-.49,0-1.13-.14-1.93-.41-.32-.1-.48-.31-.48-.63,0-.19.07-.35.2-.48.14-.13.29-.2.47-.2.07,0,.17.02.29.06.4.14.7.21.91.21.22,0,.38-.07.48-.2.07-.1.16-.31.25-.63.44-1.57.66-2.93.66-4.09,0-.45-.09-.75-.27-.9s-.51-.22-1.01-.22c-.44,0-.74.05-.9.14-.2.11-.34.31-.42.6-.61,2.03-1.44,4.08-2.49,6.15-.14.27-.36.41-.66.41-.21,0-.38-.07-.52-.22-.14-.14-.21-.32-.21-.53,0-.16.03-.28.08-.38.95-1.65,1.73-3.39,2.32-5.22.03-.09.04-.18.04-.25,0-.34-.2-.48-.6-.42-.29.04-.74.1-1.36.2-.2.03-.38-.03-.54-.16s-.25-.31-.25-.51c0-.39.2-.62.61-.67.41-.06,1.06-.14,1.95-.25.45-.05.75-.33.91-.84.03-.07.11-.53.24-1.37.07-.4.3-.6.7-.6.22,0,.4.08.54.25.14.16.18.36.15.58,0,.05-.05.25-.13.62-.07.27-.1.47-.1.6,0,.39.22.57.66.55h.21c.72-.06,1.29.07,1.72.36.48.34.73.97.73,1.89ZM65.53,94.7c0,.21-.07.38-.22.53-.15.15-.32.22-.52.22-.34,0-.57-.16-.7-.49-.49-1.26-1.11-2.41-1.86-3.44-.08-.11-.13-.24-.13-.39,0-.2.07-.36.2-.5.13-.14.3-.21.5-.21.23,0,.42.1.57.29.85,1.11,1.55,2.35,2.11,3.71.03.07.04.16.04.28Z"/>
      <path class="cls-1" d="M79.42,92.09c0,.19-.07.34-.2.47-.13.13-.28.19-.46.2l-1.62.06c-.44.02-.67.25-.7.69-.05.71-.1,1.35-.17,1.93-.07.54-.2.93-.41,1.17-.21.24-.52.36-.94.36-.35,0-.88-.15-1.6-.46-.26-.11-.39-.3-.39-.57,0-.19.06-.34.17-.46.12-.12.25-.18.41-.18.09,0,.19.02.28.06.43.2.7.29.81.29.22,0,.36-.3.41-.9.03-.42.05-.79.07-1.12,0-.23-.05-.41-.17-.53-.12-.12-.3-.18-.53-.17-.79.04-1.65.09-2.58.15-.45.04-.67.28-.67.73v3.35c0,.63.13,1.05.38,1.25.26.2.78.29,1.56.29,1.26,0,2.62-.07,4.09-.21.2-.02.37.04.51.17.14.13.22.29.22.49,0,.18-.06.33-.19.46-.13.13-.27.2-.44.21-1.55.09-2.99.15-4.33.17-1.1,0-1.88-.14-2.34-.43-.57-.38-.85-1.1-.85-2.14v-3.43c0-.5-.25-.73-.74-.67l-1.4.15c-.19.02-.35-.04-.5-.17-.15-.13-.22-.29-.22-.49,0-.17.06-.31.18-.43.12-.12.25-.19.41-.21l1.61-.15c.45-.05.67-.29.67-.73v-1.37c0-.19.07-.35.2-.49.14-.14.3-.21.5-.21s.35.07.48.21.2.3.2.49v1.2c0,.49.24.71.73.67.96-.07,1.82-.13,2.58-.17.45-.02.68-.25.69-.7v-1.36c0-.19.07-.35.2-.49.14-.14.3-.21.48-.21s.35.07.48.2.2.3.2.48v1.27c0,.23.06.41.18.52.12.12.3.17.53.16l1.53-.06c.19,0,.35.05.48.18.14.13.2.29.2.48Z"/>
      <path class="cls-1" d="M88.62,91.8c-.68.13-1.37.24-2.07.32-.38.05-.66.15-.83.29-.17.15-.3.41-.39.77-.52,2.21-1.17,4.34-1.95,6.37-.12.31-.35.46-.69.46-.21,0-.38-.07-.52-.22s-.21-.31-.21-.51c0-.09.02-.19.06-.28.79-1.88,1.44-3.86,1.95-5.96.02-.07.03-.14.03-.21,0-.33-.2-.49-.59-.48s-.75,0-1.08,0c-.19,0-.35-.08-.48-.22-.14-.13-.2-.3-.2-.48s.07-.36.22-.5c.14-.14.31-.21.51-.2.53.02.96.02,1.29.01.52-.02.82-.27.9-.77.03-.21.07-.51.14-.92.07-.41.3-.61.71-.61.2,0,.36.07.5.21.14.14.21.3.21.49,0,.09-.04.33-.11.7,0,.07-.01.13-.01.18,0,.37.21.53.62.46.06,0,.38-.07.98-.2.45-.08.76-.13.92-.13.2,0,.36.07.48.21s.19.31.19.5c0,.38-.19.61-.57.69ZM93.04,99.16c0,.4-.2.63-.59.69-.89.13-1.82.2-2.8.2-2.48,0-3.72-.7-3.72-2.09,0-.32.08-.68.24-1.09.11-.28.32-.42.63-.42.44,0,.66.22.66.67,0,.08-.01.18-.04.31-.03.14-.04.24-.04.32,0,.63.8.95,2.39.95.7,0,1.53-.07,2.49-.21.21-.03.39.03.55.16s.24.31.24.51ZM92.65,93.95c0,.2-.08.36-.22.5-.15.14-.32.21-.52.2-1.39-.07-2.88-.04-4.47.1-.2.02-.37-.04-.51-.18-.14-.14-.22-.3-.22-.5,0-.18.06-.33.17-.45s.26-.2.43-.22c1.58-.16,3.13-.21,4.65-.17.19,0,.35.08.48.22s.2.3.2.49Z"/>
      <path class="cls-1" d="M98.45,91.43c-.37,1.98-1,3.91-1.89,5.8-.13.28-.35.42-.67.42-.21,0-.38-.07-.52-.21-.14-.14-.21-.31-.21-.52,0-.13.03-.25.08-.35.88-1.63,1.5-3.43,1.86-5.39.06-.37.29-.56.67-.56.21,0,.39.08.52.25.14.16.18.35.15.57ZM101.97,98.46c0,.83-.13,1.38-.4,1.65-.27.27-.81.41-1.65.41h-1.12c-.18,0-.33-.07-.46-.2-.13-.13-.2-.28-.2-.46s.07-.33.2-.46c.13-.13.28-.2.46-.2h.77c.41,0,.68-.06.8-.2.13-.13.19-.4.19-.8v-9.02c0-.2.07-.36.2-.5s.3-.2.5-.2.35.07.49.21.21.3.21.49v9.27ZM107.64,96.87c0,.21-.08.38-.22.53-.15.15-.33.22-.53.22-.29,0-.51-.13-.66-.41-.99-1.79-1.77-3.73-2.35-5.81-.02-.06-.03-.13-.03-.18,0-.19.07-.35.2-.48.14-.14.3-.2.5-.2.35,0,.58.17.67.52.56,1.98,1.33,3.79,2.31,5.45.08.12.11.24.11.36Z"/>
      <path class="cls-1" d="M121.84,98.48c-.09.83-.32,1.38-.69,1.64-.36.26-1.07.39-2.13.39h-2.23c-.65,0-1.1-.07-1.33-.2-.33-.19-.49-.56-.49-1.13v-3.05c0-.37-.19-.56-.56-.56h-.18c-.34,0-.53.17-.59.52-.32,1.9-1.35,3.42-3.09,4.54-.1.07-.21.1-.34.1-.18,0-.33-.06-.46-.19s-.19-.27-.19-.44c0-.24.1-.42.29-.55,1.4-.87,2.24-1.99,2.51-3.37,0-.06.01-.1.01-.14,0-.31-.17-.46-.52-.46h-.35c-.79,0-1.19-.4-1.19-1.19v-3.47c0-.79.4-1.19,1.19-1.19h1.93c.47,0,.78-.18.94-.53.03-.07.1-.26.21-.55.11-.29.31-.43.59-.43.19,0,.34.06.46.19.12.13.18.28.18.46,0,.05-.01.12-.04.23-.03.11-.04.19-.04.25,0,.26.15.39.46.39h3.47c.79,0,1.19.4,1.19,1.19v3.47c0,.79-.4,1.19-1.19,1.19h-.34c-.32,0-.53.15-.63.46-.11.34-.24.67-.38.99-.03.07-.04.14-.04.21,0,.17.09.25.27.25.04,0,.08,0,.13-.01l.25-.06c.22-.05.34-.14.34-.29,0-.05-.03-.11-.08-.2-.06-.08-.08-.17-.08-.25,0-.31.16-.46.48-.46.14,0,.35.18.63.53.21.27.41.56.62.85.05.07.07.15.07.25.09-.05.2-.07.31-.07.19,0,.34.07.47.21s.18.3.16.49ZM114.94,91.71v-.36c0-.33-.16-.49-.49-.49h-2.24c-.39,0-.59.2-.59.6v.25c0,.33.16.49.49.49h2.34c.33,0,.49-.16.49-.49ZM114.94,94.02v-.29c0-.33-.16-.49-.49-.49h-2.34c-.33,0-.49.16-.49.49v.2c0,.39.2.59.59.59h2.24c.33,0,.49-.16.49-.49ZM119.59,91.71v-.25c0-.4-.2-.6-.6-.6h-2.32c-.33,0-.49.16-.49.49v.36c0,.33.16.49.49.49h2.44c.33,0,.49-.16.49-.49ZM119.59,93.93v-.2c0-.33-.16-.49-.49-.49h-2.44c-.33,0-.49.16-.49.49v.29c0,.33.16.49.49.49h2.32c.4,0,.6-.2.6-.59ZM120.58,98.34c-.06.02-.11.03-.15.03-.07,0-.16-.02-.25-.06-.21-.15-.41-.2-.57-.15-.72.19-1.6.36-2.65.53-.13.02-.25-.02-.36-.11-.11-.09-.17-.21-.17-.35,0-.18.05-.3.15-.37.1-.07.21-.14.31-.2.1-.06.18-.14.22-.25.18-.39.34-.79.48-1.2.03-.08.04-.16.04-.24,0-.27-.17-.41-.5-.41h-.35c-.37,0-.56.19-.56.56v2.62c0,.29.08.48.24.57.09.06.31.08.66.08h1.97c.59,0,.97-.06,1.15-.18.18-.12.29-.42.35-.88Z"/>
      <path class="cls-1" d="M135.41,94.64c0,2.85-1.44,4.59-4.33,5.22-.03,0-.08.01-.15.01-.19,0-.35-.07-.48-.2-.13-.13-.2-.29-.2-.49,0-.37.17-.6.5-.69,2.16-.54,3.23-1.84,3.23-3.89,0-1.07-.29-1.93-.87-2.58-.21-.24-.48-.46-.8-.64-.36-.21-.69-.31-.98-.31-.4,0-.64.23-.73.7-.35,2.04-.77,3.67-1.26,4.91-.31.78-.61,1.37-.91,1.76-.48.61-1.03.91-1.67.91-.85,0-1.53-.42-2.04-1.27-.45-.73-.67-1.54-.67-2.44,0-1.74.58-3.17,1.73-4.31,1.15-1.14,2.6-1.71,4.33-1.71,1.63,0,2.91.42,3.84,1.26.97.88,1.46,2.12,1.46,3.74ZM129.18,91.83c0-.06.01-.13.01-.2,0-.35-.16-.52-.48-.52-.11,0-.23.02-.36.07-.86.3-1.56.86-2.1,1.67-.54.82-.81,1.75-.81,2.81,0,.58.14,1.09.41,1.53s.57.67.91.67c.4,0,.83-.56,1.29-1.69.38-.95.76-2.4,1.13-4.34Z"/>
      <path class="cls-1" d="M149.29,98.56c0,.2-.07.36-.21.5-.14.14-.31.2-.5.2-.12,0-.24-.03-.35-.1-.92-.52-1.75-.93-2.49-1.23-.1-.05-.2-.07-.29-.07-.27,0-.45.2-.53.6-.1.52-.31.92-.63,1.19-.5.43-1.39.64-2.69.64-.78,0-1.42-.16-1.95-.48-.63-.38-.94-.94-.94-1.67s.3-1.33.91-1.74,1.45-.62,2.52-.62c.23,0,.47,0,.7.03.24.02.43-.03.55-.13.13-.11.18-.28.17-.52l-.13-5.78c0-.21.07-.38.21-.52.14-.14.31-.21.52-.21s.36.07.5.21c.14.14.21.31.21.5v1.3c.02.5.27.72.76.67.81-.08,1.66-.2,2.55-.35.21-.04.39.01.55.15s.25.31.25.52c0,.38-.19.61-.56.67-.77.14-1.7.26-2.81.35-.46.04-.68.28-.67.74l.03,1.99c0,.54.28.91.81,1.09,1.04.37,2.09.85,3.14,1.41.25.14.38.35.38.63ZM143.55,97.89c.06-.45-.13-.71-.59-.78-.31-.05-.6-.07-.87-.07-1.33,0-2,.35-2,1.06,0,.63.51.94,1.53.94.66,0,1.13-.08,1.41-.24.28-.16.45-.46.52-.9Z"/>
      <path class="cls-1" d="M162.5,94.99c0,1.44-.61,2.66-1.82,3.65-.97.81-2.24,1.42-3.81,1.83-.08.02-.13.03-.17.03-.19,0-.35-.07-.48-.2-.13-.14-.2-.3-.2-.5,0-.35.16-.56.49-.66,1.2-.35,2.19-.81,2.95-1.4,1.03-.77,1.54-1.68,1.54-2.72,0-1.25-.63-1.88-1.89-1.88s-2.88.33-4.77.99c-.08.03-.16.04-.22.04-.19,0-.35-.07-.49-.21-.14-.14-.21-.31-.21-.5,0-.35.17-.57.5-.67,2.19-.66,3.95-.99,5.26-.99,1.04,0,1.85.27,2.42.8.6.56.9,1.35.9,2.38ZM160.87,90.09c0,.21-.08.38-.22.51-.15.14-.32.19-.52.18-1.89-.17-3.39-.4-4.48-.7-.35-.09-.52-.32-.52-.67,0-.2.07-.36.2-.5.13-.14.3-.2.5-.2.06,0,.12,0,.18.03,1.24.34,2.65.56,4.21.67.18,0,.33.08.46.22.13.14.19.29.19.47Z"/>
      <path class="cls-1" d="M38.12,108.76c-.48.1-.94.19-1.39.25-.52.08-.87.37-1.05.87-.65,1.88-1.4,3.66-2.23,5.35-.13.27-.35.41-.64.41-.2,0-.36-.07-.5-.21-.14-.14-.21-.31-.21-.5,0-.11.03-.22.08-.34.78-1.51,1.46-3.04,2.03-4.59.04-.1.06-.19.06-.27,0-.29-.2-.43-.59-.43h-.8c-.19,0-.35-.07-.48-.2s-.2-.3-.2-.48c0-.2.07-.36.21-.5s.31-.2.5-.19c.41.02.79.02,1.15.01.57,0,.92-.29,1.06-.85.07-.32.15-.63.24-.95.14-.35.37-.53.69-.53.2,0,.36.07.5.21s.21.3.21.49c0,.07-.05.28-.14.6-.03.11-.04.21-.04.29,0,.28.13.42.38.42.05,0,.1,0,.15-.01l.73-.15c.08-.02.14-.03.17-.03.19,0,.34.07.46.2.12.14.17.3.17.5,0,.35-.18.57-.53.64ZM43.42,115.69c0,.19-.07.35-.2.49s-.3.21-.5.21c-.12,0-.25-.04-.38-.13-.31-.21-.63-.4-.98-.59-.11-.07-.21-.1-.31-.1-.22,0-.38.16-.48.49-.27.94-1.1,1.41-2.49,1.41-.74,0-1.35-.16-1.85-.48-.59-.36-.88-.9-.88-1.6s.28-1.22.83-1.58c.48-.32,1.08-.48,1.81-.48.21,0,.44.02.7.06.21.03.38,0,.5-.1.12-.09.17-.25.17-.48v-2.04c-.01-.19.05-.35.18-.48s.29-.2.48-.2.35.07.48.2c.13.13.2.29.2.48v2.35c.01.51.27.89.78,1.12.45.21.98.49,1.6.85.23.14.35.34.35.59ZM39.35,115.29c0-.39-.22-.63-.67-.7-.27-.05-.51-.07-.71-.07-.85,0-1.27.3-1.27.9,0,.27.11.48.34.64.23.15.53.23.89.23.65,0,1.08-.16,1.27-.48.1-.17.15-.34.15-.52ZM43.55,109.44c0,.19-.07.35-.2.48-.14.14-.3.2-.48.2-.13,0-.26-.04-.38-.13-.71-.48-1.46-.88-2.25-1.22-.26-.11-.39-.32-.39-.62,0-.19.07-.35.2-.48s.29-.2.47-.2c.1,0,.19.02.25.06.88.37,1.7.81,2.46,1.3.21.14.32.34.32.59Z"/>
      <path class="cls-1" d="M51.14,116.26c0,.31-.16.5-.48.57-.78.18-2.31.4-4.56.66-.18.02-.33-.03-.47-.15-.14-.12-.2-.27-.2-.45,0-.36.18-.56.55-.6l1.27-.14c.35-.04.53-.23.53-.59v-2.83c0-.37-.19-.56-.56-.56h-1.15c-.15,0-.28-.05-.39-.16-.11-.11-.16-.24-.16-.4,0-.15.05-.28.16-.38s.24-.16.39-.16h1.13c.37,0,.56-.19.56-.56v-.13c0-.33-.16-.49-.49-.49h-.08c-.15,0-.28-.05-.38-.16s-.15-.24-.15-.39c0-.08.01-.16.04-.22-.09.1-.19.2-.29.29-.1.09-.23.13-.39.13-.17,0-.31-.06-.43-.17-.12-.11-.17-.25-.17-.42,0-.19.07-.34.21-.46.69-.61,1.26-1.33,1.71-2.16.28-.51.64-.77,1.08-.77.4,0,.74.23,1.01.7.4.7.91,1.35,1.51,1.96.13.13.2.28.2.45s-.06.31-.18.43c-.12.12-.27.18-.43.18-.19,0-.35-.07-.48-.21-.58-.63-1-1.19-1.27-1.65-.11-.2-.23-.29-.35-.29s-.24.1-.36.29c-.25.42-.62.9-1.11,1.44.09-.05.18-.07.25-.07h2.31c.15,0,.28.05.39.16.11.11.16.24.16.38s-.05.28-.16.39c-.11.11-.24.16-.39.16h-.07c-.33,0-.49.16-.49.49v.13c0,.37.19.56.56.56h.98c.15,0,.28.05.39.16s.17.24.17.38c0,.16-.06.29-.17.4-.11.11-.24.16-.39.16h-.98c-.37,0-.56.19-.56.56v2.63c0,.4.2.57.6.5.23-.04.54-.09.92-.17.18-.04.33,0,.47.12s.2.26.2.44ZM47.36,115.01c0,.15-.05.28-.15.39-.1.11-.22.16-.37.16-.29,0-.47-.14-.53-.42-.19-.75-.34-1.3-.45-1.65-.02-.06-.03-.12-.03-.18,0-.35.17-.52.52-.52.27,0,.44.12.52.36.33,1.07.49,1.69.49,1.86ZM50.9,113.22c0,.07,0,.11-.01.14-.18.6-.34,1.1-.48,1.51-.07.21-.24.32-.49.32-.15,0-.27-.05-.37-.15-.1-.1-.15-.22-.15-.36,0-.05,0-.1.03-.15.16-.5.3-.99.42-1.46.06-.26.24-.39.52-.39.15,0,.27.05.38.16.1.11.15.24.15.38ZM58.23,109.72c0,.17-.06.31-.17.42-.12.11-.26.17-.43.17-.16,0-.3-.06-.43-.17-1-.88-1.8-1.83-2.39-2.86-.09-.17-.21-.25-.34-.25-.12,0-.23.09-.34.27-.58,1.04-1.34,2.03-2.28,2.97-.1.1-.24.15-.41.15-.16,0-.3-.06-.41-.17-.12-.11-.18-.25-.18-.41s.07-.3.2-.43c1.09-1.09,1.89-2.12,2.38-3.08.27-.52.62-.78,1.05-.78.38,0,.71.22.98.66.7,1.14,1.55,2.16,2.56,3.07.14.12.21.27.21.45ZM57.49,114.57c0,.58-.09.97-.27,1.18-.18.21-.5.31-.98.31h-.66c-.16,0-.29-.06-.41-.17s-.17-.25-.17-.41.06-.29.17-.41.25-.17.41-.17h.2c.22,0,.37-.04.43-.13.06-.08.1-.23.1-.45v-1.58c0-.35-.18-.53-.53-.53h-.64c-.37,0-.56.19-.56.56v4.34c0,.18-.06.33-.19.46s-.27.19-.44.19c-.18,0-.33-.06-.46-.19s-.19-.28-.19-.46v-4.34c0-.37-.19-.56-.56-.56h-.87c-.15,0-.28-.05-.38-.16-.1-.11-.15-.24-.15-.38s.05-.28.15-.39c.1-.11.23-.16.38-.16h4.49c.75,0,1.12.37,1.12,1.12v2.32ZM56.23,109.51c0,.15-.05.28-.15.39-.1.11-.23.16-.38.16h-2.34c-.15,0-.28-.05-.38-.16-.1-.11-.15-.24-.15-.39s.05-.27.15-.38c.1-.1.23-.15.38-.15h2.34c.15,0,.27.05.38.15.1.1.15.23.15.38Z"/>
      <path class="cls-1" d="M72.01,108.42c0,.17-.06.31-.18.44s-.27.19-.43.19h-3.95c-.36,0-.55.12-.55.36,0,.11.04.23.13.36,1.25,1.89,2.8,3.6,4.66,5.14.16.13.24.29.24.49,0,.18-.06.33-.19.46-.13.13-.28.2-.46.2-.16,0-.3-.06-.43-.17-1.52-1.35-2.79-2.69-3.79-4.02-.11-.15-.22-.22-.34-.22-.17,0-.25.14-.25.42v4.93c0,.18-.06.33-.19.46s-.27.19-.44.19-.31-.06-.44-.19c-.13-.13-.19-.28-.19-.46v-4.91c0-.28-.08-.42-.25-.42-.11,0-.22.08-.34.24-1.05,1.39-2.29,2.72-3.72,3.98-.13.11-.28.17-.43.17-.18,0-.33-.06-.46-.19s-.19-.28-.19-.46c0-.21.08-.37.24-.5,1.79-1.47,3.33-3.17,4.61-5.1.08-.13.13-.25.13-.36,0-.26-.18-.39-.55-.39h-3.88c-.17,0-.31-.06-.43-.19-.12-.13-.18-.27-.18-.44s.06-.31.18-.43.27-.18.43-.18h4.21c.42,0,.63-.21.63-.63v-1.2c0-.18.06-.33.18-.45s.27-.18.45-.18.33.06.45.18.18.27.18.45v1.2c0,.42.21.63.63.63h4.3c.17,0,.31.06.43.18.12.12.18.27.18.43Z"/>
      <path class="cls-1" d="M85.44,107.31c0,.37-.25.6-.76.67-1.41.21-2.66.8-3.75,1.74-1.09.95-1.64,1.94-1.64,2.99,0,1.51,1.21,2.48,3.63,2.9.4.07.6.3.6.71,0,.22-.09.41-.26.57-.17.15-.37.21-.59.16-1.45-.28-2.55-.71-3.3-1.29-1-.77-1.5-1.75-1.5-2.94,0-1.01.34-1.92,1.02-2.74.3-.35.59-.65.88-.9.29-.24.43-.45.43-.62,0-.22-.24-.32-.71-.28-1.91.17-3.47.33-4.66.49-.21.03-.38-.03-.53-.17-.15-.14-.22-.31-.22-.52,0-.18.06-.33.17-.47s.26-.21.44-.22c1.72-.17,5.02-.42,9.9-.76.25,0,.46.05.62.18.16.13.24.29.24.48ZM84.68,111.44c0,.15-.05.28-.16.38s-.24.16-.39.16c-.22,0-.39-.08-.49-.25-.27-.43-.56-.8-.87-1.11-.1-.1-.15-.23-.15-.38,0-.37.18-.56.55-.56.16,0,.3.07.42.21.39.44.72.85.98,1.23.07.11.11.21.11.31ZM86.39,110.65c0,.15-.05.28-.16.38s-.24.16-.39.16c-.21,0-.38-.08-.49-.25-.31-.46-.6-.84-.87-1.13-.1-.11-.15-.23-.15-.35,0-.37.19-.56.56-.56.14,0,.27.07.41.2.33.33.66.74.99,1.25.06.13.1.23.1.31Z"/>
      <path class="cls-1" d="M100.32,108.08c0,.19-.07.35-.2.48-.13.13-.29.2-.48.2-1.47-.02-2.45-.02-2.95-.01-.46,0-.69.24-.69.71v.77c0,.35.09.87.28,1.58.07.29.11.59.11.9,0,1.23-.34,2.24-1.01,3.03s-1.71,1.4-3.12,1.84c-.07.02-.14.03-.21.03-.18,0-.33-.07-.47-.2s-.2-.29-.2-.49c0-.33.16-.54.49-.64,1.33-.4,2.25-1.02,2.77-1.85.09-.15.14-.27.14-.38,0-.13-.07-.2-.21-.2-.08,0-.18.03-.29.08-.26.13-.55.2-.85.2-.69,0-1.25-.17-1.67-.52-.46-.38-.69-.91-.69-1.58s.26-1.25.77-1.67c.48-.38,1.07-.57,1.78-.57.07,0,.16,0,.29.01.13,0,.22.01.28.01.27,0,.41-.12.41-.35,0-.48-.24-.7-.71-.69-1.7.07-3.41.16-5.14.29-.2.02-.37-.04-.51-.17-.15-.14-.22-.3-.22-.5s.06-.34.19-.47.28-.19.46-.2l5.21-.25c.45-.02.67-.23.67-.63v-.63c0-.2.07-.37.22-.51.14-.14.31-.22.51-.22s.36.07.5.21c.14.14.21.31.21.5v.53c0,.48.23.71.7.7,1.41-.02,2.4-.02,2.97-.01.19,0,.34.06.47.19s.19.28.19.47ZM94.52,112.09c.04-.13.06-.25.06-.36,0-.35-.15-.59-.45-.71-.16-.06-.35-.1-.56-.1-.32,0-.59.1-.8.31-.22.21-.33.46-.33.77,0,.64.34.97,1.02.97.56,0,.91-.29,1.06-.87Z"/>
      <path class="cls-1" d="M106.02,115.87c0,.57-.2,1.05-.6,1.45-.4.4-.89.59-1.46.59s-1.05-.2-1.45-.59-.6-.88-.6-1.45.2-1.05.6-1.46c.4-.4.88-.6,1.45-.6s1.05.2,1.46.6c.4.4.6.89.6,1.46ZM105.02,115.87c0-.3-.1-.55-.31-.76-.21-.21-.46-.31-.76-.31s-.54.1-.74.31c-.21.21-.31.46-.31.75s.1.53.31.74c.21.2.45.3.74.3s.55-.1.76-.29c.21-.2.31-.44.31-.74Z"/>
      <path class="cls-1" d="M127.49,115.6c0,.4-.19.63-.57.7-1.53.27-2.95.41-4.27.41s-2.34-.11-3.11-.32c-1.25-.35-1.88-1.03-1.88-2.03,0-.68.44-1.47,1.33-2.35.12-.12.27-.18.46-.18.18,0,.33.06.46.19s.2.28.2.46c0,.16-.06.3-.18.43-.5.52-.76.96-.76,1.3,0,.77,1.19,1.16,3.56,1.16,1.13,0,2.45-.14,3.95-.43.21-.04.39.01.56.15.17.14.25.31.25.53ZM125.97,108.36c-.78.31-1.74.83-2.86,1.55-.11.07-.22.11-.32.11-.16,0-.3-.06-.41-.17-.12-.12-.17-.26-.17-.43,0-.21.09-.38.28-.49l.18-.11c.18-.1.27-.21.27-.31,0-.12-.14-.18-.41-.18-1.03.02-2.17,0-3.44-.08-.18,0-.33-.08-.46-.21s-.19-.28-.19-.46c0-.2.07-.36.22-.5.15-.14.32-.2.51-.19,2.23.13,4.4.14,6.5.04.27,0,.49.06.65.2s.25.31.25.5c0,.33-.2.57-.59.73Z"/>
      <path class="cls-1" d="M143.07,114.31c0,.18-.07.34-.2.48-1.04,1.1-1.91,1.65-2.63,1.65-.64,0-1.07-.25-1.29-.76-.13-.31-.2-.79-.2-1.46,0-.54.03-1.36.09-2.45s.09-1.91.09-2.45c0-.47-.16-.7-.49-.7-.65,0-1.61.7-2.86,2.11-.44.5-.66,1.08-.67,1.74-.02,1.99-.02,3.39-.01,4.21,0,.19-.07.35-.21.49-.14.14-.31.21-.5.21s-.35-.07-.48-.2c-.14-.14-.2-.3-.2-.5,0,.19,0-.56.03-2.24,0-.34-.1-.5-.29-.5-.13,0-.26.09-.39.28s-.42.62-.85,1.3c-.13.2-.32.29-.57.29-.19,0-.35-.06-.48-.2s-.2-.29-.2-.48c0-.17.07-.34.2-.52.5-.68,1.23-1.64,2.18-2.88.32-.41.48-.85.49-1.32,0-.24-.05-.42-.18-.54-.13-.12-.31-.16-.55-.12-.03,0-.47.08-1.33.25-.23.05-.43,0-.58-.16-.15-.15-.23-.33-.23-.54,0-.36.19-.58.57-.64.14-.03.71-.11,1.69-.25.44-.06.66-.31.67-.74l.04-1.36c0-.19.08-.35.21-.48s.29-.2.48-.2c.2,0,.36.07.5.21.14.14.21.31.2.5l-.07,2.04c0,.4.09.6.29.6.13,0,.29-.08.46-.25,1.17-1.13,2.17-1.69,3.01-1.69,1.03,0,1.54.59,1.54,1.78,0,.55-.04,1.37-.11,2.46-.07,1.09-.1,1.91-.1,2.45,0,.38,0,.62.03.71.05.25.17.38.38.38.33,0,.78-.34,1.34-1.01.13-.15.3-.22.5-.22.19,0,.35.07.48.2.14.14.2.3.2.48Z"/>
      <path class="cls-1" d="M152.99,110.65c0,1.47-.25,3.12-.74,4.93-.14.52-.3.9-.48,1.13-.26.34-.62.5-1.06.5-.49,0-1.13-.14-1.93-.41-.32-.1-.48-.31-.48-.63,0-.19.07-.35.2-.48.14-.13.29-.2.47-.2.08,0,.17.02.29.06.4.14.71.21.91.21.22,0,.38-.07.48-.2.07-.1.16-.31.25-.63.44-1.57.66-2.93.66-4.09,0-.45-.09-.75-.27-.9s-.51-.22-1.01-.22c-.44,0-.74.05-.9.14-.2.11-.34.31-.42.6-.61,2.03-1.44,4.08-2.49,6.15-.14.27-.36.41-.66.41-.21,0-.38-.07-.52-.22-.14-.14-.21-.32-.21-.53,0-.16.03-.28.08-.38.95-1.65,1.73-3.39,2.32-5.22.03-.09.04-.18.04-.25,0-.34-.2-.48-.6-.42-.29.04-.74.1-1.36.2-.2.03-.38-.03-.54-.16s-.25-.31-.25-.51c0-.39.2-.62.61-.67.41-.06,1.06-.14,1.95-.25.45-.05.75-.33.91-.84.03-.07.11-.53.24-1.37.07-.4.3-.6.7-.6.22,0,.4.08.54.25.13.16.18.36.15.58,0,.05-.05.25-.13.62-.06.27-.1.47-.1.6,0,.39.22.57.66.55h.21c.72-.06,1.29.07,1.72.36.49.34.73.97.73,1.89ZM157.21,111.7c0,.21-.07.38-.22.53s-.32.22-.53.22c-.34,0-.57-.16-.7-.49-.49-1.26-1.11-2.41-1.86-3.44-.08-.11-.13-.24-.13-.39,0-.2.07-.36.2-.5.13-.14.3-.21.5-.21.23,0,.42.1.57.29.85,1.11,1.55,2.35,2.11,3.71.03.07.04.16.04.28Z"/>
      <path class="cls-1" d="M170.19,113.54c0,1.36-.67,2.37-2.02,3.01-1.1.53-2.46.78-4.09.76h-.97c-.18-.01-.33-.08-.46-.22-.13-.14-.2-.29-.2-.47,0-.19.07-.35.21-.48.14-.13.31-.2.5-.19.51.02.83.03.97.03,1.09,0,2.04-.15,2.86-.46,1.14-.42,1.71-1.08,1.71-1.99,0-.61-.23-1.06-.7-1.37-.38-.25-.9-.38-1.54-.38-.77,0-1.58.17-2.42.52s-1.54.8-2.11,1.35c-.31.3-.61.45-.91.45-.23,0-.42-.09-.55-.28-.13-.19-.19-.43-.17-.74l.28-4.33c.03-.43.26-.64.69-.64.21,0,.38.07.52.22.14.15.2.32.18.52l-.18,2.35c-.03.4.09.6.36.6.13,0,.28-.05.45-.15,1.26-.79,2.59-1.19,4-1.19,1.06,0,1.91.24,2.53.73.7.53,1.05,1.32,1.05,2.35ZM166.92,107.73c0,.2-.07.36-.2.5-.14.14-.31.21-.51.21-.12,0-.21-.02-.28-.06-1.08-.5-2.34-.93-3.77-1.29-.35-.08-.53-.3-.53-.66,0-.19.07-.35.2-.48.13-.13.29-.2.47-.2.07,0,.13,0,.15.01,1.39.32,2.73.74,4.02,1.27.3.12.45.35.45.67Z"/>
      <path class="cls-1" d="M34.43,126.05c0,.68-.34,1.02-1.02,1.02h-2.95c-.54,0-.87-.23-.98-.69-.11.19-.27.43-.48.74-.25.37-.38.78-.38,1.22v5.78c0,.17-.06.31-.18.43-.12.12-.27.18-.43.18s-.31-.06-.43-.18c-.12-.12-.18-.27-.18-.43v-4.51c0-.16-.05-.24-.15-.24-.07,0-.13.04-.2.11l-.06.07c-.09.12-.24.18-.45.18-.17,0-.31-.06-.44-.18-.13-.12-.19-.27-.19-.43,0-.19.07-.34.21-.48.94-.88,1.75-1.87,2.42-2.98.11-.19.28-.28.5-.28.16,0,.29.06.41.17v-1.67c0-.15.05-.28.15-.38s.23-.15.38-.15.28.05.38.15c.1.1.15.23.15.38v1.6c0,.29.12.43.35.43h.07c.28,0,.42-.14.42-.42v-2.53c0-.15.06-.28.17-.39.11-.11.25-.17.41-.17.15,0,.28.06.39.17.11.11.16.24.16.39v2.53c0,.28.14.42.42.42h.11c.24,0,.36-.14.36-.43v-1.6c0-.15.05-.28.15-.38s.23-.15.38-.15.28.05.38.15c.1.1.15.23.15.38v2.16ZM29.31,123.11c0,.13-.03.24-.08.32-.59.93-1.26,1.79-2.02,2.56-.13.13-.28.2-.46.2-.17,0-.31-.06-.43-.18-.12-.12-.18-.27-.18-.43,0-.18.07-.33.2-.46.76-.74,1.39-1.52,1.9-2.34.11-.18.28-.27.49-.27.17,0,.31.06.42.17.11.12.17.26.17.43ZM39.15,125.08c0,.3-.14.49-.41.56s-.42.21-.44.42c-.13,1.73-.41,3.2-.84,4.42-.07.19-.1.36-.1.52,0,.21.06.41.18.62.39.65.83,1.26,1.33,1.81.11.12.17.26.17.42,0,.18-.06.33-.19.46s-.28.19-.46.19c-.21,0-.37-.08-.5-.24-.32-.4-.6-.81-.85-1.22-.17-.28-.3-.42-.41-.42-.09,0-.23.14-.42.41-.31.46-.67.92-1.09,1.4-.11.13-.27.2-.46.2-.17,0-.31-.06-.43-.17-.12-.12-.18-.26-.18-.43,0-.18.06-.33.2-.46.63-.63,1.12-1.26,1.5-1.88.12-.2.18-.39.18-.59,0-.16-.04-.34-.11-.53-.21-.57-.39-1.12-.53-1.65-.05-.18-.1-.27-.15-.27-.04,0-.1.05-.18.15-.08.1-.21.15-.38.15-.1,0-.2-.03-.28-.08-.07.29-.25.43-.55.43h-.07c-.28,0-.42.14-.42.42v1.83c0,.16.05.24.15.24.06,0,.28-.14.66-.43.08-.07.19-.1.31-.1.15,0,.28.06.39.17.11.11.16.24.16.39,0,.19-.08.33-.22.43l-1.15.76c-.22.15-.44.22-.66.22-.49,0-.73-.34-.73-1.01v-2.51c0-.28-.14-.42-.42-.42s-.42.14-.42.42v.41c0,1.45-.36,2.77-1.09,3.96-.13.21-.31.32-.53.32-.18,0-.33-.06-.45-.18-.12-.12-.18-.27-.18-.45,0-.14.03-.25.08-.34.68-1.05,1.02-2.22,1.02-3.49v-.24c0-.28-.14-.42-.42-.42h-.08c-.37,0-.56-.19-.56-.56s.19-.56.56-.56h4.07c.12,0,.23.03.32.1.64-1.64,1.11-3.43,1.4-5.36.05-.32.23-.48.56-.48.18,0,.33.07.45.2.12.14.16.29.13.47-.13.66-.2,1-.2,1.01,0,.26.15.39.45.39h1.72c.16,0,.3.06.41.18s.17.25.17.41ZM37.17,126.18c.02-.34-.14-.5-.48-.5h-.27c-.3,0-.49.14-.56.41-.04.14-.04.32-.01.53.11.83.29,1.64.53,2.42.05.16.12.24.21.24.08,0,.14-.07.18-.22.18-.72.31-1.67.39-2.87Z"/>
      <path class="cls-1" d="M46.68,124.2c0,.16-.05.29-.16.4-.11.11-.24.16-.38.16h-.77c-.24,0-.36.09-.36.28,0,.06.02.13.06.21l.07.17c.04.09.06.18.06.27,0,.18-.06.33-.18.45-.12.13-.28.19-.46.19-.26,0-.45-.14-.57-.42l-.29-.67c-.14-.32-.34-.48-.6-.48s-.5.13-.69.38l-.6.8c-.12.16-.28.24-.48.24-.17,0-.31-.06-.43-.18-.12-.12-.18-.27-.18-.43,0-.15.04-.28.13-.38.66-.77,1.19-1.59,1.6-2.44.11-.23.31-.35.59-.35.17,0,.32.06.45.18.13.12.2.25.2.39l-.07.45c0,.17.1.25.31.25h2.25c.15,0,.28.05.38.15.11.1.16.23.16.38ZM52.97,124.2c0,.16-.06.29-.17.4-.11.11-.24.16-.39.16h-1.18c-.23,0-.35.08-.35.25,0,.06.03.15.08.28.06.13.08.25.08.36,0,.3-.13.5-.39.6.21.07.32.25.32.52,0,.35-.17.55-.5.6-.67.1-1.53.21-2.56.32-.35.04-.53.23-.53.59v.34c0,.37.19.56.56.56h4.37c.16,0,.29.06.41.17.11.11.17.25.17.41s-.06.29-.17.41c-.11.11-.25.17-.41.17h-3.77c-.34,0-.5.12-.5.35,0,.11.05.22.14.34.85,1.04,2.1,1.88,3.75,2.51.28.1.42.29.42.57,0,.18-.06.33-.19.45-.13.12-.27.18-.44.18-.07,0-.15-.01-.22-.04-1.73-.63-3.1-1.53-4.13-2.7-.19-.21-.37-.32-.55-.32s-.36.12-.55.35c-.85,1.06-2.22,1.95-4.1,2.66-.08.03-.15.04-.22.04-.17,0-.31-.06-.44-.18s-.19-.27-.19-.45c0-.3.13-.49.41-.59,1.83-.65,3.09-1.49,3.78-2.51.06-.1.1-.2.1-.29,0-.24-.17-.36-.5-.36h-3.77c-.16,0-.3-.06-.41-.17-.12-.11-.17-.25-.17-.41s.06-.29.17-.41c.12-.11.25-.17.41-.17h4.21c.37,0,.56-.19.56-.56v-.17c0-.39-.19-.57-.57-.55-.9.07-1.9.12-3.02.17-.16,0-.3-.04-.42-.16-.12-.12-.18-.25-.18-.41,0-.15.06-.28.17-.39.11-.11.24-.17.39-.18,2.81-.1,5.35-.34,7.62-.7-.11-.07-.21-.17-.28-.32l-.31-.67c-.15-.32-.38-.48-.69-.48s-.57.13-.76.38l-.53.71c-.12.16-.28.24-.49.24-.18,0-.33-.06-.45-.19s-.18-.27-.18-.44c0-.16.06-.3.17-.43.55-.65,1.04-1.41,1.47-2.27.12-.24.32-.36.59-.36.18,0,.34.07.48.2.11.11.17.22.17.32,0,.06-.01.14-.03.24-.02.11-.04.19-.04.25,0,.18.11.27.32.27h2.88c.15,0,.28.05.39.15.11.1.17.23.17.38Z"/>
      <path class="cls-1" d="M67.44,130.36c0,.2-.07.36-.21.5-.14.14-.31.2-.5.2-.12,0-.23-.03-.34-.08l-.59-.31c-.14-.07-.27-.11-.38-.11-.23,0-.42.15-.55.46-.53,1.27-1.36,2.33-2.49,3.18-.12.09-.26.14-.42.14-.2,0-.36-.07-.5-.21-.14-.14-.21-.31-.21-.5,0-.24.1-.43.29-.57.93-.69,1.63-1.59,2.09-2.69.05-.11.07-.21.07-.31,0-.27-.16-.47-.48-.59-.66-.25-1.35-.44-2.06-.57-.07-.02-.15-.03-.22-.03-.39,0-.68.21-.87.64-.2.46-.53,1.2-.99,2.23-.31.65-.62,1.12-.92,1.39-.31.28-.7.41-1.16.41-.57,0-1.04-.22-1.43-.67s-.57-.98-.57-1.62c0-1.17.47-2.1,1.4-2.79.62-.46,1.37-.76,2.23-.9.63-.1,1.05-.41,1.27-.91.32-.73.54-1.24.66-1.54.05-.12.07-.23.07-.32,0-.26-.22-.37-.66-.34-.45.05-1.19.11-2.23.2-.19,0-.35-.05-.5-.18s-.22-.29-.22-.48c0-.18.06-.33.18-.46.12-.13.27-.2.45-.21,1-.04,2.14-.14,3.42-.31.14-.02.24-.03.31-.03.68,0,1.02.28,1.02.84,0,.2-.05.4-.14.62l-1.04,2.41c-.06.14-.08.26-.08.36,0,.24.19.4.56.46.5.09,1.09.25,1.76.48.11.04.21.06.31.06.31,0,.48-.19.53-.56.06-.49.09-.98.11-1.44,0-.19.08-.35.22-.48.14-.13.3-.2.48-.2.2,0,.36.07.5.22.14.15.21.31.2.51,0,.21-.05.58-.11,1.11-.06.47-.08.82-.08,1.05,0,.39.2.69.6.9.26.12.52.24.78.36.29.19.43.41.43.67ZM58.61,129.49c.06-.12.08-.23.08-.34,0-.21-.1-.31-.31-.31-.07,0-.16.01-.25.04-.38.13-.72.32-1.01.56-.54.46-.81,1.05-.81,1.76,0,.22.06.42.17.59s.27.26.46.26c.35,0,.7-.37,1.02-1.12l.64-1.46Z"/>
      <path class="cls-1" d="M80.77,128.64c0,2.85-1.44,4.59-4.33,5.22-.03,0-.08.01-.15.01-.19,0-.35-.06-.48-.2-.14-.13-.2-.29-.2-.49,0-.37.17-.6.5-.69,2.16-.54,3.23-1.84,3.23-3.89,0-1.07-.29-1.93-.87-2.58-.21-.24-.48-.46-.8-.64-.36-.21-.69-.31-.98-.31-.4,0-.64.23-.73.7-.35,2.04-.77,3.67-1.26,4.91-.31.78-.61,1.37-.91,1.76-.48.61-1.03.91-1.67.91-.85,0-1.53-.42-2.04-1.27-.45-.73-.67-1.54-.67-2.44,0-1.74.58-3.17,1.73-4.31,1.15-1.14,2.6-1.71,4.33-1.71,1.63,0,2.91.42,3.84,1.26.97.88,1.46,2.12,1.46,3.74ZM74.54,125.83c0-.06.01-.13.01-.2,0-.35-.16-.52-.48-.52-.11,0-.23.02-.36.07-.86.3-1.56.86-2.1,1.67-.54.82-.81,1.75-.81,2.81,0,.58.14,1.09.41,1.53.27.44.57.67.91.67.4,0,.83-.56,1.29-1.69.38-.95.76-2.4,1.13-4.34Z"/>
      <path class="cls-1" d="M85.74,126.65c0,1.63-.06,2.93-.18,3.89-.19,1.49-.55,2.72-1.09,3.67-.15.26-.37.39-.66.39-.21,0-.38-.07-.52-.22-.15-.15-.22-.32-.22-.53,0-.13.03-.25.1-.36.52-.91.87-1.99,1.04-3.25.11-.83.17-2.05.17-3.67v-3.23c0-.19.07-.35.21-.48s.3-.2.49-.2.35.07.48.2.2.3.2.48v3.3ZM90,132.73c0,.19-.07.34-.2.48-.13.13-.29.2-.48.2s-.35-.07-.48-.2c-.13-.13-.2-.29-.2-.48v-8.61c0-.19.07-.35.2-.48s.29-.2.48-.2.35.07.48.2c.13.13.2.29.2.48v8.61ZM94.48,133.89c0,.19-.07.35-.2.49-.14.14-.3.21-.48.21s-.35-.07-.48-.21c-.14-.14-.2-.3-.2-.49v-10.54c0-.19.07-.35.2-.48s.3-.2.48-.2.35.07.48.2.2.3.2.48v10.54Z"/>
      <path class="cls-1" d="M102.68,125.48c0,.16-.06.3-.17.41s-.25.18-.41.18h-.83c-.37,0-.56.14-.56.42,0,.11.06.27.18.48.26.42.8,1.16,1.62,2.23.1.13.15.26.15.38,0,.16-.06.3-.17.41-.12.12-.25.17-.41.17-.21,0-.35-.05-.42-.15-.1-.14-.28-.38-.52-.73-.08-.13-.17-.2-.27-.2-.11,0-.17.1-.17.29v4.8c0,.17-.06.31-.18.43-.12.12-.27.17-.43.17-.18,0-.32-.06-.44-.17s-.18-.26-.18-.43v-4.44c0-.2-.06-.29-.18-.29-.06,0-.23.25-.52.74-.17.29-.34.58-.5.88-.13.19-.3.28-.52.28-.36,0-.57-.21-.62-.62-.02-.12.05-.28.2-.46.75-.98,1.41-2.15,1.99-3.5.07-.17.11-.3.11-.41,0-.2-.17-.29-.52-.29h-1.08c-.16,0-.3-.06-.41-.18-.12-.12-.18-.25-.18-.41s.06-.3.18-.41.25-.18.41-.18h1.08c.37,0,.56-.19.56-.56v-1.36c0-.17.06-.31.18-.43s.27-.18.43-.18.31.06.43.18c.12.12.18.27.18.43v1.36c0,.37.19.56.56.56h.83c.16,0,.3.06.41.18.12.12.17.25.17.41ZM109.88,125.5c0,.17-.06.31-.18.43-.12.12-.27.18-.43.18h-.41c-.42,0-.63.21-.63.63v5.64c0,.83-.12,1.38-.37,1.64-.25.26-.74.39-1.48.39h-1.04c-.17,0-.31-.06-.44-.18s-.19-.27-.19-.43.06-.32.19-.44.27-.19.44-.19h.73c.39,0,.64-.08.76-.24.08-.12.12-.38.12-.77v-5.42c0-.42-.21-.63-.63-.63h-2.6c-.17,0-.31-.06-.43-.18-.12-.12-.17-.27-.17-.43s.06-.31.17-.43c.12-.12.26-.18.43-.18h2.6c.42,0,.63-.21.63-.63v-1.18c0-.18.06-.33.19-.46s.28-.19.46-.19c.17,0,.31.06.44.19.12.13.19.28.19.46v1.18c0,.42.21.63.63.63h.41c.17,0,.31.06.43.18.12.12.18.27.18.43ZM105.79,130.08c0,.16-.06.3-.18.42-.12.12-.26.18-.42.18-.24,0-.42-.11-.53-.32-.3-.58-.66-1.17-1.09-1.78-.07-.09-.1-.21-.1-.34,0-.16.06-.29.17-.41.11-.11.25-.17.41-.17.21,0,.36.08.48.24.5.71.9,1.33,1.19,1.88.06.1.08.2.08.29Z"/>
      <path class="cls-1" d="M123.72,128.32c0,.17-.06.31-.18.43-.12.12-.27.18-.43.18h-2.97c-.42,0-.63.21-.63.63v3.09c0,.36.1.56.31.6.05,0,.15.01.32.01h.88c.52,0,.85-.13.98-.38.07-.15.13-.54.15-1.16,0-.17.07-.31.2-.43.12-.12.27-.18.45-.18s.33.07.46.2c.13.13.19.28.18.46-.03,1.12-.19,1.85-.5,2.21-.3.35-.93.52-1.87.52h-1.5c-.56,0-.93-.09-1.12-.27-.19-.18-.28-.55-.28-1.11v-3.56c0-.42-.21-.63-.63-.63h-.53c-.4,0-.62.21-.64.62-.16,2.34-1.3,4.04-3.42,5.08-.09.05-.2.07-.32.07-.18,0-.34-.07-.48-.2-.14-.13-.21-.29-.21-.48,0-.29.13-.5.38-.62.89-.44,1.54-.95,1.97-1.55s.68-1.36.76-2.29c.04-.43-.17-.64-.62-.64h-2.49c-.17,0-.31-.06-.43-.18-.12-.12-.18-.26-.18-.43s.06-.31.18-.43c.12-.12.27-.18.43-.18h4.4c.42,0,.63-.21.63-.63v-.84c0-.42-.21-.63-.63-.63h-1.89c-.5,0-.91.19-1.2.57l-.35.45c-.11.15-.28.22-.49.22-.18,0-.33-.06-.45-.19s-.18-.28-.18-.46c0-.17.06-.31.17-.43.7-.78,1.3-1.66,1.79-2.63.11-.22.3-.34.57-.34.19,0,.34.06.46.19.12.13.18.28.18.46,0,.08-.03.18-.08.3-.05.12-.08.21-.08.29,0,.23.17.35.5.35h1.04c.42,0,.63-.21.63-.63v-.74c0-.18.06-.33.19-.46s.28-.19.46-.19.33.06.46.19.19.28.19.46v.74c0,.42.21.63.63.63h3.23c.17,0,.31.06.43.18s.18.26.18.42c0,.17-.06.31-.18.43s-.27.18-.43.18h-3.23c-.42,0-.63.21-.63.63v.84c0,.42.21.63.63.63h4.21c.17,0,.31.06.43.18.12.12.18.27.18.43Z"/>
      <path class="cls-1" d="M137.86,133.57c0,.18-.06.33-.19.46s-.28.19-.46.19h-11.12c-.18,0-.33-.06-.45-.19s-.18-.28-.18-.46.06-.33.19-.46.27-.19.44-.19h4.33c.42,0,.63-.21.63-.63v-1.65c0-.42-.21-.63-.63-.63h-2.93c-.17,0-.31-.06-.43-.18s-.17-.26-.17-.43.06-.31.17-.43c.12-.12.26-.18.43-.18h2.93c.42,0,.63-.21.63-.63v-1.27c0-.42-.21-.63-.63-.63h-1.92c-.55,0-.97.23-1.26.7-.12.2-.31.48-.57.85-.13.19-.31.28-.53.28-.18,0-.33-.07-.46-.2-.13-.13-.2-.28-.2-.46,0-.16.04-.29.13-.41.92-1.26,1.64-2.54,2.14-3.84.1-.26.3-.39.6-.39.19,0,.34.07.47.2.13.13.19.29.19.46,0,.1-.1.37-.29.81-.05.11-.07.22-.07.32,0,.28.18.42.55.42h1.23c.42,0,.63-.21.63-.63v-1.26c0-.19.07-.35.2-.48.13-.14.3-.2.48-.2s.35.07.48.2.2.3.2.48v1.26c0,.42.21.63.63.63h3.65c.18,0,.33.06.45.18s.18.27.18.43c0,.18-.06.33-.18.45-.12.12-.27.18-.45.18h-3.65c-.42,0-.63.21-.63.63v1.27c0,.42.21.63.63.63h2.88c.17,0,.31.06.43.18.12.12.17.26.17.43s-.06.31-.17.43-.26.18-.43.18h-2.88c-.42,0-.63.21-.63.63v1.65c0,.42.21.63.63.63h4.17c.18,0,.33.06.46.19s.19.28.19.46Z"/>
      <path class="cls-1" d="M151.47,128.64c0,2.85-1.44,4.59-4.33,5.22-.03,0-.08.01-.15.01-.19,0-.35-.06-.48-.2-.13-.13-.2-.29-.2-.49,0-.37.17-.6.5-.69,2.16-.54,3.23-1.84,3.23-3.89,0-1.07-.29-1.93-.87-2.58-.21-.24-.48-.46-.8-.64-.36-.21-.69-.31-.98-.31-.4,0-.64.23-.73.7-.35,2.04-.77,3.67-1.26,4.91-.31.78-.61,1.37-.91,1.76-.48.61-1.03.91-1.67.91-.85,0-1.53-.42-2.04-1.27-.45-.73-.67-1.54-.67-2.44,0-1.74.58-3.17,1.73-4.31,1.15-1.14,2.6-1.71,4.33-1.71,1.63,0,2.91.42,3.84,1.26.97.88,1.46,2.12,1.46,3.74ZM145.24,125.83c0-.06.01-.13.01-.2,0-.35-.16-.52-.48-.52-.11,0-.23.02-.36.07-.86.3-1.56.86-2.1,1.67-.54.82-.81,1.75-.81,2.81,0,.58.14,1.09.41,1.53s.57.67.91.67c.4,0,.83-.56,1.29-1.69.38-.95.76-2.4,1.13-4.34Z"/>
      <path class="cls-1" d="M159.77,131.3c-.82,1.61-1.61,2.42-2.37,2.42-.93,0-1.66-.83-2.17-2.49-.4-1.29-.6-2.75-.6-4.38,0-.84.03-1.56.08-2.17.02-.2.1-.36.23-.49.13-.13.3-.2.5-.2.21,0,.39.08.54.25.14.16.21.35.19.57-.07.63-.1,1.35-.1,2.17,0,1.07.12,2.14.35,3.19.26,1.17.61,1.75,1.04,1.75.31,0,.66-.42,1.05-1.26.12-.25.33-.38.63-.38.2,0,.36.07.5.2s.2.3.2.5c0,.12-.02.23-.07.32ZM165.83,130.87c.03.22-.03.42-.18.6-.15.18-.34.27-.57.27-.2,0-.37-.07-.52-.2-.15-.13-.23-.29-.25-.48-.23-2.12-.92-4-2.06-5.66-.08-.12-.13-.26-.13-.41,0-.21.07-.38.21-.52.14-.14.31-.21.52-.21.25,0,.45.1.6.31,1.29,1.79,2.08,3.89,2.38,6.29Z"/>
      <path class="cls-1" d="M174.6,125.76c-.48.1-.94.19-1.39.25-.52.08-.87.37-1.05.87-.65,1.88-1.4,3.66-2.23,5.35-.13.27-.35.41-.64.41-.2,0-.36-.07-.5-.21s-.21-.31-.21-.5c0-.11.03-.22.08-.34.78-1.51,1.46-3.04,2.03-4.59.04-.1.06-.19.06-.27,0-.29-.2-.43-.59-.43h-.8c-.19,0-.35-.07-.48-.2-.13-.14-.2-.3-.2-.48,0-.2.07-.36.21-.5s.31-.2.5-.19c.41.02.79.02,1.15.01.57,0,.92-.29,1.06-.85.08-.32.15-.63.24-.95.14-.35.37-.53.69-.53.2,0,.36.07.5.21.14.14.21.3.21.49,0,.07-.05.28-.14.6-.03.11-.04.21-.04.29,0,.28.13.42.38.42.05,0,.1,0,.15-.01l.73-.15c.08-.02.14-.03.17-.03.19,0,.34.07.46.2.12.14.18.3.18.5,0,.35-.18.57-.53.64ZM179.9,132.69c0,.19-.07.35-.2.49-.13.14-.3.21-.5.21-.12,0-.25-.04-.38-.13-.31-.21-.63-.4-.98-.59-.11-.06-.21-.1-.31-.1-.22,0-.38.16-.48.49-.27.94-1.1,1.41-2.49,1.41-.74,0-1.35-.16-1.85-.48-.59-.36-.88-.9-.88-1.6s.27-1.22.83-1.58c.48-.32,1.08-.48,1.81-.48.21,0,.44.02.7.06.21.03.38,0,.5-.1.12-.09.18-.25.18-.48v-2.04c-.01-.19.05-.35.18-.48s.29-.2.48-.2.35.07.48.2.2.29.2.48v2.35c.01.51.27.89.78,1.12.45.21.98.49,1.6.85.23.14.35.34.35.59ZM175.83,132.29c0-.39-.22-.62-.67-.7-.27-.05-.51-.07-.71-.07-.85,0-1.27.3-1.27.9,0,.27.11.48.34.64.23.15.52.23.89.23.65,0,1.08-.16,1.27-.48.1-.17.15-.34.15-.52ZM180.03,126.44c0,.19-.07.35-.2.48-.13.14-.3.2-.48.2-.13,0-.26-.04-.38-.13-.71-.48-1.46-.88-2.25-1.22-.26-.11-.39-.32-.39-.62,0-.19.07-.35.2-.48.13-.13.29-.2.47-.2.1,0,.19.02.25.06.88.37,1.7.81,2.46,1.3.21.14.32.34.32.59Z"/>
      <path class="cls-1" d="M30.03,148.3c-.82,1.61-1.61,2.42-2.37,2.42-.93,0-1.66-.83-2.17-2.49-.4-1.29-.6-2.75-.6-4.38,0-.84.03-1.56.08-2.17.02-.2.1-.36.23-.49s.3-.2.5-.2c.21,0,.39.08.54.25.14.16.21.35.19.57-.07.62-.1,1.35-.1,2.17,0,1.07.12,2.14.35,3.19.26,1.17.61,1.75,1.04,1.75.31,0,.66-.42,1.05-1.26.12-.25.33-.38.63-.38.2,0,.36.07.5.2s.2.3.2.5c0,.12-.02.23-.07.32ZM36.09,147.87c.03.22-.03.42-.18.6-.15.18-.34.27-.57.27-.2,0-.37-.07-.52-.2-.15-.13-.23-.29-.25-.48-.23-2.12-.92-4-2.06-5.66-.08-.12-.13-.26-.13-.41,0-.21.07-.38.21-.52.14-.14.31-.21.52-.21.25,0,.45.1.6.31,1.29,1.79,2.08,3.89,2.38,6.29Z"/>
      <path class="cls-1" d="M50.65,146.2c0,.16-.06.3-.18.41-.12.12-.25.17-.41.17h-.78c-.37,0-.56.19-.57.56,0,.19,0,.45-.01.78-.02.38.16.57.55.57h.64c.15,0,.28.05.39.16.11.11.17.24.17.38,0,.16-.06.29-.17.4-.11.11-.24.16-.39.16h-.81c-.33,0-.53.17-.62.52-.15.61-.4,1-.74,1.19-.26.15-.74.22-1.43.22h-1.19c-.16,0-.3-.06-.41-.17s-.17-.25-.17-.41.06-.29.17-.41c.12-.11.25-.17.41-.17h1.02c.39,0,.66-.05.8-.15.09-.07.14-.15.14-.24,0-.1-.06-.19-.17-.27s-.24-.12-.39-.12h-5.67c-.67,0-1.01-.3-1.01-.9,0-.2.03-.45.08-.76.09-.49.14-.74.14-.76.06-.41-.12-.62-.52-.62h-.88c-.16,0-.3-.06-.41-.17-.12-.12-.17-.25-.17-.41s.06-.3.17-.41c.12-.12.25-.17.41-.17h1.12c.36,0,.56-.17.6-.52l.14-1.2c.08-.74.5-1.11,1.26-1.11h5.78c.79,0,1.19.4,1.19,1.19v1.08c0,.37.19.56.56.56h.77c.16,0,.3.06.41.17.12.12.18.25.18.41ZM50.23,141.15c0,.16-.06.3-.18.41-.12.12-.25.17-.41.17h-7.73c-.5,0-.92.19-1.25.58-.33.39-.75.83-1.25,1.34-.12.12-.27.18-.45.18-.17,0-.31-.06-.44-.17-.13-.12-.19-.26-.19-.43,0-.19.06-.33.17-.43,1.1-1.04,1.97-2.09,2.6-3.18.13-.21.31-.32.53-.32.17,0,.31.06.44.19s.19.27.19.44c0,.04,0,.07-.01.08-.02.11-.03.2-.03.27,0,.2.12.29.36.29h7.06c.16,0,.3.06.41.17s.18.25.18.41ZM43.68,147.38c.04-.39-.14-.59-.53-.59h-1.19c-.35,0-.54.17-.59.52l-.1.69c0,.08-.01.14-.01.2,0,.35.2.52.6.52h1.16c.36,0,.56-.18.59-.53l.07-.8ZM43.9,144.41c.02-.38-.16-.57-.55-.57h-1.12c-.3,0-.46.15-.49.43l-.08.76c-.05.39.13.59.52.59h1.09c.35,0,.55-.15.57-.46.02-.16.04-.41.06-.74ZM47.4,147.36c.02-.38-.16-.57-.55-.57h-1.34c-.35,0-.55.18-.57.53l-.07.8c-.04.39.14.59.53.59h1.4c.36,0,.56-.17.57-.5,0-.18.02-.46.03-.84ZM46.86,145.61c.37,0,.56-.19.56-.56v-.76c0-.31-.15-.46-.45-.46h-1.27c-.36,0-.56.18-.57.55l-.03.66c-.02.38.16.57.55.57h1.22Z"/>
      <path class="cls-1" d="M63.14,149.7c0,.96-.48,1.44-1.43,1.44h-6.44c-.96,0-1.44-.48-1.44-1.44v-8.16c0-.96.48-1.44,1.44-1.44h6.44c.95,0,1.43.48,1.43,1.44v8.16ZM61.81,144.31v-2.24c0-.49-.24-.73-.73-.73h-5.18c-.49,0-.73.24-.73.73v2.24c0,.42.21.63.63.63h5.38c.42,0,.63-.21.63-.63ZM61.81,149.17v-2.41c0-.42-.21-.63-.63-.63h-5.38c-.42,0-.63.21-.63.63v2.41c0,.49.24.73.73.73h5.18c.48,0,.73-.24.73-.73Z"/>
      <path class="cls-1" d="M74.84,144.73c0,1.51-.25,3.15-.74,4.93-.15.53-.31.91-.49,1.13-.25.34-.6.5-1.05.5-.51,0-1.16-.13-1.93-.41-.32-.11-.48-.32-.48-.63,0-.19.07-.35.2-.48s.29-.2.47-.2c.07,0,.14,0,.2.03.49.16.82.24,1.01.24.22,0,.38-.07.48-.2.07-.09.16-.3.25-.63.44-1.5.66-2.87.66-4.09,0-.45-.09-.75-.27-.9-.18-.15-.51-.22-1.01-.22h-.2c-.08,0-.15.01-.21.01-.47,0-.77.24-.91.73-.63,2.12-1.46,4.17-2.49,6.15-.14.27-.36.41-.66.41-.21,0-.38-.07-.52-.22-.14-.14-.21-.32-.21-.53,0-.15.03-.28.08-.38.88-1.54,1.65-3.28,2.32-5.22.03-.09.04-.18.04-.25,0-.34-.2-.48-.6-.42-.29.05-.74.11-1.36.2-.2.03-.38-.03-.54-.16-.16-.14-.25-.31-.25-.51,0-.39.21-.62.62-.68s1.06-.14,1.95-.25c.45-.04.75-.32.91-.84.08-.46.16-.92.24-1.37.07-.4.3-.6.7-.6.22,0,.4.08.54.24.14.16.18.36.15.58,0,.05-.05.25-.13.62-.07.25-.1.45-.1.6,0,.39.22.57.66.55h.21c.71-.06,1.28.07,1.72.36.48.34.73.97.73,1.89ZM76.72,141.66c0,.15-.05.28-.16.38-.11.11-.24.16-.39.16-.22,0-.39-.08-.49-.25-.27-.43-.56-.8-.87-1.11-.1-.1-.15-.23-.15-.38,0-.37.18-.56.55-.56.16,0,.3.07.42.21.39.44.72.85.98,1.23.07.11.11.21.11.31ZM77.61,146.56c-.39-1.02-.92-2.01-1.58-2.98-.08-.11-.11-.24-.11-.38,0-.2.07-.36.22-.5.14-.13.31-.2.51-.2.23,0,.42.1.57.31.74,1.04,1.33,2.11,1.79,3.22.04.09.06.19.06.28,0,.2-.08.37-.24.52-.16.15-.35.22-.55.22-.31,0-.53-.16-.66-.49ZM78.43,140.87c0,.15-.05.28-.16.38-.11.11-.24.16-.39.16-.21,0-.38-.08-.49-.25-.31-.46-.6-.83-.87-1.13-.1-.11-.15-.23-.15-.35,0-.37.19-.56.56-.56.14,0,.27.07.41.2.33.33.66.74.99,1.25.06.13.1.23.1.31Z"/>
      <path class="cls-1" d="M83.14,145.51c0,.29-.1.53-.31.73-.21.2-.45.3-.74.3s-.53-.1-.73-.3c-.2-.2-.3-.45-.3-.73s.1-.54.3-.74c.2-.21.45-.31.73-.31s.54.1.74.31c.21.21.31.45.31.74ZM87.81,145.51c0,.29-.1.53-.31.73-.21.2-.45.3-.74.3s-.53-.1-.74-.3c-.2-.2-.3-.45-.3-.73s.1-.54.3-.74.45-.31.74-.31.54.1.74.31c.21.21.31.45.31.74ZM92.47,145.51c0,.28-.1.52-.31.73s-.46.31-.74.31c-.3,0-.55-.1-.75-.29-.2-.2-.3-.44-.3-.74s.1-.55.3-.75c.2-.2.45-.3.75-.3s.55.1.75.3c.2.2.3.45.3.75Z"/>
      <path class="cls-1" d="M100.73,148.3c-.82,1.61-1.61,2.42-2.37,2.42-.93,0-1.66-.83-2.17-2.49-.4-1.29-.6-2.75-.6-4.38,0-.84.03-1.56.08-2.17.02-.2.1-.36.23-.49s.3-.2.5-.2c.21,0,.39.08.54.25.14.16.21.35.19.57-.07.62-.1,1.35-.1,2.17,0,1.07.12,2.14.35,3.19.26,1.17.61,1.75,1.04,1.75.31,0,.66-.42,1.05-1.26.12-.25.33-.38.63-.38.2,0,.36.07.5.2s.2.3.2.5c0,.12-.02.23-.07.32ZM106.79,147.87c.03.22-.03.42-.18.6-.15.18-.34.27-.57.27-.2,0-.37-.07-.52-.2-.15-.13-.23-.29-.25-.48-.23-2.12-.92-4-2.06-5.66-.08-.12-.13-.26-.13-.41,0-.21.07-.38.21-.52.14-.14.31-.21.52-.21.25,0,.45.1.6.31,1.29,1.79,2.08,3.89,2.38,6.29Z"/>
      <path class="cls-1" d="M114.87,148.3c-.82,1.61-1.61,2.42-2.37,2.42-.93,0-1.66-.83-2.17-2.49-.4-1.29-.6-2.75-.6-4.38,0-.84.03-1.56.08-2.17.02-.2.1-.36.23-.49.13-.13.3-.2.5-.2.21,0,.39.08.54.25s.21.35.19.57c-.07.62-.1,1.35-.1,2.17,0,1.07.12,2.14.35,3.19.26,1.17.61,1.75,1.04,1.75.31,0,.66-.42,1.05-1.26.12-.25.33-.38.63-.38.2,0,.36.07.5.2s.2.3.2.5c0,.12-.02.23-.07.32ZM120.93,147.87c.03.22-.03.42-.18.6-.15.18-.34.27-.57.27-.2,0-.37-.07-.52-.2-.15-.13-.23-.29-.25-.48-.23-2.12-.92-4-2.06-5.66-.08-.12-.13-.26-.13-.41,0-.21.07-.38.21-.52.14-.14.31-.21.52-.21.25,0,.45.1.6.31,1.29,1.79,2.08,3.89,2.38,6.29Z"/>
      <path class="cls-1" d="M131.44,144.65c0,1.47-.25,3.12-.74,4.93-.14.52-.3.9-.48,1.13-.26.34-.62.5-1.06.5-.49,0-1.13-.13-1.93-.41-.32-.1-.48-.31-.48-.63,0-.19.07-.35.2-.48s.29-.2.47-.2c.08,0,.17.02.29.06.4.14.71.21.91.21.22,0,.38-.07.48-.2.07-.1.16-.31.25-.63.44-1.57.66-2.93.66-4.09,0-.45-.09-.75-.27-.9-.18-.15-.51-.22-1.01-.22-.44,0-.74.05-.9.14-.2.11-.34.31-.42.6-.61,2.03-1.44,4.08-2.49,6.15-.14.27-.36.41-.66.41-.21,0-.38-.07-.52-.22-.14-.14-.21-.32-.21-.53,0-.16.03-.28.08-.38.95-1.65,1.73-3.39,2.32-5.22.03-.09.04-.18.04-.25,0-.34-.2-.48-.6-.42-.29.04-.74.1-1.36.2-.2.03-.38-.03-.54-.16-.16-.14-.25-.31-.25-.51,0-.39.2-.62.61-.67s1.06-.14,1.95-.25c.45-.05.75-.33.91-.84.03-.07.11-.53.24-1.37.07-.4.3-.6.7-.6.22,0,.4.08.54.24.13.16.18.36.15.58,0,.05-.05.25-.13.62-.06.27-.1.47-.1.6,0,.39.22.57.66.55h.21c.72-.06,1.29.07,1.72.36.49.34.73.97.73,1.89ZM135.67,145.7c0,.21-.07.38-.22.53s-.32.22-.53.22c-.34,0-.57-.16-.7-.49-.49-1.26-1.11-2.41-1.86-3.44-.08-.11-.13-.24-.13-.39,0-.2.07-.36.2-.5.13-.14.3-.21.5-.21.23,0,.42.1.57.29.85,1.11,1.55,2.35,2.11,3.71.03.07.04.16.04.28Z"/>
      <path class="cls-1" d="M141.09,147.29c-.36.89-.68,1.77-.94,2.66-.13.45-.39.67-.78.67s-.66-.26-.78-.77c-.25-1.09-.38-2.35-.38-3.77,0-1.71.16-3.44.48-5.21.08-.39.3-.59.69-.59.21,0,.39.08.54.25.14.17.2.36.16.57-.36,2.27-.55,3.97-.55,5.11v.81c0,.3.08.45.22.45.14,0,.26-.12.35-.36l.08-.21c.08-.21.23-.31.45-.31.14,0,.26.05.36.15s.15.22.15.36c0,.06-.01.12-.04.18ZM149.04,143.18c0,.37-.18.6-.55.69-.22.04-.57.1-1.04.2-.42.08-.63.33-.63.74v1.05c0,1.24-.21,2.29-.62,3.14-.45.92-1.18,1.69-2.18,2.32-.1.07-.22.1-.36.1-.2,0-.36-.07-.5-.21-.14-.14-.21-.31-.21-.5,0-.26.11-.46.34-.6.79-.5,1.36-1.11,1.71-1.83.31-.66.46-1.49.46-2.49v-.73c0-.48-.25-.7-.74-.67-.87.06-1.48.08-1.83.07h-.57c-.18-.01-.33-.08-.46-.21s-.2-.29-.2-.46c0-.19.07-.35.21-.48.14-.13.3-.2.49-.19h.52c.56.03,1.18,0,1.86-.06.47-.05.69-.3.66-.76l-.08-1.51c0-.2.05-.37.19-.52.13-.15.31-.22.51-.22.19,0,.35.06.48.19.14.13.21.28.22.47,0,.29.03.74.06,1.36.03.45.21.67.56.67.06,0,.12,0,.18-.03l.71-.17c.08-.02.14-.03.17-.03.18,0,.33.07.46.2.13.14.2.3.2.48ZM148.9,141.5c0,.14-.05.26-.15.36s-.22.15-.37.15c-.2,0-.43-.17-.7-.52-.2-.26-.39-.52-.59-.78-.1-.1-.15-.22-.15-.35,0-.35.18-.53.53-.53.14,0,.27.07.39.2.38.43.69.82.94,1.18.07.09.1.19.1.29ZM150.22,140.45c0,.14-.05.26-.16.36s-.23.15-.37.15c-.21,0-.36-.08-.46-.24-.3-.44-.57-.8-.83-1.08-.09-.1-.14-.21-.14-.34,0-.35.18-.53.53-.53.12,0,.25.07.38.2.34.34.65.73.95,1.18.06.13.1.23.1.29Z"/>
      <path class="cls-1" d="M163.34,147.64c-.33.96-.77,1.78-1.34,2.45-.65.76-1.4,1.15-2.23,1.15-.7,0-1.22-.18-1.55-.55-.29-.33-.49-.84-.59-1.55-.14-.95-.22-1.47-.24-1.57-.12-.55-.33-.83-.62-.83-.42,0-1.01.42-1.78,1.27-.83.92-1.36,1.68-1.6,2.27l-.18.46c-.1.25-.32.38-.66.38-.21,0-.38-.07-.51-.21-.13-.14-.2-.31-.2-.5,0-.08.01-.16.04-.24.86-2.43,2.16-5.73,3.91-9.9.12-.3.34-.45.66-.45.21,0,.38.07.52.22.14.15.21.32.21.51,0,.1-.02.2-.06.29-.37.84-1.01,2.3-1.92,4.38-.08.21-.13.37-.13.5,0,.18.07.27.2.27s.29-.07.49-.22c.43-.33.84-.49,1.25-.49.67,0,1.14.26,1.4.78.19.36.35,1.04.5,2.03.09.63.17,1.03.24,1.18.11.31.31.46.6.46.87,0,1.61-.89,2.23-2.67.11-.33.34-.49.69-.49.21,0,.38.07.52.22.14.15.21.33.21.54,0,.1-.02.21-.06.31Z"/>
      <path class="cls-1" d="M176.59,150.09c0,.82-.41,1.23-1.22,1.23h-7.36c-.81,0-1.22-.41-1.22-1.23v-7.74c0-.82.41-1.23,1.22-1.23h1.69c.48,0,.8-.21.98-.63.09-.26.19-.52.29-.78.14-.29.35-.43.63-.43.2,0,.36.07.49.2.13.13.2.3.2.48,0,.1-.04.24-.1.41-.07.17-.11.29-.11.38,0,.25.16.38.49.38h2.8c.81,0,1.22.41,1.22,1.23v7.74ZM175.28,143.62v-.67c0-.42-.21-.63-.63-.63h-5.89c-.42,0-.63.21-.63.63v.67c0,.37.19.56.56.56h6.03c.37,0,.56-.19.56-.56ZM175.28,146.49v-.62c0-.37-.19-.56-.56-.56h-6.03c-.37,0-.56.19-.56.56v.62c0,.37.19.56.56.56h6.03c.37,0,.56-.19.56-.56ZM175.28,149.49v-.74c0-.37-.19-.56-.56-.56h-6.03c-.37,0-.56.19-.56.56v.74c0,.42.21.63.63.63h5.89c.42,0,.63-.21.63-.63Z"/>
      <path class="cls-1" d="M35.55,165.09c0,1.3-.2,2.17-.59,2.62-.43.5-1.27.74-2.52.74h-.95c-.17,0-.31-.06-.43-.18-.12-.12-.18-.27-.18-.43s.06-.31.18-.44c.12-.13.27-.19.43-.19h.74c.92,0,1.49-.15,1.69-.45.16-.22.24-.84.24-1.86v-2.41c0-.49-.24-.73-.73-.73h-1.44c-.38,0-.6.2-.66.6-.18,1.35-.54,2.48-1.09,3.37-.67,1.08-1.69,1.96-3.07,2.65-.09.05-.2.07-.32.07-.18,0-.33-.06-.46-.19-.13-.13-.2-.28-.2-.47,0-.29.12-.49.36-.62,2.03-1.02,3.16-2.6,3.42-4.76.05-.44-.15-.66-.6-.66h-1.22c-.17,0-.31-.06-.42-.18-.11-.12-.17-.25-.17-.41v-.03c-.32.34-.64.66-.98.97-.14.13-.29.2-.45.2-.19,0-.34-.07-.47-.2s-.19-.29-.19-.46c0-.21.07-.37.22-.5,1.33-1.15,2.44-2.54,3.3-4.19.11-.21.29-.32.55-.32.19,0,.34.06.46.18.12.12.17.27.17.45,0,.1-.03.21-.08.31-.63,1.16-1.31,2.17-2.04,3.02h.1s5.96-.01,5.96-.01c.95,0,1.43.48,1.43,1.43v3.08ZM37.75,161.6c0,.19-.06.35-.19.48-.13.13-.28.2-.47.2-.16,0-.3-.06-.43-.17-1.52-1.34-2.77-2.86-3.74-4.55-.07-.11-.1-.22-.1-.32,0-.18.06-.33.19-.45.13-.12.28-.18.45-.18.24,0,.42.11.55.32.93,1.63,2.1,3.02,3.5,4.17.16.13.24.3.24.5Z"/>
      <path class="cls-1" d="M51.18,158.31c0,.37-.25.6-.76.67-1.41.21-2.66.8-3.75,1.74-1.09.95-1.64,1.94-1.64,2.99,0,1.51,1.21,2.48,3.63,2.9.4.07.6.3.6.71,0,.22-.09.41-.26.57s-.37.21-.59.16c-1.45-.28-2.55-.71-3.3-1.29-1-.77-1.5-1.75-1.5-2.94,0-1.01.34-1.92,1.02-2.74.3-.35.59-.65.88-.9.29-.24.43-.45.43-.62,0-.22-.24-.32-.71-.28-1.91.17-3.47.33-4.66.49-.21.03-.38-.03-.53-.17-.15-.14-.22-.31-.22-.52,0-.18.06-.33.17-.47.12-.13.26-.21.44-.22,1.72-.17,5.02-.42,9.9-.76.25,0,.46.05.62.17s.24.29.24.48ZM50.42,162.44c0,.15-.05.28-.16.38-.11.11-.24.16-.39.16-.22,0-.39-.08-.49-.25-.27-.43-.56-.8-.87-1.11-.1-.1-.15-.23-.15-.38,0-.37.18-.56.55-.56.16,0,.3.07.42.21.39.44.72.85.98,1.23.07.11.11.21.11.31ZM52.13,161.65c0,.15-.05.28-.16.38-.11.11-.24.16-.39.16-.21,0-.38-.08-.49-.25-.31-.46-.6-.83-.87-1.13-.1-.11-.15-.23-.15-.35,0-.37.19-.56.56-.56.14,0,.27.07.41.2.33.33.66.74.99,1.25.06.13.1.23.1.31Z"/>
      <path class="cls-1" d="M62.13,161.73c0,1.51-.25,3.15-.74,4.93-.15.53-.31.91-.49,1.13-.25.34-.6.5-1.05.5-.51,0-1.16-.13-1.93-.41-.32-.11-.48-.32-.48-.63,0-.19.07-.35.2-.48s.29-.2.47-.2c.07,0,.14,0,.2.03.49.16.82.24,1.01.24.22,0,.38-.07.48-.2.07-.09.16-.3.25-.63.44-1.5.66-2.87.66-4.09,0-.45-.09-.75-.27-.9-.18-.15-.51-.22-1.01-.22h-.2c-.08,0-.15.01-.21.01-.47,0-.77.24-.91.73-.63,2.12-1.46,4.17-2.49,6.15-.14.27-.36.41-.66.41-.21,0-.38-.07-.52-.22-.14-.14-.21-.32-.21-.53,0-.15.03-.28.08-.38.88-1.54,1.65-3.28,2.32-5.22.03-.09.04-.18.04-.25,0-.34-.2-.48-.6-.42-.29.05-.74.11-1.36.2-.2.03-.38-.03-.54-.16-.16-.14-.25-.31-.25-.51,0-.39.21-.62.62-.68s1.06-.14,1.95-.25c.45-.04.75-.32.91-.84.08-.46.16-.92.24-1.37.07-.4.3-.6.7-.6.22,0,.4.08.54.24.14.16.18.36.15.58,0,.05-.05.25-.13.62-.07.25-.1.45-.1.6,0,.39.22.57.66.55h.21c.71-.06,1.28.07,1.72.36.48.34.73.97.73,1.89ZM64,158.66c0,.15-.05.28-.16.38-.11.11-.24.16-.39.16-.22,0-.39-.08-.49-.25-.27-.43-.56-.8-.87-1.11-.1-.1-.15-.23-.15-.38,0-.37.18-.56.55-.56.16,0,.3.07.42.21.39.44.72.85.98,1.23.07.11.11.21.11.31ZM64.9,163.56c-.39-1.02-.92-2.01-1.58-2.98-.08-.11-.11-.24-.11-.38,0-.2.07-.36.22-.5.14-.13.31-.2.51-.2.23,0,.42.1.57.31.74,1.04,1.33,2.11,1.79,3.22.04.09.06.19.06.28,0,.2-.08.37-.24.52-.16.15-.35.22-.55.22-.31,0-.53-.16-.66-.49ZM65.71,157.87c0,.15-.05.28-.16.38-.11.11-.24.16-.39.16-.21,0-.38-.08-.49-.25-.31-.46-.6-.83-.87-1.13-.1-.11-.15-.23-.15-.35,0-.37.19-.56.56-.56.14,0,.27.07.41.2.33.33.66.74.99,1.25.06.13.1.23.1.31Z"/>
      <path class="cls-1" d="M79.92,164.64c-.33.96-.77,1.78-1.34,2.45-.65.76-1.4,1.15-2.23,1.15-.7,0-1.22-.18-1.55-.55-.29-.33-.49-.84-.59-1.55-.14-.95-.22-1.47-.24-1.57-.12-.55-.33-.83-.62-.83-.42,0-1.01.42-1.78,1.27-.83.92-1.36,1.68-1.6,2.27l-.18.46c-.1.25-.32.38-.66.38-.21,0-.38-.07-.51-.21-.14-.14-.2-.31-.2-.5,0-.08.01-.16.04-.24.86-2.43,2.16-5.73,3.91-9.9.12-.3.34-.45.66-.45.21,0,.38.07.52.22.14.15.21.32.21.51,0,.1-.02.2-.06.29-.37.84-1.01,2.3-1.92,4.38-.08.21-.13.37-.13.5,0,.18.07.27.2.27s.29-.07.49-.22c.43-.33.84-.49,1.25-.49.67,0,1.14.26,1.4.78.19.36.35,1.04.5,2.03.09.63.17,1.03.24,1.18.11.31.31.46.6.46.87,0,1.61-.89,2.23-2.67.11-.33.34-.49.69-.49.21,0,.38.07.52.22.14.15.21.33.21.54,0,.1-.02.21-.06.31Z"/>
      <path class="cls-1" d="M84.81,157.68c-.35,2.19-.53,4.27-.53,6.24,0,1.07.06,2.22.18,3.43.02.21-.04.4-.18.56-.14.16-.32.24-.53.24-.19,0-.35-.07-.5-.2-.15-.13-.22-.28-.23-.46-.1-1.34-.15-2.52-.15-3.54,0-2.3.18-4.47.53-6.5.07-.4.31-.6.7-.6.21,0,.4.08.55.25.15.17.21.36.17.57ZM84.81,157.68c-.35,2.12-.53,4.2-.53,6.24,0,1.18.06,2.32.18,3.43.03.21-.03.4-.17.56-.15.16-.32.24-.54.24-.19,0-.35-.07-.49-.2s-.22-.28-.24-.46c-.1-1.08-.15-2.26-.15-3.54,0-2.17.18-4.33.53-6.5.06-.4.3-.6.7-.6.21,0,.4.08.55.25.15.17.21.36.17.57ZM93.91,166.42c0,.2-.07.36-.2.49s-.29.2-.49.2c-.16,0-.29-.04-.41-.13-.24-.18-.51-.35-.81-.53-.11-.07-.22-.1-.32-.1-.21,0-.38.15-.49.46-.32.9-1.19,1.34-2.6,1.34-.71,0-1.31-.15-1.79-.45-.58-.35-.87-.86-.87-1.53s.24-1.18.73-1.55c.49-.37,1.15-.55,2-.55.24,0,.48.02.73.06.22.04.39,0,.51-.09.12-.1.17-.25.17-.47l-.04-2.16c0-.48-.25-.7-.73-.67-.34.02-1.15.03-2.45.03-.18,0-.33-.07-.46-.2-.13-.13-.19-.28-.19-.46,0-.19.07-.34.2-.47.14-.13.3-.18.48-.17.81.03,1.62.03,2.44,0,.45-.02.67-.26.66-.73v-1.25c-.01-.19.05-.35.18-.48.13-.14.29-.2.48-.2s.35.07.48.2c.13.13.2.29.2.48v1.05c.02.44.22.66.6.66.05,0,.1,0,.17-.01l.85-.15c.2-.04.37,0,.53.13.16.13.24.29.24.5,0,.34-.21.56-.63.69-.07.02-.42.07-1.06.15-.44.06-.65.3-.64.74l.04,2.65c0,.53.26.91.74,1.15.58.28,1.05.55,1.43.8.21.14.32.34.32.59ZM89.96,166.17c.03-.08.04-.16.04-.24,0-.31-.19-.5-.56-.57-.29-.06-.56-.08-.83-.08-.93,0-1.4.28-1.4.84,0,.24.12.44.36.59.24.15.55.22.92.22.8,0,1.29-.25,1.46-.76ZM93.44,158.06c0,.14-.05.26-.15.36-.1.1-.22.15-.37.15-.2,0-.43-.17-.7-.52-.2-.26-.39-.52-.59-.78-.1-.1-.15-.22-.15-.35,0-.36.18-.53.53-.53.14,0,.27.07.39.2.38.43.69.82.94,1.18.06.09.1.19.1.29ZM95.08,157.29c0,.14-.05.26-.16.36s-.23.15-.37.15c-.21,0-.36-.08-.46-.24-.3-.44-.57-.8-.83-1.08-.09-.1-.14-.21-.14-.34,0-.35.18-.53.53-.53.12,0,.25.07.38.2.34.34.65.73.95,1.18.07.13.1.23.1.29Z"/>
      <path class="cls-1" d="M101.28,161.88c-.49.83-.89,1.64-1.22,2.42-.14.34-.38.5-.71.5-.47,0-.74-.24-.81-.73-.08-.55-.13-1.38-.13-2.48s.16-2.42.48-3.93c.09-.46.34-.69.73-.69.2,0,.36.07.49.2.13.13.2.3.2.5,0,.06,0,.11-.01.17-.34,1.54-.51,2.7-.53,3.49,0,.31.06.46.21.46.12,0,.25-.11.39-.34l.07-.11c.09-.15.23-.22.42-.22.34,0,.5.17.5.5,0,.09-.02.18-.07.25ZM106.1,161.95c0,1.58-.29,2.87-.85,3.88-.6,1.05-1.58,1.93-2.94,2.65-.1.06-.21.08-.34.08-.2,0-.36-.08-.5-.23-.14-.15-.21-.33-.21-.52,0-.26.13-.46.39-.6,1.14-.6,1.94-1.32,2.39-2.16.43-.77.64-1.82.64-3.15,0-1.2-.13-2.62-.38-4.24-.04-.21.02-.41.17-.58s.33-.26.55-.26c.18,0,.33.06.47.18.14.12.22.27.25.45.24,1.75.36,3.25.36,4.51Z"/>
      <path class="cls-1" d="M121.79,166.59c0,.2-.07.36-.2.5-.13.14-.3.2-.5.2-.13,0-.25-.03-.36-.1-.93-.55-1.76-.97-2.49-1.25-.09-.04-.18-.06-.25-.06-.27,0-.43.19-.48.56-.08.56-.26.98-.56,1.25-.47.42-1.3.63-2.51.63-.77,0-1.4-.14-1.9-.43-.62-.36-.92-.91-.92-1.62,0-.81.39-1.41,1.16-1.78.58-.28,1.33-.42,2.24-.42.1,0,.26,0,.48.01.49.02.73-.19.73-.62v-.39c0-.47-.24-.7-.71-.69-.99.03-1.94.04-2.86.03-.17,0-.31-.06-.43-.19-.12-.13-.18-.27-.18-.44s.06-.31.19-.43c.13-.12.27-.17.44-.17.91.02,1.86.02,2.84,0,.46,0,.69-.25.69-.71v-.06c0-.48-.24-.7-.73-.69-1.13.05-2.2.06-3.21.03-.17,0-.31-.08-.43-.2-.12-.13-.18-.27-.18-.44,0-.18.07-.33.2-.45.13-.12.28-.18.46-.17,1.04.03,2.11.03,3.19,0,.46,0,.69-.23.69-.67,0-.04,0-.25-.01-.63,0-.19.06-.35.2-.48.13-.13.29-.2.48-.2s.34.07.48.2c.13.14.2.3.2.48v.48c0,.5.24.72.73.67.72-.08,1.5-.17,2.35-.29.19-.03.35.02.5.15.14.13.22.28.22.47,0,.36-.18.56-.55.6-1.01.13-1.86.23-2.56.29-.45.05-.67.29-.67.73v.04c0,.5.24.72.73.67.49-.05,1.18-.13,2.06-.27.19-.03.35.02.5.15.15.13.22.28.22.47,0,.36-.18.57-.53.62-.75.1-1.52.19-2.31.27-.45.04-.67.28-.67.73v.63c0,.51.26.85.77,1.02.95.31,1.99.76,3.12,1.36.24.13.36.34.36.62ZM116.18,166.04c.06-.47-.12-.72-.56-.76-.21-.02-.41-.03-.6-.03-1.34,0-2.02.32-2.02.97,0,.26.13.47.39.63.26.16.59.24,1.01.24.62,0,1.06-.07,1.32-.22.25-.14.41-.42.46-.83Z"/>
      <path class="cls-1" d="M136.76,159.08c0,.19-.07.35-.2.48-.13.13-.29.2-.48.2-1.47-.02-2.45-.02-2.95-.01-.46,0-.69.24-.69.71v.77c0,.34.09.87.28,1.58.08.29.11.59.11.9,0,1.23-.34,2.24-1.01,3.03s-1.71,1.4-3.12,1.84c-.07.02-.14.03-.21.03-.18,0-.33-.07-.47-.2-.14-.13-.2-.29-.2-.49,0-.33.16-.54.49-.64,1.33-.4,2.25-1.02,2.77-1.85.09-.15.14-.28.14-.38,0-.13-.07-.2-.21-.2-.08,0-.18.03-.29.08-.26.13-.55.2-.85.2-.69,0-1.25-.17-1.67-.52-.46-.38-.69-.91-.69-1.58s.26-1.25.77-1.67c.48-.38,1.07-.57,1.78-.57.06,0,.16,0,.29.01.13,0,.22.01.28.01.27,0,.41-.12.41-.35,0-.48-.24-.71-.71-.69-1.7.07-3.41.16-5.14.29-.2.02-.37-.04-.51-.17-.14-.13-.22-.3-.22-.5s.06-.34.19-.47.28-.19.46-.2l5.21-.25c.45-.02.67-.23.67-.63v-.63c0-.2.07-.37.22-.51.14-.14.32-.22.51-.22s.36.07.5.21.21.31.21.5v.53c0,.48.23.71.7.7,1.41-.02,2.4-.02,2.97-.01.19,0,.34.06.47.19s.19.28.19.47ZM130.96,163.09c.04-.13.06-.25.06-.36,0-.35-.15-.59-.45-.71-.16-.07-.35-.1-.56-.1-.32,0-.59.1-.8.31-.22.21-.33.46-.33.77,0,.64.34.97,1.02.97.56,0,.91-.29,1.06-.87Z"/>
      <path class="cls-1" d="M142.46,166.87c0,.57-.2,1.05-.6,1.45s-.89.59-1.46.59-1.05-.2-1.45-.59c-.4-.4-.59-.88-.59-1.45s.2-1.05.59-1.46c.4-.4.88-.6,1.45-.6s1.05.2,1.46.6.6.89.6,1.46ZM141.46,166.87c0-.3-.1-.55-.31-.76s-.46-.31-.76-.31-.54.1-.74.31-.31.46-.31.75.1.53.31.74c.21.2.45.3.74.3s.55-.1.76-.29.31-.44.31-.74Z"/>
      <path class="cls-1" d="M164.52,164.32c0,1.19-.42,2.15-1.26,2.86-.73.62-1.72,1.02-2.97,1.19-.2.03-.37-.03-.52-.16-.15-.13-.23-.3-.23-.5,0-.38.19-.61.56-.67,2-.34,3-1.27,3-2.77,0-1.04-.42-1.76-1.27-2.18-.11-.06-.22-.08-.32-.08-.24,0-.44.15-.59.46-.61,1.27-1.3,2.38-2.09,3.32-1.2,1.44-2.4,2.16-3.6,2.16-.62,0-1.09-.18-1.44-.53s-.51-.83-.51-1.43c0-1.06.31-2.03.94-2.9.48-.66,1.07-1.2,1.78-1.62.42-.25.64-.6.67-1.05v-.27c.03-.43-.17-.64-.59-.64-.52,0-1.12,0-1.78-.01-.18,0-.33-.07-.45-.2s-.19-.28-.19-.46.07-.33.2-.46c.13-.13.3-.19.48-.18.86.04,1.5.05,1.92.04.38,0,.6-.21.66-.6l.08-.6c.06-.41.28-.62.66-.62.2,0,.37.08.52.25.15.17.21.34.18.52l-.04.27c-.04.22,0,.4.1.52s.27.17.49.15c.96-.08,2.04-.2,3.25-.38.2-.03.37.02.53.15.15.13.23.3.23.5,0,.38-.2.6-.59.64-1.47.18-2.67.29-3.6.35-.44.03-.67.23-.7.6-.02.22.03.38.15.48.12.1.29.13.51.11.36-.05.68-.07.94-.07,1.43,0,2.56.27,3.4.81,1,.65,1.5,1.66,1.5,3.01ZM156.13,166.36c.42-.22.61-.67.56-1.33,0-.42-.02-.83-.03-1.25-.04-.65-.16-.98-.36-.98-.13,0-.28.07-.45.22-.36.32-.66.72-.88,1.2-.24.51-.36,1.03-.36,1.54,0,.55.23.83.69.83.26,0,.54-.08.84-.24ZM159.65,162.23c.05-.09.07-.18.07-.25,0-.23-.14-.34-.43-.32-.43.03-.75.1-.95.22-.29.17-.44.45-.45.84,0,.35,0,.76.01,1.2,0,.28.11.42.29.42.13,0,.25-.08.36-.24.42-.59.78-1.21,1.09-1.88Z"/>
      <path class="cls-1" d="M171.98,161.88c-.49.83-.89,1.64-1.22,2.42-.14.34-.38.5-.71.5-.47,0-.74-.24-.81-.73-.08-.55-.13-1.38-.13-2.48s.16-2.42.48-3.93c.09-.46.34-.69.73-.69.2,0,.36.07.49.2.13.13.2.3.2.5,0,.06,0,.11-.01.17-.34,1.54-.51,2.7-.53,3.49,0,.31.06.46.21.46.12,0,.25-.11.39-.34l.07-.11c.09-.15.23-.22.42-.22.34,0,.5.17.5.5,0,.09-.02.18-.07.25ZM176.8,161.95c0,1.58-.29,2.87-.85,3.88-.6,1.05-1.58,1.93-2.94,2.65-.1.06-.21.08-.34.08-.2,0-.36-.08-.5-.23-.14-.15-.21-.33-.21-.52,0-.26.13-.46.39-.6,1.14-.6,1.94-1.32,2.39-2.16.43-.77.64-1.82.64-3.15,0-1.2-.13-2.62-.38-4.24-.04-.21.02-.41.17-.58s.33-.26.55-.26c.18,0,.33.06.47.18.14.12.22.27.25.45.24,1.75.36,3.25.36,4.51Z"/>
      <path class="cls-1" d="M38.74,178.73c0,1.51-.25,3.15-.74,4.93-.15.53-.31.91-.49,1.13-.25.34-.6.5-1.05.5-.51,0-1.16-.13-1.93-.41-.32-.11-.48-.32-.48-.63,0-.19.07-.35.2-.48s.29-.2.47-.2c.07,0,.14,0,.2.03.49.16.82.24,1.01.24.22,0,.38-.07.48-.2.07-.09.16-.3.25-.63.44-1.5.66-2.87.66-4.09,0-.45-.09-.75-.27-.9-.18-.15-.51-.22-1.01-.22h-.2c-.08,0-.15.01-.21.01-.47,0-.77.24-.91.73-.63,2.12-1.46,4.17-2.49,6.15-.14.27-.36.41-.66.41-.21,0-.38-.07-.52-.22-.14-.14-.21-.32-.21-.53,0-.15.03-.28.08-.38.88-1.54,1.65-3.28,2.32-5.22.03-.09.04-.18.04-.25,0-.34-.2-.48-.6-.42-.29.05-.74.11-1.36.2-.2.03-.38-.03-.54-.16-.16-.14-.25-.31-.25-.51,0-.39.21-.62.62-.68s1.06-.14,1.95-.25c.45-.04.75-.32.91-.84.08-.46.16-.92.24-1.37.07-.4.3-.6.7-.6.22,0,.4.08.54.24.14.16.18.36.15.58,0,.05-.05.25-.13.62-.07.25-.1.45-.1.6,0,.39.22.57.66.55h.21c.71-.06,1.28.07,1.72.36.48.34.73.97.73,1.89ZM40.61,175.66c0,.15-.05.28-.16.38-.11.11-.24.16-.39.16-.22,0-.39-.08-.49-.25-.27-.43-.56-.8-.87-1.11-.1-.1-.15-.23-.15-.38,0-.37.18-.56.55-.56.16,0,.3.07.42.21.39.44.72.85.98,1.23.07.11.11.21.11.31ZM41.51,180.56c-.39-1.02-.92-2.01-1.58-2.98-.08-.11-.11-.24-.11-.38,0-.2.07-.36.22-.5.14-.13.31-.2.51-.2.23,0,.42.1.57.31.74,1.04,1.33,2.11,1.79,3.22.04.09.06.19.06.28,0,.2-.08.37-.24.52-.16.15-.35.22-.55.22-.31,0-.53-.16-.66-.49ZM42.32,174.87c0,.15-.05.28-.16.38-.11.11-.24.16-.39.16-.21,0-.38-.08-.49-.25-.31-.46-.6-.83-.87-1.13-.1-.11-.15-.23-.15-.35,0-.37.19-.56.56-.56.14,0,.27.07.41.2.33.33.66.74.99,1.25.06.13.1.23.1.31Z"/>
      <path class="cls-1" d="M55.44,183.97c0,.4-.2.63-.6.69-1.54.21-3.08.32-4.62.32-2.74,0-4.12-.83-4.12-2.48,0-1.01.7-2.05,2.11-3.14.28-.21.42-.46.42-.74,0-.13-.03-.27-.08-.42-.41-1.04-.75-2.15-1.02-3.35,0-.05-.01-.1-.01-.15,0-.21.07-.38.22-.53.14-.14.32-.22.52-.22.18,0,.33.06.47.18s.22.27.26.45c.18.93.43,1.87.77,2.81.11.31.29.46.53.46.13,0,.27-.04.41-.13.08-.05,1.12-.61,3.09-1.69.12-.06.23-.1.34-.1.2,0,.36.07.5.21s.2.31.2.5c0,.29-.13.5-.39.63-1.15.57-2.39,1.24-3.72,2.02-.85.49-1.53.96-2.03,1.39-.73.62-1.09,1.19-1.09,1.71,0,.84.88,1.26,2.63,1.26,1.45,0,2.92-.13,4.41-.38.21-.04.39.01.56.15.17.14.25.32.25.53Z"/>
      <path class="cls-1" d="M69.27,179.99c0,1.44-.61,2.66-1.82,3.65-.97.81-2.24,1.42-3.81,1.83-.08.02-.13.03-.17.03-.19,0-.35-.07-.48-.2-.14-.14-.2-.3-.2-.5,0-.35.16-.56.49-.66,1.2-.35,2.19-.81,2.95-1.4,1.03-.77,1.54-1.68,1.54-2.72,0-1.25-.63-1.88-1.89-1.88s-2.88.33-4.77.99c-.08.03-.16.04-.22.04-.19,0-.35-.07-.49-.21-.14-.14-.21-.31-.21-.5,0-.35.17-.57.5-.67,2.19-.66,3.95-.99,5.26-.99,1.05,0,1.85.27,2.42.8.6.56.9,1.35.9,2.38ZM67.65,175.09c0,.21-.07.38-.22.51-.15.13-.32.19-.52.17-1.89-.17-3.39-.4-4.48-.7-.35-.09-.52-.32-.52-.67,0-.2.07-.36.2-.5.14-.13.3-.2.5-.2.06,0,.12,0,.18.03,1.24.34,2.65.56,4.21.67.18,0,.33.08.46.22.13.14.19.29.19.47Z"/>
      <path class="cls-1" d="M83.7,183.6c0,.39-.19.62-.57.7-1.47.27-2.9.41-4.27.41s-2.34-.11-3.11-.32c-1.25-.36-1.88-1.03-1.88-2.03,0-.68.44-1.46,1.33-2.35.12-.12.28-.18.46-.18s.33.06.46.19.2.28.2.46c0,.17-.06.31-.18.43-.5.5-.76.94-.76,1.3,0,.78,1.19,1.16,3.56,1.16.93,0,2.25-.14,3.95-.43.21-.04.39.01.56.15.17.14.25.31.25.53ZM82.18,176.36c-.7.28-1.65.8-2.86,1.55-.12.08-.23.11-.32.11-.16,0-.3-.06-.41-.17-.12-.12-.17-.26-.17-.43,0-.21.09-.38.28-.49l.18-.11c.18-.1.27-.21.27-.31,0-.12-.14-.18-.41-.18-.84,0-1.99-.03-3.44-.08-.18,0-.33-.08-.46-.21-.13-.13-.19-.28-.19-.46,0-.2.07-.36.22-.5.15-.13.32-.2.51-.19,1.84.13,4,.14,6.5.04.27,0,.49.06.65.2.16.14.25.31.25.5,0,.33-.2.57-.59.73ZM83.73,179.08c0,.15-.05.28-.16.38-.11.11-.24.16-.38.16-.22,0-.39-.08-.49-.25-.27-.43-.56-.8-.87-1.11-.1-.1-.15-.23-.15-.38,0-.37.18-.56.55-.56.16,0,.3.07.42.21.39.44.72.85.98,1.23.07.11.11.21.11.31ZM85.44,178.28c0,.15-.05.28-.16.38-.11.11-.24.16-.38.16-.21,0-.38-.08-.49-.25-.31-.46-.6-.83-.87-1.13-.1-.11-.15-.23-.15-.35,0-.37.19-.56.56-.56.14,0,.28.07.41.2.33.33.66.74.99,1.25.07.13.1.23.1.31Z"/>
      <path class="cls-1" d="M97.3,175.92c0,.28-.13.48-.39.6,0,0-.55.21-1.61.62-.3.11-.45.27-.45.46,0,.11.05.23.15.36.66.9,1.35,1.7,2.06,2.41.2.2.29.42.29.66,0,.21-.08.4-.23.55-.15.15-.35.22-.58.22-.15,0-.3-.03-.46-.1-1.13-.5-2.28-.76-3.46-.76-.86,0-1.53.13-2,.39-.48.26-.71.62-.71,1.08,0,1.05,1.14,1.58,3.42,1.58.91,0,1.81-.07,2.72-.2.2-.03.37.03.52.16.15.14.23.31.23.51,0,.17-.06.31-.17.44s-.25.2-.41.22c-.91.12-1.81.18-2.72.18-3.34,0-5.01-.93-5.01-2.8,0-1.02.44-1.76,1.33-2.23.68-.36,1.58-.55,2.7-.55.51,0,1.02.06,1.51.18.16.04.29.06.39.06.2,0,.29-.07.29-.21,0-.11-.06-.24-.17-.38-.35-.43-.62-.76-.78-.99-.31-.42-.67-.63-1.09-.63-.11,0-.24.01-.38.04-1.06.18-2.33.27-3.79.27-.19,0-.35-.07-.48-.2-.13-.13-.2-.29-.2-.48s.06-.35.2-.48c.13-.13.29-.2.48-.2,1.01,0,2.03-.06,3.08-.18.33-.04.49-.18.49-.42,0-.12-.04-.25-.13-.38l-.48-.78c-.07-.11-.1-.23-.1-.35,0-.19.07-.35.2-.48.14-.13.3-.2.48-.2.28,0,.48.12.62.36.32.62.52.98.6,1.09.3.43.62.64.95.64.11,0,.24-.02.38-.06.58-.18,1.16-.4,1.74-.67.09-.05.19-.07.29-.07.19,0,.35.07.48.2.13.13.2.3.2.48ZM98.36,175.12c0,.14-.05.26-.15.36-.1.1-.22.15-.37.15-.2,0-.43-.17-.7-.52-.2-.26-.39-.52-.59-.78-.1-.1-.15-.22-.15-.35,0-.35.18-.53.53-.53.14,0,.27.07.39.2.38.43.7.82.94,1.18.06.09.1.19.1.29ZM100,174.35c0,.14-.05.26-.16.36-.11.1-.23.15-.37.15-.21,0-.36-.08-.46-.24-.3-.44-.57-.8-.83-1.08-.09-.1-.14-.21-.14-.34,0-.35.18-.53.53-.53.12,0,.25.07.38.2.34.34.65.73.95,1.18.06.13.1.23.1.29Z"/>
      <path class="cls-1" d="M107.04,182.3c-.82,1.61-1.61,2.42-2.37,2.42-.93,0-1.66-.83-2.17-2.49-.4-1.29-.6-2.75-.6-4.38,0-.84.03-1.56.08-2.17.02-.2.1-.36.23-.49s.3-.2.5-.2c.21,0,.39.08.54.25.14.16.21.35.19.57-.07.62-.1,1.35-.1,2.17,0,1.07.12,2.14.35,3.19.26,1.17.61,1.75,1.04,1.75.31,0,.66-.42,1.05-1.26.12-.25.33-.38.63-.38.2,0,.36.07.5.2.14.14.2.3.2.5,0,.12-.02.23-.07.32ZM113.1,181.87c.03.22-.03.42-.18.6-.15.18-.34.27-.57.27-.2,0-.37-.07-.52-.2-.15-.13-.23-.29-.25-.48-.23-2.12-.92-4-2.06-5.66-.08-.12-.12-.26-.12-.41,0-.21.07-.38.21-.52s.31-.21.52-.21c.25,0,.45.1.6.31,1.29,1.79,2.08,3.89,2.38,6.29Z"/>
      <path class="cls-1" d="M126.68,183.59c0,.2-.07.36-.2.5-.13.14-.3.2-.5.2-.13,0-.25-.03-.36-.1-.93-.55-1.76-.97-2.49-1.25-.09-.04-.18-.06-.25-.06-.27,0-.43.19-.48.56-.08.56-.26.98-.56,1.25-.47.42-1.3.63-2.51.63-.77,0-1.4-.14-1.9-.43-.62-.36-.92-.91-.92-1.62,0-.81.39-1.41,1.16-1.78.58-.28,1.33-.42,2.24-.42.1,0,.26,0,.48.01.49.02.73-.19.73-.62v-.39c0-.47-.24-.7-.71-.69-.99.03-1.94.04-2.86.03-.17,0-.31-.06-.43-.19-.12-.13-.18-.27-.18-.44s.06-.31.19-.43c.13-.12.27-.17.44-.17.91.02,1.86.02,2.84,0,.46,0,.69-.25.69-.71v-.06c0-.48-.24-.7-.73-.69-1.13.05-2.2.06-3.21.03-.17,0-.31-.08-.43-.2-.12-.13-.18-.27-.18-.44,0-.18.07-.33.2-.45.13-.12.28-.18.46-.17,1.04.03,2.11.03,3.19,0,.46,0,.69-.23.69-.67,0-.04,0-.25-.01-.63,0-.19.06-.35.2-.48.13-.13.29-.2.48-.2s.34.07.48.2c.13.14.2.3.2.48v.48c0,.5.24.72.73.67.72-.08,1.5-.17,2.35-.29.19-.03.35.02.5.15.14.13.22.28.22.47,0,.36-.18.56-.55.6-1.01.13-1.86.23-2.56.29-.45.05-.67.29-.67.73v.04c0,.5.24.72.73.67.49-.05,1.18-.13,2.06-.27.19-.03.35.02.5.15.15.13.22.28.22.47,0,.36-.18.57-.53.62-.75.1-1.52.19-2.31.27-.45.04-.67.28-.67.73v.63c0,.51.26.85.77,1.02.95.31,1.99.76,3.12,1.36.24.13.36.34.36.62ZM121.07,183.04c.06-.47-.12-.72-.56-.76-.21-.02-.41-.03-.6-.03-1.34,0-2.02.32-2.02.97,0,.26.13.47.39.63.26.16.59.24,1.01.24.62,0,1.06-.07,1.32-.22.25-.14.41-.42.46-.83Z"/>
      <path class="cls-1" d="M140.76,181.5c0,.13-.04.26-.11.38-.63,1.04-1.4,1.86-2.28,2.48-1,.68-2.06,1.02-3.18,1.02-2.46,0-3.68-1.11-3.68-3.33,0-.9.02-2.09.06-3.57.03-1.19.05-2.49.07-3.89,0-.2.07-.37.22-.51s.32-.22.52-.22c.21,0,.38.08.53.22.15.15.22.33.21.53l-.17,7.13c0,1.47.77,2.2,2.32,2.2.83,0,1.63-.29,2.39-.88.65-.49,1.23-1.13,1.72-1.95.14-.23.35-.35.63-.35.21,0,.38.07.52.22.15.14.22.32.22.52Z"/>
      <path class="cls-1" d="M150.93,176.8c-.68.13-1.37.24-2.07.32-.38.05-.66.14-.83.29s-.3.41-.38.77c-.52,2.21-1.17,4.33-1.95,6.37-.12.31-.35.46-.69.46-.21,0-.38-.07-.52-.22-.14-.14-.21-.31-.21-.51,0-.09.02-.19.06-.28.79-1.88,1.44-3.86,1.95-5.96.02-.07.03-.14.03-.21,0-.33-.2-.48-.59-.48-.39,0-.75,0-1.08,0-.19,0-.35-.08-.48-.22-.14-.14-.2-.3-.2-.48,0-.2.07-.36.22-.5.15-.14.32-.21.51-.2.53.02.96.02,1.29.01.52-.02.82-.28.9-.77.03-.21.08-.51.14-.92.06-.41.3-.61.71-.61.2,0,.36.07.5.21s.21.3.21.49c0,.09-.04.33-.11.7,0,.07-.01.13-.01.18,0,.37.21.53.62.46.06,0,.38-.08.98-.2.45-.08.76-.13.92-.13.2,0,.36.07.48.21s.19.31.19.5c0,.38-.19.61-.57.69ZM155.36,184.16c0,.4-.2.63-.59.69-.89.13-1.82.2-2.8.2-2.48,0-3.72-.69-3.72-2.09,0-.32.08-.68.24-1.09.11-.28.32-.42.63-.42.44,0,.66.22.66.67,0,.08-.01.18-.04.32-.03.13-.04.24-.04.31,0,.63.8.95,2.39.95.7,0,1.53-.07,2.49-.21.21-.03.39.03.55.16.16.14.24.31.24.51ZM154.96,178.95c0,.2-.07.36-.22.5-.15.14-.32.21-.52.2-1.39-.07-2.88-.04-4.47.1-.2.02-.37-.04-.51-.17-.14-.13-.22-.3-.22-.5,0-.18.06-.33.17-.46.12-.13.26-.2.43-.22,1.58-.16,3.13-.21,4.65-.17.19,0,.35.08.48.22.14.14.2.3.2.49Z"/>
      <path class="cls-1" d="M162.45,183.98c0,.28-.09.52-.28.71s-.42.29-.7.29-.52-.1-.71-.29-.29-.43-.29-.71.1-.52.29-.71.43-.29.71-.29.5.1.69.29.29.43.29.7ZM167.05,175.06c0,.15-.04.3-.13.45l-3.61,6.37c-.13.22-.32.34-.56.34-.18,0-.33-.07-.46-.2-.13-.13-.2-.29-.2-.46,0-.08.02-.17.07-.27l3.15-6.61c.17-.35.44-.53.81-.53.25,0,.47.09.65.27.18.18.27.39.27.64Z"/>
    </g>
    <g>
      <path class="cls-1" d="M121.24,209.61c-.14-.17-.26-.25-.36-.25-.15,0-.22.16-.21.49.06,1.79-.26,3.21-.98,4.26-.78,1.13-1.97,1.69-3.56,1.69-1.13,0-2.04-.31-2.72-.92-.72-.64-1.08-1.53-1.08-2.65,0-1.5.51-3.04,1.53-4.61.13-.2.2-.35.2-.46,0-.13-.08-.2-.25-.2-.11,0-.26.03-.45.1-.64.22-1.06.34-1.25.34-.21,0-.39-.07-.52-.2-.14-.13-.2-.3-.2-.48,0-.38.19-.61.56-.67,1.26-.21,2.45-.52,3.56-.92.11-.04.22-.06.32-.06.22,0,.41.08.57.22.15.15.23.33.23.53,0,.18-.07.34-.2.49-1.81,2.03-2.72,3.96-2.72,5.81,0,.72.23,1.29.68,1.72.45.42,1.04.64,1.77.64,1.27,0,2.16-.53,2.67-1.58.37-.76.56-1.85.56-3.28,0-1.28-.19-2.57-.57-3.88-.03-.1-.04-.2-.04-.29,0-.21.06-.37.18-.5.12-.13.27-.19.45-.19.32,0,.54.19.66.57.44,1.38,1.32,2.66,2.63,3.82.2.17.29.36.29.57,0,.2-.07.37-.22.51s-.31.22-.5.22c-.23,0-.58-.28-1.04-.84Z"/>
      <path class="cls-1" d="M136.4,212.09c0,1.32-.6,2.3-1.81,2.94-.94.5-2.13.74-3.57.74-.48,0-.97-.01-1.48-.04-.17,0-.31-.08-.43-.2s-.18-.27-.18-.44c0-.19.07-.35.2-.48.14-.13.3-.19.48-.18.45.02.9.03,1.36.03.97,0,1.82-.16,2.55-.48.98-.42,1.47-1.05,1.47-1.9,0-.55-.2-.98-.6-1.3-.4-.32-.95-.48-1.65-.48-.91,0-1.83.17-2.78.5s-1.81.79-2.58,1.36c-.11.09-.23.18-.35.27s-.25.13-.39.13c-.18,0-.33-.06-.47-.18-.13-.12-.2-.28-.2-.46,0-.21.08-.37.22-.5,1.95-1.75,3.63-3.28,5.04-4.61.14-.13.21-.26.21-.38,0-.21-.17-.31-.52-.28-.83.08-1.84.15-3.02.21-.19,0-.35-.05-.5-.19-.14-.14-.22-.3-.22-.48s.06-.34.19-.48.28-.2.47-.2c1.61-.02,3.47-.13,5.6-.32.28-.03.51.03.69.18.18.14.27.33.27.57,0,.21-.12.42-.36.63-.87.77-1.81,1.6-2.81,2.51-.22.21-.34.37-.34.5s.1.2.31.2c.09,0,.21-.01.34-.04.44-.1.91-.15,1.41-.15,1.03,0,1.85.24,2.46.71.67.53,1.01,1.3,1.01,2.3Z"/>
      <path class="cls-1" d="M150.28,214.13c0,.4-.19.63-.57.7-1.53.27-2.95.41-4.27.41s-2.34-.11-3.11-.32c-1.25-.36-1.88-1.03-1.88-2.03,0-.68.44-1.46,1.33-2.35.12-.12.27-.18.46-.18.18,0,.33.06.46.19s.2.28.2.46c0,.16-.06.3-.18.43-.5.52-.76.96-.76,1.3,0,.78,1.19,1.16,3.56,1.16,1.13,0,2.45-.14,3.95-.43.21-.04.39.01.56.15.17.14.25.31.25.53ZM148.75,206.9c-.78.31-1.74.83-2.86,1.55-.11.08-.22.11-.32.11-.16,0-.3-.06-.41-.17s-.17-.26-.17-.43c0-.21.09-.38.28-.49l.18-.11c.18-.1.27-.21.27-.31,0-.12-.14-.18-.41-.18-1.03.02-2.17,0-3.44-.08-.18,0-.33-.08-.46-.21-.13-.13-.19-.28-.19-.46,0-.2.07-.36.22-.5.15-.13.32-.2.51-.19,2.23.13,4.4.14,6.5.04.27,0,.49.06.65.2.16.14.25.31.25.5,0,.33-.2.57-.59.73Z"/>
    </g>
  </g>
</svg>