<?xml version="1.0" encoding="UTF-8"?>
<svg xmlns="http://www.w3.org/2000/svg" viewBox="0 0 273.45 170.93">
  <defs>
    <style>
      .cls-1 {
        fill: #5b5b5b;
      }

      .cls-2 {
        stroke: #cecece;
        stroke-linecap: round;
        stroke-linejoin: round;
        stroke-width: 7px;
      }

      .cls-2, .cls-3, .cls-4, .cls-5, .cls-6 {
        fill: none;
      }

      .cls-3 {
        stroke: #ffdede;
      }

      .cls-3, .cls-4, .cls-5, .cls-6 {
        stroke-miterlimit: 10;
      }

      .cls-3, .cls-5 {
        stroke-width: 30px;
      }

      .cls-4 {
        stroke: #fff9e1;
      }

      .cls-4, .cls-6 {
        stroke-width: 40px;
      }

      .cls-5 {
        stroke: #f2e9ff;
      }

      .cls-6 {
        stroke: #e7ffe1;
      }
    </style>
  </defs>
  <g id="_レイヤー_1" data-name="レイヤー 1">
    <path class="cls-3" d="M81.5,168.37c0-83.25,101-83.25,101,0"/>
    <path class="cls-4" d="M60.39,168.37c0-124.7,145.08-124.48,145.08,0"/>
    <path class="cls-6" d="M38.5,167.44c0-169.06,194.99-154.83,193.87,0"/>
    <path class="cls-5" d="M18.5,165.14c1.7-195.84,235-199.65,235,.79"/>
    <path class="cls-2" d="M9.21,166.75s87.16,1.52,86.63.01c0-60.28,74.53-60.28,74.53-.01.72-.85,98.1,3.52,99.54-5.29C273.83-41.84,4.04-53.32,4.04,152.77c0,0-3.01,8.15,5.17,13.98Z"/>
  </g>
  <g id="mari">
    <g>
      <path class="cls-1" d="M80.02,107.81c0,.19-.07.35-.2.48-.13.14-.29.2-.48.2h-11.12c-.19,0-.35-.07-.48-.2-.13-.13-.2-.3-.2-.48s.06-.35.2-.48c.13-.13.29-.2.48-.2h11.12c.19,0,.35.07.48.2.13.14.2.3.2.48ZM78.85,100.2c0,.18-.07.33-.2.47-.13.13-.28.2-.46.2h-8.83c-.18,0-.33-.07-.46-.2-.13-.14-.2-.29-.2-.47s.07-.33.2-.46c.13-.13.28-.2.46-.2h8.83c.18,0,.33.07.46.2.13.13.2.29.2.46Z"/>
      <path class="cls-1" d="M93.9,109.28c0,.2-.07.36-.2.5-.14.13-.3.2-.5.2-.13,0-.26-.04-.39-.13-2.01-1.33-3.45-2.97-4.34-4.9-.21-.44-.39-.66-.56-.66-.18,0-.37.21-.57.64-.85,1.77-2.31,3.42-4.38,4.93-.13.09-.27.14-.41.14-.19,0-.35-.07-.49-.21-.14-.14-.21-.3-.21-.49,0-.24.1-.43.29-.57,3.3-2.32,4.96-5.1,4.96-8.32v-1.85c0-.21.07-.38.21-.52.14-.14.31-.21.52-.21s.38.07.52.22.22.31.22.51v1.58c0,1.62.49,3.24,1.47,4.86.94,1.55,2.12,2.77,3.54,3.67.21.13.32.33.32.6Z"/>
      <path class="cls-1" d="M106.58,108.34c0,.4-.2.63-.6.69-1.54.21-3.08.32-4.62.32-2.74,0-4.12-.83-4.12-2.48,0-1.01.7-2.05,2.11-3.14.28-.21.42-.46.42-.74,0-.13-.03-.27-.08-.42-.41-1.04-.75-2.15-1.02-3.35,0-.05-.01-.1-.01-.15,0-.21.07-.38.22-.53.14-.14.32-.22.52-.22.18,0,.33.06.47.18s.22.27.26.45c.18.93.43,1.87.77,2.81.11.31.29.46.53.46.13,0,.27-.04.41-.13.08-.05,1.12-.61,3.09-1.69.12-.06.23-.1.34-.1.2,0,.36.07.5.21s.2.31.2.5c0,.29-.13.5-.39.63-1.15.57-2.39,1.24-3.72,2.02-.85.49-1.53.96-2.03,1.39-.73.62-1.09,1.19-1.09,1.71,0,.84.88,1.26,2.63,1.26,1.45,0,2.92-.13,4.41-.38.21-.04.39.01.56.15.17.14.25.32.25.53Z"/>
      <path class="cls-1" d="M121.06,106.49c0,1.03-.38,1.85-1.14,2.46-.76.61-1.8.92-3.13.92-2.62,0-3.93-1.11-3.93-3.33,0-.19,0-.46.03-.81.02-.42-.21-.68-.7-.78-.42-.03-.84-.06-1.25-.1-.17-.02-.31-.09-.42-.22-.11-.13-.17-.28-.17-.45,0-.2.08-.36.23-.5.15-.13.33-.19.53-.16.29.05.72.11,1.29.18.46.06.71-.15.77-.63l.06-.5c.06-.47-.15-.72-.63-.77-.22-.02-.53-.06-.93-.11-.4-.06-.59-.28-.59-.66,0-.2.08-.36.23-.49.15-.13.33-.18.52-.15.19.03.51.07.97.11s.71-.16.77-.62l.15-1.19c.06-.42.29-.63.7-.63.22,0,.41.08.55.25.14.17.2.36.16.57l-.15.98c-.04.24,0,.43.11.57.11.14.28.2.52.19.78-.02,1.49-.06,2.11-.13.19-.02.35.04.5.16.14.13.22.28.22.47,0,.17-.06.32-.17.44s-.25.2-.41.22c-.86.09-1.7.14-2.53.14-.45,0-.7.21-.74.64l-.06.5c-.03.23.01.42.13.55.11.13.28.2.52.2.79,0,1.58-.06,2.37-.14.2-.02.37.04.51.16.14.13.22.29.22.48,0,.17-.06.31-.17.44-.12.13-.26.2-.43.22-.79.07-1.68.11-2.67.11-.48,0-.72.26-.74.78v.5c0,1.46.86,2.18,2.59,2.18.76,0,1.39-.17,1.9-.5.6-.39.9-.95.9-1.67,0-.53-.13-1.07-.38-1.62-.06-.12-.08-.22-.08-.29,0-.2.07-.36.21-.49.14-.13.31-.2.5-.2.31,0,.52.14.64.41.35.77.53,1.54.53,2.31Z"/>
      <path class="cls-1" d="M130.95,101.17c-.78.15-1.47.26-2.07.32-.38.05-.66.14-.83.29-.17.15-.3.41-.38.77-.56,2.45-1.21,4.58-1.95,6.37-.13.31-.36.46-.69.46-.21,0-.38-.07-.52-.22-.14-.14-.21-.31-.21-.51,0-.1.02-.2.06-.28.75-1.75,1.4-3.73,1.95-5.96.02-.07.03-.14.03-.21,0-.33-.2-.48-.59-.48-.39,0-.75,0-1.08,0-.19,0-.35-.08-.48-.22s-.2-.3-.2-.48c0-.2.07-.36.22-.5s.31-.21.51-.2c.53.02.96.02,1.29.01.53-.02.83-.28.9-.77.03-.2.07-.5.14-.91.07-.41.3-.62.71-.62.2,0,.36.07.5.21.14.14.21.3.21.49,0,.09-.04.33-.11.7,0,.07-.01.13-.01.18,0,.37.21.53.62.46.06,0,.38-.08.98-.2.45-.08.76-.13.92-.13.2,0,.36.07.48.21s.19.31.19.5c0,.38-.19.61-.57.69ZM135.38,108.53c0,.18-.06.33-.17.46-.11.13-.25.21-.42.22-1.05.13-1.98.2-2.8.2-2.48,0-3.72-.69-3.72-2.09,0-.34.08-.7.24-1.09.11-.28.32-.42.63-.42.45,0,.67.22.67.67,0,.08-.02.18-.06.32-.04.13-.06.24-.06.31,0,.63.8.95,2.41.95.62,0,1.46-.07,2.49-.21.21-.03.39.03.55.16.16.14.24.31.24.51ZM134.99,103.33c0,.2-.07.36-.22.5-.15.14-.32.21-.52.2-1.44-.1-2.93-.07-4.47.1-.2.02-.37-.04-.51-.17-.14-.13-.22-.3-.22-.5,0-.18.06-.33.17-.46s.26-.2.43-.22c1.86-.16,3.41-.21,4.65-.17.19,0,.35.08.48.22.14.14.2.3.2.49ZM134.31,100.88c0,.15-.05.28-.16.39s-.24.16-.38.16c-.22,0-.39-.08-.49-.25-.27-.43-.56-.8-.87-1.11-.1-.1-.15-.23-.15-.38,0-.37.18-.56.55-.56.16,0,.3.07.42.21.39.44.72.85.98,1.23.07.11.11.21.11.31ZM136.02,100.08c0,.15-.05.28-.16.39-.11.11-.24.16-.38.16-.21,0-.38-.08-.49-.25-.31-.46-.6-.83-.87-1.13-.1-.11-.15-.23-.15-.35,0-.37.19-.56.56-.56.14,0,.27.07.41.2.33.33.66.74.99,1.25.07.13.1.23.1.31Z"/>
      <path class="cls-1" d="M143.62,106.67c-.82,1.61-1.61,2.42-2.37,2.42-.93,0-1.66-.83-2.17-2.49-.4-1.29-.6-2.75-.6-4.38,0-.84.03-1.56.08-2.17.02-.2.1-.36.23-.49.13-.13.3-.2.5-.2.21,0,.39.08.54.25.14.16.21.35.19.57-.07.62-.1,1.35-.1,2.17,0,1.07.12,2.14.35,3.19.26,1.17.61,1.75,1.04,1.75.31,0,.66-.42,1.05-1.26.12-.25.33-.38.63-.38.2,0,.36.07.5.2.14.14.2.3.2.5,0,.12-.02.23-.07.32ZM149.69,106.24c.03.22-.03.42-.18.6-.15.18-.34.27-.57.27-.2,0-.37-.07-.52-.2-.15-.13-.23-.29-.25-.48-.23-2.12-.92-4-2.06-5.66-.08-.12-.13-.26-.13-.41,0-.21.07-.38.21-.52s.31-.21.52-.21c.25,0,.45.1.6.31,1.29,1.79,2.08,3.89,2.38,6.29Z"/>
      <path class="cls-1" d="M163.95,100.46c0,.19-.07.35-.2.48-.13.13-.29.2-.47.2-1.47-.02-2.45-.02-2.96-.01-.46,0-.69.24-.69.71v.77c0,.34.09.87.28,1.58.08.29.11.59.11.9,0,1.23-.34,2.24-1.01,3.03s-1.71,1.4-3.12,1.84c-.07.02-.13.03-.21.03-.18,0-.33-.07-.47-.2-.14-.13-.2-.29-.2-.49,0-.33.16-.54.49-.64,1.33-.4,2.25-1.02,2.77-1.85.09-.15.14-.28.14-.38,0-.13-.07-.2-.21-.2-.08,0-.18.03-.29.08-.26.13-.55.2-.85.2-.69,0-1.25-.17-1.67-.52-.46-.38-.69-.91-.69-1.58s.26-1.25.77-1.67c.48-.38,1.07-.57,1.78-.57.07,0,.16,0,.29.01.13,0,.22.01.28.01.27,0,.41-.12.41-.35,0-.48-.24-.71-.71-.69-1.7.07-3.41.16-5.14.29-.2.02-.37-.04-.51-.17-.15-.13-.22-.3-.22-.5s.06-.34.19-.47.28-.19.46-.2l5.21-.25c.45-.02.67-.23.67-.63v-.63c0-.2.07-.37.22-.51.14-.14.32-.22.51-.22s.36.07.5.21c.14.14.21.31.21.5v.53c0,.48.23.71.7.7,1.41-.02,2.4-.02,2.97-.01.19,0,.34.06.47.19.13.13.19.28.19.47ZM158.16,104.46c.04-.13.06-.25.06-.36,0-.35-.15-.59-.45-.71-.16-.07-.35-.1-.56-.1-.32,0-.58.1-.8.31-.22.21-.33.46-.33.77,0,.64.34.97,1.02.97.56,0,.91-.29,1.06-.87Z"/>
      <path class="cls-1" d="M176.96,101.87c0,.3-.14.5-.43.6-.62.21-1.18.38-1.68.5-.3.07-.45.22-.45.43,0,.12.05.25.14.38.46.63.88,1.18,1.27,1.62.13.15.2.32.2.5,0,.21-.07.4-.22.55-.15.15-.33.23-.55.23-.11,0-.22-.02-.32-.06-1.24-.5-2.41-.74-3.5-.74-1.79,0-2.69.42-2.69,1.27s1.13,1.25,3.39,1.25c.77,0,1.65-.05,2.63-.15.19-.02.35.04.5.16s.22.28.22.47c0,.38-.2.59-.59.63-.89.09-1.82.14-2.8.14-3.15,0-4.72-.82-4.72-2.46s1.26-2.45,3.78-2.45c.59,0,1.27.09,2.06.27.08.02.14.03.2.03.19,0,.28-.07.28-.2,0-.09-.05-.2-.14-.32-.05-.07-.17-.24-.38-.52-.25-.35-.56-.52-.94-.52-.11,0-.24,0-.38.03-1.3.18-2.72.26-4.27.24-.17,0-.31-.06-.43-.18-.12-.12-.17-.27-.17-.43s.06-.32.18-.44.27-.18.43-.17c1.16.04,2.39-.01,3.71-.15.35-.04.53-.18.53-.42,0-.11-.04-.22-.11-.32-.22-.38-.55-.55-.97-.5-.8.09-1.73.14-2.77.14-.16,0-.3-.06-.43-.18-.13-.12-.19-.26-.19-.42,0-.17.06-.31.19-.43.13-.12.27-.17.43-.17.77,0,1.49-.01,2.16-.07.39-.04.59-.16.59-.38,0,0-.08-.21-.25-.62-.03-.06-.04-.14-.04-.22,0-.19.06-.35.2-.48.13-.13.29-.2.49-.2.31,0,.52.15.63.45.04.11.1.29.2.52.14.35.37.53.7.53.08,0,.17-.01.27-.04.65-.17,1.31-.37,1.96-.6.08-.03.14-.04.21-.04.18,0,.33.06.46.18.13.12.19.27.19.45,0,.32-.15.52-.45.62-.69.22-1.3.4-1.82.52-.34.08-.5.23-.5.46,0,.1.04.21.11.31l.03.04c.2.3.43.45.71.45.07,0,.15,0,.24-.03.74-.18,1.43-.39,2.07-.63.05-.02.11-.03.2-.03.18,0,.33.06.46.18.13.12.19.27.19.45Z"/>
      <path class="cls-1" d="M184.48,108.35c0,.28-.09.52-.28.71s-.42.29-.7.29-.52-.1-.71-.29-.29-.43-.29-.71.1-.52.29-.71.43-.29.71-.29.5.1.69.29.29.43.29.7ZM189.07,99.43c0,.15-.04.3-.13.45l-3.61,6.37c-.13.22-.32.34-.56.34-.18,0-.33-.07-.46-.2-.13-.13-.2-.29-.2-.46,0-.08.02-.17.07-.27l3.15-6.61c.17-.35.44-.53.81-.53.25,0,.47.09.65.27.18.18.27.39.27.64Z"/>
      <path class="cls-1" d="M199.65,99.57c0,.16-.05.29-.16.4s-.24.16-.38.16h-.77c-.24,0-.36.09-.36.28,0,.06.02.13.06.21l.07.17c.04.09.06.18.06.27,0,.18-.06.33-.18.46-.12.13-.28.19-.46.19-.26,0-.45-.14-.57-.42l-.29-.67c-.14-.32-.34-.48-.6-.48s-.5.13-.69.38l-.6.8c-.12.16-.28.24-.48.24-.17,0-.31-.06-.43-.18-.12-.12-.18-.27-.18-.43,0-.15.04-.28.13-.38.66-.77,1.19-1.59,1.6-2.44.11-.23.31-.35.59-.35.17,0,.32.06.45.18.13.12.2.25.2.39l-.07.45c0,.17.1.25.31.25h2.25c.15,0,.28.05.38.15s.16.23.16.38ZM205.94,99.57c0,.16-.06.29-.17.4-.11.11-.24.16-.39.16h-1.18c-.23,0-.35.08-.35.25,0,.06.03.15.08.28.06.13.08.25.08.36,0,.3-.13.5-.39.6.21.07.32.25.32.52,0,.35-.17.55-.5.6-.67.1-1.53.21-2.56.32-.36.04-.53.23-.53.59v.34c0,.37.19.56.56.56h4.37c.16,0,.29.06.41.17.11.11.17.25.17.41s-.06.29-.17.41-.25.17-.41.17h-3.77c-.34,0-.5.12-.5.35,0,.11.05.22.14.34.85,1.04,2.1,1.88,3.75,2.51.28.1.42.29.42.57,0,.18-.06.33-.19.45-.13.12-.27.18-.44.18-.08,0-.15-.01-.22-.04-1.73-.63-3.1-1.53-4.13-2.7-.19-.21-.37-.32-.55-.32s-.36.12-.55.35c-.85,1.06-2.22,1.95-4.1,2.66-.08.03-.15.04-.22.04-.17,0-.31-.06-.44-.18s-.19-.27-.19-.45c0-.3.14-.49.41-.59,1.83-.65,3.09-1.49,3.78-2.51.07-.1.1-.2.1-.29,0-.24-.17-.36-.5-.36h-3.77c-.16,0-.3-.06-.41-.17-.12-.11-.17-.25-.17-.41s.06-.29.17-.41c.12-.11.25-.17.41-.17h4.21c.37,0,.56-.19.56-.56v-.17c0-.39-.19-.57-.57-.55-.9.07-1.9.12-3.02.17-.16,0-.3-.04-.42-.16-.12-.12-.18-.25-.18-.41,0-.15.06-.28.17-.39.11-.11.24-.17.39-.18,2.81-.1,5.35-.34,7.62-.7-.11-.07-.21-.17-.28-.32l-.31-.67c-.15-.32-.38-.48-.69-.48s-.57.13-.76.38l-.53.71c-.12.16-.29.24-.49.24-.18,0-.33-.06-.45-.19-.12-.13-.18-.27-.18-.44,0-.16.06-.3.17-.43.55-.65,1.04-1.41,1.47-2.27.12-.24.32-.36.59-.36.18,0,.34.07.48.2.11.11.17.22.17.32,0,.06-.01.14-.04.25s-.04.19-.04.25c0,.18.11.27.32.27h2.88c.15,0,.28.05.39.15.11.1.17.23.17.38Z"/>
    </g>
    <g>
      <path class="cls-1" d="M69.73,60.83c0,.22-.08.4-.23.55-.15.15-.34.23-.55.23h-4.54c-.22,0-.4-.08-.55-.23s-.23-.34-.23-.55.08-.4.23-.55c.15-.15.34-.23.55-.23h.49c.57,0,.85-.28.85-.85v-8.09c0-.57-.28-.85-.85-.85h-.37c-.22,0-.4-.08-.55-.24-.15-.16-.23-.35-.23-.56s.08-.4.23-.55.34-.23.55-.23h4.37c.21,0,.4.08.55.23.15.15.23.34.23.55s-.08.4-.23.56-.34.24-.55.24h-.44c-.57,0-.85.28-.85.85v8.09c0,.57.28.85.85.85h.49c.22,0,.4.08.55.23s.23.34.23.55Z"/>
      <path class="cls-1" d="M83.46,61.78c0,.23-.08.42-.25.58-.16.16-.36.24-.59.24s-.42-.08-.58-.24l-.85-.85c-.18-.18-.39-.27-.61-.27-.14,0-.29.03-.46.1-.65.28-1.39.42-2.24.42-1.71,0-3.06-.59-4.04-1.78-.98-1.18-1.47-2.8-1.47-4.85s.49-3.66,1.47-4.84c.98-1.17,2.33-1.76,4.04-1.76s3.06.59,4.05,1.76c.99,1.17,1.48,2.79,1.48,4.84,0,1.71-.35,3.13-1.05,4.27-.11.19-.17.36-.17.51,0,.19.09.38.27.56l.75.71c.17.16.25.36.25.6ZM81.53,55.13c0-1.38-.25-2.51-.76-3.38-.64-1.06-1.59-1.6-2.87-1.6s-2.24.53-2.87,1.6c-.51.87-.77,2-.77,3.38s.25,2.52.77,3.4c.63,1.08,1.59,1.61,2.87,1.61.8,0,1.21-.18,1.21-.53,0-.16-.08-.32-.24-.48l-.49-.49c-.16-.16-.24-.35-.24-.56s.08-.4.24-.54c.16-.15.35-.22.56-.22.2,0,.38.07.53.22l.56.54c.21.2.41.31.59.31.17,0,.29-.08.37-.25.36-.8.54-1.81.54-3.01Z"/>
      <path class="cls-1" d="M95.99,60.79c0,.23-.08.42-.23.58-.15.16-.34.24-.57.24h-6.7c-.44,0-.8-.1-1.06-.31-.27-.2-.4-.48-.4-.83,0-.23.06-.47.19-.73.41-.87,1.01-1.7,1.8-2.48.35-.35,1.06-.94,2.12-1.75.84-.65,1.41-1.16,1.72-1.53.46-.57.7-1.2.7-1.89,0-.54-.19-.98-.56-1.3-.37-.32-.88-.48-1.53-.48-1.12,0-2.05.46-2.79,1.39-.18.23-.41.34-.68.34-.25,0-.46-.08-.63-.25s-.25-.38-.25-.63c0-.23.06-.41.19-.56,1.06-1.28,2.48-1.92,4.23-1.92,1.2,0,2.15.31,2.85.92.7.61,1.05,1.43,1.05,2.45s-.41,2.05-1.22,2.96c-.36.41-1.24,1.15-2.62,2.21-1.13.87-1.84,1.53-2.12,1.97-.1.17-.15.31-.15.42,0,.25.18.37.53.37h5.35c.23,0,.42.08.57.24.15.16.23.35.23.58Z"/>
      <path class="cls-1" d="M108.25,55.18c0,4.35-1.56,6.53-4.68,6.53s-4.71-2.18-4.71-6.53,1.57-6.51,4.71-6.51,4.68,2.17,4.68,6.51ZM106.43,55.18c0-3.25-.95-4.88-2.86-4.88s-2.86,1.63-2.86,4.88.95,4.88,2.86,4.88,2.86-1.63,2.86-4.88Z"/>
      <path class="cls-1" d="M118.94,49.44c-.45,2.6-.68,5.05-.68,7.36,0,1.62.06,2.98.19,4.06.03.26-.04.49-.22.7-.18.2-.4.31-.66.31-.24,0-.44-.08-.61-.24-.17-.16-.27-.35-.29-.58-.11-1.09-.17-2.47-.17-4.15,0-2.52.24-5.11.71-7.77.09-.49.38-.73.87-.73.27,0,.5.1.67.31.18.21.24.45.2.72ZM129.26,59.81c0,.2-.07.39-.22.55-.15.16-.32.26-.53.28-1.47.19-2.7.29-3.69.29-3,0-4.5-.91-4.5-2.72,0-.51.14-1.03.42-1.56.16-.31.4-.46.71-.46.56,0,.83.27.83.8,0,.11-.03.28-.1.5-.07.22-.1.4-.1.54,0,.46.28.79.83.97.48.17,1.23.25,2.26.25.84,0,1.87-.1,3.09-.29.26-.04.49.02.69.2.2.18.3.39.3.65ZM128.67,50.81c0,.22-.07.4-.21.56-.14.16-.32.26-.54.29-1.28.18-2.64.27-4.06.27-.64,0-1.33-.02-2.07-.07-.22-.01-.4-.1-.56-.26-.16-.16-.24-.36-.24-.59,0-.25.09-.46.28-.62.19-.16.4-.23.64-.21.63.06,1.31.08,2.02.08,1.28,0,2.53-.1,3.76-.29.26-.04.49.02.69.19.2.17.3.39.3.65Z"/>
      <path class="cls-1" d="M140.35,51.78c-.58.12-1.14.23-1.68.31-.63.1-1.06.45-1.28,1.05-.79,2.28-1.69,4.44-2.7,6.49-.16.33-.42.49-.78.49-.24,0-.44-.08-.61-.26s-.25-.37-.25-.61c0-.14.03-.27.1-.41.95-1.84,1.77-3.69,2.46-5.58.05-.12.07-.23.07-.32,0-.35-.24-.53-.71-.53h-.97c-.23,0-.42-.08-.58-.25-.16-.16-.24-.36-.24-.59s.08-.44.25-.6c.17-.16.37-.24.61-.23.5.02.96.03,1.39.02.69-.01,1.12-.36,1.29-1.04.09-.39.19-.77.29-1.16.17-.43.45-.65.83-.65.24,0,.44.08.61.25s.25.37.25.59c0,.09-.06.33-.17.73-.03.14-.05.26-.05.36,0,.34.15.51.46.51.06,0,.12,0,.19-.02l.88-.19c.1-.02.17-.03.2-.03.23,0,.41.08.55.25.14.16.21.37.21.6,0,.43-.22.69-.65.78ZM146.79,60.2c0,.23-.08.42-.25.59-.17.17-.37.26-.6.26-.15,0-.3-.05-.46-.15-.37-.25-.77-.49-1.19-.71-.14-.08-.26-.12-.37-.12-.27,0-.46.2-.58.6-.33,1.14-1.34,1.72-3.03,1.72-.89,0-1.64-.19-2.24-.58-.71-.44-1.07-1.09-1.07-1.94s.33-1.48,1-1.92c.58-.38,1.31-.58,2.19-.58.25,0,.53.02.85.07.26.03.46,0,.6-.12s.21-.31.21-.58l-.02-2.48c0-.23.08-.42.24-.59.16-.16.35-.25.58-.25s.42.08.58.24c.16.16.24.35.24.58l.02,2.86c0,.62.31,1.08.93,1.36.54.25,1.19.59,1.94,1.04.28.17.42.41.42.71ZM141.84,59.72c0-.48-.27-.76-.82-.85-.33-.06-.62-.08-.87-.08-1.03,0-1.55.36-1.55,1.09,0,.33.14.59.42.77s.64.28,1.08.28c.79,0,1.31-.19,1.55-.58.12-.2.19-.41.19-.63ZM146.94,52.62c0,.23-.08.42-.25.59-.16.16-.36.25-.59.25-.16,0-.31-.05-.46-.15-.86-.58-1.77-1.07-2.74-1.48-.32-.14-.48-.39-.48-.75,0-.23.08-.42.25-.58s.35-.24.57-.24c.12,0,.23.02.31.07,1.06.45,2.06.98,2.99,1.58.26.17.39.41.39.71Z"/>
      <path class="cls-1" d="M163.16,55.83c0,1.62-.75,2.89-2.26,3.81-1.12.68-2.61,1.15-4.47,1.39-.24.03-.45-.03-.63-.2-.18-.16-.27-.37-.27-.6,0-.19.07-.37.2-.52.14-.15.3-.24.49-.26,3.49-.46,5.24-1.67,5.24-3.62,0-1.37-.91-2.06-2.72-2.06-1.45,0-3.77.43-6.95,1.28-.08.02-.15.03-.22.03-.22,0-.41-.08-.58-.25-.17-.16-.25-.36-.25-.59,0-.43.21-.7.65-.8,1.11-.27,2.17-.5,3.16-.7,1.81-.35,3.23-.53,4.25-.53,1.27,0,2.27.24,2.99.73.92.61,1.38,1.57,1.38,2.87Z"/>
      <path class="cls-1" d="M175.64,51.83c-.83.16-1.67.29-2.52.39-.46.06-.8.18-1.01.36-.21.18-.37.49-.47.94-.63,2.69-1.42,5.26-2.36,7.73-.15.37-.42.56-.83.56-.25,0-.46-.09-.63-.26-.17-.18-.25-.38-.25-.62,0-.11.02-.23.07-.34.96-2.28,1.75-4.69,2.36-7.24.02-.09.03-.18.03-.25,0-.4-.24-.59-.71-.58-.48.01-.91.01-1.31,0-.23-.01-.42-.1-.59-.26-.17-.16-.25-.36-.25-.59s.09-.44.26-.61.38-.25.62-.24c.65.02,1.17.03,1.56.02.63-.02,1-.33,1.09-.94.03-.25.09-.62.17-1.11s.37-.74.87-.74c.24,0,.44.09.61.26s.25.37.25.59c0,.11-.05.4-.14.85-.01.08-.02.15-.02.22,0,.45.25.64.75.56.07-.01.46-.09,1.19-.24.54-.1.92-.15,1.12-.15.24,0,.43.08.59.25s.23.37.23.61c0,.46-.23.74-.7.83ZM181.01,60.78c0,.49-.24.76-.71.83-1.08.16-2.21.24-3.4.24-3.02,0-4.52-.84-4.52-2.53,0-.38.1-.83.29-1.33.14-.34.39-.51.76-.51.53,0,.8.27.8.82,0,.09-.02.22-.05.38-.03.16-.05.29-.05.38,0,.77.97,1.16,2.91,1.16.85,0,1.86-.08,3.03-.26.25-.03.47.03.66.2.19.16.29.37.29.62ZM180.54,54.45c0,.24-.09.44-.27.61-.18.17-.39.25-.63.24-1.69-.09-3.5-.05-5.42.12-.24.02-.45-.05-.62-.21-.18-.16-.26-.37-.26-.6,0-.21.07-.4.21-.55s.32-.24.52-.26c1.92-.19,3.8-.26,5.64-.2.23.01.42.1.59.27.17.17.25.37.25.59Z"/>
      <path class="cls-1" d="M197.71,57.6c0,1.65-.82,2.87-2.45,3.65-1.34.65-2.99.95-4.96.92l-1.17-.02c-.22,0-.4-.08-.56-.25-.16-.16-.24-.35-.24-.57,0-.23.08-.42.25-.59.17-.16.37-.24.61-.23.62.02,1.01.03,1.17.03,1.33,0,2.48-.19,3.47-.56,1.38-.51,2.07-1.31,2.07-2.41,0-.74-.28-1.29-.85-1.67-.46-.31-1.09-.46-1.87-.46-.94,0-1.92.21-2.93.64-1.01.42-1.87.97-2.56,1.64-.37.36-.74.54-1.11.54-.28,0-.51-.11-.67-.34-.16-.23-.24-.53-.21-.9l.34-5.25c.03-.52.31-.78.83-.78.25,0,.46.09.63.27.17.18.24.39.22.63l-.22,2.86c-.03.49.11.73.44.73.16,0,.34-.06.54-.19,1.53-.96,3.15-1.44,4.86-1.44,1.29,0,2.32.29,3.08.88.85.65,1.28,1.6,1.28,2.86ZM193.73,50.54c0,.24-.08.44-.25.61s-.37.25-.62.25c-.15,0-.26-.02-.34-.07-1.31-.61-2.84-1.13-4.57-1.56-.43-.1-.65-.37-.65-.8,0-.23.08-.42.25-.58.16-.16.35-.24.57-.24.09,0,.15,0,.19.02,1.69.39,3.32.9,4.88,1.55.36.15.54.42.54.82Z"/>
      <path class="cls-1" d="M47.37,82.08c0,.24-.08.44-.25.6-.16.16-.37.25-.6.25-.16,0-.31-.04-.44-.12-1.13-.67-2.14-1.17-3.03-1.51-.11-.04-.22-.07-.31-.07-.33,0-.52.23-.58.68-.09.68-.32,1.18-.68,1.51-.57.51-1.58.77-3.04.77-.93,0-1.7-.18-2.31-.53-.75-.44-1.12-1.1-1.12-1.97,0-.99.47-1.71,1.41-2.16.7-.34,1.61-.51,2.72-.51.12,0,.32,0,.58.02.59.02.88-.23.88-.75v-.48c0-.57-.29-.84-.87-.83-1.2.03-2.36.04-3.47.03-.2,0-.38-.08-.52-.23-.14-.15-.21-.33-.21-.54s.08-.38.23-.52c.15-.14.33-.21.54-.21,1.11.02,2.26.02,3.45,0,.56-.01.83-.3.83-.87v-.07c0-.58-.29-.86-.88-.83-1.37.06-2.67.07-3.89.03-.2-.01-.38-.09-.53-.25-.15-.15-.22-.33-.22-.54,0-.21.08-.4.24-.54s.35-.21.56-.2c1.27.03,2.56.03,3.88,0,.56-.01.83-.28.83-.82,0-.05,0-.3-.02-.77,0-.23.08-.42.24-.59s.35-.25.58-.25.42.08.58.25.24.36.24.59v.58c0,.6.29.87.88.82.87-.09,1.82-.21,2.86-.36.23-.03.43.03.6.18s.26.34.26.57c0,.43-.22.67-.66.73-1.22.16-2.26.28-3.11.36-.54.06-.82.35-.82.88v.05c0,.6.29.87.88.82.6-.06,1.43-.16,2.5-.32.23-.03.43.03.61.18.18.15.27.34.27.57,0,.44-.22.69-.65.75-.91.12-1.84.23-2.8.32-.54.05-.82.34-.82.88v.77c0,.62.31,1.04.94,1.24,1.16.37,2.42.92,3.79,1.65.29.16.44.41.44.75ZM40.55,81.42c.08-.57-.15-.87-.68-.92-.25-.02-.49-.03-.73-.03-1.63,0-2.45.39-2.45,1.17,0,.32.16.57.47.77.31.19.72.29,1.23.29.76,0,1.29-.09,1.6-.26.31-.18.49-.51.56-1.01Z"/>
      <path class="cls-1" d="M59.65,73.83c-.83.16-1.67.29-2.52.39-.46.06-.8.18-1.01.36-.21.18-.37.49-.47.94-.63,2.69-1.42,5.26-2.36,7.73-.15.37-.43.56-.83.56-.25,0-.46-.09-.63-.26-.17-.18-.25-.38-.25-.62,0-.11.02-.23.07-.34.96-2.28,1.75-4.69,2.36-7.24.02-.09.03-.18.03-.26,0-.4-.24-.59-.71-.58-.48.01-.91.01-1.31,0-.23-.01-.42-.1-.59-.26-.16-.16-.25-.36-.25-.59,0-.24.09-.44.26-.61.18-.17.38-.25.62-.24.65.02,1.17.03,1.56.02.63-.02,1-.33,1.09-.93.03-.25.09-.62.17-1.11s.37-.74.87-.74c.24,0,.44.09.61.26s.25.37.25.59c0,.11-.05.4-.14.85-.01.08-.02.15-.02.22,0,.45.25.64.75.56.07-.01.46-.09,1.19-.24.54-.1.92-.15,1.12-.15.24,0,.43.08.59.26.15.17.23.37.23.61,0,.46-.23.74-.7.83ZM65.02,82.78c0,.49-.24.76-.71.83-1.08.16-2.21.24-3.4.24-3.01,0-4.52-.84-4.52-2.53,0-.39.1-.83.29-1.33.14-.34.39-.51.77-.51.53,0,.8.27.8.82,0,.09-.02.22-.05.38-.03.16-.05.29-.05.38,0,.77.97,1.16,2.91,1.16.85,0,1.86-.08,3.03-.25.25-.03.47.03.66.2.19.17.29.37.29.62ZM64.54,76.45c0,.24-.09.44-.27.61-.18.17-.39.25-.63.24-1.69-.09-3.5-.05-5.42.12-.24.02-.44-.05-.62-.21s-.26-.37-.26-.6c0-.22.07-.4.21-.55.14-.15.31-.24.52-.26,1.92-.19,3.8-.26,5.64-.2.23.01.42.1.59.27.16.17.25.37.25.59Z"/>
      <path class="cls-1" d="M82.1,79.66c0,1.35-.52,2.39-1.55,3.11-.88.62-2.06.97-3.52,1.05-.23.01-.42-.06-.59-.21-.17-.15-.25-.34-.25-.57,0-.2.07-.38.2-.54.14-.15.31-.24.51-.26,2.31-.23,3.47-1.09,3.47-2.58,0-.65-.27-1.16-.82-1.56-.54-.39-1.25-.59-2.11-.59s-1.63.07-2.36.22c-.59.11-.88.49-.88,1.12v3.59c0,.99-.48,1.48-1.43,1.48s-1.85-.28-2.79-.83c-1.08-.65-1.62-1.38-1.63-2.19,0-.6.32-1.24.95-1.91.63-.67,1.47-1.27,2.52-1.79.52-.26.78-.66.78-1.21v-1.04c0-.51-.26-.76-.78-.75-.92.02-1.63.02-2.12,0-.2-.01-.38-.09-.53-.25-.15-.15-.22-.33-.22-.54,0-.23.08-.42.24-.57.16-.15.35-.22.58-.21.68.03,1.38.04,2.09.02.5-.01.75-.27.75-.78v-1.16c0-.22.08-.4.24-.56.16-.16.35-.24.56-.24s.4.08.56.24c.16.16.24.35.24.56v.93c0,.54.27.78.82.7.37-.06.82-.13,1.34-.22.24-.04.45,0,.65.16.19.15.29.35.29.6,0,.44-.22.7-.66.78-.5.07-1,.14-1.5.2-.62.15-.94.44-.94.87v.78c0,.45.2.68.61.68.08,0,.16,0,.24-.02.77-.15,1.52-.22,2.26-.22,1.37,0,2.48.29,3.33.87.97.66,1.46,1.6,1.46,2.82ZM72.6,81.26v-1.75c0-.45-.17-.68-.51-.68-.14,0-.28.05-.43.14-1.04.64-1.56,1.25-1.56,1.85,0,.35.27.67.8.95.5.27.87.41,1.12.41.38,0,.58-.31.58-.92ZM82.41,74.12c0,.23-.08.42-.24.59-.16.17-.35.26-.58.26s-.4-.07-.56-.22c-.63-.59-1.38-1.11-2.24-1.56-.28-.15-.42-.38-.42-.7,0-.23.08-.42.24-.58.16-.16.35-.24.56-.24.14,0,.26.03.37.08.95.49,1.81,1.07,2.58,1.73.19.17.29.38.29.63Z"/>
      <path class="cls-1" d="M100.14,75.18c0,.22-.08.4-.23.55-.15.15-.33.23-.54.23-.12,0-.24-.03-.36-.08-2.37-1.2-4.35-2.6-5.95-4.2-.23-.23-.47-.34-.73-.34s-.54.13-.8.39c-1.46,1.47-3.36,2.86-5.69,4.15-.1.06-.23.08-.37.08-.22,0-.4-.07-.54-.22-.15-.15-.22-.32-.22-.53,0-.31.14-.53.41-.68,2.2-1.18,4.05-2.54,5.56-4.1.5-.51,1.05-.76,1.67-.76.58,0,1.09.23,1.55.68,1.62,1.6,3.56,2.97,5.83,4.13.28.15.42.38.42.7ZM99.56,78.03c0,.2-.07.38-.21.53s-.31.22-.52.22h-6.1c-.63,0-1.1.29-1.39.87-.26.51-.66,1.22-1.19,2.14-.08.15-.12.28-.12.39,0,.31.2.44.61.41,1.06-.1,2.37-.25,3.91-.46.35-.04.53-.19.53-.44,0-.14-.07-.28-.2-.44l-.48-.53c-.12-.14-.19-.3-.19-.49s.07-.36.21-.51c.14-.15.31-.22.52-.22.22,0,.41.1.6.29,1,1.05,2.01,2.2,3.03,3.45.11.14.17.3.17.49,0,.21-.08.4-.23.56-.15.16-.34.24-.55.24-.33,0-.61-.19-.83-.58-.32-.42-.71-.63-1.19-.63-.1,0-.22.01-.34.03-2.79.45-5.8.82-9.04,1.1-.23.02-.42-.04-.59-.2-.16-.16-.25-.35-.25-.58,0-.2.07-.38.21-.54.14-.15.31-.24.52-.25.49-.01.83-.06,1.04-.14.31-.11.57-.35.8-.71.46-.76.92-1.58,1.36-2.46.07-.12.1-.24.1-.36,0-.29-.2-.44-.61-.44h-3.16c-.2,0-.38-.07-.52-.22-.14-.15-.21-.32-.21-.53,0-.19.07-.36.21-.51.14-.15.31-.22.52-.22h12.87c.2,0,.38.07.52.22s.21.32.21.51ZM96.4,74.89c0,.19-.07.36-.21.5s-.31.21-.5.21h-6.63c-.19,0-.36-.07-.5-.21-.14-.14-.21-.31-.21-.5s.07-.36.21-.5c.14-.14.31-.21.5-.21h6.63c.19,0,.36.07.5.21s.21.31.21.5Z"/>
      <path class="cls-1" d="M109.37,80.52c-1,1.96-1.96,2.94-2.87,2.94-1.13,0-2.01-1.01-2.63-3.03-.49-1.56-.73-3.34-.73-5.32,0-1.02.03-1.9.1-2.63.02-.24.12-.44.28-.6.16-.16.37-.24.6-.24.26,0,.48.1.65.3s.25.43.23.69c-.08.76-.12,1.64-.12,2.63,0,1.3.14,2.6.42,3.88.32,1.42.74,2.12,1.26,2.12.37,0,.8-.51,1.28-1.53.15-.31.4-.46.76-.46.24,0,.44.08.6.25.16.17.25.37.25.6,0,.15-.03.28-.08.39ZM116.73,79.99c.03.27-.04.52-.22.73-.18.22-.41.32-.7.32-.24,0-.45-.08-.63-.24-.18-.16-.28-.35-.31-.58-.28-2.57-1.12-4.86-2.5-6.87-.1-.15-.15-.31-.15-.49,0-.25.08-.46.25-.63.17-.17.38-.25.63-.25.31,0,.55.12.73.37,1.56,2.18,2.53,4.72,2.89,7.63Z"/>
      <path class="cls-1" d="M133.14,79.55c0,.16-.05.31-.14.46-.77,1.26-1.69,2.26-2.77,3.01-1.21.83-2.5,1.24-3.86,1.24-2.98,0-4.47-1.35-4.47-4.05,0-1.1.02-2.54.07-4.33.03-1.45.06-3.03.08-4.73,0-.24.09-.45.27-.62.18-.18.39-.26.63-.26s.46.09.65.27c.18.18.27.4.25.65l-.2,8.65c0,1.78.94,2.67,2.82,2.67,1.01,0,1.98-.36,2.91-1.07.79-.59,1.49-1.38,2.09-2.36.17-.28.42-.42.76-.42.25,0,.46.09.64.26s.26.39.26.64Z"/>
      <path class="cls-1" d="M150.39,82.08c0,.24-.08.44-.25.6-.16.16-.37.25-.6.25-.16,0-.31-.04-.44-.12-1.13-.67-2.14-1.17-3.03-1.51-.11-.04-.21-.07-.31-.07-.33,0-.52.23-.58.68-.09.68-.32,1.18-.68,1.51-.57.51-1.58.77-3.04.77-.93,0-1.7-.18-2.31-.53-.75-.44-1.12-1.1-1.12-1.97,0-.99.47-1.71,1.41-2.16.7-.34,1.61-.51,2.72-.51.12,0,.32,0,.58.02.59.02.88-.23.88-.75v-.48c0-.57-.29-.84-.87-.83-1.2.03-2.36.04-3.47.03-.2,0-.38-.08-.52-.23-.14-.15-.21-.33-.21-.54s.08-.38.23-.52c.15-.14.33-.21.54-.21,1.11.02,2.26.02,3.45,0,.56-.01.83-.3.83-.87v-.07c0-.58-.29-.86-.88-.83-1.37.06-2.67.07-3.89.03-.2-.01-.38-.09-.53-.25-.15-.15-.22-.33-.22-.54,0-.21.08-.4.24-.54.16-.15.35-.21.56-.2,1.27.03,2.56.03,3.88,0,.55-.01.83-.28.83-.82,0-.05,0-.3-.02-.77,0-.23.08-.42.24-.59.16-.16.35-.25.58-.25s.42.08.58.25c.16.16.24.36.24.59v.58c0,.6.29.87.88.82.87-.09,1.82-.21,2.86-.36.23-.03.43.03.6.18s.26.34.26.57c0,.43-.22.67-.66.73-1.22.16-2.26.28-3.11.36-.54.06-.82.35-.82.88v.05c0,.6.29.87.88.82.6-.06,1.43-.16,2.5-.32.23-.03.43.03.61.18.18.15.27.34.27.57,0,.44-.21.69-.65.75-.91.12-1.84.23-2.81.32-.54.05-.82.34-.82.88v.77c0,.62.31,1.04.93,1.24,1.16.37,2.42.92,3.79,1.65.29.16.44.41.44.75ZM143.57,81.42c.08-.57-.15-.87-.68-.92-.25-.02-.49-.03-.73-.03-1.63,0-2.45.39-2.45,1.17,0,.32.16.57.47.77s.72.29,1.23.29c.76,0,1.29-.09,1.6-.26.31-.18.49-.51.56-1.01Z"/>
      <path class="cls-1" d="M167.48,79.55c0,.16-.05.31-.14.46-.77,1.26-1.7,2.26-2.77,3.01-1.21.83-2.5,1.24-3.86,1.24-2.98,0-4.47-1.35-4.47-4.05,0-1.1.02-2.54.07-4.33.03-1.45.06-3.03.08-4.73,0-.24.09-.45.27-.62.18-.18.39-.26.63-.26.25,0,.46.09.65.27.18.18.27.4.25.65l-.2,8.65c0,1.78.94,2.67,2.82,2.67,1.01,0,1.98-.36,2.91-1.07.79-.59,1.49-1.38,2.09-2.36.17-.28.42-.42.76-.42.25,0,.46.09.64.26s.26.39.26.64Z"/>
      <path class="cls-1" d="M184,82.52c0,.21-.08.41-.24.57-.16.16-.35.25-.56.25-.14,0-.27-.04-.41-.12-.79-.48-1.63-.89-2.5-1.26-.12-.04-.24-.07-.34-.07-.29,0-.49.21-.59.63-.12.54-.35.95-.68,1.22-.52.44-1.46.66-2.82.66-.83,0-1.52-.17-2.09-.51-.67-.42-1-1.01-1-1.79,0-.82.33-1.44.98-1.88.65-.44,1.55-.65,2.69-.65.09,0,.3.01.63.03.26.02.46-.03.59-.16.14-.13.2-.32.2-.57l-.12-5.97c0-.23.08-.42.24-.59.16-.16.35-.25.58-.25s.42.08.58.23c.16.15.24.34.24.57l.02,1.29c.01.54.28.79.8.73.7-.07,1.56-.19,2.58-.37.23-.04.43.01.62.17.19.16.28.36.28.59,0,.44-.22.7-.65.77-1.18.19-2.14.32-2.87.37-.49.04-.73.31-.71.8l.03,1.97c.01.58.29.96.83,1.16,1,.36,2.08.85,3.26,1.46.28.15.42.38.42.7ZM177.85,81.91c.06-.41-.09-.67-.44-.8-.2-.08-.54-.12-1.02-.12-1.36,0-2.04.36-2.04,1.07,0,.61.52.92,1.55.92.58,0,.99-.05,1.24-.14.41-.15.65-.46.71-.93Z"/>
      <path class="cls-1" d="M200.86,77.71c0,1.75-.74,3.22-2.21,4.44-1.18.99-2.72,1.73-4.62,2.23-.09.02-.16.03-.2.03-.23,0-.42-.08-.59-.25-.16-.17-.25-.37-.25-.6,0-.42.2-.69.59-.8,1.46-.42,2.66-.99,3.59-1.7,1.25-.94,1.87-2.04,1.87-3.3,0-1.52-.76-2.28-2.29-2.28s-3.5.4-5.8,1.21c-.1.03-.19.05-.27.05-.23,0-.43-.08-.6-.25s-.25-.37-.25-.61c0-.42.2-.69.61-.82,2.66-.8,4.79-1.21,6.39-1.21,1.27,0,2.25.32,2.94.97.72.68,1.09,1.64,1.09,2.89ZM198.89,71.76c0,.25-.09.46-.27.62s-.39.24-.63.21c-2.3-.2-4.11-.49-5.44-.85-.42-.11-.63-.38-.63-.82,0-.24.08-.44.25-.6.16-.16.37-.25.6-.25.07,0,.14.01.22.03,1.51.41,3.21.68,5.12.82.21.01.4.1.55.26.15.17.23.35.23.57Z"/>
      <path class="cls-1" d="M220.91,75.26c0,.08,0,.14-.02.19l-1.87,7.36c-.15.58-.52.87-1.11.87s-.93-.28-1.09-.83l-1.5-5.2c-.06-.2-.15-.31-.27-.31s-.22.1-.27.31l-1.51,5.2c-.16.56-.52.83-1.09.83-.6,0-.98-.29-1.12-.88l-1.84-7.33s-.02-.11-.02-.2c0-.24.08-.44.24-.6.16-.17.36-.25.59-.25.44,0,.71.22.82.66l1.22,5.32c.07.28.15.42.25.42.11,0,.2-.13.27-.39l1.41-5.2c.14-.52.48-.78,1.02-.78s.88.26,1.02.78l1.41,5.2c.07.26.16.39.27.39s.2-.14.27-.42l1.26-5.34c.1-.43.37-.65.8-.65.23,0,.42.08.59.25.16.17.25.37.25.59Z"/>
      <path class="cls-1" d="M234.52,75.26c0,.08,0,.14-.02.19l-1.87,7.36c-.15.58-.52.87-1.11.87s-.93-.28-1.09-.83l-1.5-5.2c-.06-.2-.15-.31-.27-.31s-.22.1-.27.31l-1.51,5.2c-.16.56-.52.83-1.09.83-.6,0-.98-.29-1.12-.88l-1.84-7.33s-.02-.11-.02-.2c0-.24.08-.44.24-.6.16-.17.36-.25.59-.25.44,0,.71.22.82.66l1.22,5.32c.07.28.15.42.25.42.11,0,.2-.13.27-.39l1.41-5.2c.14-.52.48-.78,1.02-.78s.88.26,1.02.78l1.41,5.2c.07.26.16.39.27.39s.2-.14.27-.42l1.26-5.34c.1-.43.37-.65.8-.65.23,0,.42.08.59.25.16.17.25.37.25.59Z"/>
    </g>
    <g>
      <path class="cls-1" d="M211.84,138.44c0,.25-.09.46-.26.64s-.39.26-.64.26c-.17,0-.32-.04-.47-.13-1.2-.71-2.27-1.24-3.2-1.6-.12-.05-.23-.07-.32-.07-.35,0-.55.24-.61.72-.1.72-.34,1.25-.72,1.6-.6.54-1.67.81-3.22.81-.98,0-1.8-.19-2.45-.56-.79-.47-1.19-1.16-1.19-2.09,0-1.04.5-1.81,1.49-2.29.74-.36,1.7-.54,2.88-.54.13,0,.34,0,.61.02.62.02.94-.24.94-.79v-.5c0-.6-.31-.89-.92-.88-1.27.04-2.5.05-3.67.04-.22,0-.4-.08-.55-.24-.15-.16-.23-.35-.23-.57s.08-.4.24-.55c.16-.15.35-.23.57-.23,1.18.02,2.39.02,3.65,0,.59-.01.88-.32.88-.92v-.07c0-.61-.31-.91-.94-.88-1.45.06-2.83.07-4.12.04-.22-.01-.4-.1-.56-.26-.16-.16-.23-.35-.23-.57,0-.23.08-.42.25-.58.17-.16.37-.23.59-.22,1.34.04,2.71.04,4.1,0,.59-.01.88-.3.88-.86,0-.05,0-.32-.02-.81,0-.24.08-.45.25-.62s.37-.26.61-.26.44.09.61.26.25.38.25.62v.61c0,.64.31.92.94.86.92-.1,1.93-.22,3.02-.38.24-.04.45.03.64.19.19.16.28.36.28.6,0,.46-.23.71-.7.77-1.3.17-2.39.29-3.29.38-.58.06-.86.37-.86.94v.05c0,.64.31.92.94.86.64-.06,1.52-.17,2.65-.34.24-.04.46.03.65.19.19.16.29.36.29.6,0,.47-.23.73-.68.79-.96.13-1.95.25-2.97.34-.58.05-.86.36-.86.94v.81c0,.66.33,1.1.99,1.31,1.22.4,2.56.98,4.01,1.75.31.17.47.43.47.79ZM204.62,137.73c.08-.6-.16-.92-.72-.97-.26-.02-.52-.04-.77-.04-1.73,0-2.59.41-2.59,1.24,0,.34.16.61.5.81.33.2.76.31,1.3.31.8,0,1.37-.09,1.69-.28.32-.19.52-.54.59-1.07Z"/>
      <path class="cls-1" d="M221.83,132.39c-.62,1.07-1.15,2.11-1.57,3.11-.18.43-.49.65-.92.65-.6,0-.95-.31-1.04-.94-.11-.71-.16-1.77-.16-3.19s.2-3.11.61-5.06c.12-.59.43-.88.94-.88.25,0,.46.09.63.26s.25.39.25.64c0,.07,0,.14-.02.22-.43,1.98-.66,3.47-.68,4.48-.01.4.08.59.27.59.16,0,.32-.14.5-.43l.09-.14c.12-.19.3-.29.54-.29.43,0,.65.22.65.65,0,.12-.03.23-.09.32ZM228.02,132.48c0,2.03-.37,3.69-1.1,4.99-.77,1.34-2.03,2.48-3.78,3.4-.13.07-.28.11-.43.11-.25,0-.47-.1-.65-.3s-.27-.42-.27-.67c0-.34.17-.59.5-.77,1.46-.77,2.49-1.69,3.08-2.77.55-1,.83-2.35.83-4.05,0-1.55-.16-3.37-.49-5.45-.05-.28.02-.52.22-.75.19-.22.43-.33.7-.33.23,0,.43.08.6.23.17.16.28.35.32.58.31,2.24.47,4.18.47,5.8Z"/>
    </g>
  </g>
</svg>