<?xml version="1.0" encoding="UTF-8"?>
<svg xmlns="http://www.w3.org/2000/svg" viewBox="0 0 229.65 225.83">
  <defs>
    <style>
      .cls-1 {
        fill: #5b5b5b;
      }

      .cls-2 {
        fill: none;
      }

      .cls-2, .cls-3 {
        stroke: #cecece;
        stroke-linecap: round;
        stroke-linejoin: round;
        stroke-width: 7px;
      }

      .cls-3 {
        fill: #fff9e1;
      }
    </style>
  </defs>
  <g id="_レイヤー_1" data-name="レイヤー 1">
    <path class="cls-3" d="M224.95,155.23c2.52-2.12.78-6.23-2.5-5.91-36.17-4.16-1.99-39.1-26.9-93.86C165.51-11.74,63.52-13.65,27.71,49.1l-24.04,7.65s-2.19,18.58,9.51,26.01c-.91,53.06,18.17,121.05,101.33,114.55,41.55-3.56,81.27-17.6,110.44-42.08Z"/>
    <path class="cls-2" d="M58.73,187.2s-6.41,15.27-19.55,23.11"/>
    <path class="cls-2" d="M123.21,199.22s-6.41,15.27-19.55,23.11"/>
  </g>
  <g id="miyabi2km">
    <g>
      <path class="cls-1" d="M75.1,36.87c0,2.29-1.29,3.81-3.87,4.56-.06.02-.12.03-.17.03-.17,0-.32-.06-.45-.19s-.19-.27-.19-.45c0-.3.15-.5.46-.6,1.95-.61,2.93-1.72,2.93-3.35,0-.68-.2-1.21-.59-1.61-.39-.4-.93-.6-1.62-.6-.88,0-1.77.33-2.66,1-.49.36-.74.89-.75,1.57-.03,1.39-.06,2.74-.06,4.06,0,.17-.06.32-.19.45-.13.13-.27.19-.45.19s-.32-.06-.45-.19-.19-.28-.19-.46c0-.8.03-1.62.05-2.48,0-.31-.08-.47-.27-.47-.12,0-.24.08-.36.25-.3.42-.6.84-.88,1.27-.13.19-.3.29-.52.29-.17,0-.32-.06-.45-.19-.13-.13-.19-.27-.19-.45,0-.15.04-.27.12-.38l1.21-1.62c.28-.36.58-.74.92-1.12s.51-.68.52-.88c0-.23-.05-.39-.18-.5-.13-.11-.3-.15-.51-.11-.18.03-.62.1-1.3.23-.19.04-.36-.01-.51-.14-.15-.13-.23-.28-.23-.47,0-.35.18-.55.53-.61.29-.05.84-.14,1.64-.26.41-.06.62-.29.62-.69,0-.23,0-.63.03-1.18,0-.17.07-.32.2-.44s.27-.18.44-.18.32.07.46.2c.13.13.19.29.18.46-.03.5-.05,1.17-.08,2,0,.35.1.52.34.52.12,0,.26-.05.43-.14.88-.51,1.76-.77,2.65-.77,1.07,0,1.9.31,2.51.93.61.62.91,1.46.91,2.53Z"/>
      <path class="cls-1" d="M84.85,35.72c0,1.37-.23,2.89-.69,4.58-.13.49-.28.84-.44,1.05-.24.31-.57.47-.99.47-.45,0-1.05-.13-1.79-.38-.29-.1-.44-.29-.44-.58,0-.17.06-.32.19-.44.13-.12.27-.18.44-.18.07,0,.16.02.27.05.37.13.65.19.84.19.21,0,.36-.06.44-.18.07-.1.15-.29.23-.58.41-1.46.61-2.72.61-3.8,0-.42-.08-.69-.25-.83-.16-.14-.48-.21-.94-.21-.41,0-.68.04-.83.13-.18.1-.31.29-.39.56-.56,1.89-1.33,3.79-2.31,5.71-.13.25-.33.38-.61.38-.19,0-.35-.07-.48-.2s-.19-.3-.19-.49c0-.15.03-.26.08-.35.88-1.53,1.6-3.15,2.16-4.85.03-.09.04-.16.04-.23,0-.31-.19-.44-.56-.39-.27.03-.69.1-1.26.18-.18.03-.35-.02-.5-.15-.15-.13-.23-.28-.23-.47,0-.36.19-.57.57-.62.38-.05.98-.13,1.81-.23.42-.04.7-.3.84-.78.03-.07.1-.49.22-1.27.06-.37.28-.56.65-.56.21,0,.38.08.5.23s.17.33.14.54c0,.04-.05.23-.12.57-.06.25-.09.44-.09.56,0,.36.2.53.61.51h.2c.67-.06,1.2.06,1.6.34.45.31.68.9.68,1.75ZM88.78,36.7c0,.19-.07.36-.2.49-.13.14-.3.21-.49.21-.31,0-.53-.15-.65-.46-.45-1.17-1.03-2.24-1.73-3.2-.08-.1-.12-.23-.12-.36,0-.18.06-.34.19-.47s.28-.19.46-.19c.22,0,.39.09.53.27.79,1.03,1.44,2.18,1.96,3.44.03.06.04.15.04.26Z"/>
      <path class="cls-1" d="M100.83,38.41c0,1.27-.62,2.2-1.87,2.79-1.02.49-2.29.73-3.8.7h-.9c-.16-.01-.31-.08-.43-.2-.12-.13-.18-.27-.18-.44,0-.17.06-.32.19-.45.13-.13.29-.18.47-.18.48.02.78.03.9.03,1.01,0,1.9-.14,2.65-.43,1.06-.39,1.59-1.01,1.59-1.85,0-.56-.22-.99-.65-1.27-.36-.23-.83-.35-1.43-.35-.72,0-1.47.16-2.24.49-.78.32-1.43.74-1.96,1.25-.29.28-.57.42-.85.42-.22,0-.39-.09-.51-.26-.13-.17-.18-.4-.16-.69l.26-4.02c.03-.4.24-.6.64-.6.19,0,.35.07.48.21s.19.3.17.48l-.17,2.18c-.03.37.09.56.34.56.12,0,.26-.05.42-.14,1.17-.74,2.41-1.1,3.72-1.1.99,0,1.77.23,2.35.68.65.49.97,1.22.97,2.18ZM97.79,33.02c0,.18-.06.34-.19.47-.13.13-.28.2-.47.2-.11,0-.2-.02-.26-.05-1.01-.47-2.17-.87-3.5-1.2-.33-.08-.49-.28-.49-.61,0-.17.06-.32.19-.44.13-.12.27-.18.44-.18.07,0,.12,0,.14.01,1.29.29,2.54.69,3.73,1.18.28.11.42.32.42.62Z"/>
      <path class="cls-1" d="M109.49,33.97c-.44.1-.87.17-1.29.23-.49.08-.81.35-.98.81-.61,1.74-1.3,3.4-2.07,4.97-.12.25-.32.38-.6.38-.18,0-.34-.06-.47-.19-.13-.13-.2-.29-.2-.47,0-.1.03-.21.08-.31.73-1.4,1.36-2.83,1.89-4.26.03-.1.05-.18.05-.25,0-.27-.18-.4-.55-.4h-.74c-.17,0-.32-.06-.44-.19-.12-.13-.18-.27-.18-.45,0-.18.07-.34.2-.46.13-.13.29-.18.47-.18.38.02.74.02,1.07.01.53,0,.86-.27.99-.79.07-.29.14-.59.22-.88.13-.33.34-.49.64-.49.18,0,.34.06.47.19.13.13.2.28.2.46,0,.07-.04.26-.13.56-.03.1-.04.19-.04.27,0,.26.12.39.35.39.04,0,.09,0,.14-.01l.68-.14c.08-.02.13-.03.16-.03.17,0,.31.06.42.19.11.13.16.28.16.46,0,.33-.16.53-.49.6ZM114.42,40.4c0,.17-.06.33-.19.46-.13.13-.28.2-.46.2-.11,0-.23-.04-.35-.12-.29-.19-.59-.37-.91-.55-.1-.06-.2-.09-.29-.09-.21,0-.36.15-.44.46-.25.88-1.02,1.31-2.31,1.31-.68,0-1.26-.15-1.72-.44-.55-.34-.82-.83-.82-1.48s.26-1.13.77-1.47c.44-.29,1-.44,1.68-.44.19,0,.41.02.65.05.2.03.35,0,.46-.09.11-.09.16-.23.16-.44v-1.9c-.01-.17.05-.32.17-.45.12-.13.27-.19.44-.19s.32.06.44.18c.12.12.18.27.18.44v2.18c.01.48.25.82.73,1.04.42.19.91.46,1.48.79.22.13.32.31.32.55ZM110.63,40.04c0-.36-.21-.58-.62-.65-.25-.04-.47-.06-.66-.06-.79,0-1.18.28-1.18.83,0,.25.11.45.32.59s.49.21.83.21c.61,0,1-.15,1.18-.44.1-.16.14-.32.14-.48ZM114.53,34.6c0,.17-.06.32-.19.45-.13.13-.28.19-.45.19-.12,0-.24-.04-.35-.12-.66-.44-1.36-.82-2.09-1.13-.24-.1-.36-.29-.36-.57,0-.17.06-.32.19-.44.13-.12.27-.18.44-.18.1,0,.17.02.23.05.81.35,1.58.75,2.29,1.21.2.13.3.31.3.55Z"/>
      <path class="cls-1" d="M121.98,39.11c-.76,1.5-1.49,2.25-2.2,2.25-.87,0-1.54-.77-2.02-2.31-.37-1.2-.56-2.55-.56-4.07,0-.78.03-1.45.08-2.01.02-.18.09-.33.21-.46.12-.12.28-.18.46-.18.2,0,.37.08.5.23.13.15.19.33.17.53-.06.58-.09,1.25-.09,2.02,0,1,.11,1.98.32,2.96.24,1.08.56,1.62.96,1.62.29,0,.61-.39.97-1.17.11-.23.31-.35.59-.35.18,0,.33.06.46.19.12.13.19.28.19.46,0,.11-.02.21-.06.3ZM127.61,38.71c.03.21-.03.39-.17.56-.14.17-.32.25-.53.25-.18,0-.34-.06-.48-.18-.14-.12-.22-.27-.23-.44-.22-1.97-.86-3.72-1.91-5.25-.08-.11-.12-.24-.12-.38,0-.19.07-.35.2-.48.13-.13.29-.2.48-.2.23,0,.42.1.56.29,1.2,1.66,1.93,3.61,2.21,5.84Z"/>
      <path class="cls-1" d="M139.96,40.32c0,.37-.18.59-.53.65-1.42.25-2.74.38-3.96.38s-2.18-.1-2.89-.3c-1.16-.33-1.74-.96-1.74-1.89,0-.63.41-1.36,1.24-2.18.11-.11.25-.17.43-.17.16,0,.31.06.43.18.12.12.18.26.18.42,0,.15-.06.28-.17.4-.47.49-.7.89-.7,1.21,0,.72,1.1,1.08,3.3,1.08,1.05,0,2.27-.13,3.67-.4.19-.03.36.01.52.14.16.13.23.29.23.49ZM138.54,33.6c-.73.29-1.61.77-2.65,1.44-.1.07-.2.1-.3.1-.15,0-.28-.05-.38-.16s-.16-.24-.16-.4c0-.2.09-.35.26-.46l.17-.1c.17-.1.25-.19.25-.29,0-.11-.13-.17-.38-.17-.95.02-2.02,0-3.2-.08-.16,0-.3-.07-.42-.19s-.18-.26-.18-.43c0-.18.07-.34.2-.46.13-.13.29-.18.47-.18,2.07.12,4.08.13,6.03.04.25,0,.45.05.6.18s.23.29.23.47c0,.3-.18.53-.55.68Z"/>
      <path class="cls-1" d="M152.84,40.66c0,.37-.19.58-.56.64-1.43.2-2.86.3-4.29.3-2.55,0-3.82-.77-3.82-2.3,0-.94.65-1.91,1.96-2.91.26-.2.39-.43.39-.69,0-.12-.03-.25-.08-.39-.38-.96-.7-2-.95-3.11,0-.04-.01-.09-.01-.14,0-.19.07-.35.2-.49.13-.13.3-.2.49-.2.16,0,.31.06.44.17.12.11.21.25.24.42.17.87.4,1.74.71,2.61.1.29.27.43.49.43.12,0,.25-.04.38-.12.08-.04,1.04-.57,2.87-1.57.11-.06.22-.09.31-.09.18,0,.34.07.46.2.13.13.19.29.19.47,0,.27-.12.46-.36.58-1.07.53-2.22,1.15-3.46,1.87-.79.46-1.42.89-1.89,1.29-.68.58-1.01,1.11-1.01,1.59,0,.78.81,1.17,2.44,1.17,1.34,0,2.71-.12,4.09-.35.19-.03.36.01.52.14.16.13.23.29.23.49Z"/>
      <path class="cls-1" d="M59.05,51.71c0,.26-.12.44-.36.55-.58.24-1.13.49-1.64.74-.36.17-.58.36-.66.55-.06.14-.09.42-.09.83v.83c0,.17-.06.32-.18.44-.12.12-.27.18-.44.18s-.32-.06-.44-.18-.18-.26-.18-.44v-.49c0-.3-.11-.46-.34-.46-.1,0-.2.04-.31.1-1.05.65-1.57,1.21-1.57,1.68,0,.27.18.46.53.58.36.12.96.18,1.82.18.68,0,1.57-.07,2.69-.22.18-.03.34.02.47.14.13.12.2.27.2.46,0,.16-.05.29-.16.41s-.23.18-.39.2c-.99.11-1.96.17-2.91.17s-1.75-.08-2.27-.25c-.88-.29-1.33-.81-1.33-1.57,0-.88.96-1.89,2.87-3.03.31-.18.47-.36.47-.55,0-.23-.18-.34-.55-.34-.5,0-1.14.24-1.91.71-.62.39-1.17.82-1.65,1.3l-.34.4c-.14.13-.29.19-.46.19-.17,0-.32-.06-.44-.18s-.18-.26-.18-.44c0-.16.05-.29.14-.4.9-1.08,1.66-2.17,2.26-3.25.06-.1.09-.2.09-.3,0-.23-.16-.33-.48-.33-.29,0-.71.01-1.26.01-.16,0-.29-.06-.4-.17-.11-.11-.16-.25-.16-.4,0-.16.06-.3.18-.42.12-.11.25-.16.41-.16.54.02,1.13.02,1.78,0,.51,0,.86-.25,1.04-.71l.26-.68c.1-.27.3-.4.58-.4.17,0,.32.06.44.18.12.12.18.26.18.43,0,.08-.01.15-.04.22-.04.1-.07.17-.08.19-.03.1-.05.18-.05.26,0,.25.16.36.47.32.33-.03.95-.12,1.87-.26.17-.03.33.02.47.14.14.12.21.26.21.44,0,.35-.17.54-.52.58-.87.11-1.64.2-2.33.25-.38.03-.67.12-.86.24-.2.13-.38.35-.55.67-.02.03-.06.1-.13.21-.1.16-.14.3-.14.4,0,.13.08.2.23.2.1,0,.22-.03.38-.09.46-.17.88-.26,1.26-.26.52,0,.92.17,1.2.52.19.23.37.35.55.35.1,0,.2-.03.31-.08l1.57-.77c.09-.04.17-.06.26-.06.16,0,.31.06.42.18.12.12.18.26.18.44Z"/>
      <path class="cls-1" d="M66.6,50.16c0,.69-.35,1.04-1.04,1.04h-2.03c-.35,0-.52.17-.52.52v5.97c0,.16-.06.31-.18.42-.12.12-.26.18-.42.18s-.31-.06-.42-.18c-.12-.12-.18-.26-.18-.42v-9.57c0-.69.35-1.04,1.04-1.04h2.7c.69,0,1.04.35,1.04,1.04v2.04ZM65.43,48.42c0-.24-.14-.36-.42-.36h-1.59c-.28,0-.42.12-.42.36,0,.2.13.3.39.3h1.64c.26,0,.39-.1.39-.3ZM65.43,49.9c0-.22-.13-.32-.39-.32h-1.64c-.26,0-.39.11-.39.34s.13.35.39.35h1.61c.28,0,.42-.12.42-.36ZM70.67,52.23c0,.13-.05.24-.14.34-.09.1-.2.14-.33.14h-.18c-.3,0-.46.15-.46.46v4.37c0,.15-.05.28-.16.39-.11.11-.24.17-.38.17-.16,0-.29-.05-.4-.16s-.16-.24-.16-.4v-.26c0-.33-.16-.47-.48-.43-1.09.16-2.32.29-3.68.39-.14,0-.26-.04-.37-.14s-.16-.22-.16-.37c0-.31.16-.48.47-.49h.23c.29-.03.44-.19.44-.48v-2.59c0-.3-.15-.46-.46-.46h-.18c-.13,0-.24-.05-.34-.14-.1-.1-.14-.21-.14-.34s.05-.24.14-.33c.1-.09.21-.14.34-.14h5.93c.13,0,.24.05.33.14s.14.2.14.33ZM68.46,52.97c0-.21-.13-.31-.39-.31h-1.68c-.26,0-.39.1-.39.31s.13.31.39.31h1.68c.26,0,.39-.1.39-.31ZM68.46,54.32c0-.21-.13-.31-.39-.31h-1.68c-.26,0-.39.1-.39.31s.13.32.39.32h1.68c.26,0,.39-.11.39-.32ZM68.46,55.62c0-.17-.13-.26-.39-.26h-1.68c-.26,0-.39.13-.39.38s.16.36.47.34c.62-.04,1.16-.09,1.62-.14.24-.03.36-.13.36-.31ZM72.66,56.47c0,.66-.11,1.1-.34,1.33-.23.23-.65.34-1.27.34h-.47c-.15,0-.27-.05-.38-.16s-.16-.24-.16-.4c0-.15.05-.27.16-.38s.24-.16.38-.16h.23c.29,0,.48-.05.55-.14.07-.1.1-.31.1-.65v-4.52c0-.35-.17-.52-.52-.52h-2.11c-.69,0-1.04-.35-1.04-1.04v-2.04c0-.69.35-1.04,1.04-1.04h2.78c.69,0,1.04.35,1.04,1.04v8.35ZM71.46,48.42c0-.24-.13-.36-.4-.36h-1.68c-.29,0-.43.12-.43.36,0,.2.13.3.39.3h1.73c.26,0,.39-.1.39-.3ZM71.46,49.91c0-.23-.13-.34-.39-.34h-1.73c-.26,0-.39.11-.39.32,0,.24.14.36.43.36h1.69c.26,0,.39-.12.39-.35Z"/>
      <path class="cls-1" d="M85.18,50.66c0,.28-.13.46-.4.56-.57.2-1.09.36-1.56.47-.28.07-.42.2-.42.4,0,.11.04.23.13.35.42.59.82,1.09,1.18,1.51.12.14.18.29.18.47,0,.2-.07.37-.21.51-.14.14-.31.21-.51.21-.1,0-.2-.02-.3-.05-1.15-.46-2.24-.69-3.25-.69-1.66,0-2.5.39-2.5,1.18s1.05,1.16,3.15,1.16c.72,0,1.53-.05,2.44-.14.17-.02.33.03.47.15.14.12.21.26.21.44,0,.35-.18.55-.55.58-.82.09-1.69.13-2.6.13-2.92,0-4.38-.76-4.38-2.29s1.17-2.27,3.51-2.27c.55,0,1.18.08,1.91.25.07.02.13.03.18.03.17,0,.26-.06.26-.18,0-.09-.04-.19-.13-.3-.04-.06-.16-.22-.35-.48-.23-.32-.52-.48-.87-.48-.1,0-.22,0-.35.03-1.2.17-2.53.24-3.96.22-.16,0-.29-.06-.4-.17-.11-.11-.16-.25-.16-.4s.06-.29.17-.41c.11-.12.25-.17.4-.16,1.07.03,2.22-.01,3.45-.14.33-.03.49-.16.49-.39,0-.1-.03-.2-.1-.3-.21-.36-.51-.51-.9-.47-.75.09-1.6.13-2.57.13-.15,0-.28-.06-.4-.17-.12-.11-.18-.24-.18-.39,0-.16.06-.29.18-.4.12-.11.25-.16.4-.16.72,0,1.39-.01,2-.06.36-.03.55-.15.55-.35,0,0-.08-.2-.23-.57-.03-.06-.04-.13-.04-.21,0-.17.06-.32.18-.45.12-.13.27-.19.46-.19.29,0,.48.14.58.42.03.1.1.26.18.48.13.33.35.49.65.49.08,0,.16-.01.25-.04.61-.16,1.21-.34,1.82-.56.07-.03.13-.04.19-.04.16,0,.31.06.42.17.12.11.18.25.18.42,0,.29-.14.49-.42.57-.64.21-1.2.37-1.69.48-.31.07-.47.21-.47.43,0,.1.03.19.1.29l.03.04c.18.28.4.42.66.42.07,0,.14,0,.22-.03.68-.16,1.33-.36,1.92-.58.04-.02.1-.03.18-.03.16,0,.31.06.42.17.12.11.18.25.18.42Z"/>
      <path class="cls-1" d="M99.18,51.53c0,1-.34,1.75-1.03,2.25-.6.45-1.41.68-2.44.68-.11,0-.38-.01-.81-.04-.16,0-.29-.07-.4-.19-.11-.12-.17-.26-.17-.42,0-.17.06-.32.19-.44.13-.12.28-.17.46-.16.41.02.62.03.65.03,1.48,0,2.22-.56,2.22-1.68,0-.4-.14-.71-.43-.93-.29-.22-.66-.33-1.12-.33-.56,0-1.32.16-2.27.48l-1.24.42c-.3.1-.46.28-.46.53,0,.09.02.19.07.3.66,1.68,1.29,3.43,1.9,5.24.03.08.04.15.04.22,0,.18-.07.34-.2.47-.13.13-.29.19-.47.19-.33,0-.55-.16-.65-.47-.6-1.88-1.21-3.64-1.85-5.28-.11-.29-.3-.44-.56-.44-.09,0-.18.02-.27.05l-1.73.58c-.08.03-.14.04-.19.04-.17,0-.31-.06-.44-.18-.13-.12-.19-.27-.19-.44,0-.31.14-.51.43-.6l1.6-.51c.3-.1.46-.26.46-.51,0-.1-.03-.21-.08-.32,0-.03-.22-.52-.64-1.5-.04-.08-.05-.16-.05-.26,0-.18.06-.34.19-.47.13-.13.29-.2.47-.2.29,0,.5.14.62.41.12.27.33.79.64,1.54.16.36.37.55.64.55.13,0,.7-.17,1.7-.52,1.07-.37,1.96-.56,2.67-.56.79,0,1.43.21,1.92.64.54.45.81,1.06.81,1.83ZM95.03,48.47c0,.16-.06.31-.18.43-.12.12-.26.18-.44.18-.11,0-.22-.03-.32-.1-.39-.26-.87-.53-1.44-.82-.22-.11-.32-.29-.32-.53,0-.16.06-.31.17-.42.11-.12.25-.18.42-.18.1,0,.19.02.27.06.47.23.98.51,1.55.84.2.12.3.3.3.53Z"/>
      <path class="cls-1" d="M112.36,49.34c0,.17-.06.32-.18.44-.12.12-.27.18-.44.18-1.36-.02-2.27-.02-2.74-.01-.42,0-.64.22-.64.66v.71c0,.32.09.81.26,1.47.07.27.1.55.1.83,0,1.14-.31,2.08-.94,2.81-.62.73-1.59,1.3-2.9,1.71-.06.02-.13.03-.19.03-.16,0-.31-.06-.44-.18s-.19-.27-.19-.46c0-.3.15-.5.46-.6,1.23-.37,2.09-.94,2.57-1.72.09-.14.13-.26.13-.35,0-.12-.06-.18-.2-.18-.08,0-.17.03-.27.08-.24.12-.51.18-.79.18-.64,0-1.16-.16-1.55-.48-.42-.35-.64-.84-.64-1.47s.24-1.17.72-1.55c.44-.35.99-.53,1.65-.53.06,0,.15,0,.27.01.12,0,.21.01.26.01.25,0,.38-.11.38-.33,0-.44-.22-.65-.66-.64-1.58.06-3.17.15-4.77.27-.18.02-.34-.04-.47-.16-.13-.13-.2-.28-.2-.46s.06-.32.18-.44c.12-.12.26-.18.42-.19l4.84-.23c.42-.02.62-.21.62-.58v-.58c0-.18.07-.34.2-.47.13-.13.29-.2.47-.2s.34.06.47.2c.13.13.19.29.19.47v.49c0,.44.22.66.65.65,1.31-.02,2.23-.02,2.76-.01.17,0,.32.06.44.18s.18.26.18.44ZM106.98,53.06c.03-.12.05-.23.05-.34,0-.33-.14-.55-.42-.66-.15-.06-.32-.09-.52-.09-.29,0-.54.1-.75.29-.2.19-.31.43-.31.72,0,.6.32.9.95.9.52,0,.85-.27.99-.81Z"/>
      <path class="cls-1" d="M119.62,55.11c-.76,1.5-1.49,2.25-2.2,2.25-.87,0-1.54-.77-2.02-2.31-.37-1.2-.56-2.55-.56-4.07,0-.78.03-1.45.08-2.01.02-.18.09-.33.21-.46.13-.12.28-.18.46-.18.2,0,.37.08.5.23.13.15.19.33.18.53-.06.58-.09,1.25-.09,2.02,0,1,.11,1.98.33,2.96.24,1.08.56,1.62.96,1.62.29,0,.61-.39.97-1.17.11-.23.31-.35.59-.35.18,0,.33.06.46.19.12.13.19.28.19.46,0,.11-.02.21-.06.3ZM125.25,54.71c.03.21-.03.39-.17.56-.14.17-.32.25-.53.25-.18,0-.34-.06-.48-.18-.14-.12-.22-.27-.23-.44-.22-1.97-.86-3.72-1.91-5.25-.08-.11-.12-.24-.12-.38,0-.19.07-.35.2-.48.13-.13.29-.2.48-.2.23,0,.42.1.56.29,1.2,1.66,1.93,3.61,2.21,5.84Z"/>
      <path class="cls-1" d="M136.44,56.7c0,.59-.12.99-.36,1.2-.24.21-.69.32-1.35.32h-1.3c-.14,0-.26-.05-.36-.15-.1-.1-.15-.22-.15-.36s.05-.26.15-.36.22-.15.36-.15h1.07c.49,0,.74-.25.74-.74v-.56c0-.36-.18-.53-.53-.53h-1.16c-.42,0-.75.2-1,.6-.7,1.1-1.9,1.9-3.59,2.39-.06.02-.11.03-.16.03-.14,0-.26-.05-.36-.16-.1-.1-.16-.23-.16-.38,0-.27.12-.44.36-.51,1.18-.35,2.02-.82,2.54-1.43.08-.1.12-.19.12-.29,0-.17-.12-.26-.36-.26h-1.11c-.14,0-.26-.05-.35-.14-.1-.1-.14-.21-.14-.35,0-.05,0-.09.01-.12-.5.28-.98.52-1.43.71-.06.03-.13.04-.21.04-.13,0-.25-.05-.34-.14-.1-.1-.15-.21-.15-.35,0-.22.1-.37.3-.46,1.34-.59,2.38-1.2,3.12-1.85.08-.06.17-.1.27-.12h-1.39c-.24,0-.36-.13-.36-.38s.12-.38.36-.38h1.77c.25,0,.38.13.38.38s-.12.38-.38.38h-.26c.29.03.44.2.44.49,0,.16-.07.3-.2.4-.42.34-.85.64-1.29.9h5.38c.72,0,1.08.36,1.08,1.07v1.23ZM138.4,51.27c0,.16-.06.3-.17.42s-.25.17-.42.17-.31-.06-.42-.17c-.12-.11-.18-.25-.18-.42v-.82c0-.37-.19-.56-.56-.56h-2.7c-.35,0-.52.17-.52.52v1.86c0,.16-.06.31-.18.42-.12.12-.26.18-.42.18-.17,0-.32-.06-.44-.18-.12-.12-.18-.26-.18-.42v-1.86c0-.35-.17-.52-.52-.52h-2.59c-.36,0-.55.19-.55.56v.82c0,.16-.06.3-.17.42-.11.11-.25.17-.42.17s-.3-.06-.42-.18c-.12-.12-.18-.25-.18-.41v-1.3c0-.74.37-1.1,1.11-1.1h3.21c.35,0,.52-.11.52-.34s-.17-.32-.52-.32h-2.89c-.14,0-.26-.05-.35-.15-.1-.1-.14-.22-.14-.36s.05-.26.14-.35c.09-.1.21-.14.35-.14h8.23c.14,0,.26.05.36.14.1.1.15.21.15.35s-.05.26-.15.36-.22.15-.36.15h-3.09c-.35,0-.52.11-.52.32s.17.34.52.34h3.34c.74,0,1.1.37,1.1,1.1v1.3ZM131.65,50.89c0,.25-.12.38-.38.38h-1.77c-.24,0-.36-.13-.36-.38s.12-.36.36-.36h1.77c.25,0,.38.12.38.36ZM136.62,50.89c0,.25-.13.38-.38.38h-1.85c-.25,0-.38-.13-.38-.38s.13-.36.38-.36h1.85c.25,0,.38.12.38.36ZM138.64,54.98c0,.34-.17.51-.51.51-.08,0-.15-.01-.21-.04-1.27-.54-2.42-1.18-3.45-1.94-.14-.1-.21-.24-.21-.42,0-.26.13-.42.38-.49h-.25c-.25,0-.38-.13-.38-.38s.13-.38.38-.38h1.85c.25,0,.38.13.38.38s-.13.38-.38.38h-1.34c.07,0,.13.04.2.09.85.68,1.92,1.29,3.22,1.82.21.09.31.24.31.47Z"/>
      <path class="cls-1" d="M151.39,56.64c0,.88-.45,1.33-1.34,1.33h-7.97c-.89,0-1.34-.44-1.34-1.33v-8.02c0-.89.45-1.34,1.34-1.34h7.97c.89,0,1.34.45,1.34,1.34v8.02ZM150.18,56.17v-7.11c0-.45-.23-.68-.68-.68h-6.88c-.45,0-.68.23-.68.68v7.11c0,.45.23.68.68.68h6.88c.45,0,.68-.23.68-.68ZM149.74,53.54c0,.14-.05.26-.14.35-.1.1-.21.14-.34.14h-.79c-.3,0-.46.15-.46.46v1.42c0,.15-.05.27-.16.38s-.24.16-.38.16-.28-.05-.38-.16-.16-.24-.16-.38v-1.42c0-.3-.15-.46-.46-.46h-1.01c-.26,0-.43.13-.51.39-.21.68-.54,1.27-.99,1.77-.12.13-.26.2-.43.2-.16,0-.29-.05-.4-.16s-.16-.24-.16-.4c0-.15.06-.29.19-.44.24-.27.43-.54.57-.82.03-.08.05-.15.05-.21,0-.22-.14-.32-.42-.32h-.48c-.13,0-.25-.05-.34-.14-.1-.1-.15-.21-.15-.35,0-.13.05-.24.15-.34s.21-.15.34-.15h.77c.31,0,.47-.13.47-.38v-.81c0-.3-.15-.46-.45-.46h-.53c-.14,0-.26-.05-.35-.14-.09-.1-.14-.21-.14-.35s.05-.26.14-.35c.1-.1.21-.14.35-.14h.53c.3,0,.45-.15.45-.45v-.65c0-.15.06-.27.17-.38.11-.11.24-.16.39-.16s.27.05.38.16c.11.11.16.24.16.38v.65c0,.3.15.45.46.45h.78c.3,0,.46-.15.46-.45v-.65c0-.15.05-.27.16-.38s.24-.16.38-.16.27.05.38.16.16.24.16.38v.65c0,.3.15.45.46.45h.58c.14,0,.25.05.35.14.1.1.14.21.14.35s-.05.26-.14.35-.21.14-.35.14h-.58c-.3,0-.46.15-.46.46v.73c0,.3.15.45.46.45h.79c.13,0,.24.05.34.15.09.1.14.21.14.34ZM146.92,52.59v-.73c0-.3-.15-.46-.46-.46h-.78c-.3,0-.46.15-.46.46v.39c0,.07,0,.18-.01.33-.02.31.13.47.44.47h.81c.3,0,.46-.15.46-.45Z"/>
      <path class="cls-1" d="M164.88,48.33c0,.16-.05.29-.16.4s-.24.16-.38.16h-7.23c-.49,0-.92.19-1.28.57-.36.38-.77.76-1.24,1.14-.12.1-.25.14-.38.14-.16,0-.3-.06-.42-.17-.11-.11-.17-.25-.17-.42,0-.19.07-.34.21-.46,1.08-.88,1.92-1.81,2.5-2.77.11-.19.28-.29.51-.29.17,0,.31.06.42.17s.18.25.18.42v.04c0,.21,0,.33.03.38.04.1.14.14.3.14h6.58c.15,0,.28.05.38.16s.16.24.16.38ZM160.71,56.8c0,.16-.06.31-.17.42s-.26.18-.42.18c-.16,0-.29-.05-.4-.16-.26-.23-.64-.55-1.14-.96-.15-.12-.29-.18-.44-.18s-.3.07-.47.21c-.73.62-1.6,1.19-2.61,1.69-.09.04-.17.06-.26.06-.16,0-.29-.06-.41-.17s-.18-.25-.18-.42c0-.24.11-.42.33-.52.78-.36,1.46-.78,2.05-1.26.17-.14.26-.29.26-.44,0-.18-.1-.34-.31-.48-.34-.23-.66-.43-.97-.62-.17-.1-.26-.26-.26-.46,0-.15.05-.27.16-.38.1-.1.23-.16.38-.16.11,0,.2.02.27.06.5.29.94.56,1.3.81.15.1.29.14.42.14.19,0,.36-.1.49-.29.23-.32.45-.66.64-1.03.12-.23.3-.34.53-.34.17,0,.32.06.43.18s.17.26.17.44c0,.11-.02.21-.06.29-.22.4-.46.78-.73,1.13-.11.15-.17.29-.17.42,0,.18.1.35.3.49.29.22.65.51,1.08.87.15.12.22.28.22.47ZM165.31,56.35c0,.1-.02.2-.07.29-.55,1.07-1.13,1.6-1.72,1.6-1.06,0-1.67-1.77-1.83-5.32-.02-.45-.24-.68-.68-.68h-6.27c-.35,0-.52-.17-.52-.52,0-.15.05-.27.15-.38s.22-.16.37-.16h6.77c.87,0,1.31.45,1.34,1.35.03.84.08,1.62.17,2.33.16,1.29.38,1.94.68,1.94.11,0,.29-.26.52-.78.09-.2.26-.3.51-.3.16,0,.29.06.4.19.11.13.17.27.17.44ZM163.99,50.02c0,.13-.05.24-.14.33s-.2.14-.33.14h-7.03c-.3,0-.46-.16-.46-.47,0-.12.04-.23.13-.32.09-.09.2-.14.33-.14h7.03c.13,0,.24.05.33.14.09.09.14.2.14.32Z"/>
      <path class="cls-1" d="M177.22,51.71c0,.26-.12.44-.36.55-.58.24-1.13.49-1.64.74-.36.17-.58.36-.66.55-.06.14-.09.42-.09.83v.83c0,.17-.06.32-.18.44s-.27.18-.44.18-.32-.06-.44-.18c-.12-.12-.17-.26-.17-.44v-.49c0-.3-.11-.46-.34-.46-.1,0-.2.04-.31.1-1.05.65-1.57,1.21-1.57,1.68,0,.27.18.46.53.58.36.12.96.18,1.82.18.68,0,1.57-.07,2.69-.22.18-.03.34.02.47.14.13.12.2.27.2.46,0,.16-.05.29-.16.41-.1.12-.23.18-.39.2-.99.11-1.96.17-2.91.17s-1.75-.08-2.28-.25c-.88-.29-1.33-.81-1.33-1.57,0-.88.96-1.89,2.87-3.03.31-.18.47-.36.47-.55,0-.23-.18-.34-.55-.34-.5,0-1.14.24-1.91.71-.62.39-1.17.82-1.65,1.3l-.34.4c-.14.13-.29.19-.46.19-.17,0-.32-.06-.44-.18-.12-.12-.18-.26-.18-.44,0-.16.05-.29.14-.4.9-1.08,1.66-2.17,2.26-3.25.06-.1.09-.2.09-.3,0-.23-.16-.33-.48-.33-.29,0-.71.01-1.26.01-.16,0-.29-.06-.4-.17s-.16-.25-.16-.4c0-.16.06-.3.18-.42.12-.11.25-.16.41-.16.54.02,1.13.02,1.78,0,.51,0,.86-.25,1.04-.71l.26-.68c.1-.27.3-.4.58-.4.17,0,.32.06.44.18.12.12.18.26.18.43,0,.08-.01.15-.04.22-.04.1-.07.17-.08.19-.04.1-.05.18-.05.26,0,.25.16.36.47.32.33-.03.95-.12,1.87-.26.17-.03.33.02.47.14.14.12.21.26.21.44,0,.35-.17.54-.52.58-.87.11-1.64.2-2.33.25-.38.03-.67.12-.87.24-.19.13-.38.35-.55.67-.02.03-.06.1-.13.21-.09.16-.14.3-.14.4,0,.13.08.2.23.2.09,0,.22-.03.38-.09.46-.17.88-.26,1.26-.26.52,0,.92.17,1.2.52.19.23.37.35.55.35.09,0,.2-.03.31-.08l1.57-.77c.09-.04.17-.06.26-.06.17,0,.31.06.42.18.12.12.18.26.18.44Z"/>
      <path class="cls-1" d="M26.48,63.33s0,.09-.03.16c-.1.37-.21.74-.34,1.09-.18.5-.27.98-.27,1.44v7.7c0,.16-.06.31-.18.42-.12.12-.26.18-.42.18s-.31-.06-.42-.18c-.12-.12-.18-.26-.18-.42v-4.98c0-.24-.06-.36-.19-.36-.07,0-.19.12-.35.35-.1.16-.21.31-.32.47-.11.16-.27.23-.47.23-.17,0-.3-.06-.42-.17-.11-.11-.17-.25-.17-.42,0-.12.04-.23.12-.34,1.1-1.52,1.93-3.29,2.5-5.32.08-.29.26-.43.56-.43.16,0,.3.06.42.17s.17.25.17.4ZM34.64,65.34c0,.16-.05.29-.16.39s-.24.16-.38.16h-2.89c-.39,0-.58.19-.58.58v.43c0,.39.19.58.58.58h2c.15,0,.27.05.38.15s.16.22.16.37-.05.27-.16.38-.23.16-.38.16h-2c-.39,0-.58.19-.58.58v.58c0,.39.19.58.58.58h2.61c.16,0,.29.05.4.16.11.1.16.23.16.39s-.06.29-.17.4-.24.16-.39.16h-2.61c-.39,0-.58.2-.58.58v1.65c0,.16-.06.31-.18.42-.12.12-.26.18-.42.18s-.31-.06-.42-.18-.18-.26-.18-.42v-7.23c0-.29-.13-.43-.38-.43s-.45.17-.61.49c-.36.76-.74,1.46-1.13,2.08-.1.17-.27.26-.49.26-.16,0-.3-.05-.41-.16-.11-.11-.16-.24-.16-.41,0-.13.03-.24.09-.33.9-1.34,1.61-2.92,2.12-4.72.08-.28.26-.42.55-.42.17,0,.31.06.42.18.11.12.16.26.16.42,0,.1-.06.34-.19.72-.03.1-.05.18-.05.26,0,.29.17.43.52.43h4.24c.15,0,.27.05.38.16s.16.24.16.4Z"/>
      <path class="cls-1" d="M46.83,69.06c0,1.24-.58,2.21-1.73,2.91-.86.52-2,.88-3.42,1.07-.18.03-.34-.02-.48-.15-.14-.13-.21-.28-.21-.46,0-.15.05-.28.16-.4.1-.12.23-.18.38-.2,2.67-.36,4-1.28,4-2.77,0-1.05-.69-1.57-2.08-1.57-1.11,0-2.88.32-5.32.97-.06.02-.12.03-.17.03-.16,0-.31-.06-.44-.19-.13-.13-.19-.28-.19-.45,0-.33.16-.53.49-.61.85-.21,1.66-.39,2.42-.53,1.39-.27,2.47-.4,3.25-.4.97,0,1.73.19,2.29.56.7.47,1.05,1.2,1.05,2.2Z"/>
      <path class="cls-1" d="M60.41,64.63c0,.35-.23.55-.7.62-1.31.2-2.47.74-3.48,1.62-1.01.88-1.52,1.81-1.52,2.78,0,1.36,1.12,2.26,3.37,2.69.37.07.56.29.56.66,0,.21-.08.38-.24.52-.16.14-.34.19-.55.16-1.26-.22-2.27-.61-3.03-1.17-.95-.69-1.43-1.61-1.43-2.76,0-.92.32-1.77.95-2.55.25-.31.53-.59.83-.85.26-.22.39-.4.39-.56,0-.21-.22-.29-.66-.26-1.35.12-2.79.27-4.33.46-.19.03-.36-.03-.49-.16-.14-.13-.21-.29-.21-.48,0-.16.05-.31.16-.43.11-.12.24-.19.41-.21,1.57-.16,4.63-.39,9.19-.7.23-.02.42.03.57.15.15.12.22.27.22.46Z"/>
      <path class="cls-1" d="M71.18,73.3c0,.2-.07.37-.21.51s-.31.21-.51.21-.37-.08-.52-.23c-1.65-1.72-3.31-3.21-4.99-4.46-.49-.36-.74-.72-.74-1.08s.28-.75.84-1.13c2.02-1.37,3.67-2.66,4.94-3.87.14-.13.29-.2.47-.2.19,0,.35.07.49.2s.2.3.2.49-.07.36-.22.49c-1.13,1.01-2.55,2.11-4.26,3.33-.38.27-.57.5-.57.7s.19.44.56.73c1.4,1.06,2.83,2.33,4.32,3.81.14.14.21.31.21.51Z"/>
      <path class="cls-1" d="M82.51,66c-.73.14-1.37.24-1.92.3-.36.04-.61.13-.77.27-.16.14-.28.38-.36.71-.52,2.28-1.12,4.25-1.81,5.92-.12.29-.33.43-.64.43-.19,0-.35-.07-.48-.2-.13-.13-.19-.29-.19-.47,0-.1.02-.18.05-.26.69-1.62,1.3-3.47,1.81-5.54.02-.07.03-.13.03-.19,0-.3-.18-.45-.55-.44-.36,0-.7,0-1,0-.17,0-.32-.08-.45-.2-.13-.13-.19-.28-.19-.45,0-.18.07-.34.2-.47s.29-.19.47-.18c.49.02.89.02,1.2.01.49-.02.77-.26.83-.72.03-.18.07-.46.13-.84.06-.38.28-.57.66-.57.18,0,.34.06.47.2.13.13.19.28.19.45,0,.09-.03.3-.1.65,0,.06-.01.12-.01.17,0,.35.19.49.57.43.05,0,.36-.07.91-.18.42-.08.7-.12.86-.12.18,0,.33.06.45.19.12.13.18.29.18.47,0,.36-.18.57-.53.64ZM86.61,72.84c0,.16-.05.31-.16.43-.1.12-.23.19-.39.21-.97.12-1.84.18-2.6.18-2.31,0-3.46-.65-3.46-1.94,0-.31.07-.65.22-1.01.1-.26.3-.39.58-.39.42,0,.62.21.62.62,0,.07-.02.17-.05.29-.03.13-.05.22-.05.29,0,.59.75.88,2.24.88.58,0,1.35-.06,2.31-.19.19-.03.36.02.51.15s.22.28.22.47ZM86.25,68.01c0,.18-.07.34-.21.47s-.3.19-.48.18c-1.33-.1-2.72-.06-4.15.09-.18.02-.34-.04-.47-.16-.13-.13-.2-.28-.2-.46,0-.16.05-.31.16-.42.11-.12.24-.18.4-.2,1.72-.15,3.16-.2,4.32-.16.17,0,.32.08.45.21.13.13.19.28.19.46ZM85.63,65.73c0,.14-.05.26-.15.36s-.22.15-.36.15c-.21,0-.36-.08-.46-.23-.25-.4-.52-.74-.81-1.03-.1-.1-.14-.21-.14-.35,0-.35.17-.52.51-.52.15,0,.28.06.39.2.36.41.67.79.91,1.14.07.1.1.2.1.29ZM87.21,64.99c0,.14-.05.26-.15.36s-.22.15-.36.15c-.2,0-.35-.08-.46-.23-.29-.42-.55-.78-.81-1.05-.1-.1-.14-.21-.14-.32,0-.35.17-.52.52-.52.13,0,.26.06.38.18.3.3.61.69.92,1.16.06.12.09.22.09.29Z"/>
      <path class="cls-1" d="M99.02,64.9c0,.25-.12.44-.36.56-.54.26-1.17.5-1.9.73-.28.09-.42.23-.42.42,0,.11.05.23.14.35.63.84,1.27,1.59,1.91,2.24.18.18.27.39.27.61,0,.2-.07.37-.21.51-.14.14-.32.21-.54.21-.14,0-.28-.03-.43-.09-1.05-.47-2.12-.7-3.21-.7-.8,0-1.42.12-1.86.36-.44.24-.66.58-.66,1,0,.98,1.06,1.47,3.17,1.47.78,0,1.62-.06,2.52-.18.18-.03.34.02.49.15.14.13.21.28.21.47,0,.16-.05.29-.16.41-.11.12-.24.18-.38.2-.84.11-1.68.17-2.52.17-3.1,0-4.65-.87-4.65-2.6,0-.94.41-1.63,1.23-2.07.63-.34,1.47-.51,2.51-.51.42,0,.89.06,1.4.17.08.02.13.03.14.03.08.02.15.03.22.03.18,0,.27-.06.27-.2,0-.1-.05-.22-.16-.35-.33-.4-.57-.71-.73-.92-.29-.38-.63-.57-1.03-.57-.1,0-.21,0-.34.03-1.09.17-2.27.25-3.52.25-.17,0-.32-.06-.44-.18-.12-.12-.18-.27-.18-.44s.06-.32.18-.44c.12-.12.27-.18.44-.18,1.02,0,1.98-.06,2.86-.17.3-.03.46-.16.46-.39,0-.11-.04-.23-.12-.35l-.44-.73c-.06-.1-.09-.21-.09-.32,0-.17.06-.32.19-.45s.27-.19.45-.19c.26,0,.45.11.57.34.29.57.48.91.56,1.01.28.4.57.6.88.6.11,0,.23-.02.35-.05.68-.19,1.35-.45,2.02-.78.09-.04.18-.06.27-.06.17,0,.32.06.44.19.12.13.18.28.18.45Z"/>
      <path class="cls-1" d="M106.73,67.94c-.45.77-.83,1.52-1.13,2.25-.13.31-.35.47-.66.47-.43,0-.68-.23-.75-.68-.08-.51-.12-1.28-.12-2.3s.15-2.25.44-3.65c.09-.42.31-.64.68-.64.18,0,.33.06.46.19.12.13.18.28.18.46,0,.05,0,.1-.01.16-.31,1.43-.48,2.51-.49,3.24,0,.29.06.43.2.43.11,0,.23-.1.36-.31l.06-.1c.09-.14.22-.21.39-.21.31,0,.47.16.47.47,0,.09-.02.17-.07.23ZM111.2,68.01c0,1.46-.26,2.66-.79,3.6-.55.97-1.46,1.79-2.73,2.46-.1.05-.2.08-.31.08-.18,0-.34-.07-.47-.21-.13-.14-.2-.31-.2-.49,0-.24.12-.43.36-.56,1.06-.55,1.8-1.22,2.22-2,.4-.72.6-1.69.6-2.92,0-1.12-.12-2.43-.35-3.94-.03-.2.02-.38.16-.54.14-.16.31-.24.51-.24.16,0,.31.06.44.17.13.11.2.25.23.42.23,1.62.34,3.02.34,4.19Z"/>
      <path class="cls-1" d="M126.06,70.2c0,1.11-.39,1.99-1.17,2.65-.68.58-1.59.95-2.76,1.1-.18.03-.34-.02-.49-.15-.14-.13-.21-.28-.21-.46,0-.36.17-.56.52-.62,1.85-.32,2.78-1.18,2.78-2.57,0-.96-.39-1.64-1.18-2.03-.1-.05-.2-.08-.3-.08-.23,0-.41.14-.55.43-.56,1.18-1.21,2.21-1.94,3.08-1.12,1.33-2.23,2-3.34,2-.57,0-1.02-.16-1.33-.49-.32-.33-.47-.77-.47-1.33,0-.99.29-1.89.87-2.69.44-.62.99-1.12,1.65-1.51.39-.23.6-.56.62-.98v-.25c.03-.4-.16-.6-.55-.6-.49,0-1.04,0-1.65-.01-.16,0-.31-.06-.42-.18-.12-.12-.18-.26-.18-.43s.06-.31.19-.43c.12-.12.28-.18.45-.17.8.03,1.39.05,1.78.04.36,0,.56-.19.61-.56l.08-.56c.05-.38.25-.57.61-.57.18,0,.34.08.48.23.14.16.19.32.17.48l-.04.25c-.04.21,0,.37.09.48.1.11.25.16.46.14.89-.07,1.9-.19,3.02-.35.18-.03.34.02.49.14.14.12.21.28.21.47,0,.36-.18.56-.55.6-1.36.17-2.47.27-3.34.33-.41.03-.62.21-.65.56-.02.21.03.36.14.45s.27.12.47.1c.34-.04.63-.06.87-.06,1.33,0,2.38.25,3.16.75.93.61,1.39,1.54,1.39,2.79ZM118.27,72.1c.39-.21.56-.62.52-1.23,0-.39-.02-.78-.03-1.16-.04-.61-.15-.91-.34-.91-.12,0-.26.07-.42.21-.34.29-.61.67-.82,1.12-.23.48-.34.95-.34,1.43,0,.51.21.77.64.77.24,0,.5-.07.78-.22ZM121.53,68.27c.04-.09.07-.16.07-.23,0-.22-.13-.32-.4-.3-.4.03-.69.1-.88.21-.27.16-.41.42-.42.78,0,.33,0,.7.01,1.12,0,.26.1.39.27.39.12,0,.23-.07.34-.22.39-.55.73-1.13,1.01-1.74Z"/>
      <path class="cls-1" d="M132.99,67.94c-.45.77-.83,1.52-1.13,2.25-.13.31-.35.47-.66.47-.43,0-.68-.23-.75-.68-.08-.51-.12-1.28-.12-2.3s.15-2.25.44-3.65c.09-.42.31-.64.68-.64.18,0,.33.06.46.19.12.13.18.28.18.46,0,.05,0,.1-.01.16-.31,1.43-.48,2.51-.49,3.24,0,.29.06.43.2.43.11,0,.23-.1.36-.31l.06-.1c.09-.14.22-.21.39-.21.31,0,.47.16.47.47,0,.09-.02.17-.07.23ZM137.46,68.01c0,1.46-.26,2.66-.79,3.6-.56.97-1.46,1.79-2.73,2.46-.1.05-.2.08-.31.08-.18,0-.34-.07-.47-.21s-.19-.31-.19-.49c0-.24.12-.43.36-.56,1.06-.55,1.8-1.22,2.22-2,.4-.72.6-1.69.6-2.92,0-1.12-.12-2.43-.35-3.94-.04-.2.02-.38.16-.54.14-.16.31-.24.51-.24.16,0,.31.06.43.17.13.11.2.25.23.42.23,1.62.34,3.02.34,4.19Z"/>
      <path class="cls-1" d="M149.15,67.8c0,1.4-.23,2.93-.69,4.58-.14.49-.29.85-.46,1.05-.23.31-.56.47-.97.47-.48,0-1.07-.13-1.79-.38-.29-.1-.44-.3-.44-.58,0-.17.06-.32.19-.44.13-.12.27-.18.44-.18.07,0,.13,0,.18.03.45.15.76.22.94.22.21,0,.36-.06.44-.18.07-.09.15-.28.23-.58.41-1.4.61-2.66.61-3.8,0-.42-.08-.69-.25-.83s-.48-.21-.94-.21h-.18c-.08,0-.14.01-.19.01-.43,0-.72.23-.85.68-.58,1.97-1.35,3.87-2.31,5.71-.13.25-.33.38-.61.38-.19,0-.35-.07-.48-.2s-.2-.3-.2-.49c0-.14.03-.26.08-.35.81-1.43,1.53-3.05,2.16-4.85.03-.09.04-.16.04-.23,0-.31-.19-.44-.56-.39-.27.04-.69.1-1.26.18-.18.03-.35-.02-.5-.15-.15-.13-.23-.28-.23-.47,0-.36.19-.57.57-.63.38-.06.98-.13,1.81-.23.42-.03.7-.29.85-.78.08-.42.15-.85.22-1.27.06-.37.28-.56.65-.56.21,0,.37.08.5.23.13.15.17.33.14.54,0,.04-.05.23-.12.57-.06.23-.09.42-.09.56,0,.36.2.53.61.51h.19c.66-.06,1.19.06,1.6.34.45.31.68.9.68,1.76ZM150.89,64.95c0,.14-.05.26-.15.36s-.22.15-.36.15c-.21,0-.36-.08-.46-.23-.25-.4-.52-.74-.81-1.03-.09-.1-.14-.21-.14-.35,0-.35.17-.52.51-.52.15,0,.28.06.39.19.36.41.67.79.91,1.14.07.1.1.2.1.29ZM151.72,69.5c-.36-.94-.85-1.87-1.47-2.77-.07-.1-.1-.22-.1-.35,0-.18.07-.34.2-.46.13-.13.29-.19.47-.19.22,0,.39.1.53.29.68.96,1.24,1.96,1.66,2.99.03.09.05.17.05.26,0,.18-.08.34-.23.48s-.32.21-.51.21c-.29,0-.49-.15-.61-.46ZM152.47,64.21c0,.14-.05.26-.15.36-.1.1-.22.15-.36.15-.2,0-.35-.08-.46-.23-.29-.42-.55-.78-.81-1.05-.09-.1-.14-.21-.14-.33,0-.35.17-.52.52-.52.13,0,.26.06.38.18.3.3.61.69.92,1.16.06.12.09.22.09.29Z"/>
      <path class="cls-1" d="M164.65,72.66c0,.37-.19.58-.56.64-1.43.2-2.86.3-4.29.3-2.55,0-3.82-.77-3.82-2.3,0-.94.65-1.91,1.96-2.91.26-.2.39-.43.39-.69,0-.12-.03-.25-.08-.39-.38-.96-.7-2-.95-3.11,0-.04-.01-.09-.01-.14,0-.19.07-.35.2-.49.13-.13.3-.2.49-.2.16,0,.31.06.44.17.12.11.21.25.24.42.17.87.4,1.74.71,2.61.1.29.27.43.49.43.12,0,.25-.04.38-.12.08-.04,1.04-.57,2.87-1.57.11-.06.22-.09.31-.09.18,0,.34.07.46.2.13.13.19.29.19.47,0,.27-.12.46-.36.58-1.07.53-2.22,1.15-3.46,1.87-.79.46-1.42.89-1.89,1.29-.68.58-1.01,1.11-1.01,1.59,0,.78.81,1.17,2.44,1.17,1.34,0,2.71-.12,4.09-.35.19-.03.36.01.52.14.16.13.23.29.23.49Z"/>
      <path class="cls-1" d="M177.5,68.97c0,1.33-.56,2.47-1.69,3.39-.9.75-2.08,1.32-3.54,1.7-.07.02-.12.03-.16.03-.17,0-.32-.06-.45-.19-.13-.13-.19-.28-.19-.46,0-.32.15-.52.46-.61,1.12-.32,2.03-.75,2.74-1.3.95-.72,1.43-1.56,1.43-2.52,0-1.16-.58-1.74-1.75-1.74s-2.67.31-4.43.92c-.08.03-.15.04-.21.04-.17,0-.33-.06-.46-.19s-.19-.29-.19-.47c0-.32.16-.53.47-.62,2.04-.62,3.67-.92,4.89-.92.97,0,1.72.25,2.25.74.55.52.83,1.26.83,2.21ZM175.99,64.42c0,.19-.07.35-.21.47-.14.13-.3.18-.48.16-1.76-.16-3.15-.37-4.16-.65-.32-.09-.48-.29-.48-.62,0-.18.06-.34.19-.46s.28-.19.46-.19c.05,0,.11,0,.17.03,1.15.31,2.46.52,3.91.62.16,0,.3.08.42.2.12.13.18.27.18.44Z"/>
      <path class="cls-1" d="M41.01,88.32c0,.36-.18.58-.53.65-1.37.25-2.69.38-3.96.38s-2.18-.1-2.89-.3c-1.16-.33-1.74-.96-1.74-1.89,0-.63.41-1.36,1.24-2.18.11-.11.26-.17.43-.17s.31.06.43.18c.12.12.18.26.18.42,0,.16-.06.29-.17.4-.47.47-.7.87-.7,1.21,0,.72,1.1,1.08,3.3,1.08.87,0,2.09-.13,3.67-.4.19-.03.36.01.52.14.16.13.23.29.23.49ZM39.6,81.6c-.65.26-1.53.74-2.65,1.44-.11.07-.21.1-.3.1-.15,0-.28-.05-.38-.16s-.16-.24-.16-.4c0-.2.09-.35.26-.46l.17-.1c.16-.1.25-.19.25-.29,0-.11-.13-.17-.38-.17-.78,0-1.85-.03-3.2-.08-.16,0-.31-.07-.42-.19s-.18-.26-.18-.43c0-.18.07-.34.2-.46.13-.13.29-.18.47-.18,1.71.12,3.72.13,6.03.04.25,0,.45.05.6.18.15.13.23.29.23.47,0,.3-.18.53-.55.68ZM41.04,84.12c0,.14-.05.26-.15.36-.1.1-.22.15-.36.15-.21,0-.36-.08-.46-.23-.25-.4-.52-.74-.81-1.03-.1-.1-.14-.21-.14-.35,0-.35.17-.52.51-.52.15,0,.28.06.39.2.36.41.67.79.91,1.14.07.1.1.2.1.29ZM42.63,83.38c0,.14-.05.26-.15.36-.1.1-.22.15-.36.15-.2,0-.35-.08-.45-.23-.29-.42-.55-.78-.81-1.05-.1-.1-.14-.21-.14-.32,0-.35.17-.52.52-.52.13,0,.26.06.38.18.3.3.61.69.92,1.16.06.12.09.22.09.29Z"/>
      <path class="cls-1" d="M53.64,81.19c0,.26-.12.45-.36.56,0,0-.51.19-1.5.57-.28.1-.42.25-.42.43,0,.1.05.22.14.34.62.83,1.25,1.58,1.91,2.24.18.18.27.39.27.61,0,.2-.07.37-.21.51-.14.14-.32.21-.54.21-.14,0-.28-.03-.43-.09-1.05-.47-2.12-.7-3.21-.7-.8,0-1.42.12-1.86.36-.44.24-.66.58-.66,1,0,.98,1.06,1.47,3.17,1.47.84,0,1.68-.06,2.52-.18.18-.03.34.02.49.15s.21.28.21.47c0,.16-.05.29-.16.41s-.24.18-.38.2c-.84.11-1.68.17-2.52.17-3.1,0-4.65-.87-4.65-2.6,0-.94.41-1.63,1.23-2.07.63-.34,1.47-.51,2.51-.51.48,0,.94.06,1.4.17.15.03.27.05.36.05.18,0,.27-.06.27-.19,0-.1-.05-.22-.16-.35-.33-.4-.57-.71-.73-.92-.29-.39-.62-.58-1.01-.58-.1,0-.22.01-.35.04-.99.17-2.16.25-3.52.25-.17,0-.32-.06-.44-.18s-.18-.27-.18-.44.06-.32.18-.44c.12-.12.27-.18.44-.18.94,0,1.89-.06,2.86-.17.3-.03.46-.16.46-.39,0-.11-.04-.23-.12-.35l-.44-.73c-.06-.1-.09-.21-.09-.33,0-.17.06-.32.19-.45.13-.13.27-.19.45-.19.26,0,.45.11.57.34.29.57.48.91.56,1.01.28.4.57.6.88.6.1,0,.22-.02.35-.05.54-.16,1.07-.37,1.61-.62.09-.04.18-.06.27-.06.17,0,.32.06.44.19.12.13.18.27.18.45ZM54.62,80.45c0,.13-.05.24-.14.34s-.21.14-.34.14c-.18,0-.4-.16-.65-.48-.18-.24-.36-.49-.55-.73-.1-.1-.14-.2-.14-.33,0-.33.16-.49.49-.49.13,0,.25.06.36.18.36.4.65.76.87,1.09.06.09.09.18.09.27ZM56.15,79.73c0,.13-.05.24-.15.34-.1.1-.21.14-.34.14-.19,0-.33-.07-.43-.22-.28-.41-.53-.74-.77-1-.09-.1-.13-.2-.13-.31,0-.33.16-.49.49-.49.11,0,.23.06.35.18.31.31.61.68.88,1.09.06.12.09.21.09.27Z"/>
      <path class="cls-1" d="M62.68,87.11c-.76,1.5-1.5,2.25-2.2,2.25-.87,0-1.54-.77-2.02-2.31-.37-1.2-.56-2.55-.56-4.07,0-.78.03-1.45.08-2.01.02-.18.09-.33.21-.46.13-.12.28-.18.46-.18.2,0,.37.08.5.23.13.15.19.33.18.53-.06.58-.09,1.25-.09,2.02,0,1,.11,1.98.33,2.96.24,1.08.56,1.62.96,1.62.29,0,.61-.39.98-1.17.11-.23.31-.35.58-.35.18,0,.34.06.46.19.13.13.19.28.19.46,0,.11-.02.21-.06.3ZM68.31,86.71c.03.21-.03.39-.17.56-.14.17-.32.25-.53.25-.18,0-.34-.06-.48-.18-.14-.12-.22-.27-.23-.44-.22-1.97-.85-3.72-1.91-5.25-.08-.11-.12-.24-.12-.38,0-.19.06-.35.19-.48.13-.13.29-.2.48-.2.23,0,.42.1.56.29,1.2,1.66,1.93,3.61,2.21,5.84Z"/>
      <path class="cls-1" d="M80.92,88.31c0,.18-.06.34-.19.46-.13.13-.28.19-.46.19-.12,0-.23-.03-.34-.09-.87-.51-1.64-.9-2.31-1.16-.09-.03-.17-.05-.23-.05-.25,0-.4.17-.44.52-.07.52-.24.91-.52,1.16-.43.39-1.21.58-2.33.58-.71,0-1.3-.13-1.77-.4-.57-.34-.86-.84-.86-1.51,0-.75.36-1.3,1.08-1.65.54-.26,1.23-.39,2.08-.39.1,0,.24,0,.44.01.45.02.68-.17.68-.57v-.36c0-.43-.22-.65-.66-.64-.92.03-1.8.03-2.65.03-.16,0-.29-.06-.4-.18-.11-.12-.16-.25-.16-.41s.06-.29.18-.4c.12-.11.25-.16.41-.16.85.02,1.73.02,2.64,0,.42,0,.64-.23.64-.66v-.05c0-.44-.23-.65-.68-.64-1.05.04-2.04.05-2.98.03-.16,0-.29-.07-.4-.19-.11-.12-.17-.25-.17-.41,0-.16.06-.3.18-.42.12-.11.26-.16.43-.16.97.03,1.96.03,2.96,0,.42,0,.64-.22.64-.62,0-.03,0-.23-.01-.58,0-.17.06-.32.18-.45.12-.13.27-.19.44-.19s.32.06.44.19c.12.13.18.28.18.45v.44c0,.46.23.67.68.62.67-.07,1.4-.16,2.18-.27.17-.03.33.02.46.14s.2.26.2.44c0,.33-.17.52-.51.56-.94.12-1.73.21-2.38.27-.42.04-.62.27-.62.68v.04c0,.46.23.67.68.62.46-.04,1.1-.13,1.91-.25.17-.03.33.02.47.14.14.12.21.26.21.44,0,.34-.16.53-.49.57-.69.1-1.41.18-2.15.25-.42.03-.62.26-.62.68v.59c0,.48.24.79.71.95.88.29,1.85.71,2.9,1.26.23.12.34.31.34.57ZM75.71,87.8c.06-.43-.11-.67-.52-.7-.19-.02-.38-.03-.56-.03-1.25,0-1.87.3-1.87.9,0,.24.12.44.36.58.24.15.55.22.94.22.58,0,.99-.07,1.22-.2.23-.13.38-.39.43-.77Z"/>
      <path class="cls-1" d="M93.99,86.37c0,.12-.03.24-.1.35-.59.96-1.3,1.73-2.12,2.3-.93.63-1.91.95-2.95.95-2.28,0-3.42-1.03-3.42-3.09,0-.84.02-1.95.05-3.31.03-1.11.05-2.31.06-3.61,0-.18.07-.34.21-.47s.3-.2.48-.2c.19,0,.36.07.49.21.14.14.2.3.2.49l-.16,6.62c0,1.36.72,2.04,2.16,2.04.77,0,1.51-.27,2.22-.82.61-.45,1.14-1.05,1.6-1.81.13-.22.33-.33.58-.33.19,0,.35.07.49.2.13.13.2.3.2.49Z"/>
      <path class="cls-1" d="M103.44,82c-.63.12-1.27.22-1.92.3-.36.04-.61.13-.77.27s-.28.38-.36.71c-.49,2.05-1.09,4.03-1.81,5.92-.11.29-.32.43-.64.43-.19,0-.35-.07-.48-.2-.13-.13-.2-.29-.2-.47,0-.09.02-.17.05-.26.74-1.74,1.34-3.59,1.81-5.54.02-.07.03-.13.03-.19,0-.3-.18-.45-.55-.44-.36,0-.7,0-1,0-.17,0-.32-.08-.45-.2-.13-.13-.19-.28-.19-.45,0-.18.07-.34.2-.47.13-.13.29-.19.47-.18.49.02.89.02,1.2.01.49-.02.76-.26.83-.72.03-.19.07-.47.13-.85.06-.38.28-.57.66-.57.18,0,.34.06.47.2.13.13.2.28.2.45,0,.09-.04.3-.1.65,0,.06-.01.12-.01.17,0,.35.19.49.57.43.05,0,.36-.07.91-.18.42-.08.7-.12.86-.12.18,0,.33.06.45.19.12.13.18.29.18.47,0,.36-.18.57-.53.64ZM107.55,88.84c0,.37-.18.58-.55.64-.82.12-1.69.18-2.6.18-2.31,0-3.46-.65-3.46-1.94,0-.29.07-.63.22-1.01.1-.26.3-.39.59-.39.41,0,.61.21.61.62,0,.07-.01.17-.04.29s-.04.22-.04.29c0,.59.74.88,2.22.88.65,0,1.42-.06,2.31-.19.19-.03.36.02.51.15s.22.28.22.47ZM107.18,84.01c0,.18-.07.34-.21.47s-.3.19-.48.18c-1.29-.07-2.67-.04-4.15.09-.18.02-.34-.04-.47-.16-.13-.13-.2-.28-.2-.46,0-.16.05-.31.16-.42.11-.12.24-.18.4-.2,1.46-.15,2.9-.2,4.32-.16.17,0,.32.08.45.21.13.13.19.28.19.46Z"/>
      <path class="cls-1" d="M113.24,88.57c0,.53-.19.98-.56,1.35s-.82.55-1.35.55-.98-.18-1.35-.55c-.37-.37-.55-.82-.55-1.35s.18-.98.55-1.35c.37-.37.82-.56,1.35-.56s.98.19,1.35.56.56.82.56,1.35ZM112.32,88.57c0-.28-.1-.51-.29-.7-.19-.19-.42-.29-.7-.29s-.5.1-.69.29c-.19.2-.29.43-.29.7s.1.5.29.68c.19.19.42.28.69.28s.51-.09.7-.27c.19-.18.29-.41.29-.69Z"/>
      <path class="cls-1" d="M55.92,99.49c0,.16-.06.31-.17.42-.11.12-.25.18-.42.18-.33,0-.82.03-1.47.08-.89.12-1.7.4-2.42.83-.92.55-1.38,1.2-1.38,1.98,0,.95.97,1.58,2.9,1.88.16.03.29.1.39.22.1.12.16.26.16.42,0,.19-.07.35-.22.47-.15.13-.32.18-.51.15-2.71-.4-4.07-1.38-4.07-2.94,0-.68.26-1.3.77-1.89.19-.22.29-.39.29-.51s-.11-.18-.34-.18c-.06,0-.13,0-.22.01-.81.1-1.95.28-3.41.52-.19.03-.36-.01-.51-.14-.15-.13-.22-.28-.22-.47,0-.16.05-.29.16-.42.1-.12.23-.19.39-.21.1,0,.81-.1,2.16-.27.86-.1,1.51-.38,1.95-.82,1.05-1.04,2.07-2.18,3.07-3.41.13-.16.29-.25.49-.25.18,0,.34.06.46.19s.19.28.19.45c0,.15-.06.29-.18.43-.61.7-1.31,1.47-2.12,2.3-.14.14-.21.27-.21.39,0,.22.17.31.52.27.7-.06,1.81-.16,3.33-.3.17-.02.32.03.45.16.13.12.19.27.19.44ZM49.11,97.45c0,.18-.06.34-.19.46-.13.13-.29.19-.47.19-.26,0-.45-.11-.57-.33-.25-.42-.57-.88-.95-1.38-.09-.11-.13-.23-.13-.36,0-.17.06-.32.19-.45s.28-.19.46-.19c.21,0,.38.08.51.25.47.57.82,1.06,1.07,1.47.06.1.09.22.09.34Z"/>
      <path class="cls-1" d="M68.45,102.37c0,.12-.03.24-.1.35-.59.96-1.3,1.73-2.12,2.3-.93.63-1.91.95-2.95.95-2.28,0-3.42-1.03-3.42-3.09,0-.84.02-1.95.05-3.31.03-1.11.05-2.31.06-3.61,0-.18.07-.34.21-.47s.3-.2.48-.2c.19,0,.36.07.49.21.14.14.2.3.2.49l-.16,6.62c0,1.36.72,2.04,2.16,2.04.77,0,1.51-.27,2.22-.82.61-.45,1.14-1.05,1.6-1.81.13-.22.33-.33.58-.33.19,0,.35.07.49.2.13.13.2.3.2.49Z"/>
      <path class="cls-1" d="M81.93,96.63c0,.35-.23.55-.7.62-1.31.2-2.47.74-3.48,1.62-1.01.88-1.52,1.81-1.52,2.78,0,1.36,1.12,2.26,3.37,2.69.37.07.56.29.56.66,0,.21-.08.38-.24.52-.16.14-.34.19-.55.16-1.26-.22-2.27-.61-3.03-1.17-.95-.69-1.43-1.61-1.43-2.76,0-.92.32-1.77.95-2.55.25-.31.53-.59.83-.85.26-.22.39-.4.39-.56,0-.21-.22-.29-.66-.26-1.35.12-2.79.27-4.33.46-.19.03-.36-.03-.49-.16-.14-.13-.21-.29-.21-.48,0-.16.05-.31.16-.43.11-.12.24-.19.41-.21,1.57-.16,4.63-.39,9.19-.7.23-.02.42.03.57.15.15.12.22.27.22.46Z"/>
      <path class="cls-1" d="M87.42,105.41c0,.21-.07.38-.21.52s-.31.21-.52.21c-.23,0-.41-.09-.56-.26-.51-.62-1.03-1.14-1.55-1.59-.16-.14-.25-.31-.25-.52s.07-.37.2-.5c.13-.13.3-.2.5-.2.17,0,.33.06.46.17.73.63,1.31,1.19,1.74,1.68.12.13.18.29.18.49Z"/>
      <path class="cls-1" d="M108.8,102.36c0,.15-.05.28-.16.38-.11.11-.24.16-.38.16h-3.95c-.39,0-.59.19-.59.58v1.12c0,.67-.1,1.1-.31,1.29-.21.19-.65.29-1.34.29h-1.47c-.16,0-.29-.06-.4-.17-.11-.11-.17-.25-.17-.4s.06-.29.17-.4.25-.17.4-.17h1.04c.35,0,.57-.03.66-.1.13-.1.2-.32.2-.66v-.79c0-.39-.2-.58-.58-.58h-4.24c-.15,0-.27-.05-.38-.16s-.16-.24-.16-.38.05-.27.16-.38.23-.16.38-.16h4.3c.35,0,.52-.11.52-.34,0-.14.06-.27.18-.38.12-.12.26-.18.44-.18.1,0,.29-.05.57-.13.13-.06.26-.13.38-.22.13-.09.19-.17.19-.25,0-.11-.12-.17-.35-.17h-4.13c-.14,0-.26-.05-.36-.16-.1-.1-.15-.23-.15-.38,0-.14.05-.26.15-.36.1-.1.22-.15.36-.15h5.86c.55,0,.83.2.83.61,0,.29-.24.62-.71.96-.15.11-.52.34-1.12.68-.16.09-.23.18-.23.27,0,.12.11.18.34.18h3.52c.15,0,.27.05.38.16.11.1.16.23.16.38ZM108.37,99.53c0,.17-.06.31-.18.42s-.26.18-.42.18-.31-.06-.42-.18-.18-.26-.18-.42v-.66c0-.37-.19-.56-.56-.56h-7.36c-.37,0-.56.19-.56.56v.66c0,.17-.06.31-.18.42s-.26.18-.42.18-.31-.06-.42-.18-.18-.26-.18-.42v-1.2c0-.74.37-1.1,1.1-1.1h5.4c.49,0,.85-.21,1.1-.62.25-.41.5-.86.75-1.36.11-.23.29-.34.53-.34.17,0,.32.06.44.19.12.13.18.27.18.42,0,.09-.02.16-.05.22-.2.36-.38.67-.55.94-.06.1-.09.18-.09.26,0,.19.13.29.39.29h.56c.74,0,1.1.37,1.1,1.1v1.2ZM100.68,96.56c0,.17-.06.31-.18.42-.12.12-.26.18-.42.18-.2,0-.41-.15-.64-.44-.15-.23-.3-.47-.46-.7-.07-.1-.1-.21-.1-.35,0-.16.06-.29.17-.41.11-.12.25-.18.4-.18.17,0,.32.07.43.21.23.28.46.59.69.94.07.1.1.22.1.34ZM103.6,96.38c0,.17-.05.3-.16.42-.11.11-.25.17-.42.17-.25,0-.43-.1-.54-.31s-.22-.42-.33-.62c-.17-.33-.26-.54-.26-.64,0-.16.06-.3.17-.42s.25-.17.42-.17c.23,0,.39.08.49.25.03.03.21.38.56,1.03.05.1.08.19.08.3Z"/>
      <path class="cls-1" d="M121.94,100.75c0,.16-.05.29-.16.4s-.24.16-.4.16c-.16,0-.3-.06-.4-.18l-.29-.34c-.07-.09-.14-.13-.21-.13-.1,0-.17.07-.22.21-.18.48-.53,1.11-1.05,1.91-.08.11-.12.22-.12.33,0,.2.25.49.75.88.45.36,1,.7,1.65,1.03.22.11.32.29.32.53,0,.17-.06.32-.18.43-.12.11-.26.17-.43.17-.11,0-.22-.03-.31-.08-.88-.47-1.68-1.05-2.41-1.74-.09-.1-.19-.14-.29-.14s-.19.05-.27.14c-.55.61-1.34,1.19-2.37,1.75-.1.05-.19.08-.3.08-.16,0-.31-.06-.43-.18-.12-.12-.18-.26-.18-.42,0-.24.1-.42.3-.52.82-.44,1.55-.94,2.17-1.5.14-.12.21-.25.21-.39,0-.11-.04-.22-.12-.31-.35-.44-.69-1.09-1.03-1.94-.06-.14-.14-.21-.25-.21-.07,0-.14.04-.21.12l-.25.3c-.1.12-.24.18-.4.18-.15,0-.27-.05-.38-.16,0,.14-.05.26-.16.35s-.23.14-.36.14c-.17,0-.29-.05-.36-.16-.1-.15-.21-.33-.33-.55-.06-.1-.12-.16-.18-.16-.09,0-.13.07-.13.22v4.84c0,.15-.05.27-.16.38-.1.11-.23.16-.38.16-.16,0-.29-.05-.4-.16-.11-.11-.16-.24-.16-.38v-4.38c0-.14-.03-.21-.1-.21-.06,0-.12.06-.17.17-.14.3-.33.68-.56,1.12-.1.19-.26.29-.48.29-.15,0-.27-.05-.38-.16s-.16-.23-.16-.38c0-.1.03-.19.08-.29.76-1.34,1.32-2.48,1.66-3.42.04-.11.06-.2.06-.27,0-.21-.16-.31-.48-.31h-.66c-.15,0-.27-.05-.38-.16s-.16-.23-.16-.38.05-.27.16-.37c.1-.1.23-.15.38-.15h.66c.35,0,.52-.17.52-.52v-1.14c0-.15.05-.27.16-.38s.24-.16.4-.16c.15,0,.27.05.38.16s.16.24.16.38v1.14c0,.35.17.52.52.52h.48c.35,0,.52.17.52.52,0,.15-.05.27-.15.38s-.22.16-.37.16h-.55c-.28,0-.42.12-.42.36,0,.12.03.25.1.39.31.64.71,1.31,1.21,2,0-.15.05-.28.16-.39.74-.81,1.29-1.59,1.67-2.35.09-.2.26-.3.48-.3.35,0,.52.18.52.53,0,.1-.02.19-.05.25l-.21.36c-.18.32-.23.67-.14,1.04.12.53.44,1.21.96,2.05.1.17.2.26.3.26.08,0,.16-.06.25-.19.38-.54.71-1.24.97-2.12.04-.15.07-.29.07-.42,0-.21-.06-.42-.18-.64l-.19-.34c-.04-.06-.05-.14-.05-.25,0-.16.05-.29.15-.39s.23-.16.38-.16c.22,0,.37.1.47.29.38.77.96,1.56,1.72,2.37.1.1.14.23.14.39ZM121.89,96.94c0,.16-.05.29-.16.39-.11.1-.24.16-.4.16h-6.15c-.16,0-.29-.05-.39-.16s-.16-.23-.16-.39.05-.29.16-.4c.11-.11.24-.16.38-.16h1.87c.35,0,.52-.17.52-.52v-.51c0-.16.06-.3.17-.41.11-.11.25-.16.42-.16s.3.05.41.16c.11.11.16.25.16.41v.51c0,.35.17.52.52.52h2.08c.16,0,.29.05.4.16.11.11.16.24.16.4Z"/>
      <path class="cls-1" d="M134.14,99.71c0,.26-.12.44-.36.55-.58.24-1.13.49-1.64.74-.36.17-.58.36-.66.55-.06.14-.09.42-.09.83v.83c0,.17-.06.32-.18.44s-.27.18-.44.18-.32-.06-.44-.18c-.12-.12-.17-.26-.17-.44v-.49c0-.3-.11-.46-.34-.46-.1,0-.2.04-.31.1-1.05.65-1.57,1.21-1.57,1.68,0,.27.18.46.53.58.36.12.96.18,1.82.18.68,0,1.57-.07,2.69-.22.18-.03.34.02.47.14.13.12.2.27.2.46,0,.16-.05.29-.16.41-.1.12-.23.18-.39.2-.99.11-1.96.17-2.91.17s-1.75-.08-2.28-.25c-.88-.29-1.33-.81-1.33-1.57,0-.88.96-1.89,2.87-3.03.31-.18.47-.36.47-.55,0-.23-.18-.34-.55-.34-.5,0-1.14.24-1.91.71-.62.39-1.17.82-1.65,1.3l-.34.4c-.14.13-.29.19-.46.19-.17,0-.32-.06-.44-.18-.12-.12-.18-.26-.18-.44,0-.16.05-.29.14-.4.9-1.08,1.66-2.17,2.26-3.25.06-.1.09-.2.09-.3,0-.23-.16-.33-.48-.33-.29,0-.71.01-1.26.01-.16,0-.29-.06-.4-.17s-.16-.25-.16-.4c0-.16.06-.3.18-.42.12-.11.25-.16.41-.16.54.02,1.13.02,1.78,0,.51,0,.86-.25,1.04-.71l.26-.68c.1-.27.3-.4.58-.4.17,0,.32.06.44.18.12.12.18.26.18.43,0,.08-.01.15-.04.22-.04.1-.07.17-.08.19-.04.1-.05.18-.05.26,0,.25.16.36.47.32.33-.03.95-.12,1.87-.26.17-.03.33.02.47.14.14.12.21.26.21.44,0,.35-.17.54-.52.58-.87.11-1.64.2-2.33.25-.38.03-.67.12-.87.24-.19.13-.38.35-.55.67-.02.03-.06.1-.13.21-.09.16-.14.3-.14.4,0,.13.08.2.23.2.09,0,.22-.03.38-.09.46-.17.88-.26,1.26-.26.52,0,.92.17,1.2.52.19.23.37.35.55.35.09,0,.2-.03.31-.08l1.57-.77c.09-.04.17-.06.26-.06.17,0,.31.06.42.18.12.12.18.26.18.44Z"/>
      <path class="cls-1" d="M139.89,95.33s0,.1-.03.16c-.16.54-.31,1.03-.47,1.47s-.24.86-.24,1.26v7.5c0,.16-.06.31-.18.42-.12.12-.26.18-.42.18s-.31-.06-.42-.18c-.12-.12-.18-.26-.18-.42v-4.82c0-.23-.07-.34-.2-.34-.1,0-.19.06-.27.19l-.29.43c-.11.16-.27.25-.48.25-.16,0-.3-.06-.42-.17-.11-.11-.17-.25-.17-.42,0-.13.04-.24.1-.34,1.11-1.53,1.95-3.31,2.51-5.32.08-.29.26-.43.56-.43.16,0,.29.06.41.18.12.12.17.25.17.4ZM148.18,104.04c0,.16-.06.31-.17.42-.12.12-.26.18-.42.18-.17,0-.31-.06-.42-.2-.8-.96-1.54-2.03-2.22-3.2-.09-.15-.18-.22-.27-.22-.13,0-.2.11-.2.33v4.28c0,.16-.06.3-.17.42-.11.11-.25.17-.42.17s-.3-.06-.42-.17-.18-.25-.18-.42v-4.29c0-.22-.06-.32-.18-.32-.1,0-.18.07-.26.22-.51,1-1.24,2.06-2.18,3.2-.11.14-.26.21-.46.21-.16,0-.29-.06-.4-.17-.11-.11-.17-.25-.17-.42s.05-.29.16-.4c1.13-1.23,2.15-2.78,3.08-4.65.05-.11.08-.22.08-.31,0-.27-.17-.4-.51-.4h-1.98c-.16,0-.3-.06-.42-.17-.11-.11-.17-.25-.17-.42,0-.16.06-.29.17-.4.11-.11.25-.17.42-.17h2.24c.39,0,.58-.19.58-.58v-1.14c0-.16.06-.3.18-.42.12-.11.26-.17.42-.17s.3.06.42.17c.11.11.17.25.17.42v1.14c0,.39.2.58.59.58h2.34c.16,0,.3.06.42.17.11.11.17.25.17.4,0,.17-.06.3-.17.42-.11.11-.25.17-.42.17h-2.09c-.34,0-.51.13-.51.4,0,.09.03.19.08.3.6,1.33,1.65,2.89,3.16,4.68.1.11.14.24.14.38Z"/>
      <path class="cls-1" d="M160.93,102.5c-.3.89-.72,1.65-1.25,2.28-.61.71-1.29,1.07-2.07,1.07-.65,0-1.13-.17-1.44-.51-.27-.3-.45-.78-.55-1.44-.13-.88-.2-1.37-.22-1.46-.11-.51-.3-.77-.57-.77-.39,0-.94.39-1.65,1.18-.77.86-1.26,1.56-1.48,2.11l-.17.43c-.1.23-.3.35-.61.35-.19,0-.35-.06-.47-.2-.13-.13-.19-.29-.19-.47,0-.08.01-.15.04-.22.8-2.25,2.01-5.32,3.63-9.19.11-.28.32-.42.61-.42.19,0,.35.07.48.2.13.13.2.29.2.47,0,.1-.02.19-.05.27-.35.78-.94,2.14-1.78,4.07-.08.19-.12.35-.12.47,0,.17.06.25.18.25s.27-.07.46-.21c.4-.3.78-.45,1.16-.45.62,0,1.06.24,1.3.73.17.34.33.97.47,1.89.09.59.16.95.22,1.09.1.29.29.43.56.43.81,0,1.5-.83,2.07-2.48.1-.3.32-.46.64-.46.19,0,.35.07.48.2s.2.3.2.5c0,.1-.02.19-.05.29Z"/>
      <path class="cls-1" d="M169.68,98c-.73.14-1.37.24-1.92.3-.36.04-.61.13-.77.27s-.28.38-.36.71c-.52,2.28-1.12,4.25-1.81,5.92-.12.29-.33.43-.64.43-.19,0-.35-.07-.48-.2s-.2-.29-.2-.47c0-.1.02-.18.05-.26.69-1.62,1.3-3.47,1.81-5.54.02-.07.03-.13.03-.19,0-.3-.18-.45-.55-.44-.36,0-.7,0-1,0-.17,0-.32-.08-.45-.2-.13-.13-.19-.28-.19-.45,0-.18.07-.34.2-.47s.29-.19.47-.18c.49.02.89.02,1.2.01.49-.02.77-.26.83-.72.03-.18.07-.46.13-.84s.28-.57.66-.57c.18,0,.34.06.47.2.13.13.2.28.2.45,0,.09-.04.3-.1.65,0,.06-.01.12-.01.17,0,.35.19.49.57.43.05,0,.35-.07.91-.18.42-.08.7-.12.86-.12.18,0,.33.06.45.19.12.13.18.29.18.47,0,.36-.18.57-.53.64ZM173.79,104.84c0,.16-.05.31-.16.43-.1.12-.23.19-.39.21-.97.12-1.84.18-2.6.18-2.31,0-3.46-.65-3.46-1.94,0-.31.07-.65.22-1.01.1-.26.3-.39.58-.39.42,0,.62.21.62.62,0,.07-.02.17-.05.29-.03.13-.05.22-.05.29,0,.59.75.88,2.24.88.58,0,1.35-.06,2.31-.19.19-.03.36.02.51.15s.22.28.22.47ZM173.43,100.01c0,.18-.07.34-.21.47s-.3.19-.48.18c-1.33-.1-2.72-.06-4.15.09-.18.02-.34-.04-.47-.16-.13-.13-.2-.28-.2-.46,0-.16.05-.31.16-.42.11-.12.24-.18.4-.2,1.72-.15,3.16-.2,4.32-.16.17,0,.32.08.45.21.13.13.19.28.19.46ZM172.8,97.73c0,.14-.05.26-.15.36s-.22.15-.36.15c-.21,0-.36-.08-.46-.23-.25-.4-.52-.74-.81-1.03-.1-.1-.14-.21-.14-.35,0-.35.17-.52.51-.52.15,0,.28.06.39.2.36.41.67.79.91,1.14.07.1.1.2.1.29ZM174.39,96.99c0,.14-.05.26-.15.36s-.22.15-.36.15c-.2,0-.35-.08-.46-.23-.29-.42-.55-.78-.81-1.05-.1-.1-.14-.21-.14-.32,0-.35.17-.52.52-.52.13,0,.25.06.38.18.3.3.61.69.92,1.16.06.12.09.22.09.29Z"/>
      <path class="cls-1" d="M186.18,104.66c0,.37-.19.58-.56.64-1.43.2-2.86.3-4.29.3-2.55,0-3.82-.77-3.82-2.3,0-.94.65-1.91,1.96-2.91.26-.2.39-.43.39-.69,0-.12-.03-.25-.08-.39-.38-.96-.7-2-.95-3.11,0-.04-.01-.09-.01-.14,0-.19.07-.35.2-.49.13-.13.3-.2.49-.2.16,0,.31.06.44.17.12.11.21.25.24.42.17.87.4,1.74.71,2.61.1.29.27.43.49.43.12,0,.25-.04.38-.12.08-.04,1.04-.57,2.87-1.57.11-.06.22-.09.31-.09.18,0,.34.07.46.2.13.13.19.29.19.47,0,.27-.12.46-.36.58-1.07.53-2.22,1.15-3.46,1.87-.79.46-1.42.89-1.89,1.29-.68.58-1.01,1.11-1.01,1.59,0,.78.81,1.17,2.44,1.17,1.34,0,2.71-.12,4.09-.35.19-.03.36.01.52.14.16.13.23.29.23.49Z"/>
      <path class="cls-1" d="M44.38,114.66c0,.28-.13.46-.4.56-.57.2-1.09.36-1.56.47-.28.07-.42.2-.42.4,0,.11.04.23.13.35.42.59.82,1.09,1.18,1.51.12.14.18.29.18.47,0,.2-.07.37-.21.51-.14.14-.31.21-.51.21-.1,0-.2-.02-.3-.05-1.15-.46-2.24-.69-3.25-.69-1.66,0-2.5.39-2.5,1.18s1.05,1.16,3.15,1.16c.72,0,1.53-.05,2.44-.14.17-.02.33.03.47.15.14.12.21.26.21.44,0,.36-.18.55-.55.58-.82.09-1.69.13-2.6.13-2.92,0-4.38-.76-4.38-2.29s1.17-2.27,3.51-2.27c.55,0,1.18.08,1.91.25.07.02.13.03.18.03.17,0,.26-.06.26-.18,0-.09-.04-.19-.13-.3-.04-.06-.16-.22-.35-.48-.23-.32-.52-.48-.87-.48-.1,0-.22,0-.35.03-1.2.17-2.53.24-3.96.22-.16,0-.29-.06-.4-.17-.11-.11-.16-.25-.16-.4s.06-.29.17-.41c.11-.12.25-.17.4-.16,1.07.04,2.22-.01,3.45-.14.33-.04.49-.17.49-.39,0-.1-.03-.2-.1-.3-.21-.36-.51-.51-.9-.47-.75.09-1.6.13-2.57.13-.15,0-.28-.06-.4-.17-.12-.11-.18-.24-.18-.39,0-.16.06-.29.18-.4.12-.11.25-.16.4-.16.72,0,1.39-.01,2-.06.36-.03.55-.15.55-.35,0,0-.08-.2-.23-.57-.03-.06-.04-.13-.04-.21,0-.17.06-.32.18-.45.12-.13.27-.19.46-.19.29,0,.48.14.58.42.03.1.1.26.18.48.13.33.35.49.65.49.08,0,.16-.01.25-.04.61-.16,1.21-.34,1.82-.56.07-.03.13-.04.19-.04.16,0,.31.06.42.17.12.11.18.25.18.42,0,.29-.14.49-.42.57-.64.21-1.2.37-1.69.48-.31.07-.47.21-.47.43,0,.1.03.19.1.29l.03.04c.18.28.4.42.66.42.07,0,.14,0,.22-.03.68-.16,1.33-.36,1.92-.58.04-.02.1-.03.18-.03.16,0,.31.06.42.17.12.11.18.25.18.42Z"/>
      <path class="cls-1" d="M49.84,112.04c-.33,1.97-.49,3.9-.49,5.8,0,1.09.06,2.15.17,3.19.03.2-.03.37-.16.52s-.3.22-.5.22c-.17,0-.32-.06-.46-.18-.13-.12-.2-.26-.22-.43-.1-1.01-.14-2.1-.14-3.29,0-2.01.16-4.02.49-6.03.06-.37.28-.56.65-.56.2,0,.37.08.51.23.14.16.19.33.16.53ZM58.29,120.15c0,.18-.06.33-.18.46-.12.12-.27.18-.46.18-.15,0-.27-.04-.38-.12-.17-.12-.42-.29-.75-.49-.1-.07-.2-.1-.3-.1-.19,0-.34.15-.46.44-.31.83-1.12,1.25-2.42,1.25-.66,0-1.21-.14-1.66-.42-.54-.33-.81-.8-.81-1.42s.23-1.09.68-1.44c.45-.34,1.07-.51,1.86-.51.23,0,.45.02.68.05.21.03.37,0,.47-.08.11-.09.16-.24.16-.44l-.04-2c0-.44-.23-.65-.68-.62-.67.04-1.43.04-2.27.03-.17,0-.31-.06-.42-.18-.12-.12-.18-.26-.18-.43,0-.17.06-.32.19-.44s.27-.17.45-.16c.75.03,1.51.03,2.26,0,.42-.02.62-.24.61-.68v-1.16c-.01-.17.05-.32.17-.45.12-.13.27-.19.44-.19s.32.06.44.18c.12.12.18.27.18.44v.98c.02.41.2.61.56.61.04,0,.1,0,.16-.01l.79-.14c.18-.03.35,0,.49.12s.22.27.22.46c0,.31-.2.52-.58.64-.06.02-.39.07-.99.14-.41.05-.61.28-.6.69l.04,2.46c0,.49.24.84.69,1.07.51.26.95.51,1.33.74.2.13.3.31.3.55ZM54.63,119.92c.03-.08.04-.15.04-.22,0-.29-.17-.46-.52-.53-.27-.05-.52-.08-.77-.08-.87,0-1.3.26-1.3.78,0,.23.11.41.34.55.23.14.51.21.86.21.75,0,1.2-.23,1.35-.7Z"/>
      <path class="cls-1" d="M69.99,119.01c0,.18-.06.34-.2.47-.13.13-.29.2-.48.2s-.35-.07-.48-.2c-.56-.58-1.1-1.09-1.61-1.52-.14-.12-.28-.18-.42-.18-.17,0-.34.1-.49.29-1.07,1.29-2.46,2.45-4.17,3.48-.1.06-.22.09-.35.09-.19,0-.35-.07-.49-.2-.13-.13-.2-.3-.2-.49,0-.25.12-.45.35-.58,1.6-.94,2.88-1.96,3.83-3.08.11-.14.17-.28.17-.42,0-.18-.1-.34-.3-.48-.49-.33-1.15-.74-1.98-1.22-.23-.13-.34-.32-.34-.56,0-.17.07-.32.2-.46.13-.13.28-.19.46-.19.1,0,.22.03.34.1.65.37,1.32.79,2,1.26.15.1.29.16.42.16.2,0,.36-.12.48-.35.43-.83.81-1.78,1.12-2.85.1-.33.31-.49.65-.49.19,0,.35.07.49.21s.2.3.2.48c0,.07-.01.14-.04.22-.4,1.21-.84,2.25-1.33,3.12-.1.18-.16.35-.16.51,0,.24.12.46.36.66.71.59,1.29,1.1,1.74,1.52.15.14.22.31.22.51Z"/>
      <path class="cls-1" d="M84.42,116.28c0,.19-.06.35-.19.48s-.28.2-.47.2h-9.58c-.19,0-.35-.07-.47-.2-.13-.13-.19-.29-.19-.48s.06-.35.19-.48c.13-.13.28-.2.47-.2h9.58c.19,0,.35.07.47.2s.19.29.19.48Z"/>
      <path class="cls-1" d="M90.18,114.2c0,1.6-.1,2.87-.29,3.8-.26,1.28-.78,2.47-1.55,3.55-.15.21-.34.31-.58.31-.19,0-.36-.07-.49-.2-.14-.13-.21-.3-.21-.5,0-.17.05-.31.14-.43.68-.88,1.15-1.92,1.4-3.09.18-.86.27-2.01.27-3.47v-1.56c0-.18.06-.34.19-.47.13-.13.29-.2.47-.2s.32.06.45.2c.13.13.19.29.19.47v1.6ZM97.84,117.31c0,.13-.03.24-.09.34-1.05,1.72-2.44,3.01-4.19,3.88-.26.13-.5.19-.73.19-.29,0-.51-.1-.68-.3s-.25-.46-.25-.79v-8.07c0-.18.06-.34.19-.47s.29-.19.47-.19.33.06.46.19c.13.13.2.29.2.47v6.71c0,.43.13.65.38.65.13,0,.29-.06.48-.18.81-.49,1.66-1.42,2.52-2.77.14-.22.33-.33.58-.33.18,0,.34.07.47.2.13.13.2.29.2.48Z"/>
      <path class="cls-1" d="M110.27,112.63c0,.35-.23.55-.7.62-1.31.2-2.47.74-3.48,1.62-1.01.88-1.52,1.81-1.52,2.78,0,1.4,1.12,2.3,3.37,2.69.37.06.56.28.56.66,0,.21-.08.38-.24.53-.16.14-.34.19-.55.15-1.34-.26-2.37-.66-3.07-1.2-.93-.72-1.39-1.63-1.39-2.73,0-.94.32-1.79.95-2.55.28-.33.55-.61.82-.83s.4-.42.4-.57c0-.21-.22-.29-.66-.26-1.78.16-3.22.31-4.33.46-.19.03-.36-.03-.49-.16-.14-.13-.21-.29-.21-.48,0-.16.05-.31.16-.44.11-.13.25-.19.41-.2,1.59-.16,4.66-.39,9.19-.7.23,0,.42.05.57.16.15.12.22.27.22.45ZM109.56,116.46c0,.14-.05.26-.15.36s-.22.15-.36.15c-.21,0-.36-.08-.46-.23-.25-.4-.52-.74-.81-1.03-.1-.1-.14-.21-.14-.35,0-.35.17-.52.51-.52.15,0,.28.07.39.2.36.41.67.79.91,1.14.07.1.1.2.1.29ZM111.15,115.72c0,.14-.05.26-.15.36s-.22.15-.36.15c-.2,0-.35-.08-.46-.23-.29-.42-.55-.78-.81-1.05-.1-.1-.14-.21-.14-.32,0-.35.17-.52.52-.52.13,0,.26.06.38.18.3.3.61.69.92,1.16.06.12.09.22.09.29Z"/>
      <path class="cls-1" d="M122.62,120.76c0,.37-.19.59-.56.64-1.43.2-2.86.3-4.29.3-2.55,0-3.82-.77-3.82-2.3,0-.94.65-1.91,1.96-2.91.27-.21.4-.44.4-.69,0-.12-.03-.25-.09-.39-.3-.74-.62-1.77-.95-3.11,0-.03-.01-.08-.01-.14,0-.19.07-.35.2-.49.13-.13.3-.2.49-.2.16,0,.31.06.44.17.12.11.21.25.24.42.18.93.42,1.8.71,2.61.1.29.27.43.49.43.12,0,.25-.04.38-.12.67-.36,1.62-.89,2.87-1.57.11-.06.22-.09.31-.09.18,0,.34.06.46.2.12.13.19.29.19.47,0,.28-.12.47-.37.58-1.19.56-2.34,1.19-3.46,1.87-.9.55-1.53.98-1.89,1.29-.68.59-1.01,1.12-1.01,1.59,0,.78.81,1.17,2.44,1.17,1.34,0,2.71-.12,4.09-.35.19-.03.37.01.52.14.15.13.23.29.23.49ZM122.81,112.65c0,.13-.04.24-.14.34-.09.1-.21.14-.34.14-.18,0-.4-.16-.65-.48l-.54-.73c-.1-.1-.14-.2-.14-.33,0-.33.17-.49.49-.49.13,0,.25.06.37.18.36.4.64.76.87,1.09.06.09.09.18.09.27ZM124.33,111.94c0,.13-.05.24-.15.34-.1.1-.21.14-.34.14-.19,0-.33-.07-.43-.22-.28-.41-.53-.74-.77-1-.09-.1-.13-.2-.13-.31,0-.33.16-.49.49-.49.11,0,.23.06.35.18.31.31.61.68.88,1.09.06.12.09.21.09.27Z"/>
      <path class="cls-1" d="M136.96,118.5c-.3.89-.72,1.65-1.25,2.28-.61.71-1.29,1.07-2.07,1.07-.65,0-1.13-.17-1.44-.51-.27-.3-.45-.78-.55-1.44-.13-.88-.2-1.37-.22-1.46-.11-.51-.3-.77-.57-.77-.39,0-.94.39-1.65,1.18-.77.86-1.26,1.56-1.48,2.11l-.17.43c-.1.23-.3.35-.61.35-.19,0-.35-.07-.47-.2s-.19-.29-.19-.47c0-.08.01-.15.04-.22.8-2.25,2.01-5.32,3.63-9.19.11-.28.32-.42.61-.42.19,0,.35.07.48.2.13.13.2.29.2.47,0,.1-.02.19-.05.27-.35.78-.94,2.14-1.78,4.07-.08.19-.12.35-.12.47,0,.17.06.25.18.25s.27-.07.46-.21c.4-.3.78-.45,1.16-.45.62,0,1.06.24,1.3.73.17.34.33.97.47,1.88.09.59.16.95.22,1.09.1.29.29.43.56.43.81,0,1.5-.83,2.07-2.48.1-.3.32-.46.64-.46.19,0,.35.07.48.2.13.13.2.3.2.5,0,.1-.02.19-.05.29Z"/>
      <path class="cls-1" d="M145.11,113.97c-.44.1-.87.17-1.29.23-.49.08-.81.35-.97.81-.61,1.74-1.3,3.4-2.07,4.97-.12.25-.32.38-.6.38-.18,0-.34-.07-.47-.2-.13-.13-.19-.29-.19-.47,0-.1.03-.21.08-.31.73-1.4,1.36-2.83,1.88-4.26.03-.09.05-.18.05-.25,0-.27-.18-.4-.55-.4h-.74c-.17,0-.32-.06-.44-.19-.12-.13-.18-.27-.18-.45,0-.18.07-.34.2-.46.13-.13.29-.18.47-.18.38.02.74.02,1.07.01.53,0,.86-.27.99-.79.07-.29.14-.59.22-.88.13-.33.34-.49.64-.49.18,0,.34.06.47.19s.2.28.2.46c0,.07-.04.26-.13.56-.03.1-.04.19-.04.27,0,.26.12.39.35.39.04,0,.09,0,.14-.01l.68-.14c.08-.02.13-.03.16-.03.17,0,.31.06.42.19s.16.28.16.46c0,.33-.17.53-.49.6ZM150.03,120.4c0,.17-.06.33-.19.46s-.28.19-.46.19c-.11,0-.23-.04-.35-.12-.29-.19-.59-.37-.91-.55-.1-.06-.2-.09-.29-.09-.21,0-.36.15-.44.46-.25.88-1.02,1.31-2.31,1.31-.68,0-1.26-.15-1.72-.44-.55-.34-.82-.83-.82-1.48s.26-1.13.77-1.47c.44-.29,1-.44,1.68-.44.19,0,.41.02.65.05.2.03.35,0,.46-.09.11-.09.16-.23.16-.44v-1.9c-.01-.17.05-.32.17-.45.12-.13.27-.19.44-.19s.32.06.44.18c.12.12.18.27.18.44v2.18c.01.48.25.82.73,1.04.42.19.91.46,1.48.79.22.13.33.31.33.55ZM146.25,120.04c0-.36-.21-.58-.62-.65-.25-.04-.47-.06-.66-.06-.79,0-1.18.28-1.18.83,0,.25.11.45.32.59.21.14.49.21.83.21.61,0,1-.15,1.18-.44.09-.16.14-.32.14-.48ZM150.15,114.6c0,.17-.06.32-.19.45-.13.12-.28.19-.45.19-.12,0-.24-.04-.35-.12-.66-.44-1.36-.82-2.09-1.13-.24-.1-.36-.29-.36-.57,0-.17.06-.32.19-.44.13-.12.27-.18.44-.18.1,0,.17.02.23.05.81.35,1.58.75,2.29,1.21.2.13.3.31.3.55Z"/>
      <path class="cls-1" d="M163.48,116.51c0,.16-.05.29-.16.4s-.24.16-.38.16-.27-.05-.38-.16-.16-.24-.16-.4v-.48c0-.36-.18-.53-.53-.53h-4.52c-.36,0-.53.18-.53.53v.42c.06-.04.13-.05.22-.05h4.33c.66,0,.99.25.99.74,0,.17-.04.35-.13.53-.3.64-.7,1.23-1.18,1.77-.13.14-.2.27-.2.4,0,.17.09.3.29.4.52.29,1.11.53,1.77.74.29.09.43.28.43.58,0,.17-.06.32-.18.43s-.25.17-.41.17c-.08,0-.15-.01-.22-.04-.86-.32-1.59-.68-2.2-1.07-.22-.14-.42-.21-.62-.21s-.42.07-.65.22c-.62.4-1.34.76-2.17,1.08-.07.03-.13.04-.2.04-.16,0-.29-.06-.41-.17-.12-.11-.18-.25-.18-.4,0-.28.13-.46.4-.55.63-.22,1.23-.49,1.81-.82.19-.11.29-.25.29-.42,0-.12-.06-.26-.17-.4-.4-.5-.71-1.04-.95-1.6-.11-.28-.28-.43-.51-.46s-.37-.16-.41-.4c-.09.06-.18.09-.29.09-.09,0-.17-.02-.23-.05-.04.17-.14.29-.31.38-.03.02-.19.08-.48.18-.39.14-.58.41-.58.81v2.43c0,.49-.1.84-.29,1.05s-.53.33-1.01.33h-.55c-.16,0-.29-.05-.4-.16-.11-.11-.17-.24-.17-.4s.06-.29.17-.4.25-.17.4-.17h.25c.19,0,.31-.05.36-.14.05-.09.08-.25.08-.47v-1.75c0-.31-.14-.47-.42-.47-.05,0-.1,0-.16.01l-.33.06c-.18.04-.35,0-.49-.12-.15-.11-.22-.26-.22-.45,0-.34.16-.54.49-.6.1-.02.26-.05.48-.09.42-.1.64-.36.64-.79v-1.25c0-.35-.17-.52-.52-.52h-.43c-.16,0-.29-.06-.4-.17-.11-.11-.17-.25-.17-.4s.06-.29.17-.4.25-.17.4-.17h.43c.35,0,.52-.17.52-.52v-1.42c0-.16.06-.3.17-.42.11-.11.25-.17.42-.17.16,0,.29.06.4.18.11.12.17.25.17.41v1.42c0,.35.17.52.52.52h.25c.16,0,.29.06.4.17.11.11.17.25.17.4s-.06.29-.17.4-.25.17-.4.17h-.25c-.35,0-.52.17-.52.52v.96c0,.31.13.47.39.47.07,0,.14-.01.21-.04.16-.05.32-.05.47.01v-.86c0-.71.36-1.07,1.07-1.07h3.37c.42,0,.74-.18.94-.54.2-.36.4-.77.6-1.24.1-.24.28-.36.52-.36.16,0,.3.06.42.17.11.11.17.25.17.4,0,.09-.02.17-.07.26-.1.21-.26.49-.46.84-.05.1-.08.18-.08.26,0,.14.08.21.23.21.71,0,1.07.36,1.07,1.07v.96ZM162.54,111.46c0,.29-.13.46-.4.52-1.34.3-3.12.55-5.33.74-.16.02-.29-.03-.4-.13-.11-.1-.17-.23-.17-.39,0-.14.05-.26.14-.36s.21-.16.35-.17c1.91-.11,3.63-.35,5.17-.71h.12c.35-.01.52.16.52.51ZM158.07,113.9c0,.15-.05.27-.16.37-.1.1-.23.15-.38.15-.2,0-.35-.09-.46-.26-.07-.11-.2-.32-.4-.61-.06-.09-.09-.19-.09-.3,0-.14.05-.26.15-.36s.22-.16.37-.16c.16,0,.3.06.4.2.2.25.36.48.48.68.05.09.08.19.08.3ZM160.9,117.87c.05-.1.08-.18.08-.25,0-.16-.14-.23-.43-.23h-1.55c-.27,0-.4.1-.4.31,0,.07.02.15.06.23.2.36.42.68.68.96.11.13.24.2.38.2.13,0,.26-.07.38-.2.39-.42.66-.76.81-1.03ZM160.32,113.76c0,.14-.05.26-.16.37-.1.11-.23.16-.39.16-.23,0-.39-.1-.48-.3-.11-.24-.23-.46-.35-.66-.04-.07-.07-.16-.07-.27,0-.15.05-.27.16-.37.1-.1.23-.15.38-.15.22,0,.37.08.46.25l.39.73c.04.08.07.16.07.25Z"/>
      <path class="cls-1" d="M176.62,113.16c0,.15-.05.27-.15.37s-.22.15-.36.15h-1.56c-.37,0-.68.18-.92.55l-.03.04c-.04.09-.07.17-.07.25,0,.2.13.3.39.3h1.86c.13,0,.24.05.34.14s.14.21.14.34-.05.24-.14.34-.21.14-.34.14h-3.9c-.3,0-.46.1-.46.31s.15.33.46.33h3.16c.13,0,.24.04.33.14.09.09.14.2.14.33s-.04.24-.14.33-.2.14-.33.14h-3.16c-.3,0-.46.11-.46.34s.15.35.46.35h4.12c.14,0,.26.05.35.14.09.1.14.21.14.35s-.05.26-.14.36c-.1.1-.21.15-.35.15h-2.95c-.19,0-.29.06-.29.18,0,.09.06.16.17.22.88.5,1.89.98,3.05,1.43.24.1.36.26.36.51,0,.16-.05.29-.16.39-.11.1-.24.16-.38.16-.08,0-.15-.01-.21-.04-1.37-.56-2.55-1.17-3.55-1.83-.11-.08-.22-.12-.31-.12-.21,0-.31.15-.31.46v1.36c0,.17-.06.3-.17.42s-.25.17-.41.17-.29-.06-.41-.17-.18-.25-.18-.42v-1.34c0-.29-.1-.44-.3-.44-.1,0-.21.04-.33.12-.94.62-2.1,1.22-3.5,1.79-.06.03-.13.04-.21.04-.15,0-.27-.05-.38-.16-.11-.1-.16-.23-.16-.39,0-.27.12-.45.36-.53,1.15-.42,2.18-.88,3.07-1.4.11-.07.17-.14.17-.22,0-.12-.1-.18-.29-.18h-2.94c-.14,0-.25-.05-.35-.15s-.14-.22-.14-.36.05-.26.14-.35c.1-.09.21-.14.35-.14h4.04c.3,0,.46-.12.46-.35s-.15-.34-.46-.34h-2.95c-.12,0-.23-.04-.32-.14s-.14-.2-.14-.33.04-.24.14-.33c.09-.09.2-.14.32-.14h2.95c.3,0,.46-.11.46-.33s-.15-.31-.46-.31h-3.83c-.13,0-.24-.04-.33-.14-.09-.09-.14-.21-.14-.34,0-.13.05-.24.14-.34s.2-.14.33-.14h1.86c.26,0,.39-.09.39-.29,0-.08-.03-.16-.08-.26l-.03-.05c-.17-.35-.49-.53-.94-.53h-1.46c-.14,0-.26-.05-.36-.15-.1-.1-.16-.22-.16-.37,0-.14.05-.26.16-.36.1-.1.22-.15.36-.15h.75c.26,0,.39-.1.39-.29,0-.08-.02-.16-.07-.25l-.14-.3c-.04-.06-.05-.14-.05-.23,0-.35.17-.52.52-.52.22,0,.37.1.47.29.1.19.23.46.4.81.15.33.34.49.57.49.35,0,.52-.17.52-.52v-.77c0-.16.05-.29.16-.4s.24-.16.4-.16.29.05.4.16.16.24.16.4v.77c0,.35.17.52.52.52h.3c.35,0,.52-.17.52-.52v-.77c0-.16.05-.29.16-.4.11-.11.24-.16.4-.16s.29.05.4.16.16.24.16.4v.77c0,.35.17.52.52.52.24,0,.44-.14.6-.42.16-.28.29-.57.4-.86.09-.23.26-.35.51-.35.16,0,.28.05.38.16s.15.23.15.38c0,.1-.02.19-.05.25l-.17.31c-.05.09-.08.17-.08.25,0,.2.13.3.4.3h.78c.14,0,.26.05.36.14.1.1.15.22.15.36ZM172.34,114.23c.04-.09.07-.17.07-.25,0-.2-.13-.3-.39-.3h-2.26c-.26,0-.39.1-.39.3,0,.08.02.16.06.25l.03.04c.24.36.55.55.92.55h1.01c.37,0,.68-.18.92-.55l.03-.04Z"/>
      <path class="cls-1" d="M189.23,120.25c0,.73-.12,1.22-.38,1.46-.25.25-.75.37-1.48.37h-1.33c-.16,0-.29-.06-.41-.17-.12-.11-.18-.25-.18-.42s.06-.3.18-.42c.12-.11.25-.17.41-.17h1.11c.35,0,.58-.06.69-.17s.17-.34.17-.68v-5.36c0-.45-.23-.68-.69-.68h-2.16c-.39,0-.58.19-.58.59,0,.2.06.4.18.6.49.83,1.24,1.66,2.25,2.5.15.12.22.28.22.47,0,.17-.06.31-.18.43-.12.12-.26.18-.43.18-.15,0-.28-.05-.4-.16-.59-.5-1.12-1.07-1.6-1.69-.16-.2-.3-.3-.44-.3-.16,0-.3.13-.44.38-.43.82-1.04,1.57-1.81,2.26-.12.11-.26.17-.42.17-.17,0-.32-.06-.44-.18s-.18-.27-.18-.44c0-.2.08-.36.23-.48,1.23-.95,1.96-2.19,2.2-3.71.06-.41-.12-.61-.56-.61h-2.05c-.46,0-.69.23-.69.68v6.93c0,.17-.06.31-.18.44-.12.13-.26.19-.43.19-.17,0-.32-.06-.44-.19-.12-.12-.18-.27-.18-.44v-7.41c0-.89.44-1.34,1.33-1.34h2.69c.39,0,.58-.2.58-.58v-.91c0-.16.06-.31.18-.43.12-.12.26-.18.43-.18s.31.06.43.18c.12.12.18.26.18.43v.91c0,.39.19.58.58.58h2.7c.88,0,1.33.45,1.33,1.34v6.02Z"/>
      <path class="cls-1" d="M49.58,134.74c0,.16-.05.29-.16.39-.11.1-.24.16-.4.16-.08,0-.15-.01-.21-.04-.16-.07-.39-.18-.7-.33-.05-.03-.1-.04-.14-.04-.11,0-.17.07-.17.22v1.85c0,.72-.36,1.08-1.07,1.08h-5.77c-.73,0-1.09-.36-1.08-1.08v-1.82c.01-.15-.04-.22-.16-.22-.04,0-.09.01-.14.04-.08.04-.29.14-.62.3-.06.04-.13.05-.22.05-.15,0-.28-.05-.39-.16s-.17-.24-.17-.4c0-.23.11-.4.33-.49,1.47-.66,2.76-1.49,3.87-2.5.43-.39.91-.58,1.43-.58s.94.17,1.33.52c1.15,1.01,2.53,1.86,4.12,2.55.22.09.32.26.32.51ZM49.22,130.06c0,.17-.06.31-.18.42-.12.12-.26.18-.42.18s-.3-.06-.42-.18-.17-.26-.17-.42v-.38c0-.37-.19-.56-.56-.56h-7.27c-.36,0-.55.19-.55.56v.39c0,.16-.06.29-.18.41-.12.12-.26.18-.42.18s-.3-.06-.42-.17c-.11-.11-.17-.25-.17-.42v-.96c0-.74.37-1.11,1.1-1.11h3.13c.35,0,.52-.17.52-.52v-.09c0-.17.06-.31.19-.44.13-.13.27-.19.44-.19s.31.06.42.19c.12.12.18.27.18.44v.09c0,.35.17.52.52.52h3.13c.74,0,1.1.37,1.1,1.11v.95ZM42.47,130.12c0,.15-.06.28-.18.39-.71.68-1.52,1.27-2.43,1.79-.1.05-.18.08-.26.08-.15,0-.28-.05-.38-.16-.11-.11-.16-.24-.16-.38,0-.22.1-.38.29-.48.94-.51,1.67-1.05,2.21-1.62.1-.1.22-.16.38-.16.15,0,.27.05.38.16s.16.24.16.38ZM46.6,136.41v-.75c0-.35-.17-.52-.52-.52h-4.48c-.35,0-.52.17-.52.52v.75c0,.36.17.53.52.53h4.48c.35,0,.52-.18.52-.53ZM46.2,133.81c-.7-.46-1.26-.87-1.68-1.24-.25-.22-.49-.33-.73-.33s-.48.11-.73.33c-.45.39-.99.8-1.61,1.24-.09.06-.13.12-.13.18,0,.09.07.13.22.13h4.56c.15,0,.22-.04.22-.13,0-.06-.04-.12-.13-.18ZM48.6,131.84c0,.15-.05.28-.16.38-.11.11-.24.16-.38.16-.09,0-.17-.03-.26-.08-.98-.57-1.79-1.17-2.44-1.79-.11-.11-.17-.24-.17-.39s.05-.28.16-.38.23-.16.38-.16c.16,0,.29.06.39.17.49.54,1.23,1.07,2.21,1.6.19.1.29.27.29.49Z"/>
      <path class="cls-1" d="M58.07,130.01c-.73.14-1.37.24-1.92.3-.36.04-.61.13-.77.27-.16.14-.28.38-.36.71-.52,2.28-1.12,4.25-1.81,5.92-.12.29-.33.43-.64.43-.19,0-.35-.07-.48-.2-.13-.13-.19-.29-.19-.47,0-.09.02-.18.05-.26.69-1.62,1.3-3.47,1.81-5.54.02-.07.03-.13.03-.2,0-.3-.18-.45-.55-.44-.36,0-.7,0-1,0-.17,0-.32-.08-.45-.2-.13-.12-.19-.27-.19-.45s.07-.34.2-.47.29-.19.47-.18c.49.02.89.02,1.2.01.49-.02.77-.26.83-.71.03-.18.07-.46.13-.85.06-.38.28-.57.66-.57.18,0,.34.06.47.19s.19.28.19.46c0,.09-.03.3-.1.65,0,.06-.01.12-.01.17,0,.35.19.49.57.43.05,0,.36-.07.91-.18.42-.08.7-.12.86-.12.18,0,.33.07.45.2.12.13.18.29.18.47,0,.36-.18.57-.53.64ZM62.18,136.84c0,.17-.05.31-.16.43-.1.12-.23.19-.39.21-.97.12-1.84.18-2.6.18-2.31,0-3.46-.65-3.46-1.94,0-.31.07-.65.22-1.01.1-.26.3-.39.58-.39.42,0,.62.21.62.62,0,.07-.02.17-.05.29-.03.13-.05.22-.05.29,0,.59.75.88,2.24.88.58,0,1.35-.07,2.31-.2.19-.03.36.02.51.15.15.13.22.28.22.47ZM61.81,132.01c0,.18-.07.34-.21.47-.14.13-.3.19-.48.18-1.33-.1-2.72-.07-4.15.09-.18.02-.34-.04-.47-.16-.13-.13-.2-.28-.2-.46,0-.16.05-.31.16-.42.11-.12.24-.18.4-.2,1.72-.15,3.16-.2,4.32-.16.17,0,.32.08.45.21s.19.28.19.46ZM61.19,129.73c0,.14-.05.26-.15.36s-.22.15-.36.15c-.21,0-.36-.08-.46-.23-.25-.4-.52-.74-.81-1.03-.1-.1-.14-.21-.14-.35,0-.35.17-.52.51-.52.15,0,.28.06.39.19.36.41.67.79.91,1.14.07.1.1.2.1.29ZM62.77,128.99c0,.14-.05.26-.15.36s-.22.15-.36.15c-.2,0-.35-.08-.46-.23-.29-.42-.55-.78-.81-1.05-.1-.1-.14-.21-.14-.33,0-.35.17-.52.52-.52.13,0,.26.06.38.18.3.3.61.69.92,1.16.06.12.09.22.09.29Z"/>
      <path class="cls-1" d="M74.92,133.06c0,1.24-.58,2.21-1.73,2.91-.86.52-2,.88-3.42,1.07-.18.03-.34-.02-.48-.15-.14-.13-.21-.28-.21-.46,0-.15.05-.28.16-.4.1-.12.23-.18.38-.2,2.67-.36,4-1.28,4-2.77,0-1.05-.69-1.57-2.08-1.57-1.11,0-2.88.33-5.32.97-.06.02-.12.03-.17.03-.16,0-.31-.06-.44-.19s-.19-.28-.19-.45c0-.33.16-.53.49-.61.85-.21,1.66-.39,2.42-.53,1.39-.27,2.47-.4,3.25-.4.97,0,1.73.19,2.29.56.7.47,1.05,1.2,1.05,2.2Z"/>
      <path class="cls-1" d="M84.46,130.01c-.63.12-1.27.22-1.92.3-.36.04-.61.13-.77.27s-.28.38-.36.71c-.49,2.05-1.09,4.03-1.81,5.92-.11.29-.32.43-.64.43-.19,0-.35-.07-.48-.2-.13-.13-.2-.29-.2-.47,0-.09.02-.17.05-.26.74-1.74,1.34-3.59,1.81-5.54.02-.07.03-.13.03-.2,0-.3-.18-.45-.55-.44-.36,0-.7,0-1,0-.17,0-.32-.08-.45-.2-.13-.12-.19-.27-.19-.45s.07-.34.2-.47c.13-.13.29-.19.47-.18.49.02.89.02,1.2.01.49-.02.76-.26.83-.71.03-.19.07-.47.13-.85s.28-.57.66-.57c.18,0,.34.06.47.19s.2.28.2.46c0,.09-.04.3-.1.65,0,.06-.01.12-.01.17,0,.35.19.49.57.43.05,0,.36-.07.91-.18.42-.08.7-.12.86-.12.18,0,.33.07.45.2.12.13.18.29.18.47,0,.36-.18.57-.53.64ZM88.57,136.84c0,.37-.18.58-.55.64-.82.12-1.69.18-2.6.18-2.31,0-3.46-.65-3.46-1.94,0-.29.07-.63.22-1.01.1-.26.3-.39.59-.39.41,0,.61.21.61.62,0,.07-.01.17-.04.29-.03.13-.04.22-.04.29,0,.59.74.88,2.22.88.65,0,1.42-.07,2.31-.2.19-.03.36.02.51.15.15.13.22.28.22.47ZM88.2,132.01c0,.18-.07.34-.21.47-.14.13-.3.19-.48.18-1.29-.07-2.67-.04-4.15.09-.18.02-.34-.04-.47-.16-.13-.13-.2-.28-.2-.46,0-.16.05-.31.16-.42.11-.12.24-.18.4-.2,1.46-.15,2.9-.2,4.32-.16.17,0,.32.08.45.21s.19.28.19.46Z"/>
      <path class="cls-1" d="M101.64,132.64c0,2.64-1.34,4.26-4.02,4.85-.03,0-.07.01-.14.01-.17,0-.32-.06-.45-.18s-.19-.27-.19-.46c0-.35.16-.56.47-.64,2-.5,3-1.71,3-3.61,0-1-.27-1.79-.81-2.39-.2-.23-.45-.42-.74-.6-.34-.19-.64-.29-.91-.29-.37,0-.6.22-.68.65-.33,1.89-.72,3.41-1.17,4.56-.29.73-.57,1.27-.84,1.64-.44.56-.96.84-1.55.84-.79,0-1.42-.39-1.9-1.18-.42-.68-.62-1.43-.62-2.26,0-1.61.54-2.95,1.61-4,1.07-1.06,2.41-1.59,4.02-1.59,1.52,0,2.7.39,3.56,1.17.9.82,1.35,1.97,1.35,3.47ZM95.86,130.03c0-.06.01-.12.01-.18,0-.32-.15-.48-.44-.48-.1,0-.22.02-.34.06-.8.28-1.45.8-1.95,1.55-.5.76-.75,1.63-.75,2.61,0,.54.13,1.01.38,1.42.25.41.53.62.85.62.37,0,.77-.52,1.2-1.57.36-.88.71-2.23,1.05-4.03Z"/>
      <path class="cls-1" d="M111.62,131.72c0,1.37-.23,2.9-.69,4.58-.13.49-.28.84-.44,1.05-.24.31-.57.47-.99.47-.45,0-1.05-.13-1.79-.38-.29-.1-.44-.29-.44-.58,0-.17.06-.32.19-.44.13-.12.27-.18.44-.18.07,0,.16.02.27.05.37.13.65.2.84.2.21,0,.36-.06.44-.18.07-.09.15-.29.23-.58.41-1.46.61-2.72.61-3.8,0-.42-.08-.69-.25-.83s-.48-.21-.94-.21c-.41,0-.68.04-.83.13-.18.1-.31.29-.39.56-.56,1.89-1.33,3.79-2.31,5.71-.13.25-.33.38-.61.38-.19,0-.35-.07-.48-.2-.13-.13-.19-.3-.19-.49,0-.15.03-.26.08-.35.88-1.53,1.6-3.15,2.16-4.85.03-.09.04-.16.04-.23,0-.31-.19-.44-.56-.39-.27.04-.69.1-1.26.18-.18.03-.35-.02-.5-.15-.15-.13-.23-.28-.23-.47,0-.36.19-.57.57-.62s.98-.13,1.81-.23c.42-.04.7-.3.84-.78.03-.07.1-.49.22-1.27.06-.37.28-.56.65-.56.21,0,.38.08.5.23.13.15.17.33.14.54,0,.04-.05.23-.12.57-.06.25-.09.44-.09.56,0,.36.2.53.61.51h.2c.67-.06,1.2.06,1.6.34.45.31.68.9.68,1.75ZM115.54,132.7c0,.19-.07.36-.2.49s-.3.21-.49.21c-.31,0-.53-.15-.65-.46-.45-1.17-1.03-2.24-1.73-3.2-.08-.1-.12-.23-.12-.36,0-.18.06-.34.19-.47s.28-.2.46-.2c.22,0,.39.09.53.27.79,1.03,1.44,2.18,1.96,3.45.03.06.04.15.04.26Z"/>
      <path class="cls-1" d="M128.4,135.32c0,.15-.05.27-.16.37-.11.1-.23.15-.37.15h-2.44c-.35,0-.52.17-.52.52v.1c0,.18-.07.33-.21.44h3.09c.15,0,.27.05.38.16.11.11.16.24.16.38s-.05.28-.16.38c-.1.11-.23.16-.38.16h-5.91c-1.1,0-1.9-.26-2.41-.79-.13-.14-.26-.21-.39-.21-.1,0-.21.05-.33.14-.16.14-.45.36-.86.68-.11.09-.24.13-.38.13-.17,0-.32-.06-.45-.19-.13-.13-.19-.28-.19-.45,0-.22.1-.39.3-.52.44-.29.81-.55,1.11-.78.29-.22.44-.54.44-.95v-1.81c0-.33-.16-.49-.49-.49h-.8c-.16,0-.29-.06-.4-.17s-.17-.25-.17-.4.06-.29.17-.4c.11-.11.25-.16.4-.16h1.39c.69,0,1.04.35,1.04,1.04v2.55c0,.4.07.71.21.93s.33.39.57.51c.32.17.78.25,1.39.25h1.96c-.15-.12-.22-.27-.22-.44v-.1c0-.35-.17-.52-.52-.52h-2.44c-.14,0-.26-.05-.36-.15-.11-.1-.16-.22-.16-.37,0-.14.05-.26.16-.36.1-.1.22-.16.36-.16h2.44c.35,0,.52-.13.52-.4s-.17-.4-.52-.4h-1.13c-.72,0-1.08-.36-1.08-1.08v-2.12c0-.72.36-1.08,1.08-1.08h1.13c.35,0,.52-.12.52-.36s-.17-.36-.52-.36h-2.29c-.14,0-.26-.05-.36-.14-.1-.09-.15-.22-.15-.36,0-.14.05-.26.15-.36s.22-.15.36-.15h2.29c.35,0,.52-.17.52-.52h0c0-.17.05-.3.17-.41s.25-.16.4-.16.29.05.4.16c.11.11.16.24.16.4h0c0,.36.17.53.52.53h2.34c.14,0,.26.05.36.15.11.1.16.22.16.36,0,.15-.05.27-.16.36-.1.1-.22.14-.36.14h-2.34c-.35,0-.52.12-.52.36s.17.36.52.36h1.17c.71,0,1.07.36,1.07,1.08v2.16c0,.71-.36,1.07-1.07,1.07h-1.17c-.35,0-.52.13-.52.39s.17.39.52.39h2.44c.14,0,.26.05.37.16.1.1.16.23.16.36ZM119.79,129.12c0,.17-.06.31-.18.42-.12.12-.26.17-.42.17-.18,0-.33-.06-.46-.19-.35-.36-.72-.72-1.13-1.08-.13-.11-.2-.26-.2-.44,0-.16.06-.3.17-.42.11-.11.25-.17.42-.17.14,0,.26.05.38.14.49.41.9.79,1.23,1.14.12.13.18.27.18.42ZM123.81,131.03c0-.26-.15-.39-.46-.39h-.69c-.35,0-.52.14-.52.42,0,.25.15.38.46.38h.75c.3,0,.46-.13.46-.4ZM123.81,132.68c0-.27-.15-.4-.46-.4h-.75c-.3,0-.46.13-.46.39,0,.29.17.43.52.43h.69c.3,0,.46-.14.46-.42ZM126.57,131.06c0-.28-.17-.42-.52-.42h-.7c-.3,0-.46.13-.46.39s.15.4.46.4h.77c.3,0,.46-.13.46-.38ZM126.57,132.67c0-.26-.15-.39-.46-.39h-.77c-.3,0-.46.13-.46.4s.15.42.46.42h.7c.35,0,.52-.14.52-.43Z"/>
      <path class="cls-1" d="M141.93,133.31c0,.15-.06.28-.17.38s-.24.16-.39.16c-.07,0-.13-.01-.2-.04-.88-.36-1.63-.77-2.26-1.21-.17-.12-.34-.18-.51-.18s-.32.06-.49.18c-.62.45-1.4.89-2.33,1.33-.05.03-.12.04-.21.04-.28,0-.45-.13-.52-.39-.19.03-.35-.05-.48-.21s-.29-.24-.48-.2l-.16.03c-.33.05-.49.23-.49.55v4.12c0,.16-.06.29-.17.4-.11.11-.25.16-.4.16s-.29-.05-.4-.16-.16-.24-.16-.4v-3.91c0-.29-.18-.46-.55-.48-.17-.02-.54.01-1.12.09-.16.02-.29-.03-.4-.15-.11-.12-.17-.27-.16-.47.02-.24.15-.38.39-.42.24-.04.43-.14.56-.29l.52-.6c.12-.14.18-.27.18-.4s-.06-.25-.18-.38l-1.22-1.23c-.11-.11-.17-.25-.17-.4,0-.32.17-.51.51-.56.09-.02.18,0,.29.05.1.05.19.07.25.07.09,0,.17-.06.26-.19.09-.12.42-.63.99-1.5.12-.18.27-.27.46-.27.15,0,.28.05.38.16s.16.24.16.38c0,.1-.03.2-.08.29-.17.29-.55.84-1.14,1.62-.1.12-.14.24-.14.36,0,.11.05.23.14.34.09.12.19.17.31.17.17,0,.43-.24.78-.73.2-.3.4-.61.61-.92.11-.17.26-.25.44-.25.15,0,.28.05.38.16s.16.24.16.38c0,.12-.03.23-.09.31-.43.61-1.14,1.51-2.13,2.72-.08.09-.12.19-.12.27,0,.17.12.24.35.21l.51-.06c.23-.03.34-.11.34-.25,0-.07-.03-.15-.09-.25l-.04-.07c-.03-.08-.05-.16-.05-.25,0-.14.05-.26.15-.36.1-.1.22-.16.36-.16.19,0,.34.09.46.27.57.9.89,1.47.96,1.72.66-.29,1.27-.62,1.82-1,.17-.12.26-.26.26-.42,0-.11-.08-.28-.25-.49-.12-.16-.24-.32-.36-.49-.12-.17-.24-.25-.36-.25-.08,0-.29.16-.62.48-.11.1-.23.16-.35.16-.35,0-.52-.17-.52-.52,0-.14.05-.26.16-.36.9-.87,1.64-1.84,2.21-2.91.1-.19.26-.29.48-.29.15,0,.28.05.38.16.11.1.16.23.15.38,0,.32.09.48.29.48h1.48c.66,0,.99.26.99.78,0,.18-.06.39-.18.61-.32.6-.75,1.21-1.27,1.85-.12.14-.18.27-.18.4,0,.17.09.3.27.42.55.34,1.18.65,1.87.92.24.1.36.27.36.52ZM131.56,134.55c-.14.82-.31,1.59-.51,2.3-.08.27-.25.4-.52.4-.35,0-.52-.18-.52-.53,0-.04,0-.1.03-.18.25-.73.43-1.44.53-2.14.04-.28.21-.42.49-.42.16,0,.28.06.38.17s.14.25.11.4ZM135.17,136.44c0,.14-.05.26-.14.35s-.21.14-.35.14c-.27,0-.43-.13-.49-.39-.18-.75-.32-1.46-.42-2.13-.02-.14.02-.26.12-.37s.21-.16.35-.16c.29,0,.45.13.48.4.09.59.23,1.27.44,2.03,0,.03.01.08.01.13ZM141,137.12c0,.69-.35,1.04-1.04,1.04h-2.98c-.69,0-1.04-.35-1.04-1.04v-2.39c0-.69.35-1.04,1.04-1.04h2.98c.69,0,1.04.35,1.04,1.04v2.39ZM139.9,136.65v-1.48c0-.33-.17-.49-.49-.49h-1.91c-.33,0-.49.17-.49.49v1.48c0,.33.16.49.49.49h1.91c.33,0,.49-.17.49-.49ZM139.75,129.03c0-.13-.1-.2-.31-.2h-1.55c-.3,0-.5.06-.58.18-.1.14-.06.34.1.61.2.33.39.6.57.81.13.15.26.22.4.22.15,0,.29-.08.43-.23.62-.71.94-1.17.94-1.39Z"/>
      <path class="cls-1" d="M148.74,135.11c-.76,1.5-1.5,2.25-2.2,2.25-.87,0-1.54-.77-2.02-2.31-.37-1.2-.56-2.55-.56-4.07,0-.78.03-1.45.08-2.02.02-.18.09-.33.21-.46.12-.12.28-.18.46-.18.2,0,.37.08.5.23.13.15.19.33.17.53-.06.58-.09,1.25-.09,2.01,0,1,.11,1.99.33,2.96.24,1.08.56,1.62.96,1.62.29,0,.61-.39.97-1.17.11-.23.31-.35.59-.35.18,0,.33.06.46.19.13.13.19.28.19.46,0,.11-.02.21-.06.3ZM154.37,134.71c.03.21-.03.39-.17.56-.14.16-.32.25-.53.25-.18,0-.34-.06-.48-.18-.14-.12-.22-.27-.23-.44-.22-1.97-.85-3.72-1.91-5.25-.08-.11-.12-.24-.12-.38,0-.19.07-.35.2-.48s.29-.2.48-.2c.23,0,.42.1.56.29,1.2,1.66,1.93,3.61,2.21,5.84Z"/>
      <path class="cls-1" d="M163.24,130.01c-.63.12-1.27.22-1.92.3-.36.04-.61.13-.77.27s-.28.38-.36.71c-.49,2.05-1.09,4.03-1.81,5.92-.11.29-.33.43-.64.43-.19,0-.35-.07-.48-.2-.13-.13-.2-.29-.2-.47,0-.09.02-.17.05-.26.74-1.74,1.34-3.59,1.81-5.54.02-.07.03-.13.03-.2,0-.3-.18-.45-.55-.44-.36,0-.7,0-1,0-.17,0-.32-.08-.45-.2-.13-.12-.19-.27-.19-.45s.07-.34.2-.47c.13-.13.29-.19.47-.18.49.02.89.02,1.2.01.49-.02.76-.26.83-.71.03-.19.07-.47.13-.85s.28-.57.66-.57c.18,0,.34.06.47.19s.2.28.2.46c0,.09-.04.3-.1.65,0,.06-.01.12-.01.17,0,.35.19.49.57.43.05,0,.36-.07.91-.18.42-.08.7-.12.86-.12.18,0,.33.07.45.2.12.13.18.29.18.47,0,.36-.18.57-.53.64ZM167.35,136.84c0,.37-.18.58-.55.64-.82.12-1.69.18-2.6.18-2.3,0-3.46-.65-3.46-1.94,0-.29.07-.63.22-1.01.1-.26.3-.39.58-.39.41,0,.61.21.61.62,0,.07-.01.17-.04.29-.03.13-.04.22-.04.29,0,.59.74.88,2.22.88.65,0,1.42-.07,2.31-.2.19-.03.36.02.51.15.15.13.22.28.22.47ZM166.98,132.01c0,.18-.07.34-.21.47-.14.13-.3.19-.48.18-1.29-.07-2.67-.04-4.15.09-.18.02-.34-.04-.47-.16-.13-.13-.2-.28-.2-.46,0-.16.05-.31.16-.42.11-.12.24-.18.4-.2,1.46-.15,2.9-.2,4.32-.16.17,0,.32.08.45.21s.19.28.19.46Z"/>
      <path class="cls-1" d="M176.24,130.01c-.73.14-1.37.24-1.92.3-.36.04-.61.13-.77.27s-.28.38-.36.71c-.52,2.28-1.12,4.25-1.81,5.92-.12.29-.33.43-.64.43-.19,0-.35-.07-.48-.2-.13-.13-.2-.29-.2-.47,0-.09.02-.18.05-.26.69-1.62,1.3-3.47,1.81-5.54.02-.07.03-.13.03-.2,0-.3-.18-.45-.55-.44s-.7,0-1,0c-.17,0-.32-.08-.45-.2-.13-.12-.19-.27-.19-.45s.07-.34.2-.47.29-.19.47-.18c.49.02.89.02,1.2.01.49-.02.77-.26.83-.71.03-.18.07-.46.13-.85.06-.38.28-.57.66-.57.18,0,.34.06.47.19s.2.28.2.46c0,.09-.04.3-.1.65,0,.06-.01.12-.01.17,0,.35.19.49.57.43.05,0,.35-.07.91-.18.42-.08.7-.12.86-.12.18,0,.33.07.45.2s.18.29.18.47c0,.36-.18.57-.53.64ZM180.35,136.84c0,.17-.05.31-.16.43-.1.12-.23.19-.39.21-.97.12-1.84.18-2.6.18-2.31,0-3.46-.65-3.46-1.94,0-.31.07-.65.22-1.01.1-.26.3-.39.58-.39.42,0,.62.21.62.62,0,.07-.02.17-.05.29-.03.13-.05.22-.05.29,0,.59.75.88,2.24.88.58,0,1.35-.07,2.31-.2.19-.03.36.02.51.15.15.13.22.28.22.47ZM179.98,132.01c0,.18-.07.34-.21.47-.14.13-.3.19-.48.18-1.33-.1-2.72-.07-4.15.09-.18.02-.34-.04-.47-.16-.13-.13-.2-.28-.2-.46,0-.16.05-.31.16-.42.11-.12.24-.18.4-.2,1.72-.15,3.16-.2,4.32-.16.17,0,.32.08.45.21s.19.28.19.46ZM179.36,129.73c0,.14-.05.26-.15.36s-.22.15-.36.15c-.21,0-.36-.08-.46-.23-.25-.4-.52-.74-.81-1.03-.1-.1-.14-.21-.14-.35,0-.35.17-.52.51-.52.15,0,.28.06.39.19.36.41.67.79.91,1.14.07.1.1.2.1.29ZM180.94,128.99c0,.14-.05.26-.15.36s-.22.15-.36.15c-.2,0-.35-.08-.46-.23-.29-.42-.55-.78-.81-1.05-.1-.1-.14-.21-.14-.33,0-.35.17-.52.52-.52.13,0,.25.06.38.18.3.3.61.69.92,1.16.06.12.09.22.09.29Z"/>
      <path class="cls-1" d="M186.48,134.04c-.34.82-.63,1.65-.87,2.47-.12.42-.36.62-.71.62-.38,0-.63-.24-.74-.71-.23-.98-.35-2.14-.35-3.5,0-1.46.15-3.08.44-4.84.06-.36.27-.55.64-.55.2,0,.37.08.5.23.13.16.18.33.15.53-.34,1.98-.51,3.56-.51,4.75v.75c0,.28.08.42.22.42.12,0,.23-.11.31-.34l.08-.19c.08-.19.22-.29.42-.29.13,0,.24.04.33.14.09.09.14.2.14.33,0,.05-.01.11-.04.17ZM194,130.21c0,.31-.18.53-.53.65,0,0-.32.06-.94.17-.39.07-.58.3-.58.69v.98c0,2.32-.87,4.01-2.6,5.07-.1.06-.22.09-.34.09-.18,0-.34-.07-.47-.2s-.19-.29-.19-.47c0-.24.1-.43.31-.56.74-.46,1.27-1.03,1.59-1.7.29-.62.43-1.39.43-2.31v-.68c0-.44-.23-.65-.69-.62-.81.05-1.37.07-1.7.06h-.53c-.16-.01-.31-.07-.43-.19-.12-.12-.18-.26-.18-.43s.06-.32.19-.45c.13-.12.28-.18.46-.18h.48c.44.02,1.02,0,1.73-.05.43-.03.64-.27.61-.7l-.08-1.4c0-.18.05-.34.18-.48.12-.14.28-.21.47-.21.17,0,.32.06.45.18.12.12.19.26.2.44,0,.27.03.69.05,1.26.02.42.19.62.52.62.05,0,.11,0,.17-.03l.66-.16c.08-.02.13-.03.16-.03.16,0,.31.06.43.19s.18.28.18.45Z"/>
      <path class="cls-1" d="M56.23,144.63c0,.35-.23.55-.7.62-1.31.2-2.47.74-3.48,1.62-1.01.88-1.52,1.81-1.52,2.78,0,1.36,1.12,2.26,3.37,2.69.37.07.56.29.56.66,0,.21-.08.38-.24.52-.16.14-.34.19-.55.16-1.26-.22-2.27-.61-3.03-1.17-.95-.69-1.43-1.61-1.43-2.76,0-.92.32-1.77.95-2.55.25-.31.53-.59.83-.84.26-.22.39-.4.39-.56,0-.21-.22-.29-.66-.26-1.35.12-2.79.27-4.33.46-.19.03-.36-.03-.49-.16s-.21-.29-.21-.48c0-.17.05-.31.16-.43.11-.12.24-.19.41-.21,1.57-.16,4.63-.39,9.19-.7.23-.02.42.03.57.15.15.12.22.27.22.46Z"/>
      <path class="cls-1" d="M64.02,152.34c0,.31-.15.5-.44.56-1.37.3-2.96.59-4.78.86-.17.03-.33-.02-.47-.14-.14-.12-.21-.27-.21-.45,0-.35.17-.54.51-.58.28-.03.42-.22.42-.55v-7.7c0-.71.35-1.07,1.07-1.07h2.04c.71,0,1.07.36,1.07,1.07v7.05c0,.24.12.38.36.4.12.02.23.08.31.19.09.11.13.23.13.36ZM62.09,145.78v-.87c0-.35-.17-.52-.52-.52h-.9c-.35,0-.52.17-.52.52v.87c0,.35.17.52.52.52h.9c.35,0,.52-.17.52-.52ZM62.09,148.68v-.82c0-.35-.17-.52-.52-.52h-.9c-.35,0-.52.17-.52.52v.82c0,.35.17.52.52.52h.9c.35,0,.52-.17.52-.52ZM62.09,151.57v-.82c0-.35-.17-.52-.52-.52h-.9c-.35,0-.52.17-.52.52v1.07c0,.32.15.48.46.48.16,0,.49-.05,1.01-.16.31-.06.47-.25.47-.57ZM69.63,150.74c0,1.35-.14,2.25-.41,2.68-.27.44-.82.66-1.64.66h-.65c-.15,0-.27-.05-.38-.16-.11-.11-.16-.24-.16-.4s.05-.29.16-.4.24-.16.38-.16h.3c.58,0,.94-.16,1.08-.47.12-.28.18-.99.18-2.13v-3.5c0-.36-.19-.55-.56-.55h-.57c-.34,0-.52.17-.53.51-.09,1.46-.24,2.62-.47,3.5-.32,1.25-.84,2.39-1.56,3.42-.13.18-.29.27-.49.27-.16,0-.31-.06-.42-.17-.12-.11-.18-.25-.18-.42,0-.14.03-.25.1-.35.66-.91,1.14-1.93,1.44-3.05.23-.84.37-1.9.44-3.17.02-.36-.15-.53-.51-.53h-.9c-.16,0-.29-.06-.39-.17-.1-.11-.16-.25-.16-.4,0-.15.05-.28.16-.38s.23-.16.39-.16h.94c.34,0,.51-.17.52-.52,0-.5.01-.91.01-1.23,0-.16.06-.29.17-.41.11-.12.25-.17.4-.17s.29.06.4.17c.11.12.17.25.17.41v1.23c0,.35.17.52.52.52h.87c.89,0,1.34.44,1.34,1.33v4.21Z"/>
      <path class="cls-1" d="M79.36,147.72c0,1.37-.23,2.9-.69,4.58-.13.49-.28.84-.44,1.05-.24.31-.57.47-.99.47-.45,0-1.05-.13-1.79-.38-.29-.1-.44-.29-.44-.58,0-.17.06-.32.19-.44.13-.12.27-.18.44-.18.07,0,.16.02.27.05.37.13.65.2.84.2.21,0,.36-.06.44-.18.07-.09.15-.29.23-.58.41-1.46.61-2.72.61-3.8,0-.42-.08-.69-.25-.83s-.48-.21-.94-.21c-.41,0-.68.04-.83.13-.18.1-.31.29-.39.56-.56,1.89-1.33,3.79-2.31,5.71-.13.25-.33.38-.61.38-.19,0-.35-.07-.48-.2-.13-.13-.19-.3-.19-.49,0-.15.03-.26.08-.35.88-1.53,1.6-3.15,2.16-4.85.03-.09.04-.16.04-.23,0-.31-.19-.44-.56-.39-.27.04-.69.1-1.26.18-.18.03-.35-.02-.5-.15-.15-.13-.23-.28-.23-.47,0-.36.19-.57.57-.62s.98-.13,1.81-.23c.42-.04.7-.3.84-.78.03-.07.1-.49.22-1.27.06-.37.28-.56.65-.56.21,0,.38.08.5.23.13.15.17.33.14.54,0,.04-.05.23-.12.57-.06.25-.09.44-.09.56,0,.36.2.53.61.51h.2c.67-.06,1.2.06,1.6.34.45.31.68.9.68,1.75ZM83.28,148.7c0,.19-.07.36-.2.49s-.3.21-.49.21c-.31,0-.53-.15-.65-.46-.45-1.17-1.03-2.24-1.73-3.2-.08-.1-.12-.23-.12-.36,0-.18.06-.34.19-.47s.28-.2.46-.2c.22,0,.39.09.53.27.79,1.03,1.44,2.18,1.96,3.45.03.06.04.15.04.26Z"/>
      <path class="cls-1" d="M89.42,147.94c-.45.77-.83,1.52-1.13,2.25-.13.31-.35.47-.66.47-.43,0-.68-.23-.75-.68-.08-.51-.12-1.28-.12-2.3s.15-2.25.44-3.65c.09-.42.31-.64.68-.64.18,0,.33.06.46.19.12.12.18.28.18.46,0,.05,0,.1-.01.16-.31,1.43-.48,2.51-.49,3.24,0,.29.06.43.2.43.11,0,.23-.1.36-.31l.06-.1c.09-.14.22-.21.39-.21.31,0,.47.16.47.47,0,.09-.02.17-.07.23ZM93.89,148.01c0,1.46-.26,2.67-.79,3.6-.55.97-1.46,1.79-2.73,2.46-.1.05-.2.08-.31.08-.18,0-.34-.07-.47-.21-.13-.14-.2-.31-.2-.49,0-.24.12-.43.36-.56,1.06-.55,1.8-1.22,2.22-2,.4-.72.6-1.69.6-2.92,0-1.12-.12-2.43-.35-3.94-.03-.2.02-.38.16-.54.14-.16.31-.24.51-.24.16,0,.31.06.44.17.13.11.2.25.23.42.23,1.62.34,3.02.34,4.19Z"/>
      <path class="cls-1" d="M108.46,152.31c0,.18-.06.34-.19.46-.13.13-.28.19-.46.19-.12,0-.23-.03-.34-.09-.87-.51-1.64-.9-2.31-1.16-.09-.03-.17-.05-.23-.05-.25,0-.4.17-.44.52-.07.52-.24.91-.52,1.16-.43.39-1.21.58-2.33.58-.71,0-1.3-.13-1.77-.4-.57-.34-.86-.84-.86-1.51,0-.75.36-1.3,1.08-1.65.54-.26,1.23-.39,2.08-.39.1,0,.24,0,.44.01.45.02.68-.17.68-.57v-.36c0-.43-.22-.65-.66-.64-.92.03-1.8.04-2.65.03-.16,0-.29-.06-.4-.18s-.16-.25-.16-.41.06-.29.18-.4c.12-.11.25-.16.41-.16.85.02,1.73.02,2.64,0,.42,0,.64-.23.64-.66v-.05c0-.44-.23-.65-.68-.64-1.05.04-2.04.05-2.98.03-.16,0-.29-.07-.4-.19-.11-.12-.17-.25-.17-.41,0-.17.06-.3.18-.42.12-.11.26-.17.43-.16.97.03,1.96.03,2.96,0,.42,0,.64-.22.64-.62,0-.03,0-.23-.01-.58,0-.17.06-.32.18-.45.12-.13.27-.19.44-.19s.32.06.44.19c.12.13.18.28.18.45v.44c0,.46.23.67.68.62.67-.07,1.4-.16,2.18-.27.17-.03.33.02.46.14s.2.26.2.44c0,.33-.17.52-.51.56-.94.12-1.73.21-2.38.27-.42.04-.62.27-.62.68v.04c0,.46.23.67.68.62.46-.04,1.1-.12,1.91-.25.17-.03.33.02.47.14s.21.26.21.44c0,.34-.16.53-.49.57-.69.09-1.41.18-2.15.25-.42.03-.62.26-.62.68v.58c0,.48.24.79.71.95.88.29,1.85.71,2.9,1.26.23.12.34.31.34.57ZM103.25,151.8c.06-.43-.11-.67-.52-.7-.19-.02-.38-.03-.56-.03-1.25,0-1.87.3-1.87.9,0,.24.12.44.36.58.24.15.55.22.94.22.58,0,.99-.07,1.22-.2.23-.13.38-.39.43-.77Z"/>
      <path class="cls-1" d="M121.53,150.37c0,.12-.04.24-.11.35-.59.96-1.29,1.73-2.12,2.3-.93.63-1.91.95-2.95.95-2.28,0-3.42-1.03-3.42-3.09,0-.84.02-1.95.05-3.31.03-1.11.05-2.31.06-3.61,0-.18.07-.34.21-.47.14-.13.3-.2.48-.2.19,0,.36.07.49.21s.2.3.2.49l-.16,6.62c0,1.36.72,2.04,2.16,2.04.77,0,1.51-.27,2.22-.82.61-.45,1.14-1.05,1.6-1.81.13-.22.33-.32.59-.32.19,0,.35.07.49.2.13.13.2.3.2.49Z"/>
      <path class="cls-1" d="M130.98,146.01c-.63.12-1.27.22-1.92.3-.36.04-.61.13-.77.27s-.28.38-.36.71c-.49,2.05-1.09,4.03-1.81,5.92-.11.29-.33.43-.64.43-.19,0-.35-.07-.48-.2-.13-.13-.2-.29-.2-.47,0-.09.02-.17.05-.26.74-1.74,1.34-3.59,1.81-5.54.02-.07.03-.13.03-.2,0-.3-.18-.45-.55-.44-.36,0-.7,0-1,0-.17,0-.32-.08-.45-.2-.13-.12-.19-.27-.19-.45s.07-.34.2-.47c.13-.13.29-.19.47-.18.49.02.89.02,1.2.01.49-.02.76-.26.83-.71.03-.19.07-.47.13-.85s.28-.57.66-.57c.18,0,.34.06.47.19s.2.28.2.46c0,.09-.04.3-.1.65,0,.06-.01.12-.01.17,0,.35.19.49.57.43.05,0,.36-.07.91-.18.42-.08.7-.12.86-.12.18,0,.33.07.45.2.12.13.18.29.18.47,0,.36-.18.57-.53.64ZM135.09,152.84c0,.37-.18.58-.55.64-.82.12-1.69.18-2.6.18-2.3,0-3.46-.65-3.46-1.94,0-.29.07-.63.22-1.01.1-.26.3-.39.58-.39.41,0,.61.21.61.62,0,.07-.01.17-.04.29-.03.13-.04.22-.04.29,0,.59.74.88,2.22.88.65,0,1.42-.07,2.31-.2.19-.03.36.02.51.15.15.13.22.28.22.47ZM134.72,148.01c0,.18-.07.34-.21.47-.14.13-.3.19-.48.18-1.29-.07-2.67-.04-4.15.09-.18.02-.34-.04-.47-.16-.13-.13-.2-.28-.2-.46,0-.16.05-.31.16-.42.11-.12.24-.18.4-.2,1.46-.15,2.9-.2,4.32-.16.17,0,.32.08.45.21s.19.28.19.46Z"/>
      <path class="cls-1" d="M140.78,152.57c0,.53-.19.98-.56,1.35-.37.37-.82.55-1.35.55s-.98-.18-1.35-.55-.55-.82-.55-1.35.18-.98.55-1.35c.37-.37.82-.56,1.35-.56s.98.19,1.35.56c.37.37.56.82.56,1.35ZM139.86,152.57c0-.28-.09-.51-.29-.7-.19-.19-.42-.29-.7-.29s-.5.1-.69.29c-.19.19-.29.43-.29.7s.1.5.29.68.42.28.69.28.51-.09.7-.27c.19-.18.29-.41.29-.69Z"/>
    </g>
    <g>
      <path class="cls-1" d="M131.16,173.08c0,.18-.07.34-.2.46-.13.12-.29.19-.47.19-.11,0-.22-.03-.31-.08l-.55-.29c-.13-.07-.25-.1-.35-.1-.22,0-.39.14-.51.43-.49,1.18-1.27,2.16-2.31,2.95-.11.09-.24.13-.39.13-.18,0-.34-.07-.47-.2-.13-.13-.2-.29-.2-.47,0-.23.09-.4.27-.53.87-.64,1.51-1.47,1.94-2.5.04-.1.06-.2.06-.29,0-.25-.15-.43-.44-.55-.62-.23-1.25-.41-1.91-.53-.07-.02-.14-.03-.21-.03-.36,0-.63.2-.81.6-.18.42-.49,1.11-.92,2.07-.29.61-.57,1.04-.86,1.29s-.65.38-1.08.38c-.53,0-.97-.21-1.33-.62-.36-.41-.53-.91-.53-1.5,0-1.08.43-1.95,1.3-2.59.58-.42,1.27-.7,2.07-.83.58-.1.98-.38,1.18-.84.29-.68.5-1.15.61-1.43.04-.11.07-.21.07-.3,0-.24-.2-.35-.61-.31-.42.04-1.1.1-2.07.18-.17,0-.33-.05-.46-.16-.13-.12-.2-.27-.2-.45,0-.16.06-.31.17-.43.11-.12.25-.19.42-.2.93-.03,1.98-.13,3.17-.29.13-.02.22-.03.29-.03.63,0,.95.26.95.78,0,.18-.04.37-.13.57l-.96,2.24c-.05.13-.08.24-.08.34,0,.23.17.37.52.43.47.09,1.01.23,1.64.44.1.04.2.05.29.05.29,0,.45-.17.49-.52.05-.46.09-.91.1-1.34,0-.17.08-.32.2-.44.12-.12.27-.18.45-.18s.34.07.47.2.19.29.18.47c0,.2-.04.54-.1,1.03-.05.43-.08.76-.08.98,0,.36.19.64.56.83.24.11.49.23.73.34.27.17.4.38.4.62ZM122.95,172.28c.05-.11.08-.22.08-.31,0-.19-.1-.29-.29-.29-.07,0-.15.01-.23.04-.36.12-.67.29-.94.52-.5.42-.75.97-.75,1.64,0,.21.05.39.16.55s.25.24.42.24c.33,0,.65-.35.95-1.04l.6-1.35Z"/>
      <path class="cls-1" d="M143.93,170.37c0,1-.34,1.75-1.03,2.25-.6.45-1.41.68-2.44.68-.11,0-.38-.01-.81-.04-.16,0-.29-.07-.4-.2-.11-.12-.17-.26-.17-.42,0-.17.07-.32.2-.44.13-.12.28-.17.46-.16.41.02.62.03.65.03,1.48,0,2.22-.56,2.22-1.68,0-.4-.14-.71-.43-.93-.29-.22-.66-.33-1.12-.33-.56,0-1.32.16-2.27.48l-1.24.42c-.3.1-.46.28-.46.53,0,.09.02.19.07.3.66,1.68,1.29,3.43,1.9,5.24.03.08.04.15.04.22,0,.18-.06.34-.19.47-.13.13-.29.2-.47.2-.33,0-.55-.16-.65-.47-.6-1.88-1.21-3.64-1.85-5.28-.11-.29-.3-.44-.56-.44-.09,0-.18.02-.27.05l-1.73.58c-.08.03-.14.04-.2.04-.16,0-.31-.06-.44-.18-.12-.12-.19-.27-.19-.44,0-.31.14-.51.43-.6l1.6-.51c.3-.1.46-.26.46-.51,0-.1-.03-.21-.08-.33,0-.03-.22-.52-.64-1.5-.04-.08-.05-.17-.05-.26,0-.18.06-.34.19-.47.13-.13.29-.2.47-.2.29,0,.5.14.62.41.12.27.33.79.64,1.54.16.36.37.55.64.55.13,0,.7-.17,1.7-.52,1.07-.37,1.96-.56,2.67-.56.79,0,1.43.21,1.92.64.54.45.81,1.06.81,1.83ZM139.79,167.31c0,.17-.06.31-.18.43s-.26.18-.44.18c-.11,0-.22-.03-.33-.1-.39-.26-.87-.53-1.44-.82-.22-.11-.33-.29-.33-.53,0-.16.06-.31.17-.42.11-.12.25-.17.42-.17.1,0,.19.02.27.06.47.23.98.51,1.55.85.2.12.3.3.3.53Z"/>
      <path class="cls-1" d="M155.26,171.09c-.13-.16-.24-.23-.34-.23-.14,0-.2.15-.2.46.04,1.67-.26,2.99-.92,3.95-.73,1.05-1.82,1.57-3.29,1.57-1.05,0-1.89-.29-2.52-.86-.67-.6-1-1.42-1-2.46,0-1.4.47-2.82,1.42-4.28.12-.18.18-.33.18-.43,0-.12-.08-.18-.23-.18-.1,0-.24.03-.42.09-.62.21-1.01.31-1.16.31-.2,0-.36-.06-.49-.19-.12-.13-.19-.28-.19-.45,0-.36.17-.57.52-.62,1-.15,2.1-.43,3.3-.86.1-.03.2-.05.3-.05.21,0,.38.07.53.21s.21.31.21.49c0,.16-.06.32-.18.46-1.68,1.86-2.52,3.66-2.52,5.39,0,.67.21,1.2.63,1.59.42.39.97.59,1.64.59,1.18,0,2.01-.49,2.48-1.47.35-.7.52-1.72.52-3.04,0-1.21-.18-2.41-.53-3.6-.03-.1-.04-.19-.04-.27,0-.19.05-.34.16-.46.11-.12.25-.18.42-.18.29,0,.49.18.61.53.43,1.29,1.25,2.47,2.44,3.55.17.16.26.33.26.53,0,.18-.07.34-.2.47-.13.13-.28.2-.46.2-.23,0-.55-.26-.96-.78ZM156.27,167.36c0,.13-.04.24-.14.34-.09.1-.21.14-.34.14-.18,0-.4-.16-.65-.48-.18-.24-.36-.49-.55-.73-.1-.09-.14-.2-.14-.33,0-.33.16-.49.49-.49.13,0,.25.06.36.18.36.4.65.76.87,1.09.06.09.09.18.09.27ZM157.79,166.65c0,.13-.05.24-.15.34-.1.09-.21.14-.34.14-.19,0-.33-.07-.43-.22-.28-.41-.53-.74-.77-1-.09-.1-.13-.2-.13-.31,0-.33.17-.49.49-.49.11,0,.23.06.35.18.31.31.61.68.88,1.09.06.12.09.21.09.27Z"/>
    </g>
  </g>
</svg>