<?xml version="1.0" encoding="UTF-8"?>
<svg xmlns="http://www.w3.org/2000/svg" viewBox="0 0 209.97 260">
  <defs>
    <style>
      .cls-1 {
        fill: #5b5b5b;
      }

      .cls-2 {
        fill: #fffffa;
        stroke: #cecece;
        stroke-linecap: round;
        stroke-linejoin: round;
        stroke-width: 7px;
      }
    </style>
  </defs>
  <g id="_レイヤー_1" data-name="レイヤー 1">
    <path class="cls-2" d="M205.91,136.05c5.15,66.33-24.68,120.45-100.96,120.45-69.55,0-106.21-54.13-100.96-120.45C8.48,79.4,50.32,3.5,106.07,3.5s95.35,74.8,99.83,132.55Z"/>
    <polyline class="cls-2" points="4.61 127.5 29.46 155 65.46 127.5 104.46 160 144.46 127.5 184.46 156 205.32 127.5"/>
  </g>
  <g id="naoko2km">
    <g>
      <path class="cls-1" d="M80.62,63.72c0,.16-.2.79-.59,1.89-.28.77-.41,1.51-.41,2.23v10.21c0,.24-.08.44-.23.59s-.35.23-.59.23-.44-.08-.6-.23c-.16-.16-.24-.35-.24-.59v-6.64c0-.31-.09-.47-.27-.47-.1,0-.35.28-.76.85-.17.23-.4.34-.68.34-.22,0-.4-.08-.57-.24-.16-.16-.24-.35-.24-.57,0-.18.05-.34.16-.49,1.52-2.09,2.68-4.53,3.46-7.33.11-.4.37-.59.77-.59.22,0,.41.08.57.24s.24.35.24.57ZM92.46,64.8c0,.23-.08.42-.23.58-.16.16-.35.23-.58.23h-.22c-.6,0-.9.3-.9.9v9.76c0,.88-.15,1.48-.46,1.81-.31.33-.87.49-1.7.49h-1.57c-.22,0-.4-.08-.57-.24s-.24-.36-.24-.58.08-.41.24-.57c.16-.16.35-.24.57-.24h1.04c.4,0,.67-.09.81-.27.11-.14.16-.43.16-.85v-9.31c0-.6-.3-.9-.9-.9h-6.32c-.23,0-.42-.08-.58-.23-.16-.16-.23-.35-.23-.58,0-.22.08-.41.23-.57.16-.16.35-.24.58-.24h10.04c.23,0,.42.08.58.24.16.16.23.35.23.57ZM87.1,73.35c0,.98-.49,1.48-1.48,1.48h-2.77c-.98,0-1.48-.49-1.48-1.48v-4.32c0-.98.49-1.48,1.48-1.48h2.77c.98,0,1.48.49,1.48,1.48v4.32ZM85.51,72.59v-2.84c0-.49-.24-.74-.72-.74h-1.1c-.49,0-.74.25-.74.74v2.84c0,.49.25.74.74.74h1.1c.48,0,.72-.25.72-.74Z"/>
      <path class="cls-1" d="M109.65,76.53c0,1.22-.61,1.84-1.84,1.84h-11c-1.22,0-1.84-.61-1.84-1.84v-10.87c0-1.22.61-1.84,1.84-1.84h11c1.22,0,1.84.61,1.84,1.84v10.87ZM107.98,75.89v-9.59c0-.62-.31-.94-.94-.94h-9.45c-.62,0-.94.31-.94.94v9.59c0,.62.31.94.94.94h9.45c.62,0,.94-.31.94-.94ZM105.67,73.06c0,1-.49,1.49-1.48,1.49h-3.91c-.98,0-1.48-.5-1.48-1.49v-3.94c0-1,.49-1.49,1.48-1.49h3.91c.98,0,1.48.5,1.48,1.49v3.94ZM104.03,72.38v-2.54c0-.48-.25-.72-.74-.72h-2.12c-.48,0-.72.24-.72.72v2.54c0,.48.24.72.72.72h2.12c.49,0,.74-.24.74-.72Z"/>
      <path class="cls-1" d="M127.22,74.23c0,1.32-.49,2.37-1.47,3.16-.98.79-2.32,1.18-4.02,1.18-3.37,0-5.06-1.43-5.06-4.28,0-.24.01-.59.04-1.04.02-.54-.28-.88-.9-1.01-.54-.04-1.07-.08-1.6-.13-.22-.02-.4-.12-.54-.29-.14-.17-.22-.36-.22-.58,0-.25.1-.46.3-.64.2-.17.42-.24.67-.21.37.06.92.14,1.66.23.59.07.92-.2.99-.81l.07-.65c.07-.6-.2-.93-.81-.99-.29-.02-.69-.07-1.2-.14-.51-.07-.77-.35-.77-.85,0-.25.1-.46.3-.63.2-.17.42-.23.67-.2.24.04.65.08,1.24.14.59.06.92-.2.99-.79l.2-1.53c.07-.54.37-.81.9-.81.29,0,.52.11.71.32.19.22.25.46.21.74l-.2,1.26c-.05.31,0,.56.14.73.14.17.37.25.67.24,1.01-.02,1.91-.08,2.72-.16.24-.02.45.04.64.21.19.16.28.36.28.6,0,.22-.07.41-.22.57-.14.16-.32.25-.52.28-1.1.12-2.19.18-3.26.18-.58,0-.89.28-.95.83l-.07.65c-.04.3.02.53.16.7.14.17.37.25.67.25,1.02-.01,2.03-.07,3.04-.18.25-.02.47.04.66.21.19.16.28.37.28.62,0,.22-.07.41-.22.57-.15.16-.33.25-.55.28-1.02.1-2.17.14-3.44.14-.61,0-.93.34-.95,1.01v.65c0,1.87,1.11,2.81,3.33,2.81.97,0,1.79-.22,2.45-.65.77-.5,1.15-1.22,1.15-2.14,0-.68-.16-1.38-.49-2.09-.07-.16-.11-.28-.11-.38,0-.25.09-.46.27-.63s.4-.25.65-.25c.4,0,.67.17.83.52.46,1,.68,1.99.68,2.97Z"/>
      <path class="cls-1" d="M138.49,76.16c0,.43-.2.69-.61.77-1.9.42-4.1.82-6.62,1.19-.24.04-.46-.03-.65-.19-.19-.16-.29-.37-.29-.62,0-.48.23-.75.7-.81.38-.05.58-.3.58-.76v-10.66c0-.98.49-1.48,1.48-1.48h2.83c.98,0,1.48.49,1.48,1.48v9.76c0,.34.17.52.5.56.17.02.31.11.43.26.12.15.18.31.18.5ZM135.82,67.08v-1.21c0-.48-.24-.72-.72-.72h-1.24c-.48,0-.72.24-.72.72v1.21c0,.48.24.72.72.72h1.24c.48,0,.72-.24.72-.72ZM135.82,71.1v-1.13c0-.48-.24-.72-.72-.72h-1.24c-.48,0-.72.24-.72.72v1.13c0,.48.24.72.72.72h1.24c.48,0,.72-.24.72-.72ZM135.82,75.09v-1.13c0-.48-.24-.72-.72-.72h-1.24c-.48,0-.72.24-.72.72v1.48c0,.44.21.67.63.67.22,0,.68-.07,1.4-.22.43-.08.65-.35.65-.79ZM146.26,73.94c0,1.87-.19,3.11-.57,3.72s-1.14.91-2.28.91h-.9c-.2,0-.38-.07-.53-.22-.15-.15-.22-.33-.22-.55s.07-.4.22-.55c.15-.15.33-.23.53-.23h.41c.8,0,1.3-.22,1.49-.65.17-.38.25-1.37.25-2.95v-4.84c0-.5-.26-.76-.77-.76h-.79c-.47,0-.71.23-.74.7-.12,2.02-.34,3.63-.65,4.84-.44,1.73-1.16,3.31-2.16,4.73-.18.25-.41.38-.68.38-.23,0-.42-.08-.58-.23-.16-.16-.24-.35-.24-.58,0-.19.05-.35.14-.49.91-1.26,1.58-2.67,2-4.23.31-1.16.52-2.63.61-4.39.02-.49-.21-.74-.7-.74h-1.24c-.22,0-.4-.08-.54-.23-.14-.16-.22-.34-.22-.56,0-.2.07-.38.22-.53.14-.15.32-.23.54-.23h1.3c.47,0,.71-.24.72-.72.01-.7.02-1.27.02-1.71,0-.22.08-.41.23-.57.16-.16.34-.24.56-.24s.4.08.56.24c.16.16.23.35.23.57v1.71c0,.48.24.72.72.72h1.21c1.24,0,1.85.61,1.85,1.84v5.83Z"/>
      <path class="cls-1" d="M47.8,97.97c-.47,1.14-.87,2.28-1.21,3.42-.17.58-.5.86-.99.86-.53,0-.87-.33-1.03-.99-.32-1.36-.49-2.97-.49-4.84,0-2.03.2-4.26.61-6.7.08-.5.38-.76.88-.76.28,0,.51.11.69.32.19.22.25.46.21.74-.47,2.74-.7,4.93-.7,6.57v1.04c.01.38.11.58.31.58.17,0,.31-.16.43-.47l.11-.27c.11-.26.3-.4.58-.4.18,0,.33.06.46.19.13.13.19.28.19.46,0,.07-.02.15-.05.23ZM58.21,92.68c0,.43-.25.73-.74.9-.01.01-.44.09-1.3.23-.54.1-.81.41-.81.95v1.35c0,3.22-1.2,5.56-3.6,7.02-.14.08-.3.13-.47.13-.25,0-.47-.09-.65-.27-.18-.18-.27-.4-.27-.65,0-.34.14-.59.43-.77,1.02-.64,1.75-1.42,2.2-2.36.4-.85.59-1.92.59-3.2v-.94c0-.61-.32-.9-.95-.86-1.12.07-1.9.1-2.36.09l-.74-.02c-.23,0-.43-.08-.59-.25s-.25-.37-.25-.59c0-.24.09-.45.27-.62.18-.17.39-.25.63-.24l.67.02c.61.01,1.41-.02,2.39-.09.6-.05.88-.37.85-.97l-.11-1.94c-.01-.25.07-.47.24-.67.17-.19.39-.29.66-.29.24,0,.45.08.62.24s.27.36.28.6c.01.37.04.95.07,1.75.02.58.26.86.72.86.07,0,.15-.01.23-.04l.92-.22c.11-.02.18-.04.22-.04.23,0,.43.09.59.26s.25.38.25.62Z"/>
      <path class="cls-1" d="M75.74,90.48c0,.48-.32.77-.97.86-1.81.28-3.42,1.02-4.82,2.24-1.4,1.22-2.11,2.5-2.11,3.84,0,1.88,1.55,3.13,4.66,3.73.52.1.77.4.77.92,0,.29-.11.53-.33.72-.22.19-.48.26-.77.22-1.74-.3-3.14-.84-4.19-1.62-1.32-.96-1.98-2.23-1.98-3.82,0-1.27.44-2.45,1.31-3.53.35-.43.73-.82,1.15-1.17.36-.3.54-.56.54-.77,0-.29-.31-.41-.92-.36-1.87.17-3.87.38-5.99.63-.26.04-.49-.04-.68-.22-.19-.18-.29-.4-.29-.67,0-.23.08-.43.23-.59.15-.17.34-.26.57-.29,2.17-.22,6.41-.54,12.73-.97.32-.02.59.04.79.21.2.16.31.38.31.64Z"/>
      <path class="cls-1" d="M86.45,99.46c-1.06,2.08-2.07,3.11-3.04,3.11-1.2,0-2.13-1.07-2.79-3.2-.52-1.66-.77-3.53-.77-5.63,0-1.08.04-2.01.11-2.79.02-.25.12-.46.3-.63.17-.17.39-.25.64-.25.28,0,.51.11.69.32.19.21.27.45.24.73-.08.8-.13,1.73-.13,2.79,0,1.38.15,2.75.45,4.1.34,1.5.78,2.25,1.33,2.25.4,0,.85-.54,1.35-1.62.16-.32.43-.49.81-.49.25,0,.46.09.64.26s.26.39.26.64c0,.16-.03.29-.09.41ZM94.24,98.91c.04.29-.04.55-.23.77s-.44.34-.74.34c-.25,0-.47-.08-.67-.25-.19-.17-.3-.37-.32-.61-.3-2.72-1.18-5.15-2.65-7.27-.11-.16-.16-.33-.16-.52,0-.26.09-.49.27-.67.18-.18.4-.27.67-.27.32,0,.58.13.77.4,1.66,2.3,2.68,5,3.06,8.08Z"/>
      <path class="cls-1" d="M106.52,92.39c-.88.17-1.76.31-2.66.41-.49.06-.85.19-1.07.38-.22.19-.39.52-.5.99-.67,2.84-1.51,5.57-2.5,8.19-.16.4-.45.59-.88.59-.26,0-.49-.09-.67-.28-.18-.19-.27-.41-.27-.66,0-.12.02-.24.07-.36,1.02-2.41,1.85-4.97,2.5-7.67.02-.1.04-.19.04-.27,0-.42-.25-.62-.76-.61-.5.01-.97.01-1.39,0-.24-.01-.45-.1-.62-.28-.17-.17-.26-.38-.26-.62s.09-.47.28-.65c.19-.18.41-.26.66-.25.68.02,1.24.03,1.66.02.67-.02,1.06-.35,1.15-.99.04-.26.1-.66.18-1.18s.39-.78.92-.78c.25,0,.47.09.65.27s.27.39.27.63c0,.12-.05.42-.14.9-.01.08-.02.16-.02.23,0,.48.26.68.79.59.07-.01.49-.1,1.26-.25.58-.11.97-.16,1.19-.16.25,0,.46.09.62.27.16.18.24.4.24.65,0,.49-.25.79-.74.88ZM112.21,101.86c0,.52-.25.81-.76.88-1.14.17-2.34.25-3.6.25-3.19,0-4.79-.89-4.79-2.68,0-.41.1-.88.31-1.4.14-.36.41-.54.81-.54.56,0,.85.29.85.86,0,.1-.02.23-.05.41s-.05.31-.05.4c0,.82,1.03,1.22,3.08,1.22.9,0,1.97-.09,3.2-.27.26-.04.5.03.7.21s.31.39.31.66ZM111.7,95.16c0,.25-.1.47-.29.65s-.41.26-.67.25c-1.79-.1-3.7-.05-5.74.13-.25.02-.47-.05-.66-.23-.19-.17-.28-.39-.28-.64,0-.23.07-.42.23-.58.15-.16.33-.25.55-.28,2.03-.2,4.02-.28,5.98-.22.24.01.45.11.62.29.17.18.26.39.26.63Z"/>
      <path class="cls-1" d="M124.52,92.39c-1.01.19-1.9.33-2.66.41-.49.06-.85.19-1.07.38-.22.19-.39.52-.5.99-.72,3.16-1.55,5.89-2.5,8.19-.17.4-.46.59-.88.59-.26,0-.49-.09-.67-.28-.18-.19-.27-.41-.27-.66,0-.13.02-.25.07-.36.96-2.24,1.79-4.8,2.5-7.67.02-.1.04-.19.04-.27,0-.42-.25-.62-.76-.61-.5.01-.97.01-1.39,0-.24-.01-.45-.1-.62-.28-.17-.17-.26-.38-.26-.62s.09-.47.28-.65c.19-.18.41-.26.66-.25.68.02,1.24.03,1.66.02.68-.02,1.07-.35,1.15-.99.04-.25.1-.64.18-1.17.08-.53.39-.79.92-.79.25,0,.47.09.65.27.18.18.27.39.27.63,0,.12-.05.42-.14.9-.01.08-.02.16-.02.23,0,.48.26.68.79.59.07-.01.49-.1,1.26-.25.58-.11.97-.16,1.19-.16.25,0,.46.09.62.27.16.18.24.4.24.65,0,.49-.25.79-.74.88ZM130.21,101.86c0,.23-.07.43-.22.59-.14.17-.32.26-.54.29-1.34.17-2.54.25-3.6.25-3.19,0-4.79-.89-4.79-2.68,0-.43.1-.9.31-1.4.14-.36.41-.54.81-.54.58,0,.86.29.86.86,0,.1-.02.23-.07.41s-.07.31-.07.4c0,.82,1.03,1.22,3.1,1.22.8,0,1.87-.09,3.2-.27.26-.04.5.03.7.21s.31.39.31.66ZM129.7,95.16c0,.25-.1.47-.29.65-.19.18-.41.26-.67.25-1.85-.13-3.76-.09-5.74.13-.25.02-.47-.05-.66-.23-.19-.17-.28-.39-.28-.64,0-.23.07-.42.22-.58.15-.16.33-.25.55-.28,2.39-.2,4.38-.28,5.98-.22.24.01.45.11.62.29.17.18.26.39.26.63ZM128.84,92.01c0,.19-.07.36-.21.5-.14.14-.3.21-.5.21-.29,0-.5-.11-.63-.32-.35-.55-.72-1.03-1.12-1.42-.13-.13-.2-.29-.2-.49,0-.48.23-.72.7-.72.2,0,.38.09.54.27.5.56.92,1.09,1.26,1.58.1.14.14.28.14.4ZM131.04,90.99c0,.19-.07.36-.21.49-.14.14-.3.21-.5.21-.28,0-.49-.11-.63-.32-.4-.59-.77-1.07-1.12-1.46-.13-.14-.2-.29-.2-.45,0-.48.24-.72.72-.72.18,0,.35.08.52.25.42.42.85.95,1.28,1.6.08.17.13.3.13.4Z"/>
      <path class="cls-1" d="M140.99,99.46c-1.06,2.08-2.07,3.11-3.04,3.11-1.2,0-2.13-1.07-2.79-3.2-.52-1.66-.77-3.53-.77-5.63,0-1.08.04-2.01.11-2.79.02-.25.12-.46.3-.63s.39-.25.64-.25c.28,0,.51.11.69.32.19.21.27.45.24.73-.08.8-.13,1.73-.13,2.79,0,1.38.15,2.75.45,4.1.34,1.5.78,2.25,1.33,2.25.4,0,.85-.54,1.35-1.62.16-.32.43-.49.81-.49.25,0,.46.09.64.26s.26.39.26.64c0,.16-.03.29-.09.41ZM148.78,98.91c.04.29-.04.55-.23.77-.19.23-.44.34-.74.34-.25,0-.47-.08-.67-.25-.19-.17-.3-.37-.32-.61-.3-2.72-1.18-5.15-2.65-7.27-.11-.16-.16-.33-.16-.52,0-.26.09-.49.27-.67.18-.18.4-.27.67-.27.32,0,.58.13.77.4,1.66,2.3,2.68,5,3.06,8.08Z"/>
      <path class="cls-1" d="M166.64,90.48c0,.48-.32.77-.97.86-1.81.28-3.42,1.02-4.82,2.24-1.4,1.22-2.11,2.5-2.11,3.84,0,1.88,1.55,3.13,4.66,3.73.52.1.77.4.77.92,0,.29-.11.53-.33.72-.22.19-.48.26-.76.22-1.74-.3-3.14-.84-4.19-1.62-1.32-.96-1.98-2.23-1.98-3.82,0-1.27.44-2.45,1.31-3.53.35-.43.73-.82,1.15-1.17.36-.3.54-.56.54-.77,0-.29-.31-.41-.92-.36-1.87.17-3.87.38-5.99.63-.26.04-.49-.04-.68-.22-.19-.18-.29-.4-.29-.67,0-.23.07-.43.22-.59.15-.17.34-.26.57-.29,2.17-.22,6.41-.54,12.73-.97.32-.02.59.04.79.21.2.16.31.38.31.64Z"/>
      <path class="cls-1" d="M48.39,123.2c0,1.54-.54,2.76-1.62,3.67-.94.8-2.21,1.31-3.82,1.53-.25.04-.48-.03-.67-.21-.2-.17-.3-.39-.3-.64,0-.49.24-.78.72-.86,2.57-.44,3.85-1.63,3.85-3.56,0-1.33-.55-2.27-1.64-2.81-.14-.07-.28-.11-.41-.11-.31,0-.56.2-.76.59-.78,1.63-1.67,3.05-2.68,4.27-1.55,1.85-3.09,2.77-4.63,2.77-.79,0-1.41-.22-1.84-.67-.44-.45-.66-1.06-.66-1.84,0-1.37.4-2.61,1.21-3.73.61-.85,1.37-1.55,2.29-2.09.54-.32.83-.77.86-1.35l.02-.34c.02-.55-.23-.83-.77-.83-.67,0-1.43,0-2.29-.02-.23,0-.42-.08-.58-.25s-.24-.37-.24-.59.09-.43.26-.59.38-.25.62-.23c1.1.05,1.93.07,2.47.05.49-.01.77-.27.85-.77l.11-.77c.07-.53.35-.79.85-.79.25,0,.47.11.67.32.19.22.27.44.23.67l-.05.34c-.05.29,0,.51.13.67.13.16.34.22.63.2,1.24-.1,2.63-.26,4.18-.49.25-.04.48.03.67.2.2.17.3.38.3.65,0,.49-.25.77-.76.83-1.88.23-3.43.38-4.63.45-.56.04-.86.29-.9.77-.02.29.04.5.19.62s.37.17.66.13c.47-.06.87-.09,1.21-.09,1.84,0,3.29.35,4.37,1.04,1.28.84,1.93,2.13,1.93,3.87ZM37.61,125.83c.54-.29.78-.86.72-1.71-.01-.54-.02-1.07-.04-1.6-.05-.84-.2-1.26-.47-1.26-.17,0-.36.1-.58.29-.47.41-.85.92-1.13,1.55-.31.66-.47,1.32-.47,1.98,0,.71.29,1.06.88,1.06.34,0,.7-.1,1.08-.31ZM42.12,120.52c.06-.12.09-.23.09-.32,0-.3-.19-.44-.56-.41-.55.04-.96.13-1.22.29-.37.22-.56.58-.58,1.08-.01.46,0,.97.02,1.55.01.36.14.54.38.54.17,0,.32-.1.47-.31.54-.76,1.01-1.56,1.4-2.41Z"/>
      <path class="cls-1" d="M57.98,120.07c-.62,1.07-1.15,2.11-1.57,3.11-.18.43-.49.65-.92.65-.6,0-.95-.31-1.04-.94-.11-.71-.16-1.77-.16-3.19s.2-3.11.61-5.06c.12-.59.43-.88.94-.88.25,0,.46.09.63.26s.25.39.25.64c0,.07,0,.14-.02.22-.43,1.98-.66,3.47-.68,4.48-.01.4.08.59.27.59.16,0,.32-.14.5-.43l.09-.14c.12-.19.3-.29.54-.29.43,0,.65.22.65.65,0,.12-.03.23-.09.32ZM64.17,120.16c0,2.03-.37,3.69-1.1,4.99-.77,1.34-2.03,2.48-3.78,3.4-.13.07-.28.11-.43.11-.25,0-.47-.1-.65-.3-.18-.2-.27-.42-.27-.67,0-.34.17-.59.5-.77,1.46-.77,2.49-1.69,3.08-2.77.55-1,.83-2.35.83-4.05,0-1.55-.16-3.37-.49-5.45-.05-.28.02-.52.22-.75s.43-.33.7-.33c.23,0,.43.08.6.23.17.16.28.35.31.58.31,2.24.47,4.18.47,5.8Z"/>
      <path class="cls-1" d="M80.36,119.87c0,1.94-.32,4.06-.95,6.34-.19.68-.4,1.17-.63,1.46-.32.43-.77.65-1.35.65-.66,0-1.49-.17-2.48-.52-.41-.14-.61-.41-.61-.81,0-.24.09-.44.26-.61s.38-.25.6-.25c.1,0,.18.01.25.04.62.2,1.06.31,1.3.31.29,0,.49-.08.61-.25.1-.12.2-.39.32-.81.56-1.93.85-3.68.85-5.26,0-.58-.11-.96-.34-1.15-.23-.19-.66-.29-1.3-.29h-.25c-.11.01-.2.02-.27.02-.6,0-.99.31-1.17.94-.8,2.72-1.87,5.36-3.2,7.9-.18.35-.46.52-.85.52-.26,0-.49-.09-.67-.28-.18-.19-.27-.41-.27-.67,0-.19.04-.35.11-.49,1.13-1.98,2.12-4.22,2.99-6.71.04-.12.05-.23.05-.32,0-.43-.26-.61-.77-.54-.37.06-.95.14-1.75.25-.25.04-.48-.03-.69-.21-.21-.17-.31-.39-.31-.66,0-.5.26-.79.79-.87.53-.08,1.36-.18,2.5-.31.58-.05.97-.41,1.17-1.08.11-.59.21-1.18.31-1.76.08-.52.38-.77.9-.77.29,0,.52.11.69.31.17.21.24.46.19.75-.01.06-.07.32-.16.79-.08.32-.13.58-.13.77,0,.5.28.74.85.7l.27-.02c.91-.06,1.65.1,2.21.49.62.43.94,1.24.94,2.43ZM82.77,115.93c0,.19-.07.36-.21.5-.14.14-.3.21-.5.21-.29,0-.5-.11-.63-.32-.35-.55-.72-1.03-1.12-1.42-.13-.13-.2-.29-.2-.49,0-.48.23-.72.7-.72.2,0,.38.09.54.27.5.56.92,1.09,1.26,1.58.1.14.14.28.14.4ZM83.92,122.23c-.5-1.31-1.18-2.59-2.03-3.83-.1-.14-.14-.31-.14-.49,0-.25.09-.46.28-.64.19-.17.41-.26.66-.26.3,0,.55.13.74.4.95,1.33,1.72,2.71,2.3,4.14.05.12.07.24.07.36,0,.25-.1.47-.31.67s-.45.29-.71.29c-.4,0-.68-.21-.85-.63ZM84.96,114.91c0,.19-.07.36-.21.49-.14.14-.3.21-.49.21-.28,0-.49-.11-.63-.32-.4-.59-.77-1.07-1.12-1.46-.13-.14-.2-.29-.2-.45,0-.48.24-.72.72-.72.18,0,.35.08.52.25.42.42.85.95,1.28,1.6.08.17.13.3.13.4Z"/>
      <path class="cls-1" d="M101.83,126.61c0,.52-.26.81-.77.88-1.98.28-3.96.41-5.94.41-3.53,0-5.29-1.06-5.29-3.19,0-1.3.91-2.64,2.72-4.03.36-.28.54-.59.54-.95,0-.17-.04-.35-.11-.54-.53-1.33-.97-2.77-1.31-4.3-.01-.06-.02-.13-.02-.2,0-.26.09-.49.28-.67.19-.19.41-.28.67-.28.23,0,.43.08.6.23s.29.35.33.58c.23,1.2.56,2.41.99,3.62.14.4.37.59.68.59.17,0,.34-.05.52-.16.11-.06,1.43-.79,3.98-2.18.16-.08.3-.13.43-.13.25,0,.46.09.64.27.17.18.26.4.26.65,0,.37-.17.64-.5.81-1.48.73-3.07,1.6-4.79,2.59-1.09.64-1.96,1.23-2.61,1.78-.94.8-1.4,1.54-1.4,2.2,0,1.08,1.13,1.62,3.38,1.62,1.86,0,3.75-.16,5.67-.49.26-.05.5.02.72.2.22.18.32.41.32.68Z"/>
      <path class="cls-1" d="M119.61,121.49c0,1.85-.78,3.41-2.34,4.7-1.25,1.04-2.88,1.83-4.9,2.36-.1.02-.17.04-.22.04-.24,0-.45-.09-.62-.26s-.26-.39-.26-.64c0-.44.21-.73.63-.85,1.55-.44,2.81-1.04,3.8-1.8,1.32-1,1.98-2.16,1.98-3.49,0-1.61-.81-2.41-2.43-2.41s-3.7.43-6.14,1.28c-.11.04-.2.05-.29.05-.24,0-.45-.09-.63-.27-.18-.18-.27-.4-.27-.65,0-.44.22-.73.65-.86,2.82-.85,5.08-1.28,6.77-1.28,1.34,0,2.38.34,3.11,1.03.77.72,1.15,1.74,1.15,3.06ZM117.53,115.19c0,.26-.1.48-.29.66-.19.17-.41.25-.67.23-2.44-.22-4.36-.52-5.76-.9-.44-.12-.67-.41-.67-.86,0-.25.09-.46.26-.64.17-.17.39-.26.64-.26.07,0,.15.01.23.04,1.6.43,3.4.72,5.42.86.23.01.42.11.58.28s.24.38.24.6Z"/>
      <path class="cls-1" d="M138.17,126.14c0,.5-.25.8-.74.9-1.9.35-3.73.52-5.49.52s-3.01-.14-4-.41c-1.61-.46-2.41-1.33-2.41-2.61,0-.88.57-1.88,1.71-3.02.16-.16.35-.23.59-.23.23,0,.43.08.59.24s.25.36.25.58-.08.4-.23.56c-.65.65-.97,1.21-.97,1.67,0,1,1.52,1.49,4.57,1.49,1.2,0,2.89-.19,5.08-.56.26-.05.5.01.72.19s.32.4.32.67ZM136.21,116.83c-.9.36-2.12,1.03-3.67,2-.16.1-.29.14-.41.14-.2,0-.38-.07-.53-.23-.15-.15-.23-.33-.23-.55,0-.28.12-.49.36-.63l.23-.14c.23-.13.34-.26.34-.4,0-.16-.17-.23-.52-.23-1.08,0-2.56-.04-4.43-.11-.23-.01-.42-.1-.58-.27-.16-.17-.24-.37-.24-.59,0-.25.09-.46.28-.64.19-.17.41-.25.66-.24,2.36.17,5.15.19,8.35.05.35-.01.63.07.84.25s.32.4.32.65c0,.42-.25.73-.76.94ZM138.21,120.32c0,.19-.07.36-.21.5-.14.14-.3.21-.5.21-.29,0-.5-.11-.63-.32-.35-.55-.72-1.03-1.12-1.42-.13-.13-.2-.29-.2-.49,0-.48.23-.72.7-.72.2,0,.38.09.54.27.5.56.92,1.09,1.26,1.58.1.14.14.28.14.4ZM140.4,119.3c0,.19-.07.36-.21.49-.14.14-.3.21-.5.21-.28,0-.49-.11-.63-.32-.4-.59-.77-1.07-1.12-1.46-.13-.14-.2-.29-.2-.45,0-.48.24-.72.72-.72.18,0,.35.08.52.25.42.42.85.95,1.28,1.6.08.17.13.3.13.4Z"/>
      <path class="cls-1" d="M155.65,116.26c0,.36-.17.62-.5.77-.01,0-.7.26-2.07.79-.38.14-.58.34-.58.59,0,.14.07.3.2.47.85,1.15,1.73,2.18,2.65,3.1.25.25.38.53.38.85,0,.28-.1.51-.3.7-.2.19-.45.29-.75.29-.19,0-.39-.04-.59-.13-1.45-.65-2.93-.97-4.45-.97-1.1,0-1.96.17-2.57.5s-.92.8-.92,1.39c0,1.36,1.46,2.04,4.39,2.04,1.16,0,2.33-.08,3.49-.25.25-.04.48.03.67.21.2.17.3.39.3.66,0,.22-.08.41-.22.57-.15.16-.33.25-.53.28-1.16.16-2.33.23-3.49.23-4.3,0-6.44-1.2-6.44-3.6,0-1.31.57-2.26,1.71-2.86.88-.47,2.03-.7,3.47-.7.66,0,1.31.08,1.94.23.2.05.37.07.5.07.25,0,.38-.09.38-.27,0-.14-.07-.31-.22-.49-.46-.55-.79-.98-1.01-1.28-.4-.54-.86-.81-1.4-.81-.14,0-.31.02-.49.05-1.37.23-2.99.34-4.88.34-.24,0-.44-.08-.61-.25-.17-.17-.25-.37-.25-.61s.08-.44.25-.61.37-.25.61-.25c1.3,0,2.62-.08,3.96-.23.42-.05.63-.23.63-.54,0-.16-.05-.32-.16-.49l-.61-1.01c-.08-.14-.13-.29-.13-.45,0-.24.09-.45.26-.62.17-.17.38-.26.62-.26.36,0,.62.16.79.47.41.79.67,1.26.77,1.4.38.55.79.83,1.22.83.14,0,.31-.02.49-.07.74-.23,1.49-.52,2.23-.86.12-.06.25-.09.38-.09.24,0,.44.09.61.26s.25.38.25.62ZM157.02,115.23c0,.18-.06.34-.19.47s-.29.2-.48.2c-.25,0-.55-.22-.9-.67-.25-.34-.5-.67-.76-1.01-.13-.13-.2-.28-.2-.45,0-.46.23-.68.68-.68.18,0,.35.08.5.25.49.55.89,1.06,1.21,1.51.08.12.13.25.13.38ZM159.12,114.24c0,.18-.07.34-.21.47-.14.13-.3.2-.48.2-.26,0-.46-.1-.59-.31-.38-.56-.74-1.03-1.06-1.39-.12-.13-.18-.28-.18-.43,0-.46.23-.68.68-.68.16,0,.32.08.49.25.43.43.84.94,1.22,1.51.08.17.13.29.13.38Z"/>
      <path class="cls-1" d="M168.18,124.46c-1.06,2.08-2.07,3.11-3.04,3.11-1.2,0-2.13-1.07-2.79-3.2-.52-1.66-.77-3.53-.77-5.63,0-1.08.04-2.01.11-2.79.02-.25.12-.46.3-.63s.39-.25.64-.25c.28,0,.51.11.69.32.19.21.27.45.24.73-.08.8-.13,1.73-.13,2.79,0,1.38.15,2.75.45,4.1.34,1.5.78,2.25,1.33,2.25.4,0,.85-.54,1.35-1.62.16-.32.43-.49.81-.49.25,0,.46.09.64.26s.26.39.26.64c0,.16-.03.29-.09.41ZM175.97,123.91c.04.29-.04.55-.23.77-.19.23-.44.34-.74.34-.25,0-.47-.08-.67-.25-.19-.17-.3-.37-.32-.61-.3-2.72-1.18-5.15-2.65-7.27-.11-.16-.16-.33-.16-.52,0-.26.09-.49.27-.67.18-.18.4-.27.67-.27.32,0,.58.13.77.4,1.66,2.3,2.68,5,3.06,8.08Z"/>
      <path class="cls-1" d="M44.75,151.12c0,.25-.09.46-.26.64-.17.17-.39.26-.64.26-.17,0-.32-.04-.47-.13-1.2-.71-2.27-1.24-3.2-1.6-.12-.05-.23-.07-.32-.07-.35,0-.55.24-.61.72-.1.72-.34,1.25-.72,1.6-.6.54-1.67.81-3.22.81-.98,0-1.8-.19-2.45-.56-.79-.47-1.19-1.16-1.19-2.09,0-1.04.5-1.81,1.49-2.29.74-.36,1.7-.54,2.88-.54.13,0,.34,0,.61.02.62.02.94-.24.94-.79v-.5c0-.6-.31-.89-.92-.88-1.27.04-2.5.05-3.67.04-.22,0-.4-.08-.55-.24-.15-.16-.23-.35-.23-.57s.08-.4.24-.55c.16-.15.35-.23.57-.23,1.18.02,2.39.02,3.65,0,.59-.01.88-.32.88-.92v-.07c0-.61-.31-.91-.94-.88-1.45.06-2.83.07-4.12.04-.22-.01-.4-.1-.56-.26-.16-.16-.23-.35-.23-.57,0-.23.08-.42.25-.58.17-.16.37-.23.59-.22,1.34.04,2.71.04,4.1,0,.59-.01.88-.3.88-.86,0-.05,0-.32-.02-.81,0-.24.08-.45.25-.62.17-.17.37-.26.61-.26s.44.09.61.26.25.38.25.62v.61c0,.64.31.92.94.86.92-.1,1.93-.22,3.02-.38.24-.04.45.03.64.19s.28.36.28.6c0,.46-.23.71-.7.77-1.3.17-2.39.29-3.29.38-.58.06-.86.37-.86.94v.05c0,.64.31.92.94.86.64-.06,1.52-.17,2.65-.34.24-.04.46.03.65.19s.29.36.29.6c0,.47-.23.73-.68.79-.96.13-1.95.25-2.97.34-.58.05-.86.36-.86.94v.81c0,.66.33,1.1.99,1.31,1.22.4,2.56.98,4.01,1.75.31.17.47.43.47.79ZM37.53,150.42c.08-.6-.16-.92-.72-.97-.26-.02-.52-.04-.77-.04-1.73,0-2.59.41-2.59,1.24,0,.34.17.61.5.81s.77.31,1.31.31c.8,0,1.37-.09,1.69-.28.32-.19.52-.54.59-1.07Z"/>
      <path class="cls-1" d="M62.84,148.44c0,.17-.05.33-.14.49-.82,1.33-1.79,2.39-2.93,3.19-1.28.88-2.65,1.31-4.09,1.31-3.16,0-4.73-1.43-4.73-4.28,0-1.16.02-2.69.07-4.59.04-1.54.07-3.2.09-5,0-.25.1-.47.29-.66.19-.19.41-.28.67-.28s.49.1.68.29c.19.19.28.42.27.68l-.22,9.16c0,1.88,1,2.83,2.99,2.83,1.07,0,2.09-.38,3.08-1.13.84-.62,1.58-1.46,2.21-2.5.18-.3.45-.45.81-.45.26,0,.49.09.67.28.19.19.28.41.28.68Z"/>
      <path class="cls-1" d="M75.92,142.39c-.88.17-1.76.31-2.66.41-.49.06-.85.19-1.07.38-.22.19-.39.52-.5.99-.67,2.84-1.51,5.57-2.5,8.19-.16.4-.45.59-.88.59-.26,0-.49-.09-.67-.28-.18-.19-.27-.4-.27-.66,0-.12.02-.24.07-.36,1.02-2.41,1.85-4.97,2.5-7.67.02-.1.04-.19.04-.27,0-.42-.25-.62-.76-.61s-.97.01-1.39,0c-.24-.01-.45-.11-.62-.28s-.26-.38-.26-.62.09-.47.28-.65c.19-.18.41-.26.66-.25.68.02,1.24.03,1.66.02.67-.02,1.06-.35,1.15-.99.04-.26.1-.66.18-1.18.08-.52.39-.78.92-.78.25,0,.47.09.65.27.18.18.27.39.27.63,0,.12-.05.42-.14.9-.01.08-.02.16-.02.23,0,.48.26.68.79.59.07-.01.49-.1,1.26-.25.58-.11.97-.16,1.19-.16.25,0,.46.09.62.27.16.18.24.4.24.65,0,.49-.25.79-.74.88ZM81.61,151.86c0,.52-.25.81-.76.88-1.14.17-2.34.25-3.6.25-3.19,0-4.79-.89-4.79-2.68,0-.41.1-.88.31-1.4.14-.36.41-.54.81-.54.56,0,.85.29.85.86,0,.1-.02.23-.05.4-.04.17-.05.31-.05.41,0,.82,1.03,1.22,3.08,1.22.9,0,1.97-.09,3.2-.27.26-.04.5.03.7.21.2.17.31.39.31.66ZM81.11,145.16c0,.25-.1.47-.29.65-.19.18-.41.26-.67.25-1.79-.1-3.7-.05-5.74.13-.25.02-.47-.05-.66-.23s-.28-.39-.28-.64c0-.23.07-.42.23-.58.15-.16.33-.25.55-.28,2.03-.2,4.02-.28,5.98-.22.24.01.45.11.62.29.17.18.26.39.26.63Z"/>
      <path class="cls-1" d="M89.5,151.48c0,.73-.26,1.35-.77,1.86-.52.51-1.14.77-1.87.77s-1.35-.26-1.86-.77c-.51-.51-.77-1.13-.77-1.86s.25-1.36.77-1.87c.51-.52,1.13-.77,1.86-.77s1.36.26,1.87.77c.52.52.77,1.14.77,1.87ZM88.22,151.48c0-.38-.13-.71-.4-.97-.26-.26-.59-.4-.97-.4s-.69.13-.95.41c-.26.27-.4.59-.4.96s.13.69.4.94c.26.26.58.39.95.39s.71-.13.97-.38c.26-.25.4-.57.4-.95Z"/>
    </g>
    <g>
      <path class="cls-1" d="M119.63,187.98c-.61.13-1.21.24-1.78.32-.67.11-1.12.48-1.35,1.12-.84,2.41-1.79,4.7-2.86,6.88-.17.35-.44.52-.83.52-.25,0-.47-.09-.65-.27-.18-.18-.27-.4-.27-.65,0-.14.04-.29.11-.43,1.01-1.94,1.88-3.91,2.61-5.9.05-.13.07-.25.07-.34,0-.37-.25-.56-.76-.56h-1.03c-.24,0-.44-.09-.61-.26-.17-.17-.25-.38-.25-.62s.09-.46.27-.64c.18-.17.4-.25.65-.24.53.02,1.02.03,1.48.02.73-.01,1.19-.38,1.37-1.1.1-.41.2-.82.31-1.22.18-.46.47-.68.88-.68.25,0,.47.09.65.27.18.18.27.39.27.63,0,.1-.06.35-.18.77-.04.14-.05.27-.05.38,0,.36.16.54.49.54.06,0,.13,0,.2-.02l.94-.2c.11-.02.18-.04.22-.04.24,0,.44.09.58.26.15.17.23.39.23.64,0,.46-.23.73-.68.83ZM126.45,196.89c0,.24-.09.45-.26.63s-.39.27-.64.27c-.16,0-.32-.05-.49-.16-.4-.26-.82-.52-1.26-.76-.14-.08-.28-.13-.4-.13-.29,0-.49.21-.61.63-.35,1.21-1.42,1.82-3.2,1.82-.95,0-1.74-.2-2.38-.61-.76-.47-1.13-1.15-1.13-2.05s.35-1.57,1.06-2.03c.61-.41,1.39-.61,2.32-.61.26,0,.56.02.9.07.28.04.49,0,.64-.13.15-.12.23-.32.23-.61l-.02-2.63c0-.24.08-.45.25-.62s.37-.26.61-.26.44.08.61.25.25.37.25.61l.02,3.02c0,.66.33,1.14.99,1.44.58.26,1.26.63,2.05,1.1.3.18.45.43.45.76ZM121.21,196.39c0-.5-.29-.8-.86-.9-.35-.06-.65-.09-.92-.09-1.09,0-1.64.38-1.64,1.15,0,.35.15.62.44.82.29.2.67.3,1.14.3.84,0,1.39-.2,1.64-.61.13-.22.2-.44.2-.67ZM126.61,188.87c0,.24-.09.45-.26.62s-.38.26-.62.26c-.17,0-.33-.05-.49-.16-.91-.61-1.88-1.13-2.9-1.57-.34-.14-.5-.41-.5-.79,0-.24.09-.44.26-.61.17-.17.38-.25.6-.25.13,0,.24.02.32.07,1.13.48,2.18,1.04,3.17,1.67.28.18.41.43.41.76Z"/>
      <path class="cls-1" d="M144.41,194.21c0,1.43-.55,2.53-1.64,3.29-.94.66-2.18,1.03-3.73,1.12-.24.01-.45-.06-.63-.22s-.27-.36-.27-.6c0-.22.07-.41.22-.57.14-.16.32-.25.54-.28,2.45-.24,3.67-1.15,3.67-2.74,0-.68-.29-1.23-.86-1.65s-1.32-.62-2.23-.62-1.72.08-2.5.23c-.62.12-.94.52-.94,1.19v3.8c0,1.04-.5,1.57-1.51,1.57s-1.96-.29-2.95-.88c-1.14-.68-1.72-1.46-1.73-2.32,0-.64.34-1.31,1.01-2.02.67-.71,1.56-1.35,2.66-1.9.55-.28.83-.7.83-1.28v-1.1c0-.54-.28-.8-.83-.79-.97.02-1.72.02-2.25,0-.22-.01-.4-.1-.56-.26s-.23-.35-.23-.57c0-.24.08-.44.25-.6.17-.16.37-.24.61-.23.72.04,1.46.04,2.21.02.53-.01.79-.29.79-.83v-1.22c0-.23.08-.43.25-.59.17-.17.37-.25.59-.25s.43.08.59.25.25.37.25.59v.99c0,.58.29.82.86.74.4-.06.87-.14,1.42-.23.25-.05.48,0,.68.17s.31.38.31.64c0,.47-.23.74-.7.83-.53.07-1.06.14-1.58.22-.66.16-.99.46-.99.92v.83c0,.48.22.72.65.72.08,0,.17,0,.25-.02.82-.16,1.61-.23,2.39-.23,1.45,0,2.63.31,3.53.92,1.03.7,1.55,1.69,1.55,2.99ZM134.35,195.9v-1.85c0-.48-.18-.72-.54-.72-.14,0-.29.05-.45.14-1.1.67-1.66,1.33-1.66,1.96,0,.37.28.71.85,1.01.53.29.92.43,1.19.43.41,0,.61-.32.61-.97ZM144.74,188.34c0,.24-.08.45-.25.63-.17.18-.37.27-.61.27s-.43-.08-.59-.23c-.67-.62-1.46-1.18-2.38-1.66-.3-.16-.45-.4-.45-.74,0-.24.08-.44.25-.61s.37-.25.59-.25c.14,0,.28.03.4.09,1.01.52,1.92,1.13,2.74,1.84.2.18.31.4.31.67Z"/>
      <path class="cls-1" d="M161.82,196.79c0,.52-.25.82-.74.9-1.97.35-3.8.52-5.49.52s-3.01-.14-4-.41c-1.61-.46-2.41-1.33-2.41-2.61,0-.88.57-1.88,1.71-3.02.16-.16.35-.23.59-.23s.43.08.59.24c.17.16.25.36.25.58,0,.2-.08.39-.23.56-.65.67-.97,1.23-.97,1.67,0,1,1.52,1.49,4.57,1.49,1.45,0,3.14-.19,5.08-.56.26-.05.5.01.72.19.22.17.32.4.32.67ZM159.86,187.48c-1.01.4-2.23,1.06-3.67,2-.14.1-.28.14-.41.14-.2,0-.38-.07-.53-.22s-.22-.33-.22-.55c0-.28.12-.49.36-.63l.23-.14c.23-.13.34-.26.34-.4,0-.16-.17-.23-.52-.23-1.32.02-2.8-.01-4.43-.11-.23-.01-.42-.1-.58-.27s-.24-.37-.24-.59c0-.25.09-.46.28-.64.19-.17.4-.25.66-.24,2.87.17,5.65.19,8.35.05.35-.01.63.07.84.25s.31.4.31.65c0,.42-.25.73-.76.94Z"/>
    </g>
  </g>
</svg>