<?xml version="1.0" encoding="UTF-8"?>
<svg xmlns="http://www.w3.org/2000/svg" viewBox="0 0 209.97 260">
  <defs>
    <style>
      .cls-1 {
        fill: #5b5b5b;
      }

      .cls-2 {
        fill: #fffffa;
        stroke: #cecece;
        stroke-linecap: round;
        stroke-linejoin: round;
        stroke-width: 7px;
      }
    </style>
  </defs>
  <g id="_レイヤー_1" data-name="レイヤー 1">
    <path class="cls-2" d="M205.91,136.05c5.15,66.33-24.68,120.45-100.96,120.45-69.55,0-106.21-54.13-100.96-120.45C8.48,79.4,50.32,3.5,106.07,3.5s95.35,74.8,99.83,132.55Z"/>
    <polyline class="cls-2" points="4.61 127.5 29.46 155 65.46 127.5 104.46 160 144.46 127.5 184.46 156 205.32 127.5"/>
  </g>
  <g id="_レイヤー_8" data-name="レイヤー 8">
    <g>
      <path class="cls-1" d="M86.29,53.1c0,.19-.07.35-.2.48s-.29.2-.47.2h-.63c-.42,0-.63.21-.63.63v.94c0,.2-.07.37-.22.51-.15.14-.31.22-.51.22s-.37-.07-.51-.22c-.15-.14-.22-.31-.22-.51v-.94c0-.42-.21-.63-.63-.63h-3.47c-.83,0-1.25-.29-1.25-.88,0-.27.11-.56.32-.85l4.31-6.08c.31-.43.7-.64,1.16-.64.3,0,.54.1.73.3.19.2.28.47.28.82v5.38c0,.42.21.63.63.63h.63c.18,0,.33.07.47.2s.2.28.2.46ZM82.91,51.81v-3.84c0-.26-.06-.39-.18-.39-.08,0-.17.06-.25.18l-2.83,4c-.13.19-.2.33-.2.43,0,.16.19.24.56.24h2.27c.42,0,.63-.21.63-.63Z"/>
      <path class="cls-1" d="M101.66,51.42c0,1.5-.04,2.49-.13,2.95-.23,1.33-.78,1.99-1.65,1.99-.49,0-1.09-.07-1.78-.21-.35-.07-.53-.28-.53-.63,0-.18.06-.33.19-.46.13-.13.27-.19.44-.19.13,0,.32.03.58.08.26.06.45.08.58.08.39,0,.64-.21.76-.63.13-.48.2-1.52.2-3.12v-.25c0-.36-.06-.6-.19-.71-.13-.11-.4-.17-.83-.17h-1.48c-.39,0-.62.2-.67.6-.15,1.08-.41,2.01-.77,2.79-.54,1.14-1.37,2.08-2.48,2.83-.09.07-.21.1-.36.1-.19,0-.34-.06-.47-.19s-.19-.28-.19-.47c0-.23.09-.42.28-.55.79-.56,1.4-1.2,1.82-1.93.39-.67.67-1.51.83-2.51.07-.45-.12-.67-.59-.67h-2.04c-.18,0-.33-.06-.45-.19s-.18-.28-.18-.46c0-.17.06-.31.18-.43.12-.12.27-.18.45-.18h2.16c.41,0,.62-.21.63-.62,0-.48.01-.8.01-.98s.06-.33.19-.46c.13-.13.28-.2.47-.2.18,0,.33.07.46.2.13.14.2.29.2.47v.95c0,.42.21.63.62.63h2.3c.98,0,1.47.49,1.47,1.47v1.05Z"/>
      <path class="cls-1" d="M115.71,54.65c0,.79-.15,1.33-.45,1.61-.3.28-.87.42-1.69.42h-1.39c-.17,0-.31-.06-.43-.19s-.18-.28-.18-.46.06-.32.18-.44.27-.18.43-.18h1.22c.4,0,.67-.06.8-.2.13-.13.2-.39.2-.78v-1.32c0-.42-.21-.63-.63-.63h-4.4c-.38,0-.61.2-.67.59-.21,1.27-.66,2.39-1.34,3.37-.15.21-.35.32-.59.32-.2,0-.36-.07-.5-.21-.14-.14-.21-.3-.21-.49,0-.13.04-.26.13-.38.91-1.35,1.36-2.96,1.36-4.83v-4.52c0-.95.48-1.43,1.43-1.43h5.32c.95,0,1.43.48,1.43,1.43v8.3ZM114.39,47.51v-.66c0-.46-.23-.69-.69-.69h-4.17c-.46,0-.69.23-.69.69v.66c0,.37.19.56.56.56h4.42c.37,0,.56-.19.56-.56ZM114.39,50.7v-.87c0-.37-.19-.56-.56-.56h-4.42c-.37,0-.56.19-.56.56v.87c0,.37.19.56.56.56h4.42c.37,0,.56-.19.56-.56Z"/>
      <path class="cls-1" d="M124.93,48.38c0,.75-.37,1.12-1.12,1.12h-2.13c-.37,0-.56.19-.56.56v6.15c0,.18-.07.33-.2.46s-.28.19-.46.19-.33-.06-.46-.19-.2-.28-.2-.46v-10.21c0-.75.37-1.12,1.12-1.12h2.88c.75,0,1.12.37,1.12,1.12v2.38ZM123.67,46.32c0-.26-.13-.39-.39-.39h-1.76c-.26,0-.39.13-.39.39s.14.41.42.41h1.71c.28,0,.42-.14.42-.41ZM123.67,48.1h0c0-.29-.14-.43-.42-.43h-1.71c-.28,0-.42.14-.42.41s.14.42.42.42h1.74c.26,0,.39-.13.39-.39ZM128.32,54.3c0,.75-.37,1.12-1.12,1.12h-3.23c-.75,0-1.12-.37-1.12-1.12v-2.84c0-.75.37-1.12,1.12-1.12h3.23c.75,0,1.12.37,1.12,1.12v2.84ZM127.14,51.96v-.17c0-.31-.18-.46-.53-.46h-2.04c-.36,0-.53.15-.53.46v.17c0,.28.14.42.42.42h2.27c.28,0,.42-.14.42-.42ZM127.14,53.91v-.21c0-.28-.14-.42-.42-.42h-2.27c-.28,0-.42.14-.42.42v.21c0,.31.18.46.53.46h2.04c.35,0,.53-.15.53-.46ZM131.43,54.89c0,.71-.11,1.19-.34,1.44-.23.25-.68.37-1.35.37h-1.2c-.16,0-.3-.06-.41-.18-.12-.12-.17-.25-.17-.41,0-.17.06-.31.17-.43.12-.12.25-.18.41-.18h.73c.34,0,.56-.05.68-.16.12-.11.17-.34.17-.69v-4.59c0-.37-.19-.56-.56-.56h-2.21c-.75,0-1.12-.37-1.12-1.12v-2.38c0-.75.37-1.12,1.12-1.12h2.97c.75,0,1.12.37,1.12,1.12v8.89ZM130.11,46.32c0-.26-.13-.39-.39-.39h-1.85c-.26,0-.39.13-.39.39s.14.41.42.41h1.79c.28,0,.42-.14.42-.41ZM130.11,48.07c0-.27-.14-.41-.42-.41h-1.79c-.28,0-.42.14-.42.42h0c0,.28.13.41.39.41h1.82c.28,0,.42-.14.42-.42Z"/>
      <path class="cls-1" d="M145.42,52.45c0,1.19-.42,2.15-1.26,2.86-.73.63-1.72,1.02-2.97,1.19-.2.03-.37-.03-.52-.16-.15-.14-.23-.3-.23-.5,0-.38.19-.61.56-.67,2-.35,3-1.27,3-2.77,0-1.04-.42-1.76-1.27-2.18-.11-.06-.22-.08-.32-.08-.24,0-.44.15-.59.46-.61,1.27-1.3,2.38-2.09,3.32-1.2,1.44-2.4,2.16-3.6,2.16-.62,0-1.09-.17-1.44-.52s-.51-.83-.51-1.44c0-1.06.31-2.03.94-2.9.48-.66,1.07-1.2,1.78-1.62.42-.25.64-.6.67-1.05v-.27c.03-.43-.17-.64-.59-.64-.52,0-1.12,0-1.78-.01-.18,0-.33-.06-.45-.2-.13-.13-.19-.28-.19-.46s.07-.33.2-.46c.13-.13.3-.19.48-.18.86.04,1.5.05,1.92.04.38,0,.6-.21.66-.6l.08-.6c.06-.41.28-.62.66-.62.2,0,.37.08.52.25.15.17.21.34.18.52l-.04.27c-.04.22,0,.4.1.52.1.12.27.17.49.15.96-.07,2.04-.2,3.25-.38.2-.03.37.02.53.15.15.13.23.3.23.5,0,.38-.2.6-.59.64-1.47.18-2.67.29-3.6.35-.44.03-.67.23-.7.6-.02.22.03.38.15.48.12.1.29.13.51.1.36-.05.68-.07.94-.07,1.43,0,2.56.27,3.4.81,1,.65,1.5,1.66,1.5,3.01ZM137.03,54.5c.42-.22.61-.67.56-1.33,0-.42-.02-.83-.03-1.25-.04-.65-.16-.98-.36-.98-.13,0-.28.08-.45.22-.36.32-.66.72-.88,1.2-.24.51-.36,1.03-.36,1.54,0,.55.23.83.69.83.26,0,.54-.08.84-.24ZM140.54,50.37c.05-.09.07-.18.07-.25,0-.23-.14-.34-.43-.32-.43.03-.75.1-.95.22-.29.17-.44.45-.45.84,0,.35,0,.76.01,1.2,0,.28.11.42.29.42.13,0,.25-.08.36-.24.42-.59.78-1.21,1.09-1.88Z"/>
      <path class="cls-1" d="M53.32,68.02c-.49.83-.89,1.64-1.22,2.42-.14.34-.38.5-.71.5-.47,0-.74-.24-.81-.73-.08-.55-.13-1.38-.13-2.48s.16-2.42.48-3.93c.09-.46.34-.69.73-.69.2,0,.36.07.49.2.13.14.2.3.2.5,0,.06,0,.11-.01.17-.34,1.54-.51,2.7-.53,3.49,0,.31.06.46.21.46.12,0,.25-.11.39-.34l.07-.11c.09-.15.23-.22.42-.22.34,0,.5.17.5.5,0,.09-.02.18-.07.25ZM58.13,68.09c0,1.58-.28,2.87-.85,3.88-.6,1.05-1.58,1.93-2.94,2.65-.1.06-.21.08-.34.08-.2,0-.36-.08-.5-.23-.14-.15-.21-.33-.21-.53,0-.26.13-.46.39-.6,1.14-.6,1.94-1.32,2.39-2.16.43-.77.64-1.82.64-3.15,0-1.2-.13-2.62-.38-4.24-.04-.21.02-.41.17-.58.15-.17.33-.26.55-.26.18,0,.33.06.47.18.14.12.22.27.25.45.24,1.75.36,3.25.36,4.51Z"/>
      <path class="cls-1" d="M70.72,67.86c0,1.51-.25,3.15-.74,4.93-.15.53-.31.91-.49,1.13-.25.34-.6.5-1.05.5-.51,0-1.16-.14-1.93-.41-.32-.11-.48-.32-.48-.63,0-.19.07-.35.2-.48.14-.13.29-.2.47-.2.07,0,.14,0,.2.03.49.16.82.24,1.01.24.22,0,.38-.07.48-.2.07-.09.16-.3.25-.63.44-1.5.66-2.87.66-4.09,0-.45-.09-.75-.27-.9s-.51-.22-1.01-.22h-.2c-.08,0-.15.01-.21.01-.47,0-.77.24-.91.73-.63,2.12-1.46,4.17-2.49,6.15-.14.27-.36.41-.66.41-.21,0-.38-.07-.52-.22-.14-.14-.21-.32-.21-.53,0-.15.03-.27.08-.38.88-1.54,1.65-3.28,2.32-5.22.03-.09.04-.18.04-.25,0-.34-.2-.48-.6-.42-.29.05-.74.11-1.36.2-.2.03-.38-.03-.54-.16s-.25-.31-.25-.51c0-.39.21-.62.62-.68.41-.06,1.06-.14,1.95-.25.45-.04.75-.32.91-.84.08-.46.16-.91.24-1.37.07-.4.3-.6.7-.6.22,0,.4.08.54.25.14.16.18.36.15.58,0,.05-.05.25-.13.62-.07.25-.1.45-.1.6,0,.39.22.57.66.55h.21c.71-.06,1.28.07,1.72.36.48.34.73.97.73,1.89ZM72.59,64.8c0,.15-.05.28-.16.38-.11.11-.24.16-.39.16-.22,0-.39-.08-.49-.25-.27-.43-.56-.8-.87-1.11-.1-.1-.15-.23-.15-.38,0-.37.18-.56.55-.56.16,0,.3.07.42.21.39.44.72.85.98,1.23.07.11.11.21.11.31ZM73.49,69.7c-.39-1.02-.92-2.01-1.58-2.98-.08-.11-.11-.24-.11-.38,0-.2.07-.36.22-.5.14-.14.31-.2.51-.2.23,0,.42.1.57.31.74,1.04,1.33,2.11,1.79,3.22.04.09.06.19.06.28,0,.2-.08.37-.24.52-.16.15-.35.22-.55.22-.31,0-.53-.16-.66-.49ZM74.3,64c0,.15-.05.28-.16.39-.11.11-.24.16-.39.16-.21,0-.38-.08-.49-.25-.31-.46-.6-.83-.87-1.13-.1-.11-.15-.23-.15-.35,0-.37.19-.56.56-.56.14,0,.27.07.41.2.33.33.66.74.99,1.25.06.13.1.23.1.31Z"/>
      <path class="cls-1" d="M87.42,73.1c0,.4-.2.63-.6.69-1.54.21-3.08.32-4.62.32-2.74,0-4.12-.83-4.12-2.48,0-1.01.7-2.05,2.11-3.14.28-.21.42-.46.42-.74,0-.13-.03-.27-.08-.42-.41-1.04-.75-2.15-1.02-3.35,0-.05-.01-.1-.01-.15,0-.21.07-.38.22-.52s.32-.22.52-.22c.18,0,.33.06.47.18.14.12.22.27.26.45.18.93.43,1.87.77,2.81.11.31.29.46.53.46.13,0,.27-.04.41-.13.08-.05,1.12-.61,3.09-1.69.12-.07.23-.1.34-.1.2,0,.36.07.5.21s.2.31.2.5c0,.29-.13.5-.39.63-1.15.57-2.39,1.24-3.72,2.02-.85.5-1.53.96-2.03,1.39-.73.63-1.09,1.19-1.09,1.71,0,.84.88,1.26,2.63,1.26,1.45,0,2.92-.13,4.41-.38.21-.04.39.01.56.15.17.14.25.32.25.53Z"/>
      <path class="cls-1" d="M101.25,69.12c0,1.44-.61,2.66-1.82,3.65-.97.81-2.24,1.42-3.81,1.83-.08.02-.13.03-.17.03-.19,0-.35-.07-.48-.2s-.2-.3-.2-.5c0-.35.16-.56.49-.66,1.2-.35,2.19-.81,2.95-1.4,1.03-.77,1.54-1.68,1.54-2.72,0-1.25-.63-1.88-1.89-1.88s-2.88.33-4.77.99c-.08.03-.16.04-.22.04-.19,0-.35-.07-.49-.21s-.21-.31-.21-.5c0-.35.17-.57.5-.67,2.19-.66,3.95-.99,5.26-.99,1.05,0,1.85.27,2.42.8.6.56.9,1.35.9,2.38ZM99.63,64.22c0,.21-.07.38-.22.51-.15.14-.32.19-.52.18-1.89-.17-3.39-.4-4.48-.7-.35-.09-.52-.32-.52-.67,0-.2.07-.36.2-.5s.3-.2.5-.2c.06,0,.12,0,.18.03,1.24.34,2.65.56,4.21.67.18,0,.33.08.46.22.13.14.19.29.19.47Z"/>
      <path class="cls-1" d="M115.69,72.73c0,.39-.19.62-.57.7-1.47.27-2.9.41-4.27.41s-2.34-.11-3.11-.32c-1.25-.35-1.88-1.03-1.88-2.03,0-.68.44-1.47,1.33-2.35.12-.12.28-.18.46-.18s.33.06.46.19.2.28.2.46c0,.17-.06.31-.18.43-.5.5-.76.94-.76,1.3,0,.77,1.18,1.16,3.56,1.16.93,0,2.25-.14,3.95-.43.21-.04.39.01.56.15.17.14.25.31.25.53ZM114.16,65.5c-.7.28-1.65.8-2.86,1.55-.12.07-.23.11-.32.11-.16,0-.3-.06-.41-.17-.12-.12-.17-.26-.17-.43,0-.21.09-.38.28-.49l.18-.11c.18-.1.27-.21.27-.31,0-.12-.13-.18-.41-.18-.84,0-1.99-.03-3.44-.08-.18,0-.33-.08-.46-.21s-.19-.28-.19-.46c0-.2.07-.36.22-.5s.32-.2.51-.19c1.84.13,4,.14,6.5.04.27,0,.49.06.65.2.16.14.24.31.24.5,0,.33-.2.57-.59.73ZM115.71,68.21c0,.15-.05.28-.16.39-.11.11-.24.16-.39.16-.22,0-.39-.08-.49-.25-.27-.43-.56-.8-.87-1.11-.1-.1-.15-.23-.15-.38,0-.37.18-.56.55-.56.16,0,.3.07.42.21.39.44.72.85.98,1.23.07.11.11.21.11.31ZM117.42,67.41c0,.15-.05.28-.16.39-.11.11-.24.16-.39.16-.21,0-.38-.08-.49-.25-.31-.46-.6-.83-.87-1.13-.1-.11-.15-.23-.15-.35,0-.37.19-.56.56-.56.14,0,.27.07.41.2.33.33.66.74.99,1.25.07.13.1.23.1.31Z"/>
      <path class="cls-1" d="M129.28,65.05c0,.28-.13.48-.39.6,0,0-.55.21-1.61.62-.3.11-.45.27-.45.46,0,.11.05.23.15.36.66.9,1.35,1.7,2.06,2.41.2.2.29.42.29.66,0,.21-.08.4-.23.55-.15.15-.35.22-.58.22-.15,0-.3-.03-.46-.1-1.13-.5-2.28-.76-3.46-.76-.86,0-1.53.13-2,.39-.48.26-.71.62-.71,1.08,0,1.06,1.14,1.58,3.42,1.58.91,0,1.81-.06,2.72-.2.2-.03.37.03.52.16s.23.31.23.51c0,.17-.06.31-.17.44-.12.13-.25.2-.41.22-.91.12-1.81.18-2.72.18-3.34,0-5.01-.93-5.01-2.8,0-1.02.44-1.76,1.33-2.23.68-.36,1.58-.55,2.7-.55.51,0,1.02.06,1.51.18.16.04.29.06.39.06.2,0,.29-.07.29-.21,0-.11-.06-.24-.17-.38-.36-.43-.62-.76-.78-.99-.31-.42-.67-.63-1.09-.63-.11,0-.24.01-.38.04-1.06.18-2.33.27-3.79.27-.19,0-.34-.06-.48-.2s-.2-.29-.2-.48.07-.35.2-.48c.13-.13.29-.2.48-.2,1.01,0,2.04-.06,3.08-.18.33-.04.49-.18.49-.42,0-.12-.04-.25-.13-.38l-.48-.78c-.07-.11-.1-.23-.1-.35,0-.19.07-.35.2-.48.14-.14.3-.2.48-.2.28,0,.49.12.62.36.32.62.52.98.6,1.09.3.43.62.64.95.64.11,0,.24-.02.38-.06.58-.18,1.16-.4,1.74-.67.09-.05.19-.07.29-.07.19,0,.34.07.48.2.13.14.2.3.2.48ZM130.34,64.25c0,.14-.05.26-.15.36-.1.1-.22.15-.37.15-.2,0-.43-.17-.7-.52-.2-.26-.39-.52-.59-.78-.1-.1-.15-.22-.15-.35,0-.35.18-.53.53-.53.14,0,.27.07.39.2.38.43.7.82.94,1.18.07.09.1.19.1.29ZM131.98,63.48c0,.14-.05.26-.16.36s-.23.15-.37.15c-.21,0-.36-.08-.46-.24-.3-.44-.57-.8-.83-1.08-.09-.1-.14-.21-.14-.34,0-.35.18-.53.53-.53.12,0,.25.07.38.2.34.34.65.73.95,1.18.07.13.1.23.1.29Z"/>
      <path class="cls-1" d="M139.02,71.43c-.82,1.61-1.61,2.42-2.37,2.42-.93,0-1.66-.83-2.17-2.49-.4-1.29-.6-2.75-.6-4.38,0-.84.03-1.56.08-2.17.02-.2.1-.36.23-.49.13-.13.3-.2.5-.2.21,0,.39.08.54.25.14.16.21.35.19.57-.07.63-.1,1.35-.1,2.17,0,1.07.12,2.14.35,3.19.26,1.17.61,1.75,1.04,1.75.31,0,.66-.42,1.05-1.26.12-.25.33-.38.63-.38.2,0,.36.07.5.2s.2.3.2.5c0,.12-.02.23-.07.32ZM145.09,71c.03.22-.03.42-.18.6s-.34.27-.57.27c-.2,0-.37-.07-.52-.2-.15-.13-.23-.29-.25-.48-.23-2.12-.92-4-2.06-5.66-.08-.12-.13-.26-.13-.41,0-.21.07-.38.21-.52.14-.14.31-.21.52-.21.25,0,.45.1.6.31,1.29,1.79,2.08,3.89,2.38,6.29Z"/>
      <path class="cls-1" d="M158.67,72.72c0,.2-.07.36-.2.5-.13.14-.3.2-.5.2-.13,0-.25-.03-.36-.1-.93-.55-1.76-.97-2.49-1.25-.09-.04-.18-.06-.25-.06-.27,0-.43.19-.48.56-.08.56-.26.98-.56,1.25-.47.42-1.3.63-2.51.63-.77,0-1.4-.14-1.9-.43-.62-.36-.92-.9-.92-1.62,0-.81.39-1.4,1.16-1.78.58-.28,1.33-.42,2.24-.42.1,0,.26,0,.48.01.49.02.73-.19.73-.62v-.39c0-.47-.24-.7-.71-.69-.99.03-1.94.04-2.86.03-.17,0-.31-.06-.43-.19-.12-.13-.18-.27-.18-.44s.06-.31.19-.43.27-.18.44-.18c.91.02,1.86.02,2.84,0,.46,0,.69-.25.69-.71v-.06c0-.48-.24-.7-.73-.69-1.13.05-2.2.06-3.21.03-.17,0-.31-.08-.43-.2-.12-.13-.18-.27-.18-.44,0-.18.07-.33.2-.45.13-.12.28-.18.46-.17,1.04.03,2.11.03,3.19,0,.46,0,.69-.23.69-.67,0-.04,0-.25-.01-.63,0-.19.06-.35.2-.48s.29-.2.48-.2.34.07.48.2.2.3.2.48v.48c0,.49.24.72.73.67.72-.07,1.5-.17,2.35-.29.19-.03.35.02.5.15.14.13.22.28.22.47,0,.35-.18.56-.55.6-1.01.13-1.86.23-2.56.29-.45.05-.67.29-.67.73v.04c0,.5.24.72.73.67.49-.05,1.18-.14,2.06-.27.19-.03.35.02.5.15s.22.28.22.47c0,.36-.18.57-.53.62-.75.1-1.52.19-2.31.27-.45.04-.67.28-.67.73v.63c0,.51.26.85.77,1.02.95.31,1.99.76,3.12,1.36.24.13.36.34.36.62ZM153.05,72.17c.06-.47-.12-.72-.56-.76-.21-.02-.41-.03-.6-.03-1.34,0-2.02.32-2.02.97,0,.26.13.47.39.63.26.16.59.24,1.01.24.62,0,1.06-.07,1.32-.22.25-.14.41-.42.46-.83Z"/>
      <path class="cls-1" d="M48.93,88.63c0,.13-.04.26-.11.38-.63,1.04-1.4,1.86-2.28,2.48-1,.68-2.06,1.02-3.18,1.02-2.46,0-3.68-1.11-3.68-3.33,0-.91.02-2.1.06-3.57.03-1.19.05-2.49.07-3.89,0-.2.07-.37.22-.51.15-.14.32-.22.52-.22s.38.07.53.22.22.33.21.53l-.17,7.13c0,1.47.77,2.2,2.32,2.2.83,0,1.63-.29,2.39-.88.65-.48,1.23-1.13,1.72-1.95.14-.23.35-.35.63-.35.21,0,.38.07.52.22s.22.32.22.52Z"/>
      <path class="cls-1" d="M59.11,83.93c-.68.13-1.37.24-2.07.32-.38.05-.66.15-.83.29-.17.15-.3.41-.39.77-.52,2.21-1.17,4.34-1.95,6.37-.12.31-.35.46-.69.46-.21,0-.38-.07-.52-.22s-.21-.31-.21-.51c0-.09.02-.19.06-.28.79-1.88,1.44-3.86,1.95-5.96.02-.07.03-.14.03-.21,0-.33-.2-.49-.59-.48s-.75,0-1.08,0c-.19,0-.35-.08-.48-.22-.14-.13-.2-.3-.2-.48s.07-.36.22-.5c.14-.14.31-.21.51-.2.53.02.96.02,1.29.01.52-.02.82-.27.9-.77.03-.21.07-.51.14-.92.07-.41.3-.61.71-.61.2,0,.36.07.5.21.14.14.21.3.21.49,0,.09-.04.33-.11.7,0,.07-.01.13-.01.18,0,.37.21.53.62.46.06,0,.38-.07.98-.2.45-.08.76-.13.92-.13.2,0,.36.07.48.21s.19.31.19.5c0,.38-.19.61-.57.69ZM63.53,91.29c0,.4-.2.63-.59.69-.89.13-1.82.2-2.8.2-2.48,0-3.72-.7-3.72-2.09,0-.32.08-.68.24-1.09.11-.28.32-.42.63-.42.44,0,.66.22.66.67,0,.08-.01.18-.04.31-.03.14-.04.24-.04.32,0,.63.8.95,2.39.95.7,0,1.53-.07,2.49-.21.21-.03.39.03.55.16s.24.31.24.51ZM63.14,86.09c0,.2-.08.36-.22.5-.15.14-.32.21-.52.2-1.39-.07-2.88-.04-4.47.1-.2.02-.37-.04-.51-.18-.14-.14-.22-.3-.22-.5,0-.18.06-.33.17-.45s.26-.2.43-.22c1.58-.16,3.13-.21,4.65-.17.19,0,.35.08.48.22s.2.3.2.49Z"/>
      <path class="cls-1" d="M69.67,91c0,.57-.2,1.05-.6,1.45-.4.4-.89.59-1.46.59s-1.05-.2-1.45-.59-.6-.88-.6-1.45.2-1.05.6-1.46c.4-.4.88-.6,1.45-.6s1.05.2,1.46.6c.4.4.6.89.6,1.46ZM68.67,91c0-.3-.1-.55-.31-.76-.21-.21-.46-.31-.76-.31s-.54.1-.74.31c-.21.21-.31.46-.31.75s.1.53.31.74c.21.2.45.3.74.3s.55-.1.76-.29c.21-.2.31-.44.31-.74Z"/>
      <path class="cls-1" d="M91.87,92.13c0,.19-.07.35-.2.48s-.3.2-.48.2c-.11,0-.22-.03-.32-.08-1.87-1.05-3.29-2.3-4.27-3.75-.2-.3-.39-.45-.57-.45s-.36.16-.56.48c-.9,1.46-2.31,2.69-4.26,3.7-.09.05-.2.07-.31.07-.18,0-.33-.06-.46-.18-.13-.12-.2-.28-.2-.46,0-.26.12-.45.35-.57,3.05-1.61,4.61-3.61,4.66-5.99v-.56c.02-.4.24-.6.66-.6s.64.24.64.71c0,.64.08,1.17.24,1.57.77,1.98,2.35,3.6,4.72,4.86.24.13.36.33.36.59ZM91.28,83.45c0,.19-.04.39-.13.6-.34.86-.72,1.69-1.15,2.51-.13.24-.33.36-.59.36-.19,0-.34-.07-.47-.2-.13-.13-.19-.28-.19-.46,0-.13.02-.24.07-.32.44-.81.7-1.3.77-1.47.06-.14.08-.26.08-.35,0-.26-.19-.39-.56-.39h-4.93c-.57,0-1.01.26-1.33.77-.28.45-.67,1.01-1.16,1.68-.13.18-.32.27-.56.27-.19,0-.35-.07-.48-.2s-.2-.3-.2-.48c0-.15.05-.29.15-.42,1.19-1.51,2.1-3.01,2.72-4.48.1-.25.3-.38.59-.38.19,0,.34.06.46.19.12.13.18.27.18.44,0,.16-.07.36-.21.6-.07.17-.11.31-.11.42,0,.21.14.32.43.32h5.35c.84,0,1.26.33,1.26.99Z"/>
      <path class="cls-1" d="M106.16,82.36c0,.17-.06.31-.18.43-.12.12-.26.18-.43.18h-8.67c-.49,0-.73.25-.73.74v1.69c0,1.53-.05,2.71-.15,3.54-.14,1.16-.45,2.28-.94,3.37-.12.28-.34.42-.66.42-.2,0-.36-.07-.5-.2-.14-.14-.2-.3-.2-.5,0-.12.02-.23.07-.32.48-.96.79-1.96.94-3.01.11-.81.17-1.96.17-3.43v-2.09c0-.95.48-1.43,1.43-1.43h2.73c.37,0,.56-.19.56-.56v-.06c0-.19.07-.35.2-.48s.3-.2.5-.2.35.07.48.2.2.3.2.48v.06c0,.37.19.56.56.56h4c.17,0,.31.06.43.18.12.12.18.25.18.41ZM106.14,84.62c0,.16-.06.29-.17.4-.12.11-.25.16-.4.16h-1.08c-.37,0-.56.19-.56.56v.57c0,.68-.34,1.02-1.01,1.02h-.48c-.37,0-.56.13-.56.39s.19.39.56.39h2c.79,0,1.19.4,1.19,1.19v1.4c0,.58-.1.96-.31,1.14s-.62.27-1.24.27h-.74c-.16,0-.29-.06-.41-.17-.11-.12-.17-.25-.17-.41s.06-.3.17-.41c.11-.12.25-.17.41-.17h.41c.27,0,.44-.05.52-.15.06-.07.08-.25.08-.53v-.41c0-.39-.2-.59-.59-.59h-1.32c-.37,0-.56.19-.56.56v2.45c0,.19-.07.35-.2.48-.13.13-.29.2-.48.2s-.34-.07-.47-.2-.19-.29-.19-.48v-2.45c0-.37-.19-.56-.56-.56h-1.18c-.4,0-.6.2-.6.59v1.68c0,.18-.06.33-.19.46s-.28.2-.46.2-.33-.07-.46-.2-.19-.28-.19-.46v-2.23c0-.79.4-1.19,1.19-1.19h1.88c.37,0,.56-.13.56-.39s-.19-.39-.56-.39h-.43c-.68,0-1.02-.34-1.02-1.02v-.57c0-.37-.19-.56-.56-.56h-1.05c-.15,0-.28-.05-.39-.16-.11-.11-.17-.24-.17-.4,0-.15.06-.28.17-.39.11-.11.24-.17.39-.17h1.05c.37,0,.56-.14.56-.41,0-.17.06-.31.18-.43.12-.12.27-.18.45-.18.17,0,.31.06.43.18.12.12.17.27.17.43,0,.27.19.41.56.41h1.81c.37,0,.56-.14.56-.41,0-.17.06-.31.18-.43.12-.12.27-.18.43-.18s.31.06.43.18c.12.12.18.27.18.43,0,.27.19.41.56.41h1.08c.15,0,.28.06.4.17.12.11.17.24.17.39ZM102.69,85.79v-.18c0-.33-.16-.49-.49-.49h-1.95c-.33,0-.49.16-.49.49v.18c0,.35.18.53.53.53h1.86c.35,0,.53-.18.53-.53Z"/>
      <path class="cls-1" d="M119.63,88.63c0,.13-.04.26-.11.38-.63,1.04-1.4,1.86-2.28,2.48-1,.68-2.06,1.02-3.18,1.02-2.46,0-3.68-1.11-3.68-3.33,0-.91.02-2.1.06-3.57.03-1.19.05-2.49.07-3.89,0-.2.07-.37.22-.51.15-.14.32-.22.52-.22.21,0,.38.07.53.22s.22.33.21.53l-.17,7.13c0,1.47.77,2.2,2.32,2.2.83,0,1.63-.29,2.39-.88.65-.48,1.23-1.13,1.72-1.95.14-.23.35-.35.63-.35.21,0,.38.07.52.22.15.14.22.32.22.52Z"/>
      <path class="cls-1" d="M134.15,82.45c0,.37-.25.6-.76.67-1.41.21-2.66.8-3.75,1.74-1.09.95-1.64,1.94-1.64,2.99,0,1.47,1.21,2.43,3.63,2.9.4.07.6.31.6.71,0,.22-.09.41-.26.56-.17.15-.37.21-.59.17-1.35-.23-2.44-.65-3.26-1.26-1.03-.75-1.54-1.74-1.54-2.97,0-.99.34-1.9,1.02-2.74.27-.34.57-.64.9-.91.28-.23.42-.43.42-.6,0-.22-.24-.32-.71-.28-1.46.13-3.01.29-4.66.49-.21.03-.38-.03-.53-.17s-.22-.31-.22-.52c0-.18.06-.33.17-.46.12-.13.26-.21.44-.22,1.69-.17,4.99-.42,9.9-.76.25-.02.46.04.62.16.16.13.24.29.24.5Z"/>
      <path class="cls-1" d="M148.95,92.01c0,.16-.06.29-.18.41-.12.11-.25.17-.4.17h-7.07c-1,0-1.76-.26-2.3-.77-.17-.16-.32-.24-.46-.24-.12,0-.31.11-.57.32-.17.15-.34.3-.52.45-.13.1-.27.15-.42.15-.19,0-.34-.06-.47-.19s-.19-.28-.19-.47c0-.23.1-.42.29-.55.33-.21.69-.49,1.08-.83.31-.26.46-.6.46-1.02v-2.02c0-.35-.18-.53-.53-.53h-.67c-.17,0-.31-.06-.43-.18-.12-.12-.18-.27-.18-.45,0-.17.06-.31.18-.43.12-.12.26-.18.43-.18h1.29c.75,0,1.12.37,1.12,1.12v2.88c0,.44.07.77.21.99.34.53.96.8,1.86.8h6.89c.15,0,.28.05.4.16.12.11.18.24.18.39ZM139.33,82.92c0,.18-.06.33-.18.45-.12.12-.27.18-.45.18-.21,0-.37-.07-.49-.21-.39-.45-.76-.83-1.09-1.15-.12-.11-.18-.26-.18-.45,0-.17.06-.31.18-.44.12-.13.27-.19.43-.19s.31.06.42.17c.22.22.62.63,1.2,1.22.1.1.15.24.15.42ZM148.35,82.92c0,.73-.36,1.09-1.09,1.09h-5.11c-.37,0-.56.19-.56.57-.02,2.39-.27,4.24-.74,5.54-.1.28-.3.42-.59.42-.18,0-.33-.06-.45-.19s-.18-.27-.18-.44c0-.09.01-.17.04-.24.36-.86.59-1.84.69-2.95.05-.55.07-1.41.07-2.58v-2.18c0-.72.36-1.08,1.08-1.08h5.75c.73,0,1.09.36,1.09,1.08v.95ZM148.72,89.42c0,.14-.05.26-.15.36-.1.1-.22.15-.36.15h-1.97c-.33,0-.49.16-.49.49v.18c0,.16-.06.3-.17.41s-.25.18-.41.18c-.17,0-.31-.06-.43-.18-.12-.12-.18-.25-.18-.41v-.18c0-.33-.16-.49-.49-.49h-2.02c-.14,0-.26-.05-.36-.15-.1-.1-.15-.22-.15-.36,0-.33.17-.49.5-.49h2.02c.33,0,.49-.14.49-.43s-.16-.43-.49-.43h-1.47c-.32,0-.48-.16-.48-.48s.16-.48.48-.48h1.47c.33,0,.49-.12.49-.35s-.16-.35-.49-.35h-1.75c-.14,0-.26-.05-.36-.15s-.15-.22-.15-.36.05-.26.15-.36c.1-.1.22-.15.36-.15h.46c.26,0,.39-.07.39-.21,0,.03-.04-.07-.13-.29-.02-.05-.03-.09-.03-.14,0-.15.05-.28.16-.39.11-.11.24-.16.4-.16.2,0,.36.09.49.28,0,.03.09.19.26.48.16.29.41.43.75.43h.04c.34,0,.59-.14.76-.42.09-.18.19-.35.3-.52.11-.17.26-.26.46-.26.35,0,.53.17.53.52,0,.06-.02.13-.05.22-.03.09-.05.17-.05.22,0,.16.11.24.34.24h.69c.13,0,.25.05.34.15.1.1.15.22.15.36s-.05.26-.15.36c-.1.1-.21.15-.34.15h-1.85c-.33,0-.49.12-.49.35s.16.35.49.35h1.47c.32,0,.48.16.48.48s-.16.48-.48.48h-1.47c-.33,0-.49.15-.49.43s.16.43.49.43h1.97c.34,0,.5.16.5.49ZM147.13,82.61v-.2c0-.31-.14-.46-.42-.46h-4.69c-.29,0-.43.15-.43.46v.13c0,.28.14.42.42.42h4.7c.28,0,.42-.12.42-.35Z"/>
      <path class="cls-1" d="M163.28,89.45c0,.18-.07.34-.2.48-1.04,1.1-1.91,1.65-2.63,1.65-.64,0-1.07-.25-1.29-.76-.13-.31-.2-.79-.2-1.46,0-.54.03-1.36.09-2.45s.09-1.91.09-2.45c0-.47-.16-.7-.49-.7-.65,0-1.61.7-2.86,2.11-.44.5-.66,1.08-.67,1.74-.02,1.99-.02,3.39-.01,4.21,0,.19-.07.35-.21.49-.14.14-.31.21-.5.21s-.35-.07-.48-.2c-.14-.14-.2-.3-.2-.5,0,.19,0-.56.03-2.24,0-.34-.1-.5-.29-.5-.13,0-.26.09-.39.28s-.42.62-.85,1.3c-.13.2-.32.29-.57.29-.19,0-.35-.06-.48-.2s-.2-.29-.2-.48c0-.17.07-.34.2-.52.5-.68,1.23-1.64,2.18-2.88.32-.41.48-.85.49-1.32,0-.24-.05-.42-.18-.54-.13-.12-.31-.16-.55-.12-.03,0-.47.08-1.33.25-.23.05-.43,0-.58-.16-.15-.15-.23-.33-.23-.54,0-.36.19-.58.57-.64.14-.03.71-.11,1.69-.25.44-.06.66-.31.67-.74l.04-1.36c0-.19.08-.35.21-.48s.29-.2.48-.2c.2,0,.36.07.5.21.14.14.21.31.2.5l-.07,2.04c0,.4.09.6.29.6.13,0,.29-.08.46-.25,1.17-1.13,2.17-1.69,3.01-1.69,1.03,0,1.54.59,1.54,1.78,0,.55-.04,1.37-.11,2.46-.07,1.09-.1,1.91-.1,2.45,0,.38,0,.62.03.71.05.25.17.38.38.38.33,0,.78-.34,1.34-1.01.13-.15.3-.22.5-.22.19,0,.35.07.48.2.14.14.2.3.2.48Z"/>
      <path class="cls-1" d="M176.23,85.76c0,.28-.13.48-.39.59-.62.26-1.21.53-1.76.8-.38.19-.62.38-.71.59-.07.15-.1.45-.1.9v.9c0,.19-.07.34-.2.47-.13.13-.29.19-.48.19s-.34-.06-.47-.19-.19-.28-.19-.47v-.53c0-.33-.12-.49-.36-.49-.1,0-.21.04-.34.11-1.13.7-1.69,1.3-1.69,1.81,0,.29.19.5.57.62s1.04.19,1.96.19c.73,0,1.69-.08,2.9-.24.2-.03.37.02.51.15.14.13.22.29.22.49,0,.17-.06.31-.17.44s-.25.2-.42.22c-1.06.12-2.11.18-3.14.18s-1.88-.09-2.45-.27c-.95-.31-1.43-.87-1.43-1.69,0-.95,1.03-2.04,3.09-3.26.34-.2.5-.39.5-.59,0-.24-.2-.36-.59-.36-.54,0-1.23.26-2.06.77-.67.42-1.26.89-1.78,1.4l-.36.43c-.15.14-.31.21-.49.21-.19,0-.34-.06-.47-.19s-.19-.28-.19-.47c0-.17.05-.31.15-.43.97-1.17,1.78-2.33,2.44-3.5.06-.11.1-.22.1-.32,0-.24-.17-.36-.52-.35-.31,0-.76.01-1.36.01-.17,0-.31-.06-.43-.18-.12-.12-.18-.27-.18-.43,0-.18.06-.33.19-.45.13-.12.27-.18.44-.17.58.02,1.22.02,1.92,0,.55,0,.92-.27,1.12-.77l.28-.73c.11-.29.32-.43.63-.43.19,0,.34.07.47.2.13.13.19.28.19.46,0,.08-.01.16-.04.24-.05.11-.08.18-.08.21-.04.1-.06.2-.06.28,0,.27.17.39.5.35.35-.04,1.03-.13,2.02-.28.19-.03.35.02.5.15s.22.28.22.47c0,.37-.19.58-.56.63-.93.12-1.77.21-2.51.27-.41.04-.72.12-.93.26-.21.14-.41.38-.6.72-.02.03-.07.1-.14.22-.1.18-.15.32-.15.43,0,.14.08.21.25.21.1,0,.24-.03.41-.1.5-.19.95-.28,1.36-.28.56,0,.99.19,1.29.56.21.25.4.38.59.38.1,0,.21-.03.34-.08l1.69-.83c.09-.05.19-.07.28-.07.18,0,.33.06.46.19.13.13.19.28.19.47Z"/>
      <path class="cls-1" d="M40.7,109.1c0,.4-.2.63-.6.69-1.54.21-3.08.32-4.62.32-2.74,0-4.12-.83-4.12-2.48,0-1.01.7-2.05,2.11-3.14.28-.21.42-.46.42-.74,0-.13-.03-.27-.08-.42-.41-1.04-.75-2.15-1.02-3.35,0-.05-.01-.1-.01-.15,0-.21.07-.38.22-.52s.32-.22.52-.22c.18,0,.33.06.47.18.14.12.22.27.26.45.18.93.43,1.87.77,2.81.11.31.29.46.53.46.13,0,.27-.04.41-.13.08-.05,1.12-.61,3.09-1.69.12-.07.23-.1.34-.1.2,0,.36.07.5.21s.2.31.2.5c0,.29-.13.5-.39.63-1.15.57-2.39,1.24-3.72,2.02-.85.5-1.53.96-2.03,1.39-.73.63-1.09,1.19-1.09,1.71,0,.84.88,1.26,2.63,1.26,1.45,0,2.92-.13,4.41-.38.21-.04.39.01.56.15.17.14.25.32.25.53Z"/>
      <path class="cls-1" d="M55.22,105.22c0,1.33-.62,2.38-1.86,3.14-.92.56-2.15.94-3.68,1.15-.2.03-.37-.03-.52-.16-.15-.14-.22-.3-.22-.5,0-.16.06-.3.17-.43s.25-.2.41-.22c2.88-.38,4.31-1.38,4.31-2.98,0-1.13-.75-1.69-2.24-1.69-1.19,0-3.1.35-5.73,1.05-.07.02-.13.03-.18.03-.18,0-.34-.07-.48-.2-.14-.14-.21-.3-.21-.48,0-.35.18-.57.53-.66.91-.22,1.78-.42,2.6-.57,1.49-.29,2.66-.43,3.5-.43,1.04,0,1.87.2,2.46.6.76.5,1.13,1.29,1.13,2.37Z"/>
      <path class="cls-1" d="M65.5,101.93c-.68.13-1.37.24-2.07.32-.38.05-.66.15-.83.29-.17.15-.3.41-.39.77-.52,2.21-1.17,4.34-1.95,6.37-.12.31-.35.46-.69.46-.21,0-.38-.07-.52-.22s-.21-.31-.21-.51c0-.09.02-.19.06-.28.79-1.88,1.44-3.86,1.95-5.96.02-.07.03-.14.03-.21,0-.33-.2-.49-.59-.48s-.75,0-1.08,0c-.19,0-.35-.08-.48-.22-.14-.13-.2-.3-.2-.48s.07-.36.22-.5c.14-.14.31-.21.51-.2.53.02.96.02,1.29.01.52-.02.82-.27.9-.77.03-.21.07-.51.14-.92.07-.41.3-.61.71-.61.2,0,.36.07.5.21.14.14.21.3.21.49,0,.09-.04.33-.11.7,0,.07-.01.13-.01.18,0,.37.21.53.62.46.06,0,.38-.07.98-.2.45-.08.76-.13.92-.13.2,0,.36.07.48.21s.19.31.19.5c0,.38-.19.61-.57.69ZM69.92,109.29c0,.4-.2.63-.59.69-.89.13-1.82.2-2.8.2-2.48,0-3.72-.7-3.72-2.09,0-.32.08-.68.24-1.09.11-.28.32-.42.63-.42.44,0,.66.22.66.67,0,.08-.01.18-.04.31-.03.14-.04.24-.04.32,0,.63.8.95,2.39.95.7,0,1.53-.07,2.49-.21.21-.03.39.03.55.16s.24.31.24.51ZM69.53,104.09c0,.2-.08.36-.22.5-.15.14-.32.21-.52.2-1.39-.07-2.88-.04-4.47.1-.2.02-.37-.04-.51-.18-.14-.14-.22-.3-.22-.5,0-.18.06-.33.17-.45s.26-.2.43-.22c1.58-.16,3.13-.21,4.65-.17.19,0,.35.08.48.22s.2.3.2.49Z"/>
      <path class="cls-1" d="M76.21,108.03c0,.75-.37,1.12-1.12,1.12h-1.44c-.75,0-1.12-.37-1.12-1.12v-7.88c0-.75.37-1.12,1.12-1.12h1.44c.75,0,1.12.37,1.12,1.12v7.88ZM75.02,102.97v-2.23c0-.34-.17-.5-.5-.5h-.22c-.34,0-.5.17-.5.5v2.23c0,.33.16.49.49.49h.25c.33,0,.49-.16.49-.49ZM75.02,107.47v-2.37c0-.33-.16-.49-.49-.49h-.25c-.33,0-.49.16-.49.49v2.37c0,.33.17.49.5.49h.22c.34,0,.5-.16.5-.49ZM84.8,103.05c0,.16-.06.3-.17.41s-.25.17-.41.17h-.71c-.37,0-.56.19-.56.56v.2c0,.37.19.56.56.56h.55c.16,0,.29.06.41.17.11.12.17.25.17.41s-.06.29-.17.41c-.11.11-.25.17-.41.17h-.55c-.37,0-.56.19-.56.56v2.49c0,.59-.11.99-.34,1.22-.22.22-.62.34-1.19.34h-1.2c-.17,0-.31-.06-.42-.17-.11-.12-.17-.26-.17-.43s.06-.31.17-.43c.11-.12.25-.18.42-.18h.77c.27,0,.46-.05.55-.15s.15-.28.15-.55v-2.14c0-.37-.19-.56-.56-.56h-3.98c-.16,0-.29-.06-.41-.17s-.17-.25-.17-.41.06-.3.17-.41c.11-.12.25-.17.41-.17h3.96c.37,0,.56-.19.56-.56v-.2c0-.37-.19-.56-.56-.56h-4.1c-.16,0-.29-.06-.41-.17s-.17-.25-.17-.41.06-.29.17-.41c.11-.11.25-.17.41-.17h2.28c.37,0,.56-.19.56-.56v-.31c0-.37-.19-.56-.56-.56h-1.88c-.16,0-.29-.06-.41-.17s-.17-.25-.17-.41.06-.3.17-.41c.11-.12.25-.17.41-.17h1.88c.37,0,.56-.19.56-.56v-.21c0-.18.06-.33.18-.46.12-.13.27-.19.45-.19.17,0,.31.06.43.19.12.13.18.28.18.46v.21c0,.37.19.56.56.56h2.06c.16,0,.29.06.41.17s.17.25.17.41-.06.29-.17.41c-.11.11-.25.17-.41.17h-2.06c-.37,0-.56.19-.56.56v.31c0,.37.19.56.56.56h2.56c.16,0,.29.06.41.17.11.11.17.25.17.41ZM79.76,108.16c0,.18-.06.33-.18.46-.12.13-.27.19-.45.19-.23,0-.41-.1-.53-.29-.21-.33-.45-.69-.74-1.08-.09-.12-.14-.25-.14-.39,0-.17.06-.31.18-.43s.27-.18.45-.18c.19,0,.35.08.48.24.37.47.65.84.83,1.13.07.12.11.24.11.36Z"/>
      <path class="cls-1" d="M89.88,109.91c0,.22-.07.41-.22.56-.15.15-.34.22-.56.22-.24,0-.44-.09-.6-.28-.55-.66-1.11-1.23-1.67-1.71-.18-.15-.27-.34-.27-.56s.07-.39.22-.54.32-.22.54-.22c.19,0,.35.06.49.18.78.68,1.41,1.28,1.88,1.81.13.14.2.32.2.53Z"/>
      <path class="cls-1" d="M112.86,105.09c0,.16-.05.29-.16.41-.11.11-.24.17-.4.17h-.62c-.37,0-.56.19-.56.56v3.02c0,.63-.12,1.04-.34,1.24s-.69.3-1.38.3h-1.32c-.16,0-.3-.06-.41-.17-.12-.12-.17-.25-.17-.41s.06-.29.17-.41c.12-.11.25-.17.41-.17h.92c.31,0,.52-.05.63-.15.11-.1.17-.31.17-.62v-2.65c0-.37-.19-.56-.56-.56h-8.29c-.15,0-.28-.05-.39-.16-.11-.11-.17-.24-.17-.4,0-.15.06-.28.17-.39.11-.11.24-.17.39-.17h1.44c-.06-.08-.08-.18-.08-.28,0-.27.13-.44.39-.5.73-.2,1.34-.42,1.83-.66.14-.07.21-.16.21-.27,0-.17-.13-.25-.38-.25h-1.41c-.14,0-.26-.05-.36-.15s-.15-.22-.15-.36.05-.26.15-.36c.1-.1.22-.15.36-.15h2.41c.32,0,.49-.15.5-.45,0-.17.07-.3.18-.39h-3.43c-.39,0-.59.16-.59.48v.48c0,.19-.07.34-.2.47-.13.13-.29.19-.48.19s-.34-.06-.47-.19-.19-.28-.19-.47v-.91c0-.79.4-1.19,1.19-1.19h3.47c.37,0,.56-.15.56-.46,0-.19.07-.35.2-.48.14-.14.3-.2.48-.2s.33.07.47.2c.14.14.2.3.2.48,0,.31.19.46.56.46h3.46c.79,0,1.19.4,1.19,1.19v.91c0,.19-.06.34-.19.47-.13.13-.28.19-.47.19s-.35-.06-.48-.19-.2-.28-.2-.47v-.48c0-.32-.2-.48-.6-.48h-3.64c.14.14.21.3.2.49-.02.23.14.35.48.35h2.64c.14,0,.26.05.36.15.1.1.15.22.15.36s-.05.26-.15.36-.22.15-.36.15h-1.23c-.25,0-.38.08-.38.24,0,.1.07.2.22.28.43.24,1.03.47,1.79.67.25.07.38.23.38.49,0,.1-.03.2-.08.28h1.36c.37,0,.56.19.56.56ZM108.52,108.58c0,.73-.36,1.09-1.08,1.09h-4.24c-.73,0-1.09-.36-1.09-1.09v-1.13c0-.73.36-1.09,1.09-1.09h4.24c.72,0,1.08.36,1.08,1.09v1.13ZM107.26,108.13v-.25c0-.3-.16-.45-.49-.45h-2.88c-.33,0-.49.15-.49.45v.25c0,.28.16.42.49.42h2.88c.33,0,.49-.14.49-.42ZM109.68,104.53c-1.02-.34-1.83-.76-2.45-1.26-.2-.16-.38-.24-.55-.24-.18,0-.37.09-.59.27-.55.47-1.35.88-2.41,1.23h5.99Z"/>
      <path class="cls-1" d="M119.72,104.02c-.49.83-.89,1.64-1.22,2.42-.14.34-.38.5-.71.5-.47,0-.74-.24-.81-.73-.08-.55-.13-1.38-.13-2.48s.16-2.42.48-3.93c.09-.46.34-.69.73-.69.2,0,.36.07.49.2s.2.3.2.5c0,.06,0,.11-.01.17-.34,1.54-.51,2.7-.53,3.49,0,.31.06.46.21.46.12,0,.25-.11.39-.34l.07-.11c.09-.15.23-.22.42-.22.34,0,.5.17.5.5,0,.09-.02.18-.07.25ZM124.53,104.09c0,1.58-.29,2.87-.85,3.88-.6,1.05-1.58,1.93-2.94,2.65-.1.06-.21.08-.34.08-.2,0-.36-.08-.5-.23-.14-.15-.21-.33-.21-.53,0-.26.13-.46.39-.6,1.14-.6,1.94-1.32,2.39-2.16.43-.77.64-1.82.64-3.15,0-1.2-.13-2.62-.38-4.24-.04-.21.02-.41.17-.58.15-.17.33-.26.55-.26.18,0,.33.06.47.18.14.12.22.27.25.45.24,1.75.36,3.25.36,4.51Z"/>
      <path class="cls-1" d="M131.34,103.78c0,.17-.06.31-.17.43-.12.12-.26.18-.43.18-.14,0-.26-.04-.36-.11-.48-.35-.93-.66-1.37-.91-.2-.11-.29-.28-.29-.52,0-.17.06-.31.17-.43.12-.12.26-.17.43-.17.09,0,.19.03.29.08.44.24.93.56,1.48.97.17.12.25.28.25.49ZM131.32,106.61c0,.07,0,.13-.03.18-.36,1.15-.83,2.26-1.39,3.33-.12.23-.3.35-.55.35-.17,0-.31-.06-.43-.18-.12-.12-.17-.27-.17-.43,0-.11.02-.21.07-.29.51-.94.97-1.99,1.37-3.14.09-.26.28-.39.55-.39.16,0,.29.06.41.17.11.12.17.25.17.4ZM131.62,100.35c0,.17-.06.31-.18.43s-.27.17-.43.17c-.15,0-.27-.04-.36-.11-.38-.3-.8-.6-1.26-.9-.19-.12-.28-.29-.28-.5,0-.17.06-.31.17-.42.11-.11.25-.17.42-.17.14,0,.25.02.32.07.5.31.95.62,1.36.92.17.12.25.29.25.5ZM140.96,102.22c0,.16-.06.29-.17.4-.11.11-.24.16-.39.16h-1.65c-.29,0-.43.1-.43.29,0,.1.05.21.15.31.53.56,1.22,1.08,2.07,1.55.21.12.32.3.32.53,0,.17-.06.31-.17.43-.12.12-.26.18-.43.18-.12,0-.23-.03-.32-.08-1.22-.77-2.2-1.64-2.94-2.59-.32-.41-.59-.62-.81-.62s-.5.21-.81.63c-.64.87-1.55,1.71-2.72,2.53-.09.07-.21.1-.35.1-.16,0-.3-.06-.41-.18-.12-.12-.17-.25-.17-.41,0-.21.09-.38.28-.5.84-.54,1.5-1.06,1.97-1.57.09-.1.14-.2.14-.29,0-.21-.15-.31-.43-.31h-1.55c-.15,0-.28-.05-.39-.16-.11-.11-.17-.24-.17-.4s.06-.29.17-.4c.11-.11.24-.16.39-.16h2.31c.49,0,.8-.21.95-.62.03-.07.04-.15.04-.22,0-.29-.18-.42-.55-.39-.43.03-1.07.06-1.93.1-.16,0-.3-.04-.41-.15-.12-.11-.17-.25-.17-.41,0-.15.05-.28.16-.38s.24-.16.39-.17c2.32-.08,4.42-.3,6.3-.66.18-.04.34,0,.48.13.14.12.22.27.22.45,0,.34-.16.53-.49.59-.63.1-1.28.19-1.93.27-.41.05-.71.3-.9.76l-.03.07c-.04.08-.06.16-.06.24,0,.27.17.41.52.41h3.37c.15,0,.28.05.39.16.11.11.17.24.17.4ZM134.28,106.58c0,.08-.02.16-.06.22-.47.98-.97,1.86-1.51,2.63-.12.18-.29.27-.5.27-.16,0-.3-.06-.41-.17-.12-.12-.17-.25-.17-.41s.04-.29.13-.39c.58-.73,1.08-1.53,1.5-2.39.09-.2.26-.29.49-.29.15,0,.28.06.39.17.11.11.16.24.16.38ZM136.04,109.2c0,.61-.08,1.01-.25,1.23-.16.21-.46.31-.9.31h-.83c-.16,0-.29-.06-.41-.17-.11-.11-.17-.25-.17-.41s.06-.29.17-.41c.11-.11.25-.17.41-.17h.32c.18,0,.3-.04.37-.13.07-.08.11-.28.11-.59v-3.99c0-.16.06-.29.17-.41.12-.11.25-.17.41-.17s.3.06.41.17c.12.11.17.25.17.41v4.31ZM138.79,109.53c0,.16-.05.3-.16.41-.11.12-.24.17-.4.17-.26,0-.44-.12-.53-.35-.3-.74-.69-1.58-1.16-2.53-.05-.09-.07-.18-.07-.27,0-.35.19-.53.56-.53.22,0,.39.09.49.28.45.84.86,1.7,1.23,2.59.03.07.04.14.04.22ZM140.98,108.96c0,.16-.05.29-.16.41-.11.11-.25.17-.41.17-.23,0-.41-.11-.52-.32-.4-.78-.83-1.54-1.27-2.27-.06-.09-.08-.19-.08-.29,0-.15.06-.28.17-.38.11-.11.24-.16.39-.16.21,0,.36.08.46.24.53.84.98,1.62,1.36,2.34.05.09.07.19.07.28Z"/>
      <path class="cls-1" d="M153.51,105.12c0,1.44-.61,2.66-1.82,3.65-.97.81-2.24,1.42-3.81,1.83-.08.02-.13.03-.17.03-.19,0-.35-.07-.48-.2-.13-.14-.2-.3-.2-.5,0-.35.16-.56.49-.66,1.2-.35,2.19-.81,2.95-1.4,1.03-.77,1.54-1.68,1.54-2.72,0-1.25-.63-1.88-1.89-1.88s-2.88.33-4.77.99c-.08.03-.16.04-.22.04-.19,0-.35-.07-.49-.21-.14-.14-.21-.31-.21-.5,0-.35.17-.57.5-.67,2.19-.66,3.95-.99,5.26-.99,1.04,0,1.85.27,2.42.8.6.56.9,1.35.9,2.38ZM151.89,100.22c0,.21-.08.38-.22.51-.15.14-.32.19-.52.18-1.89-.17-3.39-.4-4.48-.7-.35-.09-.52-.32-.52-.67,0-.2.07-.36.2-.5.13-.14.3-.2.5-.2.06,0,.12,0,.18.03,1.24.34,2.65.56,4.21.67.18,0,.33.08.46.22.13.14.19.29.19.47Z"/>
      <path class="cls-1" d="M168.59,108.69c0,.2-.07.36-.21.5-.14.14-.31.2-.5.2-.12,0-.24-.03-.35-.1-.92-.52-1.75-.93-2.49-1.23-.1-.05-.2-.07-.29-.07-.27,0-.45.2-.53.6-.1.52-.31.92-.63,1.19-.5.43-1.39.64-2.69.64-.78,0-1.42-.16-1.95-.48-.63-.38-.94-.94-.94-1.67s.3-1.33.91-1.74,1.45-.62,2.52-.62c.23,0,.47,0,.7.03.24.02.43-.03.55-.13.13-.11.18-.28.17-.52l-.13-5.78c0-.21.07-.38.21-.52.14-.14.31-.21.52-.21s.36.07.5.21c.14.14.21.31.21.5v1.3c.02.5.27.72.76.67.81-.08,1.66-.2,2.55-.35.21-.04.39.01.55.15s.25.31.25.52c0,.38-.19.61-.56.67-.77.14-1.7.26-2.81.35-.46.04-.68.28-.67.74l.03,1.99c0,.54.28.91.81,1.09,1.04.37,2.09.85,3.14,1.41.25.14.38.35.38.63ZM162.85,108.02c.06-.45-.13-.71-.59-.78-.31-.05-.6-.07-.87-.07-1.33,0-2,.35-2,1.06,0,.63.51.94,1.53.94.66,0,1.13-.08,1.41-.24.28-.16.45-.46.52-.9Z"/>
      <path class="cls-1" d="M181.79,105.12c0,1.44-.61,2.66-1.82,3.65-.97.81-2.24,1.42-3.81,1.83-.08.02-.13.03-.17.03-.19,0-.35-.07-.48-.2-.13-.14-.2-.3-.2-.5,0-.35.16-.56.49-.66,1.2-.35,2.19-.81,2.95-1.4,1.03-.77,1.54-1.68,1.54-2.72,0-1.25-.63-1.88-1.89-1.88s-2.88.33-4.77.99c-.08.03-.16.04-.22.04-.19,0-.35-.07-.49-.21-.14-.14-.21-.31-.21-.5,0-.35.17-.57.5-.67,2.19-.66,3.95-.99,5.26-.99,1.04,0,1.85.27,2.42.8.6.56.9,1.35.9,2.38ZM180.17,100.22c0,.21-.08.38-.22.51-.15.14-.32.19-.52.18-1.89-.17-3.39-.4-4.48-.7-.35-.09-.52-.32-.52-.67,0-.2.07-.36.2-.5.13-.14.3-.2.5-.2.06,0,.12,0,.18.03,1.24.34,2.65.56,4.21.67.18,0,.33.08.46.22.13.14.19.29.19.47Z"/>
      <path class="cls-1" d="M27.62,117.96c-.37,2.14-.56,4.16-.56,6.06,0,1.33.05,2.45.15,3.35.03.21-.03.41-.18.57-.15.17-.33.25-.55.25-.2,0-.36-.07-.5-.2-.14-.13-.22-.29-.24-.48-.09-.9-.14-2.03-.14-3.42,0-2.07.2-4.2.59-6.4.07-.4.31-.6.71-.6.22,0,.41.09.55.26.15.17.2.37.16.59ZM36.12,126.5c0,.17-.06.32-.18.46-.12.14-.27.21-.43.23-1.21.16-2.23.24-3.04.24-2.47,0-3.71-.75-3.71-2.24,0-.42.12-.85.35-1.29.13-.25.33-.38.59-.38.46,0,.69.22.69.66,0,.09-.03.23-.08.41-.06.18-.08.33-.08.44,0,.38.23.65.69.8.39.14,1.01.21,1.86.21.69,0,1.54-.08,2.55-.24.21-.04.4.02.57.16.16.15.25.32.25.54ZM35.63,119.09c0,.18-.06.33-.18.46s-.26.21-.44.24c-1.05.15-2.17.22-3.35.22-.52,0-1.09-.02-1.71-.06-.18,0-.33-.08-.46-.22s-.2-.3-.2-.48c0-.21.08-.38.23-.51s.33-.19.52-.17c.52.05,1.08.07,1.67.07,1.05,0,2.09-.08,3.09-.24.21-.04.4.01.57.15.16.14.25.32.25.53Z"/>
      <path class="cls-1" d="M45.5,118c0,.1-.02.2-.07.28-.23.43-.52.89-.85,1.37-.07.09-.1.18-.1.25,0,.17.12.25.36.25.15,0,.28.05.39.16.11.11.16.24.16.39s-.05.28-.16.38-.24.16-.39.16h-.94c-.39,0-.74.15-1.05.43l-.21.2c-.07.07-.1.13-.1.18,0,.1.08.15.24.15h.69c.62,0,.92.21.92.64,0,.23-.12.46-.35.67l-.7.66c-.11.1-.17.2-.17.29,0,.17.13.23.39.2.55-.07.98-.14,1.3-.2.15-.03.29,0,.41.11s.19.23.19.39c0,.3-.14.47-.43.52-.37.07-.96.16-1.75.28-.35.05-.52.24-.52.59v1.09c0,.51-.09.86-.27,1.04-.18.18-.51.27-1.01.27h-.92c-.14,0-.26-.05-.37-.16-.11-.11-.16-.23-.16-.38s.05-.27.15-.38c.1-.1.23-.15.38-.15h.45c.16,0,.27-.01.34-.04.15-.05.22-.21.22-.49v-.55c0-.4-.2-.58-.59-.53-.37.04-.94.1-1.71.18-.16.02-.3-.03-.42-.14-.12-.11-.18-.25-.18-.41,0-.34.17-.53.5-.56.48-.04,1.1-.09,1.86-.17.35-.04.53-.22.53-.56,0-.21.07-.36.21-.46.09-.06.23-.13.4-.19.17-.06.29-.12.36-.17l.1-.08c.08-.07.13-.13.13-.2,0-.1-.1-.15-.29-.15h-1.01c-.32,0-.61.09-.88.26s-.63.38-1.1.64c-.08.05-.18.07-.28.07-.16,0-.3-.06-.41-.18s-.17-.25-.17-.41c0-.25.12-.43.35-.53.72-.32,1.44-.73,2.16-1.25.12-.08.18-.18.18-.28,0-.16-.12-.24-.36-.24h-1.83c-.15,0-.28-.05-.38-.16-.11-.11-.16-.24-.16-.38s.05-.28.16-.39.24-.16.38-.16h1.51c.37,0,.56-.19.56-.56v-.17c0-.37-.19-.56-.56-.56h-1.05c-.15,0-.28-.05-.38-.16-.11-.11-.16-.24-.16-.38s.05-.28.16-.38c.11-.1.24-.15.38-.15h1.05c.37,0,.56-.19.56-.56v-.21c0-.16.06-.3.17-.41.12-.12.25-.17.41-.17s.3.06.41.17c.12.12.17.25.17.41v.21c0,.37.19.56.56.56h.45c.15,0,.28.05.38.15s.15.23.15.38-.05.28-.15.38c-.1.11-.23.16-.38.16h-.46c-.37,0-.56.19-.56.56v.17c0,.37.09.56.27.56.19,0,.36-.11.52-.32.52-.69.94-1.38,1.26-2.07.1-.22.27-.34.52-.34.17,0,.31.06.42.17s.17.25.17.41ZM51.22,119.16c0,.3-.13.48-.39.55-.35.09-.53.28-.56.56-.18,1.65-.54,3.09-1.08,4.31-.08.2-.13.37-.13.53,0,.21.07.41.22.62.43.58.95,1.14,1.55,1.68.16.14.24.31.24.52,0,.19-.07.34-.2.47-.13.12-.29.19-.48.19s-.34-.06-.46-.18c-.43-.42-.84-.9-1.25-1.43-.16-.21-.32-.31-.49-.31-.16,0-.32.1-.48.29-.49.6-1,1.13-1.54,1.6-.12.1-.27.15-.43.15-.18,0-.33-.07-.45-.2-.13-.13-.19-.29-.19-.48,0-.21.08-.38.25-.52.74-.6,1.34-1.19,1.81-1.76.16-.2.24-.4.24-.62,0-.16-.04-.33-.13-.52-.29-.62-.54-1.31-.74-2.04-.05-.17-.12-.25-.21-.25-.08,0-.16.07-.22.21l-.2.43c-.09.21-.26.32-.5.32-.16,0-.29-.06-.41-.17s-.17-.25-.17-.41c0-.08.02-.16.06-.24.82-1.59,1.43-3.4,1.83-5.45.06-.33.26-.49.59-.49.17,0,.31.06.42.17.11.12.17.25.17.41,0,.08-.06.35-.17.78-.02.07-.03.14-.03.21,0,.3.17.45.5.45h2.42c.16,0,.3.06.41.17.12.12.17.26.17.43ZM49.12,120.32c.03-.38-.15-.57-.55-.57h-.69c-.5,0-.71.25-.66.74.11,1.02.35,1.97.71,2.87.08.2.19.29.32.29.1,0,.18-.07.22-.2.34-.88.55-1.92.63-3.14Z"/>
      <path class="cls-1" d="M64.23,128.06c-.89.18-1.84.27-2.86.27-.9,0-1.49-.28-1.79-.84-.17-.3-.28-.9-.32-1.81-.04-.61-.21-.91-.53-.91-.61,0-1.29.36-2.06,1.08-.24.22-.91.92-1.99,2.1-.15.16-.33.24-.55.24s-.38-.07-.52-.22c-.14-.14-.21-.32-.21-.52s.07-.37.22-.52c1.46-1.45,3.27-3.19,5.45-5.22.15-.14.22-.26.22-.35,0-.16-.17-.22-.5-.2l-3.58.28c-.2.02-.37-.04-.52-.18s-.22-.3-.22-.5.06-.35.19-.48c.13-.13.28-.2.46-.21l5.6-.32c.31-.02.56.05.75.21s.29.35.29.59c0,.27-.13.52-.38.74-.54.48-1.17,1.05-1.88,1.74-.21.2-.31.34-.31.43,0,.1.12.17.36.2.6.07.93.52,1.01,1.36.06.74.12,1.17.15,1.29.12.46.38.69.77.69.3,0,.74-.05,1.33-.15s1.02-.15,1.3-.15c.19,0,.34.07.46.21.12.14.18.31.18.5,0,.36-.18.58-.53.66ZM61.64,118.19c0,.2-.07.36-.21.5-.14.14-.31.19-.5.18-1.73-.17-3.13-.4-4.2-.69-.34-.09-.5-.31-.5-.66,0-.19.06-.35.2-.48.13-.13.29-.2.48-.2.06,0,.12,0,.18.03,1.07.3,2.39.52,3.95.66.18.02.32.09.44.21.12.12.18.27.18.45Z"/>
      <path class="cls-1" d="M78.65,118.45c0,.37-.25.6-.76.67-1.41.21-2.66.8-3.75,1.74-1.09.95-1.64,1.94-1.64,2.99,0,1.47,1.21,2.43,3.63,2.9.4.07.6.31.6.71,0,.22-.09.41-.26.56-.17.15-.37.21-.6.17-1.35-.23-2.44-.65-3.26-1.26-1.03-.75-1.54-1.74-1.54-2.97,0-.99.34-1.9,1.02-2.74.27-.34.57-.64.9-.91.28-.23.42-.43.42-.6,0-.22-.24-.32-.71-.28-1.46.13-3.01.29-4.66.49-.21.03-.38-.03-.53-.17-.15-.14-.22-.31-.22-.52,0-.18.06-.33.17-.46.12-.13.26-.21.44-.22,1.69-.17,4.99-.42,9.9-.76.25-.02.46.04.62.16s.24.29.24.5Z"/>
      <path class="cls-1" d="M86.98,125.43c-.82,1.61-1.61,2.42-2.37,2.42-.93,0-1.66-.83-2.17-2.49-.4-1.29-.6-2.75-.6-4.38,0-.84.03-1.56.08-2.17.02-.2.1-.36.23-.49s.3-.2.5-.2c.21,0,.39.08.54.25.14.16.21.35.19.57-.07.63-.1,1.35-.1,2.17,0,1.07.12,2.14.35,3.19.26,1.17.61,1.75,1.04,1.75.31,0,.66-.42,1.05-1.26.12-.25.33-.38.63-.38.2,0,.36.07.5.2s.2.3.2.5c0,.12-.02.23-.07.32ZM93.04,125c.03.22-.03.42-.18.6-.15.18-.34.27-.57.27-.2,0-.37-.07-.52-.2-.15-.13-.23-.29-.25-.48-.23-2.12-.92-4-2.06-5.66-.08-.12-.13-.26-.13-.41,0-.21.07-.38.21-.52.14-.14.31-.21.52-.21.25,0,.45.1.6.31,1.29,1.79,2.08,3.89,2.38,6.29Z"/>
      <path class="cls-1" d="M102.59,119.93c-.68.13-1.37.24-2.07.32-.38.05-.66.15-.83.29-.17.15-.3.41-.39.77-.52,2.21-1.17,4.34-1.95,6.37-.12.31-.35.46-.69.46-.21,0-.38-.07-.52-.22-.14-.14-.21-.31-.21-.51,0-.09.02-.19.06-.28.79-1.88,1.44-3.86,1.95-5.96.02-.07.03-.14.03-.21,0-.33-.2-.49-.59-.48s-.75,0-1.08,0c-.19,0-.35-.08-.48-.22-.14-.13-.2-.3-.2-.48s.07-.36.22-.5c.14-.14.31-.21.51-.2.53.02.96.02,1.29.01.52-.02.82-.27.9-.77.03-.21.07-.51.14-.92.07-.41.3-.61.71-.61.2,0,.36.07.5.21.14.14.21.3.21.49,0,.09-.04.33-.11.7,0,.07-.01.13-.01.18,0,.37.21.53.62.46.06,0,.38-.07.98-.2.45-.08.76-.13.92-.13.2,0,.36.07.48.21s.19.31.19.5c0,.38-.19.61-.57.69ZM107.01,127.29c0,.4-.2.63-.59.69-.89.13-1.82.2-2.8.2-2.48,0-3.72-.7-3.72-2.09,0-.32.08-.68.24-1.09.11-.28.32-.42.63-.42.44,0,.66.22.66.67,0,.08-.01.18-.04.31-.03.14-.04.24-.04.32,0,.63.8.95,2.39.95.7,0,1.53-.07,2.49-.21.21-.03.39.03.55.16.16.14.24.31.24.51ZM106.62,122.09c0,.2-.08.36-.22.5-.15.14-.32.21-.52.2-1.39-.07-2.88-.04-4.47.1-.2.02-.37-.04-.51-.18-.14-.14-.22-.3-.22-.5,0-.18.06-.33.17-.45s.26-.2.43-.22c1.58-.16,3.13-.21,4.65-.17.19,0,.35.08.48.22.14.14.2.3.2.49Z"/>
      <path class="cls-1" d="M116.59,119.93c-.78.15-1.47.26-2.07.32-.38.05-.66.15-.83.29-.17.15-.3.41-.39.77-.56,2.46-1.21,4.58-1.95,6.37-.13.31-.36.46-.69.46-.21,0-.38-.07-.52-.22-.14-.14-.21-.31-.21-.51,0-.1.02-.2.06-.28.75-1.75,1.4-3.73,1.95-5.96.02-.07.03-.14.03-.21,0-.33-.2-.49-.59-.48-.39,0-.75,0-1.08,0-.19,0-.35-.08-.48-.22-.14-.13-.2-.3-.2-.48s.07-.36.22-.5.32-.21.51-.2c.53.02.96.02,1.29.01.53-.02.83-.27.9-.77.03-.2.07-.5.14-.91s.3-.62.71-.62c.2,0,.36.07.5.21.14.14.21.3.21.49,0,.09-.04.33-.11.7,0,.07-.01.13-.01.18,0,.37.21.53.62.46.06,0,.38-.07.98-.2.45-.08.76-.13.92-.13.2,0,.36.07.48.21s.19.31.19.5c0,.38-.19.61-.57.69ZM121.01,127.29c0,.18-.06.33-.17.46-.11.13-.25.21-.42.22-1.04.13-1.98.2-2.8.2-2.48,0-3.72-.7-3.72-2.09,0-.34.08-.7.24-1.09.11-.28.32-.42.63-.42.45,0,.67.22.67.67,0,.08-.02.18-.06.31-.04.14-.06.24-.06.32,0,.63.8.95,2.41.95.62,0,1.46-.07,2.49-.21.21-.03.39.03.55.16.16.14.24.31.24.51ZM120.62,122.09c0,.2-.08.36-.22.5-.15.14-.32.21-.52.2-1.44-.1-2.93-.07-4.47.1-.2.02-.37-.04-.51-.18-.15-.14-.22-.3-.22-.5,0-.18.06-.33.17-.45.12-.13.26-.2.43-.22,1.86-.16,3.41-.21,4.65-.17.19,0,.35.08.48.22s.2.3.2.49ZM119.95,119.64c0,.15-.05.28-.16.38-.11.11-.24.16-.38.16-.22,0-.39-.08-.49-.25-.27-.43-.56-.8-.87-1.11-.1-.1-.15-.23-.15-.38,0-.37.18-.56.55-.56.16,0,.3.07.42.21.39.44.72.85.98,1.23.08.11.11.21.11.31ZM121.66,118.84c0,.15-.05.28-.16.38s-.24.16-.38.16c-.21,0-.38-.08-.49-.25-.31-.46-.6-.84-.87-1.13-.1-.11-.15-.23-.15-.35,0-.37.19-.56.56-.56.14,0,.28.06.41.2.33.33.66.74.99,1.25.06.13.1.23.1.31Z"/>
      <path class="cls-1" d="M129.4,125.43c-.82,1.61-1.61,2.42-2.37,2.42-.93,0-1.66-.83-2.17-2.49-.4-1.29-.6-2.75-.6-4.38,0-.84.03-1.56.08-2.17.02-.2.1-.36.23-.49.13-.13.3-.2.5-.2.21,0,.39.08.54.25.14.16.21.35.19.57-.07.63-.1,1.35-.1,2.17,0,1.07.12,2.14.35,3.19.26,1.17.61,1.75,1.04,1.75.31,0,.66-.42,1.05-1.26.12-.25.33-.38.63-.38.2,0,.36.07.5.2s.2.3.2.5c0,.12-.02.23-.07.32ZM135.46,125c.03.22-.03.42-.18.6s-.34.27-.57.27c-.2,0-.37-.07-.52-.2-.15-.13-.23-.29-.25-.48-.23-2.12-.92-4-2.06-5.66-.08-.12-.13-.26-.13-.41,0-.21.07-.38.21-.52.14-.14.31-.21.52-.21.25,0,.45.1.6.31,1.29,1.79,2.08,3.89,2.38,6.29Z"/>
      <path class="cls-1" d="M145.01,119.93c-.68.13-1.37.24-2.07.32-.38.05-.66.15-.83.29-.17.15-.3.41-.38.77-.52,2.21-1.17,4.34-1.95,6.37-.12.31-.35.46-.69.46-.21,0-.38-.07-.52-.22-.14-.14-.21-.31-.21-.51,0-.09.02-.19.06-.28.79-1.88,1.44-3.86,1.95-5.96.02-.07.03-.14.03-.21,0-.33-.2-.49-.59-.48-.39,0-.75,0-1.08,0-.19,0-.35-.08-.48-.22-.14-.13-.2-.3-.2-.48s.07-.36.22-.5c.15-.14.32-.21.51-.2.53.02.96.02,1.29.01.52-.02.82-.27.9-.77.03-.21.08-.51.14-.92.06-.41.3-.61.71-.61.2,0,.36.07.5.21.14.14.21.3.21.49,0,.09-.04.33-.11.7,0,.07-.01.13-.01.18,0,.37.21.53.62.46.06,0,.38-.07.98-.2.45-.08.76-.13.92-.13.2,0,.36.07.48.21s.19.31.19.5c0,.38-.19.61-.57.69ZM149.43,127.29c0,.4-.2.63-.59.69-.89.13-1.82.2-2.8.2-2.48,0-3.72-.7-3.72-2.09,0-.32.08-.68.24-1.09.11-.28.32-.42.63-.42.44,0,.66.22.66.67,0,.08-.01.18-.04.31-.03.14-.04.24-.04.32,0,.63.8.95,2.39.95.7,0,1.53-.07,2.49-.21.21-.03.39.03.55.16.16.14.24.31.24.51ZM149.04,122.09c0,.2-.07.36-.22.5-.15.14-.32.21-.52.2-1.39-.07-2.88-.04-4.47.1-.2.02-.37-.04-.51-.18-.14-.14-.22-.3-.22-.5,0-.18.06-.33.17-.45.12-.13.26-.2.43-.22,1.58-.16,3.13-.21,4.65-.17.19,0,.35.08.48.22.14.14.2.3.2.49Z"/>
      <path class="cls-1" d="M162.9,126.73c0,.4-.19.63-.57.7-1.53.27-2.95.41-4.27.41s-2.34-.11-3.11-.32c-1.25-.35-1.88-1.03-1.88-2.03,0-.68.44-1.47,1.33-2.35.12-.12.27-.18.46-.18.18,0,.33.06.46.19s.2.28.2.46c0,.16-.06.3-.18.43-.5.52-.76.96-.76,1.3,0,.77,1.19,1.16,3.56,1.16,1.13,0,2.45-.14,3.95-.43.21-.04.39.01.56.15.17.14.25.31.25.53ZM161.37,119.5c-.78.31-1.74.83-2.86,1.55-.11.07-.22.11-.32.11-.16,0-.3-.06-.41-.17-.12-.12-.17-.26-.17-.43,0-.21.09-.38.28-.49l.18-.11c.18-.1.27-.21.27-.31,0-.12-.14-.18-.41-.18-1.03.02-2.17,0-3.44-.08-.18,0-.33-.08-.46-.21s-.19-.28-.19-.46c0-.2.07-.36.22-.5.15-.14.32-.2.51-.19,2.23.13,4.4.14,6.5.04.27,0,.49.06.65.2s.25.31.25.5c0,.33-.2.57-.59.73Z"/>
      <path class="cls-1" d="M176.77,127.1c0,.4-.2.63-.6.69-1.54.21-3.08.32-4.62.32-2.74,0-4.12-.83-4.12-2.48,0-1.01.71-2.05,2.11-3.14.28-.21.42-.46.42-.74,0-.13-.03-.27-.08-.42-.41-1.04-.75-2.15-1.02-3.35,0-.05-.01-.1-.01-.15,0-.21.07-.38.22-.52.14-.14.32-.22.53-.22.18,0,.33.06.47.18.14.12.22.27.26.45.18.93.43,1.87.77,2.81.11.31.29.46.53.46.13,0,.27-.04.41-.13.08-.05,1.12-.61,3.09-1.69.12-.07.23-.1.34-.1.2,0,.36.07.5.21.13.14.2.31.2.5,0,.29-.13.5-.39.63-1.15.57-2.39,1.24-3.72,2.02-.85.5-1.53.96-2.03,1.39-.73.63-1.09,1.19-1.09,1.71,0,.84.88,1.26,2.63,1.26,1.45,0,2.92-.13,4.41-.38.21-.04.39.01.56.15.17.14.25.32.25.53Z"/>
      <path class="cls-1" d="M33.12,136.45c0,.37-.25.6-.76.67-1.41.21-2.66.8-3.75,1.74-1.09.95-1.64,1.94-1.64,2.99,0,1.51,1.21,2.48,3.63,2.9.4.07.6.3.6.71,0,.22-.09.41-.26.57s-.37.21-.59.16c-1.45-.28-2.55-.71-3.3-1.29-1-.77-1.5-1.75-1.5-2.94,0-1.01.34-1.92,1.02-2.74.3-.35.59-.65.88-.9.29-.24.43-.45.43-.62,0-.22-.24-.32-.71-.28-1.91.17-3.47.33-4.66.49-.21.03-.38-.03-.53-.17-.15-.14-.22-.31-.22-.52,0-.18.06-.33.17-.47.12-.13.26-.21.44-.22,1.72-.17,5.02-.42,9.9-.76.25,0,.46.05.62.17s.24.29.24.48ZM32.36,140.58c0,.15-.05.28-.16.38-.11.11-.24.16-.39.16-.22,0-.39-.08-.49-.25-.27-.43-.56-.8-.87-1.11-.1-.1-.15-.23-.15-.38,0-.37.18-.56.55-.56.16,0,.3.07.42.21.39.44.72.85.98,1.23.07.11.11.21.11.31ZM34.07,139.78c0,.15-.05.28-.16.38-.11.11-.24.16-.39.16-.21,0-.38-.08-.49-.25-.31-.46-.6-.83-.87-1.13-.1-.11-.15-.23-.15-.35,0-.37.19-.56.56-.56.14,0,.27.07.41.2.33.33.66.74.99,1.25.06.13.1.23.1.31Z"/>
      <path class="cls-1" d="M46.63,145.1c0,.4-.2.63-.6.69-1.54.21-3.08.32-4.62.32-2.74,0-4.12-.83-4.12-2.48,0-1.01.7-2.05,2.11-3.14.28-.21.42-.46.42-.74,0-.13-.03-.27-.08-.42-.41-1.04-.75-2.15-1.02-3.35,0-.05-.01-.1-.01-.15,0-.21.07-.38.22-.53.14-.14.32-.22.52-.22.18,0,.33.06.47.18s.22.27.26.45c.18.93.43,1.87.77,2.81.11.31.29.46.53.46.13,0,.27-.04.41-.13.08-.05,1.12-.61,3.09-1.69.12-.06.23-.1.34-.1.2,0,.36.07.5.21s.2.31.2.5c0,.29-.13.5-.39.63-1.15.57-2.39,1.24-3.72,2.02-.85.49-1.53.96-2.03,1.39-.73.62-1.09,1.19-1.09,1.71,0,.84.88,1.26,2.63,1.26,1.45,0,2.92-.13,4.41-.38.21-.04.39.01.56.15.17.14.25.32.25.53Z"/>
      <path class="cls-1" d="M61.62,136.45c0,.37-.25.6-.76.67-1.41.21-2.66.8-3.75,1.74-1.09.95-1.64,1.94-1.64,2.99,0,1.46,1.21,2.43,3.63,2.9.4.08.6.31.6.71,0,.22-.09.41-.26.56-.17.15-.37.21-.6.17-1.35-.23-2.44-.65-3.26-1.26-1.03-.75-1.54-1.74-1.54-2.97,0-.99.34-1.9,1.02-2.74.27-.34.57-.64.9-.91.28-.23.42-.43.42-.6,0-.22-.24-.32-.71-.28-1.46.13-3.01.29-4.66.49-.21.03-.38-.03-.53-.17-.15-.14-.22-.31-.22-.52,0-.18.06-.33.17-.46s.26-.21.44-.22c1.69-.17,4.99-.42,9.9-.76.25-.02.46.04.62.16s.24.29.24.5Z"/>
      <path class="cls-1" d="M75.39,143.25c0,1.03-.38,1.85-1.14,2.46-.76.61-1.8.92-3.13.92-2.62,0-3.93-1.11-3.93-3.33,0-.19,0-.46.03-.81.02-.42-.21-.68-.7-.78-.42-.03-.84-.06-1.25-.1-.17-.02-.31-.09-.42-.22-.11-.13-.17-.28-.17-.45,0-.2.08-.36.23-.5.15-.13.33-.19.53-.16.29.05.72.11,1.29.18.46.06.71-.15.77-.63l.06-.5c.06-.47-.15-.72-.63-.77-.22-.02-.53-.06-.93-.11-.4-.06-.59-.28-.59-.66,0-.2.08-.36.23-.49.15-.13.33-.18.52-.15.19.03.51.07.97.11s.71-.16.77-.62l.15-1.19c.06-.42.29-.63.7-.63.22,0,.41.08.55.25.14.17.2.36.16.57l-.15.98c-.04.24,0,.43.11.57.11.14.28.2.52.19.78-.02,1.49-.06,2.11-.13.19-.02.35.04.5.16.14.13.22.28.22.47,0,.17-.06.32-.17.44s-.25.2-.41.22c-.86.09-1.7.14-2.53.14-.45,0-.7.21-.74.64l-.06.5c-.03.23.01.42.13.55.11.13.28.2.52.2.79,0,1.58-.06,2.37-.14.2-.02.37.04.51.16.14.13.22.29.22.48,0,.17-.06.31-.17.44-.12.13-.26.2-.43.22-.79.07-1.68.11-2.67.11-.48,0-.72.26-.74.78v.5c0,1.46.86,2.18,2.59,2.18.76,0,1.39-.17,1.9-.5.6-.39.9-.95.9-1.67,0-.53-.13-1.07-.38-1.62-.06-.12-.08-.22-.08-.29,0-.2.07-.36.21-.49.14-.13.31-.2.5-.2.31,0,.52.14.64.41.35.77.53,1.54.53,2.31Z"/>
      <path class="cls-1" d="M90.46,140.23c0,.17-.06.31-.17.43-.12.12-.26.17-.43.17h-1.4c-.37,0-.64.19-.8.56-.33.79-.83,1.54-1.51,2.23-.11.11-.17.22-.17.32,0,.15.1.26.31.34,1.12.43,2.12.84,3.01,1.25.26.12.39.32.39.6,0,.19-.07.35-.2.48-.14.13-.3.2-.48.2-.1,0-.2-.02-.29-.07-1.14-.56-2.3-1.08-3.49-1.57-.2-.07-.38-.11-.56-.11-.23,0-.49.07-.76.21-1.23.64-2.76,1.13-4.58,1.47-.19.04-.36,0-.51-.13-.15-.13-.23-.29-.23-.48,0-.35.17-.56.52-.62,1.07-.18,2.07-.43,3-.77.24-.08.36-.2.36-.35s-.13-.27-.39-.35l-.97-.29c-.52-.16-.78-.42-.78-.77,0-.2.11-.46.32-.8l.5-.76c.07-.1.1-.2.1-.28,0-.21-.14-.31-.43-.31h-2.17c-.17,0-.31-.06-.43-.17s-.18-.26-.18-.43.06-.31.18-.43.26-.17.43-.17h2.84c.48,0,.82-.21,1.04-.62.15-.28.3-.6.45-.95.11-.26.31-.39.6-.39.19,0,.34.07.47.21s.19.3.19.48c0,.1-.02.19-.06.27l-.21.42c-.05.09-.07.18-.07.27,0,.21.14.32.42.32h5.54c.17,0,.31.06.43.17.12.12.17.26.17.43ZM90.06,138.52c0,.18-.06.33-.19.46-.13.13-.28.19-.46.19s-.33-.06-.46-.19c-.13-.13-.19-.28-.19-.46v-.57c0-.37-.19-.56-.56-.56h-7.92c-.38,0-.57.19-.57.56v.57c0,.18-.06.33-.19.46-.13.13-.27.19-.44.19-.18,0-.33-.06-.46-.19-.13-.13-.19-.28-.19-.46v-1.19c0-.77.38-1.15,1.15-1.15h3.37c.42,0,.63-.21.63-.63v-.38c0-.18.07-.33.2-.46.13-.13.29-.2.48-.2.18,0,.33.07.46.2.13.13.2.29.2.46v.38c0,.42.21.63.63.63h3.36c.77,0,1.15.38,1.15,1.15v1.19ZM86.18,141.49c.06-.09.08-.19.08-.28,0-.25-.17-.38-.5-.38h-2.11c-.44,0-.77.19-1.01.56-.28.44-.45.7-.5.78-.11.16-.17.29-.17.39,0,.17.13.29.39.36.38.11.81.25,1.27.41.18.07.35.1.5.1.3,0,.57-.12.83-.36.49-.47.9-.99,1.22-1.58Z"/>
      <path class="cls-1" d="M94.64,139.75c-.26,1.75-.66,3.37-1.2,4.86-.11.32-.33.48-.66.48-.2,0-.36-.07-.5-.21-.14-.14-.21-.3-.21-.49,0-.07.02-.16.06-.25.53-1.3.93-2.82,1.2-4.58.06-.36.27-.55.66-.55.2,0,.36.08.5.22s.19.32.16.52ZM102.03,143.39c-.11,1.33-.3,2.18-.57,2.53-.32.41-.96.62-1.92.62h-1.65c-.78,0-1.29-.11-1.51-.32-.26-.23-.39-.75-.39-1.55v-6.1c0-.19.07-.35.2-.48.14-.13.3-.2.48-.2s.35.07.48.2c.13.14.2.3.2.48v5.91c0,.36.04.58.13.67.08.09.31.14.69.14h.97c.63,0,1.04-.11,1.2-.33.17-.22.28-.78.34-1.67,0-.18.08-.32.21-.44.13-.12.28-.17.46-.17.2,0,.36.07.5.22.14.15.2.32.18.51ZM100.89,136.78c0,.19-.07.34-.2.47-.14.13-.3.19-.48.19-.12,0-.22-.02-.31-.07-1.05-.57-2.17-1.05-3.39-1.44-.31-.1-.46-.31-.46-.63,0-.19.06-.34.2-.47s.28-.19.46-.19c.06,0,.12,0,.18.03,1.05.32,2.25.81,3.61,1.48.26.13.39.34.39.63ZM104.9,143.82c0,.19-.07.36-.22.51-.15.15-.31.23-.5.23-.35,0-.58-.17-.69-.52-.4-1.36-.99-2.76-1.76-4.2-.06-.1-.08-.21-.08-.32,0-.19.06-.35.2-.48.13-.13.29-.2.48-.2.27,0,.47.11.6.34.77,1.31,1.41,2.79,1.95,4.44.02.09.03.16.03.2Z"/>
      <path class="cls-1" d="M117.96,136.45c0,.37-.25.6-.76.67-1.41.21-2.66.8-3.75,1.74s-1.64,1.94-1.64,2.99c0,1.51,1.21,2.48,3.63,2.9.4.07.6.3.6.71,0,.22-.09.41-.26.57-.17.15-.37.21-.59.16-1.45-.28-2.55-.71-3.3-1.29-1-.77-1.5-1.75-1.5-2.94,0-1.01.34-1.92,1.02-2.74.3-.35.59-.65.88-.9s.43-.45.43-.62c0-.22-.24-.32-.71-.28-1.91.17-3.47.33-4.66.49-.21.03-.38-.03-.53-.17-.15-.14-.22-.31-.22-.52,0-.18.06-.33.17-.47.12-.13.26-.21.44-.22,1.72-.17,5.02-.42,9.9-.76.25,0,.46.05.62.17s.24.29.24.48ZM117.2,140.58c0,.15-.05.28-.16.38s-.23.16-.38.16c-.22,0-.39-.08-.49-.25-.27-.43-.56-.8-.87-1.11-.1-.1-.15-.23-.15-.38,0-.37.18-.56.55-.56.16,0,.3.07.42.21.39.44.72.85.98,1.23.07.11.11.21.11.31ZM118.91,139.78c0,.15-.05.28-.16.38s-.24.16-.38.16c-.21,0-.38-.08-.49-.25-.31-.46-.6-.83-.87-1.13-.1-.11-.15-.23-.15-.35,0-.37.19-.56.56-.56.14,0,.28.07.41.2.33.33.66.74.99,1.25.07.13.1.23.1.31Z"/>
      <path class="cls-1" d="M131.85,138.63c0,.3-.14.5-.43.6-.62.21-1.18.38-1.68.5-.3.07-.45.22-.45.43,0,.12.05.25.14.38.46.63.88,1.18,1.27,1.62.13.15.2.32.2.5,0,.21-.07.4-.22.55-.15.15-.33.23-.55.23-.11,0-.22-.02-.32-.06-1.24-.5-2.41-.74-3.5-.74-1.79,0-2.69.42-2.69,1.27s1.13,1.25,3.39,1.25c.77,0,1.65-.05,2.63-.15.19-.02.35.04.5.16s.22.28.22.47c0,.38-.2.59-.59.63-.89.09-1.82.14-2.8.14-3.15,0-4.72-.82-4.72-2.46s1.26-2.45,3.78-2.45c.59,0,1.27.09,2.06.27.08.02.14.03.2.03.19,0,.28-.07.28-.2,0-.09-.05-.2-.14-.32-.05-.07-.17-.24-.38-.52-.25-.35-.56-.52-.94-.52-.11,0-.24,0-.38.03-1.3.18-2.72.26-4.27.24-.17,0-.31-.06-.43-.18-.12-.12-.17-.27-.17-.43s.06-.32.18-.44.27-.18.43-.17c1.16.04,2.39-.01,3.71-.15.35-.04.53-.18.53-.42,0-.11-.04-.22-.11-.32-.22-.38-.55-.55-.97-.5-.8.09-1.73.14-2.77.14-.16,0-.3-.06-.43-.18-.13-.12-.19-.26-.19-.42,0-.17.06-.31.19-.43.13-.12.27-.17.43-.17.77,0,1.49-.01,2.16-.07.39-.04.59-.16.59-.38,0,0-.08-.21-.25-.62-.03-.06-.04-.14-.04-.22,0-.19.06-.35.2-.48.13-.13.29-.2.49-.2.31,0,.52.15.63.45.04.11.1.29.2.52.14.35.37.53.7.53.08,0,.17-.01.27-.04.65-.17,1.31-.37,1.96-.6.08-.03.14-.04.21-.04.18,0,.33.06.46.18.13.12.19.27.19.45,0,.32-.15.52-.45.62-.69.22-1.3.4-1.82.52-.34.08-.5.23-.5.46,0,.1.04.21.11.31l.03.04c.2.3.43.45.71.45.07,0,.15,0,.24-.03.74-.18,1.43-.39,2.07-.63.05-.02.11-.03.2-.03.18,0,.33.06.46.18.13.12.19.27.19.45Z"/>
      <path class="cls-1" d="M146.16,144.72c0,.2-.07.36-.2.5-.13.14-.3.2-.5.2-.13,0-.25-.03-.36-.1-.93-.55-1.76-.97-2.49-1.25-.09-.04-.18-.06-.25-.06-.27,0-.43.19-.48.56-.08.56-.26.98-.56,1.25-.47.42-1.3.63-2.51.63-.77,0-1.4-.14-1.9-.43-.62-.36-.92-.91-.92-1.62,0-.81.39-1.41,1.16-1.78.58-.28,1.33-.42,2.24-.42.1,0,.26,0,.48.01.49.02.73-.19.73-.62v-.39c0-.47-.24-.7-.71-.69-.99.03-1.94.04-2.86.03-.17,0-.31-.06-.43-.19-.12-.13-.18-.27-.18-.44s.06-.31.19-.43c.13-.12.27-.17.44-.17.91.02,1.86.02,2.84,0,.46,0,.69-.25.69-.71v-.06c0-.48-.24-.7-.73-.69-1.13.05-2.2.06-3.21.03-.17,0-.31-.08-.43-.2-.12-.13-.18-.27-.18-.44,0-.18.07-.33.2-.45.13-.12.28-.18.46-.17,1.04.03,2.11.03,3.19,0,.46,0,.69-.23.69-.67,0-.04,0-.25-.01-.63,0-.19.06-.35.2-.48.13-.13.29-.2.48-.2s.34.07.48.2c.13.14.2.3.2.48v.48c0,.5.24.72.73.67.72-.08,1.5-.17,2.35-.29.19-.03.35.02.5.15.14.13.22.28.22.47,0,.36-.18.56-.55.6-1.01.13-1.86.23-2.56.29-.45.05-.67.29-.67.73v.04c0,.5.24.72.73.67.49-.05,1.18-.13,2.06-.27.19-.03.35.02.5.15.15.13.22.28.22.47,0,.36-.18.57-.53.62-.75.1-1.52.19-2.31.27-.45.04-.67.28-.67.73v.63c0,.51.26.85.77,1.02.95.31,1.99.76,3.12,1.36.24.13.36.34.36.62ZM140.54,144.17c.06-.47-.12-.72-.56-.76-.21-.02-.41-.03-.6-.03-1.34,0-2.02.32-2.02.97,0,.26.13.47.39.63.26.16.59.24,1.01.24.62,0,1.06-.07,1.32-.22.25-.14.41-.42.46-.83Z"/>
      <path class="cls-1" d="M160.23,142.63c0,.13-.04.26-.11.38-.63,1.04-1.4,1.86-2.28,2.48-1,.68-2.06,1.02-3.18,1.02-2.46,0-3.68-1.11-3.68-3.33,0-.9.02-2.09.06-3.57.03-1.19.05-2.49.07-3.89,0-.2.07-.37.22-.51s.32-.22.52-.22c.21,0,.38.08.53.22.15.15.22.33.21.53l-.17,7.13c0,1.47.77,2.2,2.32,2.2.83,0,1.63-.29,2.39-.88.65-.49,1.23-1.13,1.72-1.95.14-.23.35-.35.63-.35.21,0,.38.07.52.22.15.14.22.32.22.52Z"/>
      <path class="cls-1" d="M170.4,137.93c-.68.13-1.37.24-2.07.32-.38.05-.66.14-.83.29s-.3.41-.38.77c-.52,2.21-1.17,4.33-1.95,6.37-.12.31-.35.46-.69.46-.21,0-.38-.07-.52-.22-.14-.14-.21-.31-.21-.51,0-.09.02-.19.06-.28.79-1.88,1.44-3.86,1.95-5.96.02-.07.03-.14.03-.21,0-.33-.2-.48-.59-.48-.39,0-.75,0-1.08,0-.19,0-.35-.08-.48-.22-.14-.14-.2-.3-.2-.48,0-.2.07-.36.22-.5.15-.14.32-.21.51-.2.53.02.96.02,1.29.01.52-.02.82-.28.9-.77.03-.21.08-.51.14-.92.06-.41.3-.61.71-.61.2,0,.36.07.5.21s.21.3.21.49c0,.09-.04.33-.11.7,0,.07-.01.13-.01.18,0,.37.21.53.62.46.06,0,.38-.08.98-.2.45-.08.76-.13.92-.13.2,0,.36.07.48.21s.19.31.19.5c0,.38-.19.61-.57.69ZM174.83,145.29c0,.4-.2.63-.59.69-.89.13-1.82.2-2.8.2-2.48,0-3.72-.69-3.72-2.09,0-.32.08-.68.24-1.09.11-.28.32-.42.63-.42.44,0,.66.22.66.67,0,.08-.01.18-.04.32-.03.13-.04.24-.04.31,0,.63.8.95,2.39.95.7,0,1.53-.07,2.49-.21.21-.03.39.03.55.16.16.14.24.31.24.51ZM174.44,140.08c0,.2-.07.36-.22.5-.15.14-.32.21-.52.2-1.39-.07-2.88-.04-4.47.1-.2.02-.37-.04-.51-.17-.14-.13-.22-.3-.22-.5,0-.18.06-.33.17-.46.12-.13.26-.2.43-.22,1.58-.16,3.13-.21,4.65-.17.19,0,.35.08.48.22.14.14.2.3.2.49Z"/>
      <path class="cls-1" d="M180.96,145c0,.57-.2,1.05-.6,1.45s-.89.59-1.46.59-1.05-.2-1.45-.59c-.4-.4-.59-.88-.59-1.45s.2-1.05.59-1.46c.4-.4.88-.6,1.45-.6s1.05.2,1.46.6.6.89.6,1.46ZM179.97,145c0-.3-.1-.55-.31-.76s-.46-.31-.76-.31-.54.1-.74.31-.31.46-.31.75.1.53.31.74c.21.2.45.3.74.3s.55-.1.76-.29.31-.44.31-.74Z"/>
      <path class="cls-1" d="M34.59,155.55c0,.17-.06.32-.18.44s-.27.19-.43.19h-3.95c-.36,0-.55.12-.55.36,0,.11.04.23.13.36,1.25,1.89,2.8,3.6,4.66,5.14.16.13.24.29.24.49,0,.18-.06.33-.19.46s-.28.2-.46.2c-.16,0-.3-.06-.43-.17-1.52-1.35-2.79-2.69-3.79-4.02-.11-.15-.22-.22-.34-.22-.17,0-.25.14-.25.42v4.93c0,.18-.06.33-.19.46s-.27.19-.44.19-.31-.06-.44-.19c-.13-.13-.19-.28-.19-.46v-4.91c0-.28-.08-.42-.25-.42-.11,0-.22.08-.34.24-1.05,1.39-2.29,2.72-3.72,3.98-.13.11-.28.17-.43.17-.18,0-.33-.06-.46-.19s-.19-.28-.19-.46c0-.21.08-.37.24-.5,1.79-1.47,3.33-3.17,4.61-5.1.08-.13.13-.25.13-.36,0-.26-.18-.39-.55-.39h-3.88c-.17,0-.31-.06-.43-.19-.12-.13-.18-.27-.18-.44s.06-.31.18-.43c.12-.12.27-.18.43-.18h4.21c.42,0,.63-.21.63-.63v-1.2c0-.18.06-.33.18-.45s.27-.18.45-.18.33.06.45.18.18.27.18.45v1.2c0,.42.21.63.63.63h4.3c.17,0,.31.06.43.18s.18.27.18.43Z"/>
      <path class="cls-1" d="M43.53,158.16c0,.16-.06.29-.18.41-.12.11-.25.17-.41.17h-6.12c-.16,0-.29-.06-.41-.17-.11-.11-.17-.25-.17-.41s.06-.29.17-.41c.11-.11.25-.17.41-.17h.69c.35,0,.52-.14.52-.43,0-.14-.11-.59-.32-1.34-.11-.39-.34-.59-.67-.59-.16,0-.29-.06-.41-.17-.11-.11-.17-.25-.17-.41s.06-.29.17-.4c.11-.11.25-.16.41-.16h1.68c.37,0,.56-.19.56-.56v-.31c0-.18.06-.33.18-.46s.28-.19.46-.19.33.06.46.19.19.28.19.46v.31c0,.37.19.56.56.56h1.69c.37,0,.56.19.56.56,0,.16-.05.29-.16.41-.11.11-.24.17-.4.17-.26,0-.47.23-.63.7-.09.35-.18.69-.27,1.04-.02.08-.03.14-.03.2,0,.29.17.43.5.43h.55c.16,0,.3.06.41.17s.18.25.18.41ZM42.73,163.22c0,.75-.37,1.12-1.12,1.12h-3.23c-.75,0-1.12-.37-1.12-1.12v-2.38c0-.75.37-1.12,1.12-1.12h3.23c.75,0,1.12.37,1.12,1.12v2.38ZM41.49,162.65v-1.26c0-.36-.18-.53-.53-.53h-1.89c-.35,0-.53.18-.53.53v1.26c0,.35.18.53.53.53h1.89c.35,0,.53-.18.53-.53ZM41.03,155.84c.02-.06.03-.13.03-.18,0-.3-.17-.45-.52-.45h-1.13c-.34,0-.5.15-.5.43,0,.06,0,.12.03.2.06.25.16.63.28,1.12.09.41.34.62.74.62.37,0,.64-.21.81-.63,0-.02.1-.39.27-1.11ZM48.75,160.86c0,1.33-.77,2.07-2.32,2.24-.19.02-.35-.04-.5-.17-.15-.13-.22-.29-.22-.48,0-.37.17-.58.52-.63.8-.09,1.2-.45,1.2-1.06,0-.52-.32-1.39-.97-2.6-.11-.21-.17-.42-.17-.6,0-.14.02-.28.07-.43l.76-2.35c.03-.09.04-.17.04-.24,0-.21-.15-.32-.45-.32h-.94c-.37,0-.56.19-.56.57v9.49c0,.17-.06.31-.18.43-.12.12-.27.18-.43.18-.18,0-.33-.06-.45-.18s-.18-.27-.18-.43v-10.09c0-.76.39-1.15,1.16-1.15h2.41c.72,0,1.08.29,1.08.88,0,.16-.03.33-.1.52l-.85,2.42c-.07.22-.11.41-.11.56,0,.22.09.49.28.8.62,1,.92,1.88.92,2.65Z"/>
      <path class="cls-1" d="M62.94,158.45c0,.17-.06.31-.18.43-.12.12-.27.17-.43.17h-2.97c-.42,0-.63.21-.63.63v3.09c0,.36.1.56.31.6.05,0,.15.01.32.01h.88c.52,0,.85-.13.98-.38.07-.15.13-.54.15-1.16,0-.17.07-.31.2-.43.12-.12.27-.18.45-.18s.33.07.46.2c.13.13.19.28.18.46-.03,1.12-.19,1.85-.5,2.21-.3.35-.93.52-1.87.52h-1.5c-.56,0-.93-.09-1.12-.27-.19-.18-.28-.55-.28-1.11v-3.56c0-.42-.21-.63-.63-.63h-.53c-.4,0-.62.21-.64.62-.16,2.34-1.3,4.04-3.42,5.08-.09.05-.2.07-.32.07-.18,0-.34-.07-.48-.2-.14-.13-.21-.29-.21-.48,0-.29.13-.5.38-.62.89-.44,1.54-.95,1.97-1.55s.68-1.36.76-2.29c.04-.43-.17-.64-.62-.64h-2.49c-.17,0-.31-.06-.43-.17-.12-.12-.18-.26-.18-.43s.06-.31.18-.43c.12-.12.27-.18.43-.18h4.4c.42,0,.63-.21.63-.63v-.84c0-.42-.21-.63-.63-.63h-1.89c-.5,0-.91.19-1.2.57l-.35.45c-.11.15-.28.22-.49.22-.18,0-.33-.06-.45-.19-.12-.13-.18-.28-.18-.46,0-.17.06-.31.17-.43.7-.78,1.3-1.66,1.79-2.63.11-.22.3-.34.57-.34.19,0,.34.06.46.19.12.13.18.28.18.46,0,.08-.03.18-.08.3-.05.12-.08.21-.08.29,0,.23.17.35.5.35h1.04c.42,0,.63-.21.63-.63v-.74c0-.18.06-.33.19-.46.13-.13.28-.19.45-.19s.33.06.46.19.19.28.19.46v.74c0,.42.21.63.63.63h3.23c.17,0,.31.06.43.18.12.12.18.26.18.42,0,.17-.06.31-.18.43-.12.12-.27.18-.43.18h-3.23c-.42,0-.63.21-.63.63v.84c0,.42.21.63.63.63h4.21c.17,0,.31.06.43.18.12.12.18.27.18.43Z"/>
      <path class="cls-1" d="M77.08,163.7c0,.18-.06.33-.19.46s-.28.19-.46.19h-11.12c-.18,0-.33-.06-.45-.19-.12-.13-.18-.28-.18-.46s.06-.33.19-.46.27-.19.44-.19h4.33c.42,0,.63-.21.63-.63v-1.65c0-.42-.21-.63-.63-.63h-2.93c-.17,0-.31-.06-.43-.18-.12-.12-.18-.26-.18-.43s.06-.31.18-.43.26-.17.43-.17h2.93c.42,0,.63-.21.63-.63v-1.27c0-.42-.21-.63-.63-.63h-1.92c-.55,0-.97.23-1.26.7-.12.2-.31.48-.57.85-.13.19-.31.28-.53.28-.18,0-.33-.07-.46-.2-.13-.13-.2-.28-.2-.46,0-.16.04-.29.13-.41.92-1.26,1.64-2.54,2.14-3.84.1-.26.3-.39.6-.39.19,0,.34.07.47.2s.19.28.19.46c0,.1-.1.37-.29.81-.05.11-.07.22-.07.32,0,.28.18.42.55.42h1.23c.42,0,.63-.21.63-.63v-1.26c0-.19.07-.35.2-.48s.3-.2.48-.2.35.07.48.2c.13.14.2.3.2.48v1.26c0,.42.21.63.63.63h3.65c.18,0,.33.06.45.18.12.12.18.27.18.43,0,.18-.06.33-.18.45-.12.12-.27.18-.45.18h-3.65c-.42,0-.63.21-.63.63v1.27c0,.42.21.63.63.63h2.88c.17,0,.31.06.43.17.12.12.18.26.18.43s-.06.31-.18.43c-.12.12-.26.18-.43.18h-2.88c-.42,0-.63.21-.63.63v1.65c0,.42.21.63.63.63h4.17c.18,0,.33.06.46.19s.19.28.19.46Z"/>
      <path class="cls-1" d="M90.32,157.76c0,.28-.13.48-.39.59-.63.26-1.21.53-1.76.8-.38.19-.62.38-.71.59-.07.15-.1.45-.1.9v.9c0,.19-.07.34-.2.47-.13.13-.29.19-.48.19s-.34-.06-.47-.19-.19-.28-.19-.47v-.53c0-.33-.12-.49-.36-.49-.1,0-.21.04-.34.11-1.13.7-1.69,1.3-1.69,1.81,0,.29.19.5.57.62.38.13,1.04.19,1.96.19.73,0,1.69-.08,2.9-.24.2-.03.37.02.51.15.15.13.22.29.22.49,0,.17-.06.31-.17.44-.11.13-.25.2-.42.22-1.06.12-2.11.18-3.14.18s-1.88-.09-2.45-.27c-.95-.31-1.43-.87-1.43-1.69,0-.95,1.03-2.04,3.09-3.26.34-.2.5-.39.5-.59,0-.24-.2-.36-.59-.36-.54,0-1.23.26-2.06.77-.67.42-1.27.89-1.78,1.4l-.36.43c-.15.14-.31.21-.49.21-.19,0-.34-.06-.47-.19s-.19-.28-.19-.47c0-.17.05-.31.15-.43.97-1.17,1.78-2.33,2.44-3.5.07-.11.1-.22.1-.32,0-.24-.17-.36-.52-.35-.31,0-.76.01-1.36.01-.17,0-.31-.06-.43-.18s-.17-.27-.17-.43c0-.18.06-.33.19-.45.13-.12.27-.18.44-.17.58.02,1.22.02,1.92,0,.55,0,.92-.27,1.12-.77l.28-.73c.11-.29.32-.43.63-.43.19,0,.34.07.47.2s.19.29.19.46c0,.08-.01.16-.04.24-.05.11-.07.18-.08.21-.04.1-.06.2-.06.28,0,.27.17.39.5.35.35-.04,1.03-.13,2.02-.28.19-.03.35.02.5.15.15.13.22.28.22.47,0,.37-.19.58-.56.63-.93.12-1.77.21-2.51.27-.41.04-.72.12-.93.26-.21.13-.41.38-.59.72-.02.03-.07.1-.14.22-.1.18-.15.32-.15.43,0,.14.08.21.25.21.1,0,.24-.03.41-.1.49-.19.95-.28,1.36-.28.56,0,.99.19,1.29.56.21.25.4.38.59.38.1,0,.21-.03.34-.08l1.69-.83c.09-.05.19-.07.28-.07.18,0,.33.06.46.19s.19.28.19.47Z"/>
      <path class="cls-1" d="M98.99,161.43c-.82,1.61-1.61,2.42-2.37,2.42-.93,0-1.66-.83-2.17-2.49-.4-1.29-.6-2.75-.6-4.38,0-.84.03-1.56.08-2.17.02-.2.1-.36.23-.49s.3-.2.5-.2c.21,0,.39.08.54.25.14.16.21.35.19.57-.07.62-.1,1.35-.1,2.17,0,1.07.12,2.14.35,3.19.26,1.17.61,1.75,1.04,1.75.31,0,.66-.42,1.05-1.26.12-.25.33-.38.63-.38.2,0,.36.07.5.2s.2.3.2.5c0,.12-.02.23-.07.32ZM105.05,161c.03.22-.03.42-.18.6-.15.18-.34.27-.57.27-.2,0-.37-.07-.52-.2-.15-.13-.23-.29-.25-.48-.23-2.12-.92-4-2.06-5.66-.08-.12-.13-.26-.13-.41,0-.21.07-.38.21-.52.14-.14.31-.21.52-.21.25,0,.45.1.6.31,1.29,1.79,2.08,3.89,2.38,6.29Z"/>
      <path class="cls-1" d="M118.56,160.63c0,.13-.04.26-.11.38-.63,1.04-1.4,1.86-2.28,2.48-1,.68-2.06,1.02-3.18,1.02-2.46,0-3.68-1.11-3.68-3.33,0-.9.02-2.09.06-3.57.03-1.19.05-2.49.07-3.89,0-.2.07-.37.22-.51s.32-.22.52-.22c.21,0,.38.08.53.22.15.15.22.33.21.53l-.17,7.13c0,1.47.77,2.2,2.32,2.2.83,0,1.63-.29,2.39-.88.65-.49,1.23-1.13,1.72-1.95.14-.23.35-.35.63-.35.21,0,.38.07.52.22.15.14.22.32.22.52ZM116.28,155.92c0,.15-.05.28-.16.38-.11.11-.24.16-.38.16-.22,0-.39-.08-.49-.25-.27-.43-.56-.8-.87-1.11-.1-.1-.15-.23-.15-.38,0-.37.18-.56.55-.56.16,0,.3.07.42.21.39.44.72.85.98,1.23.08.11.11.21.11.31ZM117.98,155.12c0,.15-.05.28-.16.38s-.24.16-.38.16c-.21,0-.38-.08-.49-.25-.31-.46-.6-.83-.87-1.13-.1-.11-.15-.23-.15-.35,0-.37.19-.56.56-.56.14,0,.28.07.41.2.33.33.66.74.99,1.25.06.13.1.23.1.31Z"/>
      <path class="cls-1" d="M132.67,160.67c0,1.33-.55,2.33-1.65,2.98-.88.52-1.95.78-3.21.78-1.09,0-1.95-.17-2.58-.53-.63-.35-.94-.82-.94-1.41s.22-1,.66-1.32c.39-.29.88-.43,1.46-.43.78,0,1.45.24,1.99.73.28.25.5.53.67.84s.36.46.59.46c.13,0,.28-.05.45-.14.77-.41,1.15-1.04,1.15-1.89,0-.63-.23-1.13-.69-1.48s-1.08-.53-1.85-.52c-1.98.03-3.75.67-5.31,1.92-.23.19-.42.28-.56.28-.18,0-.33-.06-.46-.19-.13-.13-.2-.28-.2-.47,0-.21.08-.37.24-.5,1.38-1.17,3.11-2.65,5.19-4.44.17-.15.25-.29.25-.41,0-.2-.18-.28-.53-.25-.63.05-1.68.12-3.16.21-.19,0-.35-.05-.49-.18s-.21-.29-.21-.48.06-.34.19-.48.28-.2.47-.2c1.77,0,3.65-.1,5.63-.28.29-.03.52.03.7.18.18.14.27.33.27.57s-.13.47-.38.67c-.95.77-1.96,1.6-3.04,2.51-.15.12-.22.24-.22.35,0,.14.1.21.31.21.07,0,.13,0,.21-.03.5-.1.98-.15,1.41-.15,1.06,0,1.92.24,2.58.73.73.54,1.09,1.33,1.09,2.35ZM127.24,163.24c.35.03.53-.11.53-.42,0-.15-.07-.29-.2-.43-.32-.35-.72-.53-1.22-.53s-.77.18-.77.55c0,.33.28.56.83.71.22.06.5.1.83.13Z"/>
      <path class="cls-1" d="M139.45,162.03c0,.75-.37,1.12-1.12,1.12h-1.44c-.75,0-1.12-.37-1.12-1.12v-7.88c0-.75.37-1.12,1.12-1.12h1.44c.75,0,1.12.37,1.12,1.12v7.88ZM138.26,156.96v-2.23c0-.34-.17-.5-.5-.5h-.22c-.34,0-.5.17-.5.5v2.23c0,.33.16.49.49.49h.25c.33,0,.49-.16.49-.49ZM138.26,161.47v-2.37c0-.33-.16-.49-.49-.49h-.25c-.33,0-.49.16-.49.49v2.37c0,.33.17.49.5.49h.22c.34,0,.5-.16.5-.49ZM148.04,157.05c0,.16-.06.3-.17.41-.11.12-.25.17-.41.17h-.71c-.37,0-.56.19-.56.56v.2c0,.37.19.56.56.56h.55c.16,0,.29.06.41.17.11.12.17.25.17.41s-.06.29-.17.41c-.11.11-.25.17-.41.17h-.55c-.37,0-.56.19-.56.56v2.49c0,.59-.11.99-.34,1.22-.22.22-.62.34-1.19.34h-1.2c-.17,0-.31-.06-.42-.17-.11-.12-.17-.26-.17-.43s.06-.31.17-.43c.11-.12.25-.17.42-.17h.77c.27,0,.46-.05.55-.15.1-.1.15-.28.15-.55v-2.14c0-.37-.19-.56-.56-.56h-3.98c-.16,0-.29-.06-.41-.17-.11-.11-.17-.25-.17-.41s.06-.3.17-.41c.11-.12.25-.17.41-.17h3.96c.37,0,.56-.19.56-.56v-.2c0-.37-.19-.56-.56-.56h-4.1c-.16,0-.29-.06-.41-.17-.11-.12-.17-.25-.17-.41s.06-.29.17-.41c.11-.11.25-.17.41-.17h2.28c.37,0,.56-.19.56-.56v-.31c0-.37-.19-.56-.56-.56h-1.88c-.16,0-.29-.06-.41-.17-.11-.11-.17-.25-.17-.41s.06-.3.17-.41c.11-.12.25-.18.41-.18h1.88c.37,0,.56-.19.56-.56v-.21c0-.18.06-.33.18-.46s.27-.19.45-.19c.17,0,.31.06.43.19.12.13.18.28.18.46v.21c0,.37.19.56.56.56h2.06c.16,0,.29.06.41.18.11.12.17.25.17.41s-.06.29-.17.41c-.11.11-.25.17-.41.17h-2.06c-.37,0-.56.19-.56.56v.31c0,.37.19.56.56.56h2.56c.16,0,.29.06.41.17s.17.25.17.41ZM143,162.16c0,.18-.06.33-.18.46s-.27.19-.45.19c-.23,0-.41-.1-.53-.29-.21-.33-.45-.69-.74-1.08-.09-.12-.14-.25-.14-.39,0-.17.06-.31.18-.43s.27-.18.45-.18c.19,0,.34.08.48.24.37.47.65.84.83,1.13.07.12.11.24.11.36Z"/>
      <path class="cls-1" d="M161.38,158.77c0,2.85-1.44,4.59-4.33,5.22-.03,0-.08.01-.15.01-.19,0-.35-.06-.48-.2-.13-.13-.2-.29-.2-.49,0-.37.17-.6.5-.69,2.16-.54,3.23-1.84,3.23-3.89,0-1.07-.29-1.93-.87-2.58-.21-.24-.48-.46-.8-.64-.36-.21-.69-.31-.98-.31-.4,0-.64.23-.73.7-.35,2.04-.77,3.67-1.26,4.91-.31.78-.61,1.37-.91,1.76-.48.61-1.03.91-1.67.91-.85,0-1.53-.42-2.04-1.27-.45-.73-.67-1.54-.67-2.44,0-1.74.58-3.17,1.73-4.31,1.15-1.14,2.6-1.71,4.33-1.71,1.63,0,2.91.42,3.84,1.26.97.88,1.46,2.12,1.46,3.74ZM155.15,155.96c0-.07.01-.13.01-.2,0-.34-.16-.52-.48-.52-.11,0-.23.02-.36.07-.86.3-1.56.86-2.1,1.67-.54.82-.81,1.75-.81,2.81,0,.58.14,1.09.41,1.53s.57.67.91.67c.4,0,.83-.56,1.29-1.69.38-.95.76-2.4,1.13-4.34Z"/>
      <path class="cls-1" d="M167.82,162.87c0,.16-.06.3-.18.41-.12.12-.26.17-.43.17s-.3-.05-.41-.15c-.06-.08-.19-.23-.39-.46-.1-.11-.21-.17-.31-.17-.11,0-.21.07-.29.21-.25.44-.68.99-1.27,1.65-.12.14-.28.21-.48.21s-.34-.06-.47-.19-.19-.28-.19-.46.07-.32.2-.45c.54-.54,1.02-1.14,1.43-1.81.06-.09.08-.18.08-.27,0-.11-.05-.22-.14-.32-.18-.2-.42-.45-.72-.75-.3-.3-.46-.63-.46-.99,0-.13.02-.28.07-.45.1-.38.31-1.25.63-2.6,0-.05.01-.09.01-.13,0-.23-.13-.35-.39-.35h-.21c-.17,0-.31-.06-.43-.17-.12-.12-.18-.26-.18-.43,0-.16.06-.3.18-.41.12-.12.26-.17.43-.17h.53c.25,0,.41-.13.46-.38.06-.3.14-.79.22-1.47.05-.34.24-.52.59-.52.19,0,.34.07.46.2.12.13.17.29.15.46-.03.23-.08.64-.17,1.23-.06.32.07.48.38.48h.31c.62,0,.9.29.85.87-.18,2.34-.5,4.13-.95,5.36-.08.22-.05.42.11.57.3.3.57.58.8.84.11.12.17.26.17.42ZM166.56,156.48c.02-.32-.08-.48-.29-.48h-.17c-.25,0-.41.12-.46.36-.13.56-.33,1.44-.6,2.65-.08.39-.04.69.14.88l.17.18c.09.09.19.14.28.14.15,0,.26-.09.32-.27.34-.92.55-2.07.62-3.47ZM176.29,160.49c0,.14-.05.26-.15.36-.1.1-.22.15-.36.15h-7.7c-.14,0-.26-.05-.36-.15-.1-.1-.15-.22-.15-.36s.05-.26.15-.36c.1-.1.22-.15.36-.15h1.15c.27,0,.41-.09.41-.27,0-.04,0-.07-.03-.11l-.03-.06c-.1-.21-.27-.31-.5-.31-.53,0-.8-.29-.8-.88v-.87c0-.58.29-.87.87-.87h5.54c.59,0,.88.29.88.87v.87c0,.59-.26.88-.78.88-.26,0-.43.1-.52.31-.03.06-.04.11-.04.17,0,.18.13.27.39.27h1.16c.14,0,.26.05.36.15.1.1.15.22.15.36ZM176.31,153.84c0,.14-.05.26-.16.36s-.23.15-.37.15h-2.86c-.28,0-.42.12-.42.36s.14.36.42.36h2.41c.13,0,.25.05.34.15.1.1.15.21.15.34,0,.34-.16.5-.49.5h-6.75c-.14,0-.26-.05-.36-.15-.1-.1-.15-.22-.15-.36,0-.13.05-.25.15-.34s.22-.15.36-.15h2.2c.28,0,.42-.12.42-.36s-.14-.36-.42-.36h-2.58c-.14,0-.26-.05-.36-.15s-.15-.22-.15-.36c0-.15.05-.27.15-.38.1-.1.22-.15.36-.15h2.58c.28,0,.42-.11.42-.32,0-.17.06-.31.2-.42s.29-.17.46-.17.33.06.46.17.19.25.19.42c0,.21.14.32.42.32h2.86c.14,0,.26.05.37.16.11.11.16.23.16.37ZM175.55,163.49c0,.72-.36,1.08-1.09,1.08h-4.94c-.73,0-1.09-.36-1.09-1.08v-.84c0-.73.36-1.09,1.09-1.09h4.94c.73,0,1.09.36,1.09,1.09v.84ZM174.35,157.97v-.1c0-.24-.13-.36-.39-.36h-4.09c-.25,0-.38.12-.38.36v.1c0,.24.13.36.38.36h4.09c.26,0,.39-.12.39-.36ZM174.32,163.2v-.31c0-.24-.12-.36-.36-.36h-3.95c-.24,0-.36.12-.36.36v.31c0,.24.12.36.36.36h3.95c.24,0,.36-.12.36-.36ZM172.99,159.6s.03-.09.03-.13c0-.16-.13-.24-.39-.24h-1.4c-.27,0-.41.08-.41.25,0,.04,0,.07.03.11l.03.06c.08.21.24.32.48.32h1.11c.25,0,.42-.1.5-.31l.03-.07Z"/>
      <path class="cls-1" d="M189.26,160.63c0,.13-.04.26-.11.38-.63,1.04-1.4,1.86-2.28,2.48-1,.68-2.06,1.02-3.18,1.02-2.46,0-3.68-1.11-3.68-3.33,0-.9.02-2.09.06-3.57.03-1.19.05-2.49.07-3.89,0-.2.07-.37.22-.51s.32-.22.52-.22c.21,0,.38.08.53.22.15.15.22.33.21.53l-.17,7.13c0,1.47.77,2.2,2.32,2.2.83,0,1.63-.29,2.39-.88.65-.49,1.23-1.13,1.72-1.95.14-.23.35-.35.63-.35.21,0,.38.07.52.22.15.14.22.32.22.52Z"/>
      <path class="cls-1" d="M38.68,175.53c0,.18-.06.33-.18.46-.12.13-.27.19-.45.19-.35,0-.88.03-1.58.08-.96.13-1.83.43-2.6.9-.99.59-1.48,1.3-1.48,2.13,0,1.03,1.04,1.7,3.12,2.03.17.03.31.11.42.24.11.13.17.28.17.45,0,.21-.08.38-.24.51-.16.14-.34.19-.55.16-2.92-.43-4.38-1.48-4.38-3.16,0-.73.28-1.4.83-2.03.21-.23.31-.42.31-.55s-.12-.2-.36-.2c-.07,0-.15,0-.24.01-.88.11-2.1.3-3.67.56-.21.04-.39-.01-.55-.15s-.24-.31-.24-.51c0-.17.06-.32.17-.45.11-.13.25-.21.42-.22.1,0,.88-.11,2.32-.29.92-.11,1.62-.41,2.1-.88,1.13-1.12,2.23-2.34,3.3-3.67.14-.18.32-.27.53-.27.2,0,.36.07.5.2.14.13.2.3.2.48,0,.16-.07.31-.2.46-.65.76-1.41,1.58-2.28,2.48-.15.15-.22.29-.22.42,0,.23.19.33.56.29.76-.07,1.95-.17,3.58-.32.19-.02.35.04.48.17.13.13.2.29.2.48ZM31.35,173.33c0,.2-.07.36-.21.5-.14.14-.31.2-.5.2-.28,0-.49-.12-.62-.35-.27-.46-.61-.95-1.02-1.48-.09-.12-.14-.25-.14-.39,0-.19.07-.35.2-.48.14-.14.3-.2.5-.2.22,0,.41.09.55.27.5.62.89,1.14,1.15,1.58.07.11.1.23.1.36Z"/>
      <path class="cls-1" d="M51.4,177.12c0,1.44-.61,2.66-1.82,3.65-.97.81-2.24,1.42-3.81,1.83-.08.02-.13.03-.17.03-.19,0-.35-.07-.48-.2-.14-.14-.2-.3-.2-.5,0-.35.16-.56.49-.66,1.2-.35,2.19-.81,2.95-1.4,1.03-.77,1.54-1.68,1.54-2.72,0-1.25-.63-1.88-1.89-1.88s-2.88.33-4.77.99c-.08.03-.16.04-.22.04-.19,0-.35-.07-.49-.21-.14-.14-.21-.31-.21-.5,0-.35.17-.57.5-.67,2.19-.66,3.95-.99,5.26-.99,1.05,0,1.85.27,2.42.8.6.56.9,1.35.9,2.38ZM49.77,172.22c0,.21-.07.38-.22.51-.15.13-.32.19-.52.17-1.89-.17-3.39-.4-4.48-.7-.35-.09-.52-.32-.52-.67,0-.2.07-.36.2-.5.14-.13.3-.2.5-.2.06,0,.12,0,.18.03,1.24.34,2.65.56,4.21.67.18,0,.33.08.46.22.13.14.19.29.19.47Z"/>
      <path class="cls-1" d="M61.57,173.89c-.48.1-.94.19-1.39.25-.52.08-.87.37-1.05.87-.65,1.88-1.4,3.66-2.23,5.35-.13.27-.35.41-.64.41-.2,0-.36-.07-.5-.21-.14-.14-.21-.31-.21-.5,0-.11.03-.22.08-.34.78-1.51,1.46-3.04,2.03-4.59.04-.1.06-.19.06-.27,0-.29-.2-.43-.59-.43h-.8c-.19,0-.35-.07-.48-.2-.13-.13-.2-.3-.2-.48,0-.2.07-.36.21-.5.14-.14.31-.2.5-.19.41.02.79.02,1.15.01.57,0,.92-.29,1.06-.85.07-.32.15-.63.24-.95.14-.35.37-.53.69-.53.2,0,.36.07.5.21.14.14.21.3.21.49,0,.08-.05.28-.14.6-.03.11-.04.21-.04.29,0,.28.13.42.38.42.05,0,.1,0,.15-.01l.73-.15c.08-.02.14-.03.17-.03.19,0,.34.07.46.2.12.14.17.3.17.5,0,.35-.18.57-.53.64ZM66.88,180.82c0,.19-.07.35-.2.49-.14.14-.3.21-.5.21-.12,0-.25-.04-.38-.13-.31-.21-.63-.4-.98-.59-.11-.06-.21-.1-.31-.1-.22,0-.38.16-.48.49-.27.94-1.1,1.41-2.49,1.41-.74,0-1.35-.16-1.85-.48-.59-.36-.88-.9-.88-1.6s.28-1.22.83-1.58c.48-.32,1.08-.48,1.81-.48.21,0,.44.02.7.06.21.03.38,0,.5-.1.12-.09.17-.25.17-.48v-2.04c-.01-.19.05-.35.18-.48.13-.14.29-.2.48-.2s.35.07.48.2c.13.13.2.29.2.48v2.35c.01.51.27.89.78,1.12.45.21.98.49,1.6.85.23.14.35.34.35.59ZM62.81,180.42c0-.39-.22-.62-.67-.7-.27-.05-.51-.07-.71-.07-.85,0-1.27.3-1.27.9,0,.27.11.48.34.64.23.15.53.23.89.23.65,0,1.08-.16,1.27-.48.1-.17.15-.34.15-.52ZM67.01,174.57c0,.19-.07.35-.2.48-.14.13-.3.2-.48.2-.13,0-.26-.04-.38-.13-.71-.48-1.46-.88-2.25-1.22-.26-.11-.39-.32-.39-.62,0-.19.07-.34.2-.48s.29-.2.47-.2c.1,0,.19.02.25.06.88.37,1.7.81,2.46,1.3.21.14.32.34.32.59Z"/>
      <path class="cls-1" d="M75.52,174.95c0,.15-.05.28-.16.38s-.24.16-.38.16h-3.43c-.37,0-.56.19-.56.56v1.67c0,1.86-.3,3.4-.91,4.62-.12.24-.32.36-.59.36-.18,0-.33-.06-.46-.19s-.2-.28-.2-.47c0-.09.03-.19.08-.29.58-1.1.87-2.51.87-4.23v-1.5c0-.29-.18-.49-.55-.59-.22-.07-.34-.23-.34-.49,0-.15.05-.28.15-.38.1-.1.23-.15.38-.15h.57c.3,0,.45-.12.45-.36,0-.12-.08-.43-.25-.94-.08-.26-.27-.39-.56-.39h-.04c-.12,0-.23-.05-.32-.16s-.14-.24-.14-.4c0-.15.05-.28.15-.38s.23-.16.38-.16h1.48c.37,0,.56-.18.56-.53,0-.18.06-.33.19-.45.13-.12.27-.18.44-.18s.31.06.44.18c.13.12.19.27.19.45,0,.36.19.53.56.53h1.2c.15,0,.28.05.39.16.11.11.16.24.16.38s-.05.28-.15.39c-.1.11-.2.17-.31.17-.2,0-.35.14-.46.43-.07.23-.13.47-.2.7-.03.07-.04.14-.04.21,0,.23.14.35.43.35h.42c.15,0,.28.05.38.16s.16.23.16.37ZM75.56,179.91c0,.16-.05.29-.15.39-1.05,1.03-2.29,1.8-3.72,2.32-.07.03-.15.04-.21.04-.16,0-.3-.06-.43-.18-.13-.12-.19-.27-.19-.45,0-.3.14-.49.43-.59,1.27-.41,2.39-1.06,3.37-1.95.1-.09.22-.14.36-.14.15,0,.27.05.38.16.1.11.15.24.15.38ZM74.33,176.06c0,.17-.06.3-.18.41-.7.57-1.46,1-2.27,1.29-.07.03-.14.04-.2.04-.15,0-.28-.05-.39-.15-.11-.1-.17-.23-.17-.39,0-.25.12-.42.36-.52.82-.31,1.49-.67,2.02-1.08.08-.07.19-.1.32-.1.34,0,.5.17.5.5ZM74.96,177.89c0,.16-.06.29-.18.39-.81.72-1.75,1.3-2.81,1.74-.07.03-.14.04-.21.04-.17,0-.31-.05-.42-.16-.11-.11-.17-.25-.17-.41,0-.26.12-.44.36-.53,1.03-.39,1.87-.88,2.53-1.47.1-.09.22-.14.36-.14.15,0,.27.05.38.16.1.11.15.24.15.39ZM73.15,173.27c.02-.06.03-.11.03-.17,0-.25-.15-.38-.45-.38h-.88c-.29,0-.43.12-.43.36,0,.06,0,.12.03.18l.17.6c.1.36.33.55.67.55s.58-.14.67-.43c.04-.15.1-.39.2-.71ZM77.8,180.89c0,.16-.08.32-.24.48-.55.56-1.1,1.02-1.65,1.39-.1.07-.21.1-.32.1-.17,0-.31-.06-.43-.18-.12-.12-.17-.26-.17-.43,0-.23.1-.41.31-.53.51-.3,1.03-.71,1.54-1.23.11-.11.24-.17.39-.17.16,0,.29.06.41.17.11.11.17.25.17.41ZM81.72,171.49c0,.16-.06.3-.18.41-.12.12-.25.17-.41.17h-1.57c-.34,0-.54.16-.62.48v.06c-.03.07-.04.13-.04.18,0,.3.17.45.5.45h.52c.75,0,1.12.37,1.12,1.12v4.77c0,.75-.37,1.12-1.12,1.12h-2.86c-.75,0-1.12-.37-1.12-1.12v-4.77c0-.75.37-1.12,1.12-1.12.35,0,.55-.16.62-.48v-.07c.02-.06.03-.11.03-.17,0-.3-.17-.45-.5-.45h-1.39c-.16,0-.29-.06-.41-.17-.11-.12-.17-.25-.17-.41s.06-.29.17-.41c.11-.11.25-.17.41-.17h5.31c.16,0,.3.06.41.17.12.11.18.25.18.41ZM79.86,174.81v-.06c0-.32-.18-.48-.53-.48h-1.68c-.35,0-.53.16-.53.48v.06c0,.33.16.49.49.49h1.76c.33,0,.49-.16.49-.49ZM79.86,176.74c0-.32-.16-.48-.49-.48h-1.76c-.33,0-.49.16-.49.48s.16.49.49.49h1.76c.33,0,.49-.16.49-.49ZM79.86,178.75v-.07c0-.33-.16-.49-.49-.49h-1.76c-.33,0-.49.16-.49.49v.07c0,.32.18.48.53.48h1.68c.35,0,.53-.16.53-.48ZM81.66,182.26c0,.17-.06.31-.17.43-.12.12-.26.17-.43.17-.11,0-.21-.03-.31-.08-.68-.42-1.29-.92-1.83-1.5-.1-.11-.15-.25-.15-.41,0-.37.19-.56.56-.56.16,0,.29.05.39.15.49.5,1.04.92,1.62,1.26.21.12.32.3.32.53Z"/>
      <path class="cls-1" d="M86.75,181.91c0,.22-.07.41-.22.56-.15.15-.34.22-.56.22-.24,0-.44-.09-.6-.28-.55-.66-1.11-1.23-1.67-1.71-.18-.15-.27-.34-.27-.56s.07-.39.22-.54c.14-.14.32-.22.54-.22.19,0,.35.06.49.18.78.68,1.41,1.28,1.88,1.81.13.14.2.32.2.53Z"/>
      <path class="cls-1" d="M109.58,175.22c0,.34-.17.5-.5.5h-6.02c.05.09.07.18.07.27,0,.16-.06.29-.18.41-.15.14-.39.34-.73.62-.19.15-.28.29-.28.43,0,.1.06.19.17.27l.04.03c.13.09.26.14.39.14s.26-.05.39-.14c.77-.51,1.49-1.05,2.14-1.61.1-.08.22-.13.35-.13.15,0,.28.06.39.17.11.11.16.24.16.39,0,.18-.07.32-.22.43-.35.26-.88.65-1.6,1.16-.14.09-.21.19-.21.29,0,.13.12.19.36.18l1.18-.06c.63-.06.95-.15.95-.29,0-.05-.03-.11-.09-.2s-.09-.18-.09-.27c0-.14.05-.26.15-.37s.24-.16.42-.16c.14,0,.26.04.36.13.35.28.99.79,1.92,1.53.13.1.2.26.2.46,0,.18-.06.32-.18.44-.12.12-.27.17-.43.17s-.31-.06-.43-.18l-.03-.03c-.28-.28-.64-.4-1.08-.36-.57.05-1.4.11-2.51.2-.36.02-.55.21-.55.57v2c0,.19-.06.35-.19.48-.13.13-.28.2-.47.2s-.35-.07-.48-.2c-.13-.13-.2-.29-.2-.48v-1.9c0-.38-.19-.56-.57-.55-1.6.08-2.94.14-4.05.15-.15,0-.28-.05-.39-.15-.11-.1-.17-.23-.17-.38s.05-.28.16-.38c.11-.11.24-.16.39-.16.24,0,1.11-.01,2.59-.04.3,0,.45-.08.45-.22,0-.11-.09-.22-.27-.34-.38-.23-.86-.5-1.43-.81-.2-.1-.29-.26-.29-.48,0-.15.05-.28.16-.39.11-.11.24-.16.39-.16.07,0,.16.02.25.07l.22.11c.17.08.32.13.45.13.18,0,.35-.07.52-.21.21-.18.51-.43.9-.77h-4.21c-.34,0-.5-.17-.5-.5,0-.14.05-.26.15-.36.1-.1.22-.15.36-.15h4.38c.37,0,.56-.12.56-.36s-.19-.35-.56-.35h-3.19c-.32,0-.48-.16-.48-.48s.16-.48.48-.48h3.19c.37,0,.56-.11.56-.34s-.19-.34-.56-.34h-3.91c-.13,0-.24-.05-.34-.15-.1-.1-.15-.22-.15-.36,0-.33.16-.49.49-.49h3.91c.37,0,.56-.14.56-.42,0-.18.06-.33.2-.46s.28-.2.46-.2.33.07.46.2.19.29.19.46c0,.28.19.42.56.42h3.96c.33,0,.49.16.49.49,0,.14-.05.26-.15.36-.1.1-.21.15-.34.15h-3.96c-.37,0-.56.11-.56.34s.19.34.56.34h3.28c.32,0,.48.16.48.48s-.16.48-.48.48h-3.28c-.37,0-.56.12-.56.35s.19.36.56.36h4.42c.14,0,.26.05.36.15.1.1.15.22.15.36ZM101.12,180.55c0,.18-.06.32-.18.43-.54.49-1.21.96-2,1.43-.09.06-.2.08-.32.08-.17,0-.31-.06-.42-.17-.11-.11-.17-.25-.17-.42,0-.24.1-.42.29-.53.72-.4,1.33-.83,1.82-1.27.1-.09.23-.14.39-.14s.3.06.41.17c.12.12.18.25.18.41ZM108.92,181.88c0,.17-.06.31-.19.43-.13.12-.27.18-.44.18-.09,0-.19-.03-.29-.08-.78-.44-1.48-.93-2.07-1.47-.13-.12-.2-.27-.2-.45,0-.17.06-.31.17-.43.12-.12.26-.17.43-.17.16,0,.29.05.41.15.47.42,1.09.85,1.88,1.29.21.11.31.29.31.55Z"/>
      <path class="cls-1" d="M124.11,173.24c0,.33-.17.52-.52.59-.2.04-.31.22-.34.55-.11,1.5-.41,2.89-.9,4.17-.07.2-.11.37-.11.52,0,.21.06.41.2.62.39.61.86,1.21,1.4,1.82.1.11.15.26.15.45,0,.18-.06.33-.18.45-.12.12-.27.18-.45.18-.21,0-.37-.08-.5-.24-.26-.32-.56-.73-.91-1.25-.18-.26-.33-.39-.46-.39-.14,0-.3.13-.48.38-.33.47-.7.92-1.12,1.37-.13.14-.29.21-.46.21s-.31-.06-.43-.18-.18-.27-.18-.45.06-.31.18-.43c.66-.66,1.18-1.27,1.57-1.83.14-.2.21-.4.21-.6,0-.16-.04-.34-.13-.53-.24-.59-.44-1.18-.59-1.79-.05-.18-.12-.27-.21-.27s-.17.08-.22.24l-.03.08c-.08.23-.25.35-.52.35-.23,0-.4-.11-.5-.34v4.49c0,.5-.09.85-.28,1.06s-.5.32-.94.32h-.74c-.16,0-.29-.06-.41-.17-.11-.11-.17-.25-.17-.41s.06-.29.17-.41c.11-.11.25-.17.41-.17h.34c.3,0,.45-.21.45-.64v-5.47c0-.37-.19-.56-.56-.56h-.71c-.28,0-.42.14-.42.42s.14.42.42.42h.48c.14,0,.26.05.36.15.1.1.15.21.15.34,0,.14-.05.26-.15.36-.1.1-.22.15-.36.15h-.48c-.28,0-.42.14-.42.42v.11c0,.26.13.41.41.43.42.04.63.32.63.85v1.76c0,.58-.29.87-.88.87h-1.33c-.58,0-.87-.29-.87-.87v-1.76c0-.52.21-.81.63-.85.27-.03.41-.17.41-.43v-.11c0-.28-.14-.42-.42-.42h-.5c-.13,0-.25-.05-.34-.15-.1-.1-.15-.22-.15-.36,0-.13.05-.25.15-.34s.21-.15.34-.15h.5c.28,0,.42-.14.42-.42s-.14-.42-.42-.42h-.73c-.37,0-.56.19-.56.56v6.8c0,.16-.06.3-.17.41s-.25.17-.41.17-.29-.06-.41-.17c-.11-.12-.17-.25-.17-.41v-7.27c0-.73.34-1.12,1.02-1.16.25-.02.38-.11.38-.28h0c0-.07-.02-.14-.04-.22l-.06-.13c-.11-.35-.35-.52-.71-.52h-.46c-.16,0-.29-.06-.4-.17-.11-.12-.16-.25-.16-.41,0-.37.19-.56.56-.56h2c.37,0,.56-.16.56-.49,0-.18.07-.33.2-.47.13-.14.28-.2.46-.2s.33.07.46.2c.13.13.2.29.2.47,0,.33.19.49.56.49h2.07c.16,0,.29.05.41.16.11.11.17.24.17.4s-.06.3-.17.41c-.11.12-.25.17-.41.17h-.48c-.36,0-.57.1-.63.29-.1.35-.15.53-.15.55,0,.19.12.29.36.31.67.05,1.01.43,1.01,1.16v1.41c.63-1.55,1.11-3.37,1.44-5.45.06-.34.25-.5.57-.5.19,0,.34.07.46.21.12.14.16.3.13.49,0,.04-.04.2-.1.49-.05.21-.07.38-.07.49,0,.3.17.45.5.45h2c.16,0,.3.06.41.17.12.12.17.25.17.41ZM116.05,173.33c.03-.07.04-.14.04-.21,0-.24-.15-.36-.45-.36h-.85c-.29,0-.43.12-.43.36,0,.06,0,.12.03.2v.07c.12.35.35.52.73.52h.2c.34,0,.58-.17.71-.5l.03-.07ZM115.82,179.75v-.64c0-.3-.15-.45-.45-.45h-.36c-.3,0-.45.15-.45.45v.64c0,.29.15.43.45.43h.36c.3,0,.45-.14.45-.43ZM122.14,174.41c.02-.38-.16-.57-.55-.57h-.41c-.4,0-.58.2-.53.59.11,1,.31,1.91.6,2.74.06.19.15.28.27.28.1,0,.18-.09.22-.27.2-.7.33-1.62.39-2.77Z"/>
      <path class="cls-1" d="M137.17,172.45c0,.37-.25.6-.76.67-1.41.21-2.66.8-3.75,1.74s-1.64,1.94-1.64,2.99c0,1.51,1.21,2.48,3.63,2.9.4.07.6.3.6.71,0,.22-.09.41-.26.57s-.37.21-.59.16c-1.45-.28-2.55-.71-3.3-1.29-1-.77-1.5-1.75-1.5-2.94,0-1.01.34-1.92,1.02-2.74.3-.35.59-.65.88-.9s.43-.45.43-.62c0-.22-.24-.32-.71-.28-1.91.17-3.47.33-4.66.49-.21.03-.38-.03-.53-.17s-.22-.31-.22-.52c0-.18.06-.33.17-.47.12-.13.26-.21.44-.22,1.72-.17,5.02-.42,9.9-.76.25,0,.46.05.62.17.16.13.24.29.24.48ZM136.42,176.58c0,.15-.05.28-.16.38s-.24.16-.38.16c-.22,0-.39-.08-.49-.25-.27-.43-.56-.8-.87-1.11-.1-.1-.15-.23-.15-.38,0-.37.18-.56.55-.56.16,0,.3.07.42.21.39.44.72.85.98,1.23.07.11.11.21.11.31ZM138.13,175.78c0,.15-.05.28-.16.38s-.24.16-.38.16c-.21,0-.38-.08-.49-.25-.31-.46-.6-.83-.87-1.13-.1-.11-.15-.23-.15-.35,0-.37.19-.56.56-.56.14,0,.28.07.41.2.33.33.66.74.99,1.25.07.13.1.23.1.31Z"/>
      <path class="cls-1" d="M152.06,173.21c0,.19-.07.35-.2.48-.13.13-.29.2-.48.2-1.47-.02-2.45-.02-2.95-.01-.46,0-.69.24-.69.71v.77c0,.34.09.87.28,1.58.08.29.11.59.11.9,0,1.23-.34,2.24-1.01,3.03s-1.71,1.4-3.12,1.84c-.07.02-.14.03-.21.03-.18,0-.33-.07-.47-.2-.14-.13-.2-.29-.2-.49,0-.33.16-.54.49-.64,1.33-.4,2.25-1.02,2.77-1.85.09-.15.14-.28.14-.38,0-.13-.07-.2-.21-.2-.08,0-.18.03-.29.08-.26.13-.55.2-.85.2-.69,0-1.25-.17-1.67-.52-.46-.38-.69-.91-.69-1.58s.26-1.25.77-1.67c.48-.38,1.07-.57,1.78-.57.06,0,.16,0,.29.01.13,0,.22.01.28.01.27,0,.41-.12.41-.35,0-.48-.24-.71-.71-.69-1.7.07-3.41.16-5.14.29-.2.02-.37-.04-.51-.17-.14-.13-.22-.3-.22-.5s.06-.34.19-.47.28-.19.46-.2l5.21-.25c.45-.02.67-.23.67-.63v-.63c0-.2.07-.37.22-.51.14-.14.32-.22.51-.22s.36.07.5.21.21.31.21.5v.53c0,.48.23.71.7.7,1.41-.02,2.4-.02,2.97-.01.19,0,.34.06.47.19s.19.28.19.47ZM146.26,177.22c.04-.13.06-.25.06-.36,0-.35-.15-.59-.45-.71-.16-.07-.35-.1-.56-.1-.32,0-.59.1-.8.31-.22.21-.33.46-.33.77,0,.64.34.97,1.02.97.56,0,.91-.29,1.06-.87Z"/>
      <path class="cls-1" d="M157.75,181c0,.57-.2,1.05-.6,1.45s-.89.59-1.46.59-1.05-.2-1.45-.59c-.4-.4-.59-.88-.59-1.45s.2-1.05.59-1.46c.4-.4.88-.6,1.45-.6s1.05.2,1.46.6.6.89.6,1.46ZM156.76,181c0-.3-.1-.55-.31-.76s-.46-.31-.76-.31-.54.1-.74.31-.31.46-.31.75.1.53.31.74c.21.2.45.3.74.3s.55-.1.76-.29.31-.44.31-.74Z"/>
    </g>
    <g>
      <path class="cls-1" d="M119.39,206.91c-.48.1-.94.19-1.39.25-.52.08-.87.37-1.05.87-.65,1.88-1.4,3.66-2.23,5.35-.13.27-.35.41-.64.41-.2,0-.36-.07-.5-.21s-.21-.31-.21-.5c0-.11.03-.22.08-.34.78-1.51,1.46-3.04,2.03-4.59.04-.1.06-.19.06-.27,0-.29-.2-.43-.59-.43h-.8c-.19,0-.35-.07-.48-.2-.13-.13-.2-.3-.2-.48,0-.2.07-.36.21-.5.14-.14.31-.2.5-.19.41.02.79.02,1.15.01.57,0,.92-.29,1.06-.85.08-.32.15-.63.24-.95.14-.35.37-.53.69-.53.2,0,.36.07.5.21.14.14.21.3.21.49,0,.08-.05.28-.14.6-.03.11-.04.21-.04.29,0,.28.13.42.38.42.05,0,.1,0,.15-.01l.73-.15c.08-.02.14-.03.17-.03.19,0,.34.07.46.2.12.14.18.3.18.5,0,.35-.18.57-.53.64ZM124.7,213.84c0,.19-.07.35-.2.49-.13.14-.3.21-.5.21-.12,0-.25-.04-.38-.13-.31-.21-.63-.4-.98-.59-.11-.06-.21-.1-.31-.1-.22,0-.38.16-.48.49-.27.94-1.1,1.41-2.49,1.41-.74,0-1.35-.16-1.85-.48-.59-.36-.88-.9-.88-1.6s.27-1.22.83-1.58c.48-.32,1.08-.48,1.81-.48.21,0,.44.02.7.06.21.03.38,0,.5-.1.12-.09.18-.25.18-.48v-2.04c-.01-.19.05-.35.18-.48.13-.14.29-.2.48-.2s.35.07.48.2c.13.13.2.29.2.48v2.35c.01.51.27.89.78,1.12.45.21.98.49,1.6.85.23.14.35.34.35.59ZM120.62,213.45c0-.39-.22-.62-.67-.7-.27-.05-.51-.07-.71-.07-.85,0-1.27.3-1.27.9,0,.27.11.48.34.64.23.15.52.23.89.23.65,0,1.08-.16,1.27-.48.1-.17.15-.34.15-.52ZM124.82,207.6c0,.19-.07.35-.2.48s-.3.2-.48.2c-.13,0-.26-.04-.38-.13-.71-.48-1.46-.88-2.25-1.22-.26-.11-.39-.32-.39-.62,0-.19.07-.34.2-.48.13-.13.29-.2.47-.2.1,0,.19.02.25.06.88.37,1.7.81,2.46,1.3.21.14.32.34.32.59Z"/>
      <path class="cls-1" d="M138.96,209.24c0,1.53-.72,2.73-2.16,3.58-1.06.64-2.47,1.08-4.23,1.3-.21.03-.39-.03-.55-.17-.16-.14-.24-.31-.24-.52,0-.18.06-.33.18-.47.12-.14.27-.21.43-.23,3.35-.43,5.03-1.6,5.03-3.5,0-1.34-.88-2.02-2.65-2.02-1.38,0-3.59.4-6.64,1.2-.07.02-.13.03-.2.03-.2,0-.37-.07-.51-.21-.15-.14-.22-.31-.22-.52,0-.38.19-.62.56-.71,3.25-.77,5.59-1.16,7.04-1.16,1.18,0,2.11.23,2.8.69.89.59,1.33,1.49,1.33,2.7Z"/>
      <path class="cls-1" d="M153.64,211.52c0,.2-.07.36-.21.5-.14.14-.31.2-.5.2-.12,0-.23-.03-.34-.08l-.59-.31c-.14-.07-.27-.11-.38-.11-.23,0-.42.15-.55.46-.53,1.27-1.36,2.33-2.49,3.18-.12.09-.26.14-.42.14-.2,0-.36-.07-.5-.21s-.21-.31-.21-.5c0-.24.1-.43.29-.57.93-.69,1.63-1.59,2.09-2.69.05-.11.07-.21.07-.31,0-.27-.16-.47-.48-.59-.66-.25-1.35-.44-2.06-.57-.07-.02-.15-.03-.22-.03-.39,0-.68.21-.87.64-.2.46-.53,1.2-.99,2.23-.31.65-.62,1.12-.92,1.39-.31.28-.7.41-1.16.41-.57,0-1.04-.22-1.43-.67s-.57-.98-.57-1.62c0-1.17.47-2.1,1.4-2.79.62-.46,1.37-.76,2.23-.9.62-.1,1.05-.41,1.27-.91.32-.73.54-1.24.66-1.54.05-.12.07-.23.07-.32,0-.26-.22-.37-.66-.34-.45.05-1.19.11-2.23.2-.19,0-.35-.05-.5-.17s-.22-.29-.22-.48c0-.18.06-.33.18-.46.12-.13.27-.2.45-.21,1-.04,2.14-.14,3.42-.31.14-.02.24-.03.31-.03.68,0,1.02.28,1.02.84,0,.2-.05.4-.14.62l-1.04,2.41c-.06.14-.08.26-.08.36,0,.24.19.4.56.46.5.09,1.09.25,1.76.48.11.04.21.06.31.06.31,0,.49-.19.53-.56.06-.49.09-.97.11-1.44,0-.19.08-.35.22-.48.13-.13.3-.2.48-.2.2,0,.36.07.5.22.14.14.21.31.2.51,0,.21-.05.58-.11,1.11-.06.47-.08.82-.08,1.05,0,.39.2.69.6.9.26.12.52.24.78.36.29.19.43.41.43.67ZM144.8,210.65c.06-.12.08-.23.08-.34,0-.21-.1-.31-.31-.31-.08,0-.16.01-.25.04-.38.13-.72.32-1.01.56-.54.46-.81,1.05-.81,1.76,0,.22.06.42.17.59.12.17.27.26.46.26.35,0,.7-.37,1.02-1.12l.64-1.46Z"/>
    </g>
  </g>
</svg>