<?xml version="1.0" encoding="UTF-8"?>
<svg xmlns="http://www.w3.org/2000/svg" viewBox="0 0 273.45 170.93">
  <defs>
    <style>
      .cls-1 {
        fill: #5b5b5b;
      }

      .cls-2 {
        stroke: #cecece;
        stroke-linecap: round;
        stroke-linejoin: round;
        stroke-width: 7px;
      }

      .cls-2, .cls-3, .cls-4, .cls-5, .cls-6 {
        fill: none;
      }

      .cls-3 {
        stroke: #ffdede;
      }

      .cls-3, .cls-4, .cls-5, .cls-6 {
        stroke-miterlimit: 10;
      }

      .cls-3, .cls-5 {
        stroke-width: 30px;
      }

      .cls-4 {
        stroke: #fff9e1;
      }

      .cls-4, .cls-6 {
        stroke-width: 40px;
      }

      .cls-5 {
        stroke: #f2e9ff;
      }

      .cls-6 {
        stroke: #e7ffe1;
      }
    </style>
  </defs>
  <g id="_レイヤー_1" data-name="レイヤー 1">
    <path class="cls-3" d="M81.5,168.37c0-83.25,101-83.25,101,0"/>
    <path class="cls-4" d="M60.39,168.37c0-124.7,145.08-124.48,145.08,0"/>
    <path class="cls-6" d="M38.5,167.44c0-169.06,194.99-154.83,193.87,0"/>
    <path class="cls-5" d="M18.5,165.14c1.7-195.84,235-199.65,235,.79"/>
    <path class="cls-2" d="M9.21,166.75s87.16,1.52,86.63.01c0-60.28,74.53-60.28,74.53-.01.72-.85,98.1,3.52,99.54-5.29C273.83-41.84,4.04-53.32,4.04,152.77c0,0-3.01,8.15,5.17,13.98Z"/>
  </g>
  <g id="ryo2km">
    <g>
      <path class="cls-1" d="M127.2,24.33c0,.08-.02.16-.05.23-.52,1.13-1.1,1.69-1.73,1.69-.53,0-.99-.32-1.39-.95-.14-.21-.28-.31-.44-.31-.11,0-.23.05-.36.16-.36.3-.74.59-1.14.85-.1.06-.2.1-.31.1-.14,0-.27-.05-.37-.16s-.16-.23-.16-.38c0-.2.08-.35.24-.46.56-.37,1.02-.7,1.37-1.01.22-.19.34-.42.34-.68,0-.1-.02-.22-.05-.34-.18-.71-.32-1.58-.43-2.62-.04-.34-.23-.52-.56-.52h-1.37c-.36,0-.54.18-.54.54v.64c0,.3.12.44.36.44.06,0,.12-.01.18-.04l.49-.16s.1-.02.16-.02c.13,0,.24.05.34.14.1.1.15.22.15.36,0,.22-.14.39-.42.52-.23.07-.47.14-.71.22-.37.11-.55.36-.55.74v1.6c0,.54-.08.89-.25,1.07-.17.18-.52.27-1.04.27h-.79c-.14,0-.25-.05-.35-.15-.1-.1-.15-.22-.15-.35s.05-.26.15-.36c.1-.1.22-.16.35-.16h.46c.23,0,.38-.04.44-.13.06-.06.08-.2.08-.44v-1.08c0-.29-.13-.43-.38-.43-.12,0-.34.04-.66.11-.45.1-.68.16-.68.16-.16.03-.3,0-.43-.11s-.19-.24-.19-.4c0-.3.15-.48.45-.53.3-.05.74-.14,1.33-.26.38-.08.58-.32.58-.72v-.91c0-.36-.18-.54-.54-.54h-1.32c-.14,0-.25-.05-.35-.15-.1-.1-.15-.22-.15-.35s.05-.25.15-.35c.1-.1.22-.15.35-.15h1.32c.36,0,.54-.18.54-.54v-.3c0-.34-.17-.49-.52-.44l-.92.13c-.14.02-.27-.02-.38-.12-.11-.1-.17-.23-.17-.38,0-.29.15-.45.44-.48,1.41-.16,2.56-.4,3.44-.72.08-.02.14-.02.17-.02.14,0,.25.05.35.14.1.1.14.22.14.36,0,.21-.1.36-.3.47-.05.02-.24.08-.58.18-.38.11-.58.36-.58.73v.46c0,.36.18.54.54.54h1.25c.36,0,.53-.18.52-.55-.02-.43-.04-1.13-.05-2.09,0-.15.05-.28.16-.39.1-.11.23-.16.38-.16s.28.05.38.16c.1.1.16.23.16.38,0,.76.03,1.47.06,2.12.02.35.2.53.55.53h2.4c.14,0,.25.05.35.15.1.1.15.22.15.35s-.05.25-.15.35c-.1.1-.22.15-.35.15h-2.28c-.38,0-.54.19-.5.58.08.7.15,1.22.22,1.58.03.18.11.28.24.28.1,0,.18-.06.25-.18.27-.43.5-.87.68-1.32.09-.21.24-.31.46-.31.14,0,.26.05.36.14s.14.21.14.35c0,.07-.02.14-.05.22-.37.81-.77,1.51-1.21,2.1-.17.22-.25.44-.25.64,0,.14.04.29.13.44.23.4.47.6.71.6.18,0,.42-.32.72-.97.09-.18.25-.28.48-.28.14,0,.27.05.37.16.1.1.15.23.15.37ZM126.52,17.68c0,.14-.05.27-.15.37-.1.1-.22.15-.37.15-.17,0-.3-.05-.38-.16-.15-.18-.44-.48-.88-.89-.11-.1-.17-.23-.17-.38,0-.14.05-.26.14-.36.1-.1.21-.14.35-.14.12,0,.23.04.32.12.36.3.69.62.98.94.1.1.14.22.14.36Z"/>
      <path class="cls-1" d="M129.64,18.21c-.1.98-.23,1.77-.37,2.38-.06.27-.23.41-.49.41-.14,0-.27-.05-.37-.16-.1-.1-.15-.22-.15-.36,0-.05,0-.09.01-.12.17-.58.3-1.33.41-2.26.03-.28.19-.42.47-.42.14,0,.27.05.37.16.1.1.14.23.13.37ZM131.14,25.88c0,.15-.05.28-.16.38-.1.1-.23.16-.38.16s-.28-.05-.38-.16c-.1-.1-.16-.23-.16-.38v-9.6c0-.15.05-.28.16-.39s.23-.16.38-.16c.14,0,.27.05.38.16.11.11.16.24.16.39v9.6ZM132.59,19.17s.02.1.02.14c0,.12-.05.23-.14.32-.09.1-.2.14-.32.14-.22,0-.37-.11-.43-.34-.18-.66-.36-1.18-.52-1.56-.02-.06-.02-.11-.02-.14,0-.12.04-.22.13-.31s.18-.13.29-.13c.21,0,.34.09.41.26l.58,1.61ZM139.38,25.73c0,.16-.06.29-.19.4s-.26.14-.41.11c-1.02-.19-1.85-.41-2.47-.66-.19-.07-.37-.11-.53-.11s-.34.04-.53.11c-.72.28-1.59.5-2.62.67-.14.02-.27-.01-.38-.11-.11-.1-.17-.22-.17-.37,0-.3.14-.46.41-.49.61-.08,1.18-.2,1.73-.35.16-.05.24-.12.24-.23,0-.09-.05-.18-.16-.26-.28-.23-.53-.46-.76-.7-.27-.29-.58-.43-.92-.43-.26,0-.4-.14-.4-.42,0-.26.13-.4.4-.4h5.27c.51,0,.77.18.77.53,0,.26-.25.59-.74,1-.2.16-.4.31-.59.44-.12.08-.18.16-.18.25,0,.1.08.16.24.2.57.14,1.08.25,1.55.31.3.04.44.21.44.5ZM139.34,21.12c0,.6-.3.9-.9.9h-5.28c-.6,0-.9-.3-.9-.9v-.46c0-.6.3-.9.9-.9h5.28c.6,0,.9.3.9.9v.46ZM138.77,18.34c0,.64-.32.96-.96.96h-4.09c-.64,0-.96-.32-.96-.96v-1.28c0-.64.32-.96.96-.96h4.09c.64,0,.96.32.96.96v1.28ZM133.92,21.27c.24,0,.36-.12.36-.36h0c0-.25-.12-.37-.36-.37h-.3c-.26,0-.4.12-.4.35v.05c0,.22.13.34.4.34h.3ZM137.44,17.42c.24,0,.36-.08.36-.24s-.11-.25-.34-.25h-3.4c-.22,0-.34.08-.34.25s.12.24.36.24h3.35ZM137.8,18.34c0-.17-.12-.25-.36-.25h-3.35c-.24,0-.36.08-.36.25,0,.16.11.24.34.24h3.4c.22,0,.34-.08.34-.24ZM136.96,23.66c.08-.06.12-.13.12-.19,0-.1-.11-.16-.32-.16h-1.76c-.21,0-.31.07-.31.22,0,.08.05.16.14.24.42.34.73.52.94.52.14,0,.3-.05.47-.16.38-.23.63-.39.73-.47ZM135.94,21.27c.24,0,.36-.12.36-.36h0c0-.25-.12-.37-.36-.37h-.36c-.24,0-.36.12-.36.36h0c0,.25.12.37.36.37h.36ZM138.35,20.93v-.05c0-.23-.13-.35-.4-.35h-.36c-.24,0-.36.12-.36.36h0c0,.25.12.37.36.37h.36c.26,0,.4-.11.4-.34Z"/>
      <path class="cls-1" d="M150.68,22.76c0,.11-.03.22-.1.32-.54.89-1.2,1.6-1.96,2.12-.86.58-1.76.88-2.72.88-2.1,0-3.16-.95-3.16-2.86,0-.78.02-1.8.05-3.06.02-1.02.04-2.14.06-3.34,0-.17.06-.31.19-.44s.28-.19.44-.19.33.06.46.19.19.28.18.46l-.14,6.11c0,1.26.66,1.88,1.99,1.88.71,0,1.4-.25,2.05-.76.56-.42,1.05-.97,1.48-1.67.12-.2.3-.3.54-.3.18,0,.33.06.45.19s.19.27.19.45Z"/>
      <path class="cls-1" d="M83.98,33.69c-.41.09-.8.16-1.19.22-.45.07-.75.32-.9.74-.56,1.61-1.2,3.14-1.91,4.58-.11.23-.3.35-.55.35-.17,0-.31-.06-.43-.18-.12-.12-.18-.26-.18-.43,0-.1.02-.19.07-.29.67-1.3,1.25-2.61,1.74-3.94.03-.09.05-.16.05-.23,0-.25-.17-.37-.5-.37h-.68c-.16,0-.3-.06-.41-.17-.11-.12-.17-.25-.17-.41s.06-.31.18-.43c.12-.12.26-.17.43-.16.35.02.68.02.98.01.49,0,.79-.25.91-.73.06-.27.13-.54.2-.82.12-.3.32-.46.59-.46.17,0,.31.06.43.18.12.12.18.26.18.42,0,.06-.04.24-.12.52-.02.1-.04.18-.04.25,0,.24.11.36.32.36.04,0,.08,0,.13-.01l.62-.13c.07-.02.12-.02.14-.02.16,0,.29.06.39.17.1.12.15.26.15.43,0,.3-.15.49-.46.55ZM88.52,39.63c0,.16-.06.3-.17.42-.12.12-.26.18-.43.18-.1,0-.21-.04-.32-.11-.26-.18-.54-.34-.84-.5-.1-.06-.18-.08-.26-.08-.19,0-.33.14-.41.42-.23.81-.94,1.21-2.14,1.21-.63,0-1.16-.14-1.58-.41-.5-.31-.76-.77-.76-1.37s.24-1.04.71-1.36c.41-.27.92-.41,1.55-.41.18,0,.38.02.6.05.18.02.33,0,.43-.08.1-.08.15-.22.15-.41v-1.75c-.01-.16.04-.3.16-.41.11-.12.25-.17.41-.17s.3.06.41.17.17.25.17.41v2.02c.01.44.23.76.67.96.38.18.84.42,1.37.73.2.12.3.29.3.5ZM85.03,39.29c0-.34-.19-.54-.58-.6-.23-.04-.44-.06-.61-.06-.73,0-1.09.26-1.09.77,0,.23.1.41.29.55.2.13.45.2.76.2.56,0,.92-.14,1.09-.41.09-.14.13-.29.13-.44ZM88.63,34.28c0,.16-.06.3-.17.41s-.25.17-.41.17c-.11,0-.22-.04-.32-.11-.61-.41-1.25-.76-1.93-1.04-.22-.1-.34-.27-.34-.53,0-.16.06-.3.17-.41.12-.11.25-.17.4-.17.09,0,.16.02.22.05.75.32,1.46.69,2.11,1.12.18.12.28.29.28.5Z"/>
      <path class="cls-1" d="M95.51,38.44c-.7,1.38-1.38,2.08-2.03,2.08-.8,0-1.42-.71-1.86-2.14-.34-1.1-.52-2.36-.52-3.76,0-.72.02-1.34.07-1.86.02-.17.08-.31.2-.42.12-.11.26-.17.43-.17.18,0,.34.07.46.21s.18.3.16.49c-.06.54-.08,1.16-.08,1.86,0,.92.1,1.83.3,2.74.22,1,.52,1.5.89,1.5.26,0,.56-.36.9-1.08.1-.22.28-.32.54-.32.17,0,.31.06.43.17.12.12.17.26.17.43,0,.1-.02.2-.06.28ZM100.7,38.07c.02.19-.03.36-.16.52-.13.15-.29.23-.49.23-.17,0-.32-.06-.44-.17-.13-.11-.2-.25-.22-.41-.2-1.82-.79-3.43-1.76-4.85-.07-.1-.11-.22-.11-.35,0-.18.06-.32.18-.44s.27-.18.44-.18c.22,0,.39.09.52.26,1.1,1.54,1.78,3.33,2.04,5.39Z"/>
      <path class="cls-1" d="M112.42,32.45c0,.32-.22.51-.65.58-1.21.18-2.28.68-3.22,1.49-.94.81-1.4,1.67-1.4,2.56,0,1.3,1.04,2.12,3.11,2.48.34.06.52.26.52.61,0,.19-.07.35-.22.49-.15.13-.32.18-.51.14-1.24-.24-2.18-.61-2.83-1.1-.86-.66-1.28-1.5-1.28-2.52,0-.86.29-1.65.88-2.35.26-.3.51-.56.76-.77s.37-.38.37-.53c0-.19-.2-.27-.61-.24-1.64.14-2.97.28-4,.42-.18.02-.33-.02-.46-.14-.13-.12-.19-.27-.19-.44,0-.15.05-.29.15-.4.1-.12.23-.18.38-.19,1.47-.14,4.3-.36,8.48-.65.22,0,.39.04.53.15.14.11.2.25.2.41ZM111.77,35.99c0,.13-.05.24-.14.33-.09.09-.2.14-.33.14-.19,0-.33-.07-.42-.22-.23-.37-.48-.68-.74-.95-.09-.09-.13-.2-.13-.32,0-.32.16-.48.47-.48.14,0,.26.06.36.18.34.38.62.73.84,1.06.06.1.1.18.1.26ZM113.23,35.31c0,.13-.05.24-.14.33-.09.09-.2.14-.33.14-.18,0-.32-.07-.42-.22-.26-.39-.51-.72-.74-.97-.09-.1-.13-.2-.13-.3,0-.32.16-.48.48-.48.12,0,.24.06.35.17.28.28.56.64.85,1.07.06.11.08.2.08.26Z"/>
      <path class="cls-1" d="M122.55,40.46c0,.18-.06.34-.19.47-.13.13-.28.19-.47.19s-.34-.07-.48-.22c-1.52-1.59-3.06-2.96-4.61-4.12-.46-.34-.68-.67-.68-1s.26-.69.78-1.04c1.86-1.26,3.38-2.46,4.56-3.58.13-.12.27-.18.43-.18.18,0,.33.06.45.19s.19.27.19.45-.07.34-.2.46c-1.04.93-2.35,1.95-3.94,3.07-.35.25-.53.46-.53.65s.17.41.52.67c1.29.98,2.62,2.15,3.98,3.52.13.13.19.28.19.47Z"/>
      <path class="cls-1" d="M133.01,33.72c-.67.13-1.26.22-1.78.28-.33.04-.57.12-.71.25-.15.13-.26.35-.33.66-.48,2.1-1.04,3.92-1.67,5.46-.11.26-.31.4-.59.4-.18,0-.32-.06-.44-.19-.12-.12-.18-.27-.18-.44,0-.09.02-.17.05-.24.64-1.5,1.2-3.2,1.67-5.11.02-.06.02-.12.02-.18,0-.28-.17-.42-.5-.41-.34,0-.64,0-.92,0-.16,0-.3-.07-.41-.19-.12-.12-.17-.25-.17-.41s.06-.31.19-.43c.12-.12.27-.18.44-.17.46.02.82.02,1.1.01.46-.02.71-.24.77-.66.02-.17.06-.43.12-.78s.26-.53.61-.53c.17,0,.31.06.43.18s.18.26.18.42c0,.08-.03.28-.1.6,0,.06-.01.11-.01.16,0,.32.18.45.53.4.05,0,.33-.06.84-.17.38-.07.65-.11.79-.11.17,0,.31.06.41.18s.16.26.16.43c0,.33-.16.52-.49.59ZM136.8,40.04c0,.15-.05.28-.14.4-.1.11-.22.18-.36.19-.9.11-1.7.17-2.4.17-2.13,0-3.19-.6-3.19-1.79,0-.29.07-.6.2-.94.1-.24.28-.36.54-.36.38,0,.58.19.58.58,0,.06-.02.15-.05.27-.03.12-.05.21-.05.27,0,.54.69.82,2.06.82.54,0,1.25-.06,2.14-.18.18-.02.33.02.47.14.14.12.2.26.2.44ZM136.46,35.57c0,.17-.06.31-.19.43-.13.12-.28.18-.44.17-1.23-.09-2.51-.06-3.83.08-.17.02-.31-.03-.44-.15-.12-.12-.19-.26-.19-.43,0-.15.05-.28.15-.39s.22-.17.37-.19c1.59-.14,2.92-.18,3.98-.14.16,0,.3.07.41.19.12.12.17.26.17.42ZM135.89,33.47c0,.13-.05.24-.14.33-.09.09-.2.14-.33.14-.19,0-.33-.07-.42-.22-.23-.37-.48-.68-.74-.95-.09-.09-.13-.2-.13-.32,0-.32.16-.48.47-.48.14,0,.26.06.36.18.34.38.62.73.84,1.06.06.1.1.18.1.26ZM137.35,32.79c0,.13-.05.24-.14.33s-.2.14-.33.14c-.18,0-.32-.07-.42-.22-.26-.39-.51-.72-.74-.97-.09-.1-.13-.2-.13-.3,0-.32.16-.48.48-.48.12,0,.24.06.35.17.28.28.56.64.85,1.07.06.11.08.2.08.26Z"/>
      <path class="cls-1" d="M148.25,32.7c0,.23-.11.4-.34.52-.5.24-1.08.46-1.75.67-.26.08-.38.21-.38.38,0,.1.04.21.13.32.58.78,1.17,1.46,1.76,2.06.17.17.25.36.25.56,0,.18-.07.34-.2.47-.13.13-.3.19-.5.19-.13,0-.26-.03-.4-.08-.97-.43-1.96-.65-2.96-.65-.74,0-1.31.11-1.71.34-.41.22-.61.53-.61.92,0,.9.98,1.36,2.93,1.36.72,0,1.5-.06,2.33-.17.17-.02.32.02.45.14.13.12.2.26.2.44,0,.14-.05.27-.15.38-.1.11-.22.17-.35.19-.78.1-1.55.16-2.33.16-2.86,0-4.3-.8-4.3-2.4,0-.87.38-1.51,1.14-1.91.58-.31,1.36-.47,2.32-.47.39,0,.82.05,1.3.16.07.02.12.02.13.02.07.02.14.02.21.02.17,0,.25-.06.25-.18,0-.1-.05-.2-.14-.32-.3-.37-.53-.65-.67-.85-.26-.35-.58-.53-.95-.53-.09,0-.19,0-.31.02-1.01.15-2.09.23-3.25.23-.16,0-.3-.06-.41-.17-.11-.11-.17-.25-.17-.41s.06-.3.17-.41c.11-.11.25-.17.41-.17.94,0,1.82-.06,2.64-.16.28-.03.42-.15.42-.36,0-.1-.04-.21-.11-.32l-.41-.67c-.06-.1-.08-.2-.08-.3,0-.16.06-.3.17-.41.12-.12.25-.17.41-.17.24,0,.42.1.53.31.27.53.44.84.52.94.26.37.53.55.82.55.1,0,.21-.02.32-.05.62-.18,1.24-.42,1.86-.72.08-.04.16-.06.25-.06.16,0,.29.06.41.17.11.12.17.25.17.41Z"/>
      <path class="cls-1" d="M156.11,38.44c-.7,1.38-1.38,2.08-2.03,2.08-.8,0-1.42-.71-1.86-2.14-.34-1.1-.52-2.36-.52-3.76,0-.72.02-1.34.07-1.86.02-.17.08-.31.2-.42.12-.11.26-.17.43-.17.18,0,.34.07.46.21s.18.3.16.49c-.06.54-.08,1.16-.08,1.86,0,.92.1,1.83.3,2.74.22,1,.52,1.5.89,1.5.26,0,.56-.36.9-1.08.1-.22.28-.32.54-.32.17,0,.31.06.43.17.12.12.17.26.17.43,0,.1-.02.2-.06.28ZM161.3,38.07c.02.19-.03.36-.16.52-.13.15-.29.23-.49.23-.17,0-.32-.06-.44-.17-.13-.11-.2-.25-.22-.41-.2-1.82-.79-3.43-1.76-4.85-.07-.1-.11-.22-.11-.35,0-.18.06-.32.18-.44.12-.12.27-.18.44-.18.22,0,.39.09.52.26,1.1,1.54,1.78,3.33,2.04,5.39Z"/>
      <path class="cls-1" d="M166.41,39.78c0,.49-.17.9-.52,1.24-.34.34-.76.51-1.25.51s-.9-.17-1.24-.51c-.34-.34-.51-.75-.51-1.24s.17-.9.51-1.25c.34-.34.75-.52,1.24-.52s.9.17,1.25.52c.34.34.52.76.52,1.25ZM165.56,39.78c0-.26-.09-.47-.26-.65-.18-.18-.39-.26-.65-.26s-.46.09-.64.27c-.18.18-.26.39-.26.64s.09.46.26.63c.18.17.39.26.64.26s.47-.08.65-.25c.18-.17.26-.38.26-.64Z"/>
      <path class="cls-1" d="M177.91,33.41c-.32,1.7-.86,3.35-1.62,4.97-.11.24-.3.36-.58.36-.18,0-.32-.06-.44-.18s-.18-.27-.18-.44c0-.11.02-.21.07-.3.75-1.4,1.28-2.94,1.6-4.62.06-.32.25-.48.58-.48.18,0,.33.07.45.21.12.14.16.3.13.49ZM180.93,39.44c0,.71-.11,1.18-.34,1.42-.23.23-.7.35-1.41.35h-.96c-.15,0-.28-.06-.4-.17-.11-.11-.17-.24-.17-.4s.06-.28.17-.4c.11-.11.24-.17.4-.17h.66c.35,0,.58-.06.69-.17.11-.11.16-.34.16-.68v-7.73c0-.17.06-.31.17-.43.12-.12.26-.17.43-.17.16,0,.3.06.42.18.12.12.18.26.18.42v7.94ZM185.79,38.07c0,.18-.06.33-.19.46-.13.13-.28.19-.46.19-.25,0-.44-.12-.56-.35-.85-1.54-1.52-3.2-2.02-4.98-.02-.06-.02-.11-.02-.16,0-.16.06-.3.17-.41.12-.12.26-.17.43-.17.3,0,.5.15.58.44.48,1.7,1.14,3.25,1.98,4.67.06.1.1.21.1.31Z"/>
      <path class="cls-1" d="M197.9,35.06c0,.14-.05.27-.16.37-.1.1-.22.15-.36.15h-3.7c-.36,0-.54.18-.54.54v.36c0,.36.18.54.54.54h2.58c.14,0,.25.05.35.14.1.1.14.21.14.35s-.05.25-.14.35c-.1.1-.21.15-.35.15h-2.58c-.36,0-.54.18-.54.54v.95c0,.36.18.54.54.54h3.66c.14,0,.27.05.37.16.1.1.16.23.16.38,0,.14-.05.27-.16.37-.1.1-.23.15-.37.15h-4.08c-1.5,0-2.65-.44-3.46-1.32-.15-.16-.28-.24-.4-.24-.13,0-.24.11-.35.34-.13.28-.32.66-.59,1.15-.11.21-.28.31-.5.31-.16,0-.3-.05-.41-.16-.11-.11-.17-.24-.17-.4,0-.11.02-.21.07-.29.69-1.18,1.16-2.39,1.43-3.64.06-.29.24-.43.53-.43.15,0,.28.05.38.15.1.1.16.22.16.37,0,.09-.03.23-.08.43-.05.2-.08.36-.08.47,0,.19.06.38.17.55.38.58.85,1.01,1.43,1.27.09.04.17.06.24.06.26,0,.38-.17.38-.5v-3.1c0-.36-.18-.54-.54-.54h-3.65c-.14,0-.25-.05-.35-.15s-.15-.22-.15-.37c0-.14.05-.25.15-.35.1-.1.22-.15.35-.15h3.65c.36,0,.54-.18.54-.54v-.36c0-.36-.18-.54-.54-.54h-2.78c-.14,0-.25-.05-.35-.15-.1-.1-.15-.22-.15-.35s.05-.25.15-.35c.1-.1.22-.15.35-.15h2.78c.36,0,.54-.18.54-.54v-.25c0-.15.05-.28.16-.4.11-.11.24-.17.4-.17s.28.06.39.17c.11.11.16.24.16.4v.25c0,.36.18.54.54.54h2.92c.14,0,.25.05.35.15.1.1.15.22.15.35s-.05.25-.15.35c-.1.1-.22.15-.35.15h-2.92c-.36,0-.54.18-.54.54v.36c0,.36.18.54.54.54h3.7c.14,0,.26.05.36.15.1.1.16.22.16.35Z"/>
      <path class="cls-1" d="M63.82,50.51c-.42.71-.76,1.4-1.04,2.08-.12.29-.32.43-.61.43-.4,0-.63-.21-.7-.62-.07-.47-.11-1.18-.11-2.12s.14-2.08.41-3.37c.08-.39.29-.59.62-.59.17,0,.31.06.42.17.11.12.17.26.17.43,0,.05,0,.1-.01.14-.29,1.32-.44,2.32-.46,2.99,0,.26.05.4.18.4.1,0,.22-.1.34-.29l.06-.1c.08-.13.2-.19.36-.19.29,0,.43.14.43.43,0,.08-.02.15-.06.22ZM67.95,50.57c0,1.35-.24,2.46-.73,3.32-.51.9-1.35,1.65-2.52,2.27-.09.05-.18.07-.29.07-.17,0-.31-.07-.43-.2-.12-.13-.18-.28-.18-.45,0-.22.11-.4.34-.52.98-.51,1.66-1.13,2.05-1.85.37-.66.55-1.56.55-2.7,0-1.03-.11-2.24-.32-3.64-.03-.18.02-.35.14-.5s.28-.22.47-.22c.15,0,.29.05.4.16.12.1.19.23.21.38.21,1.5.31,2.78.31,3.86Z"/>
      <path class="cls-1" d="M81.38,50.3c0,.24-.11.41-.34.5-.54.22-1.04.45-1.51.68-.33.16-.53.33-.61.5-.06.13-.08.38-.08.77v.77c0,.16-.06.29-.17.4-.11.11-.25.16-.41.16s-.29-.05-.4-.16c-.11-.11-.16-.24-.16-.4v-.46c0-.28-.1-.42-.31-.42-.09,0-.18.03-.29.1-.97.6-1.45,1.12-1.45,1.55,0,.25.16.43.49.53s.89.16,1.68.16c.62,0,1.45-.07,2.48-.2.17-.02.31.02.44.13.12.11.19.25.19.42,0,.14-.05.27-.14.38-.1.11-.22.17-.36.19-.91.1-1.81.16-2.69.16s-1.61-.08-2.1-.23c-.82-.26-1.22-.75-1.22-1.45,0-.82.88-1.75,2.65-2.8.29-.17.43-.34.43-.5,0-.21-.17-.31-.5-.31-.46,0-1.05.22-1.76.66-.58.36-1.08.76-1.52,1.2l-.31.37c-.13.12-.27.18-.42.18-.16,0-.29-.05-.4-.16s-.16-.24-.16-.4c0-.14.04-.27.13-.37.83-1,1.53-2,2.09-3,.06-.1.08-.19.08-.28,0-.21-.15-.31-.44-.3-.26,0-.65.01-1.16.01-.14,0-.27-.05-.37-.16s-.15-.23-.15-.37c0-.15.05-.28.16-.38.11-.1.23-.15.38-.14.5.02,1.04.02,1.64,0,.47,0,.79-.23.96-.66l.24-.62c.1-.25.28-.37.54-.37.16,0,.29.06.4.17.11.11.16.24.16.4,0,.07-.01.14-.04.2-.04.1-.06.16-.07.18-.03.09-.05.17-.05.24,0,.23.14.33.43.3.3-.03.88-.11,1.73-.24.16-.02.3.02.43.13.13.11.19.24.19.4,0,.32-.16.5-.48.54-.8.1-1.52.18-2.15.23-.35.03-.62.11-.8.22-.18.12-.35.32-.51.62-.02.02-.06.09-.12.19-.09.15-.13.28-.13.37,0,.12.07.18.22.18.09,0,.2-.03.35-.08.42-.16.81-.24,1.16-.24.48,0,.85.16,1.1.48.18.22.34.32.5.32.09,0,.18-.02.29-.07l1.45-.71c.08-.04.16-.06.24-.06.15,0,.28.05.39.16s.16.24.16.4Z"/>
      <path class="cls-1" d="M94.23,48.11c0,.16-.06.3-.17.41s-.25.17-.41.17c-1.26-.02-2.1-.02-2.53-.01-.39,0-.59.2-.59.61v.66c0,.3.08.75.24,1.36.06.25.1.5.1.77,0,1.06-.29,1.92-.86,2.6-.58.68-1.47,1.2-2.68,1.58-.06.02-.12.02-.18.02-.15,0-.29-.06-.4-.17-.12-.11-.17-.25-.17-.42,0-.28.14-.46.42-.55,1.14-.34,1.93-.87,2.38-1.58.08-.13.12-.24.12-.32,0-.11-.06-.17-.18-.17-.07,0-.16.02-.25.07-.22.11-.47.17-.73.17-.59,0-1.07-.15-1.43-.44-.39-.33-.59-.78-.59-1.36s.22-1.08.66-1.43c.41-.33.92-.49,1.52-.49.06,0,.14,0,.25.01.11,0,.19.01.24.01.23,0,.35-.1.35-.3,0-.41-.2-.6-.61-.59-1.46.06-2.92.14-4.4.25-.17.02-.31-.03-.44-.15-.12-.12-.19-.26-.19-.43s.05-.29.16-.4c.11-.11.24-.17.39-.17l4.46-.22c.38-.02.58-.2.58-.54v-.54c0-.17.06-.31.19-.44.12-.12.27-.19.44-.19s.31.06.43.18c.12.12.18.26.18.43v.46c0,.41.2.61.6.6,1.21-.02,2.06-.02,2.54-.01.16,0,.29.05.4.16s.16.24.16.4ZM89.26,51.54c.03-.11.05-.22.05-.31,0-.3-.13-.51-.38-.61-.14-.06-.3-.08-.48-.08-.27,0-.5.09-.69.26-.19.18-.28.4-.28.66,0,.55.29.83.88.83.48,0,.78-.25.91-.74Z"/>
      <path class="cls-1" d="M105.56,52.79c0,1.14-.47,2-1.42,2.56-.75.45-1.67.67-2.75.67-.94,0-1.67-.15-2.21-.45-.54-.3-.81-.7-.81-1.21s.19-.86.56-1.13c.34-.25.75-.37,1.25-.37.67,0,1.24.21,1.7.62.24.22.43.46.58.72.14.26.31.4.5.4.11,0,.24-.04.38-.12.66-.35.98-.89.98-1.62,0-.54-.2-.97-.59-1.27-.4-.3-.93-.45-1.59-.44-1.7.02-3.21.57-4.55,1.64-.2.16-.36.24-.48.24-.15,0-.28-.05-.4-.16-.11-.11-.17-.24-.17-.4,0-.18.07-.32.2-.43,1.18-1,2.67-2.27,4.45-3.8.14-.13.22-.24.22-.35,0-.17-.15-.24-.46-.22-.54.04-1.44.1-2.71.18-.16,0-.3-.04-.42-.16-.12-.11-.18-.25-.18-.41s.05-.3.16-.41c.11-.11.24-.17.4-.17,1.52,0,3.13-.09,4.82-.24.25-.02.45.03.6.15s.23.29.23.49-.11.4-.32.58c-.82.66-1.68,1.37-2.6,2.15-.13.1-.19.2-.19.3,0,.12.09.18.26.18.06,0,.12,0,.18-.02.43-.09.84-.13,1.21-.13.91,0,1.65.21,2.21.62.62.46.94,1.14.94,2.02ZM100.9,54.99c.3.02.46-.1.46-.36,0-.13-.06-.25-.17-.37-.27-.3-.62-.46-1.04-.46s-.66.16-.66.47c0,.28.24.48.71.61.19.05.43.08.71.11Z"/>
      <path class="cls-1" d="M110.97,55.56c0,.19-.06.35-.19.48s-.29.19-.48.19c-.21,0-.38-.08-.52-.24-.47-.57-.95-1.06-1.43-1.46-.15-.13-.23-.29-.23-.48s.06-.34.19-.46.28-.19.46-.19c.16,0,.3.05.42.16.67.58,1.21,1.1,1.61,1.55.11.12.17.27.17.46Z"/>
      <path class="cls-1" d="M122.31,49.46c0,1.4-.05,2.51-.16,3.34-.16,1.28-.47,2.33-.94,3.14-.13.22-.32.34-.56.34-.18,0-.33-.06-.45-.19s-.19-.27-.19-.45c0-.11.03-.22.08-.31.45-.78.74-1.7.89-2.78.1-.71.14-1.76.14-3.14v-2.77c0-.16.06-.3.18-.41.12-.12.26-.17.42-.17s.3.06.41.17c.11.12.17.25.17.41v2.83ZM125.96,54.66c0,.16-.06.3-.17.41-.11.11-.25.17-.41.17s-.3-.06-.41-.17c-.11-.11-.17-.25-.17-.41v-7.38c0-.16.06-.3.17-.41.11-.11.25-.17.41-.17s.3.06.41.17c.11.11.17.25.17.41v7.38ZM129.8,55.66c0,.16-.06.3-.17.42-.12.12-.25.18-.41.18s-.3-.06-.41-.18c-.12-.12-.17-.26-.17-.42v-9.04c0-.16.06-.3.17-.41s.25-.17.41-.17.3.06.41.17c.12.12.17.25.17.41v9.04Z"/>
      <path class="cls-1" d="M136.83,48.45c0,.14-.05.25-.15.35-.1.1-.22.15-.35.15h-.71c-.32,0-.48.12-.48.36,0,.1.05.23.16.41.22.36.69,1,1.39,1.91.09.11.13.22.13.32,0,.14-.05.25-.15.35s-.22.15-.35.15c-.18,0-.3-.04-.36-.13-.09-.12-.24-.33-.44-.62-.07-.11-.15-.17-.23-.17-.1,0-.14.08-.14.25v4.12c0,.14-.05.27-.16.37s-.23.15-.37.15c-.15,0-.28-.05-.38-.15s-.15-.22-.15-.37v-3.8c0-.17-.05-.25-.16-.25-.05,0-.2.21-.44.64-.14.25-.29.5-.43.76-.11.16-.26.24-.44.24-.31,0-.49-.18-.53-.53-.02-.1.04-.24.17-.4.64-.84,1.21-1.84,1.7-3,.06-.14.1-.26.1-.35,0-.17-.15-.25-.44-.25h-.92c-.14,0-.25-.05-.35-.15s-.15-.22-.15-.35.05-.25.15-.35.22-.15.35-.15h.92c.32,0,.48-.16.48-.48v-1.16c0-.14.05-.27.16-.37s.23-.16.37-.16.27.05.37.16.16.23.16.37v1.16c0,.32.16.48.48.48h.71c.14,0,.25.05.35.15.1.1.15.22.15.35ZM143,48.47c0,.14-.05.27-.16.37-.1.1-.23.16-.37.16h-.35c-.36,0-.54.18-.54.54v4.84c0,.71-.11,1.18-.32,1.4-.21.22-.63.34-1.27.34h-.89c-.14,0-.27-.05-.38-.16-.11-.1-.16-.23-.16-.37s.05-.27.16-.38c.11-.11.23-.16.38-.16h.62c.34,0,.55-.07.65-.2.07-.1.11-.32.11-.66v-4.64c0-.36-.18-.54-.54-.54h-2.23c-.14,0-.27-.05-.37-.16s-.15-.23-.15-.37.05-.27.15-.37.22-.16.37-.16h2.23c.36,0,.54-.18.54-.54v-1.01c0-.15.05-.28.16-.39.11-.11.24-.16.39-.16s.27.05.38.16c.11.11.16.24.16.39v1.01c0,.36.18.54.54.54h.35c.14,0,.27.05.37.16.1.1.16.23.16.37ZM139.5,52.4c0,.14-.05.26-.16.36-.1.1-.22.16-.36.16-.21,0-.36-.09-.46-.28-.26-.5-.57-1-.94-1.52-.06-.08-.08-.18-.08-.29,0-.14.05-.25.14-.35.1-.1.21-.14.35-.14.18,0,.31.07.41.2.43.61.77,1.14,1.02,1.61.05.09.07.17.07.25Z"/>
      <path class="cls-1" d="M154.87,50.89c0,.14-.05.27-.16.37-.1.1-.23.15-.37.15h-2.54c-.36,0-.54.18-.54.54v2.65c0,.31.09.48.26.52.04,0,.13.01.28.01h.76c.45,0,.73-.11.84-.32.06-.13.11-.46.13-1,0-.14.06-.27.17-.37.1-.1.23-.16.38-.16s.28.06.4.17c.11.11.16.24.16.4-.02.96-.17,1.59-.43,1.89s-.79.45-1.6.45h-1.28c-.48,0-.8-.08-.96-.23-.16-.16-.24-.47-.24-.95v-3.05c0-.36-.18-.54-.54-.54h-.46c-.34,0-.53.18-.55.53-.14,2.01-1.11,3.46-2.93,4.36-.08.04-.17.06-.28.06-.15,0-.29-.06-.41-.17-.12-.11-.18-.25-.18-.41,0-.25.11-.42.32-.53.76-.38,1.32-.82,1.69-1.33.37-.51.58-1.16.65-1.96.03-.37-.14-.55-.53-.55h-2.14c-.14,0-.27-.05-.37-.15-.1-.1-.16-.22-.16-.37s.05-.27.16-.37c.1-.1.23-.16.37-.16h3.77c.36,0,.54-.18.54-.54v-.72c0-.36-.18-.54-.54-.54h-1.62c-.43,0-.78.16-1.03.49l-.3.38c-.1.13-.24.19-.42.19-.15,0-.28-.05-.38-.16-.1-.11-.16-.24-.16-.39,0-.14.05-.27.14-.37.6-.67,1.11-1.42,1.54-2.26.1-.19.26-.29.49-.29.16,0,.29.05.4.16.1.11.16.24.16.39,0,.07-.02.16-.07.26s-.07.18-.07.25c0,.2.14.3.43.3h.89c.36,0,.54-.18.54-.54v-.64c0-.15.05-.28.16-.39.11-.11.24-.16.39-.16s.28.05.39.16c.11.11.16.24.16.39v.64c0,.36.18.54.54.54h2.77c.14,0,.27.05.37.16.1.1.16.22.16.36,0,.14-.05.27-.16.37s-.23.16-.37.16h-2.77c-.36,0-.54.18-.54.54v.72c0,.36.18.54.54.54h3.61c.14,0,.27.05.37.16s.16.23.16.37Z"/>
      <path class="cls-1" d="M166.99,55.39c0,.15-.05.28-.16.39-.11.11-.24.16-.39.16h-9.53c-.15,0-.28-.05-.38-.16-.1-.11-.16-.24-.16-.39s.05-.28.16-.39c.11-.11.23-.16.38-.16h3.71c.36,0,.54-.18.54-.54v-1.42c0-.36-.18-.54-.54-.54h-2.51c-.14,0-.27-.05-.37-.15-.1-.1-.15-.22-.15-.37s.05-.27.15-.37c.1-.1.22-.15.37-.15h2.51c.36,0,.54-.18.54-.54v-1.09c0-.36-.18-.54-.54-.54h-1.64c-.47,0-.83.2-1.08.6-.1.17-.27.41-.49.73-.11.16-.26.24-.46.24-.15,0-.28-.06-.4-.17-.11-.11-.17-.24-.17-.4,0-.14.04-.25.11-.35.79-1.08,1.4-2.18,1.84-3.29.09-.22.26-.34.52-.34.16,0,.29.06.4.17.11.11.16.24.16.4,0,.09-.08.32-.25.7-.04.1-.06.19-.06.28,0,.24.16.36.47.36h1.06c.36,0,.54-.18.54-.54v-1.08c0-.16.06-.3.17-.41.12-.12.25-.17.41-.17s.3.06.41.17c.11.12.17.25.17.41v1.08c0,.36.18.54.54.54h3.13c.15,0,.28.05.38.16.1.1.16.23.16.37,0,.15-.05.28-.16.38-.1.1-.23.16-.38.16h-3.13c-.36,0-.54.18-.54.54v1.09c0,.36.18.54.54.54h2.47c.14,0,.27.05.37.15.1.1.15.22.15.37s-.05.27-.15.37c-.1.1-.22.15-.37.15h-2.47c-.36,0-.54.18-.54.54v1.42c0,.36.18.54.54.54h3.58c.15,0,.28.05.39.16s.16.24.16.39Z"/>
      <path class="cls-1" d="M178.65,51.16c0,2.44-1.24,3.93-3.71,4.48-.02,0-.07.01-.13.01-.16,0-.3-.06-.41-.17-.12-.11-.17-.25-.17-.42,0-.32.14-.52.43-.59,1.85-.46,2.77-1.58,2.77-3.34,0-.92-.25-1.66-.74-2.21-.18-.21-.41-.39-.68-.55-.31-.18-.59-.26-.84-.26-.34,0-.55.2-.62.6-.3,1.74-.66,3.15-1.08,4.21-.26.67-.52,1.18-.78,1.51-.41.52-.88.78-1.43.78-.73,0-1.31-.36-1.75-1.09-.38-.62-.58-1.32-.58-2.09,0-1.49.49-2.72,1.48-3.7s2.23-1.46,3.71-1.46c1.4,0,2.5.36,3.29,1.08.83.75,1.25,1.82,1.25,3.2ZM173.31,48.75c0-.06.01-.11.01-.17,0-.3-.14-.44-.41-.44-.1,0-.2.02-.31.06-.74.26-1.34.73-1.8,1.43-.46.7-.7,1.5-.7,2.41,0,.5.12.93.35,1.31.23.38.49.57.78.57.34,0,.71-.48,1.1-1.45.33-.82.65-2.06.97-3.72Z"/>
      <path class="cls-1" d="M185.11,49.39c0,.15-.05.28-.16.38-.1.1-.23.16-.38.16-.25,0-.4-.09-.47-.28-.06-.16-.17-.24-.34-.24-.06,0-.12,0-.18.01-.81.14-1.64.27-2.51.41-.15.02-.29-.02-.4-.12-.12-.1-.17-.24-.17-.4,0-.3.15-.47.44-.5,1.04-.13,1.92-.25,2.65-.37.29-.05.43-.18.43-.41s-.16-.32-.48-.32h-2.24c-.14,0-.25-.05-.35-.14-.1-.1-.14-.21-.14-.35s.05-.25.14-.35c.1-.1.21-.14.35-.14h2.24c.32,0,.48-.12.48-.37,0-.15.05-.28.16-.39s.23-.16.38-.16.27.05.38.16c.11.11.16.24.16.39v3.04ZM189.91,55.05c0,.48-.09.81-.28.99-.18.18-.51.27-.98.27h-1.61c-.13,0-.24-.05-.33-.14-.09-.09-.14-.2-.14-.32,0-.13.05-.24.14-.33.09-.09.2-.14.33-.14h1.16c.22,0,.38-.04.46-.13s.12-.23.12-.45c0-.31-.16-.47-.48-.47h-4.74c-.32,0-.48.16-.48.48v1.02c0,.15-.06.28-.17.39s-.24.16-.4.16-.28-.05-.4-.16-.17-.24-.17-.39v-4.6c0-.68.34-1.02,1.02-1.02h5.92c.68,0,1.02.34,1.02,1.02v3.8ZM188.78,51.51c0-.26-.15-.4-.46-.4h-4.79c-.3,0-.46.13-.46.4,0,.23.14.35.42.35h4.86c.28,0,.42-.12.42-.35ZM188.78,53.09c0-.26-.14-.4-.42-.4h-4.86c-.28,0-.42.13-.42.4s.14.4.42.4h4.86c.28,0,.42-.13.42-.4ZM191.25,48.32c-.09.54-.23.92-.43,1.12-.2.2-.53.3-.98.3h-2.22c-.48,0-.8-.07-.97-.22s-.25-.45-.25-.92v-2.24c0-.15.05-.28.16-.39s.24-.16.39-.16.27.05.38.16c.11.11.16.24.16.39v.07c0,.3.12.44.37.44.05,0,.1,0,.16-.02.68-.17,1.36-.36,2.03-.59.05-.02.1-.02.14-.02.14,0,.26.05.36.15.1.1.16.22.16.35,0,.24-.12.4-.36.48-.74.25-1.52.46-2.32.62-.36.07-.54.24-.54.49,0,.22.04.35.13.4.06.05.2.07.4.07h1.55c.21,0,.35-.05.44-.14s.15-.26.19-.51c.05-.3.22-.44.53-.44.17,0,.3.06.41.19.1.12.14.27.12.43Z"/>
      <path class="cls-1" d="M196.04,48.94c0,.11-.04.22-.11.31-.1.13-.26.32-.47.59-.26.32-.38.67-.38,1.04v4.92c0,.14-.05.27-.16.38-.1.11-.23.16-.37.16-.15,0-.28-.05-.38-.16-.1-.1-.16-.23-.16-.38v-3.79c0-.21-.07-.31-.2-.31-.07,0-.15.04-.24.12l-.22.19c-.09.08-.21.12-.36.12s-.28-.05-.39-.16-.16-.24-.16-.39c0-.18.07-.33.2-.43.38-.3.82-.72,1.31-1.28.6-.68,1.01-1.12,1.22-1.32.09-.09.2-.13.34-.13.14,0,.27.05.37.16.1.1.16.23.16.37ZM195.76,46.41c0,.1-.04.2-.11.3-.61.82-1.3,1.55-2.08,2.2-.1.09-.22.13-.36.13-.15,0-.28-.05-.38-.16-.1-.1-.16-.23-.16-.38,0-.17.07-.31.22-.42.73-.58,1.38-1.24,1.96-1.98.1-.14.24-.2.41-.2.14,0,.26.05.36.15.1.1.14.22.14.37ZM203.43,50.99c0,.14-.05.27-.16.38s-.23.16-.38.16c-.16,0-.3-.08-.43-.24-.18-.23-.41-.33-.68-.3-.33.03-.83.08-1.5.14-.38.04-.66.16-.83.37-.03.04-.05.08-.05.12,0,.13.12.19.37.19h1.78c.52,0,.78.2.78.59,0,.18-.08.37-.23.55-.37.44-.73.82-1.09,1.13-.11.1-.17.19-.17.29,0,.12.08.21.24.28.56.22,1.17.41,1.82.56.26.06.4.23.4.5,0,.14-.05.27-.15.37s-.22.15-.37.15c-.03,0-.08,0-.13-.02-.95-.26-1.75-.54-2.4-.86-.21-.1-.4-.16-.58-.16s-.37.05-.58.16c-.74.37-1.6.68-2.59.94-.03,0-.07.01-.12.01-.14,0-.25-.05-.35-.14-.1-.1-.14-.21-.14-.35,0-.26.13-.43.38-.49.78-.18,1.45-.4,2.03-.66.16-.07.24-.17.24-.29,0-.09-.07-.21-.22-.37-.11-.11-.23-.23-.35-.35s-.25-.19-.4-.19c-.11,0-.23.04-.36.13-.26.19-.5.35-.7.47-.06.04-.14.06-.24.06-.13,0-.24-.04-.33-.13-.09-.09-.14-.2-.14-.32,0-.18.08-.31.23-.4.69-.41,1.34-.92,1.96-1.54.06-.06.1-.13.1-.2,0-.13-.09-.19-.28-.18-.57.04-1.06.07-1.49.08-.13,0-.24-.04-.34-.13-.1-.1-.15-.21-.15-.34s.04-.24.13-.33c.09-.09.2-.14.32-.14h.52c.37-.02.71-.15,1.03-.41l.06-.05c.13-.1.19-.22.19-.34,0-.13-.07-.24-.22-.35-.5-.36-1-.7-1.52-1.03-.15-.1-.23-.24-.23-.42,0-.14.05-.25.15-.35.1-.1.22-.15.35-.15.08,0,.18.03.29.1s.21.1.29.1c.13,0,.25-.06.36-.18.46-.49.86-.96,1.2-1.43.1-.14.23-.2.41-.2.14,0,.25.05.35.15.1.1.14.22.14.35,0,.12-.04.22-.11.31-.36.44-.74.87-1.15,1.3-.11.11-.17.22-.17.34,0,.13.07.24.22.35l.19.14c.1.08.21.12.31.12.12,0,.24-.06.36-.18.67-.69,1.22-1.28,1.64-1.79.1-.12.22-.18.38-.18.14,0,.27.05.37.15s.15.22.15.35c0,.13-.04.24-.13.34-.78.85-1.55,1.62-2.32,2.32-.11.1-.17.2-.17.29,0,.14.12.21.37.19.54-.03,1.01-.07,1.43-.12.21-.02.31-.11.31-.26,0-.08-.04-.17-.11-.28l-.04-.05c-.06-.06-.08-.14-.08-.26,0-.14.05-.25.15-.35s.22-.15.35-.15c.14,0,.27.06.38.19.55.64.98,1.19,1.3,1.66.06.1.1.19.1.29ZM200.8,53.02c.06-.07.1-.14.1-.2,0-.13-.11-.19-.32-.19h-1.66c-.21,0-.31.08-.31.23,0,.07.03.14.1.22.16.18.35.36.56.54.14.11.28.17.42.17.15,0,.3-.06.46-.18.33-.26.55-.45.66-.58Z"/>
      <path class="cls-1" d="M212.06,50.38c0,1.3-.21,2.7-.64,4.22-.13.46-.27.78-.42.97-.22.29-.52.43-.9.43-.44,0-.99-.12-1.66-.35-.27-.1-.41-.28-.41-.54,0-.16.06-.3.17-.41.12-.11.25-.17.4-.17.06,0,.12,0,.17.02.42.14.7.2.86.2.19,0,.33-.06.41-.17.06-.08.14-.26.22-.54.38-1.29.56-2.46.56-3.5,0-.38-.08-.64-.23-.77-.15-.13-.44-.19-.86-.19h-.17c-.07,0-.13.01-.18.01-.4,0-.66.21-.78.62-.54,1.82-1.25,3.57-2.14,5.27-.12.23-.31.35-.56.35-.18,0-.32-.06-.44-.19s-.18-.27-.18-.45c0-.13.02-.24.07-.32.75-1.32,1.42-2.81,1.99-4.48.02-.08.04-.15.04-.22,0-.29-.17-.41-.52-.36-.25.04-.64.1-1.16.17-.17.02-.32-.02-.46-.14-.14-.12-.21-.26-.21-.44,0-.34.18-.53.53-.58.35-.05.91-.12,1.67-.21.38-.03.64-.27.78-.72.07-.39.14-.78.2-1.18.06-.34.26-.52.6-.52.19,0,.35.07.46.21.12.14.16.31.13.5,0,.04-.04.22-.11.53-.06.22-.08.39-.08.52,0,.34.19.49.56.47h.18c.61-.05,1.1.06,1.48.31.42.29.62.83.62,1.62ZM213.67,47.75c0,.13-.05.24-.14.33-.09.09-.2.14-.33.14-.19,0-.33-.07-.42-.22-.23-.37-.48-.68-.74-.95-.09-.09-.13-.2-.13-.32,0-.32.16-.48.47-.48.14,0,.26.06.36.18.34.38.62.73.84,1.06.06.1.1.18.1.26ZM214.43,51.95c-.34-.87-.79-1.72-1.36-2.56-.06-.1-.1-.2-.1-.32,0-.17.06-.31.19-.43.12-.12.27-.17.44-.17.2,0,.36.09.49.26.63.89,1.14,1.81,1.54,2.76.03.08.05.16.05.24,0,.17-.07.32-.21.44s-.3.19-.47.19c-.26,0-.45-.14-.56-.42ZM215.13,47.07c0,.13-.05.24-.14.33-.09.09-.2.14-.33.14-.18,0-.32-.07-.42-.22-.26-.39-.51-.72-.74-.97-.09-.1-.13-.2-.13-.3,0-.32.16-.48.48-.48.12,0,.24.06.35.17.28.28.56.64.85,1.07.06.11.08.2.08.26Z"/>
      <path class="cls-1" d="M51.62,69.65c0,.14-.05.27-.16.38-.1.11-.23.16-.38.16-.14,0-.26-.04-.36-.13-.13-.1-.33-.28-.6-.53-.11-.1-.22-.16-.32-.16-.13,0-.24.07-.35.22-.21.27-.72.78-1.55,1.51-.11.1-.24.14-.37.14-.15,0-.28-.06-.4-.17s-.17-.24-.17-.4c0-.18.06-.32.18-.42.56-.44,1.05-.9,1.48-1.38.1-.1.14-.21.14-.32,0-.13-.07-.25-.2-.36-.16-.13-.48-.38-.96-.76-.23-.18-.35-.39-.35-.61,0-.09.02-.19.06-.31.17-.49.41-1.21.72-2.17.02-.06.04-.13.04-.19,0-.24-.15-.36-.44-.36h-.41c-.14,0-.25-.05-.35-.15-.1-.1-.15-.22-.15-.37,0-.14.05-.25.15-.35s.22-.15.35-.15h.79c.3,0,.47-.14.53-.42.03-.15.11-.53.23-1.13.06-.3.24-.46.55-.46.16,0,.3.07.41.2.12.14.16.27.14.4-.03.17-.09.45-.18.85-.02.06-.02.12-.02.17,0,.26.14.38.43.38h.56c.69,0,1,.34.92,1.03-.18,1.69-.53,3.06-1.06,4.12-.05.1-.07.19-.07.28,0,.14.07.27.2.38.09.09.34.3.77.65.13.1.19.24.19.42ZM50.52,64.28c.03-.32-.08-.48-.32-.48h-.5c-.29,0-.46.14-.53.41-.1.46-.33,1.16-.68,2.11-.03.08-.05.16-.05.23,0,.16.07.3.22.41l.43.34c.11.09.22.13.34.13.14,0,.26-.08.36-.25.37-.66.62-1.63.74-2.89ZM57.78,65.9c0,.14-.05.27-.15.37-.1.1-.22.15-.35.15h-1.43c-.36,0-.54.18-.54.54v2.83c0,.56-.1.93-.29,1.11-.19.18-.57.27-1.14.27h-.64c-.14,0-.27-.05-.37-.16-.1-.1-.16-.23-.16-.37s.05-.27.16-.37.23-.16.37-.16h.55c.2,0,.33-.06.38-.18.04-.08.06-.24.06-.47v-2.51c0-.36-.18-.54-.54-.54h-1.48c-.14,0-.26-.05-.36-.15s-.16-.22-.16-.37.05-.27.16-.37.22-.15.36-.15h1.48c.36,0,.54-.18.54-.54v-.78c0-.24.12-.4.36-.48.12-.04.2-.07.24-.08.07-.04.14-.09.19-.16.26-.31.42-.52.49-.62.06-.08.08-.15.08-.22,0-.16-.13-.24-.38-.24h-2.42c-.14,0-.25-.05-.35-.15-.1-.1-.14-.22-.14-.35s.05-.25.14-.34c.1-.09.21-.14.35-.14h3.49c.58,0,.86.23.86.68,0,.22-.08.45-.25.67l-.06.08c-.34.45-.74.94-1.2,1.48-.22.26-.34.48-.34.65,0,.36.18.54.54.54h1.43c.14,0,.25.05.35.15.1.1.15.22.15.37Z"/>
      <path class="cls-1" d="M68.73,64.33c0,.26-.12.43-.37.52-.53.18-1.01.33-1.44.43-.26.06-.38.19-.38.37,0,.1.04.21.12.32.39.54.76,1.01,1.09,1.39.11.13.17.27.17.43,0,.18-.06.34-.19.47-.13.13-.28.2-.47.2-.1,0-.19-.02-.28-.05-1.06-.42-2.06-.64-3-.64-1.54,0-2.3.36-2.3,1.09s.97,1.07,2.9,1.07c.66,0,1.42-.04,2.26-.13.16-.02.3.03.43.14.13.11.19.24.19.4,0,.33-.17.51-.5.54-.76.08-1.56.12-2.4.12-2.7,0-4.04-.7-4.04-2.11s1.08-2.1,3.24-2.1c.5,0,1.09.08,1.76.23.06.02.12.02.17.02.16,0,.24-.06.24-.17,0-.08-.04-.17-.12-.28-.04-.06-.15-.2-.32-.44-.22-.3-.48-.44-.8-.44-.1,0-.2,0-.32.02-1.11.15-2.33.22-3.66.2-.14,0-.27-.05-.37-.16-.1-.1-.15-.23-.15-.37s.05-.27.16-.38.23-.16.37-.15c.99.03,2.05-.01,3.18-.13.3-.03.46-.15.46-.36,0-.1-.03-.19-.1-.28-.19-.33-.47-.47-.83-.43-.69.08-1.48.12-2.38.12-.14,0-.26-.05-.37-.16-.11-.1-.16-.22-.16-.36,0-.14.05-.27.16-.37.11-.1.23-.15.37-.15.66,0,1.28-.01,1.85-.06.34-.03.5-.14.5-.32,0,0-.07-.18-.22-.53-.02-.06-.04-.12-.04-.19,0-.16.06-.3.17-.41.11-.12.25-.17.42-.17.26,0,.44.13.54.38.03.1.09.24.17.44.12.3.32.46.6.46.07,0,.15-.01.23-.04.56-.14,1.12-.32,1.68-.52.06-.02.12-.04.18-.04.15,0,.28.05.39.16.11.1.16.23.16.38,0,.27-.13.45-.38.53-.59.19-1.11.34-1.56.44-.29.06-.43.2-.43.4,0,.09.03.18.1.26l.02.04c.17.26.37.38.61.38.06,0,.13,0,.2-.02.63-.15,1.22-.33,1.78-.54.04-.02.1-.02.17-.02.15,0,.28.05.39.16.11.1.16.23.16.38Z"/>
      <path class="cls-1" d="M81.07,62.45c0,.32-.22.51-.65.58-1.21.18-2.28.68-3.22,1.49-.94.81-1.4,1.67-1.4,2.56,0,1.3,1.04,2.12,3.11,2.48.34.06.52.26.52.61,0,.19-.07.35-.22.49-.15.13-.32.18-.51.14-1.24-.24-2.18-.61-2.83-1.1-.86-.66-1.28-1.5-1.28-2.52,0-.86.29-1.65.88-2.35.26-.3.51-.56.76-.77s.37-.38.37-.53c0-.19-.2-.27-.61-.24-1.64.14-2.97.28-4,.42-.18.02-.33-.02-.46-.14-.13-.12-.19-.27-.19-.44,0-.15.05-.29.15-.4.1-.12.23-.18.38-.19,1.47-.14,4.3-.36,8.48-.65.22,0,.39.04.53.15.14.11.2.25.2.41ZM80.42,65.99c0,.13-.05.24-.14.33-.09.09-.2.14-.33.14-.19,0-.33-.07-.42-.22-.23-.37-.48-.68-.74-.95-.09-.09-.13-.2-.13-.32,0-.32.16-.48.47-.48.14,0,.26.06.36.18.34.38.62.73.84,1.06.06.1.1.18.1.26ZM81.89,65.31c0,.13-.05.24-.14.33-.09.09-.2.14-.33.14-.18,0-.32-.07-.42-.22-.26-.39-.51-.72-.74-.97-.09-.1-.13-.2-.13-.3,0-.32.16-.48.48-.48.12,0,.24.06.35.17.28.28.56.64.85,1.07.06.11.08.2.08.26Z"/>
      <path class="cls-1" d="M93.83,63.11c0,.16-.06.3-.17.41s-.25.17-.41.17c-1.26-.02-2.1-.02-2.53-.01-.39,0-.59.2-.59.61v.66c0,.3.08.75.24,1.36.06.25.1.5.1.77,0,1.06-.29,1.92-.86,2.6-.58.68-1.47,1.2-2.68,1.58-.06.02-.12.02-.18.02-.15,0-.29-.06-.4-.17-.12-.11-.17-.25-.17-.42,0-.28.14-.46.42-.55,1.14-.34,1.93-.87,2.38-1.58.08-.13.12-.24.12-.32,0-.11-.06-.17-.18-.17-.07,0-.16.02-.25.07-.22.11-.47.17-.73.17-.59,0-1.07-.15-1.43-.44-.39-.33-.59-.78-.59-1.36s.22-1.08.66-1.43c.41-.33.92-.49,1.52-.49.06,0,.14,0,.25.01.11,0,.19.01.24.01.23,0,.35-.1.35-.3,0-.41-.2-.6-.61-.59-1.46.06-2.92.14-4.4.25-.17.02-.31-.03-.44-.15-.12-.12-.19-.26-.19-.43s.05-.29.16-.4c.11-.11.24-.17.39-.17l4.46-.22c.38-.02.58-.2.58-.54v-.54c0-.17.06-.31.19-.44.12-.12.27-.19.44-.19s.31.06.43.18c.12.12.18.26.18.43v.46c0,.41.2.61.6.6,1.21-.02,2.06-.02,2.54-.01.16,0,.29.05.4.16s.16.24.16.4ZM88.86,66.54c.03-.11.05-.22.05-.31,0-.3-.13-.51-.38-.61-.14-.06-.3-.08-.48-.08-.27,0-.5.09-.69.26-.19.18-.28.4-.28.66,0,.55.29.83.88.83.48,0,.78-.25.91-.74Z"/>
      <path class="cls-1" d="M98.71,69.78c0,.49-.17.9-.52,1.24-.34.34-.76.51-1.25.51s-.9-.17-1.24-.51-.51-.75-.51-1.24.17-.9.51-1.25c.34-.34.75-.52,1.24-.52s.9.17,1.25.52c.34.34.52.76.52,1.25ZM97.86,69.78c0-.26-.09-.47-.26-.65s-.39-.26-.65-.26-.46.09-.64.27c-.18.18-.26.39-.26.64s.09.46.26.63c.18.17.39.26.64.26s.47-.08.65-.25.26-.38.26-.64Z"/>
      <path class="cls-1" d="M118.08,66.69c0,.14-.05.25-.15.35-.1.1-.22.15-.35.15h-3.84c-.28,0-.42.1-.42.3,0,.09.04.18.11.29.15.21.34.42.58.65.15.14.31.22.47.22.14,0,.29-.06.44-.17.37-.27.72-.57,1.04-.9.11-.11.24-.17.37-.17.14,0,.27.05.37.15s.16.22.16.37-.06.27-.18.38c-.2.18-.49.41-.86.68-.14.1-.22.22-.22.34,0,.13.08.24.25.32.38.19.92.39,1.61.6.26.08.4.26.4.54,0,.16-.06.29-.17.4-.11.11-.24.16-.4.16-.02,0-.08,0-.16-.02-1.15-.35-2.1-.79-2.86-1.32-.84-.58-1.56-1.34-2.15-2.28-.22-.36-.54-.54-.94-.54h-.26c-.32,0-.48.16-.48.48v1.69c0,.3.13.44.38.44.05,0,.1,0,.16-.02.48-.11.91-.22,1.3-.34.06-.02.1-.02.14-.02.13,0,.24.05.34.14.1.1.15.22.15.36,0,.25-.12.41-.36.48-1.32.4-2.75.71-4.3.92-.16.02-.3-.02-.43-.13s-.19-.24-.19-.4c0-.14.05-.25.14-.35.09-.1.2-.16.33-.17.17-.02.42-.05.76-.1.3-.05.44-.22.44-.52v-1.97c0-.32-.16-.48-.48-.48h-.83c-.14,0-.27-.05-.37-.16-.1-.1-.15-.23-.15-.37s.05-.27.15-.37c.1-.1.22-.15.37-.15h.83c.32,0,.48-.16.48-.48v-3.41c0-.76.38-1.14,1.14-1.14h6.28c.14,0,.25.05.35.15.1.1.15.22.15.35s-.05.25-.15.35c-.1.1-.22.15-.35.15h-5.82c-.31,0-.47.13-.47.38s.16.38.48.38h5.2c.12,0,.22.04.31.13s.13.19.13.31-.04.22-.13.31-.19.13-.31.13h-5.2c-.32,0-.48.12-.48.36s.16.37.48.37h5.24c.12,0,.22.04.31.13s.13.19.13.31c0,.13-.04.23-.13.32s-.19.13-.31.13h-5.24c-.32,0-.48.13-.48.38s.16.38.48.38h6.65c.14,0,.25.05.35.15.1.1.15.22.15.35Z"/>
      <path class="cls-1" d="M124.76,68.44c-.7,1.38-1.38,2.08-2.03,2.08-.8,0-1.42-.71-1.86-2.14-.34-1.1-.52-2.36-.52-3.76,0-.72.02-1.34.07-1.86.02-.17.08-.31.2-.42.12-.11.26-.17.43-.17.18,0,.34.07.46.21s.18.3.16.49c-.06.54-.08,1.16-.08,1.86,0,.92.1,1.83.3,2.74.22,1,.52,1.5.89,1.5.26,0,.56-.36.9-1.08.1-.22.28-.32.54-.32.17,0,.31.06.43.17.12.12.17.26.17.43,0,.1-.02.2-.06.28ZM129.96,68.07c.02.19-.03.36-.16.52-.13.15-.29.23-.49.23-.17,0-.32-.06-.44-.17-.13-.11-.2-.25-.22-.41-.2-1.82-.79-3.43-1.76-4.85-.07-.1-.11-.22-.11-.35,0-.18.06-.32.18-.44s.27-.18.44-.18c.22,0,.39.09.52.26,1.1,1.54,1.78,3.33,2.04,5.39Z"/>
      <path class="cls-1" d="M134.85,61.24s0,.1-.02.16c-.11.41-.24.82-.4,1.24-.13.34-.19.69-.19,1.03v7.16c0,.15-.06.28-.17.4-.11.11-.24.17-.4.17s-.28-.06-.4-.17-.17-.24-.17-.4v-4.51c0-.21-.06-.31-.18-.31-.09,0-.17.06-.25.18l-.31.47c-.1.15-.25.23-.43.23-.15,0-.28-.05-.38-.16s-.16-.23-.16-.38c0-.12.03-.22.1-.31,1.03-1.42,1.8-3.06,2.32-4.91.07-.26.24-.4.52-.4.15,0,.28.05.38.15s.15.22.15.37ZM142.49,63.65c0,.14-.05.27-.16.37-.1.1-.23.16-.37.16h-.66c-.36,0-.54.18-.54.54v4.55c0,.74-.11,1.22-.34,1.46-.22.24-.67.36-1.34.36h-1.03c-.14,0-.27-.05-.38-.16-.11-.1-.16-.23-.16-.37s.05-.27.16-.38c.11-.11.23-.16.38-.16h.82c.34,0,.56-.07.66-.22.07-.11.11-.34.11-.67v-4.42c0-.36-.18-.54-.54-.54h-3.65c-.14,0-.27-.05-.37-.16-.1-.1-.16-.23-.16-.37,0-.15.05-.28.16-.38.1-.1.23-.16.37-.16h3.65c.36,0,.54-.18.54-.54v-1.13c0-.15.06-.28.17-.4.11-.11.24-.17.4-.17s.28.06.4.17c.11.11.17.24.17.4v1.13c0,.36.18.54.54.54h.66c.14,0,.27.05.37.16.1.1.16.23.16.38ZM138.17,67.55c0,.16-.06.3-.17.41-.12.11-.25.17-.4.17-.22,0-.38-.1-.49-.3-.3-.54-.63-1.02-.97-1.45-.07-.09-.11-.2-.11-.32,0-.15.05-.28.16-.39.1-.11.23-.16.38-.16.18,0,.33.07.44.22.38.5.74,1.01,1.08,1.55.06.09.08.18.08.29Z"/>
      <path class="cls-1" d="M153.58,64.33c0,.26-.12.43-.37.52-.53.18-1.01.33-1.44.43-.26.06-.38.19-.38.37,0,.1.04.21.12.32.39.54.76,1.01,1.09,1.39.11.13.17.27.17.43,0,.18-.06.34-.19.47-.13.13-.28.2-.47.2-.1,0-.19-.02-.28-.05-1.06-.42-2.06-.64-3-.64-1.54,0-2.3.36-2.3,1.09s.97,1.07,2.9,1.07c.66,0,1.42-.04,2.26-.13.16-.02.3.03.43.14.13.11.19.24.19.4,0,.33-.17.51-.5.54-.76.08-1.56.12-2.4.12-2.7,0-4.04-.7-4.04-2.11s1.08-2.1,3.24-2.1c.5,0,1.09.08,1.76.23.06.02.12.02.17.02.16,0,.24-.06.24-.17,0-.08-.04-.17-.12-.28-.04-.06-.15-.2-.32-.44-.22-.3-.48-.44-.8-.44-.1,0-.21,0-.32.02-1.11.15-2.33.22-3.66.2-.14,0-.27-.05-.37-.16-.1-.1-.15-.23-.15-.37s.05-.27.16-.38c.1-.11.23-.16.37-.15.99.03,2.05-.01,3.18-.13.3-.03.46-.15.46-.36,0-.1-.03-.19-.1-.28-.19-.33-.47-.47-.83-.43-.69.08-1.48.12-2.38.12-.13,0-.26-.05-.37-.16-.11-.1-.16-.22-.16-.36,0-.14.05-.27.16-.37s.23-.15.37-.15c.66,0,1.28-.01,1.85-.06.34-.03.5-.14.5-.32,0,0-.07-.18-.21-.53-.02-.06-.04-.12-.04-.19,0-.16.06-.3.17-.41.11-.12.25-.17.42-.17.27,0,.45.13.54.38.03.1.09.24.17.44.12.3.32.46.6.46.07,0,.15-.01.23-.04.56-.14,1.12-.32,1.68-.52.06-.02.12-.04.18-.04.15,0,.28.05.39.16s.16.23.16.38c0,.27-.13.45-.38.53-.59.19-1.11.34-1.56.44-.29.06-.43.2-.43.4,0,.09.03.18.1.26l.03.04c.17.26.37.38.61.38.06,0,.13,0,.21-.02.63-.15,1.22-.33,1.78-.54.04-.02.1-.02.17-.02.15,0,.28.05.39.16.11.1.16.23.16.38Z"/>
      <path class="cls-1" d="M166.73,64.77c0,.15-.05.28-.16.4-.11.11-.24.17-.39.17-.09,0-.17-.02-.25-.06-1.67-.86-3.06-1.84-4.18-2.94-.18-.18-.36-.28-.54-.28s-.36.09-.54.28c-1.05,1.06-2.39,2.04-4.03,2.94-.07.04-.16.06-.25.06-.15,0-.28-.05-.39-.16-.11-.11-.16-.24-.16-.39,0-.22.1-.38.29-.48,1.5-.79,2.8-1.74,3.88-2.83.38-.39.8-.59,1.24-.59.41,0,.79.17,1.14.52,1.12,1.1,2.47,2.06,4.06,2.88.2.1.3.27.3.49ZM165.37,69.85c0,.8-.4,1.2-1.2,1.2h-5.83c-.8,0-1.2-.4-1.2-1.2v-2.21c0-.8.4-1.2,1.2-1.2h5.83c.8,0,1.2.4,1.2,1.2v2.21ZM164.27,64.74c0,.15-.05.28-.16.38-.1.1-.23.16-.37.16h-5.02c-.14,0-.27-.05-.37-.16-.1-.1-.16-.23-.16-.38,0-.14.05-.27.16-.37.1-.1.23-.15.37-.15h5.02c.14,0,.27.05.37.15.1.1.16.22.16.37ZM164.24,69.56v-1.61c0-.32-.16-.48-.48-.48h-5.03c-.31,0-.47.16-.47.48v1.61c0,.31.16.47.47.47h5.03c.32,0,.48-.16.48-.47Z"/>
      <path class="cls-1" d="M173.24,68.44c-.7,1.38-1.38,2.08-2.03,2.08-.8,0-1.42-.71-1.86-2.14-.34-1.1-.52-2.36-.52-3.76,0-.72.02-1.34.07-1.86.02-.17.08-.31.2-.42.12-.11.26-.17.43-.17.18,0,.34.07.46.21s.18.3.16.49c-.06.54-.08,1.16-.08,1.86,0,.92.1,1.83.3,2.74.22,1,.52,1.5.89,1.5.26,0,.56-.36.9-1.08.1-.22.28-.32.54-.32.17,0,.31.06.43.17.12.12.17.26.17.43,0,.1-.02.2-.06.28ZM178.44,68.07c.02.19-.03.36-.16.52-.13.15-.29.23-.49.23-.17,0-.32-.06-.44-.17-.13-.11-.2-.25-.22-.41-.2-1.82-.79-3.43-1.76-4.85-.07-.1-.11-.22-.11-.35,0-.18.06-.32.18-.44.12-.12.27-.18.44-.18.22,0,.39.09.52.26,1.1,1.54,1.78,3.33,2.04,5.39Z"/>
      <path class="cls-1" d="M182.96,62.03c-.32,1.83-.48,3.56-.48,5.2,0,1.14.04,2.1.13,2.87.02.18-.03.35-.16.49-.13.14-.28.22-.47.22-.17,0-.31-.06-.43-.17-.12-.11-.19-.25-.2-.41-.08-.77-.12-1.74-.12-2.93,0-1.78.17-3.6.5-5.48.06-.34.27-.52.61-.52.19,0,.35.07.47.22.12.15.17.32.14.51ZM190.25,69.35c0,.14-.05.27-.16.39-.1.12-.23.18-.37.2-1.04.14-1.91.2-2.6.2-2.12,0-3.18-.64-3.18-1.92,0-.36.1-.73.3-1.1.11-.22.28-.32.5-.32.39,0,.59.19.59.56,0,.08-.02.2-.07.35-.05.16-.07.28-.07.38,0,.33.2.56.59.68.34.12.87.18,1.6.18.59,0,1.32-.07,2.18-.2.18-.03.35.01.49.14s.21.28.21.46ZM189.83,63c0,.15-.05.28-.15.4-.1.11-.23.18-.38.2-.9.13-1.86.19-2.87.19-.45,0-.94-.02-1.46-.05-.15,0-.28-.07-.4-.19-.11-.12-.17-.25-.17-.41,0-.18.07-.32.2-.44.13-.12.28-.17.45-.15.45.04.92.06,1.43.06.9,0,1.79-.07,2.65-.2.18-.03.35.01.49.13.14.12.21.27.21.46Z"/>
      <path class="cls-1" d="M198.07,63.69c-.41.09-.8.16-1.19.22-.45.07-.75.32-.9.74-.56,1.61-1.2,3.14-1.91,4.58-.11.23-.3.35-.55.35-.17,0-.31-.06-.43-.18-.12-.12-.18-.26-.18-.43,0-.1.02-.19.07-.29.67-1.3,1.25-2.61,1.74-3.94.03-.09.05-.16.05-.23,0-.25-.17-.37-.5-.37h-.68c-.16,0-.3-.06-.41-.17-.11-.12-.17-.25-.17-.41s.06-.31.18-.43c.12-.12.26-.17.43-.16.35.02.68.02.98.01.49,0,.79-.25.91-.73.06-.27.13-.54.2-.82.12-.3.32-.46.59-.46.17,0,.31.06.43.18.12.12.18.26.18.42,0,.06-.04.24-.12.52-.02.1-.04.18-.04.25,0,.24.11.36.32.36.04,0,.08,0,.13-.01l.62-.13c.07-.02.12-.02.14-.02.16,0,.29.06.39.17.1.12.15.26.15.43,0,.3-.15.49-.46.55ZM202.62,69.63c0,.16-.06.3-.17.42-.12.12-.26.18-.43.18-.1,0-.21-.04-.32-.11-.26-.18-.54-.34-.84-.5-.1-.06-.18-.08-.26-.08-.19,0-.33.14-.41.42-.23.81-.94,1.21-2.14,1.21-.63,0-1.16-.14-1.58-.41-.5-.31-.76-.77-.76-1.37s.24-1.04.71-1.36c.41-.27.92-.41,1.55-.41.18,0,.38.02.6.05.18.02.33,0,.43-.08.1-.08.15-.22.15-.41v-1.75c-.01-.16.04-.3.16-.41.11-.12.25-.17.41-.17s.3.06.41.17c.11.11.17.25.17.41v2.02c.01.44.23.76.67.96.38.18.84.42,1.37.73.2.12.3.29.3.5ZM199.13,69.29c0-.34-.19-.54-.58-.6-.23-.04-.44-.06-.61-.06-.73,0-1.09.26-1.09.77,0,.23.1.41.29.55.2.13.45.2.76.2.56,0,.92-.14,1.09-.41.09-.14.13-.29.13-.44ZM202.73,64.28c0,.16-.06.3-.17.41-.12.12-.25.17-.41.17-.11,0-.22-.04-.32-.11-.61-.41-1.25-.76-1.93-1.04-.22-.1-.34-.27-.34-.53,0-.16.06-.3.17-.41.12-.11.25-.17.4-.17.09,0,.16.02.22.05.75.32,1.46.69,2.11,1.12.18.12.28.29.28.5Z"/>
      <path class="cls-1" d="M214.23,67.79c0,1.14-.47,2-1.42,2.56-.75.45-1.67.67-2.75.67-.94,0-1.67-.15-2.21-.45-.54-.3-.81-.7-.81-1.21s.19-.86.56-1.13c.34-.25.75-.37,1.25-.37.67,0,1.24.21,1.7.62.24.22.43.46.58.72.14.26.31.4.5.4.11,0,.24-.04.38-.12.66-.35.98-.89.98-1.62,0-.54-.2-.97-.59-1.27-.4-.3-.93-.45-1.59-.44-1.7.02-3.21.57-4.55,1.64-.2.16-.36.24-.48.24-.15,0-.28-.05-.4-.16s-.17-.24-.17-.4c0-.18.07-.32.2-.43,1.18-1,2.67-2.27,4.45-3.8.14-.13.22-.24.22-.35,0-.17-.15-.24-.46-.22-.54.04-1.44.1-2.71.18-.16,0-.3-.04-.42-.16-.12-.11-.18-.25-.18-.41s.05-.3.16-.41c.11-.11.24-.17.4-.17,1.52,0,3.13-.09,4.82-.24.25-.02.45.03.6.15s.23.29.23.49-.11.4-.32.58c-.82.66-1.68,1.37-2.6,2.15-.13.1-.19.2-.19.3,0,.12.09.18.26.18.06,0,.12,0,.18-.02.43-.09.84-.13,1.21-.13.91,0,1.65.21,2.21.62.62.46.94,1.14.94,2.02ZM209.58,69.99c.3.02.46-.1.46-.36,0-.13-.06-.25-.17-.37-.27-.3-.62-.46-1.04-.46s-.66.16-.66.47c0,.28.24.48.71.61.19.05.43.08.71.11Z"/>
      <path class="cls-1" d="M223.81,65.31c0,1.26-.21,2.67-.64,4.22-.12.45-.26.77-.41.97-.22.29-.53.43-.91.43-.42,0-.97-.12-1.66-.35-.27-.09-.41-.27-.41-.54,0-.16.06-.3.17-.41.12-.11.25-.17.4-.17.06,0,.15.02.25.05.34.12.6.18.78.18.19,0,.33-.06.41-.17.06-.09.14-.27.22-.54.38-1.34.56-2.51.56-3.5,0-.38-.08-.64-.23-.77s-.44-.19-.86-.19c-.38,0-.63.04-.77.12-.17.1-.29.27-.36.52-.52,1.74-1.23,3.5-2.14,5.27-.12.23-.31.35-.56.35-.18,0-.32-.06-.44-.19s-.18-.27-.18-.45c0-.14.02-.24.07-.32.82-1.42,1.48-2.91,1.99-4.48.02-.08.04-.15.04-.22,0-.29-.17-.41-.52-.36-.25.03-.64.09-1.16.17-.17.02-.32-.02-.46-.14-.14-.12-.21-.26-.21-.44,0-.34.17-.53.52-.58s.91-.12,1.67-.22c.38-.04.64-.28.78-.72.02-.06.09-.46.2-1.18.06-.34.26-.52.6-.52.19,0,.35.07.46.21s.16.31.13.5c0,.04-.04.22-.11.53-.06.23-.08.4-.08.52,0,.34.19.49.56.47h.18c.62-.05,1.11.06,1.48.31.42.29.62.83.62,1.62ZM227.43,66.21c0,.18-.06.33-.19.46s-.27.19-.45.19c-.29,0-.49-.14-.6-.42-.42-1.08-.95-2.06-1.6-2.95-.07-.1-.11-.21-.11-.34,0-.17.06-.31.17-.43.12-.12.26-.18.43-.18.2,0,.36.08.49.25.73.95,1.33,2.01,1.81,3.18.02.06.04.14.04.24Z"/>
      <path class="cls-1" d="M47.48,84.87c0,.34-.17.54-.52.59-1.32.18-2.64.28-3.96.28-2.35,0-3.53-.71-3.53-2.12,0-.86.6-1.76,1.81-2.69.24-.18.36-.4.36-.64,0-.11-.02-.23-.07-.36-.35-.89-.64-1.84-.88-2.87,0-.04-.01-.08-.01-.13,0-.18.06-.33.19-.45s.27-.19.45-.19c.15,0,.29.05.4.16.12.1.19.23.22.38.15.8.37,1.6.66,2.41.1.26.25.4.46.4.11,0,.23-.04.35-.11.07-.04.96-.52,2.65-1.45.1-.06.2-.08.29-.08.17,0,.31.06.43.18.12.12.17.26.17.43,0,.25-.11.43-.34.54-.98.49-2.05,1.06-3.19,1.73-.73.42-1.31.82-1.74,1.19-.62.54-.94,1.02-.94,1.46,0,.72.75,1.08,2.26,1.08,1.24,0,2.5-.11,3.78-.32.18-.03.34.01.48.13.14.12.22.27.22.46Z"/>
      <path class="cls-1" d="M52.38,82.82s0,.08-.02.13c-.22.82-.56,1.6-1,2.34-.11.18-.27.28-.47.28-.15,0-.28-.05-.38-.16-.1-.11-.16-.23-.16-.38,0-.1.03-.19.08-.28.4-.62.71-1.32.94-2.09.07-.25.24-.37.49-.37.14,0,.27.05.37.16s.15.23.15.37ZM59.93,80.39c0,.68-.34,1.02-1.02,1.02h-6.85c-.68,0-1.02-.34-1.02-1.02v-3.22c0-.68.34-1.02,1.02-1.02h6.85c.68,0,1.02.34,1.02,1.02v3.22ZM54.89,77.89v-.28c0-.32-.16-.48-.48-.48h-1.75c-.34,0-.52.17-.52.52v.24c0,.32.16.48.48.48h1.79c.32,0,.48-.16.48-.48ZM54.89,80.02v-.26c0-.32-.16-.48-.48-.48h-1.79c-.32,0-.48.16-.48.48v.23c0,.34.17.52.52.52h1.75c.32,0,.48-.16.48-.48ZM58.37,84.53c-.09.64-.27,1.07-.54,1.28s-.76.32-1.45.32h-1.88c-.55,0-.91-.07-1.07-.2-.16-.14-.24-.44-.24-.9v-2.28c0-.15.05-.28.16-.38s.23-.16.38-.16.27.05.38.16.16.23.16.38v1.85c0,.23.03.38.1.43.07.06.23.08.5.08h1.34c.37,0,.62-.04.74-.11.18-.1.3-.32.34-.66.04-.3.22-.44.54-.44.17,0,.31.06.41.19s.15.27.13.43ZM55.9,83.67c-.28-.43-.61-.86-.98-1.3-.09-.1-.13-.21-.13-.32,0-.13.05-.24.16-.34.1-.1.22-.14.36-.14s.25.05.35.16c.34.38.71.83,1.09,1.34.08.1.12.21.12.32,0,.14-.06.25-.17.35-.11.1-.24.15-.38.15-.17,0-.3-.08-.41-.23ZM58.82,77.89v-.24c0-.34-.17-.52-.5-.52h-1.82c-.32,0-.48.16-.48.48v.28c0,.32.16.48.48.48h1.85c.32,0,.48-.16.48-.48ZM58.82,79.99v-.23c0-.32-.16-.48-.48-.48h-1.85c-.32,0-.48.16-.48.48v.26c0,.32.16.48.48.48h1.82c.34,0,.5-.17.5-.52ZM60.8,84.71c0,.15-.06.28-.17.39-.11.11-.24.16-.4.16-.24,0-.41-.11-.52-.34-.33-.7-.72-1.37-1.19-2.02-.06-.08-.08-.18-.08-.29,0-.14.05-.27.16-.38s.23-.16.38-.16c.17,0,.31.08.43.24.52.71.96,1.42,1.32,2.14.04.08.06.16.06.25Z"/>
      <path class="cls-1" d="M67.47,83.44c-.7,1.38-1.38,2.08-2.03,2.08-.8,0-1.42-.71-1.86-2.14-.34-1.1-.52-2.36-.52-3.76,0-.72.02-1.34.07-1.86.02-.17.08-.31.2-.42.12-.11.26-.17.43-.17.18,0,.34.07.46.21s.18.3.16.49c-.06.54-.08,1.16-.08,1.86,0,.92.1,1.83.3,2.74.22,1,.52,1.5.89,1.5.26,0,.56-.36.9-1.08.1-.22.28-.32.54-.32.17,0,.31.06.43.17.12.12.17.26.17.43,0,.1-.02.2-.06.28ZM72.67,83.07c.02.19-.03.36-.16.52-.13.15-.29.23-.49.23-.17,0-.32-.06-.44-.17-.13-.11-.2-.25-.22-.41-.2-1.82-.79-3.43-1.76-4.85-.07-.1-.11-.22-.11-.35,0-.18.06-.32.18-.44s.27-.18.44-.18c.22,0,.39.09.52.26,1.1,1.54,1.78,3.33,2.04,5.39Z"/>
      <path class="cls-1" d="M84.3,84.55c0,.17-.06.31-.17.43-.12.12-.26.17-.43.17-.11,0-.22-.03-.31-.08-.8-.47-1.51-.83-2.14-1.07-.08-.03-.15-.05-.22-.05-.23,0-.37.16-.41.48-.06.48-.22.84-.48,1.07-.4.36-1.12.54-2.15.54-.66,0-1.2-.12-1.63-.37-.53-.31-.79-.78-.79-1.39,0-.7.33-1.2,1-1.52.5-.24,1.14-.36,1.92-.36.09,0,.22,0,.41.01.42.02.62-.16.62-.53v-.34c0-.4-.2-.6-.61-.59-.85.02-1.66.03-2.45.02-.14,0-.27-.05-.37-.16s-.15-.23-.15-.38.05-.27.16-.37c.11-.1.23-.15.38-.15.78.02,1.6.02,2.44,0,.39,0,.59-.21.59-.61v-.05c0-.41-.21-.6-.62-.59-.97.04-1.88.05-2.75.02-.14,0-.27-.07-.37-.17s-.16-.23-.16-.38c0-.15.06-.28.17-.38.11-.1.24-.15.4-.14.9.02,1.81.02,2.74,0,.39,0,.59-.2.59-.58,0-.03,0-.21-.01-.54,0-.16.06-.3.17-.41.11-.12.25-.17.41-.17s.3.06.41.17c.11.12.17.25.17.41v.41c0,.42.21.62.62.58.62-.06,1.29-.15,2.02-.25.16-.02.3.02.43.13.12.11.19.24.19.4,0,.3-.16.48-.47.52-.86.11-1.6.2-2.2.25-.38.04-.58.25-.58.62v.04c0,.42.21.62.62.58.42-.04,1.01-.12,1.76-.23.16-.02.3.02.43.13.13.11.19.24.19.4,0,.31-.15.49-.46.53-.64.09-1.3.16-1.98.23-.38.03-.58.24-.58.62v.54c0,.44.22.73.66.88.82.26,1.71.65,2.68,1.16.21.11.31.29.31.53ZM79.49,84.08c.06-.4-.1-.62-.48-.65-.18-.02-.35-.02-.52-.02-1.15,0-1.73.28-1.73.83,0,.22.11.4.33.54.22.14.51.2.87.2.54,0,.91-.06,1.13-.19s.35-.36.4-.71Z"/>
      <path class="cls-1" d="M97.13,78.11c0,.16-.06.3-.17.41s-.25.17-.41.17c-1.26-.02-2.1-.02-2.53-.01-.39,0-.59.2-.59.61v.66c0,.3.08.75.24,1.36.06.25.1.5.1.77,0,1.06-.29,1.92-.86,2.6-.58.68-1.47,1.2-2.68,1.58-.06.02-.12.02-.18.02-.15,0-.29-.06-.4-.17-.12-.11-.17-.25-.17-.42,0-.28.14-.46.42-.55,1.14-.34,1.93-.87,2.38-1.58.08-.13.12-.24.12-.32,0-.11-.06-.17-.18-.17-.07,0-.16.02-.25.07-.22.11-.47.17-.73.17-.59,0-1.07-.15-1.43-.44-.39-.33-.59-.78-.59-1.36s.22-1.08.66-1.43c.41-.33.92-.49,1.52-.49.06,0,.14,0,.25.01.11,0,.19.01.24.01.23,0,.35-.1.35-.3,0-.41-.2-.6-.61-.59-1.46.06-2.92.14-4.4.25-.17.02-.31-.03-.44-.15-.12-.12-.19-.26-.19-.43s.05-.29.16-.4c.11-.11.24-.17.39-.17l4.46-.22c.38-.02.58-.2.58-.54v-.54c0-.17.06-.31.19-.44.12-.12.27-.19.44-.19s.31.06.43.18c.12.12.18.26.18.43v.46c0,.41.2.61.6.6,1.21-.02,2.06-.02,2.54-.01.16,0,.29.05.4.16s.16.24.16.4ZM92.17,81.55c.03-.11.05-.22.05-.31,0-.3-.13-.51-.38-.61-.14-.06-.3-.08-.48-.08-.27,0-.5.09-.69.26-.19.18-.28.4-.28.66,0,.55.29.83.88.83.48,0,.78-.25.91-.74Z"/>
      <path class="cls-1" d="M105.88,80.38c0,1.3-.21,2.7-.64,4.22-.13.46-.27.78-.42.97-.22.29-.52.43-.9.43-.44,0-.99-.12-1.66-.35-.27-.1-.41-.28-.41-.54,0-.16.06-.29.17-.41.12-.11.25-.17.4-.17.06,0,.12,0,.17.02.42.14.7.2.86.2.19,0,.33-.06.41-.17.06-.08.14-.26.22-.54.38-1.29.56-2.46.56-3.5,0-.38-.08-.64-.23-.77-.15-.13-.44-.19-.86-.19h-.17c-.07,0-.13.01-.18.01-.4,0-.66.21-.78.62-.54,1.82-1.25,3.57-2.14,5.27-.12.23-.31.35-.56.35-.18,0-.32-.06-.44-.19-.12-.12-.18-.27-.18-.45,0-.13.02-.24.07-.32.75-1.32,1.42-2.81,1.99-4.48.02-.08.04-.15.04-.22,0-.29-.17-.41-.52-.36-.25.04-.64.1-1.16.17-.17.02-.32-.02-.46-.14-.14-.12-.21-.26-.21-.44,0-.34.18-.53.53-.58.35-.05.91-.12,1.67-.21.38-.03.64-.27.78-.72.07-.39.14-.78.2-1.18.06-.34.26-.52.6-.52.19,0,.35.07.46.21.12.14.16.31.13.5,0,.04-.04.22-.11.53-.06.22-.08.39-.08.52,0,.34.19.49.56.47h.18c.61-.05,1.1.06,1.48.31.42.29.62.83.62,1.62ZM107.49,77.75c0,.13-.05.24-.14.33s-.2.14-.33.14c-.19,0-.33-.07-.42-.22-.23-.37-.48-.68-.74-.95-.09-.09-.13-.2-.13-.32,0-.32.16-.48.47-.48.14,0,.26.06.36.18.34.38.62.73.84,1.06.06.1.1.18.1.26ZM108.26,81.95c-.34-.87-.79-1.72-1.36-2.56-.06-.1-.1-.2-.1-.32,0-.17.06-.31.19-.43.12-.12.27-.17.44-.17.2,0,.36.09.49.26.63.89,1.14,1.81,1.54,2.76.03.08.05.16.05.24,0,.17-.07.32-.21.44-.14.13-.3.19-.47.19-.26,0-.45-.14-.56-.42ZM108.95,77.07c0,.13-.05.24-.14.33s-.2.14-.33.14c-.18,0-.32-.07-.42-.22-.26-.39-.51-.72-.74-.97-.09-.1-.13-.2-.13-.3,0-.32.16-.48.48-.48.12,0,.24.06.35.17.28.28.56.64.85,1.07.06.11.08.2.08.26Z"/>
      <path class="cls-1" d="M113.87,85.57c0,.19-.06.35-.19.48s-.29.19-.48.19c-.21,0-.38-.08-.52-.24-.47-.57-.95-1.06-1.43-1.46-.15-.13-.23-.29-.23-.48s.06-.34.19-.46.28-.19.46-.19c.16,0,.3.05.42.16.67.58,1.21,1.1,1.61,1.55.11.12.17.27.17.46Z"/>
      <path class="cls-1" d="M133.28,80.09c0,.15-.05.28-.16.39-.1.11-.23.16-.38.16-.3,0-.76.02-1.36.07-.82.11-1.57.37-2.23.77-.85.5-1.27,1.11-1.27,1.82,0,.88.89,1.46,2.68,1.74.14.02.26.09.36.2.1.11.14.24.14.38,0,.18-.07.32-.2.44-.14.12-.29.16-.47.14-2.5-.37-3.76-1.27-3.76-2.71,0-.62.24-1.2.71-1.74.18-.2.26-.36.26-.47s-.1-.17-.31-.17c-.06,0-.12,0-.2.01-.75.1-1.8.26-3.14.48-.18.03-.33-.01-.47-.13-.14-.12-.2-.26-.2-.44,0-.14.05-.27.14-.38.1-.11.22-.18.36-.19.09,0,.75-.09,1.99-.25.79-.1,1.39-.35,1.8-.76.97-.96,1.91-2.01,2.83-3.14.12-.15.27-.23.46-.23.17,0,.31.06.43.17.12.12.17.25.17.41,0,.14-.06.27-.17.4-.56.65-1.21,1.36-1.96,2.12-.13.13-.19.25-.19.36,0,.2.16.28.48.25.65-.06,1.67-.15,3.07-.28.16-.02.3.03.41.14.12.11.17.25.17.41ZM126.99,78.21c0,.17-.06.31-.18.43-.12.12-.26.17-.43.17-.24,0-.42-.1-.53-.3-.23-.39-.52-.82-.88-1.27-.08-.1-.12-.22-.12-.34,0-.16.06-.3.17-.41.12-.12.26-.17.43-.17.19,0,.35.08.47.23.43.53.76.98.98,1.36.06.1.08.2.08.31Z"/>
      <path class="cls-1" d="M145.9,83.45c0,.15-.06.29-.17.41-.89.94-1.64,1.42-2.26,1.42-.55,0-.92-.22-1.1-.65-.11-.26-.17-.68-.17-1.25,0-.46.03-1.16.08-2.1.05-.94.08-1.64.08-2.1,0-.4-.14-.6-.42-.6-.56,0-1.38.6-2.45,1.81-.38.43-.57.93-.58,1.49-.02,1.7-.02,2.91-.01,3.61,0,.16-.06.3-.18.42-.12.12-.26.18-.43.18s-.3-.06-.41-.17-.17-.26-.17-.43c0,.16,0-.48.02-1.92,0-.29-.08-.43-.25-.43-.11,0-.22.08-.34.24-.11.16-.36.53-.73,1.12-.11.17-.28.25-.49.25-.16,0-.3-.06-.41-.17-.12-.11-.17-.25-.17-.41,0-.14.06-.29.17-.44.43-.58,1.06-1.41,1.87-2.47.27-.35.41-.73.42-1.13,0-.21-.04-.36-.16-.46-.11-.1-.27-.13-.47-.1-.02,0-.4.07-1.14.22-.2.04-.37,0-.5-.14s-.2-.29-.2-.46c0-.31.16-.5.49-.55.12-.02.6-.1,1.45-.22.38-.06.57-.27.58-.64l.04-1.16c0-.16.07-.3.18-.41.11-.11.25-.17.41-.17s.31.06.43.18c.12.12.18.26.17.43l-.06,1.75c0,.34.08.52.25.52.11,0,.24-.07.4-.22,1-.97,1.86-1.45,2.58-1.45.88,0,1.32.51,1.32,1.52,0,.47-.03,1.18-.09,2.11-.06.94-.09,1.64-.09,2.1,0,.33,0,.53.02.61.04.22.15.32.32.32.28,0,.66-.29,1.15-.86.11-.13.26-.19.43-.19.16,0,.3.06.41.17.12.12.17.25.17.41Z"/>
      <path class="cls-1" d="M156.96,83.28c0,.88-.33,1.58-.98,2.11s-1.55.79-2.68.79c-2.25,0-3.37-.95-3.37-2.86,0-.16,0-.39.02-.7.02-.36-.18-.58-.6-.67-.36-.02-.72-.05-1.07-.08-.14-.02-.26-.08-.36-.19-.1-.11-.14-.24-.14-.38,0-.17.07-.31.2-.43.13-.12.28-.16.45-.14.25.04.62.09,1.1.16.39.05.61-.13.66-.54l.05-.43c.05-.4-.13-.62-.54-.66-.19-.02-.46-.05-.8-.1-.34-.05-.51-.24-.51-.56,0-.17.07-.31.2-.42.13-.11.28-.16.45-.13.16.02.44.06.83.1.39.04.61-.14.66-.53l.13-1.02c.05-.36.25-.54.6-.54.19,0,.35.07.47.22s.17.31.14.49l-.13.84c-.03.21,0,.37.1.49.1.12.24.17.44.16.67-.02,1.28-.05,1.81-.11.16-.02.3.03.43.14.12.11.19.24.19.4,0,.14-.05.27-.14.38s-.21.17-.35.19c-.74.08-1.46.12-2.17.12-.38,0-.6.18-.64.55l-.05.43c-.02.2.01.36.11.47.1.11.24.17.44.17.68,0,1.36-.05,2.03-.12.17-.02.31.03.44.14.12.11.19.25.19.41,0,.14-.05.27-.15.38-.1.11-.22.17-.37.19-.68.06-1.44.1-2.29.1-.41,0-.62.22-.64.67v.43c0,1.25.74,1.87,2.22,1.87.65,0,1.19-.14,1.63-.43.51-.34.77-.81.77-1.43,0-.46-.11-.92-.32-1.39-.05-.1-.07-.19-.07-.25,0-.17.06-.31.18-.42.12-.11.26-.17.43-.17.26,0,.45.12.55.35.3.66.46,1.32.46,1.98Z"/>
      <path class="cls-1" d="M169.41,82.6c0,1.02-.36,1.84-1.08,2.45-.62.54-1.47.88-2.54,1.02-.17.02-.32-.02-.45-.14-.13-.12-.2-.26-.2-.43,0-.33.16-.52.48-.58,1.71-.3,2.57-1.09,2.57-2.38,0-.89-.36-1.51-1.09-1.87-.1-.05-.19-.07-.28-.07-.21,0-.38.13-.5.4-.52,1.09-1.12,2.04-1.79,2.84-1.03,1.23-2.06,1.85-3.08,1.85-.53,0-.94-.15-1.23-.45-.29-.3-.44-.71-.44-1.23,0-.91.27-1.74.8-2.48.41-.57.92-1.03,1.52-1.39.36-.22.55-.52.58-.9v-.23c.03-.37-.14-.55-.5-.55-.45,0-.96,0-1.52-.01-.15,0-.28-.06-.39-.17-.11-.11-.16-.24-.16-.4s.06-.28.17-.4c.12-.11.25-.16.41-.16.74.03,1.28.04,1.64.04.33,0,.52-.18.56-.52l.07-.52c.05-.35.24-.53.56-.53.17,0,.32.07.44.22s.18.29.16.44l-.04.23c-.03.19,0,.34.08.44s.23.15.42.13c.82-.06,1.75-.17,2.78-.32.17-.02.32.02.45.13.13.11.2.26.2.43,0,.33-.17.51-.5.55-1.26.15-2.28.25-3.08.3-.38.02-.58.2-.6.52-.02.19.03.33.13.41.1.08.25.11.44.09.31-.04.58-.06.8-.06,1.22,0,2.2.23,2.92.7.86.56,1.28,1.42,1.28,2.58ZM162.22,84.35c.36-.19.52-.57.48-1.14,0-.36-.02-.72-.02-1.07-.03-.56-.14-.84-.31-.84-.11,0-.24.06-.38.19-.31.27-.56.62-.76,1.03-.21.44-.31.88-.31,1.32,0,.47.2.71.59.71.22,0,.46-.07.72-.2ZM165.23,80.81c.04-.08.06-.15.06-.22,0-.2-.12-.29-.37-.28-.37.02-.64.09-.82.19-.25.14-.38.38-.38.72,0,.3,0,.65.01,1.03,0,.24.09.36.25.36.11,0,.22-.07.31-.2.36-.5.67-1.04.94-1.61Z"/>
      <path class="cls-1" d="M177.14,78.69c-.41.09-.8.16-1.19.22-.45.07-.75.32-.9.74-.56,1.61-1.2,3.14-1.91,4.58-.11.23-.3.35-.55.35-.17,0-.31-.06-.43-.18-.12-.12-.18-.26-.18-.43,0-.1.02-.19.07-.29.67-1.3,1.25-2.61,1.74-3.94.03-.09.05-.16.05-.23,0-.25-.17-.37-.5-.37h-.68c-.16,0-.3-.06-.41-.17-.11-.12-.17-.25-.17-.41s.06-.31.18-.43c.12-.12.26-.17.43-.16.35.02.68.02.98.01.49,0,.79-.25.91-.73.06-.27.13-.54.2-.82.12-.3.32-.46.59-.46.17,0,.31.06.43.18.12.12.18.26.18.42,0,.06-.04.24-.12.52-.02.1-.04.18-.04.25,0,.24.11.36.32.36.04,0,.08,0,.13-.01l.62-.13c.07-.02.12-.02.14-.02.16,0,.29.06.39.17.1.12.15.26.15.43,0,.3-.15.49-.46.55ZM181.68,84.63c0,.16-.06.3-.17.42s-.26.18-.43.18c-.1,0-.21-.04-.32-.11-.26-.18-.54-.34-.84-.5-.1-.06-.18-.08-.26-.08-.19,0-.33.14-.41.42-.23.81-.94,1.21-2.14,1.21-.63,0-1.16-.14-1.58-.41-.5-.31-.76-.77-.76-1.37s.24-1.04.71-1.36c.41-.27.92-.41,1.55-.41.18,0,.38.02.6.05.18.02.33,0,.43-.08.1-.08.15-.22.15-.41v-1.75c-.01-.16.04-.3.16-.41.11-.12.25-.17.41-.17s.3.06.41.17c.11.11.17.25.17.41v2.02c.01.44.23.76.67.96.38.18.84.42,1.37.73.2.12.3.29.3.5ZM178.19,84.29c0-.34-.19-.54-.58-.6-.23-.04-.44-.06-.61-.06-.73,0-1.09.26-1.09.77,0,.23.1.41.29.55.2.13.45.2.76.2.56,0,.92-.14,1.09-.41.09-.14.13-.29.13-.44ZM181.79,79.28c0,.16-.06.3-.17.41-.12.12-.25.17-.41.17-.11,0-.22-.04-.32-.11-.61-.41-1.25-.76-1.93-1.04-.22-.1-.34-.27-.34-.53,0-.16.06-.3.17-.41.12-.11.25-.17.4-.17.09,0,.16.02.22.05.75.32,1.46.69,2.11,1.12.18.12.28.29.28.5Z"/>
      <path class="cls-1" d="M189.93,78.73c-.58.11-1.18.2-1.78.28-.33.04-.57.12-.71.25-.15.13-.26.35-.33.66-.45,1.9-1,3.72-1.67,5.46-.1.26-.3.4-.59.4-.18,0-.32-.06-.44-.19-.12-.12-.18-.27-.18-.44,0-.08.02-.16.05-.24.68-1.61,1.24-3.31,1.67-5.11.02-.06.02-.12.02-.18,0-.28-.17-.42-.5-.41-.34,0-.64,0-.92,0-.16,0-.3-.07-.41-.19-.12-.12-.17-.25-.17-.41s.06-.31.19-.43c.12-.12.27-.18.44-.17.46.02.82.02,1.1.01.45-.02.7-.24.77-.66.02-.18.06-.44.12-.79.06-.35.26-.52.61-.52.17,0,.31.06.43.18.12.12.18.26.18.42,0,.08-.03.28-.1.6,0,.06-.01.11-.01.16,0,.32.18.45.53.4.05,0,.33-.06.84-.17.38-.07.65-.11.79-.11.17,0,.31.06.41.18s.16.26.16.43c0,.33-.16.52-.49.59ZM193.72,85.04c0,.34-.17.54-.5.59-.76.11-1.56.17-2.4.17-2.13,0-3.19-.6-3.19-1.79,0-.27.07-.58.2-.94.1-.24.28-.36.54-.36.38,0,.56.19.56.58,0,.06-.01.15-.04.27-.02.12-.04.21-.04.27,0,.54.68.82,2.05.82.6,0,1.31-.06,2.14-.18.18-.02.33.02.47.14s.2.26.2.44ZM193.38,80.57c0,.17-.06.31-.19.43-.13.12-.28.18-.44.17-1.19-.06-2.47-.04-3.83.08-.17.02-.31-.03-.44-.15-.12-.12-.19-.26-.19-.43,0-.15.05-.28.15-.39.1-.11.22-.17.37-.19,1.35-.14,2.68-.18,3.98-.14.16,0,.3.07.41.19.12.12.17.26.17.42Z"/>
      <path class="cls-1" d="M205.79,81.16c0,2.44-1.24,3.93-3.71,4.48-.02,0-.07.01-.13.01-.16,0-.3-.06-.41-.17-.12-.11-.17-.25-.17-.42,0-.32.14-.52.43-.59,1.85-.46,2.77-1.58,2.77-3.34,0-.92-.25-1.66-.74-2.21-.18-.21-.41-.39-.68-.55-.31-.18-.59-.26-.84-.26-.34,0-.55.2-.62.6-.3,1.74-.66,3.15-1.08,4.21-.26.67-.52,1.18-.78,1.51-.41.52-.88.78-1.43.78-.73,0-1.31-.36-1.75-1.09-.38-.62-.58-1.32-.58-2.09,0-1.49.49-2.72,1.48-3.7s2.23-1.46,3.71-1.46c1.4,0,2.5.36,3.29,1.08.83.75,1.25,1.82,1.25,3.2ZM200.45,78.75c0-.06.01-.11.01-.17,0-.3-.14-.44-.41-.44-.1,0-.2.02-.31.06-.74.26-1.34.73-1.8,1.43-.46.7-.7,1.5-.7,2.41,0,.5.12.93.35,1.31.23.38.49.57.78.57.34,0,.71-.48,1.1-1.45.33-.82.65-2.06.97-3.72Z"/>
      <path class="cls-1" d="M218.39,80.66c0,.17-.06.31-.17.43-.12.12-.26.17-.43.17h-9.49c-.17,0-.31-.06-.43-.17-.12-.12-.17-.26-.17-.43s.06-.31.18-.43.26-.18.42-.18h9.49c.16,0,.3.06.42.18s.18.26.18.43Z"/>
      <path class="cls-1" d="M225.98,80.63c0,.14-.05.25-.15.35-.1.1-.22.14-.35.14h-5.24c-.14,0-.25-.05-.35-.14-.1-.1-.14-.21-.14-.35s.05-.25.14-.35c.1-.1.21-.14.35-.14h.59c.3,0,.44-.12.44-.37,0-.12-.09-.5-.28-1.15-.1-.34-.29-.5-.58-.5-.14,0-.25-.05-.35-.14-.1-.1-.14-.21-.14-.35s.05-.25.14-.34c.1-.09.21-.14.35-.14h1.44c.32,0,.48-.16.48-.48v-.26c0-.15.05-.28.16-.39.1-.11.24-.16.4-.16s.28.05.39.16c.11.11.16.24.16.39v.26c0,.32.16.48.48.48h1.45c.32,0,.48.16.48.48,0,.14-.05.25-.14.35-.09.1-.21.14-.34.14-.22,0-.4.2-.54.6-.08.3-.16.59-.23.89-.02.06-.02.12-.02.17,0,.25.14.37.43.37h.47c.14,0,.25.05.35.14.1.1.15.21.15.35ZM225.29,84.98c0,.64-.32.96-.96.96h-2.77c-.64,0-.96-.32-.96-.96v-2.04c0-.64.32-.96.96-.96h2.77c.64,0,.96.32.96.96v2.04ZM224.22,84.49v-1.08c0-.3-.15-.46-.46-.46h-1.62c-.3,0-.46.15-.46.46v1.08c0,.3.15.46.46.46h1.62c.3,0,.46-.15.46-.46ZM223.83,78.65c.02-.06.02-.11.02-.16,0-.26-.15-.38-.44-.38h-.97c-.29,0-.43.12-.43.37,0,.05,0,.1.02.17.06.22.14.54.24.96.08.35.29.53.64.53.32,0,.55-.18.7-.54,0-.02.08-.33.23-.95ZM230.45,82.95c0,1.14-.66,1.78-1.99,1.92-.16.02-.3-.03-.43-.14s-.19-.25-.19-.41c0-.32.15-.5.44-.54.69-.08,1.03-.38,1.03-.91,0-.45-.28-1.19-.83-2.23-.1-.18-.14-.36-.14-.52,0-.12.02-.24.06-.37l.65-2.02c.02-.08.04-.15.04-.2,0-.18-.13-.28-.38-.28h-.8c-.32,0-.48.16-.48.49v8.14c0,.14-.05.27-.16.37s-.23.16-.37.16-.28-.05-.38-.16c-.1-.1-.16-.23-.16-.37v-8.65c0-.66.33-.98,1-.98h2.06c.62,0,.92.25.92.76,0,.14-.03.28-.08.44l-.73,2.08c-.06.19-.1.35-.1.48,0,.19.08.42.24.68.53.86.79,1.61.79,2.27Z"/>
      <path class="cls-1" d="M41.81,92.45c0,.32-.22.51-.65.58-1.21.18-2.28.68-3.22,1.49-.94.81-1.4,1.67-1.4,2.56,0,1.3,1.04,2.12,3.11,2.48.34.06.52.26.52.61,0,.19-.07.35-.22.49-.15.13-.32.18-.51.14-1.24-.24-2.18-.61-2.83-1.1-.86-.66-1.28-1.5-1.28-2.52,0-.86.29-1.65.88-2.35.26-.3.51-.56.76-.77s.37-.38.37-.53c0-.19-.2-.27-.61-.24-1.64.14-2.97.28-4,.42-.18.02-.33-.02-.46-.14s-.19-.27-.19-.44c0-.15.05-.29.15-.4s.23-.18.38-.19c1.47-.14,4.3-.36,8.48-.65.22,0,.39.04.53.15.14.11.2.25.2.41ZM41.16,95.99c0,.13-.05.24-.14.33-.09.09-.2.14-.33.14-.19,0-.33-.07-.42-.22-.23-.37-.48-.68-.74-.95-.09-.09-.13-.2-.13-.32,0-.32.16-.48.47-.48.14,0,.26.06.36.18.34.38.62.73.84,1.06.06.1.1.18.1.26ZM42.63,95.31c0,.13-.05.24-.14.33-.09.09-.2.14-.33.14-.18,0-.32-.07-.42-.22-.26-.39-.51-.72-.74-.97-.09-.1-.13-.2-.13-.3,0-.32.16-.48.48-.48.12,0,.24.06.35.17.28.28.56.64.85,1.07.06.11.08.2.08.26Z"/>
      <path class="cls-1" d="M54.57,93.11c0,.16-.06.3-.17.41-.11.11-.25.17-.41.17-1.26-.02-2.1-.02-2.53-.01-.39,0-.59.2-.59.61v.66c0,.3.08.75.24,1.36.06.25.1.5.1.77,0,1.06-.29,1.92-.86,2.6-.58.68-1.47,1.2-2.68,1.58-.06.02-.12.02-.18.02-.15,0-.29-.06-.4-.17-.12-.11-.17-.25-.17-.42,0-.28.14-.46.42-.55,1.14-.34,1.93-.87,2.38-1.58.08-.13.12-.24.12-.32,0-.11-.06-.17-.18-.17-.07,0-.16.02-.25.07-.22.11-.47.17-.73.17-.59,0-1.07-.15-1.43-.44-.39-.33-.59-.78-.59-1.36s.22-1.08.66-1.43c.41-.33.92-.49,1.52-.49.06,0,.14,0,.25.01.11,0,.19.01.24.01.23,0,.35-.1.35-.3,0-.41-.2-.6-.61-.59-1.46.06-2.92.14-4.4.25-.17.02-.31-.03-.44-.15s-.19-.26-.19-.43.05-.29.16-.4c.11-.11.24-.17.39-.17l4.46-.22c.38-.02.58-.2.58-.54v-.54c0-.17.06-.31.19-.44.12-.12.27-.19.44-.19s.31.06.43.18c.12.12.18.26.18.43v.46c0,.41.2.61.6.6,1.21-.02,2.06-.02,2.54-.01.16,0,.29.05.4.16.11.11.16.24.16.4ZM49.6,96.55c.03-.11.05-.22.05-.31,0-.3-.13-.51-.38-.61-.14-.06-.3-.08-.48-.08-.27,0-.5.09-.69.26s-.28.4-.28.66c0,.55.29.83.88.83.48,0,.78-.25.91-.74Z"/>
      <path class="cls-1" d="M59.45,99.78c0,.49-.17.9-.52,1.24-.34.34-.76.51-1.25.51s-.9-.17-1.24-.51c-.34-.34-.51-.75-.51-1.24s.17-.9.51-1.25c.34-.34.75-.52,1.24-.52s.9.17,1.25.52c.34.34.52.76.52,1.25ZM58.6,99.78c0-.26-.09-.47-.26-.65s-.39-.26-.65-.26-.46.09-.64.27c-.18.18-.26.39-.26.64s.09.46.26.63c.18.17.39.26.64.26s.47-.08.65-.25.26-.38.26-.64Z"/>
      <path class="cls-1" d="M77.86,99.56c0,.34-.16.54-.49.6-1.31.23-2.53.35-3.66.35s-2.01-.09-2.66-.28c-1.07-.3-1.61-.88-1.61-1.74,0-.58.38-1.26,1.14-2.02.1-.1.24-.16.4-.16.15,0,.28.05.4.16.11.11.17.24.17.39,0,.14-.05.26-.16.37-.43.45-.65.82-.65,1.12,0,.66,1.02,1,3.05,1,.97,0,2.1-.12,3.38-.37.18-.03.34,0,.48.13s.22.27.22.45ZM76.55,93.35c-.67.26-1.49.71-2.45,1.33-.1.06-.19.1-.28.1-.14,0-.25-.05-.35-.15-.1-.1-.15-.22-.15-.37,0-.18.08-.32.24-.42l.16-.1c.15-.09.23-.18.23-.26,0-.1-.12-.16-.35-.16-.88.02-1.86,0-2.95-.07-.15,0-.28-.07-.39-.18-.11-.11-.16-.24-.16-.4,0-.17.06-.31.19-.43s.27-.17.44-.16c1.91.11,3.77.12,5.57.04.23,0,.42.05.56.17.14.12.21.26.21.43,0,.28-.17.49-.5.62Z"/>
      <path class="cls-1" d="M91.22,98.45c0,.15-.06.29-.17.41-.89.94-1.64,1.42-2.26,1.42-.55,0-.92-.22-1.1-.65-.11-.26-.17-.68-.17-1.25,0-.46.03-1.16.08-2.1.05-.94.08-1.64.08-2.1,0-.4-.14-.6-.42-.6-.56,0-1.38.6-2.45,1.81-.38.43-.57.93-.58,1.49-.02,1.7-.02,2.91-.01,3.61,0,.16-.06.3-.18.42-.12.12-.26.18-.43.18s-.3-.06-.41-.17c-.12-.12-.17-.26-.17-.43,0,.16,0-.48.02-1.92,0-.29-.08-.43-.25-.43-.11,0-.22.08-.34.24-.11.16-.36.53-.73,1.12-.11.17-.28.25-.49.25-.16,0-.3-.06-.41-.17-.12-.11-.17-.25-.17-.41,0-.14.06-.29.17-.44.43-.58,1.06-1.41,1.87-2.47.27-.35.41-.73.42-1.13,0-.21-.04-.36-.16-.46-.11-.1-.27-.13-.47-.1-.02,0-.4.07-1.14.22-.2.04-.37,0-.5-.14s-.2-.29-.2-.46c0-.31.16-.5.49-.55.12-.02.6-.1,1.45-.22.38-.06.57-.27.58-.64l.04-1.16c0-.16.07-.3.18-.41.11-.11.25-.17.41-.17s.31.06.43.18.18.26.17.43l-.06,1.75c0,.34.08.52.25.52.11,0,.24-.07.4-.22,1-.97,1.86-1.45,2.58-1.45.88,0,1.32.51,1.32,1.52,0,.47-.03,1.18-.09,2.11-.06.94-.09,1.64-.09,2.1,0,.33,0,.53.02.61.04.22.15.32.32.32.28,0,.66-.29,1.15-.86.11-.13.26-.19.43-.19.16,0,.3.06.41.17.12.12.17.25.17.41Z"/>
      <path class="cls-1" d="M99.71,95.31c0,1.26-.21,2.67-.64,4.22-.12.45-.26.77-.41.97-.22.29-.53.43-.91.43-.42,0-.97-.12-1.66-.35-.27-.09-.41-.27-.41-.54,0-.16.06-.3.17-.41.12-.11.25-.17.4-.17.06,0,.15.02.25.05.34.12.6.18.78.18.19,0,.33-.06.41-.17.06-.09.14-.27.22-.54.38-1.34.56-2.51.56-3.5,0-.38-.08-.64-.23-.77s-.44-.19-.86-.19c-.38,0-.63.04-.77.12-.17.1-.29.27-.36.52-.52,1.74-1.23,3.5-2.14,5.27-.12.23-.31.35-.56.35-.18,0-.32-.06-.44-.19-.12-.12-.18-.27-.18-.45,0-.14.02-.24.07-.32.82-1.42,1.48-2.91,1.99-4.48.02-.08.04-.15.04-.22,0-.29-.17-.41-.52-.36-.25.03-.64.09-1.16.17-.17.02-.32-.02-.46-.14-.14-.12-.21-.26-.21-.44,0-.34.17-.53.52-.58.35-.05.91-.12,1.67-.22.38-.04.64-.28.78-.72.02-.06.09-.46.2-1.18.06-.34.26-.52.6-.52.19,0,.35.07.46.21.12.14.16.31.13.5,0,.04-.04.22-.11.53-.06.23-.08.4-.08.52,0,.34.19.49.56.47h.18c.62-.05,1.11.06,1.48.31.42.29.62.83.62,1.62ZM103.34,96.21c0,.18-.06.33-.19.46s-.27.19-.45.19c-.29,0-.49-.14-.6-.42-.42-1.08-.95-2.06-1.6-2.95-.07-.1-.11-.21-.11-.34,0-.17.06-.31.17-.43.12-.12.26-.18.43-.18.2,0,.36.08.49.25.73.95,1.33,2.01,1.81,3.18.02.06.04.14.04.24Z"/>
      <path class="cls-1" d="M114.46,97.79c0,1.17-.58,2.03-1.73,2.58-.94.46-2.11.67-3.5.65h-.83c-.15-.01-.28-.07-.4-.19-.11-.12-.17-.25-.17-.4,0-.16.06-.3.18-.41.12-.12.26-.17.43-.16.44.02.72.02.83.02.94,0,1.75-.13,2.45-.4.98-.36,1.46-.93,1.46-1.7,0-.52-.2-.91-.6-1.18-.33-.22-.77-.32-1.32-.32-.66,0-1.35.15-2.07.45-.72.3-1.32.69-1.81,1.16-.26.26-.52.38-.78.38-.2,0-.36-.08-.47-.24-.12-.16-.17-.37-.15-.64l.24-3.71c.02-.37.22-.55.59-.55.18,0,.32.06.44.19.12.13.17.28.16.44l-.16,2.02c-.02.34.08.52.31.52.11,0,.24-.04.38-.13,1.08-.68,2.22-1.02,3.43-1.02.91,0,1.64.21,2.17.62.6.46.9,1.13.9,2.02ZM111.65,92.81c0,.17-.06.31-.17.43-.12.12-.26.18-.44.18-.1,0-.18-.02-.24-.05-.93-.43-2-.8-3.23-1.1-.3-.07-.46-.26-.46-.56,0-.16.06-.3.17-.41.12-.11.25-.17.4-.17.06,0,.11,0,.13.01,1.19.27,2.34.64,3.44,1.09.26.1.38.3.38.58Z"/>
      <path class="cls-1" d="M126.52,98.28c0,.88-.33,1.58-.98,2.11s-1.55.79-2.68.79c-2.25,0-3.37-.95-3.37-2.86,0-.16,0-.39.02-.7.02-.36-.18-.58-.6-.67-.36-.02-.72-.05-1.07-.08-.14-.02-.26-.08-.36-.19-.1-.11-.14-.24-.14-.38,0-.17.07-.31.2-.43.13-.12.28-.16.45-.14.25.04.62.09,1.1.16.39.05.61-.13.66-.54l.05-.43c.05-.4-.13-.62-.54-.66-.19-.02-.46-.05-.8-.1-.34-.05-.51-.24-.51-.56,0-.17.07-.31.2-.42.13-.11.28-.16.45-.13.16.02.44.06.83.1.39.04.61-.14.66-.53l.13-1.02c.05-.36.25-.54.6-.54.19,0,.35.07.47.22.12.14.17.31.14.49l-.13.84c-.03.21,0,.37.1.49.1.12.24.17.44.16.67-.02,1.28-.05,1.81-.11.16-.02.3.03.43.14.12.11.19.24.19.4,0,.14-.05.27-.14.38-.1.11-.21.17-.35.19-.74.08-1.46.12-2.17.12-.38,0-.6.18-.64.55l-.05.43c-.02.2.01.36.11.47.1.11.24.17.44.17.68,0,1.36-.05,2.03-.12.17-.02.31.03.44.14.12.11.19.25.19.41,0,.14-.05.27-.15.38-.1.11-.22.17-.37.19-.68.06-1.44.1-2.29.1-.41,0-.62.22-.64.67v.43c0,1.25.74,1.87,2.22,1.87.65,0,1.19-.14,1.63-.43.51-.34.77-.81.77-1.43,0-.46-.11-.92-.32-1.39-.05-.1-.07-.19-.07-.25,0-.17.06-.31.18-.42.12-.11.26-.17.43-.17.26,0,.45.12.55.35.3.66.46,1.32.46,1.98Z"/>
      <path class="cls-1" d="M139.38,93.4c0,.14-.05.27-.16.38-.1.11-.23.16-.37.16h-3.38c-.31,0-.47.1-.47.31,0,.1.04.2.11.31,1.07,1.62,2.4,3.08,4,4.4.14.11.2.25.2.42,0,.15-.05.28-.16.4-.11.11-.24.17-.39.17-.14,0-.26-.05-.37-.14-1.3-1.16-2.39-2.31-3.25-3.44-.1-.13-.19-.19-.29-.19-.14,0-.22.12-.22.36v4.22c0,.15-.05.28-.16.39-.11.11-.23.16-.38.16s-.27-.05-.38-.16c-.11-.11-.16-.24-.16-.39v-4.21c0-.24-.07-.36-.22-.36-.1,0-.19.07-.29.2-.9,1.19-1.96,2.33-3.19,3.41-.11.1-.24.14-.37.14-.15,0-.28-.05-.39-.16-.11-.11-.16-.24-.16-.39,0-.18.07-.32.2-.43,1.54-1.26,2.85-2.72,3.95-4.37.07-.11.11-.22.11-.31,0-.22-.16-.34-.47-.34h-3.32c-.14,0-.27-.05-.37-.16-.1-.11-.16-.23-.16-.38s.05-.27.16-.37c.1-.1.23-.16.37-.16h3.61c.36,0,.54-.18.54-.54v-1.03c0-.15.05-.28.16-.38.1-.1.23-.16.38-.16s.28.05.38.16c.1.1.16.23.16.38v1.03c0,.36.18.54.54.54h3.68c.14,0,.27.05.37.16s.16.23.16.37Z"/>
      <path class="cls-1" d="M147.05,95.63c0,.14-.05.25-.15.35s-.22.14-.35.14h-5.24c-.14,0-.25-.05-.35-.14s-.14-.21-.14-.35.05-.25.14-.35c.1-.1.21-.14.35-.14h.59c.3,0,.44-.12.44-.37,0-.12-.09-.5-.28-1.15-.1-.34-.29-.5-.58-.5-.14,0-.25-.05-.35-.14-.1-.1-.14-.21-.14-.35s.05-.25.14-.34c.1-.09.21-.14.35-.14h1.44c.32,0,.48-.16.48-.48v-.26c0-.15.05-.28.16-.39.1-.11.24-.16.4-.16s.28.05.39.16c.11.11.16.24.16.39v.26c0,.32.16.48.48.48h1.45c.32,0,.48.16.48.48,0,.14-.04.25-.14.35s-.21.14-.34.14c-.22,0-.4.2-.54.6-.08.3-.16.59-.23.89-.02.06-.02.12-.02.17,0,.25.14.37.43.37h.47c.14,0,.25.05.35.14.1.1.15.21.15.35ZM146.37,99.98c0,.64-.32.96-.96.96h-2.77c-.64,0-.96-.32-.96-.96v-2.04c0-.64.32-.96.96-.96h2.77c.64,0,.96.32.96.96v2.04ZM145.3,99.48v-1.08c0-.3-.15-.46-.46-.46h-1.62c-.3,0-.46.15-.46.46v1.08c0,.3.15.46.46.46h1.62c.3,0,.46-.15.46-.46ZM144.9,93.65c.02-.06.03-.11.03-.16,0-.26-.15-.38-.45-.38h-.97c-.29,0-.43.12-.43.37,0,.05,0,.1.02.17.06.22.13.54.24.96.08.35.29.53.63.53.32,0,.55-.18.7-.54,0-.02.08-.33.23-.95ZM151.53,97.95c0,1.14-.66,1.78-1.99,1.92-.16.02-.3-.03-.43-.14-.13-.11-.19-.25-.19-.41,0-.32.15-.5.45-.54.69-.08,1.03-.38,1.03-.91,0-.45-.28-1.19-.83-2.23-.1-.18-.14-.36-.14-.52,0-.12.02-.24.06-.37l.65-2.02c.02-.08.04-.15.04-.2,0-.18-.13-.28-.38-.28h-.8c-.32,0-.48.16-.48.49v8.14c0,.14-.05.27-.16.37-.1.1-.23.16-.37.16-.15,0-.28-.05-.38-.16-.1-.1-.15-.23-.15-.37v-8.65c0-.66.33-.98.99-.98h2.06c.62,0,.92.25.92.76,0,.14-.03.28-.08.44l-.73,2.08c-.06.19-.1.35-.1.48,0,.19.08.42.24.68.53.86.79,1.61.79,2.27Z"/>
      <path class="cls-1" d="M163.68,95.89c0,.14-.05.27-.16.37-.1.1-.23.15-.37.15h-2.54c-.36,0-.54.18-.54.54v2.65c0,.31.09.48.26.52.04,0,.13.01.28.01h.76c.45,0,.73-.11.84-.32.06-.13.11-.46.13-1,0-.14.06-.27.17-.37.1-.1.23-.16.38-.16s.28.06.4.17.16.24.16.4c-.02.96-.17,1.59-.43,1.89s-.79.45-1.6.45h-1.28c-.48,0-.8-.08-.96-.23-.16-.16-.24-.47-.24-.95v-3.05c0-.36-.18-.54-.54-.54h-.46c-.34,0-.53.18-.55.53-.14,2.01-1.11,3.46-2.93,4.36-.08.04-.17.06-.28.06-.15,0-.29-.06-.41-.17-.12-.11-.18-.25-.18-.41,0-.25.11-.42.32-.53.76-.38,1.32-.82,1.69-1.33.37-.51.58-1.16.65-1.96.03-.37-.14-.55-.53-.55h-2.14c-.14,0-.27-.05-.37-.15-.1-.1-.16-.22-.16-.37s.05-.27.16-.37c.1-.1.23-.16.37-.16h3.77c.36,0,.54-.18.54-.54v-.72c0-.36-.18-.54-.54-.54h-1.62c-.43,0-.78.16-1.03.49l-.3.38c-.1.13-.24.19-.42.19-.15,0-.28-.05-.38-.16-.1-.11-.16-.24-.16-.39,0-.14.05-.27.14-.37.6-.67,1.11-1.42,1.54-2.26.1-.19.26-.29.49-.29.16,0,.29.05.4.16.1.11.16.24.16.39,0,.07-.02.16-.07.26-.04.1-.07.18-.07.25,0,.2.14.3.43.3h.89c.36,0,.54-.18.54-.54v-.64c0-.15.05-.28.16-.39.11-.11.24-.16.39-.16s.28.05.39.16c.11.11.16.24.16.39v.64c0,.36.18.54.54.54h2.77c.14,0,.27.05.37.16s.16.22.16.36c0,.14-.05.27-.16.37s-.23.16-.37.16h-2.77c-.36,0-.54.18-.54.54v.72c0,.36.18.54.54.54h3.61c.14,0,.27.05.37.16s.16.23.16.37Z"/>
      <path class="cls-1" d="M175.8,100.39c0,.15-.05.28-.16.39-.11.11-.24.16-.39.16h-9.53c-.15,0-.28-.05-.38-.16-.1-.11-.16-.24-.16-.39s.05-.28.16-.39.23-.16.38-.16h3.71c.36,0,.54-.18.54-.54v-1.42c0-.36-.18-.54-.54-.54h-2.51c-.14,0-.27-.05-.37-.15-.1-.1-.15-.22-.15-.37s.05-.27.15-.37.22-.15.37-.15h2.51c.36,0,.54-.18.54-.54v-1.09c0-.36-.18-.54-.54-.54h-1.64c-.47,0-.83.2-1.08.6-.1.17-.27.41-.49.73-.11.16-.26.24-.46.24-.15,0-.28-.06-.4-.17-.11-.11-.17-.24-.17-.4,0-.14.04-.25.11-.35.79-1.08,1.4-2.18,1.84-3.29.09-.22.26-.34.52-.34.16,0,.29.06.4.17.11.11.16.24.16.4,0,.09-.08.32-.25.7-.04.1-.06.19-.06.28,0,.24.16.36.47.36h1.06c.36,0,.54-.18.54-.54v-1.08c0-.16.06-.3.17-.41.12-.12.25-.17.41-.17s.3.06.41.17c.11.12.17.25.17.41v1.08c0,.36.18.54.54.54h3.13c.15,0,.28.05.38.16.1.1.16.23.16.37,0,.15-.05.28-.16.38-.1.1-.23.16-.38.16h-3.13c-.36,0-.54.18-.54.54v1.09c0,.36.18.54.54.54h2.47c.14,0,.27.05.37.15.1.1.15.22.15.37s-.05.27-.15.37-.22.15-.37.15h-2.47c-.36,0-.54.18-.54.54v1.42c0,.36.18.54.54.54h3.58c.15,0,.28.05.39.16.11.11.16.24.16.39Z"/>
      <path class="cls-1" d="M180.06,92.03c-.32,1.83-.48,3.56-.48,5.2,0,1.14.04,2.1.13,2.87.02.18-.03.35-.16.49-.13.14-.28.22-.47.22-.17,0-.31-.06-.43-.17-.12-.11-.19-.25-.2-.41-.08-.77-.12-1.74-.12-2.93,0-1.78.17-3.6.5-5.48.06-.34.27-.52.61-.52.19,0,.35.07.47.22.12.15.17.32.14.51ZM187.35,99.35c0,.14-.05.27-.16.39-.1.12-.23.18-.37.2-1.04.14-1.91.2-2.6.2-2.12,0-3.18-.64-3.18-1.92,0-.36.1-.73.3-1.1.11-.22.28-.32.5-.32.39,0,.59.19.59.56,0,.08-.02.2-.07.35-.05.16-.07.28-.07.38,0,.33.2.56.59.68.34.12.87.18,1.6.18.59,0,1.32-.07,2.18-.2.18-.03.35.01.49.14s.21.28.21.46ZM186.93,93.01c0,.15-.05.28-.15.4-.1.11-.23.18-.38.2-.9.13-1.86.19-2.87.19-.45,0-.94-.02-1.46-.05-.15,0-.28-.07-.4-.19-.11-.12-.17-.25-.17-.41,0-.18.07-.32.2-.44.13-.12.28-.17.45-.15.45.04.92.06,1.43.06.9,0,1.79-.07,2.65-.2.18-.03.35.01.49.13s.21.27.21.46Z"/>
      <path class="cls-1" d="M192.51,100.56c0,.19-.06.35-.19.48s-.29.19-.48.19c-.21,0-.38-.08-.52-.24-.47-.57-.95-1.06-1.43-1.46-.15-.13-.23-.29-.23-.48s.06-.34.19-.46.28-.19.46-.19c.16,0,.3.05.42.16.67.58,1.21,1.1,1.61,1.55.11.12.17.27.17.46Z"/>
      <path class="cls-1" d="M211.93,95.25c0,.15-.05.28-.16.38-.11.1-.23.16-.38.16s-.28-.05-.39-.16c-.11-.1-.16-.23-.16-.38v-.56c0-.28-.14-.42-.42-.42h-3.56c.14.08.34.28.61.59.09.1.13.21.13.32,0,.32-.16.48-.48.48-.12,0-.26-.07-.41-.2-.11-.12-.22-.24-.34-.36-.14-.15-.22-.3-.22-.44,0-.17.07-.3.2-.38h-3.1c-.29,0-.43.14-.43.42v.56c0,.15-.05.28-.16.38-.11.1-.23.16-.38.16-.15,0-.28-.05-.39-.16-.11-.1-.16-.23-.16-.38v-.89c0-.66.33-.98,1-.98h.53c.22,0,.32-.05.32-.16,0-.03-.01-.07-.04-.11-.06-.07-.08-.17-.08-.29,0-.23.11-.39.32-.47l-1.04.04c-.13,0-.24-.03-.33-.13s-.14-.2-.14-.33c0-.12.04-.23.13-.32.08-.09.19-.14.31-.14,3.07-.07,5.66-.29,7.78-.66.14-.02.27.01.38.11s.17.22.17.36c0,.27-.14.43-.41.47-1.93.29-4.1.48-6.5.59.12.04.21.1.26.17l.36.49c.18.25.42.37.72.37h.43c.22,0,.34-.07.34-.2,0-.04-.01-.08-.04-.13-.07-.14-.11-.25-.11-.31,0-.14.05-.27.16-.37.11-.1.23-.16.38-.16.18,0,.33.09.47.26.03.05.13.21.29.49.16.28.4.42.71.42h.19c.33,0,.57-.13.73-.38.11-.21.22-.41.34-.61.15-.23.33-.35.54-.35.14,0,.27.05.38.16.11.1.16.23.16.38,0,.09-.03.19-.1.3l-.02.07c-.05.09-.07.16-.07.23,0,.14.1.2.29.2h.4c.66,0,1,.33,1,.98v.89ZM211.86,100.88c0,.15-.06.28-.17.38-.12.1-.25.14-.4.11-1.45-.22-2.73-.54-3.84-.96-.24-.09-.46-.13-.65-.13s-.42.04-.65.13c-1.14.45-2.35.78-3.61.98-.14.02-.27-.01-.39-.11-.12-.1-.17-.22-.17-.37,0-.28.14-.44.41-.48.97-.14,1.9-.34,2.81-.62.15-.05.23-.13.23-.24,0-.1-.06-.19-.19-.28s-.26-.18-.4-.29c-.18-.12-.34-.18-.46-.18-.1,0-.2.03-.3.08-.31.18-.72.38-1.24.62-.06.03-.12.05-.2.05-.3,0-.46-.16-.46-.47,0-.2.1-.34.29-.42,1.2-.51,2.26-1.13,3.18-1.85h-.28c-.3,0-.5-.06-.62-.18-.12-.12-.17-.34-.17-.67v-.82c0-.14.05-.27.15-.37.1-.1.22-.15.37-.15.14,0,.26.05.36.15.1.1.16.22.16.37v.44c0,.16.02.27.07.32.05.06.16.08.32.08h1.45c.25,0,.42-.02.5-.06.14-.06.23-.2.26-.42.04-.25.2-.37.48-.37.14,0,.27.05.37.16.1.11.14.24.11.39-.06.45-.19.75-.39.89-.2.15-.56.22-1.09.22h-1.19c.05.1.04.19-.01.29-.02.03-.02.06-.02.1,0,.09.07.13.2.13h2.5c.53,0,.79.18.79.53,0,.24-.2.52-.61.83-.15.11-.47.31-.95.6-.13.07-.19.15-.19.24,0,.1.08.17.24.22.85.25,1.84.45,2.96.6.29.04.43.21.43.5ZM204.28,95.48c0,.07-.01.14-.04.19-.21.47-.5.96-.88,1.45-.11.14-.25.22-.41.22-.14,0-.25-.05-.35-.15s-.15-.22-.15-.35c0-.11.04-.21.11-.3.34-.39.59-.8.77-1.24.09-.21.24-.31.46-.31.14,0,.25.05.35.14.1.1.14.21.14.35ZM208.23,98.44c.1-.07.16-.14.16-.19,0-.1-.09-.14-.28-.14h-2.32c-.24,0-.36.05-.36.14,0,.15.31.39.94.71.17.09.32.13.47.13s.3-.04.47-.13c.41-.21.72-.38.92-.52ZM211.18,96.43c0,.14-.05.25-.15.35-.1.1-.22.14-.35.14-.18,0-.33-.08-.43-.24-.18-.27-.45-.61-.79-1.02-.07-.09-.11-.19-.11-.3,0-.13.05-.24.14-.34.1-.1.21-.14.34-.14s.25.06.36.17c.34.34.64.71.9,1.09.06.1.1.19.1.29Z"/>
      <path class="cls-1" d="M223.83,96.16c0,2.44-1.24,3.93-3.71,4.48-.02,0-.07.01-.13.01-.16,0-.3-.06-.41-.17-.12-.11-.17-.25-.17-.42,0-.32.14-.52.43-.59,1.85-.46,2.77-1.58,2.77-3.34,0-.92-.25-1.66-.74-2.21-.18-.21-.41-.39-.68-.55-.31-.18-.59-.26-.84-.26-.34,0-.55.2-.62.6-.3,1.74-.66,3.15-1.08,4.21-.26.67-.52,1.18-.78,1.51-.41.52-.88.78-1.43.78-.73,0-1.31-.36-1.75-1.09-.38-.62-.58-1.32-.58-2.09,0-1.49.49-2.72,1.48-3.7.99-.98,2.23-1.46,3.71-1.46,1.4,0,2.5.36,3.29,1.08.83.75,1.25,1.82,1.25,3.2ZM218.49,93.75c0-.06.01-.11.01-.17,0-.3-.14-.44-.41-.44-.1,0-.2.02-.31.06-.74.26-1.34.73-1.8,1.43-.46.7-.7,1.5-.7,2.41,0,.5.12.93.35,1.31.23.38.49.57.78.57.34,0,.71-.48,1.1-1.45.33-.82.65-2.06.97-3.72Z"/>
      <path class="cls-1" d="M235.92,97.6c0,1.02-.36,1.84-1.08,2.45-.62.54-1.47.88-2.54,1.02-.17.02-.32-.02-.45-.14-.13-.12-.2-.26-.2-.43,0-.33.16-.52.48-.58,1.71-.3,2.57-1.09,2.57-2.38,0-.89-.36-1.51-1.09-1.87-.1-.05-.19-.07-.28-.07-.21,0-.38.13-.5.4-.52,1.09-1.12,2.04-1.79,2.84-1.03,1.23-2.06,1.85-3.08,1.85-.53,0-.94-.15-1.23-.45-.29-.3-.44-.71-.44-1.23,0-.91.27-1.74.8-2.48.41-.57.92-1.03,1.52-1.39.36-.22.55-.52.58-.9v-.23c.03-.37-.14-.55-.5-.55-.45,0-.96,0-1.52-.01-.15,0-.28-.06-.39-.17-.11-.11-.16-.24-.16-.4s.06-.28.17-.4c.12-.11.25-.16.41-.16.74.03,1.28.04,1.64.04.33,0,.52-.18.56-.52l.07-.52c.05-.35.24-.53.56-.53.17,0,.32.07.44.22.13.14.18.29.16.44l-.04.23c-.03.19,0,.34.08.44.09.1.23.15.42.13.82-.06,1.75-.17,2.78-.32.17-.02.32.02.45.13.13.11.2.26.2.43,0,.33-.17.51-.5.55-1.26.15-2.28.25-3.08.3-.38.02-.58.2-.6.52-.02.19.03.33.13.41.1.08.25.11.44.09.31-.04.58-.06.8-.06,1.22,0,2.2.23,2.92.7.86.56,1.28,1.42,1.28,2.58ZM228.74,99.35c.36-.19.52-.57.48-1.14,0-.36-.02-.72-.02-1.07-.03-.56-.14-.84-.31-.84-.11,0-.24.06-.38.19-.31.27-.56.62-.76,1.03-.21.44-.31.88-.31,1.32,0,.47.2.71.59.71.22,0,.46-.07.72-.2ZM231.75,95.81c.04-.08.06-.15.06-.22,0-.2-.12-.29-.37-.28-.37.02-.64.09-.82.19-.25.14-.38.38-.38.72,0,.3,0,.65.01,1.03,0,.24.09.36.25.36.11,0,.22-.07.31-.2.36-.5.67-1.04.94-1.61Z"/>
      <path class="cls-1" d="M247.7,97.79c0,1.14-.47,2-1.42,2.56-.75.45-1.67.67-2.75.67-.94,0-1.67-.15-2.21-.45s-.81-.7-.81-1.21.19-.86.56-1.13c.34-.25.75-.37,1.25-.37.67,0,1.24.21,1.7.62.24.22.43.46.58.72.14.26.31.4.5.4.11,0,.24-.04.38-.12.66-.35.98-.89.98-1.62,0-.54-.2-.97-.59-1.27-.4-.3-.93-.45-1.59-.44-1.7.02-3.21.57-4.55,1.64-.2.16-.36.24-.48.24-.15,0-.28-.05-.4-.16-.11-.11-.17-.24-.17-.4,0-.18.07-.32.2-.43,1.18-1,2.67-2.27,4.45-3.8.14-.13.22-.24.22-.35,0-.17-.15-.24-.46-.22-.54.04-1.44.1-2.71.18-.16,0-.3-.04-.42-.16-.12-.11-.18-.25-.18-.41s.05-.3.16-.41c.11-.11.24-.17.4-.17,1.52,0,3.13-.09,4.82-.24.25-.02.45.03.6.15.15.12.23.29.23.49s-.11.4-.32.58c-.82.66-1.68,1.37-2.6,2.15-.13.1-.19.2-.19.3,0,.12.09.18.26.18.06,0,.12,0,.18-.02.43-.09.84-.13,1.21-.13.91,0,1.65.21,2.21.62.62.46.94,1.14.94,2.02ZM243.04,99.99c.3.02.46-.1.46-.36,0-.13-.06-.25-.17-.37-.27-.3-.62-.46-1.04-.46s-.66.16-.66.47c0,.28.24.48.71.61.19.05.43.08.71.11Z"/>
      <path class="cls-1" d="M38.24,112.46c0,.14-.05.25-.14.35-.1.1-.21.14-.35.14h-3.3c-.24,0-.36.08-.36.23,0,.08.04.17.13.26.74.78,1.92,1.41,3.52,1.91.24.07.36.24.36.49,0,.14-.05.26-.15.36-.1.1-.22.14-.37.14-.04,0-.09,0-.14-.02-1.78-.54-3.12-1.27-4.01-2.18-.15-.15-.29-.23-.42-.23-.14,0-.29.09-.44.26-.81.94-2.14,1.67-4,2.17-.06.02-.1.02-.14.02-.14,0-.26-.05-.36-.15-.1-.1-.16-.23-.16-.38,0-.26.13-.43.38-.5,1.7-.47,2.87-1.1,3.49-1.88.06-.08.1-.16.1-.24,0-.18-.12-.26-.37-.26h-3.24c-.14,0-.25-.05-.35-.14s-.14-.21-.14-.35.05-.25.14-.35.21-.14.35-.14h3.59c.3,0,.47-.16.49-.47v-.16c.04-.35.22-.53.56-.53.16,0,.29.06.4.17.11.12.16.25.16.41v.07c0,.33.16.49.47.49h3.8c.14,0,.25.05.35.14.1.1.14.21.14.35ZM37.87,108.93c0,.15-.05.28-.16.38-.1.1-.23.16-.38.16h-.11c.06.1.09.21.07.32-.05.43-.17.72-.35.88-.19.15-.49.23-.91.23h-1.52c-.46,0-.75-.06-.87-.17-.12-.12-.19-.38-.19-.8v-1.44c0-.32-.16-.48-.48-.48h-.23c-.28,0-.46.14-.53.43-.33,1.34-1.29,2.32-2.89,2.94-.06.02-.13.04-.19.04-.13,0-.24-.05-.34-.14-.1-.1-.14-.22-.14-.36,0-.23.1-.39.31-.47,1.16-.46,1.87-1.1,2.14-1.91.02-.06.02-.11.02-.17,0-.24-.15-.36-.44-.36h-1.01c-.34,0-.52.17-.52.52v.58c0,.15-.05.28-.16.38-.1.1-.23.16-.37.16-.15,0-.28-.05-.39-.16-.11-.1-.16-.23-.16-.38v-1.06c0-.68.34-1.02,1.02-1.02h2.76c.32,0,.48-.16.48-.48v-.23c0-.16.06-.3.17-.41.12-.11.25-.17.41-.17s.29.06.4.17c.11.11.16.25.16.41v.23c0,.32.16.48.48.48h2.88c.68,0,1.02.34,1.02,1.02v.89ZM36.86,109.22c-.05-.09-.07-.18-.07-.29v-.41c0-.34-.17-.52-.52-.52h-1.28c-.32,0-.48.16-.48.48v1.08c0,.19.02.31.07.35.04.04.16.06.34.06h.78c.18,0,.3-.02.38-.07.08-.04.14-.15.18-.32.06-.26.24-.38.52-.38h.08Z"/>
      <path class="cls-1" d="M49.52,111.55c0,1.14-.53,2.04-1.6,2.69-.79.48-1.84.81-3.16.98-.17.02-.32-.02-.44-.14-.13-.12-.19-.26-.19-.43,0-.14.05-.26.14-.37.1-.11.21-.17.35-.19,2.46-.33,3.7-1.18,3.7-2.56,0-.97-.64-1.45-1.92-1.45-1.02,0-2.66.3-4.91.9-.06.02-.11.02-.16.02-.15,0-.29-.06-.41-.17-.12-.12-.18-.25-.18-.41,0-.3.15-.49.46-.56.78-.19,1.53-.36,2.23-.49,1.28-.25,2.28-.37,3-.37.9,0,1.6.17,2.11.52.65.43.97,1.11.97,2.03Z"/>
      <path class="cls-1" d="M62.51,115.46c0,.14-.05.27-.16.37-.11.1-.23.16-.38.16h-4.99c-1.14,0-1.94-.25-2.42-.76-.14-.15-.28-.23-.42-.23-.11,0-.22.05-.34.14-.34.27-.66.52-.97.73-.1.06-.2.1-.32.1-.16,0-.3-.06-.41-.17-.11-.11-.17-.25-.17-.41,0-.21.09-.37.28-.49.53-.34.93-.61,1.2-.82s.41-.5.41-.86v-1.55c0-.3-.15-.46-.46-.46h-.91c-.14,0-.27-.05-.37-.16s-.16-.23-.16-.38.05-.27.16-.37c.1-.1.23-.15.37-.15h1.49c.64,0,.96.32.96.96v2.21c0,.37.07.66.22.87.15.21.34.38.58.5.3.15.76.23,1.37.23h4.91c.14,0,.27.05.38.16.11.1.16.23.16.37ZM54.76,107.89c0,.15-.05.28-.16.39-.11.11-.24.16-.4.16-.15,0-.28-.06-.4-.17-.34-.35-.72-.69-1.13-1.01-.13-.1-.19-.25-.19-.43,0-.15.05-.28.16-.39.11-.11.24-.16.39-.16.13,0,.24.04.34.12.46.38.87.73,1.22,1.07.11.1.17.24.17.42ZM62.3,113.67c0,.15-.05.28-.16.39s-.24.16-.39.16c-.17,0-.31-.07-.43-.2-.82-.95-1.42-1.99-1.82-3.11-.12-.34-.25-.52-.4-.52-.14,0-.28.16-.42.48-.51,1.14-1.22,2.22-2.12,3.22-.11.12-.25.18-.41.18-.15,0-.28-.05-.38-.16-.1-.1-.16-.23-.16-.38,0-.14.05-.27.16-.37.83-.85,1.48-1.76,1.96-2.75.37-.77.68-1.73.94-2.88.02-.09.02-.16.02-.22,0-.21-.15-.31-.44-.31h-1.27c-.15,0-.28-.05-.38-.16-.1-.11-.16-.23-.16-.38s.05-.27.16-.38c.1-.11.23-.16.38-.16h1.73c.7,0,1.06.34,1.09,1.01.06,1.29.27,2.39.61,3.31.37.99.96,1.95,1.78,2.87.09.1.13.22.13.36Z"/>
      <path class="cls-1" d="M74.89,112.64c0,.17-.06.31-.18.43-.12.12-.26.17-.43.17-.1,0-.2-.02-.29-.07l-.5-.26c-.12-.06-.23-.1-.32-.1-.2,0-.36.13-.47.4-.46,1.09-1.17,2-2.14,2.72-.1.08-.22.12-.36.12-.17,0-.31-.06-.43-.18-.12-.12-.18-.26-.18-.43,0-.21.08-.37.25-.49.8-.59,1.4-1.36,1.79-2.3.04-.1.06-.18.06-.26,0-.23-.14-.4-.41-.5-.57-.22-1.16-.38-1.76-.49-.06-.02-.13-.02-.19-.02-.34,0-.58.18-.74.55-.17.39-.45,1.03-.85,1.91-.26.56-.53.96-.79,1.19-.26.24-.6.35-1,.35-.49,0-.9-.19-1.22-.57-.33-.38-.49-.84-.49-1.39,0-1,.4-1.8,1.2-2.39.54-.39,1.17-.65,1.91-.77.54-.09.9-.35,1.09-.78.27-.62.46-1.06.56-1.32.04-.1.06-.2.06-.28,0-.22-.19-.32-.56-.29-.38.04-1.02.1-1.91.17-.16,0-.3-.04-.43-.15-.12-.11-.19-.25-.19-.41,0-.15.05-.28.16-.4.1-.11.23-.17.38-.18.86-.03,1.83-.12,2.93-.26.12-.02.21-.02.26-.02.58,0,.88.24.88.72,0,.17-.04.34-.12.53l-.89,2.06c-.05.12-.07.22-.07.31,0,.21.16.34.48.4.43.08.94.22,1.51.41.1.03.18.05.26.05.26,0,.42-.16.46-.48.05-.42.08-.84.1-1.24,0-.16.07-.3.19-.41.12-.11.25-.17.41-.17s.31.06.43.19c.12.12.18.27.17.44,0,.18-.04.5-.1.95-.05.4-.07.7-.07.9,0,.34.17.59.52.77.22.1.45.21.67.31.25.16.37.35.37.58ZM67.32,111.89c.05-.1.07-.2.07-.29,0-.18-.09-.26-.26-.26-.06,0-.14.01-.22.04-.33.11-.62.27-.86.48-.46.39-.7.9-.7,1.51,0,.19.05.36.15.51.1.15.23.22.39.22.3,0,.6-.32.88-.96l.55-1.25Z"/>
      <path class="cls-1" d="M86,110.3c0,.24-.11.41-.34.5-.54.22-1.04.45-1.51.68-.33.16-.53.33-.61.5-.06.13-.08.38-.08.77v.77c0,.16-.06.29-.17.4-.11.11-.25.16-.41.16s-.29-.05-.4-.16c-.11-.11-.16-.24-.16-.4v-.46c0-.28-.1-.42-.31-.42-.09,0-.18.03-.29.1-.97.6-1.45,1.12-1.45,1.55,0,.25.16.43.49.53.33.11.89.16,1.68.16.62,0,1.45-.07,2.48-.2.17-.02.31.02.44.13.12.11.19.25.19.42,0,.14-.05.27-.14.38-.1.11-.22.17-.36.19-.91.1-1.81.16-2.69.16s-1.61-.08-2.1-.23c-.82-.26-1.22-.75-1.22-1.45,0-.82.88-1.75,2.65-2.8.29-.17.43-.34.43-.5,0-.21-.17-.31-.5-.31-.46,0-1.05.22-1.76.66-.58.36-1.08.76-1.52,1.2l-.31.37c-.13.12-.27.18-.42.18-.16,0-.29-.05-.4-.16s-.16-.24-.16-.4c0-.14.04-.27.13-.37.83-1,1.53-2,2.09-3,.06-.1.08-.19.08-.28,0-.21-.15-.31-.44-.3-.26,0-.65.01-1.16.01-.14,0-.27-.05-.37-.16-.1-.1-.15-.23-.15-.37s.05-.28.16-.38c.11-.1.23-.15.38-.14.5.02,1.04.02,1.64,0,.47,0,.79-.23.96-.66l.24-.62c.1-.25.28-.37.54-.37.16,0,.29.06.4.17.11.11.16.24.16.4,0,.07-.01.14-.04.2-.04.1-.06.16-.07.18-.03.09-.05.17-.05.24,0,.23.14.33.43.3.3-.03.88-.11,1.73-.24.16-.02.3.02.43.13.13.11.19.24.19.4,0,.32-.16.5-.48.54-.8.1-1.52.18-2.15.23-.35.03-.62.11-.8.22-.18.12-.35.32-.51.62-.02.02-.06.09-.12.19-.09.15-.13.28-.13.37,0,.12.07.18.22.18.09,0,.2-.03.35-.08.42-.16.81-.24,1.16-.24.48,0,.85.16,1.1.48.18.22.34.32.5.32.09,0,.18-.02.29-.07l1.45-.71c.08-.04.16-.06.24-.06.15,0,.28.05.39.16s.16.24.16.4Z"/>
      <path class="cls-1" d="M93.43,113.44c-.7,1.38-1.38,2.08-2.03,2.08-.8,0-1.42-.71-1.86-2.14-.34-1.1-.52-2.36-.52-3.76,0-.72.02-1.34.07-1.86.02-.17.08-.31.2-.42.12-.11.26-.17.43-.17.18,0,.34.07.46.21s.18.3.16.49c-.06.54-.08,1.16-.08,1.86,0,.92.1,1.83.3,2.74.22,1,.52,1.5.89,1.5.26,0,.56-.36.9-1.08.1-.22.28-.32.54-.32.17,0,.31.06.43.17.12.12.17.26.17.43,0,.1-.02.2-.06.28ZM98.63,113.07c.02.19-.03.36-.16.52-.13.15-.29.23-.49.23-.17,0-.32-.06-.44-.17-.13-.11-.2-.25-.22-.41-.2-1.82-.79-3.43-1.76-4.85-.07-.1-.11-.22-.11-.35,0-.18.06-.32.18-.44s.27-.18.44-.18c.22,0,.39.09.52.26,1.1,1.54,1.78,3.33,2.04,5.39Z"/>
      <path class="cls-1" d="M111.26,113.45c0,.15-.06.29-.17.41-.89.94-1.64,1.42-2.26,1.42-.55,0-.92-.22-1.1-.65-.11-.26-.17-.68-.17-1.25,0-.46.03-1.16.08-2.1.05-.94.08-1.64.08-2.1,0-.4-.14-.6-.42-.6-.56,0-1.38.6-2.45,1.81-.38.43-.57.93-.58,1.49-.02,1.7-.02,2.91-.01,3.61,0,.16-.06.3-.18.42-.12.12-.26.18-.43.18s-.3-.06-.41-.17c-.12-.12-.17-.26-.17-.43,0,.16,0-.48.02-1.92,0-.29-.08-.43-.25-.43-.11,0-.22.08-.34.24-.11.16-.36.53-.73,1.12-.11.17-.28.25-.49.25-.16,0-.3-.06-.41-.17-.12-.11-.17-.25-.17-.41,0-.14.06-.29.17-.44.43-.58,1.06-1.41,1.87-2.47.27-.35.41-.73.42-1.13,0-.21-.04-.36-.16-.46-.11-.1-.27-.13-.47-.1-.02,0-.4.07-1.14.22-.2.04-.37,0-.5-.14s-.2-.29-.2-.46c0-.31.16-.5.49-.55.12-.02.6-.1,1.45-.22.38-.06.57-.27.58-.64l.04-1.16c0-.16.07-.3.18-.41.11-.11.25-.17.41-.17s.31.06.43.18.18.26.17.43l-.06,1.75c0,.34.08.52.25.52.11,0,.24-.07.4-.22,1-.97,1.86-1.45,2.58-1.45.88,0,1.32.51,1.32,1.52,0,.47-.03,1.18-.09,2.11-.06.94-.09,1.64-.09,2.1,0,.33,0,.53.02.61.04.22.15.32.32.32.28,0,.66-.29,1.15-.86.11-.13.26-.19.43-.19.16,0,.3.06.41.17.12.12.17.25.17.41Z"/>
      <path class="cls-1" d="M122.65,107.45c0,.32-.22.51-.65.58-1.21.18-2.28.68-3.22,1.49-.94.81-1.4,1.67-1.4,2.56,0,1.26,1.04,2.08,3.11,2.48.34.06.52.27.52.61,0,.19-.07.35-.22.48s-.32.18-.51.14c-1.16-.2-2.09-.56-2.8-1.08-.88-.64-1.32-1.49-1.32-2.54,0-.85.29-1.63.88-2.35.23-.29.49-.55.77-.78.24-.2.36-.37.36-.52,0-.19-.2-.27-.61-.24-1.25.11-2.58.25-4,.42-.18.02-.33-.02-.46-.14s-.19-.27-.19-.44c0-.15.05-.28.15-.4s.23-.18.38-.19c1.45-.14,4.28-.36,8.48-.65.22-.02.39.03.53.14.14.11.2.25.2.43Z"/>
      <path class="cls-1" d="M134.77,112.6c0,1.02-.36,1.84-1.08,2.45-.62.54-1.47.88-2.54,1.02-.17.02-.32-.02-.45-.14s-.2-.26-.2-.43c0-.33.16-.52.48-.58,1.71-.3,2.57-1.09,2.57-2.38,0-.89-.36-1.51-1.09-1.87-.1-.05-.19-.07-.28-.07-.21,0-.38.13-.5.4-.52,1.09-1.12,2.04-1.79,2.84-1.03,1.23-2.06,1.85-3.08,1.85-.53,0-.94-.15-1.23-.45-.29-.3-.44-.71-.44-1.23,0-.91.27-1.74.8-2.48.41-.57.92-1.03,1.52-1.39.36-.22.55-.52.58-.9v-.23c.03-.37-.14-.55-.5-.55-.45,0-.96,0-1.52-.01-.15,0-.28-.06-.39-.17-.11-.11-.16-.24-.16-.4s.06-.28.17-.4c.12-.11.25-.16.41-.16.74.03,1.28.04,1.64.04.33,0,.52-.18.56-.52l.07-.52c.05-.35.24-.53.56-.53.17,0,.32.07.44.22.13.14.18.29.16.44l-.04.23c-.03.19,0,.34.08.44.09.1.23.15.42.13.82-.06,1.75-.17,2.78-.32.17-.02.32.02.45.13.13.11.2.26.2.43,0,.33-.17.51-.5.55-1.26.15-2.28.25-3.08.3-.38.02-.58.2-.6.52-.02.19.03.33.13.41s.25.11.44.09c.31-.04.58-.06.8-.06,1.22,0,2.2.23,2.92.7.86.56,1.28,1.42,1.28,2.58ZM127.58,114.35c.36-.19.52-.57.48-1.14,0-.36-.02-.72-.02-1.07-.03-.56-.14-.84-.31-.84-.11,0-.24.06-.38.19-.31.27-.56.62-.76,1.03-.21.44-.31.88-.31,1.32,0,.47.2.71.59.71.22,0,.46-.07.72-.2ZM130.6,110.81c.04-.08.06-.15.06-.22,0-.2-.12-.29-.37-.28-.37.02-.64.09-.82.19-.25.14-.38.38-.38.72,0,.3,0,.65.01,1.03,0,.24.09.36.25.36.11,0,.22-.07.31-.2.36-.5.67-1.04.94-1.61Z"/>
      <path class="cls-1" d="M140.15,112.58c-.31.76-.58,1.52-.8,2.28-.11.38-.34.58-.67.58s-.57-.22-.67-.66c-.22-.94-.32-2.01-.32-3.23,0-1.46.14-2.95.41-4.46.06-.34.26-.5.59-.5.18,0,.34.07.46.22.12.14.17.31.14.49-.31,1.94-.47,3.4-.47,4.38v.7c0,.26.06.38.19.38.12,0,.22-.1.3-.31l.07-.18c.07-.18.2-.26.38-.26.12,0,.22.04.31.13s.13.19.13.31c0,.05-.01.1-.04.16ZM146.96,109.05c0,.32-.16.52-.47.59-.19.03-.49.09-.89.17-.36.07-.54.28-.54.64v.9c0,1.06-.18,1.96-.53,2.69-.38.78-1.01,1.45-1.87,1.99-.09.06-.19.08-.31.08-.17,0-.31-.06-.43-.18s-.18-.26-.18-.43c0-.22.1-.4.29-.52.68-.42,1.17-.95,1.46-1.57.26-.57.4-1.28.4-2.14v-.62c0-.41-.21-.6-.64-.58-.74.05-1.27.07-1.57.06h-.49c-.15-.01-.28-.07-.4-.18-.11-.11-.17-.24-.17-.4,0-.16.06-.3.18-.41s.26-.17.42-.16h.44c.48.03,1.01,0,1.6-.05.4-.04.59-.26.56-.65l-.07-1.3c0-.17.05-.32.16-.44.12-.13.26-.19.44-.19.16,0,.3.05.41.16.12.11.18.24.19.4,0,.25.02.64.05,1.16.03.38.18.58.48.58.05,0,.1,0,.16-.02l.61-.14c.07-.02.12-.02.14-.02.15,0,.28.06.4.17.11.12.17.25.17.41ZM146.84,107.61c0,.12-.04.22-.12.31s-.19.13-.32.13c-.17,0-.37-.15-.6-.44-.17-.22-.34-.45-.5-.67-.09-.09-.13-.19-.13-.3,0-.3.15-.46.46-.46.12,0,.23.06.34.17.33.37.6.7.8,1.01.06.08.08.16.08.25ZM147.97,106.71c0,.12-.05.22-.14.31s-.2.13-.32.13c-.18,0-.31-.07-.39-.2-.26-.38-.49-.68-.71-.92-.08-.09-.12-.18-.12-.29,0-.3.15-.46.46-.46.1,0,.21.06.32.17.29.29.56.62.82,1.01.05.11.08.2.08.25Z"/>
      <path class="cls-1" d="M159.01,107.45c0,.32-.22.51-.65.58-1.21.18-2.28.68-3.22,1.49-.94.81-1.4,1.67-1.4,2.56,0,1.26,1.04,2.08,3.11,2.48.34.06.52.27.52.61,0,.19-.07.35-.22.48-.15.13-.32.18-.51.14-1.16-.2-2.09-.56-2.8-1.08-.88-.64-1.32-1.49-1.32-2.54,0-.85.29-1.63.88-2.35.23-.29.49-.55.77-.78.24-.2.36-.37.36-.52,0-.19-.2-.27-.61-.24-1.25.11-2.58.25-4,.42-.18.02-.33-.02-.46-.14s-.19-.27-.19-.44c0-.15.05-.28.15-.4s.23-.18.38-.19c1.45-.14,4.28-.36,8.48-.65.22-.02.39.03.53.14.14.11.2.25.2.43Z"/>
      <path class="cls-1" d="M171.58,107.03c0,.16-.06.29-.17.4s-.24.16-.4.16h-3.98c-.4,0-.6.2-.6.6v.05c0,.5.23.88.68,1.14,1.02.58,1.97,1.14,2.84,1.68.19.12.29.29.29.52,0,.17-.06.31-.18.43s-.26.18-.43.18c-.13,0-.24-.03-.34-.1-.49-.33-1.2-.79-2.15-1.38-.12-.07-.23-.11-.32-.11-.26,0-.4.18-.4.53v4.55c0,.16-.06.3-.17.42-.11.12-.25.18-.41.18s-.3-.06-.41-.18c-.12-.12-.17-.26-.17-.42v-7.49c0-.4-.2-.6-.6-.6h-3.04c-.15,0-.28-.05-.39-.16-.11-.11-.16-.24-.16-.4,0-.15.05-.28.16-.39.11-.11.24-.16.39-.16h9.38c.15,0,.28.05.4.16s.17.24.17.39Z"/>
      <path class="cls-1" d="M182.53,107.7c0,.23-.11.4-.34.52-.5.24-1.08.46-1.75.67-.26.08-.38.21-.38.38,0,.1.04.21.13.32.58.78,1.17,1.46,1.76,2.06.17.17.25.36.25.56,0,.18-.07.34-.2.47-.13.13-.3.19-.5.19-.13,0-.26-.03-.4-.08-.97-.43-1.96-.65-2.96-.65-.74,0-1.31.11-1.72.34-.41.22-.61.53-.61.92,0,.9.98,1.36,2.93,1.36.72,0,1.5-.06,2.33-.17.17-.02.32.02.45.14.13.12.2.26.2.44,0,.14-.05.27-.15.38-.1.11-.22.17-.35.19-.78.1-1.55.16-2.33.16-2.86,0-4.3-.8-4.3-2.4,0-.87.38-1.51,1.14-1.91.58-.31,1.36-.47,2.32-.47.39,0,.82.05,1.3.16.07.02.12.02.13.02.07.02.14.02.2.02.17,0,.25-.06.25-.18,0-.1-.05-.2-.14-.32-.3-.37-.53-.65-.67-.85-.26-.35-.58-.53-.95-.53-.09,0-.19,0-.31.02-1.01.15-2.09.23-3.25.23-.16,0-.3-.06-.41-.17-.11-.11-.17-.25-.17-.41s.06-.29.17-.41.25-.17.41-.17c.94,0,1.82-.06,2.64-.16.28-.03.42-.15.42-.36,0-.1-.04-.21-.11-.32l-.41-.67c-.06-.1-.08-.2-.08-.3,0-.16.06-.3.17-.41.12-.12.25-.17.41-.17.24,0,.42.1.53.31.27.53.44.84.52.94.26.37.53.55.82.55.1,0,.21-.02.32-.05.62-.18,1.24-.42,1.86-.72.08-.04.16-.06.25-.06.16,0,.3.06.41.17.11.12.17.25.17.41Z"/>
      <path class="cls-1" d="M190.39,113.44c-.7,1.38-1.38,2.08-2.03,2.08-.8,0-1.42-.71-1.86-2.14-.34-1.1-.52-2.36-.52-3.76,0-.72.02-1.34.07-1.86.02-.17.08-.31.2-.42.12-.11.26-.17.43-.17.18,0,.34.07.46.21s.18.3.16.49c-.06.54-.08,1.16-.08,1.86,0,.92.1,1.83.3,2.74.22,1,.52,1.5.89,1.5.26,0,.56-.36.9-1.08.1-.22.28-.32.54-.32.17,0,.31.06.43.17.12.12.17.26.17.43,0,.1-.02.2-.06.28ZM195.59,113.07c.02.19-.03.36-.16.52-.13.15-.29.23-.49.23-.17,0-.32-.06-.44-.17s-.2-.25-.22-.41c-.2-1.82-.79-3.43-1.76-4.85-.07-.1-.11-.22-.11-.35,0-.18.06-.32.18-.44.12-.12.27-.18.44-.18.22,0,.39.09.52.26,1.1,1.54,1.78,3.33,2.04,5.39Z"/>
      <path class="cls-1" d="M200.7,114.78c0,.49-.17.9-.52,1.24s-.76.51-1.25.51-.9-.17-1.24-.51-.51-.75-.51-1.24.17-.9.51-1.25c.34-.34.75-.52,1.24-.52s.9.17,1.25.52c.34.34.52.76.52,1.25ZM199.85,114.78c0-.26-.09-.47-.26-.65-.18-.18-.39-.26-.65-.26s-.46.09-.64.27c-.18.18-.26.39-.26.64s.09.46.26.63c.18.17.39.26.64.26s.47-.08.65-.25c.18-.17.26-.38.26-.64Z"/>
    </g>
    <g>
      <path class="cls-1" d="M210.64,138.81c-.42.71-.76,1.4-1.04,2.08-.12.29-.32.43-.61.43-.4,0-.63-.21-.7-.62-.07-.47-.11-1.18-.11-2.12s.14-2.08.41-3.37c.08-.39.29-.59.62-.59.17,0,.31.06.42.17.11.12.17.26.17.43,0,.05,0,.1-.01.14-.29,1.32-.44,2.32-.46,2.99,0,.26.05.4.18.4.1,0,.22-.1.34-.29l.06-.1c.08-.13.2-.19.36-.19.29,0,.43.14.43.43,0,.08-.02.15-.06.22ZM214.77,138.87c0,1.35-.24,2.46-.73,3.32-.51.9-1.35,1.65-2.52,2.27-.09.05-.18.07-.29.07-.17,0-.31-.07-.43-.2-.12-.13-.18-.28-.18-.45,0-.22.11-.4.34-.52.98-.51,1.66-1.13,2.05-1.85.37-.66.55-1.56.55-2.7,0-1.03-.11-2.24-.32-3.64-.03-.18.02-.35.14-.5s.28-.22.47-.22c.15,0,.29.05.4.16.12.1.19.23.21.38.21,1.5.31,2.78.31,3.86Z"/>
      <path class="cls-1" d="M227.71,143.15c0,.15-.06.29-.17.4-.11.12-.24.17-.4.17-.1,0-.19-.03-.29-.08-.56-.34-1.15-.63-1.76-.89-.09-.03-.17-.05-.24-.05-.21,0-.35.15-.42.44-.09.38-.25.67-.48.86-.37.31-1.03.47-1.99.47-.58,0-1.08-.12-1.48-.36-.47-.3-.71-.72-.71-1.26,0-.58.23-1.02.69-1.33.46-.31,1.09-.46,1.9-.46.06,0,.21,0,.44.02.18.02.32-.02.42-.11.1-.09.14-.23.14-.4l-.08-4.21c0-.16.06-.3.17-.41.11-.12.25-.17.41-.17s.3.05.41.16c.11.11.17.24.17.4v.91c.02.38.21.56.58.52.5-.05,1.1-.14,1.82-.26.16-.03.31,0,.44.12.13.11.2.25.2.42,0,.31-.15.49-.46.54-.83.14-1.51.22-2.03.26-.34.03-.51.22-.5.56l.02,1.39c0,.41.2.68.59.82.7.26,1.47.6,2.3,1.03.2.1.3.27.3.49ZM223.36,142.72c.04-.29-.06-.48-.31-.56-.14-.06-.38-.08-.72-.08-.96,0-1.44.25-1.44.76,0,.43.36.65,1.09.65.41,0,.7-.03.88-.1.29-.1.46-.32.5-.66Z"/>
      <path class="cls-1" d="M239.61,139.76c0,1.23-.52,2.28-1.56,3.13-.83.7-1.92,1.22-3.26,1.57-.06.02-.11.02-.14.02-.16,0-.3-.06-.41-.17s-.17-.26-.17-.43c0-.3.14-.48.42-.56,1.03-.3,1.88-.7,2.53-1.2.88-.66,1.32-1.44,1.32-2.33,0-1.07-.54-1.61-1.62-1.61s-2.47.28-4.09.85c-.07.02-.14.04-.19.04-.16,0-.3-.06-.42-.18s-.18-.26-.18-.43c0-.3.14-.49.43-.58,1.88-.57,3.38-.85,4.51-.85.9,0,1.59.23,2.08.68.51.48.77,1.16.77,2.04ZM238.22,135.56c0,.18-.06.32-.19.44-.13.12-.28.17-.44.15-1.62-.14-2.9-.34-3.84-.6-.3-.08-.44-.27-.44-.58,0-.17.06-.31.17-.43.12-.12.26-.17.43-.17.05,0,.1,0,.16.02,1.06.29,2.27.48,3.61.58.15,0,.28.07.39.19.11.12.16.25.16.4Z"/>
    </g>
  </g>
</svg>