<?xml version="1.0" encoding="UTF-8"?>
<svg xmlns="http://www.w3.org/2000/svg" viewBox="0 0 273.45 170.93">
  <defs>
    <style>
      .cls-1 {
        fill: #5b5b5b;
      }

      .cls-2 {
        stroke: #cecece;
        stroke-linecap: round;
        stroke-linejoin: round;
        stroke-width: 7px;
      }

      .cls-2, .cls-3, .cls-4, .cls-5, .cls-6 {
        fill: none;
      }

      .cls-3 {
        stroke: #ffdede;
      }

      .cls-3, .cls-4, .cls-5, .cls-6 {
        stroke-miterlimit: 10;
      }

      .cls-3, .cls-5 {
        stroke-width: 30px;
      }

      .cls-4 {
        stroke: #fff9e1;
      }

      .cls-4, .cls-6 {
        stroke-width: 40px;
      }

      .cls-5 {
        stroke: #f2e9ff;
      }

      .cls-6 {
        stroke: #e7ffe1;
      }
    </style>
  </defs>
  <g id="_レイヤー_1" data-name="レイヤー 1">
    <path class="cls-3" d="M81.5,168.37c0-83.25,101-83.25,101,0"/>
    <path class="cls-4" d="M60.39,168.37c0-124.7,145.08-124.48,145.08,0"/>
    <path class="cls-6" d="M38.5,167.44c0-169.06,194.99-154.83,193.87,0"/>
    <path class="cls-5" d="M18.5,165.14c1.7-195.84,235-199.65,235,.79"/>
    <path class="cls-2" d="M9.21,166.75s87.16,1.52,86.63.01c0-60.28,74.53-60.28,74.53-.01.72-.85,98.1,3.52,99.54-5.29C273.83-41.84,4.04-53.32,4.04,152.77c0,0-3.01,8.15,5.17,13.98Z"/>
  </g>
  <g id="_レイヤー_2" data-name="レイヤー 2">
    <g>
      <path class="cls-1" d="M126.21,23.17c0,.16-.06.3-.17.41s-.24.17-.4.17h-.55c-.36,0-.54.18-.54.54v.8c0,.17-.06.31-.18.44-.12.12-.26.19-.43.19s-.31-.06-.44-.19-.19-.27-.19-.44v-.8c0-.36-.18-.54-.54-.54h-2.99c-.7,0-1.06-.25-1.06-.74,0-.24.09-.49.28-.74l3.7-5.21c.26-.37.6-.55,1-.55.25,0,.45.09.61.26.16.17.24.41.24.7v4.61c0,.36.18.54.54.54h.55c.15,0,.28.06.4.17.11.11.17.24.17.4ZM123.32,22.07v-3.29c0-.22-.06-.34-.17-.34-.06,0-.14.06-.23.18l-2.4,3.41c-.12.17-.18.29-.18.37,0,.14.16.2.48.2h1.96c.36,0,.54-.18.54-.54Z"/>
      <path class="cls-1" d="M138.27,21.73c0,1.29-.04,2.13-.11,2.53-.2,1.14-.67,1.7-1.42,1.7-.42,0-.93-.06-1.52-.18-.3-.06-.46-.24-.46-.54,0-.15.05-.28.16-.39s.23-.16.38-.16c.11,0,.28.02.5.07.22.05.39.07.5.07.34,0,.55-.18.65-.54.11-.41.17-1.3.17-2.68v-.22c0-.31-.05-.52-.16-.61-.11-.1-.35-.14-.71-.14h-1.27c-.34,0-.53.17-.58.52-.13.93-.35,1.72-.66,2.39-.46.98-1.17,1.78-2.12,2.42-.08.06-.18.08-.31.08-.16,0-.29-.05-.4-.16-.11-.11-.16-.24-.16-.4,0-.2.08-.36.24-.47.68-.48,1.2-1.03,1.56-1.66.34-.58.57-1.29.71-2.15.06-.38-.1-.58-.5-.58h-1.75c-.15,0-.28-.05-.38-.16s-.16-.24-.16-.39c0-.14.05-.27.16-.37s.23-.16.38-.16h1.85c.35,0,.53-.18.54-.53,0-.41.01-.69.01-.84s.05-.28.16-.4c.11-.11.24-.17.4-.17.15,0,.28.06.4.17.11.12.17.25.17.4v.82c0,.36.18.54.53.54h1.97c.84,0,1.26.42,1.26,1.26v.9Z"/>
      <path class="cls-1" d="M150.31,24.51c0,.68-.13,1.14-.39,1.38-.26.24-.74.36-1.45.36h-1.19c-.14,0-.27-.05-.37-.16-.1-.11-.16-.24-.16-.39s.05-.28.16-.38c.1-.1.23-.15.37-.15h1.04c.34,0,.57-.06.68-.17.11-.11.17-.34.17-.67v-1.13c0-.36-.18-.54-.54-.54h-3.77c-.33,0-.52.17-.58.5-.18,1.09-.57,2.05-1.15,2.89-.13.18-.3.28-.5.28-.17,0-.31-.06-.43-.18-.12-.12-.18-.26-.18-.42,0-.11.04-.22.11-.32.78-1.16,1.16-2.54,1.16-4.14v-3.88c0-.82.41-1.22,1.22-1.22h4.56c.82,0,1.22.41,1.22,1.22v7.12ZM149.18,18.39v-.56c0-.39-.2-.59-.59-.59h-3.58c-.39,0-.59.2-.59.59v.56c0,.32.16.48.48.48h3.79c.32,0,.48-.16.48-.48ZM149.18,21.12v-.74c0-.32-.16-.48-.48-.48h-3.79c-.32,0-.48.16-.48.48v.74c0,.32.16.48.48.48h3.79c.32,0,.48-.16.48-.48Z"/>
      <path class="cls-1" d="M83.46,34.13c0,.64-.32.96-.96.96h-1.82c-.32,0-.48.16-.48.48v5.27c0,.15-.06.28-.17.39-.11.11-.24.16-.4.16s-.28-.05-.4-.16c-.11-.11-.17-.24-.17-.39v-8.75c0-.64.32-.96.96-.96h2.47c.64,0,.96.32.96.96v2.04ZM82.38,32.37c0-.22-.11-.34-.34-.34h-1.51c-.22,0-.34.11-.34.34s.12.35.36.35h1.46c.24,0,.36-.12.36-.35ZM82.38,33.89h0c0-.25-.12-.37-.36-.37h-1.46c-.24,0-.36.12-.36.35s.12.36.36.36h1.49c.22,0,.34-.11.34-.34ZM86.37,39.21c0,.64-.32.96-.96.96h-2.77c-.64,0-.96-.32-.96-.96v-2.44c0-.64.32-.96.96-.96h2.77c.64,0,.96.32.96.96v2.44ZM85.36,37.2v-.14c0-.26-.15-.4-.46-.4h-1.75c-.3,0-.46.13-.46.4v.14c0,.24.12.36.36.36h1.94c.24,0,.36-.12.36-.36ZM85.36,38.87v-.18c0-.24-.12-.36-.36-.36h-1.94c-.24,0-.36.12-.36.36v.18c0,.26.15.4.46.4h1.75c.3,0,.46-.13.46-.4ZM89.03,39.71c0,.61-.1,1.02-.29,1.23-.2.21-.58.32-1.16.32h-1.03c-.14,0-.25-.05-.35-.15-.1-.1-.15-.22-.15-.35,0-.14.05-.27.15-.37.1-.1.22-.15.35-.15h.62c.29,0,.48-.05.58-.14.1-.09.15-.29.15-.59v-3.94c0-.32-.16-.48-.48-.48h-1.9c-.64,0-.96-.32-.96-.96v-2.04c0-.64.32-.96.96-.96h2.54c.64,0,.96.32.96.96v7.62ZM87.9,32.37c0-.22-.11-.34-.34-.34h-1.58c-.22,0-.34.11-.34.34s.12.35.36.35h1.54c.24,0,.36-.12.36-.35ZM87.9,33.87c0-.23-.12-.35-.36-.35h-1.54c-.24,0-.36.12-.36.36h0c0,.24.11.35.34.35h1.56c.24,0,.36-.12.36-.36Z"/>
      <path class="cls-1" d="M101.02,37.62c0,1.02-.36,1.84-1.08,2.45-.62.54-1.47.88-2.54,1.02-.17.02-.32-.02-.45-.14-.13-.12-.2-.26-.2-.43,0-.33.16-.52.48-.58,1.71-.3,2.57-1.09,2.57-2.38,0-.89-.36-1.51-1.09-1.87-.1-.05-.19-.07-.28-.07-.21,0-.38.13-.5.4-.52,1.09-1.12,2.04-1.79,2.84-1.03,1.23-2.06,1.85-3.08,1.85-.53,0-.94-.15-1.23-.45s-.44-.71-.44-1.23c0-.91.27-1.74.8-2.48.41-.57.92-1.03,1.52-1.39.36-.22.55-.52.58-.9v-.23c.03-.37-.14-.55-.5-.55-.45,0-.96,0-1.52-.01-.15,0-.28-.06-.39-.17-.11-.11-.16-.24-.16-.4s.06-.28.17-.4c.12-.11.25-.16.41-.16.74.03,1.28.04,1.64.04.33,0,.52-.18.56-.52l.07-.52c.05-.35.24-.53.56-.53.17,0,.32.07.44.22s.18.29.16.44l-.04.23c-.03.19,0,.34.08.44.09.1.23.15.42.13.82-.06,1.75-.17,2.78-.32.17-.02.32.02.45.13.13.11.2.26.2.43,0,.33-.17.51-.5.55-1.26.15-2.28.25-3.08.3-.38.02-.58.2-.6.52-.02.19.03.33.13.41s.25.11.44.09c.31-.04.58-.06.8-.06,1.22,0,2.2.23,2.92.7.86.56,1.28,1.42,1.28,2.58ZM93.83,39.37c.36-.19.52-.57.48-1.14,0-.36-.02-.72-.02-1.07-.03-.56-.14-.84-.31-.84-.11,0-.24.06-.38.19-.31.27-.56.62-.76,1.03-.21.44-.31.88-.31,1.32,0,.47.2.71.59.71.22,0,.46-.07.72-.2ZM96.84,35.83c.04-.08.06-.15.06-.22,0-.2-.12-.29-.37-.28-.37.02-.64.09-.82.19-.25.14-.38.38-.38.72,0,.3,0,.65.01,1.03,0,.24.09.36.25.36.11,0,.22-.07.31-.2.36-.5.67-1.04.94-1.61Z"/>
      <path class="cls-1" d="M107.42,35.53c-.42.71-.76,1.4-1.04,2.08-.12.29-.32.43-.61.43-.4,0-.63-.21-.7-.62-.07-.47-.11-1.18-.11-2.12s.14-2.08.41-3.37c.08-.39.29-.59.62-.59.17,0,.31.06.42.17.11.12.17.26.17.43,0,.05,0,.1-.01.14-.29,1.32-.44,2.32-.46,2.99,0,.26.05.4.18.4.1,0,.22-.1.34-.29l.06-.1c.08-.13.2-.19.36-.19.29,0,.43.14.43.43,0,.08-.02.15-.06.22ZM111.54,35.59c0,1.35-.24,2.46-.73,3.32-.51.9-1.35,1.65-2.52,2.27-.09.05-.18.07-.29.07-.17,0-.31-.07-.43-.2-.12-.13-.18-.28-.18-.45,0-.22.11-.4.34-.52.98-.51,1.66-1.13,2.05-1.85.37-.66.55-1.56.55-2.7,0-1.03-.11-2.24-.32-3.64-.03-.18.02-.35.14-.5s.28-.22.47-.22c.15,0,.29.05.4.16.12.1.19.23.21.38.21,1.5.31,2.78.31,3.86Z"/>
      <path class="cls-1" d="M122.33,35.4c0,1.3-.21,2.7-.64,4.22-.13.46-.27.78-.42.97-.22.29-.52.43-.9.43-.44,0-.99-.12-1.66-.35-.27-.1-.41-.28-.41-.54,0-.16.06-.3.17-.41.12-.11.25-.17.4-.17.06,0,.12,0,.17.02.42.14.7.2.86.2.19,0,.33-.06.41-.17.06-.08.14-.26.22-.54.38-1.29.56-2.46.56-3.5,0-.38-.08-.64-.23-.77-.15-.13-.44-.19-.86-.19h-.17c-.07,0-.13.01-.18.01-.4,0-.66.21-.78.62-.54,1.82-1.25,3.57-2.14,5.27-.12.23-.31.35-.56.35-.18,0-.32-.06-.44-.19s-.18-.27-.18-.45c0-.13.02-.24.07-.32.75-1.32,1.42-2.81,1.99-4.48.02-.08.04-.15.04-.22,0-.29-.17-.41-.52-.36-.25.04-.64.1-1.16.17-.17.02-.32-.02-.46-.14-.14-.12-.21-.26-.21-.44,0-.34.18-.53.53-.58.35-.05.91-.12,1.67-.21.38-.03.64-.27.78-.72.07-.39.14-.78.2-1.18.06-.34.26-.52.6-.52.19,0,.35.07.46.21.12.14.16.31.13.5,0,.04-.04.22-.11.53-.06.22-.08.39-.08.52,0,.34.19.49.56.47h.18c.61-.05,1.1.06,1.48.31.42.29.62.83.62,1.62ZM123.94,32.77c0,.13-.05.24-.14.33s-.2.14-.33.14c-.19,0-.33-.07-.42-.22-.23-.37-.48-.68-.74-.95-.09-.09-.13-.2-.13-.32,0-.32.16-.48.47-.48.14,0,.26.06.36.18.34.38.62.73.84,1.06.06.1.1.18.1.26ZM124.71,36.97c-.34-.87-.79-1.72-1.36-2.56-.06-.1-.1-.2-.1-.32,0-.17.06-.31.19-.43.12-.12.27-.17.44-.17.2,0,.36.09.49.26.63.89,1.14,1.81,1.54,2.76.03.08.05.16.05.24,0,.17-.07.32-.21.44-.14.13-.3.19-.47.19-.26,0-.45-.14-.56-.42ZM125.4,32.09c0,.13-.05.24-.14.33s-.2.14-.33.14c-.18,0-.32-.07-.42-.22-.26-.39-.51-.72-.74-.97-.09-.1-.13-.2-.13-.3,0-.32.16-.48.48-.48.12,0,.24.06.35.17.28.28.56.64.85,1.07.06.11.08.2.08.26Z"/>
      <path class="cls-1" d="M136.65,39.89c0,.34-.17.54-.52.59-1.32.18-2.64.28-3.96.28-2.35,0-3.53-.71-3.53-2.12,0-.86.6-1.76,1.81-2.69.24-.18.36-.4.36-.64,0-.11-.02-.23-.07-.36-.35-.89-.64-1.84-.88-2.87,0-.04-.01-.08-.01-.13,0-.18.06-.33.19-.45s.27-.19.45-.19c.15,0,.29.05.4.16.12.1.19.23.22.38.15.8.37,1.6.66,2.41.1.26.25.4.46.4.11,0,.23-.04.35-.11.07-.04.96-.52,2.65-1.45.1-.06.2-.08.29-.08.17,0,.31.06.43.18.12.12.17.26.17.43,0,.25-.11.43-.34.54-.98.49-2.05,1.06-3.19,1.73-.73.42-1.31.82-1.74,1.19-.62.54-.94,1.02-.94,1.46,0,.72.75,1.08,2.26,1.08,1.24,0,2.5-.11,3.78-.32.18-.03.34.01.48.13s.22.27.22.46Z"/>
      <path class="cls-1" d="M148.5,36.48c0,1.23-.52,2.28-1.56,3.13-.83.7-1.92,1.22-3.26,1.57-.06.02-.11.02-.14.02-.16,0-.3-.06-.41-.17-.12-.12-.17-.26-.17-.43,0-.3.14-.48.42-.56,1.03-.3,1.88-.7,2.53-1.2.88-.66,1.32-1.44,1.32-2.33,0-1.07-.54-1.61-1.62-1.61s-2.47.28-4.09.85c-.07.02-.14.04-.19.04-.16,0-.3-.06-.42-.18-.12-.12-.18-.26-.18-.43,0-.3.14-.49.43-.58,1.88-.57,3.38-.85,4.51-.85.9,0,1.59.23,2.08.68.51.48.77,1.16.77,2.04ZM147.11,32.28c0,.18-.06.32-.19.44-.13.12-.28.17-.44.15-1.62-.14-2.9-.34-3.84-.6-.3-.08-.44-.27-.44-.58,0-.17.06-.31.17-.43.12-.12.26-.17.43-.17.05,0,.1,0,.16.02,1.06.29,2.27.48,3.61.58.15,0,.28.07.39.19.11.12.16.25.16.4Z"/>
      <path class="cls-1" d="M160.87,39.58c0,.34-.16.54-.49.6-1.26.23-2.48.35-3.66.35s-2.01-.09-2.66-.28c-1.07-.3-1.61-.88-1.61-1.74,0-.58.38-1.26,1.14-2.02.1-.1.24-.16.4-.16s.28.05.4.16c.11.11.17.24.17.39s-.05.27-.16.37c-.43.43-.65.8-.65,1.12,0,.66,1.02,1,3.05,1,.8,0,1.93-.12,3.38-.37.18-.03.34,0,.48.13.14.12.22.27.22.45ZM159.57,33.37c-.6.24-1.42.68-2.45,1.33-.1.06-.2.1-.28.1-.14,0-.25-.05-.35-.15-.1-.1-.15-.22-.15-.37,0-.18.08-.32.24-.42l.16-.1c.15-.09.23-.18.23-.26,0-.1-.12-.16-.35-.16-.72,0-1.7-.02-2.95-.07-.15,0-.28-.07-.39-.18s-.16-.24-.16-.4c0-.17.06-.31.19-.43.12-.12.27-.17.44-.16,1.58.11,3.43.12,5.57.04.23,0,.42.05.56.17.14.12.21.26.21.43,0,.28-.17.49-.5.62ZM160.9,35.7c0,.13-.05.24-.14.33-.09.09-.2.14-.33.14-.19,0-.33-.07-.42-.22-.23-.37-.48-.68-.74-.95-.09-.09-.13-.2-.13-.32,0-.32.16-.48.47-.48.14,0,.26.06.36.18.34.38.62.73.84,1.06.06.1.1.18.1.26ZM162.36,35.02c0,.13-.05.24-.14.33s-.2.14-.33.14c-.18,0-.32-.07-.42-.22-.26-.39-.51-.72-.74-.97-.09-.1-.13-.2-.13-.3,0-.32.16-.48.48-.48.12,0,.24.06.35.17.28.28.56.64.85,1.07.06.11.08.2.08.26Z"/>
      <path class="cls-1" d="M172.53,32.99c0,.24-.11.41-.34.52,0,0-.47.18-1.38.53-.26.1-.38.23-.38.4,0,.1.04.2.13.31.57.77,1.16,1.46,1.76,2.06.17.17.25.36.25.56,0,.18-.07.34-.2.47-.13.13-.3.19-.5.19-.13,0-.26-.03-.4-.08-.97-.43-1.96-.65-2.96-.65-.74,0-1.31.11-1.72.34s-.61.53-.61.92c0,.9.98,1.36,2.93,1.36.78,0,1.55-.06,2.33-.17.17-.02.32.02.45.14s.2.26.2.44c0,.14-.05.27-.15.38-.1.11-.22.17-.35.19-.78.1-1.55.16-2.33.16-2.86,0-4.3-.8-4.3-2.4,0-.87.38-1.51,1.14-1.91.58-.31,1.36-.47,2.32-.47.44,0,.87.05,1.3.16.14.03.25.05.34.05.17,0,.25-.06.25-.18,0-.1-.05-.2-.14-.32-.3-.37-.53-.65-.67-.85-.26-.36-.58-.54-.94-.54-.1,0-.2.01-.32.04-.91.15-2,.23-3.25.23-.16,0-.3-.06-.41-.17-.11-.11-.17-.25-.17-.41s.06-.3.17-.41c.11-.11.25-.17.41-.17.86,0,1.74-.05,2.64-.16.28-.03.42-.15.42-.36,0-.1-.04-.21-.11-.32l-.41-.67c-.06-.1-.08-.2-.08-.3,0-.16.06-.3.17-.41.12-.12.25-.17.41-.17.24,0,.42.1.53.31.27.53.44.84.52.94.26.37.53.55.82.55.1,0,.2-.02.32-.05.5-.15.99-.34,1.49-.58.08-.04.16-.06.25-.06.16,0,.3.06.41.17.11.12.17.25.17.41ZM173.44,32.31c0,.12-.04.22-.13.31s-.19.13-.32.13c-.17,0-.37-.15-.6-.44-.17-.22-.34-.45-.5-.67-.09-.09-.13-.19-.13-.3,0-.3.15-.46.46-.46.12,0,.23.06.34.17.33.37.6.7.8,1.01.06.08.08.16.08.25ZM174.84,31.65c0,.12-.05.22-.14.31-.09.09-.2.13-.32.13-.18,0-.31-.07-.4-.2-.26-.38-.49-.68-.71-.92-.08-.09-.12-.18-.12-.29,0-.3.15-.46.46-.46.1,0,.21.06.32.17.29.29.56.62.82,1.01.06.11.08.2.08.25Z"/>
      <path class="cls-1" d="M180.88,38.46c-.7,1.38-1.38,2.08-2.03,2.08-.8,0-1.42-.71-1.86-2.14-.34-1.1-.52-2.36-.52-3.76,0-.72.02-1.34.07-1.86.02-.17.08-.31.2-.42.12-.11.26-.17.43-.17.18,0,.34.07.46.21s.18.3.16.49c-.06.54-.08,1.16-.08,1.86,0,.92.1,1.83.3,2.74.22,1,.52,1.5.89,1.5.26,0,.56-.36.9-1.08.1-.22.28-.32.54-.32.17,0,.31.06.43.17s.17.26.17.43c0,.1-.02.2-.06.28ZM186.08,38.09c.02.19-.03.36-.16.52-.13.15-.29.23-.49.23-.17,0-.32-.06-.44-.17s-.2-.25-.22-.41c-.2-1.82-.79-3.43-1.76-4.85-.07-.1-.11-.22-.11-.35,0-.18.06-.32.18-.44.12-.12.27-.18.44-.18.22,0,.39.09.52.26,1.1,1.54,1.78,3.33,2.04,5.39Z"/>
      <path class="cls-1" d="M197.71,39.57c0,.17-.06.31-.17.43-.12.12-.26.17-.43.17-.11,0-.22-.03-.31-.08-.8-.47-1.51-.83-2.14-1.07-.08-.03-.15-.05-.22-.05-.23,0-.37.16-.41.48-.06.48-.22.84-.48,1.07-.4.36-1.12.54-2.15.54-.66,0-1.2-.12-1.63-.37-.53-.31-.79-.78-.79-1.39,0-.7.33-1.2,1-1.52.5-.24,1.14-.36,1.92-.36.09,0,.22,0,.41.01.42.02.62-.16.62-.53v-.34c0-.4-.2-.6-.61-.59-.85.02-1.66.03-2.45.02-.14,0-.27-.05-.37-.16-.1-.11-.15-.23-.15-.38s.05-.27.16-.37c.11-.1.23-.15.38-.15.78.02,1.6.02,2.44,0,.39,0,.59-.21.59-.61v-.05c0-.41-.21-.6-.62-.59-.97.04-1.88.05-2.75.02-.14,0-.27-.07-.37-.17-.1-.11-.16-.23-.16-.38,0-.15.06-.28.17-.38.11-.1.24-.15.4-.14.9.02,1.81.02,2.74,0,.39,0,.59-.2.59-.58,0-.03,0-.21-.01-.54,0-.16.06-.3.17-.41.11-.12.25-.17.41-.17s.3.06.41.17c.11.12.17.25.17.41v.41c0,.42.21.62.62.58.62-.06,1.29-.15,2.02-.25.16-.02.3.02.43.13s.19.24.19.4c0,.3-.16.48-.47.52-.86.11-1.6.2-2.2.25-.38.04-.58.25-.58.62v.04c0,.42.21.62.62.58.42-.04,1.01-.12,1.76-.23.16-.02.3.02.43.13.13.11.19.24.19.4,0,.31-.15.49-.46.53-.64.09-1.3.16-1.98.23-.38.03-.58.24-.58.62v.54c0,.44.22.73.66.88.82.26,1.71.65,2.68,1.16.21.11.31.29.31.53ZM192.9,39.1c.06-.4-.1-.62-.48-.65-.18-.02-.35-.02-.52-.02-1.15,0-1.73.28-1.73.83,0,.22.11.4.33.54s.51.2.87.2c.54,0,.91-.06,1.13-.19s.35-.36.4-.71Z"/>
      <path class="cls-1" d="M69.75,52.78c0,.11-.03.22-.1.32-.54.89-1.2,1.6-1.96,2.12-.86.58-1.76.88-2.72.88-2.1,0-3.16-.95-3.16-2.86,0-.78.02-1.8.05-3.06.02-1.02.04-2.14.06-3.34,0-.17.06-.31.19-.44s.28-.19.44-.19.33.06.46.19.19.28.18.46l-.14,6.11c0,1.26.66,1.88,1.99,1.88.71,0,1.4-.25,2.05-.76.56-.42,1.05-.97,1.48-1.67.12-.2.3-.3.54-.3.18,0,.33.06.45.19s.19.27.19.45Z"/>
      <path class="cls-1" d="M78.48,48.75c-.58.11-1.18.2-1.78.28-.33.04-.57.12-.71.25-.15.13-.26.35-.33.66-.45,1.9-1,3.72-1.67,5.46-.1.26-.3.4-.59.4-.18,0-.32-.06-.44-.19s-.18-.27-.18-.44c0-.08.02-.16.05-.24.68-1.61,1.24-3.31,1.67-5.11.02-.06.02-.12.02-.18,0-.28-.17-.42-.5-.41-.34,0-.64,0-.92,0-.16,0-.3-.07-.41-.19-.12-.12-.17-.25-.17-.41s.06-.31.19-.43c.12-.12.27-.18.44-.17.46.02.82.02,1.1.01.45-.02.7-.24.77-.66.02-.18.06-.44.12-.79.06-.35.26-.52.61-.52.17,0,.31.06.43.18s.18.26.18.42c0,.08-.03.28-.1.6,0,.06-.01.11-.01.16,0,.32.18.45.53.4.05,0,.33-.06.84-.17.38-.07.65-.11.79-.11.17,0,.31.06.41.18s.16.26.16.43c0,.33-.16.52-.49.59ZM82.27,55.06c0,.34-.17.54-.5.59-.76.11-1.56.17-2.4.17-2.13,0-3.19-.6-3.19-1.79,0-.27.07-.58.2-.94.1-.24.28-.36.54-.36.38,0,.56.19.56.58,0,.06-.01.15-.04.27-.02.12-.04.21-.04.27,0,.54.68.82,2.05.82.6,0,1.31-.06,2.14-.18.18-.02.33.02.47.14.14.12.2.26.2.44ZM81.94,50.59c0,.17-.06.31-.19.43-.13.12-.28.18-.44.17-1.19-.06-2.47-.04-3.83.08-.17.02-.31-.03-.44-.15s-.19-.26-.19-.43c0-.15.05-.28.15-.39.1-.11.22-.17.37-.19,1.35-.14,2.68-.18,3.98-.14.16,0,.3.07.41.19.12.12.17.26.17.42Z"/>
      <path class="cls-1" d="M88.35,54.9c0,.24-.08.44-.24.61-.16.16-.36.25-.6.25s-.44-.08-.61-.25-.25-.37-.25-.61.08-.44.25-.61.37-.25.61-.25.43.08.59.25c.16.17.25.37.25.6ZM92.29,47.26c0,.13-.04.26-.11.38l-3.1,5.46c-.11.19-.27.29-.48.29-.15,0-.28-.06-.4-.17-.11-.11-.17-.24-.17-.4,0-.07.02-.15.06-.23l2.7-5.66c.14-.3.38-.46.7-.46.22,0,.4.08.56.23.16.15.23.34.23.55Z"/>
      <path class="cls-1" d="M98.95,46.93c-.3,1.82-.46,3.6-.46,5.35,0,1.01.05,1.99.16,2.94.02.18-.03.34-.15.48-.12.14-.28.2-.46.2-.16,0-.3-.06-.42-.17-.12-.11-.19-.24-.2-.4-.09-.93-.13-1.94-.13-3.04,0-1.86.15-3.71.46-5.57.06-.34.26-.52.6-.52.18,0,.34.07.47.22.13.14.18.31.14.49ZM106.75,54.42c0,.17-.06.31-.17.42-.11.11-.25.17-.42.17-.14,0-.25-.04-.35-.11-.15-.11-.38-.26-.7-.46-.1-.06-.19-.1-.28-.1-.18,0-.32.14-.42.41-.29.77-1.03,1.15-2.23,1.15-.61,0-1.12-.13-1.54-.38-.5-.3-.74-.74-.74-1.31s.21-1.01.62-1.33c.42-.32.99-.47,1.72-.47.21,0,.42.02.62.05.19.03.34,0,.44-.08.1-.08.15-.22.15-.4l-.04-1.85c0-.41-.22-.6-.62-.58-.62.03-1.32.04-2.1.02-.15,0-.28-.06-.39-.17-.11-.11-.16-.24-.16-.4s.06-.29.17-.4c.12-.11.25-.16.41-.15.7.03,1.39.03,2.09,0,.38-.02.57-.22.56-.62v-1.07c-.01-.16.04-.3.16-.41.11-.12.25-.17.41-.17s.3.06.41.17c.11.11.17.25.17.41v.9c.02.38.19.56.52.56.04,0,.09,0,.14-.01l.73-.13c.17-.03.32,0,.46.11.14.11.2.25.2.43,0,.29-.18.48-.54.59-.06.02-.36.06-.91.13-.38.05-.56.26-.55.64l.04,2.27c0,.45.22.78.64.98.47.24.88.47,1.22.68.18.12.28.29.28.5ZM103.37,54.21c.02-.07.04-.14.04-.2,0-.26-.16-.43-.48-.49-.25-.05-.48-.07-.71-.07-.8,0-1.2.24-1.2.72,0,.21.1.38.31.5s.47.19.79.19c.69,0,1.1-.22,1.25-.65Z"/>
      <path class="cls-1" d="M118.23,52.78c0,.11-.03.22-.1.32-.54.89-1.2,1.6-1.96,2.12-.86.58-1.76.88-2.72.88-2.1,0-3.16-.95-3.16-2.86,0-.78.02-1.8.05-3.06.02-1.02.04-2.14.06-3.34,0-.17.06-.31.19-.44s.28-.19.44-.19.33.06.46.19.19.28.18.46l-.14,6.11c0,1.26.66,1.88,1.99,1.88.71,0,1.4-.25,2.05-.76.56-.42,1.05-.97,1.48-1.67.12-.2.3-.3.54-.3.18,0,.33.06.45.19s.19.27.19.45ZM116.28,48.73c0,.13-.05.24-.14.33-.09.09-.2.14-.33.14-.19,0-.33-.07-.42-.22-.23-.37-.48-.68-.74-.95-.09-.09-.13-.2-.13-.32,0-.32.16-.48.47-.48.14,0,.26.06.36.18.34.38.62.73.84,1.06.06.1.1.18.1.26ZM117.74,48.05c0,.13-.05.24-.14.33-.09.09-.2.14-.33.14-.18,0-.32-.07-.42-.22-.26-.39-.51-.72-.74-.97-.09-.1-.13-.2-.13-.3,0-.32.16-.48.48-.48.12,0,.24.06.35.17.28.28.56.64.85,1.07.06.11.08.2.08.26Z"/>
      <path class="cls-1" d="M130.8,51.71c0,2.3-1.31,3.68-3.92,4.14-.18.03-.35-.01-.49-.13-.14-.12-.21-.27-.21-.44,0-.33.16-.52.47-.58,1.96-.38,2.94-1.38,2.94-3,0-1.38-.57-2.24-1.7-2.56-.11-.03-.21-.05-.3-.05h-.01c-.26,0-.44.16-.52.46-.38,1.41-.84,2.59-1.36,3.54-.82,1.5-1.74,2.26-2.74,2.26-.6,0-1.09-.24-1.46-.73-.37-.49-.56-1.1-.56-1.85,0-1.17.41-2.2,1.24-3.08.25-.26.37-.53.37-.8,0-.1-.02-.21-.05-.32-.12-.48-.2-.86-.25-1.15-.03-.18.01-.33.13-.47.12-.14.26-.21.44-.21.32,0,.51.16.56.49.03.18.08.42.13.74.06.26.19.4.4.4.09,0,.18-.02.29-.06.5-.2.97-.33,1.41-.4.44-.06.69-.26.75-.6.02-.13.04-.31.08-.55.06-.34.26-.52.6-.52.18,0,.34.07.46.22.12.15.16.31.13.5l-.06.34c0,.06-.01.11-.01.17,0,.28.16.46.49.54.91.22,1.6.67,2.06,1.33.46.63.68,1.43.68,2.39ZM123.71,53.82c.19-.18.29-.39.29-.61,0-.15-.04-.33-.13-.53-.22-.5-.44-1.04-.64-1.63-.07-.22-.19-.32-.35-.32-.11,0-.21.07-.3.2-.34.54-.52,1.14-.52,1.81,0,.38.08.72.25,1,.18.3.42.46.71.46.19,0,.42-.12.68-.37ZM125.87,49.53c.02-.06.02-.11.02-.17,0-.28-.16-.39-.48-.34-.34.06-.69.17-1.04.35-.24.11-.36.29-.36.53,0,.07.02.16.05.25.15.5.31.95.48,1.37.1.23.22.35.36.35.11,0,.2-.07.25-.2.28-.63.52-1.34.72-2.14Z"/>
      <path class="cls-1" d="M142.8,47.47c0,.32-.22.51-.65.58-1.21.18-2.28.68-3.22,1.49s-1.4,1.67-1.4,2.56c0,1.26,1.04,2.08,3.11,2.48.34.06.52.27.52.61,0,.19-.07.35-.22.48s-.32.18-.51.14c-1.16-.2-2.09-.56-2.8-1.08-.88-.64-1.32-1.49-1.32-2.54,0-.85.29-1.63.88-2.35.23-.29.49-.55.77-.78.24-.2.36-.37.36-.52,0-.19-.2-.27-.61-.24-1.25.11-2.58.25-4,.42-.18.02-.33-.02-.46-.14s-.19-.27-.19-.44c0-.15.05-.28.15-.4s.23-.18.38-.19c1.45-.14,4.28-.36,8.48-.65.22-.02.39.03.53.14.14.11.2.25.2.43Z"/>
      <path class="cls-1" d="M154.94,51.18c0,2.44-1.24,3.93-3.71,4.48-.02,0-.07.01-.13.01-.16,0-.3-.06-.41-.17-.12-.11-.17-.25-.17-.42,0-.32.14-.52.43-.59,1.85-.46,2.77-1.58,2.77-3.34,0-.92-.25-1.66-.74-2.21-.18-.21-.41-.39-.68-.55-.31-.18-.59-.26-.84-.26-.34,0-.55.2-.62.6-.3,1.74-.66,3.15-1.08,4.21-.26.67-.52,1.18-.78,1.51-.41.52-.88.78-1.43.78-.73,0-1.31-.36-1.75-1.09-.38-.62-.58-1.32-.58-2.09,0-1.49.49-2.72,1.48-3.7.99-.98,2.23-1.46,3.71-1.46,1.4,0,2.5.36,3.29,1.08.83.75,1.25,1.82,1.25,3.2ZM149.6,48.77c0-.06.01-.11.01-.17,0-.3-.14-.44-.41-.44-.1,0-.2.02-.31.06-.74.26-1.34.73-1.8,1.43-.46.7-.7,1.5-.7,2.41,0,.5.12.93.35,1.31.23.38.49.57.78.57.34,0,.71-.48,1.1-1.45.33-.82.65-2.06.97-3.72Z"/>
      <path class="cls-1" d="M167.29,47.4c0,.14-.05.27-.15.37-.1.1-.22.16-.37.16h-7.43c-.42,0-.62.21-.62.64v1.45c0,1.31-.04,2.32-.13,3.04-.12.99-.39,1.96-.8,2.89-.1.24-.29.36-.56.36-.17,0-.31-.06-.43-.17-.12-.12-.17-.26-.17-.43,0-.1.02-.2.06-.28.41-.82.68-1.68.8-2.58.1-.7.14-1.68.14-2.94v-1.79c0-.82.41-1.22,1.22-1.22h2.34c.32,0,.48-.16.48-.48v-.05c0-.16.06-.3.17-.41.12-.12.26-.17.43-.17s.3.06.41.17.17.25.17.41v.05c0,.32.16.48.48.48h3.43c.14,0,.27.05.37.15.1.1.15.22.15.35ZM167.27,49.33c0,.14-.05.25-.15.34-.1.09-.21.14-.34.14h-.92c-.32,0-.48.16-.48.48v.49c0,.58-.29.88-.86.88h-.41c-.32,0-.48.11-.48.34s.16.34.48.34h1.72c.68,0,1.02.34,1.02,1.02v1.2c0,.5-.09.82-.27.98-.18.16-.53.23-1.06.23h-.64c-.14,0-.25-.05-.35-.15-.1-.1-.14-.22-.14-.35s.05-.25.14-.35c.1-.1.21-.15.35-.15h.35c.23,0,.38-.04.44-.13.05-.06.07-.22.07-.46v-.35c0-.34-.17-.5-.5-.5h-1.13c-.32,0-.48.16-.48.48v2.1c0,.16-.06.3-.17.41s-.25.17-.41.17-.29-.06-.4-.17c-.11-.11-.16-.25-.16-.41v-2.1c0-.32-.16-.48-.48-.48h-1.01c-.34,0-.52.17-.52.5v1.44c0,.15-.05.28-.16.4-.11.11-.24.17-.39.17s-.28-.06-.39-.17c-.11-.11-.16-.24-.16-.4v-1.91c0-.68.34-1.02,1.02-1.02h1.61c.32,0,.48-.11.48-.34s-.16-.34-.48-.34h-.37c-.58,0-.88-.29-.88-.88v-.49c0-.32-.16-.48-.48-.48h-.9c-.13,0-.24-.05-.34-.14-.1-.09-.14-.21-.14-.34,0-.13.05-.24.14-.34s.21-.14.34-.14h.9c.32,0,.48-.12.48-.35,0-.14.05-.27.16-.37.1-.1.23-.16.38-.16s.27.05.37.16c.1.1.15.23.15.37,0,.23.16.35.48.35h1.55c.32,0,.48-.12.48-.35,0-.14.05-.27.16-.37s.23-.16.37-.16.27.05.37.16c.1.1.16.23.16.37,0,.23.16.35.48.35h.92c.13,0,.24.05.34.14.1.1.15.21.15.34ZM164.31,50.34v-.16c0-.28-.14-.42-.42-.42h-1.67c-.28,0-.42.14-.42.42v.16c0,.3.15.46.46.46h1.6c.3,0,.46-.15.46-.46Z"/>
      <path class="cls-1" d="M174.15,48.95c0,.12-.05.22-.14.31s-.2.13-.32.13h-.65c-.22,0-.32.07-.32.2,0,.1.24.32.73.66.14.1.2.23.2.4,0,.14-.05.25-.14.35s-.21.14-.35.14c-.1,0-.19-.04-.29-.11-.36-.26-.62-.46-.77-.6-.1-.1-.2-.14-.3-.14-.13,0-.24.08-.35.23-.34.47-.82.94-1.44,1.39-.09.06-.2.1-.32.1-.14,0-.27-.05-.37-.16-.1-.1-.15-.23-.15-.37,0-.19.08-.34.23-.44.57-.38.99-.76,1.27-1.14.06-.08.08-.16.08-.23,0-.18-.13-.28-.38-.28h-.97c-.12,0-.22-.04-.31-.13s-.13-.19-.13-.31c0-.13.04-.24.13-.32s.19-.13.31-.13h1.33c.3,0,.46-.14.48-.43.02-.29-.14-.43-.48-.43h-.95c-.13,0-.24-.05-.32-.14s-.13-.2-.13-.33.04-.24.13-.32.2-.13.32-.13h.96c.32,0,.48-.14.48-.41,0-.14.05-.27.16-.37s.23-.16.37-.16.27.05.37.16c.1.1.16.23.16.37,0,.27.16.41.48.41h.8c.13,0,.24.04.33.13s.14.2.14.32-.05.24-.14.33-.2.14-.33.14h-.82c-.3,0-.46.14-.48.43-.02.29.14.43.47.43h.95c.12,0,.23.05.32.14s.14.2.14.32ZM178.27,55.02c0,.74-.37,1.1-1.12,1.1h-5.54c-.74,0-1.12-.37-1.12-1.1v-2.6c0-.74.37-1.1,1.12-1.1h5.54c.74,0,1.12.37,1.12,1.1v2.6ZM177.17,52.81v-.17c0-.29-.14-.43-.43-.43h-4.7c-.29,0-.43.14-.43.43v.17c0,.28.14.42.42.42h4.73c.28,0,.42-.14.42-.42ZM177.17,54.73v-.22c0-.28-.14-.42-.42-.42h-4.73c-.28,0-.42.14-.42.42v.22c0,.29.14.43.43.43h4.7c.29,0,.43-.14.43-.43ZM179.7,48.95c0,.12-.05.22-.14.31s-.2.13-.32.13h-.96c-.25,0-.37.08-.37.25,0,.09.04.18.12.26.36.38.79.74,1.28,1.06.15.1.23.24.23.44,0,.14-.05.27-.15.37s-.22.15-.37.15c-.11,0-.21-.03-.3-.1-.63-.46-1.18-.95-1.64-1.49-.11-.13-.22-.19-.34-.19-.1,0-.21.06-.32.18-.29.31-.65.61-1.09.89-.07.05-.16.07-.25.07-.14,0-.25-.05-.35-.14-.1-.09-.14-.21-.14-.34,0-.18.08-.31.23-.41.29-.18.54-.36.74-.56.08-.07.12-.15.12-.23,0-.14-.11-.22-.32-.22h-.44c-.12,0-.23-.04-.32-.13-.09-.09-.14-.19-.14-.31s.05-.23.14-.32c.09-.09.2-.14.32-.14h.95c.31,0,.48-.14.49-.43.02-.29-.14-.43-.48-.43h-.8c-.13,0-.24-.05-.33-.14s-.14-.2-.14-.33.05-.24.14-.32.2-.13.33-.13h.82c.32,0,.48-.14.48-.41,0-.14.05-.27.16-.37s.23-.16.37-.16.27.05.37.16c.1.1.16.23.16.37,0,.27.16.41.48.41h.98c.13,0,.24.04.33.13.09.09.14.2.14.32s-.05.24-.14.33c-.09.09-.2.14-.33.14h-1c-.3,0-.46.14-.48.43-.02.29.14.43.47.43h1.37c.12,0,.23.05.32.14s.14.2.14.32Z"/>
      <path class="cls-1" d="M191.04,55.72c-.76.15-1.58.23-2.45.23-.77,0-1.28-.24-1.54-.72-.14-.26-.24-.77-.28-1.55-.03-.52-.18-.78-.46-.78-.52,0-1.11.31-1.76.92-.21.19-.78.79-1.7,1.8-.13.14-.28.2-.47.2s-.32-.06-.44-.19-.18-.27-.18-.45.06-.32.19-.44c1.25-1.24,2.8-2.73,4.67-4.48.13-.12.19-.22.19-.3,0-.14-.14-.19-.43-.17l-3.07.24c-.17.02-.32-.03-.44-.15-.13-.12-.19-.26-.19-.43s.05-.3.16-.41c.11-.11.24-.17.39-.18l4.8-.28c.26-.02.48.04.64.18.16.14.25.3.25.5,0,.23-.11.44-.32.64-.46.41-1,.9-1.61,1.49-.18.17-.26.29-.26.37,0,.09.1.14.31.17.51.06.8.44.86,1.16.06.63.1,1,.13,1.1.1.39.32.59.66.59.26,0,.64-.04,1.14-.13.5-.09.88-.13,1.12-.13.16,0,.29.06.4.18.1.12.16.26.16.43,0,.31-.15.5-.46.56ZM188.82,47.26c0,.17-.06.31-.18.43-.12.12-.26.17-.43.15-1.48-.14-2.68-.34-3.6-.59-.29-.08-.43-.27-.43-.56,0-.16.06-.3.17-.41.11-.11.25-.17.41-.17.05,0,.1,0,.16.02.92.26,2.05.44,3.38.56.15.02.28.08.38.18.1.1.15.23.15.38Z"/>
      <path class="cls-1" d="M203.21,47.47c0,.32-.22.51-.65.58-1.21.18-2.28.68-3.22,1.49s-1.4,1.67-1.4,2.56c0,1.3,1.04,2.12,3.11,2.48.34.06.52.26.52.61,0,.19-.07.35-.22.49-.15.13-.32.18-.51.14-1.24-.24-2.18-.61-2.83-1.1-.86-.66-1.28-1.5-1.28-2.52,0-.86.29-1.65.88-2.35.26-.3.51-.56.76-.77s.37-.38.37-.53c0-.19-.2-.27-.61-.24-1.64.14-2.97.28-4,.42-.18.02-.33-.02-.46-.14s-.19-.27-.19-.44c0-.15.05-.29.15-.4.1-.12.23-.18.38-.19,1.47-.14,4.3-.36,8.48-.65.22,0,.39.04.53.15.14.11.2.25.2.41ZM202.56,51.01c0,.13-.05.24-.14.33s-.2.14-.33.14c-.19,0-.33-.07-.42-.22-.23-.37-.48-.68-.74-.95-.09-.09-.13-.2-.13-.32,0-.32.16-.48.47-.48.14,0,.26.06.36.18.34.38.62.73.84,1.06.06.1.1.18.1.26ZM204.02,50.33c0,.13-.05.24-.14.33s-.2.14-.33.14c-.18,0-.32-.07-.42-.22-.26-.39-.51-.72-.74-.97-.09-.1-.13-.2-.13-.3,0-.32.16-.48.48-.48.12,0,.24.06.35.17.28.28.56.64.85,1.07.06.11.08.2.08.26Z"/>
      <path class="cls-1" d="M208.03,46.93c-.3,1.82-.46,3.6-.46,5.35,0,1.01.05,1.99.16,2.94.02.18-.03.34-.15.48s-.28.2-.46.2c-.16,0-.3-.06-.42-.17-.12-.11-.19-.24-.2-.4-.09-.93-.13-1.94-.13-3.04,0-1.86.15-3.71.46-5.57.06-.34.26-.52.6-.52.18,0,.34.07.47.22.13.14.18.31.14.49ZM215.83,54.42c0,.17-.06.31-.17.42-.11.11-.25.17-.42.17-.14,0-.25-.04-.35-.11-.15-.11-.38-.26-.7-.46-.1-.06-.19-.1-.28-.1-.18,0-.32.14-.42.41-.29.77-1.03,1.15-2.23,1.15-.61,0-1.12-.13-1.54-.38-.5-.3-.74-.74-.74-1.31s.21-1.01.62-1.33c.42-.32.99-.47,1.72-.47.21,0,.42.02.62.05.19.03.34,0,.44-.08.1-.08.15-.22.15-.4l-.04-1.85c0-.41-.22-.6-.62-.58-.62.03-1.32.04-2.1.02-.15,0-.28-.06-.39-.17-.11-.11-.16-.24-.16-.4s.06-.29.17-.4c.12-.11.25-.16.41-.15.7.03,1.39.03,2.09,0,.38-.02.57-.22.56-.62v-1.07c-.01-.16.04-.3.16-.41.11-.12.25-.17.41-.17s.3.06.41.17c.11.11.17.25.17.41v.9c.02.38.19.56.52.56.04,0,.09,0,.14-.01l.73-.13c.17-.03.32,0,.46.11.14.11.2.25.2.43,0,.29-.18.48-.54.59-.06.02-.36.06-.91.13-.38.05-.56.26-.55.64l.04,2.27c0,.45.22.78.64.98.47.24.88.47,1.22.68.18.12.28.29.28.5ZM212.45,54.21c.02-.07.04-.14.04-.2,0-.26-.16-.43-.48-.49-.25-.05-.48-.07-.71-.07-.8,0-1.2.24-1.2.72,0,.21.1.38.31.5s.47.19.79.19c.69,0,1.1-.22,1.25-.65Z"/>
      <path class="cls-1" d="M49.72,64.48c0,1.4-.05,2.51-.16,3.34-.16,1.28-.47,2.33-.94,3.14-.13.22-.32.34-.56.34-.18,0-.33-.06-.45-.19s-.19-.27-.19-.45c0-.11.03-.22.08-.31.45-.78.74-1.7.89-2.78.1-.71.14-1.76.14-3.14v-2.77c0-.16.06-.3.18-.41.12-.12.26-.17.42-.17s.3.06.41.17c.11.12.17.25.17.41v2.83ZM53.37,69.69c0,.16-.06.3-.17.41-.11.11-.25.17-.41.17s-.3-.06-.41-.17c-.11-.11-.17-.25-.17-.41v-7.38c0-.16.06-.3.17-.41.11-.11.25-.17.41-.17s.3.06.41.17c.11.11.17.25.17.41v7.38ZM57.21,70.68c0,.16-.06.3-.17.42-.12.12-.25.18-.41.18s-.3-.06-.41-.18c-.12-.12-.17-.26-.17-.42v-9.04c0-.16.06-.3.17-.41.12-.12.25-.17.41-.17s.3.06.41.17c.12.12.17.25.17.41v9.04Z"/>
      <path class="cls-1" d="M64.24,63.47c0,.14-.05.25-.15.35-.1.1-.22.15-.35.15h-.71c-.32,0-.48.12-.48.36,0,.1.05.23.16.41.22.36.69,1,1.39,1.91.09.11.13.22.13.32,0,.14-.05.25-.15.35-.1.1-.22.15-.35.15-.18,0-.3-.04-.36-.13-.09-.12-.24-.33-.44-.62-.07-.11-.15-.17-.23-.17-.1,0-.14.08-.14.25v4.12c0,.14-.05.27-.16.37-.1.1-.23.15-.37.15-.15,0-.28-.05-.38-.15-.1-.1-.15-.22-.15-.37v-3.8c0-.17-.05-.25-.16-.25-.05,0-.2.21-.44.64-.14.25-.29.5-.43.76-.11.16-.26.24-.44.24-.31,0-.49-.18-.53-.53-.02-.1.04-.24.17-.4.64-.84,1.21-1.84,1.7-3,.06-.14.1-.26.1-.35,0-.17-.15-.25-.44-.25h-.92c-.14,0-.25-.05-.35-.15-.1-.1-.15-.22-.15-.35s.05-.25.15-.35c.1-.1.22-.15.35-.15h.92c.32,0,.48-.16.48-.48v-1.16c0-.14.05-.27.16-.37.1-.1.23-.16.37-.16s.27.05.37.16c.1.1.16.23.16.37v1.16c0,.32.16.48.48.48h.71c.14,0,.25.05.35.15.1.1.15.22.15.35ZM70.41,63.49c0,.14-.05.27-.16.37-.1.1-.23.16-.37.16h-.35c-.36,0-.54.18-.54.54v4.84c0,.71-.11,1.18-.32,1.4-.21.22-.63.34-1.27.34h-.89c-.14,0-.27-.05-.38-.16-.11-.1-.16-.23-.16-.37s.05-.27.16-.38c.11-.11.23-.16.38-.16h.62c.34,0,.55-.07.65-.2.07-.1.11-.32.11-.66v-4.64c0-.36-.18-.54-.54-.54h-2.23c-.14,0-.27-.05-.37-.16-.1-.1-.15-.23-.15-.37s.05-.27.15-.37c.1-.1.22-.16.37-.16h2.23c.36,0,.54-.18.54-.54v-1.01c0-.15.05-.28.16-.39.11-.11.24-.16.39-.16.14,0,.27.05.38.16.11.11.16.24.16.39v1.01c0,.36.18.54.54.54h.35c.14,0,.27.05.37.16.1.1.16.23.16.37ZM66.9,67.42c0,.14-.05.26-.16.36-.1.1-.22.16-.36.16-.21,0-.36-.09-.46-.28-.26-.5-.57-1-.94-1.52-.06-.08-.08-.18-.08-.29,0-.14.05-.25.14-.35.1-.1.21-.14.35-.14.18,0,.31.07.41.2.43.61.77,1.14,1.02,1.61.05.09.07.17.07.25Z"/>
      <path class="cls-1" d="M82.27,65.91c0,.14-.05.27-.16.37-.1.1-.23.15-.37.15h-2.54c-.36,0-.54.18-.54.54v2.65c0,.31.09.48.26.52.04,0,.13.01.28.01h.76c.45,0,.73-.11.84-.32.06-.13.11-.46.13-1,0-.14.06-.27.17-.37.1-.1.23-.16.38-.16s.28.06.4.17c.11.11.16.24.16.4-.02.96-.17,1.59-.43,1.89-.26.3-.79.45-1.6.45h-1.28c-.48,0-.8-.08-.96-.23s-.24-.47-.24-.95v-3.05c0-.36-.18-.54-.54-.54h-.46c-.34,0-.53.18-.55.53-.14,2.01-1.11,3.46-2.93,4.36-.08.04-.17.06-.28.06-.15,0-.29-.06-.41-.17-.12-.11-.18-.25-.18-.41,0-.25.11-.42.32-.53.76-.38,1.32-.82,1.69-1.33.37-.51.58-1.16.65-1.96.03-.37-.14-.55-.53-.55h-2.14c-.14,0-.27-.05-.37-.15-.1-.1-.16-.22-.16-.37s.05-.27.16-.37c.1-.1.23-.16.37-.16h3.77c.36,0,.54-.18.54-.54v-.72c0-.36-.18-.54-.54-.54h-1.62c-.43,0-.78.16-1.03.49l-.3.38c-.1.13-.24.19-.42.19-.15,0-.28-.05-.38-.16-.1-.11-.16-.24-.16-.39,0-.14.05-.27.14-.37.6-.67,1.11-1.42,1.54-2.26.1-.19.26-.29.49-.29.16,0,.29.05.4.16.1.11.16.24.16.39,0,.07-.02.16-.07.26-.04.1-.07.18-.07.25,0,.2.14.3.43.3h.89c.36,0,.54-.18.54-.54v-.64c0-.15.05-.28.16-.39s.24-.16.39-.16.28.05.39.16c.11.11.16.24.16.39v.64c0,.36.18.54.54.54h2.77c.14,0,.27.05.37.16.1.1.16.22.16.36,0,.14-.05.27-.16.37-.1.1-.23.16-.37.16h-2.77c-.36,0-.54.18-.54.54v.72c0,.36.18.54.54.54h3.61c.14,0,.27.05.37.16.1.1.16.23.16.37Z"/>
      <path class="cls-1" d="M94.39,70.41c0,.15-.05.28-.16.39s-.24.16-.39.16h-9.53c-.15,0-.28-.05-.38-.16s-.16-.24-.16-.39.05-.28.16-.39c.11-.11.23-.16.38-.16h3.71c.36,0,.54-.18.54-.54v-1.42c0-.36-.18-.54-.54-.54h-2.51c-.14,0-.27-.05-.37-.15-.1-.1-.15-.22-.15-.37s.05-.27.15-.37c.1-.1.22-.15.37-.15h2.51c.36,0,.54-.18.54-.54v-1.09c0-.36-.18-.54-.54-.54h-1.64c-.47,0-.83.2-1.08.6-.1.17-.27.41-.49.73-.11.16-.26.24-.46.24-.15,0-.28-.06-.4-.17-.11-.11-.17-.24-.17-.4,0-.14.04-.25.11-.35.79-1.08,1.4-2.18,1.84-3.29.09-.22.26-.34.52-.34.16,0,.29.06.4.17.11.11.16.24.16.4,0,.09-.08.32-.25.7-.04.1-.06.19-.06.28,0,.24.16.36.47.36h1.06c.36,0,.54-.18.54-.54v-1.08c0-.16.06-.3.17-.41.12-.12.25-.17.41-.17s.3.06.41.17c.11.12.17.25.17.41v1.08c0,.36.18.54.54.54h3.13c.15,0,.28.05.38.16.1.1.16.23.16.37s-.05.28-.16.38c-.1.1-.23.16-.38.16h-3.13c-.36,0-.54.18-.54.54v1.09c0,.36.18.54.54.54h2.47c.14,0,.27.05.37.15.1.1.15.22.15.37s-.05.27-.15.37c-.1.1-.22.15-.37.15h-2.47c-.36,0-.54.18-.54.54v1.42c0,.36.18.54.54.54h3.58c.15,0,.28.05.39.16.11.11.16.24.16.39Z"/>
      <path class="cls-1" d="M106.06,66.18c0,2.44-1.24,3.93-3.71,4.48-.02,0-.07.01-.13.01-.16,0-.3-.06-.41-.17-.12-.11-.17-.25-.17-.42,0-.32.14-.52.43-.59,1.85-.46,2.77-1.58,2.77-3.34,0-.92-.25-1.66-.74-2.21-.18-.21-.41-.39-.68-.55-.31-.18-.59-.26-.84-.26-.34,0-.55.2-.62.6-.3,1.74-.66,3.15-1.08,4.21-.26.67-.52,1.18-.78,1.51-.41.52-.88.78-1.43.78-.73,0-1.31-.36-1.75-1.09-.38-.62-.58-1.32-.58-2.09,0-1.49.49-2.72,1.48-3.7.99-.98,2.23-1.46,3.71-1.46,1.4,0,2.5.36,3.29,1.08.83.75,1.25,1.82,1.25,3.2ZM100.72,63.77c0-.06.01-.11.01-.17,0-.3-.14-.44-.41-.44-.1,0-.2.02-.31.06-.74.26-1.34.73-1.8,1.43-.46.7-.7,1.5-.7,2.41,0,.5.12.93.35,1.31s.49.57.78.57c.34,0,.71-.48,1.1-1.45.33-.82.65-2.06.97-3.72Z"/>
      <path class="cls-1" d="M118.69,62.75c0,.14-.05.25-.15.35-.1.1-.22.15-.35.15h-9.76c-.14,0-.25-.05-.35-.15-.1-.1-.14-.22-.14-.35s.05-.25.14-.35c.1-.1.21-.14.35-.14h1.96c.25,0,.37-.09.37-.28,0-.07-.02-.15-.07-.23l-.08-.14c-.04-.07-.06-.16-.06-.25,0-.15.05-.28.16-.38.1-.1.23-.16.38-.16.22,0,.37.1.47.29l.32.64c.18.34.46.52.85.52h1.18c.4,0,.68-.17.85-.52.1-.22.19-.43.29-.64.14-.25.32-.37.53-.37.15,0,.28.05.38.16.1.11.16.23.16.38,0,.09-.02.16-.05.23l-.13.26c-.04.08-.06.15-.06.22,0,.18.12.28.37.28h1.94c.14,0,.25.05.35.14.1.1.15.21.15.35ZM113.14,70.02c0,.51-.08.85-.23,1-.16.16-.47.23-.95.23h-.67c-.14,0-.25-.05-.35-.15-.1-.1-.15-.22-.15-.35s.05-.25.15-.35c.1-.1.22-.15.35-.15h.37c.2,0,.32-.02.37-.07.05-.05.07-.18.07-.38v-.49c0-.32-.16-.48-.48-.48h-1.39c-.32,0-.48.16-.48.48v1.5c0,.15-.05.28-.16.39-.11.11-.23.16-.38.16-.15,0-.28-.05-.38-.16s-.16-.23-.16-.38v-5.77c0-.66.33-1,.98-1h2.5c.66,0,1,.33,1,1v4.98ZM112.09,65.57v-.12c0-.29-.14-.43-.42-.43h-1.49c-.3,0-.44.14-.44.43v.12c0,.28.14.42.42.42h1.51c.28,0,.42-.14.42-.42ZM112.09,67.47v-.16c0-.28-.14-.42-.42-.42h-1.51c-.28,0-.42.14-.42.42v.16c0,.28.14.42.42.42h1.51c.28,0,.42-.14.42-.42ZM115.42,68.76c0,.14-.05.25-.15.35-.1.1-.22.15-.35.15-.14,0-.27-.05-.37-.15-.1-.1-.15-.22-.15-.35v-3.89c0-.14.05-.27.15-.37.1-.1.22-.15.37-.15.14,0,.25.05.35.15.1.1.15.22.15.37v3.89ZM118.02,69.73c0,.59-.09.98-.28,1.18-.19.19-.55.29-1.1.29h-.9c-.14,0-.25-.05-.35-.15-.1-.1-.15-.22-.15-.35s.05-.25.15-.35c.1-.1.22-.15.35-.15h.52c.33,0,.53-.06.6-.17.06-.09.08-.25.08-.49v-5.03c0-.15.05-.28.16-.38.1-.1.23-.16.38-.16s.28.05.38.16c.1.1.16.23.16.38v5.23Z"/>
      <path class="cls-1" d="M130.3,66.18c0,2.44-1.24,3.93-3.71,4.48-.02,0-.07.01-.13.01-.16,0-.3-.06-.41-.17-.12-.11-.17-.25-.17-.42,0-.32.14-.52.43-.59,1.85-.46,2.77-1.58,2.77-3.34,0-.92-.25-1.66-.74-2.21-.18-.21-.41-.39-.68-.55-.31-.18-.59-.26-.84-.26-.34,0-.55.2-.62.6-.3,1.74-.66,3.15-1.08,4.21-.26.67-.52,1.18-.78,1.51-.41.52-.88.78-1.43.78-.73,0-1.31-.36-1.75-1.09-.38-.62-.58-1.32-.58-2.09,0-1.49.49-2.72,1.48-3.7.99-.98,2.23-1.46,3.71-1.46,1.4,0,2.5.36,3.29,1.08.83.75,1.25,1.82,1.25,3.2ZM124.96,63.77c0-.06.01-.11.01-.17,0-.3-.14-.44-.41-.44-.1,0-.2.02-.31.06-.74.26-1.34.73-1.8,1.43-.46.7-.7,1.5-.7,2.41,0,.5.12.93.35,1.31s.49.57.78.57c.34,0,.71-.48,1.1-1.45.33-.82.65-2.06.97-3.72Z"/>
      <path class="cls-1" d="M142.65,62.4c0,.14-.05.27-.15.37-.1.1-.22.16-.37.16h-7.43c-.42,0-.62.21-.62.64v1.45c0,1.31-.04,2.32-.13,3.04-.12.99-.39,1.96-.8,2.89-.1.24-.29.36-.56.36-.17,0-.31-.06-.43-.17-.12-.12-.17-.26-.17-.43,0-.1.02-.2.06-.28.41-.82.68-1.68.8-2.58.1-.7.14-1.68.14-2.94v-1.79c0-.82.41-1.22,1.22-1.22h2.34c.32,0,.48-.16.48-.48v-.05c0-.16.06-.3.17-.41.12-.12.26-.17.43-.17s.3.06.41.17c.12.12.17.25.17.41v.05c0,.32.16.48.48.48h3.43c.14,0,.27.05.37.15.1.1.15.22.15.35ZM142.62,64.33c0,.14-.05.25-.15.34s-.21.14-.34.14h-.92c-.32,0-.48.16-.48.48v.49c0,.58-.29.88-.86.88h-.41c-.32,0-.48.11-.48.34s.16.34.48.34h1.72c.68,0,1.02.34,1.02,1.02v1.2c0,.5-.09.82-.27.98-.18.16-.53.23-1.06.23h-.64c-.14,0-.25-.05-.35-.15-.1-.1-.14-.22-.14-.35s.05-.25.14-.35c.1-.1.21-.15.35-.15h.35c.23,0,.38-.04.44-.13.05-.06.07-.22.07-.46v-.35c0-.34-.17-.5-.5-.5h-1.13c-.32,0-.48.16-.48.48v2.1c0,.16-.06.3-.17.41-.11.11-.25.17-.41.17s-.29-.06-.4-.17c-.11-.11-.16-.25-.16-.41v-2.1c0-.32-.16-.48-.48-.48h-1.01c-.34,0-.52.17-.52.5v1.44c0,.15-.05.28-.16.4-.11.11-.24.17-.39.17s-.28-.06-.39-.17c-.11-.11-.16-.24-.16-.4v-1.91c0-.68.34-1.02,1.02-1.02h1.61c.32,0,.48-.11.48-.34s-.16-.34-.48-.34h-.37c-.58,0-.88-.29-.88-.88v-.49c0-.32-.16-.48-.48-.48h-.9c-.13,0-.24-.05-.34-.14-.1-.09-.14-.21-.14-.34,0-.13.05-.24.14-.34.1-.1.21-.14.34-.14h.9c.32,0,.48-.12.48-.35,0-.14.05-.27.16-.37.1-.1.23-.16.38-.16.14,0,.27.05.37.16.1.1.15.23.15.37,0,.23.16.35.48.35h1.55c.32,0,.48-.12.48-.35,0-.14.05-.27.16-.37.1-.1.23-.16.37-.16s.27.05.37.16c.1.1.16.23.16.37,0,.23.16.35.48.35h.92c.13,0,.24.05.34.14.1.1.15.21.15.34ZM139.67,65.34v-.16c0-.28-.14-.42-.42-.42h-1.67c-.28,0-.42.14-.42.42v.16c0,.3.15.46.46.46h1.6c.3,0,.46-.15.46-.46Z"/>
      <path class="cls-1" d="M147.13,62.05c-.32,1.83-.48,3.56-.48,5.2,0,1.14.04,2.1.13,2.87.02.18-.03.35-.16.49-.13.14-.29.22-.47.22-.17,0-.31-.06-.43-.17-.12-.11-.19-.25-.2-.41-.08-.77-.12-1.74-.12-2.93,0-1.78.17-3.6.5-5.48.06-.34.27-.52.61-.52.19,0,.35.07.47.22.12.15.17.32.14.51ZM154.42,69.37c0,.14-.05.27-.16.39-.1.12-.23.18-.37.2-1.04.14-1.91.2-2.6.2-2.12,0-3.18-.64-3.18-1.92,0-.36.1-.73.3-1.1.11-.22.28-.32.5-.32.39,0,.59.19.59.56,0,.08-.02.2-.07.35-.05.16-.07.28-.07.38,0,.33.2.56.59.68.34.12.87.18,1.6.18.59,0,1.32-.07,2.18-.2.18-.03.35.01.49.14.14.12.21.28.21.46ZM154,63.03c0,.15-.05.28-.15.4-.1.11-.22.18-.38.2-.9.13-1.86.19-2.87.19-.45,0-.94-.02-1.46-.05-.15,0-.29-.07-.4-.19s-.17-.25-.17-.41c0-.18.07-.32.2-.44.13-.12.28-.17.45-.15.45.04.92.06,1.43.06.9,0,1.79-.07,2.65-.2.18-.03.35.01.49.13.14.12.21.27.21.46Z"/>
      <path class="cls-1" d="M162.24,63.71c-.41.09-.8.16-1.19.22-.45.07-.75.32-.9.74-.56,1.61-1.2,3.14-1.91,4.58-.11.23-.3.35-.55.35-.17,0-.31-.06-.43-.18-.12-.12-.18-.26-.18-.43,0-.1.02-.19.07-.29.67-1.3,1.25-2.61,1.74-3.94.03-.09.05-.16.05-.23,0-.25-.17-.37-.5-.37h-.68c-.16,0-.3-.06-.41-.17-.11-.12-.17-.25-.17-.41s.06-.31.18-.43c.12-.12.26-.17.43-.16.35.02.68.02.98.01.49,0,.79-.25.91-.73.06-.27.13-.54.2-.82.12-.3.32-.46.59-.46.17,0,.31.06.43.18s.18.26.18.42c0,.06-.04.24-.12.52-.02.1-.04.18-.04.25,0,.24.11.36.32.36.04,0,.08,0,.13-.01l.62-.13c.07-.02.12-.02.14-.02.16,0,.29.06.39.17.1.12.15.26.15.43,0,.3-.15.49-.46.55ZM166.79,69.65c0,.16-.06.3-.17.42-.12.12-.26.18-.43.18-.1,0-.21-.04-.32-.11-.26-.18-.54-.34-.84-.5-.1-.06-.18-.08-.26-.08-.19,0-.33.14-.41.42-.23.81-.94,1.21-2.14,1.21-.63,0-1.16-.14-1.58-.41-.5-.31-.76-.77-.76-1.37s.24-1.04.71-1.36c.41-.27.92-.41,1.55-.41.18,0,.38.02.6.05.18.02.33,0,.43-.08.1-.08.15-.22.15-.41v-1.75c-.01-.16.04-.3.16-.41.11-.12.25-.17.41-.17s.3.06.41.17c.11.11.17.25.17.41v2.02c.01.44.23.76.67.96.38.18.84.42,1.37.73.2.12.3.29.3.5ZM163.3,69.31c0-.34-.19-.54-.58-.6-.23-.04-.44-.06-.61-.06-.73,0-1.09.26-1.09.77,0,.23.1.41.29.55.2.13.45.2.76.2.56,0,.92-.14,1.09-.41.09-.14.13-.29.13-.44ZM166.9,64.3c0,.16-.06.3-.17.41-.12.12-.25.17-.41.17-.11,0-.22-.04-.32-.11-.61-.41-1.25-.76-1.93-1.04-.22-.1-.34-.27-.34-.53,0-.16.06-.3.17-.41.12-.11.25-.17.4-.17.09,0,.16.02.22.05.75.32,1.46.69,2.11,1.12.18.12.28.29.28.5Z"/>
      <path class="cls-1" d="M173.03,65.53c-.42.71-.76,1.4-1.04,2.08-.12.29-.32.43-.61.43-.4,0-.63-.21-.7-.62-.07-.47-.11-1.18-.11-2.12s.14-2.08.41-3.37c.08-.39.29-.59.62-.59.17,0,.31.06.42.17.11.12.17.26.17.43,0,.05,0,.1-.01.14-.29,1.32-.44,2.32-.46,2.99,0,.26.05.4.18.4.1,0,.22-.1.34-.29l.06-.1c.08-.13.2-.19.36-.19.29,0,.43.14.43.43,0,.08-.02.15-.06.22ZM177.16,65.59c0,1.35-.24,2.46-.73,3.32-.51.9-1.35,1.65-2.52,2.27-.09.05-.18.07-.29.07-.17,0-.31-.07-.43-.2s-.18-.28-.18-.45c0-.22.11-.4.34-.52.98-.51,1.66-1.13,2.05-1.85.37-.66.55-1.56.55-2.7,0-1.03-.11-2.24-.32-3.64-.03-.18.02-.35.14-.5.13-.15.28-.22.47-.22.15,0,.29.05.4.16.12.1.19.23.21.38.21,1.5.31,2.78.31,3.86Z"/>
      <path class="cls-1" d="M191.1,66.39c0,2.11-1.19,3.52-3.58,4.21-.06.02-.11.02-.16.02-.16,0-.3-.06-.41-.17-.12-.12-.17-.25-.17-.41,0-.28.14-.46.42-.55,1.8-.56,2.7-1.59,2.7-3.1,0-.62-.18-1.12-.54-1.49-.36-.37-.86-.55-1.5-.55-.82,0-1.64.31-2.46.92-.45.34-.68.82-.7,1.45-.03,1.28-.05,2.53-.06,3.74,0,.16-.06.3-.17.41-.12.12-.25.17-.41.17s-.3-.06-.41-.18c-.12-.12-.17-.26-.17-.42,0-.74.02-1.5.05-2.29,0-.29-.08-.43-.25-.43-.11,0-.22.08-.34.23-.28.38-.55.78-.82,1.18-.12.18-.28.26-.48.26-.16,0-.3-.06-.41-.17-.12-.12-.17-.25-.17-.41,0-.14.04-.25.11-.35l1.12-1.5c.26-.34.54-.68.85-1.04.31-.36.47-.63.48-.81,0-.21-.05-.36-.16-.46-.12-.1-.27-.13-.47-.1-.17.02-.57.1-1.2.22-.18.03-.33,0-.47-.13-.14-.12-.21-.26-.21-.44,0-.32.16-.51.49-.56.27-.05.78-.13,1.51-.24.38-.06.57-.27.58-.64,0-.22,0-.58.02-1.09,0-.16.07-.3.18-.41s.25-.17.41-.17.3.06.42.19.18.27.17.43c-.02.46-.05,1.08-.07,1.85,0,.32.1.48.31.48.11,0,.24-.04.4-.13.81-.47,1.62-.71,2.45-.71.98,0,1.76.29,2.32.86.56.57.84,1.35.84,2.33Z"/>
      <path class="cls-1" d="M200.1,65.33c0,1.26-.21,2.67-.64,4.22-.12.45-.26.77-.41.97-.22.29-.53.43-.91.43-.42,0-.97-.12-1.66-.35-.27-.09-.41-.27-.41-.54,0-.16.06-.3.17-.41.12-.11.25-.17.4-.17.06,0,.15.02.25.05.34.12.6.18.78.18.19,0,.33-.06.41-.17.06-.09.14-.27.22-.54.38-1.34.56-2.51.56-3.5,0-.38-.08-.64-.23-.77s-.44-.19-.86-.19c-.38,0-.63.04-.77.12-.17.1-.29.27-.36.52-.52,1.74-1.23,3.5-2.14,5.27-.12.23-.31.35-.56.35-.18,0-.32-.06-.44-.19s-.18-.27-.18-.45c0-.14.02-.24.07-.32.82-1.42,1.48-2.91,1.99-4.48.02-.08.04-.15.04-.22,0-.29-.17-.41-.52-.36-.25.03-.64.09-1.16.17-.17.02-.32-.02-.46-.14-.14-.12-.21-.26-.21-.44,0-.34.17-.53.52-.58s.91-.12,1.67-.22c.38-.04.64-.28.78-.72.02-.06.09-.46.2-1.18.06-.34.26-.52.6-.52.19,0,.35.07.46.21.12.14.16.31.13.5,0,.04-.04.22-.11.53-.06.23-.08.4-.08.52,0,.34.19.49.56.47h.18c.62-.05,1.11.06,1.48.31.42.29.62.83.62,1.62ZM203.73,66.23c0,.18-.06.33-.19.46s-.27.19-.45.19c-.29,0-.49-.14-.6-.42-.42-1.08-.95-2.06-1.6-2.95-.07-.1-.11-.21-.11-.34,0-.17.06-.31.17-.43.12-.12.26-.18.43-.18.2,0,.36.08.49.25.73.95,1.33,2.01,1.81,3.18.02.06.04.14.04.24Z"/>
      <path class="cls-1" d="M214.85,67.81c0,1.17-.58,2.03-1.73,2.58-.94.46-2.11.67-3.5.65h-.83c-.15-.01-.28-.07-.4-.19-.11-.12-.17-.25-.17-.4,0-.16.06-.3.18-.41s.26-.17.43-.16c.44.02.72.02.83.02.94,0,1.75-.13,2.45-.4.98-.36,1.46-.93,1.46-1.7,0-.52-.2-.91-.6-1.18-.33-.22-.77-.32-1.32-.32-.66,0-1.35.15-2.07.45-.72.3-1.32.69-1.81,1.16-.26.26-.52.38-.78.38-.2,0-.36-.08-.47-.24s-.17-.37-.15-.64l.24-3.71c.02-.37.22-.55.59-.55.18,0,.32.06.44.19s.17.28.16.44l-.16,2.02c-.02.34.08.52.31.52.11,0,.24-.04.38-.13,1.08-.68,2.22-1.02,3.43-1.02.91,0,1.64.21,2.17.62.6.46.9,1.13.9,2.02ZM212.04,62.83c0,.17-.06.31-.17.43-.12.12-.26.18-.44.18-.1,0-.18-.02-.24-.05-.93-.43-2-.8-3.23-1.1-.3-.07-.46-.26-.46-.56,0-.16.06-.3.17-.41.12-.11.25-.17.4-.17.06,0,.11,0,.13.01,1.19.27,2.34.64,3.44,1.09.26.1.38.3.38.58Z"/>
      <path class="cls-1" d="M222.84,63.71c-.41.09-.8.16-1.19.22-.45.07-.75.32-.9.74-.56,1.61-1.2,3.14-1.91,4.58-.11.23-.3.35-.55.35-.17,0-.31-.06-.43-.18-.12-.12-.18-.26-.18-.43,0-.1.02-.19.07-.29.67-1.3,1.25-2.61,1.74-3.94.03-.09.05-.16.05-.23,0-.25-.17-.37-.5-.37h-.68c-.16,0-.3-.06-.41-.17-.11-.12-.17-.25-.17-.41s.06-.31.18-.43c.12-.12.26-.17.43-.16.35.02.68.02.98.01.49,0,.79-.25.91-.73.06-.27.13-.54.2-.82.12-.3.32-.46.59-.46.17,0,.31.06.43.18s.18.26.18.42c0,.06-.04.24-.12.52-.02.1-.04.18-.04.25,0,.24.11.36.32.36.04,0,.08,0,.13-.01l.62-.13c.07-.02.12-.02.14-.02.16,0,.29.06.39.17.1.12.15.26.15.43,0,.3-.15.49-.46.55ZM227.39,69.65c0,.16-.06.3-.17.42-.12.12-.26.18-.43.18-.1,0-.21-.04-.32-.11-.26-.18-.54-.34-.84-.5-.1-.06-.18-.08-.26-.08-.19,0-.33.14-.41.42-.23.81-.94,1.21-2.14,1.21-.63,0-1.16-.14-1.58-.41-.5-.31-.76-.77-.76-1.37s.24-1.04.71-1.36c.41-.27.92-.41,1.55-.41.18,0,.38.02.6.05.18.02.33,0,.43-.08.1-.08.15-.22.15-.41v-1.75c-.01-.16.04-.3.16-.41.11-.12.25-.17.41-.17s.3.06.41.17c.11.11.17.25.17.41v2.02c.01.44.23.76.67.96.38.18.84.42,1.37.73.2.12.3.29.3.5ZM223.9,69.31c0-.34-.19-.54-.58-.6-.23-.04-.44-.06-.61-.06-.73,0-1.09.26-1.09.77,0,.23.1.41.29.55.2.13.45.2.76.2.56,0,.92-.14,1.09-.41.09-.14.13-.29.13-.44ZM227.5,64.3c0,.16-.06.3-.17.41-.12.12-.25.17-.41.17-.11,0-.22-.04-.32-.11-.61-.41-1.25-.76-1.93-1.04-.22-.1-.34-.27-.34-.53,0-.16.06-.3.17-.41.12-.11.25-.17.4-.17.09,0,.16.02.22.05.75.32,1.46.69,2.11,1.12.18.12.28.29.28.5Z"/>
      <path class="cls-1" d="M43.76,83.46c-.7,1.38-1.38,2.08-2.03,2.08-.8,0-1.42-.71-1.86-2.14-.34-1.1-.52-2.36-.52-3.75,0-.72.02-1.34.07-1.86.02-.17.08-.31.2-.42.12-.11.26-.17.43-.17.18,0,.34.07.46.21.12.14.18.3.16.49-.06.54-.08,1.16-.08,1.86,0,.92.1,1.83.3,2.74.22,1,.52,1.5.89,1.5.26,0,.56-.36.9-1.08.1-.22.28-.32.54-.32.17,0,.31.06.43.17.12.12.17.26.17.43,0,.1-.02.2-.06.28ZM48.96,83.09c.02.19-.03.36-.16.52-.13.15-.29.23-.49.23-.17,0-.32-.06-.44-.17-.13-.11-.2-.25-.22-.41-.2-1.82-.79-3.43-1.76-4.85-.07-.1-.11-.22-.11-.35,0-.18.06-.32.18-.44s.27-.18.44-.18c.22,0,.39.09.52.26,1.1,1.54,1.78,3.33,2.04,5.39Z"/>
      <path class="cls-1" d="M60.36,84.58c0,.34-.16.54-.49.6-1.31.23-2.53.35-3.66.35s-2.01-.09-2.66-.28c-1.07-.3-1.61-.88-1.61-1.74,0-.58.38-1.26,1.14-2.02.1-.1.24-.16.4-.16.15,0,.28.05.4.16.11.11.17.24.17.39,0,.14-.05.26-.16.37-.43.45-.65.82-.65,1.12,0,.66,1.02,1,3.05,1,.97,0,2.1-.12,3.38-.37.18-.03.34,0,.48.13s.22.27.22.45ZM59.05,78.37c-.67.26-1.49.71-2.45,1.33-.1.06-.19.1-.28.1-.14,0-.25-.05-.35-.15s-.15-.22-.15-.37c0-.18.08-.32.24-.42l.16-.1c.15-.09.23-.18.23-.26,0-.1-.12-.16-.35-.16-.88.02-1.86,0-2.95-.07-.15,0-.28-.07-.39-.18-.11-.11-.16-.24-.16-.4,0-.17.06-.31.19-.43s.27-.17.44-.16c1.91.11,3.77.12,5.57.04.23,0,.42.05.56.17.14.12.21.26.21.43,0,.28-.17.49-.5.62Z"/>
      <path class="cls-1" d="M72.25,84.89c0,.34-.17.54-.52.59-1.32.18-2.64.28-3.96.28-2.35,0-3.53-.71-3.53-2.12,0-.86.6-1.76,1.81-2.69.24-.18.36-.4.36-.64,0-.11-.02-.23-.07-.36-.35-.89-.64-1.84-.88-2.87,0-.04-.01-.08-.01-.13,0-.18.06-.33.19-.45s.27-.19.45-.19c.15,0,.29.05.4.16.12.1.19.23.22.38.15.8.37,1.6.66,2.41.1.26.25.4.46.4.11,0,.23-.04.35-.11.07-.04.96-.52,2.65-1.45.1-.06.2-.08.29-.08.17,0,.31.06.43.18.12.12.17.26.17.43,0,.25-.11.43-.34.54-.98.49-2.05,1.06-3.19,1.73-.73.42-1.31.82-1.74,1.19-.62.54-.94,1.02-.94,1.46,0,.72.75,1.08,2.26,1.08,1.24,0,2.5-.11,3.78-.32.18-.03.34.01.48.13.14.12.22.27.22.46Z"/>
      <path class="cls-1" d="M82.17,80.4c0,1.3-.21,2.7-.64,4.22-.13.46-.27.78-.42.97-.22.29-.52.43-.9.43-.44,0-.99-.12-1.66-.35-.27-.1-.41-.28-.41-.54,0-.16.06-.29.17-.41.12-.11.25-.17.4-.17.06,0,.12,0,.17.02.42.14.7.2.86.2.19,0,.33-.06.41-.17.06-.08.14-.26.22-.54.38-1.29.56-2.46.56-3.5,0-.38-.08-.64-.23-.77-.15-.13-.44-.19-.86-.19h-.17c-.07,0-.13.01-.18.01-.4,0-.66.21-.78.62-.54,1.82-1.25,3.57-2.14,5.27-.12.23-.31.35-.56.35-.18,0-.32-.06-.44-.19-.12-.12-.18-.27-.18-.45,0-.13.02-.24.07-.32.75-1.32,1.42-2.81,1.99-4.48.02-.08.04-.15.04-.22,0-.29-.17-.41-.52-.36-.25.04-.64.1-1.16.17-.17.02-.32-.02-.46-.14s-.21-.26-.21-.44c0-.34.18-.53.53-.58.35-.05.91-.12,1.67-.21.38-.03.64-.27.78-.72.07-.39.14-.78.2-1.18.06-.34.26-.52.6-.52.19,0,.35.07.46.21.12.14.16.31.13.5,0,.04-.04.22-.11.53-.06.22-.08.39-.08.52,0,.34.19.49.56.47h.18c.61-.05,1.1.06,1.48.31.42.29.62.83.62,1.62ZM83.78,77.77c0,.13-.05.24-.14.33-.09.09-.2.14-.33.14-.19,0-.33-.07-.42-.22-.23-.37-.48-.68-.74-.95-.09-.09-.13-.2-.13-.32,0-.32.16-.48.47-.48.14,0,.26.06.36.18.34.38.62.73.84,1.06.06.1.1.18.1.26ZM84.55,81.97c-.34-.87-.79-1.72-1.36-2.56-.06-.1-.1-.2-.1-.32,0-.17.06-.31.19-.43.12-.12.27-.17.44-.17.2,0,.36.09.49.26.63.89,1.14,1.81,1.54,2.76.03.08.05.16.05.24,0,.17-.07.32-.21.44-.14.13-.3.19-.47.19-.26,0-.45-.14-.56-.42ZM85.24,77.09c0,.13-.05.24-.14.33-.09.09-.2.14-.33.14-.18,0-.32-.07-.42-.22-.26-.39-.51-.72-.74-.97-.09-.1-.13-.2-.13-.3,0-.32.16-.48.48-.48.12,0,.24.06.35.17.28.28.56.64.85,1.07.06.11.08.2.08.26Z"/>
      <path class="cls-1" d="M97.22,82.62c0,1.02-.36,1.84-1.08,2.45-.62.54-1.47.88-2.54,1.02-.17.02-.32-.02-.45-.14s-.2-.26-.2-.43c0-.33.16-.52.48-.58,1.71-.3,2.57-1.09,2.57-2.38,0-.89-.36-1.51-1.09-1.87-.1-.05-.19-.07-.28-.07-.21,0-.38.13-.5.4-.52,1.09-1.12,2.04-1.79,2.84-1.03,1.23-2.06,1.85-3.08,1.85-.53,0-.94-.15-1.23-.45-.29-.3-.44-.71-.44-1.23,0-.91.27-1.74.8-2.48.41-.57.92-1.03,1.52-1.39.36-.22.55-.52.58-.9v-.23c.03-.37-.14-.55-.5-.55-.45,0-.96,0-1.52-.01-.15,0-.28-.06-.39-.17-.11-.11-.16-.24-.16-.4s.06-.28.17-.4c.12-.11.25-.16.41-.16.74.03,1.28.04,1.64.04.33,0,.52-.18.56-.52l.07-.52c.05-.35.24-.53.56-.53.17,0,.32.07.44.22.13.14.18.29.16.44l-.04.23c-.03.19,0,.34.08.44.09.1.23.15.42.13.82-.06,1.75-.17,2.78-.32.17-.02.32.02.45.13s.2.26.2.43c0,.33-.17.51-.5.55-1.26.15-2.28.25-3.08.3-.38.02-.58.2-.6.52-.02.19.03.33.13.41s.25.11.44.09c.31-.04.58-.06.8-.06,1.22,0,2.2.23,2.92.7.86.56,1.28,1.42,1.28,2.58ZM90.03,84.37c.36-.19.52-.57.48-1.14,0-.36-.02-.71-.02-1.07-.03-.56-.14-.84-.31-.84-.11,0-.24.06-.38.19-.31.27-.56.62-.76,1.03-.21.44-.31.88-.31,1.32,0,.47.2.71.59.71.22,0,.46-.07.72-.2ZM93.04,80.83c.04-.08.06-.15.06-.22,0-.2-.12-.29-.37-.28-.37.02-.64.09-.82.19-.25.14-.38.38-.38.72,0,.3,0,.65.01,1.03,0,.24.09.36.25.36.11,0,.22-.07.31-.2.36-.5.67-1.04.94-1.61Z"/>
      <path class="cls-1" d="M108.99,82.81c0,1.14-.47,2-1.42,2.56-.75.45-1.67.67-2.75.67-.94,0-1.67-.15-2.21-.45s-.81-.7-.81-1.21.19-.86.56-1.13c.34-.25.75-.37,1.25-.37.67,0,1.24.21,1.7.62.24.21.43.46.58.72.14.26.31.4.5.4.11,0,.24-.04.38-.12.66-.35.98-.89.98-1.62,0-.54-.2-.97-.59-1.27s-.93-.45-1.59-.44c-1.7.02-3.21.57-4.55,1.64-.2.16-.36.24-.48.24-.15,0-.28-.05-.4-.16-.11-.11-.17-.24-.17-.4,0-.18.07-.32.2-.43,1.18-1,2.67-2.27,4.45-3.8.14-.13.22-.24.22-.35,0-.17-.15-.24-.46-.22-.54.04-1.44.1-2.71.18-.16,0-.3-.04-.42-.16-.12-.11-.18-.25-.18-.41s.05-.3.16-.41.24-.17.4-.17c1.52,0,3.13-.09,4.82-.24.25-.02.45.03.6.15s.23.29.23.49-.11.4-.32.58c-.82.66-1.68,1.37-2.6,2.15-.13.1-.19.2-.19.3,0,.12.09.18.26.18.06,0,.12,0,.18-.02.43-.09.84-.13,1.21-.13.91,0,1.65.21,2.21.62.62.46.94,1.14.94,2.02ZM104.34,85.01c.3.02.46-.1.46-.36,0-.13-.06-.25-.17-.37-.27-.3-.62-.46-1.04-.46s-.66.16-.66.47c0,.28.24.48.71.61.19.05.43.08.71.11Z"/>
      <path class="cls-1" d="M120.73,84.89c0,.34-.17.54-.52.59-1.32.18-2.64.28-3.96.28-2.35,0-3.53-.71-3.53-2.12,0-.86.6-1.76,1.81-2.69.24-.18.36-.4.36-.64,0-.11-.02-.23-.07-.36-.35-.89-.64-1.84-.88-2.87,0-.04-.01-.08-.01-.13,0-.18.06-.33.19-.45s.27-.19.45-.19c.15,0,.29.05.4.16.12.1.19.23.22.38.15.8.37,1.6.66,2.41.1.26.25.4.46.4.11,0,.23-.04.35-.11.07-.04.96-.52,2.65-1.45.1-.06.2-.08.29-.08.17,0,.31.06.43.18.12.12.17.26.17.43,0,.25-.11.43-.34.54-.98.49-2.05,1.06-3.19,1.73-.73.42-1.31.82-1.74,1.19-.62.54-.94,1.02-.94,1.46,0,.72.75,1.08,2.26,1.08,1.24,0,2.5-.11,3.78-.32.18-.03.34.01.48.13.14.12.22.27.22.46Z"/>
      <path class="cls-1" d="M134.02,78.14c0,.16-.06.3-.17.41-.11.11-.25.17-.41.17-1.26-.02-2.1-.02-2.53-.01-.39,0-.59.2-.59.61v.66c0,.3.08.75.24,1.36.06.25.1.5.1.77,0,1.05-.29,1.92-.86,2.6-.58.68-1.47,1.2-2.68,1.58-.06.02-.12.02-.18.02-.15,0-.29-.06-.4-.17-.12-.11-.17-.25-.17-.42,0-.28.14-.46.42-.55,1.14-.34,1.93-.87,2.38-1.58.08-.13.12-.24.12-.32,0-.11-.06-.17-.18-.17-.07,0-.16.02-.25.07-.22.11-.47.17-.73.17-.59,0-1.07-.15-1.43-.44-.39-.33-.59-.78-.59-1.36s.22-1.08.66-1.43c.41-.33.92-.49,1.52-.49.06,0,.14,0,.25.01.11,0,.19.01.24.01.23,0,.35-.1.35-.3,0-.41-.2-.6-.61-.59-1.46.06-2.92.14-4.4.25-.17.02-.31-.03-.44-.15-.12-.12-.19-.26-.19-.43s.05-.29.16-.4c.11-.11.24-.17.39-.17l4.46-.22c.38-.02.58-.2.58-.54v-.54c0-.17.06-.31.19-.44.12-.12.27-.19.44-.19s.31.06.43.18c.12.12.18.26.18.43v.46c0,.41.2.61.6.6,1.21-.02,2.06-.02,2.54-.01.16,0,.29.05.4.16.11.11.16.24.16.4ZM129.06,81.57c.03-.11.05-.22.05-.31,0-.3-.13-.51-.38-.61-.14-.06-.3-.08-.48-.08-.27,0-.5.09-.69.26s-.28.4-.28.66c0,.55.29.83.88.83.48,0,.78-.25.91-.74Z"/>
      <path class="cls-1" d="M143.41,85.48c0,.18-.06.34-.19.47s-.28.19-.47.19-.35-.07-.48-.22c-1.33-1.46-2.86-2.83-4.61-4.12-.46-.34-.68-.67-.68-1s.26-.69.78-1.04c1.59-1.08,3.11-2.27,4.56-3.58.14-.12.28-.18.43-.18.18,0,.33.06.45.19.12.12.19.27.19.45s-.07.34-.2.46c-.9.82-2.21,1.84-3.94,3.07-.35.26-.53.47-.53.65,0,.18.17.41.52.67,1.29.98,2.62,2.15,3.98,3.52.13.13.19.28.19.47ZM144.62,79.69c0,.13-.05.24-.14.33s-.2.14-.33.14c-.19,0-.33-.07-.42-.22-.23-.37-.48-.68-.74-.95-.09-.09-.13-.2-.13-.32,0-.32.16-.48.47-.48.14,0,.26.06.36.18.34.38.62.73.84,1.06.06.1.1.18.1.26ZM146.08,79.01c0,.13-.05.24-.14.33-.09.09-.2.14-.33.14-.18,0-.32-.07-.42-.22-.26-.39-.51-.72-.74-.97-.09-.1-.13-.2-.13-.3,0-.32.16-.48.48-.48.12,0,.24.06.35.17.28.28.56.64.85,1.07.06.11.08.2.08.26Z"/>
      <path class="cls-1" d="M150.44,77.06c-.32,1.83-.48,3.56-.48,5.2,0,1.14.04,2.1.13,2.87.02.18-.03.35-.16.49-.13.14-.28.22-.47.22-.17,0-.31-.06-.43-.17-.12-.11-.19-.25-.2-.41-.08-.77-.12-1.74-.12-2.93,0-1.78.17-3.6.5-5.48.06-.34.27-.52.61-.52.19,0,.35.07.47.22.12.15.17.32.14.51ZM157.72,84.37c0,.14-.05.27-.16.39-.1.12-.23.18-.37.2-1.04.14-1.91.2-2.6.2-2.12,0-3.18-.64-3.18-1.92,0-.36.1-.73.3-1.1.11-.22.28-.32.5-.32.39,0,.59.19.59.56,0,.08-.02.2-.07.35s-.07.28-.07.38c0,.33.2.56.59.68.34.12.87.18,1.6.18.59,0,1.32-.07,2.18-.2.18-.03.35.01.49.14s.21.28.21.46ZM157.3,78.03c0,.15-.05.28-.15.4-.1.11-.23.18-.38.2-.9.13-1.86.19-2.87.19-.45,0-.94-.02-1.46-.05-.15,0-.28-.07-.4-.19-.11-.12-.17-.25-.17-.41,0-.18.07-.32.2-.44.13-.12.28-.17.45-.15.45.04.92.06,1.43.06.9,0,1.79-.07,2.65-.2.18-.03.35.01.49.13s.21.27.21.46Z"/>
      <path class="cls-1" d="M165.09,78.14c0,.13-.04.24-.13.32-.09.09-.2.13-.32.13h-.28c-.32,0-.48.16-.48.48v.14c0,.15-.05.28-.16.39-.11.11-.24.16-.39.16-.16,0-.3-.05-.41-.16-.11-.11-.17-.24-.17-.39v-.14c0-.32-.16-.48-.48-.48h-.31c-.27,0-.44.14-.52.43-.11.44-.29.85-.53,1.22-.11.18-.26.26-.46.26-.15,0-.28-.05-.38-.16-.1-.11-.16-.23-.16-.38,0-.09.03-.18.08-.26.38-.62.56-1.39.56-2.33v-.17c0-.6.3-.92.91-.95.89-.05,1.69-.14,2.41-.29.15-.03.29,0,.41.1s.18.22.18.38c0,.28-.14.44-.42.49-.57.09-1.25.15-2.04.19-.28.02-.42.11-.42.29s.12.26.36.26h2.68c.13,0,.24.04.32.13s.13.19.13.31ZM170.49,78.14c0,.13-.04.24-.13.32-.09.09-.2.13-.32.13h-.65c-.32,0-.48.16-.48.48v.11c0,.16-.06.3-.17.41-.11.12-.25.17-.41.17s-.3-.06-.41-.17-.17-.25-.17-.41v-.11c0-.32-.16-.48-.48-.48h-.47c-.21,0-.39.12-.54.35-.12.22-.24.44-.36.66-.09.12-.2.19-.32.22h2.52c.64,0,.96.32.96.96v2.93c0,.64-.32.96-.96.96h-1.42l.1.04c1.03.38,1.96.64,2.78.78.29.05.43.22.43.5,0,.15-.06.28-.19.38-.12.1-.26.14-.41.11-1.16-.22-2.16-.52-3.01-.88-.2-.09-.3-.24-.3-.46,0-.26.13-.42.38-.48h-2.8c.26.06.38.22.38.48,0,.22-.1.38-.31.47-.83.36-1.81.64-2.94.85-.15.02-.29-.01-.41-.11-.12-.1-.19-.22-.19-.37,0-.28.14-.44.42-.49.96-.16,1.87-.42,2.74-.79l.08-.04h-1.32c-.64,0-.96-.32-.96-.96v-2.93c0-.64.32-.96.96-.96h3.28c-.26-.05-.4-.21-.4-.48,0-.1.02-.18.06-.24.34-.54.5-1.16.5-1.84v-.1c0-.6.3-.92.91-.95.94-.05,1.8-.16,2.59-.32.15-.03.29,0,.41.11.12.1.18.23.18.38,0,.27-.14.43-.41.48-.7.12-1.46.2-2.27.24-.29.02-.43.12-.43.32,0,.18.12.26.36.26h3.13c.13,0,.24.04.32.13s.13.19.13.31ZM167.95,80.91c0-.19-.13-.29-.38-.29h-4.92c-.26,0-.4.1-.4.29s.12.29.36.29h4.98c.24,0,.36-.1.36-.29ZM167.95,82.21c0-.19-.12-.29-.36-.29h-4.98c-.24,0-.36.1-.36.29s.12.29.36.29h4.98c.24,0,.36-.1.36-.29ZM167.95,83.53c0-.2-.12-.3-.36-.3h-4.98c-.24,0-.36.1-.36.3s.13.3.4.3h4.92c.26,0,.38-.1.38-.3Z"/>
      <path class="cls-1" d="M176.61,79.14c0,.66-.33.98-.98.98h-1.74c-.32,0-.48.16-.48.48v5.2c0,.15-.05.28-.16.4-.11.11-.24.17-.39.17s-.28-.06-.39-.17c-.11-.11-.16-.24-.16-.4v-8.6c0-.72.36-1.08,1.08-1.08h2.24c.66,0,.98.33.98.98v2.04ZM175.53,77.38c0-.24-.14-.36-.41-.36h-1.27c-.3,0-.44.14-.44.41,0,.2.14.3.42.3h1.28c.28,0,.42-.12.42-.35ZM175.53,78.9c0-.25-.14-.37-.42-.37h-1.28c-.28,0-.42.12-.42.36s.14.37.42.37h1.3c.27,0,.41-.12.41-.36ZM179.5,83.67c0,.66-.33.98-.98.98h-2.59c-.66,0-1-.33-1-.98v-1.64c0-.66.33-1,1-1h2.59c.66,0,.98.33.98,1v1.64ZM178.46,83.21v-.78c0-.32-.16-.48-.48-.48h-1.52c-.32,0-.48.16-.48.48v.78c0,.32.16.48.48.48h1.52c.32,0,.48-.16.48-.48ZM182.12,84.66c0,.62-.1,1.03-.29,1.24-.2.21-.58.32-1.16.32h-1.02c-.14,0-.26-.05-.36-.15-.1-.1-.16-.22-.16-.35,0-.14.05-.27.16-.37.1-.1.22-.15.36-.15h.64c.29,0,.48-.05.58-.14.1-.1.15-.3.15-.6v-3.85c0-.32-.16-.48-.48-.48h-1.81c-.66,0-.98-.33-.98-.98v-2.04c0-.66.33-.98.98-.98h2.32c.72,0,1.08.36,1.08,1.08v7.46ZM181.02,77.43c0-.27-.14-.41-.43-.41h-1.36c-.28,0-.42.12-.42.36s.14.35.42.35h1.37c.28,0,.42-.1.42-.3ZM181.02,78.89c0-.24-.14-.36-.42-.36h-1.37c-.28,0-.42.12-.42.37s.14.36.42.36h1.37c.28,0,.42-.12.42-.37Z"/>
      <path class="cls-1" d="M193.99,77.47c0,.32-.22.51-.65.58-1.21.18-2.28.68-3.22,1.49-.94.81-1.4,1.67-1.4,2.56,0,1.29,1.04,2.12,3.11,2.48.34.06.52.26.52.61,0,.19-.07.35-.22.49-.15.13-.32.18-.51.14-1.24-.24-2.18-.61-2.83-1.1-.86-.66-1.28-1.5-1.28-2.52,0-.86.29-1.65.88-2.35.26-.3.51-.56.76-.77s.37-.38.37-.53c0-.19-.2-.27-.61-.24-1.64.14-2.97.28-4,.42-.18.02-.33-.02-.46-.14-.13-.12-.19-.27-.19-.44,0-.15.05-.29.15-.4.1-.12.23-.18.38-.19,1.47-.14,4.3-.36,8.48-.65.22,0,.39.04.53.15.14.11.2.25.2.41ZM193.34,81.01c0,.13-.05.24-.14.33-.09.09-.2.14-.33.14-.19,0-.33-.07-.42-.22-.23-.37-.48-.68-.74-.95-.09-.09-.13-.2-.13-.32,0-.32.16-.48.47-.48.14,0,.26.06.36.18.34.38.62.73.84,1.06.06.1.1.18.1.26ZM194.8,80.33c0,.13-.05.24-.14.33s-.2.14-.33.14c-.18,0-.32-.07-.42-.22-.26-.39-.51-.72-.74-.97-.09-.1-.13-.2-.13-.3,0-.32.16-.48.48-.48.12,0,.24.06.35.17.28.28.56.64.85,1.07.06.11.08.2.08.26Z"/>
      <path class="cls-1" d="M205.89,79.35c0,.26-.12.43-.37.52-.53.18-1.01.33-1.44.43-.26.06-.38.19-.38.37,0,.1.04.21.12.32.39.54.76,1.01,1.09,1.39.11.13.17.27.17.43,0,.18-.06.34-.19.47s-.28.2-.47.2c-.1,0-.19-.02-.28-.05-1.06-.42-2.06-.64-3-.64-1.54,0-2.3.36-2.3,1.09s.97,1.07,2.9,1.07c.66,0,1.42-.04,2.26-.13.16-.02.3.03.43.14.13.11.19.24.19.4,0,.33-.17.51-.5.54-.76.08-1.56.12-2.4.12-2.7,0-4.04-.7-4.04-2.11s1.08-2.1,3.24-2.1c.5,0,1.09.08,1.76.23.06.02.12.02.17.02.16,0,.24-.06.24-.17,0-.08-.04-.17-.12-.28-.04-.06-.15-.2-.32-.44-.22-.3-.48-.44-.8-.44-.1,0-.2,0-.32.02-1.11.15-2.33.22-3.66.2-.14,0-.27-.05-.37-.16-.1-.1-.15-.23-.15-.37s.05-.27.16-.38c.1-.11.23-.16.37-.15.99.03,2.05-.01,3.18-.13.3-.03.46-.15.46-.36,0-.1-.03-.19-.1-.28-.19-.33-.47-.47-.83-.43-.69.08-1.48.12-2.38.12-.14,0-.26-.05-.37-.16-.11-.1-.16-.22-.16-.36,0-.14.05-.27.16-.37.11-.1.23-.15.37-.15.66,0,1.28-.01,1.85-.06.34-.03.5-.14.5-.32,0,0-.07-.18-.22-.53-.02-.06-.04-.12-.04-.19,0-.16.06-.3.17-.41.11-.12.25-.17.42-.17.26,0,.44.13.54.38.03.1.09.24.17.44.12.3.32.46.6.46.07,0,.15-.01.23-.04.56-.14,1.12-.32,1.68-.52.06-.02.12-.04.18-.04.15,0,.28.05.39.16.11.1.16.23.16.38,0,.27-.13.45-.38.53-.59.19-1.11.34-1.56.44-.29.06-.43.2-.43.4,0,.09.03.18.1.26l.02.04c.17.26.37.38.61.38.06,0,.13,0,.2-.02.63-.15,1.22-.33,1.78-.54.04-.02.1-.02.17-.02.15,0,.28.05.39.16.11.1.16.23.16.38Z"/>
      <path class="cls-1" d="M218.42,77.47c0,.32-.22.51-.65.58-1.21.18-2.28.68-3.22,1.49-.94.81-1.4,1.67-1.4,2.56,0,1.26,1.04,2.08,3.11,2.48.34.06.52.27.52.61,0,.19-.07.35-.22.48-.15.13-.32.18-.51.14-1.16-.2-2.09-.56-2.8-1.08-.88-.64-1.32-1.49-1.32-2.54,0-.85.29-1.63.88-2.35.23-.29.49-.55.77-.78.24-.2.36-.37.36-.52,0-.19-.2-.27-.61-.24-1.25.11-2.58.25-4,.42-.18.02-.33-.02-.46-.14-.13-.12-.19-.27-.19-.44,0-.15.05-.28.15-.4.1-.11.23-.18.38-.19,1.45-.14,4.28-.36,8.48-.65.22-.02.39.03.53.14.14.11.2.25.2.43Z"/>
      <path class="cls-1" d="M223.96,84.7c0,.14-.05.25-.15.35s-.22.15-.37.15-.26-.04-.35-.13c-.05-.06-.16-.2-.34-.4-.09-.1-.18-.14-.26-.14-.1,0-.18.06-.25.18-.22.38-.58.85-1.09,1.42-.1.12-.24.18-.41.18s-.29-.05-.4-.16-.16-.24-.16-.39c0-.14.06-.27.17-.38.46-.46.87-.98,1.22-1.55.05-.08.07-.16.07-.23,0-.1-.04-.19-.12-.28-.15-.17-.36-.38-.62-.64-.26-.26-.39-.54-.39-.85,0-.11.02-.24.06-.38.09-.33.27-1.07.54-2.23,0-.04.01-.08.01-.11,0-.2-.11-.3-.34-.3h-.18c-.14,0-.27-.05-.37-.15s-.15-.22-.15-.37c0-.14.05-.25.15-.35s.22-.15.37-.15h.46c.22,0,.35-.11.4-.32.06-.26.12-.68.19-1.26.04-.3.21-.44.5-.44.16,0,.29.06.39.17.1.12.14.25.13.39-.02.2-.07.55-.14,1.06-.05.27.06.41.32.41h.26c.53,0,.77.25.73.74-.15,2.01-.42,3.54-.82,4.6-.07.19-.04.36.1.49.26.26.48.5.68.72.1.1.14.22.14.36ZM222.88,79.21c.02-.27-.07-.41-.25-.41h-.14c-.22,0-.35.1-.4.31-.11.48-.28,1.24-.52,2.27-.07.34-.03.59.12.76l.14.16c.08.08.16.12.24.12.13,0,.22-.08.28-.23.3-.78.47-1.78.53-2.98ZM231.22,82.66c0,.12-.04.22-.13.31-.09.08-.19.13-.31.13h-6.6c-.12,0-.22-.04-.31-.13s-.13-.19-.13-.31.04-.22.13-.31.19-.13.31-.13h.98c.23,0,.35-.08.35-.23,0-.03,0-.06-.02-.1l-.02-.05c-.09-.18-.23-.26-.43-.26-.46,0-.68-.25-.68-.76v-.74c0-.5.25-.74.74-.74h4.75c.5,0,.76.25.76.74v.74c0,.5-.22.76-.67.76-.22,0-.37.09-.44.26-.02.05-.04.1-.04.14,0,.15.11.23.34.23h1c.12,0,.22.04.31.13.09.09.13.19.13.31ZM231.24,76.96c0,.12-.05.22-.14.31-.09.09-.2.13-.32.13h-2.45c-.24,0-.36.1-.36.31s.12.31.36.31h2.06c.11,0,.21.04.29.13s.13.18.13.29c0,.29-.14.43-.42.43h-5.78c-.12,0-.22-.04-.31-.13s-.13-.19-.13-.31c0-.11.04-.21.13-.29s.19-.13.31-.13h1.88c.24,0,.36-.1.36-.31s-.12-.31-.36-.31h-2.21c-.12,0-.22-.04-.31-.13s-.13-.19-.13-.31c0-.13.04-.24.13-.32.09-.09.19-.13.31-.13h2.21c.24,0,.36-.09.36-.28,0-.14.06-.26.17-.36s.24-.14.4-.14.28.05.39.14c.11.1.16.22.16.36,0,.18.12.28.36.28h2.45c.12,0,.23.05.32.14.09.09.14.2.14.32ZM230.59,85.23c0,.62-.31.92-.94.92h-4.24c-.62,0-.94-.31-.94-.92v-.72c0-.62.31-.94.94-.94h4.24c.62,0,.94.31.94.94v.72ZM229.56,80.5v-.08c0-.21-.11-.31-.34-.31h-3.5c-.22,0-.32.1-.32.31v.08c0,.21.11.31.32.31h3.5c.22,0,.34-.1.34-.31ZM229.53,84.97v-.26c0-.21-.1-.31-.31-.31h-3.38c-.21,0-.31.1-.31.31v.26c0,.21.1.31.31.31h3.38c.21,0,.31-.1.31-.31ZM228.39,81.89s.02-.08.02-.11c0-.14-.11-.2-.34-.2h-1.2c-.23,0-.35.07-.35.22,0,.03,0,.06.02.1l.02.05c.07.18.21.28.41.28h.95c.22,0,.36-.09.43-.26l.02-.06Z"/>
      <path class="cls-1" d="M42.21,97.78c0,.11-.03.22-.1.32-.54.89-1.2,1.6-1.96,2.12-.86.58-1.76.88-2.72.88-2.1,0-3.16-.95-3.16-2.86,0-.78.02-1.8.05-3.06.02-1.02.04-2.14.06-3.34,0-.17.06-.31.19-.44s.28-.19.44-.19.33.06.46.19.19.28.18.46l-.14,6.11c0,1.26.66,1.88,1.99,1.88.71,0,1.4-.25,2.05-.76.56-.42,1.05-.97,1.48-1.67.12-.2.3-.3.54-.3.18,0,.33.06.45.19s.19.27.19.45Z"/>
      <path class="cls-1" d="M51.76,95.33c0,1.26-.21,2.67-.64,4.22-.12.45-.26.77-.41.97-.22.29-.53.43-.91.43-.42,0-.97-.12-1.66-.35-.27-.09-.41-.27-.41-.54,0-.16.06-.3.17-.41.12-.11.25-.17.4-.17.06,0,.15.02.25.05.34.12.6.18.78.18.19,0,.33-.06.41-.17.06-.09.14-.27.22-.54.38-1.34.56-2.51.56-3.5,0-.38-.08-.64-.23-.77s-.44-.19-.86-.19c-.38,0-.63.04-.77.12-.17.1-.29.27-.36.52-.52,1.74-1.23,3.5-2.14,5.27-.12.23-.31.35-.56.35-.18,0-.32-.06-.44-.19-.12-.12-.18-.27-.18-.45,0-.14.02-.24.07-.32.82-1.42,1.48-2.91,1.99-4.48.02-.08.04-.15.04-.22,0-.29-.17-.41-.52-.36-.25.03-.64.09-1.16.17-.17.02-.32-.02-.46-.14-.14-.12-.21-.26-.21-.44,0-.34.17-.53.52-.58.35-.05.91-.12,1.67-.22.38-.04.64-.28.78-.72.02-.06.09-.46.2-1.18.06-.34.26-.52.6-.52.19,0,.35.07.46.21.12.14.16.31.13.5,0,.04-.04.22-.11.53-.06.23-.08.4-.08.52,0,.34.19.49.56.47h.18c.62-.05,1.11.06,1.48.31.42.29.62.83.62,1.62ZM55.39,96.23c0,.18-.06.33-.19.46s-.27.19-.45.19c-.29,0-.49-.14-.6-.42-.42-1.08-.95-2.06-1.6-2.95-.07-.1-.11-.21-.11-.34,0-.17.06-.31.17-.43.12-.12.26-.18.43-.18.2,0,.36.08.49.25.73.95,1.33,2.01,1.81,3.18.02.06.04.14.04.24Z"/>
      <path class="cls-1" d="M66.37,96.57c0,1.14-.53,2.04-1.6,2.69-.79.48-1.84.81-3.16.98-.17.02-.32-.02-.44-.14-.13-.12-.19-.26-.19-.43,0-.14.05-.26.14-.37.1-.11.21-.17.35-.19,2.46-.33,3.7-1.18,3.7-2.56,0-.97-.64-1.45-1.92-1.45-1.02,0-2.66.3-4.91.9-.06.02-.11.02-.16.02-.15,0-.29-.06-.41-.17-.12-.12-.18-.25-.18-.41,0-.3.15-.49.46-.56.78-.19,1.53-.36,2.23-.49,1.28-.25,2.28-.37,3-.37.9,0,1.6.17,2.11.52.65.43.97,1.11.97,2.03Z"/>
      <path class="cls-1" d="M75.18,93.75c-.58.11-1.18.2-1.78.28-.33.04-.57.12-.71.25-.15.13-.26.35-.33.66-.45,1.9-1,3.72-1.67,5.46-.1.26-.3.4-.59.4-.18,0-.32-.06-.44-.19-.12-.12-.18-.27-.18-.44,0-.08.02-.16.05-.24.68-1.61,1.24-3.31,1.67-5.11.02-.06.02-.12.02-.18,0-.28-.17-.42-.5-.41-.34,0-.64,0-.92,0-.16,0-.3-.07-.41-.19-.12-.12-.17-.25-.17-.41s.06-.31.19-.43.27-.18.44-.17c.46.02.82.02,1.1.01.45-.02.7-.24.77-.66.02-.18.06-.44.12-.79.06-.35.26-.52.61-.52.17,0,.31.06.43.18s.18.26.18.42c0,.08-.03.28-.1.6,0,.06-.01.11-.01.16,0,.32.18.45.53.4.05,0,.33-.06.84-.17.38-.07.65-.11.79-.11.17,0,.31.06.41.18.11.12.16.26.16.43,0,.33-.16.52-.49.59ZM78.97,100.06c0,.34-.17.54-.5.59-.76.11-1.56.17-2.4.17-2.13,0-3.19-.6-3.19-1.79,0-.27.07-.58.2-.94.1-.24.28-.36.54-.36.38,0,.56.19.56.58,0,.06-.01.15-.04.27-.02.12-.04.21-.04.27,0,.54.68.82,2.05.82.6,0,1.31-.06,2.14-.18.18-.02.33.02.47.14.14.12.2.26.2.44ZM78.63,95.59c0,.17-.06.31-.19.43s-.28.18-.44.17c-1.19-.06-2.47-.04-3.83.08-.17.02-.31-.03-.44-.15s-.19-.26-.19-.43c0-.15.05-.28.15-.39.1-.11.22-.17.37-.19,1.35-.14,2.68-.18,3.98-.14.16,0,.3.07.41.19.12.12.17.26.17.42Z"/>
      <path class="cls-1" d="M90.82,92.47c0,.32-.22.51-.65.58-1.21.18-2.28.68-3.22,1.49-.94.81-1.4,1.67-1.4,2.56,0,1.3,1.04,2.12,3.11,2.48.34.06.52.26.52.61,0,.19-.07.35-.22.49-.15.13-.32.18-.51.14-1.24-.24-2.18-.61-2.83-1.1-.86-.66-1.28-1.5-1.28-2.52,0-.86.29-1.65.88-2.35.26-.3.51-.56.76-.77s.37-.38.37-.53c0-.19-.2-.27-.61-.24-1.64.14-2.97.28-4,.42-.18.02-.33-.02-.46-.14s-.19-.27-.19-.44c0-.15.05-.29.15-.4s.23-.18.38-.19c1.47-.14,4.3-.36,8.48-.65.22,0,.39.04.53.15.14.11.2.25.2.41ZM90.18,96.01c0,.13-.05.24-.14.33-.09.09-.2.14-.33.14-.19,0-.33-.07-.42-.22-.23-.37-.48-.68-.74-.95-.09-.09-.13-.2-.13-.32,0-.32.16-.48.47-.48.14,0,.26.06.36.18.34.38.62.73.84,1.06.06.1.1.18.1.26ZM91.64,95.33c0,.13-.05.24-.14.33-.09.09-.2.14-.33.14-.18,0-.32-.07-.42-.22-.26-.39-.51-.72-.74-.97-.09-.1-.13-.2-.13-.3,0-.32.16-.48.48-.48.12,0,.24.06.35.17.28.28.56.64.85,1.07.06.11.08.2.08.26Z"/>
      <path class="cls-1" d="M103.58,93.13c0,.16-.06.3-.17.41-.11.11-.25.17-.41.17-1.26-.02-2.1-.02-2.53-.01-.39,0-.59.2-.59.61v.66c0,.3.08.75.24,1.36.06.25.1.5.1.77,0,1.06-.29,1.92-.86,2.6-.58.68-1.47,1.2-2.68,1.58-.06.02-.12.02-.18.02-.15,0-.29-.06-.4-.17-.12-.11-.17-.25-.17-.42,0-.28.14-.46.42-.55,1.14-.34,1.93-.87,2.38-1.58.08-.13.12-.24.12-.32,0-.11-.06-.17-.18-.17-.07,0-.16.02-.25.07-.22.11-.47.17-.73.17-.59,0-1.07-.15-1.43-.44-.39-.33-.59-.78-.59-1.36s.22-1.08.66-1.43c.41-.33.92-.49,1.52-.49.06,0,.14,0,.25.01.11,0,.19.01.24.01.23,0,.35-.1.35-.3,0-.41-.2-.6-.61-.59-1.46.06-2.92.14-4.4.25-.17.02-.31-.03-.44-.15s-.19-.26-.19-.43.05-.29.16-.4c.11-.11.24-.17.39-.17l4.46-.22c.38-.02.58-.2.58-.54v-.54c0-.17.06-.31.19-.44.12-.12.27-.19.44-.19s.31.06.43.18c.12.12.18.26.18.43v.46c0,.41.2.61.6.6,1.21-.02,2.06-.02,2.54-.01.16,0,.29.05.4.16.11.11.16.24.16.4ZM98.61,96.57c.03-.11.05-.22.05-.31,0-.3-.13-.51-.38-.61-.14-.06-.3-.08-.48-.08-.27,0-.5.09-.69.26s-.28.4-.28.66c0,.55.29.83.88.83.48,0,.78-.25.91-.74Z"/>
      <path class="cls-1" d="M109.29,99.9c0,.24-.08.44-.24.61-.16.16-.36.25-.6.25s-.44-.08-.61-.25-.25-.37-.25-.61.08-.44.25-.61.37-.25.61-.25.43.08.59.25c.16.17.25.37.25.6ZM113.23,92.26c0,.13-.04.26-.11.38l-3.1,5.46c-.11.19-.27.29-.48.29-.15,0-.28-.06-.4-.17-.11-.11-.17-.24-.17-.4,0-.07.02-.15.06-.23l2.7-5.66c.14-.3.38-.46.7-.46.22,0,.4.08.56.23.16.15.23.34.23.55Z"/>
      <path class="cls-1" d="M49.96,114.58c0,.34-.16.54-.49.6-1.31.23-2.53.35-3.66.35s-2.01-.09-2.66-.28c-1.07-.3-1.61-.88-1.61-1.74,0-.58.38-1.26,1.14-2.02.1-.1.24-.16.4-.16.15,0,.28.05.4.16.11.11.17.24.17.39,0,.14-.05.26-.16.37-.43.45-.65.82-.65,1.12,0,.66,1.02,1,3.05,1,.97,0,2.1-.12,3.38-.37.18-.03.34,0,.48.13s.22.27.22.45ZM48.65,108.37c-.67.26-1.49.71-2.45,1.33-.1.06-.19.1-.28.1-.14,0-.25-.05-.35-.15-.1-.1-.15-.22-.15-.37,0-.18.08-.32.24-.42l.16-.1c.15-.09.23-.18.23-.26,0-.1-.12-.16-.35-.16-.88.02-1.86,0-2.95-.07-.15,0-.28-.07-.39-.18-.11-.11-.16-.24-.16-.4,0-.17.06-.31.19-.43s.27-.17.44-.16c1.91.11,3.77.12,5.57.04.23,0,.42.05.56.17.14.12.21.26.21.43,0,.28-.17.49-.5.62Z"/>
      <path class="cls-1" d="M63.32,113.47c0,.15-.06.29-.17.41-.89.94-1.64,1.42-2.26,1.42-.55,0-.92-.22-1.1-.65-.11-.26-.17-.68-.17-1.25,0-.46.03-1.16.08-2.1.05-.94.08-1.64.08-2.1,0-.4-.14-.6-.42-.6-.56,0-1.38.6-2.45,1.81-.38.43-.57.93-.58,1.49-.02,1.7-.02,2.91-.01,3.61,0,.16-.06.3-.18.42-.12.12-.26.18-.43.18s-.3-.06-.41-.17c-.12-.12-.17-.26-.17-.43,0,.16,0-.48.02-1.92,0-.29-.08-.43-.25-.43-.11,0-.22.08-.34.24-.11.16-.36.53-.73,1.12-.11.17-.28.25-.49.25-.16,0-.3-.06-.41-.17-.12-.11-.17-.25-.17-.41,0-.14.06-.29.17-.44.43-.58,1.06-1.41,1.87-2.47.27-.35.41-.73.42-1.13,0-.21-.04-.36-.16-.46-.11-.1-.27-.13-.47-.1-.02,0-.4.07-1.14.22-.2.04-.37,0-.5-.14s-.2-.29-.2-.46c0-.31.16-.5.49-.55.12-.02.6-.1,1.45-.22.38-.06.57-.27.58-.64l.04-1.16c0-.16.07-.3.18-.41.11-.11.25-.17.41-.17s.31.06.43.18.18.26.17.43l-.06,1.75c0,.34.08.52.25.52.11,0,.24-.07.4-.22,1-.97,1.86-1.45,2.58-1.45.88,0,1.32.51,1.32,1.52,0,.47-.03,1.18-.09,2.11-.06.94-.09,1.64-.09,2.1,0,.33,0,.53.02.61.04.22.15.32.32.32.28,0,.66-.29,1.15-.86.11-.13.26-.19.43-.19.16,0,.3.06.41.17.12.12.17.25.17.41Z"/>
      <path class="cls-1" d="M71.81,110.33c0,1.26-.21,2.67-.64,4.22-.12.45-.26.77-.41.97-.22.29-.53.43-.91.43-.42,0-.97-.12-1.66-.35-.27-.09-.41-.27-.41-.54,0-.16.06-.3.17-.41.12-.11.25-.17.4-.17.06,0,.15.02.25.05.34.12.6.18.78.18.19,0,.33-.06.41-.17.06-.09.14-.27.22-.54.38-1.34.56-2.51.56-3.5,0-.38-.08-.64-.23-.77s-.44-.19-.86-.19c-.38,0-.63.04-.77.12-.17.1-.29.27-.36.52-.52,1.74-1.23,3.5-2.14,5.27-.12.23-.31.35-.56.35-.18,0-.32-.06-.44-.19-.12-.12-.18-.27-.18-.45,0-.14.02-.24.07-.32.82-1.42,1.48-2.91,1.99-4.48.02-.08.04-.15.04-.22,0-.29-.17-.41-.52-.36-.25.03-.64.09-1.16.17-.17.02-.32-.02-.46-.14-.14-.12-.21-.26-.21-.44,0-.34.17-.53.52-.58.35-.05.91-.12,1.67-.22.38-.04.64-.28.78-.72.02-.06.09-.46.2-1.18.06-.34.26-.52.6-.52.19,0,.35.07.46.21.12.14.16.31.13.5,0,.04-.04.22-.11.53-.06.23-.08.4-.08.52,0,.34.19.49.56.47h.18c.62-.05,1.11.06,1.48.31.42.29.62.83.62,1.62ZM75.44,111.23c0,.18-.06.33-.19.46s-.27.19-.45.19c-.29,0-.49-.14-.6-.42-.42-1.08-.95-2.06-1.6-2.95-.07-.1-.11-.21-.11-.34,0-.17.06-.31.17-.43.12-.12.26-.18.43-.18.2,0,.36.08.49.25.73.95,1.33,2.01,1.81,3.18.02.06.04.14.04.24Z"/>
      <path class="cls-1" d="M86.56,112.81c0,1.17-.58,2.03-1.73,2.58-.94.46-2.11.67-3.5.65h-.83c-.15-.01-.28-.07-.4-.19-.11-.12-.17-.25-.17-.4,0-.16.06-.3.18-.41.12-.12.26-.17.43-.16.44.02.72.02.83.02.94,0,1.75-.13,2.45-.4.98-.36,1.46-.93,1.46-1.7,0-.52-.2-.91-.6-1.18-.33-.22-.77-.32-1.32-.32-.66,0-1.35.15-2.07.45-.72.3-1.32.69-1.81,1.16-.26.26-.52.38-.78.38-.2,0-.36-.08-.47-.24-.12-.16-.17-.37-.15-.64l.24-3.71c.02-.37.22-.55.59-.55.18,0,.32.06.44.19.12.13.17.28.16.44l-.16,2.02c-.02.34.08.52.31.52.11,0,.24-.04.38-.13,1.08-.68,2.22-1.02,3.43-1.02.91,0,1.64.21,2.17.62.6.46.9,1.13.9,2.02ZM83.75,107.83c0,.17-.06.31-.17.43-.12.12-.26.18-.44.18-.1,0-.18-.02-.24-.05-.93-.43-2-.8-3.23-1.1-.3-.07-.46-.26-.46-.56,0-.16.06-.3.17-.41.12-.11.25-.17.4-.17.06,0,.11,0,.13.01,1.19.27,2.34.64,3.44,1.09.26.1.38.3.38.58Z"/>
      <path class="cls-1" d="M98.62,113.31c0,.88-.33,1.58-.98,2.11s-1.55.79-2.68.79c-2.25,0-3.37-.95-3.37-2.86,0-.16,0-.39.02-.7.02-.36-.18-.58-.6-.67-.36-.02-.72-.05-1.07-.08-.14-.02-.26-.08-.36-.19-.1-.11-.14-.24-.14-.38,0-.17.07-.31.2-.43.13-.12.28-.16.45-.14.25.04.62.09,1.1.16.39.05.61-.13.66-.54l.05-.43c.05-.4-.13-.62-.54-.66-.19-.02-.46-.05-.8-.1-.34-.05-.51-.24-.51-.56,0-.17.07-.31.2-.42.13-.11.28-.16.45-.13.16.02.44.06.83.1.39.04.61-.14.66-.53l.13-1.02c.05-.36.25-.54.6-.54.19,0,.35.07.47.22.12.14.17.31.14.49l-.13.84c-.03.21,0,.37.1.49.1.12.24.17.44.16.67-.02,1.28-.05,1.81-.11.16-.02.3.03.43.14.12.11.19.24.19.4,0,.14-.05.27-.14.38-.1.11-.21.17-.35.19-.74.08-1.46.12-2.17.12-.38,0-.6.18-.64.55l-.05.43c-.02.2.01.36.11.47.1.11.24.17.44.17.68,0,1.36-.05,2.03-.12.17-.02.31.03.44.14.12.11.19.25.19.41,0,.14-.05.27-.15.38-.1.11-.22.17-.37.19-.68.06-1.44.1-2.29.1-.41,0-.62.22-.64.67v.43c0,1.25.74,1.87,2.22,1.87.65,0,1.19-.14,1.63-.43.51-.34.77-.81.77-1.43,0-.46-.11-.92-.32-1.39-.05-.1-.07-.19-.07-.25,0-.17.06-.31.18-.42.12-.11.26-.17.43-.17.26,0,.45.12.55.35.3.66.46,1.32.46,1.98Z"/>
      <path class="cls-1" d="M111.39,108.13c0,.16-.06.3-.17.41s-.25.17-.41.17-.59,0-1.3-.01c-.52,0-.93,0-1.24,0-.39,0-.59.21-.59.61v.66c0,.26.08.71.24,1.36.06.26.1.52.1.77,0,2.12-1.18,3.51-3.54,4.18-.06.02-.11.02-.17.02-.16,0-.3-.06-.41-.17-.12-.11-.17-.25-.17-.42,0-.28.14-.46.42-.55,1.14-.34,1.93-.87,2.38-1.58.08-.13.12-.24.12-.32,0-.11-.06-.17-.18-.17-.07,0-.16.02-.25.07-.22.11-.47.17-.73.17-.59,0-1.07-.15-1.43-.44-.39-.33-.59-.78-.59-1.36s.22-1.07.66-1.43c.41-.33.92-.49,1.52-.49.14,0,.25,0,.32.01.34.04.52-.06.52-.29,0-.4-.2-.6-.61-.59-.94.02-1.62.05-2.05.07-.84.04-1.62.1-2.35.18-.17.02-.31-.03-.44-.15s-.19-.26-.19-.43.05-.29.16-.4c.11-.11.24-.17.39-.17,1.1-.06,2.59-.14,4.46-.22.38-.02.58-.2.58-.54v-.54c0-.17.06-.31.19-.44.12-.12.27-.19.44-.19s.31.06.43.18c.12.12.18.26.18.43v.46c0,.42.2.62.6.6.26,0,1.1-.01,2.54-.01.16,0,.29.05.4.16.11.11.16.24.16.4ZM106.42,111.57c.03-.11.05-.22.05-.31,0-.3-.13-.51-.38-.61-.14-.06-.3-.08-.48-.08-.27,0-.5.09-.69.26-.19.18-.28.4-.28.66,0,.55.29.83.88.83.48,0,.78-.25.91-.74ZM110.58,111.49c0,.13-.05.24-.14.33-.09.09-.2.14-.33.14-.19,0-.33-.07-.42-.22-.23-.37-.48-.68-.74-.95-.09-.09-.13-.2-.13-.32,0-.32.16-.48.47-.48.14,0,.26.06.36.18.34.38.62.73.84,1.06.06.1.1.18.1.26ZM112.05,110.81c0,.13-.05.24-.14.33-.09.09-.2.14-.33.14-.18,0-.32-.07-.42-.22-.26-.39-.51-.72-.74-.97-.09-.1-.13-.2-.13-.3,0-.32.16-.48.48-.48.12,0,.24.06.35.17.28.28.56.64.85,1.07.06.11.08.2.08.26Z"/>
      <path class="cls-1" d="M122.78,111.57c0,1.14-.53,2.04-1.6,2.69-.79.48-1.84.81-3.16.98-.17.02-.32-.02-.44-.14-.13-.12-.19-.26-.19-.43,0-.14.05-.26.14-.37.1-.11.21-.17.35-.19,2.46-.33,3.7-1.18,3.7-2.56,0-.97-.64-1.45-1.92-1.45-1.02,0-2.66.3-4.91.9-.06.02-.11.02-.16.02-.15,0-.29-.06-.41-.17-.12-.12-.18-.25-.18-.41,0-.3.15-.49.46-.56.78-.19,1.53-.36,2.23-.49,1.28-.25,2.28-.37,3-.37.9,0,1.6.17,2.11.52.65.43.97,1.11.97,2.03Z"/>
      <path class="cls-1" d="M134.57,114.89c0,.34-.17.54-.52.59-1.32.18-2.64.28-3.96.28-2.35,0-3.53-.71-3.53-2.12,0-.86.6-1.76,1.81-2.69.24-.18.36-.4.36-.64,0-.11-.02-.23-.07-.36-.35-.89-.64-1.84-.88-2.87,0-.04-.01-.08-.01-.13,0-.18.06-.33.19-.45s.27-.19.45-.19c.15,0,.29.05.4.16.12.1.19.23.22.38.15.8.37,1.6.66,2.41.1.26.25.4.46.4.11,0,.23-.04.35-.11.07-.04.96-.52,2.65-1.45.1-.06.2-.08.29-.08.17,0,.31.06.43.18.12.12.17.26.17.43,0,.25-.11.43-.34.54-.98.49-2.05,1.06-3.19,1.73-.73.42-1.31.82-1.74,1.19-.62.54-.94,1.02-.94,1.46,0,.72.75,1.08,2.26,1.08,1.24,0,2.5-.11,3.78-.32.18-.03.34.01.48.13.14.12.22.27.22.46Z"/>
      <path class="cls-1" d="M147.44,112.86c0,.95-.36,1.68-1.09,2.2-.62.44-1.45.69-2.48.74-.16,0-.3-.04-.42-.15-.12-.11-.18-.24-.18-.4,0-.14.05-.27.14-.38.1-.11.22-.17.36-.19,1.63-.16,2.45-.77,2.45-1.82,0-.46-.19-.82-.58-1.1-.38-.28-.88-.41-1.49-.41s-1.15.05-1.67.16c-.42.08-.62.34-.62.79v2.53c0,.7-.34,1.04-1.01,1.04s-1.3-.2-1.97-.59c-.76-.46-1.14-.97-1.15-1.55,0-.42.22-.87.67-1.35.45-.48,1.04-.9,1.78-1.27.37-.18.55-.47.55-.85v-.73c0-.36-.18-.54-.55-.53-.65.02-1.15.02-1.5,0-.14,0-.27-.07-.37-.17-.1-.11-.16-.23-.16-.38,0-.16.06-.29.17-.4.11-.11.25-.16.41-.15.48.02.97.03,1.48.01.35,0,.53-.19.53-.55v-.82c0-.15.06-.28.17-.4.11-.11.24-.17.4-.17s.28.06.4.17c.11.11.17.24.17.4v.66c0,.38.19.55.58.49.26-.04.58-.09.95-.16.17-.03.32,0,.46.11.14.11.2.25.2.43,0,.31-.16.5-.47.55-.35.05-.7.1-1.06.14-.44.1-.66.31-.66.61v.55c0,.32.14.48.43.48.06,0,.11,0,.17-.01.54-.1,1.08-.16,1.6-.16.97,0,1.75.2,2.35.61.69.46,1.03,1.13,1.03,1.99ZM140.73,113.99v-1.24c0-.32-.12-.48-.36-.48-.1,0-.2.03-.3.1-.74.45-1.1.88-1.1,1.31,0,.25.19.47.56.67.35.19.62.29.79.29.27,0,.41-.22.41-.65ZM147.65,108.95c0,.16-.06.3-.17.42-.11.12-.25.18-.41.18s-.29-.05-.4-.16c-.45-.42-.98-.78-1.58-1.1-.2-.1-.3-.27-.3-.49,0-.16.06-.3.17-.41.11-.11.24-.17.4-.17.1,0,.18.02.26.06.67.34,1.28.75,1.82,1.22.14.12.21.27.21.44Z"/>
      <path class="cls-1" d="M159.92,110.03c0,.15-.05.28-.16.38s-.23.16-.37.16h-2.23c-.4,0-.6.2-.6.6v3.19c0,.29.04.47.12.55.08.08.27.12.58.12h.43c.4,0,.66-.08.77-.25s.19-.58.21-1.24c0-.15.07-.28.17-.38.11-.1.24-.16.39-.16.16,0,.3.06.41.17.12.11.17.25.16.41-.03.94-.13,1.56-.29,1.86-.25.46-.78.68-1.6.68h-1.18c-.55,0-.92-.08-1.09-.25s-.26-.52-.26-1.06v-3.65c0-.4-.2-.6-.6-.6h-.53c-.38,0-.59.2-.61.6-.06,1.1-.28,2.01-.66,2.75-.46.9-1.19,1.64-2.17,2.24-.1.06-.22.1-.34.1-.16,0-.3-.06-.41-.17s-.17-.26-.17-.43c0-.22.09-.39.28-.5.83-.5,1.42-1.06,1.76-1.67.31-.56.5-1.32.55-2.29.02-.42-.17-.62-.59-.62h-1.9c-.14,0-.27-.05-.37-.16s-.16-.23-.16-.38.05-.27.16-.37c.1-.1.23-.15.37-.15h9.38c.14,0,.27.05.37.15.1.1.16.22.16.37ZM158.86,106.96c0,.14-.05.27-.16.37-.1.1-.23.15-.37.15h-7.25c-.14,0-.27-.05-.37-.15-.1-.1-.16-.22-.16-.37s.05-.27.16-.37c.1-.1.23-.16.37-.16h7.25c.14,0,.27.05.37.16s.16.23.16.37Z"/>
      <path class="cls-1" d="M172.11,107.2c0,.14-.05.27-.15.37s-.22.15-.35.15h-6.67c-.46,0-.85.17-1.18.52-.33.35-.71.7-1.15,1.05-.11.09-.23.13-.35.13-.15,0-.28-.05-.38-.16s-.16-.23-.16-.38c0-.18.06-.32.19-.42,1-.82,1.77-1.67,2.3-2.56.1-.18.26-.26.47-.26.15,0,.28.05.39.16.11.1.16.23.16.38v.04c0,.19,0,.31.02.35.04.09.13.13.28.13h6.07c.14,0,.25.05.35.15s.15.22.15.35ZM168.26,115.02c0,.15-.05.28-.16.39-.11.11-.24.16-.39.16-.14,0-.27-.05-.37-.14-.24-.22-.59-.51-1.06-.89-.14-.11-.27-.17-.41-.17s-.28.06-.43.19c-.67.58-1.48,1.1-2.41,1.56-.08.04-.16.06-.24.06-.14,0-.27-.05-.38-.16-.11-.1-.16-.23-.16-.38,0-.22.1-.38.3-.48.72-.34,1.35-.72,1.9-1.16.16-.13.24-.26.24-.41,0-.17-.1-.32-.29-.44-.31-.21-.61-.4-.9-.58-.16-.1-.24-.24-.24-.42,0-.14.05-.25.14-.35.1-.1.21-.14.35-.14.1,0,.19.02.25.06.46.27.86.52,1.2.74.14.09.26.13.38.13.18,0,.33-.09.46-.26.22-.3.41-.61.59-.95.11-.21.28-.31.49-.31.16,0,.29.05.4.16.1.11.16.24.16.4,0,.1-.02.19-.06.26-.2.37-.42.72-.67,1.04-.1.14-.16.26-.16.38,0,.17.09.32.28.46.26.2.6.47,1,.8.14.11.2.26.2.43ZM172.5,114.6c0,.1-.02.18-.06.26-.51.98-1.04,1.48-1.58,1.48-.98,0-1.54-1.64-1.69-4.91-.02-.42-.22-.62-.62-.62h-5.78c-.32,0-.48-.16-.48-.48,0-.14.05-.25.14-.35.09-.1.21-.14.34-.14h6.25c.8,0,1.21.42,1.24,1.25.02.78.08,1.49.16,2.15.14,1.19.35,1.79.62,1.79.1,0,.26-.24.48-.72.08-.18.24-.28.47-.28.14,0,.27.06.37.17.1.12.16.25.16.4ZM171.28,108.76c0,.12-.04.22-.13.31s-.19.13-.31.13h-6.49c-.28,0-.42-.14-.42-.43,0-.11.04-.21.12-.29s.18-.13.3-.13h6.49c.12,0,.22.04.31.13s.13.18.13.29Z"/>
      <path class="cls-1" d="M183.59,107.47c0,.32-.22.51-.65.58-1.21.18-2.28.68-3.22,1.49-.94.81-1.4,1.67-1.4,2.56,0,1.3,1.04,2.12,3.11,2.48.34.06.52.26.52.61,0,.19-.07.35-.22.49-.15.13-.32.18-.51.14-1.24-.24-2.18-.61-2.83-1.1-.86-.66-1.28-1.5-1.28-2.52,0-.86.29-1.65.88-2.35.26-.3.51-.56.76-.77s.37-.38.37-.53c0-.19-.2-.27-.61-.24-1.64.14-2.97.28-4,.42-.18.02-.33-.02-.46-.14s-.19-.27-.19-.44c0-.15.05-.29.15-.4.1-.12.23-.18.38-.19,1.47-.14,4.3-.36,8.48-.65.22,0,.39.04.53.15.14.11.2.25.2.41ZM182.94,111.01c0,.13-.05.24-.14.33-.09.09-.2.14-.33.14-.19,0-.33-.07-.42-.22-.23-.37-.48-.68-.74-.95-.09-.09-.13-.2-.13-.32,0-.32.16-.48.47-.48.14,0,.26.06.36.18.34.38.62.73.84,1.06.06.1.1.18.1.26ZM184.41,110.33c0,.13-.05.24-.14.33s-.2.14-.33.14c-.18,0-.32-.07-.42-.22-.26-.39-.51-.72-.74-.97-.09-.1-.13-.2-.13-.3,0-.32.16-.48.48-.48.12,0,.24.06.35.17.28.28.56.64.85,1.07.06.11.08.2.08.26Z"/>
      <path class="cls-1" d="M189.94,114.9c0,.24-.08.44-.24.61s-.36.25-.6.25-.44-.08-.61-.25-.25-.37-.25-.61.08-.44.25-.61.37-.25.61-.25.43.08.59.25.25.37.25.6ZM193.88,107.26c0,.13-.04.26-.11.38l-3.1,5.46c-.11.19-.27.29-.48.29-.15,0-.28-.06-.4-.17-.11-.11-.17-.24-.17-.4,0-.07.02-.15.06-.23l2.7-5.66c.14-.3.38-.46.7-.46.22,0,.4.08.56.23s.23.34.23.55Z"/>
      <path class="cls-1" d="M202.06,114.9c0,.24-.08.44-.24.61s-.36.25-.6.25-.44-.08-.61-.25-.25-.37-.25-.61.08-.44.25-.61.37-.25.61-.25.43.08.59.25.25.37.25.6ZM206,107.26c0,.13-.04.26-.11.38l-3.1,5.46c-.11.19-.27.29-.48.29-.15,0-.28-.06-.4-.17-.11-.11-.17-.24-.17-.4,0-.07.02-.15.06-.23l2.7-5.66c.14-.3.38-.46.7-.46.22,0,.4.08.56.23s.23.34.23.55Z"/>
    </g>
    <g>
      <path class="cls-1" d="M215,136.49c0,.98-.27,1.78-.81,2.41s-1.29,1.01-2.25,1.15c-.37.06-.7.26-1,.6-.5.58-1.22,1.06-2.17,1.43-.06.02-.13.04-.2.04-.14,0-.27-.05-.38-.16-.11-.11-.17-.24-.17-.4,0-.26.12-.44.36-.53.46-.17.84-.38,1.16-.62.13-.1.19-.2.19-.32,0-.16-.11-.3-.34-.43-.38-.23-.71-.54-.97-.94-.06-.1-.1-.2-.1-.31,0-.36.18-.54.53-.54.2,0,.35.08.44.23.3.47.59.71.88.71.23,0,.36-.15.4-.44.04-.38.06-.76.06-1.12,0-.66-.01-1.29-.04-1.88-.02-.43-.18-.65-.48-.65-.1,0-.2.02-.32.07-.68.26-1.3.76-1.87,1.5-.54.7-.93,1.49-1.16,2.39-.06.25-.1.55-.1.91,0,.17-.06.32-.17.44s-.25.19-.42.19-.3-.05-.41-.16c-.11-.11-.17-.24-.18-.4-.09-2.36-.05-4.5.11-6.43.02-.16.08-.29.2-.4.12-.1.25-.16.41-.16.18,0,.32.07.44.2.12.14.17.29.14.47-.09.73-.15,1.47-.18,2.23,0,.24.05.36.18.36.1,0,.2-.08.3-.23.73-1.08,1.64-1.78,2.75-2.11.42-.12.62-.36.6-.71v-.28c-.02-.18.03-.33.15-.46.12-.13.27-.2.45-.2.16,0,.3.05.42.16s.18.24.19.4v.24c.03.36.23.56.61.6.78.09,1.4.38,1.88.86.57.58.85,1.34.85,2.29ZM213.82,136.53c0-1.1-.48-1.78-1.43-2.04-.06-.02-.12-.02-.18-.02-.31,0-.46.2-.46.6.02.78.02,1.41.02,1.91,0,.58-.02,1.02-.05,1.32-.04.35.08.53.35.53.06,0,.13-.01.2-.04,1.02-.36,1.54-1.11,1.54-2.26Z"/>
      <path class="cls-1" d="M226.5,135.19c0,.26-.12.43-.37.52-.53.18-1.01.33-1.44.43-.26.06-.38.19-.38.37,0,.1.04.21.12.32.39.54.76,1.01,1.09,1.39.11.13.17.27.17.43,0,.18-.06.34-.19.47s-.28.2-.47.2c-.1,0-.19-.02-.28-.05-1.06-.42-2.06-.64-3-.64-1.54,0-2.3.36-2.3,1.09s.97,1.07,2.9,1.07c.66,0,1.42-.04,2.26-.13.16-.02.3.03.43.14.13.11.19.24.19.4,0,.33-.17.51-.5.54-.76.08-1.56.12-2.4.12-2.7,0-4.04-.7-4.04-2.11s1.08-2.1,3.24-2.1c.5,0,1.09.08,1.76.23.06.02.12.02.17.02.16,0,.24-.06.24-.17,0-.08-.04-.17-.12-.28-.04-.06-.15-.2-.32-.44-.22-.3-.48-.44-.8-.44-.1,0-.2,0-.32.02-1.11.15-2.33.22-3.66.2-.14,0-.27-.05-.37-.16-.1-.1-.15-.23-.15-.37s.05-.27.16-.38c.1-.11.23-.16.37-.15.99.03,2.05-.01,3.18-.13.3-.03.46-.15.46-.36,0-.1-.03-.19-.1-.28-.19-.33-.47-.47-.83-.43-.69.08-1.48.12-2.38.12-.14,0-.26-.05-.37-.16-.11-.1-.16-.22-.16-.36,0-.14.05-.27.16-.37.11-.1.23-.15.37-.15.66,0,1.28-.01,1.85-.06.34-.03.5-.14.5-.32,0,0-.07-.18-.22-.53-.02-.06-.04-.12-.04-.19,0-.16.06-.3.17-.41.11-.12.25-.17.42-.17.26,0,.44.13.54.38.03.1.09.24.17.44.12.3.32.46.6.46.07,0,.15-.01.23-.04.56-.14,1.12-.32,1.68-.52.06-.02.12-.04.18-.04.15,0,.28.05.39.16.11.1.16.23.16.38,0,.27-.13.45-.38.53-.59.19-1.11.34-1.56.44-.29.06-.43.2-.43.4,0,.09.03.18.1.26l.02.04c.17.26.37.38.61.38.06,0,.13,0,.2-.02.63-.15,1.22-.33,1.78-.54.04-.02.1-.02.17-.02.15,0,.28.05.39.16.11.1.16.23.16.38Z"/>
      <path class="cls-1" d="M234.64,134.55c-.41.09-.8.16-1.19.22-.45.07-.75.32-.9.74-.56,1.61-1.2,3.14-1.91,4.58-.11.23-.3.35-.55.35-.17,0-.31-.06-.43-.18-.12-.12-.18-.26-.18-.43,0-.1.02-.19.07-.29.67-1.3,1.25-2.61,1.74-3.94.03-.09.05-.16.05-.23,0-.25-.17-.37-.5-.37h-.68c-.16,0-.3-.06-.41-.17-.11-.12-.17-.25-.17-.41s.06-.31.18-.43.26-.17.43-.16c.35.02.68.02.98.01.49,0,.79-.25.91-.73.06-.27.13-.54.2-.82.12-.3.32-.46.59-.46.17,0,.31.06.43.18s.18.26.18.42c0,.06-.04.24-.12.52-.02.1-.04.18-.04.25,0,.24.11.36.32.36.04,0,.08,0,.13-.01l.62-.13c.07-.02.12-.02.14-.02.16,0,.29.06.39.17.1.12.15.26.15.43,0,.3-.15.49-.46.55ZM239.19,140.49c0,.16-.06.3-.17.42s-.26.18-.43.18c-.1,0-.21-.04-.32-.11-.26-.18-.54-.34-.84-.5-.1-.06-.18-.08-.26-.08-.19,0-.33.14-.41.42-.23.81-.94,1.21-2.14,1.21-.63,0-1.16-.14-1.58-.41-.5-.31-.76-.77-.76-1.37s.24-1.04.71-1.36c.41-.27.92-.41,1.55-.41.18,0,.38.02.6.05.18.02.33,0,.43-.08.1-.08.15-.22.15-.41v-1.75c-.01-.16.04-.3.16-.41.11-.12.25-.17.41-.17s.3.06.41.17.17.25.17.41v2.02c.01.44.23.76.67.96.38.18.84.42,1.37.73.2.12.3.29.3.5ZM235.7,140.16c0-.34-.19-.54-.58-.6-.23-.04-.44-.06-.61-.06-.73,0-1.09.26-1.09.77,0,.23.1.41.29.55.2.13.45.2.76.2.56,0,.92-.14,1.09-.41.09-.14.13-.29.13-.44ZM239.3,135.14c0,.16-.06.3-.17.41s-.25.17-.41.17c-.11,0-.22-.04-.32-.11-.61-.41-1.25-.76-1.93-1.04-.22-.1-.34-.27-.34-.53,0-.16.06-.3.17-.41.12-.11.25-.17.4-.17.09,0,.16.02.22.05.75.32,1.46.69,2.11,1.12.18.12.28.29.28.5Z"/>
    </g>
  </g>
</svg>