<?xml version="1.0" encoding="UTF-8"?>
<svg xmlns="http://www.w3.org/2000/svg" viewBox="0 0 286.1 187">
  <defs>
    <style>
      .cls-1 {
        fill: #5b5b5b;
      }

      .cls-2 {
        fill: #f3fcff;
        stroke: #cecece;
        stroke-linecap: round;
        stroke-linejoin: round;
        stroke-width: 7px;
      }
    </style>
  </defs>
  <g id="_レイヤー_1" data-name="レイヤー 1">
    <path class="cls-2" d="M117.77,147.26c18.12,41.17,113.2,53.28,120.42,4.36,39.24,13.64,65.62-44.45,21.39-73.93,5.18-70.12-61.16-74.62-86.06-44.74-7.4-41.61-101.67-38.64-106.97,5.84-102.51,1.42-74.88,166.93,45.67,124.09"/>
  </g>
  <g id="yumeno2km">
    <g>
      <path class="cls-1" d="M84.88,57.1c0,1.63-.06,2.93-.18,3.89-.19,1.49-.55,2.72-1.09,3.67-.15.26-.37.39-.66.39-.21,0-.38-.07-.52-.22-.15-.14-.22-.32-.22-.52,0-.13.03-.25.1-.36.52-.91.87-1.99,1.04-3.25.11-.83.17-2.05.17-3.67v-3.23c0-.19.07-.35.21-.48s.3-.2.49-.2.35.07.48.2.2.3.2.48v3.3ZM89.14,63.18c0,.19-.07.35-.2.48s-.29.2-.48.2-.35-.07-.48-.2c-.13-.13-.2-.29-.2-.48v-8.61c0-.19.07-.35.2-.48s.29-.2.48-.2.35.07.48.2c.13.13.2.29.2.48v8.61ZM93.62,64.34c0,.19-.07.35-.2.49s-.3.21-.48.21-.35-.07-.48-.21-.2-.3-.2-.49v-10.54c0-.19.07-.35.2-.48s.3-.2.48-.2.35.07.48.2.2.3.2.48v10.54Z"/>
      <path class="cls-1" d="M101.82,55.92c0,.16-.06.3-.17.41s-.25.18-.41.18h-.83c-.37,0-.56.14-.56.42,0,.11.06.27.18.48.26.42.8,1.16,1.62,2.23.1.13.15.26.15.38,0,.16-.06.3-.17.41s-.25.17-.41.17c-.21,0-.35-.05-.42-.15-.1-.14-.28-.38-.52-.73-.08-.13-.17-.2-.27-.2-.11,0-.17.1-.17.29v4.8c0,.17-.06.31-.18.43-.12.12-.27.18-.43.18-.18,0-.32-.06-.44-.18-.12-.12-.18-.26-.18-.43v-4.44c0-.2-.06-.29-.18-.29-.06,0-.23.25-.52.74-.17.29-.34.58-.5.88-.13.19-.3.28-.52.28-.36,0-.57-.21-.62-.62-.02-.12.05-.27.2-.46.75-.98,1.41-2.15,1.99-3.5.07-.17.11-.3.11-.41,0-.2-.17-.29-.52-.29h-1.08c-.16,0-.3-.06-.41-.18-.12-.12-.18-.25-.18-.41s.06-.3.18-.41.25-.18.41-.18h1.08c.37,0,.56-.19.56-.56v-1.36c0-.17.06-.31.18-.43s.27-.18.43-.18.31.06.43.18c.12.12.18.27.18.43v1.36c0,.37.19.56.56.56h.83c.16,0,.3.06.41.18.12.12.17.25.17.41ZM109.02,55.95c0,.17-.06.31-.18.43-.12.12-.27.18-.43.18h-.41c-.42,0-.63.21-.63.63v5.64c0,.83-.12,1.38-.37,1.64-.25.26-.74.39-1.48.39h-1.04c-.17,0-.31-.06-.44-.18s-.19-.27-.19-.43.06-.31.19-.44.27-.19.44-.19h.73c.39,0,.64-.08.76-.24.08-.12.13-.38.13-.77v-5.42c0-.42-.21-.63-.63-.63h-2.6c-.17,0-.31-.06-.43-.18-.12-.12-.17-.27-.17-.43s.06-.31.17-.43c.12-.12.26-.18.43-.18h2.6c.42,0,.63-.21.63-.63v-1.18c0-.18.06-.33.19-.46s.28-.19.46-.19c.17,0,.31.06.44.19s.19.28.19.46v1.18c0,.42.21.63.63.63h.41c.17,0,.31.06.43.18.12.12.18.27.18.43ZM104.93,60.53c0,.16-.06.3-.18.42-.12.12-.26.18-.42.18-.24,0-.42-.11-.53-.32-.3-.58-.66-1.17-1.09-1.78-.07-.09-.1-.21-.1-.34,0-.16.06-.29.17-.41.11-.11.25-.17.41-.17.21,0,.36.08.48.24.5.71.9,1.33,1.19,1.88.06.1.08.2.08.29Z"/>
      <path class="cls-1" d="M122.86,58.77c0,.17-.06.31-.18.43-.12.12-.27.18-.43.18h-2.97c-.42,0-.63.21-.63.63v3.09c0,.36.1.56.31.6.05,0,.15.01.32.01h.88c.52,0,.85-.13.98-.38.07-.15.13-.54.15-1.16,0-.17.07-.31.2-.43s.27-.18.45-.18.33.07.46.2c.13.13.19.28.18.46-.03,1.12-.19,1.85-.5,2.21s-.93.52-1.87.52h-1.5c-.56,0-.93-.09-1.12-.27-.19-.18-.28-.55-.28-1.11v-3.56c0-.42-.21-.63-.63-.63h-.53c-.4,0-.62.21-.64.62-.16,2.34-1.3,4.04-3.42,5.08-.09.05-.2.07-.32.07-.18,0-.34-.07-.48-.2-.14-.13-.21-.29-.21-.48,0-.29.13-.49.38-.62.89-.44,1.54-.95,1.97-1.55s.68-1.36.76-2.29c.04-.43-.17-.64-.62-.64h-2.49c-.17,0-.31-.06-.43-.18-.12-.12-.18-.26-.18-.43s.06-.31.18-.43c.12-.12.27-.18.43-.18h4.4c.42,0,.63-.21.63-.63v-.84c0-.42-.21-.63-.63-.63h-1.89c-.5,0-.91.19-1.2.57l-.35.45c-.11.15-.28.22-.49.22-.18,0-.33-.06-.45-.19-.12-.13-.18-.28-.18-.46,0-.17.06-.31.17-.43.7-.78,1.3-1.66,1.79-2.63.11-.22.3-.34.57-.34.19,0,.34.06.46.19.12.13.18.28.18.46,0,.08-.03.18-.08.3-.05.12-.08.21-.08.29,0,.23.17.35.5.35h1.04c.42,0,.63-.21.63-.63v-.74c0-.18.06-.33.19-.46.13-.13.28-.19.45-.19s.33.06.46.19.19.28.19.46v.74c0,.42.21.63.63.63h3.23c.17,0,.31.06.43.18.12.12.18.26.18.42,0,.17-.06.31-.18.43-.12.12-.27.18-.43.18h-3.23c-.42,0-.63.21-.63.63v.84c0,.42.21.63.63.63h4.21c.17,0,.31.06.43.18.12.12.18.27.18.43Z"/>
      <path class="cls-1" d="M137,64.02c0,.18-.06.33-.19.46s-.28.19-.46.19h-11.12c-.18,0-.33-.06-.45-.19-.12-.13-.18-.28-.18-.46s.06-.33.19-.46.27-.19.44-.19h4.33c.42,0,.63-.21.63-.63v-1.65c0-.42-.21-.63-.63-.63h-2.93c-.17,0-.31-.06-.43-.17-.12-.12-.18-.26-.18-.43s.06-.31.18-.43c.12-.12.26-.18.43-.18h2.93c.42,0,.63-.21.63-.63v-1.27c0-.42-.21-.63-.63-.63h-1.92c-.55,0-.97.23-1.26.7-.12.2-.31.48-.57.85-.13.19-.31.28-.53.28-.18,0-.33-.07-.46-.2-.13-.13-.2-.28-.2-.46,0-.16.04-.29.13-.41.92-1.26,1.64-2.54,2.14-3.84.1-.26.3-.39.6-.39.19,0,.34.07.47.2.13.13.19.29.19.46,0,.1-.1.37-.29.81-.05.11-.07.22-.07.32,0,.28.18.42.55.42h1.23c.42,0,.63-.21.63-.63v-1.26c0-.19.07-.35.2-.48.13-.14.3-.2.48-.2s.35.07.48.2c.13.14.2.3.2.48v1.26c0,.42.21.63.63.63h3.65c.18,0,.33.06.45.18.12.12.18.27.18.43,0,.18-.06.33-.18.45s-.27.18-.45.18h-3.65c-.42,0-.63.21-.63.63v1.27c0,.42.21.63.63.63h2.88c.17,0,.31.06.43.18s.18.26.18.43-.06.31-.18.43-.26.17-.43.17h-2.88c-.42,0-.63.21-.63.63v1.65c0,.42.21.63.63.63h4.17c.18,0,.33.06.46.19s.19.28.19.46Z"/>
      <path class="cls-1" d="M141.97,54.27c-.37,2.14-.56,4.16-.56,6.06,0,1.33.05,2.45.15,3.35.03.21-.03.41-.18.57s-.33.25-.55.25c-.2,0-.36-.07-.5-.2-.14-.13-.22-.29-.24-.48-.09-.9-.14-2.03-.14-3.42,0-2.07.2-4.2.59-6.4.07-.4.31-.6.71-.6.22,0,.41.09.55.26.15.17.2.37.16.59ZM150.47,62.81c0,.17-.06.32-.18.46s-.27.21-.43.23c-1.21.16-2.23.24-3.04.24-2.47,0-3.71-.75-3.71-2.24,0-.42.12-.85.35-1.29.13-.25.33-.38.59-.38.46,0,.69.22.69.66,0,.09-.03.23-.08.41-.06.18-.08.33-.08.44,0,.38.23.65.69.8.39.14,1.01.21,1.86.21.69,0,1.54-.08,2.55-.24.21-.04.4.02.57.16.16.15.24.32.24.54ZM149.98,55.41c0,.18-.06.33-.17.46-.12.13-.26.21-.44.24-1.05.15-2.17.22-3.35.22-.52,0-1.09-.02-1.71-.06-.18,0-.33-.08-.46-.22s-.2-.3-.2-.48c0-.21.08-.38.23-.51s.33-.19.52-.17c.52.05,1.08.07,1.67.07,1.05,0,2.09-.08,3.09-.24.21-.04.4.01.57.15s.24.32.24.53Z"/>
      <path class="cls-1" d="M165.48,57.03c0,.19-.07.35-.2.48-.13.13-.29.2-.48.2h-1.53c-.47,0-.7.23-.7.7v.5c0,1.51-.27,2.7-.82,3.56s-1.51,1.62-2.89,2.26c-.1.05-.2.07-.29.07-.2,0-.36-.07-.5-.2-.14-.14-.21-.3-.21-.5,0-.29.14-.5.42-.63,1.14-.52,1.92-1.14,2.34-1.85.37-.63.56-1.56.56-2.77v-.45c0-.47-.23-.7-.7-.7h-2.58c-.47,0-.7.23-.7.7v1.69c0,.19-.07.35-.2.48-.13.14-.3.2-.5.2s-.36-.07-.5-.2c-.14-.13-.2-.29-.2-.49v-1.69c0-.47-.23-.7-.7-.7h-1.5c-.19,0-.35-.07-.48-.2-.13-.13-.2-.29-.2-.48s.07-.35.2-.48c.13-.13.29-.2.48-.2h1.5c.47,0,.7-.23.7-.7v-1.34c0-.2.07-.36.2-.5.13-.14.3-.2.5-.2s.35.07.49.21c.14.14.21.3.21.49v1.34c0,.47.23.7.7.7h2.58c.47,0,.7-.23.7-.7v-1.5c0-.19.07-.35.2-.48.13-.14.3-.2.5-.2s.36.07.5.2c.14.14.2.3.2.48v1.5c0,.47.23.7.7.7h1.53c.19,0,.34.07.48.2s.2.29.2.48Z"/>
      <path class="cls-1" d="M170.77,58.99c0,.07-.01.14-.04.22-.46,1.33-1.12,2.59-2,3.75-.15.2-.34.29-.59.29-.2,0-.36-.07-.5-.21-.14-.14-.21-.31-.21-.5,0-.17.05-.32.15-.45.84-1.05,1.45-2.17,1.82-3.33.1-.33.33-.49.67-.49.2,0,.36.07.5.21.13.14.2.31.2.5ZM178.6,56.33c0,.18-.07.33-.2.46-.13.13-.29.2-.46.2h-3.36c-.47,0-.7.23-.7.7v5.53c0,.61-.12,1.02-.35,1.24s-.66.33-1.27.33h-1.04c-.18,0-.33-.07-.46-.2-.13-.13-.2-.28-.2-.46s.07-.33.2-.46c.13-.13.29-.2.46-.2h.43c.33,0,.54-.05.65-.15.11-.1.16-.32.16-.67v-4.97c0-.47-.23-.7-.7-.7h-3.44c-.18,0-.33-.07-.46-.2-.13-.13-.2-.28-.2-.46s.07-.33.2-.46c.13-.13.28-.2.46-.2h3.44c.47,0,.7-.23.7-.7v-.84c0-.2.07-.36.21-.5.14-.14.31-.21.5-.21s.36.07.5.21c.14.14.2.31.2.5v.84c0,.47.23.7.7.7h3.36c.18,0,.33.07.46.2.13.13.2.28.2.46ZM179.03,62.41c0,.21-.07.38-.2.52-.14.14-.31.21-.51.21-.31,0-.53-.15-.66-.43-.5-1.08-1.18-2.24-2.06-3.47-.07-.1-.11-.23-.11-.39,0-.19.07-.35.2-.48.13-.14.3-.2.48-.2.21,0,.4.1.55.29.88,1.16,1.62,2.37,2.24,3.64.05.09.07.2.07.32ZM178.61,53.77c0,.41-.15.76-.45,1.06s-.65.44-1.06.44-.76-.14-1.05-.43c-.29-.29-.43-.64-.43-1.06s.14-.77.43-1.06c.29-.29.64-.43,1.05-.43s.77.15,1.06.44.45.65.45,1.06ZM177.84,53.77c0-.2-.07-.36-.22-.5s-.32-.21-.53-.21-.38.07-.51.2c-.14.14-.2.31-.2.51s.07.38.2.51.31.2.51.2.38-.07.53-.21.22-.31.22-.5Z"/>
      <path class="cls-1" d="M193.23,58.7c0,.21-.07.38-.2.52-.13.14-.31.21-.51.21h-10.32c-.21,0-.38-.07-.51-.21-.14-.14-.2-.31-.2-.52s.07-.38.2-.52c.14-.14.31-.21.51-.21h10.32c.21,0,.38.07.51.21.14.14.2.31.2.52Z"/>
      <path class="cls-1" d="M206.23,60.11c0,.21-.07.38-.21.52-.14.14-.31.21-.52.21-.12,0-.23-.02-.32-.07-1.48-.74-2.98-1.38-4.48-1.92-.11-.04-.21-.06-.29-.06-.35,0-.52.21-.52.63v4.87c0,.21-.07.38-.22.53-.14.14-.31.22-.51.22s-.38-.07-.53-.22c-.15-.15-.22-.32-.22-.53v-10.32c0-.21.07-.38.22-.52s.33-.22.53-.22.37.07.51.22c.15.14.22.32.22.52v2.18c0,.64.3,1.07.91,1.29,1.9.68,3.57,1.35,5.01,2,.28.13.42.35.42.66Z"/>
      <path class="cls-1" d="M220.91,60.95c0,.13-.04.26-.11.38-.63,1.04-1.4,1.86-2.28,2.48-1,.68-2.06,1.02-3.18,1.02-2.46,0-3.68-1.11-3.68-3.33,0-.91.02-2.1.06-3.57.03-1.19.05-2.49.07-3.89,0-.2.07-.37.22-.51.15-.14.32-.22.52-.22.21,0,.38.07.53.22s.22.33.21.53l-.17,7.13c0,1.47.77,2.2,2.32,2.2.83,0,1.63-.29,2.39-.88.65-.48,1.23-1.13,1.72-1.95.14-.23.35-.35.63-.35.21,0,.38.07.52.22.15.14.22.32.22.52Z"/>
      <path class="cls-1" d="M60.51,69.76c0,.37-.25.6-.76.67-1.41.21-2.66.8-3.75,1.74-1.09.95-1.64,1.94-1.64,2.99,0,1.47,1.21,2.43,3.63,2.9.4.07.6.31.6.71,0,.22-.09.41-.26.56-.17.15-.37.21-.6.17-1.35-.23-2.44-.65-3.26-1.26-1.03-.75-1.54-1.74-1.54-2.97,0-.99.34-1.9,1.02-2.74.27-.34.57-.64.9-.91.28-.23.42-.43.42-.6,0-.22-.24-.32-.71-.28-1.46.13-3.01.29-4.66.49-.21.03-.38-.03-.53-.17-.15-.14-.22-.31-.22-.52,0-.18.06-.33.17-.46.12-.13.26-.21.44-.22,1.69-.17,4.99-.42,9.9-.76.25-.02.46.04.62.16s.24.29.24.5Z"/>
      <path class="cls-1" d="M68.84,76.75c-.82,1.61-1.61,2.42-2.37,2.42-.93,0-1.66-.83-2.17-2.49-.4-1.29-.6-2.75-.6-4.38,0-.84.03-1.56.08-2.17.02-.2.1-.36.23-.49s.3-.2.5-.2c.21,0,.39.08.54.25.14.16.21.35.19.57-.07.63-.1,1.35-.1,2.17,0,1.07.12,2.14.35,3.19.26,1.17.61,1.75,1.04,1.75.31,0,.66-.42,1.05-1.26.12-.25.33-.38.63-.38.2,0,.36.07.5.2s.2.3.2.5c0,.12-.02.23-.07.32ZM74.9,76.31c.03.22-.03.42-.18.6-.15.18-.34.27-.57.27-.2,0-.37-.07-.52-.2-.15-.13-.23-.29-.25-.48-.23-2.12-.92-4-2.06-5.66-.08-.12-.13-.26-.13-.41,0-.21.07-.38.21-.52.14-.14.31-.21.52-.21.25,0,.45.1.6.31,1.29,1.79,2.08,3.89,2.38,6.29Z"/>
      <path class="cls-1" d="M84.45,71.25c-.68.13-1.37.24-2.07.32-.38.05-.66.15-.83.29-.17.15-.3.41-.39.77-.52,2.21-1.17,4.34-1.95,6.37-.12.31-.35.46-.69.46-.21,0-.38-.07-.52-.22s-.21-.31-.21-.51c0-.09.02-.19.06-.28.79-1.88,1.44-3.86,1.95-5.96.02-.07.03-.14.03-.21,0-.33-.2-.49-.59-.48s-.75,0-1.08,0c-.19,0-.35-.08-.48-.22-.14-.13-.2-.3-.2-.48s.07-.36.22-.5c.14-.14.31-.21.51-.2.53.02.96.02,1.29.01.52-.02.82-.27.9-.77.03-.21.07-.51.14-.92.07-.41.3-.61.71-.61.2,0,.36.07.5.21.14.14.21.3.21.49,0,.09-.04.33-.11.7,0,.07-.01.13-.01.18,0,.37.21.53.62.46.06,0,.38-.07.98-.2.45-.08.76-.13.92-.13.2,0,.36.07.48.21s.19.31.19.5c0,.38-.19.61-.57.69ZM88.88,78.61c0,.4-.2.63-.59.69-.89.13-1.82.2-2.8.2-2.48,0-3.72-.7-3.72-2.09,0-.32.08-.68.24-1.09.11-.28.32-.42.63-.42.44,0,.66.22.66.67,0,.08-.01.18-.04.31-.03.14-.04.24-.04.32,0,.63.8.95,2.39.95.7,0,1.53-.07,2.49-.21.21-.03.39.03.55.16s.24.31.24.51ZM88.48,73.4c0,.2-.08.36-.22.5-.15.14-.32.21-.52.2-1.39-.07-2.88-.04-4.47.1-.2.02-.37-.04-.51-.18-.14-.14-.22-.3-.22-.5,0-.18.06-.33.17-.45s.26-.2.43-.22c1.58-.16,3.13-.21,4.65-.17.19,0,.35.08.48.22s.2.3.2.49Z"/>
      <path class="cls-1" d="M98.45,71.25c-.78.15-1.47.26-2.07.32-.38.05-.66.15-.83.29-.17.15-.3.41-.38.77-.56,2.46-1.21,4.58-1.95,6.37-.13.31-.36.46-.69.46-.21,0-.38-.07-.52-.22-.14-.14-.21-.31-.21-.51,0-.1.02-.2.06-.28.75-1.75,1.4-3.73,1.95-5.96.02-.07.03-.14.03-.21,0-.33-.2-.49-.59-.48-.39,0-.75,0-1.08,0-.19,0-.35-.08-.48-.22-.14-.13-.2-.3-.2-.48s.07-.36.22-.5.31-.21.51-.2c.53.02.96.02,1.29.01.53-.02.83-.27.9-.77.03-.2.07-.5.14-.91s.3-.62.71-.62c.2,0,.36.07.5.21.14.14.21.3.21.49,0,.09-.04.33-.11.7,0,.07-.01.13-.01.18,0,.37.21.53.62.46.06,0,.38-.07.98-.2.45-.08.76-.13.92-.13.2,0,.36.07.48.21s.19.31.19.5c0,.38-.19.61-.57.69ZM102.88,78.61c0,.18-.06.33-.17.46-.11.13-.25.21-.42.22-1.05.13-1.98.2-2.8.2-2.48,0-3.72-.7-3.72-2.09,0-.34.08-.7.24-1.09.11-.28.32-.42.63-.42.45,0,.67.22.67.67,0,.08-.02.18-.06.31-.04.14-.06.24-.06.32,0,.63.8.95,2.41.95.62,0,1.46-.07,2.49-.21.21-.03.39.03.55.16s.24.31.24.51ZM102.48,73.4c0,.2-.07.36-.22.5-.15.14-.32.21-.52.2-1.44-.1-2.93-.07-4.47.1-.2.02-.37-.04-.51-.18-.14-.14-.22-.3-.22-.5,0-.18.06-.33.17-.45s.26-.2.43-.22c1.86-.16,3.41-.21,4.65-.17.19,0,.35.08.48.22s.2.3.2.49ZM101.81,70.95c0,.15-.05.28-.16.38-.11.11-.24.16-.38.16-.22,0-.39-.08-.49-.25-.27-.43-.56-.8-.87-1.11-.1-.1-.15-.23-.15-.38,0-.37.18-.56.55-.56.16,0,.3.07.42.21.39.44.72.85.98,1.23.07.11.11.21.11.31ZM103.52,70.15c0,.15-.05.28-.16.38s-.24.16-.38.16c-.21,0-.38-.08-.49-.25-.31-.46-.6-.84-.87-1.13-.1-.11-.15-.23-.15-.35,0-.37.19-.56.56-.56.14,0,.27.06.41.2.33.33.66.74.99,1.25.07.13.1.23.1.31Z"/>
      <path class="cls-1" d="M109.48,75.58c-.36.89-.68,1.77-.94,2.66-.13.45-.39.67-.77.67-.41,0-.68-.26-.8-.77-.25-1.05-.38-2.31-.38-3.77,0-1.58.16-3.31.48-5.21.06-.39.29-.59.69-.59.21,0,.39.08.54.25.15.17.2.36.16.57-.36,2.13-.55,3.83-.55,5.11v.81c0,.3.09.45.24.45.13,0,.24-.12.34-.36l.08-.21c.08-.21.23-.31.45-.31.14,0,.26.05.36.15s.15.22.15.36c0,.06-.01.12-.04.18ZM117.58,71.47c0,.34-.19.57-.57.7,0,0-.35.07-1.01.18-.42.07-.63.32-.63.74v1.05c0,2.5-.93,4.32-2.8,5.46-.11.07-.23.1-.36.1-.2,0-.36-.07-.5-.21-.14-.14-.21-.31-.21-.5,0-.26.11-.46.34-.6.79-.49,1.36-1.11,1.71-1.83.31-.66.46-1.49.46-2.49v-.73c0-.48-.25-.7-.74-.67-.87.06-1.48.08-1.83.07h-.57c-.18-.01-.33-.08-.46-.21-.13-.13-.2-.28-.2-.46,0-.19.07-.35.21-.48s.3-.2.49-.19h.52c.48.02,1.1,0,1.86-.06.47-.04.69-.29.66-.76l-.08-1.51c0-.2.05-.37.19-.52.14-.15.31-.22.51-.22.19,0,.35.06.48.19s.21.28.22.47c0,.29.03.74.06,1.36.02.45.21.67.56.67.06,0,.12,0,.18-.03l.71-.17c.08-.02.14-.03.17-.03.18,0,.33.07.46.2s.2.3.2.48Z"/>
      <path class="cls-1" d="M130.81,75.99c0,1.33-.55,2.33-1.65,2.98-.88.52-1.95.78-3.21.78-1.09,0-1.95-.18-2.58-.53-.63-.35-.95-.82-.95-1.41s.22-1,.66-1.32c.39-.29.88-.43,1.46-.43.78,0,1.45.24,1.99.73.28.25.5.53.67.84s.36.46.59.46c.13,0,.28-.05.45-.14.77-.41,1.15-1.04,1.15-1.89,0-.63-.23-1.13-.69-1.48-.46-.35-1.08-.53-1.85-.52-1.98.03-3.75.67-5.31,1.92-.23.19-.42.28-.56.28-.18,0-.33-.06-.46-.19-.13-.13-.2-.28-.2-.47,0-.21.08-.37.24-.5,1.38-1.17,3.11-2.65,5.19-4.44.17-.15.25-.28.25-.41,0-.2-.18-.28-.53-.25-.63.05-1.68.12-3.16.21-.19,0-.35-.05-.49-.18-.14-.13-.21-.29-.21-.48s.06-.35.19-.48c.13-.13.28-.2.47-.2,1.77,0,3.65-.1,5.63-.28.29-.03.52.03.7.17.18.15.27.33.27.57s-.13.47-.38.67c-.95.77-1.96,1.6-3.04,2.51-.15.12-.22.24-.22.35,0,.14.1.21.31.21.06,0,.14,0,.21-.03.5-.1.98-.15,1.41-.15,1.06,0,1.92.24,2.58.73.73.54,1.09,1.33,1.09,2.35ZM125.37,78.55c.35.03.53-.11.53-.42,0-.15-.07-.29-.2-.43-.32-.35-.72-.53-1.22-.53s-.77.18-.77.55c0,.33.28.56.83.71.22.06.5.1.83.13Z"/>
      <path class="cls-1" d="M145.37,76.05c0,1.11-.42,1.96-1.27,2.56-.73.51-1.69.8-2.9.87-.19,0-.35-.05-.49-.17-.14-.13-.21-.28-.21-.47,0-.17.06-.31.17-.44.11-.13.25-.2.42-.22,1.9-.19,2.86-.9,2.86-2.13,0-.53-.22-.96-.67-1.28-.45-.32-1.03-.48-1.74-.48s-1.34.06-1.95.18c-.49.09-.73.4-.73.92v2.95c0,.81-.39,1.22-1.18,1.22s-1.52-.23-2.3-.69c-.89-.53-1.33-1.13-1.34-1.81,0-.49.26-1.02.78-1.57.52-.56,1.21-1.05,2.07-1.48.43-.21.64-.55.64-.99v-.85c0-.42-.21-.62-.64-.62-.76.02-1.34.02-1.75,0-.17,0-.31-.08-.43-.2-.12-.13-.18-.27-.18-.44,0-.19.07-.34.2-.47.13-.13.29-.18.48-.17.56.03,1.13.03,1.72.01.41,0,.62-.22.62-.64v-.95c0-.18.06-.33.2-.46.13-.13.28-.2.46-.2s.33.07.46.2.2.28.2.46v.77c0,.45.22.64.67.57.31-.05.68-.11,1.11-.18.2-.04.37,0,.53.13.16.13.24.29.24.5,0,.36-.18.58-.55.64-.41.06-.82.11-1.23.17-.51.12-.77.36-.77.71v.64c0,.37.17.56.5.56.06,0,.13,0,.2-.01.63-.12,1.26-.18,1.86-.18,1.13,0,2.04.24,2.74.71.8.54,1.2,1.32,1.2,2.32ZM137.54,77.36v-1.44c0-.37-.14-.56-.42-.56-.11,0-.23.04-.35.11-.86.52-1.29,1.03-1.29,1.53,0,.29.22.55.66.78.41.22.72.34.92.34.32,0,.48-.25.48-.76ZM145.62,71.48c0,.19-.07.35-.2.49s-.29.21-.48.21-.33-.06-.46-.18c-.52-.48-1.14-.91-1.85-1.29-.23-.12-.35-.31-.35-.57,0-.19.07-.35.2-.48s.28-.2.46-.2c.11,0,.21.02.31.07.78.4,1.49.88,2.13,1.43.16.14.24.31.24.52Z"/>
      <path class="cls-1" d="M156.12,73.09c0,1.47-.25,3.12-.74,4.93-.14.52-.3.9-.48,1.13-.26.34-.62.5-1.06.5-.48,0-1.13-.14-1.93-.41-.32-.1-.48-.31-.48-.63,0-.19.07-.35.2-.48.14-.13.29-.2.47-.2.08,0,.17.02.29.06.4.14.71.21.91.21.22,0,.38-.07.48-.2.07-.1.16-.31.25-.63.44-1.57.66-2.93.66-4.09,0-.45-.09-.75-.27-.9s-.51-.22-1.01-.22c-.44,0-.74.05-.9.14-.2.11-.34.31-.42.6-.61,2.03-1.44,4.08-2.49,6.15-.14.27-.36.41-.66.41-.21,0-.38-.07-.52-.22-.14-.14-.21-.32-.21-.53,0-.16.03-.28.08-.38.95-1.65,1.73-3.39,2.32-5.22.03-.09.04-.18.04-.25,0-.34-.2-.48-.6-.42-.29.04-.74.1-1.36.2-.2.03-.38-.03-.54-.16s-.25-.31-.25-.51c0-.39.2-.62.61-.67.41-.06,1.06-.14,1.95-.25.45-.05.75-.33.91-.84.03-.07.11-.53.24-1.37.06-.4.3-.6.7-.6.22,0,.4.08.54.25.13.16.19.36.15.58,0,.05-.05.25-.13.62-.06.27-.1.47-.1.6,0,.39.22.57.66.55h.21c.72-.06,1.29.07,1.72.36.48.34.73.97.73,1.89ZM160.35,74.14c0,.21-.07.38-.22.53s-.32.22-.53.22c-.34,0-.57-.16-.7-.49-.48-1.26-1.11-2.41-1.86-3.44-.08-.11-.13-.24-.13-.39,0-.2.07-.36.2-.5.13-.14.3-.21.5-.21.23,0,.42.1.57.29.85,1.11,1.55,2.35,2.12,3.71.03.07.04.16.04.28Z"/>
      <path class="cls-1" d="M165.76,75.74c-.36.89-.68,1.77-.94,2.66-.13.45-.39.67-.78.67s-.66-.26-.78-.77c-.25-1.09-.38-2.35-.38-3.77,0-1.71.16-3.44.48-5.21.08-.39.3-.59.69-.59.21,0,.39.08.54.25.14.17.2.36.16.57-.36,2.27-.55,3.97-.55,5.11v.81c0,.3.08.45.22.45.14,0,.26-.12.35-.36l.08-.21c.08-.21.23-.31.45-.31.14,0,.26.05.36.15.1.1.15.22.15.36,0,.06-.01.12-.04.18ZM173.72,71.62c0,.37-.18.6-.55.69-.22.04-.57.1-1.04.2-.42.08-.63.33-.63.74v1.05c0,1.24-.21,2.29-.62,3.14-.45.92-1.18,1.69-2.18,2.32-.1.06-.22.1-.36.1-.2,0-.36-.07-.5-.21-.14-.14-.21-.31-.21-.5,0-.26.11-.46.34-.6.79-.49,1.36-1.11,1.71-1.83.31-.66.46-1.49.46-2.49v-.73c0-.48-.25-.7-.74-.67-.87.06-1.48.08-1.83.07h-.57c-.18-.01-.33-.08-.46-.21-.13-.13-.2-.28-.2-.46,0-.19.07-.35.21-.48.14-.14.3-.2.49-.19h.52c.56.03,1.18,0,1.86-.06.47-.05.69-.3.66-.76l-.08-1.51c0-.2.05-.37.19-.52.13-.15.31-.22.51-.22.19,0,.35.06.48.19.14.13.21.28.22.47,0,.29.03.74.06,1.36.03.45.21.67.56.67.06,0,.12,0,.18-.03l.71-.17c.08-.02.14-.03.17-.03.18,0,.33.07.46.2s.2.3.2.48ZM173.58,69.94c0,.14-.05.26-.15.36s-.22.15-.37.15c-.2,0-.43-.17-.7-.52-.2-.26-.39-.52-.59-.78-.1-.1-.15-.22-.15-.35,0-.35.18-.53.53-.53.14,0,.27.07.39.2.38.43.69.82.94,1.18.07.09.1.19.1.29ZM174.89,68.89c0,.14-.05.26-.16.36-.11.1-.23.15-.37.15-.21,0-.36-.08-.46-.24-.3-.44-.57-.8-.83-1.08-.09-.1-.14-.21-.14-.34,0-.35.18-.53.53-.53.12,0,.25.07.38.2.34.34.65.73.95,1.18.06.13.1.23.1.29Z"/>
      <path class="cls-1" d="M187.55,69.76c0,.37-.25.6-.76.67-1.41.21-2.66.8-3.75,1.74s-1.64,1.94-1.64,2.99c0,1.51,1.21,2.48,3.63,2.9.4.07.6.3.6.71,0,.22-.09.41-.26.57-.17.15-.37.21-.59.16-1.45-.28-2.55-.71-3.3-1.29-1-.77-1.5-1.75-1.5-2.94,0-1.01.34-1.92,1.02-2.74.3-.35.59-.65.88-.9s.43-.45.43-.62c0-.22-.24-.32-.71-.28-1.91.17-3.47.33-4.66.49-.21.03-.38-.03-.53-.17s-.22-.31-.22-.52c0-.18.06-.33.17-.47.12-.14.26-.21.44-.22,1.72-.17,5.02-.42,9.9-.76.25,0,.46.05.62.18.16.13.24.29.24.48ZM186.79,73.89c0,.15-.05.28-.16.38-.11.11-.24.16-.38.16-.22,0-.39-.08-.49-.25-.27-.43-.56-.8-.87-1.11-.1-.1-.15-.23-.15-.38,0-.37.18-.56.55-.56.16,0,.3.07.42.21.39.44.72.85.98,1.23.07.11.11.21.11.31ZM188.5,73.09c0,.15-.05.28-.16.38-.11.11-.24.16-.38.16-.21,0-.38-.08-.49-.25-.31-.46-.6-.84-.87-1.13-.1-.11-.15-.23-.15-.35,0-.37.19-.56.56-.56.14,0,.28.07.41.2.33.33.66.74.99,1.25.07.13.1.23.1.31Z"/>
      <path class="cls-1" d="M193.68,79.23c0,.22-.07.41-.22.56-.15.15-.34.22-.56.22-.24,0-.44-.09-.6-.28-.55-.66-1.11-1.23-1.67-1.71-.18-.15-.27-.34-.27-.56s.07-.39.22-.54c.14-.14.32-.22.54-.22.19,0,.35.06.49.18.78.68,1.41,1.28,1.88,1.81.13.14.2.32.2.53Z"/>
      <path class="cls-1" d="M216.61,73.54c0,.17-.06.31-.17.43-.12.12-.26.17-.43.17h-1.4c-.37,0-.64.19-.8.56-.33.79-.83,1.54-1.51,2.23-.11.11-.17.22-.17.32,0,.15.1.26.31.34,1.12.43,2.12.85,3.01,1.25.26.12.39.32.39.6,0,.19-.07.35-.2.48-.14.14-.3.2-.48.2-.1,0-.2-.02-.29-.07-1.14-.56-2.3-1.08-3.49-1.57-.2-.07-.38-.11-.56-.11-.23,0-.49.07-.76.21-1.23.64-2.76,1.13-4.58,1.47-.19.04-.36,0-.51-.13-.15-.13-.23-.29-.23-.48,0-.35.17-.56.52-.62,1.07-.18,2.07-.43,3-.77.24-.08.36-.2.36-.35s-.13-.27-.39-.35l-.97-.29c-.52-.16-.78-.42-.78-.77,0-.2.11-.46.32-.8.17-.25.34-.5.5-.76.06-.1.1-.2.1-.28,0-.21-.14-.31-.43-.31h-2.17c-.17,0-.31-.06-.43-.17-.12-.12-.17-.26-.17-.43s.06-.31.17-.43c.12-.12.26-.18.43-.18h2.84c.48,0,.82-.21,1.04-.62.15-.28.3-.6.45-.95.11-.26.31-.39.6-.39.19,0,.34.07.47.21.13.14.19.3.19.48,0,.1-.02.19-.06.27l-.21.42c-.05.09-.07.18-.07.27,0,.21.14.32.42.32h5.54c.17,0,.31.06.43.18.12.12.17.26.17.43ZM216.21,71.83c0,.18-.06.33-.19.46s-.28.19-.46.19-.33-.06-.46-.19-.19-.28-.19-.46v-.57c0-.37-.19-.56-.56-.56h-7.92c-.38,0-.57.19-.57.56v.57c0,.18-.06.33-.19.46s-.27.19-.44.19c-.18,0-.33-.06-.46-.19s-.19-.28-.19-.46v-1.19c0-.77.38-1.15,1.15-1.15h3.37c.42,0,.63-.21.63-.63v-.38c0-.18.07-.33.2-.46.13-.13.29-.2.48-.2s.33.07.46.2c.13.13.2.29.2.46v.38c0,.42.21.63.63.63h3.36c.76,0,1.15.38,1.15,1.15v1.19ZM212.33,74.8c.06-.09.08-.19.08-.28,0-.25-.17-.38-.5-.38h-2.11c-.44,0-.78.19-1.01.56-.28.44-.45.7-.5.78-.11.16-.17.29-.17.39,0,.17.13.29.39.36.38.11.81.25,1.27.41.18.07.35.1.5.1.3,0,.57-.12.83-.36.5-.47.9-.99,1.22-1.58Z"/>
      <path class="cls-1" d="M220.78,73.06c-.26,1.75-.66,3.37-1.2,4.86-.11.32-.33.48-.66.48-.2,0-.36-.07-.5-.21-.14-.14-.21-.3-.21-.49,0-.07.02-.16.06-.25.53-1.3.93-2.82,1.2-4.58.06-.36.28-.55.66-.55.2,0,.36.07.5.22.14.15.19.32.16.52ZM228.18,76.71c-.11,1.33-.3,2.18-.57,2.53-.32.41-.96.62-1.92.62h-1.65c-.78,0-1.29-.11-1.51-.32-.26-.23-.39-.75-.39-1.55v-6.1c0-.19.07-.35.2-.48s.3-.2.48-.2.35.07.48.2c.14.14.2.3.2.48v5.91c0,.35.04.58.13.67s.31.14.69.14h.97c.63,0,1.04-.11,1.2-.33s.28-.78.34-1.67c0-.18.08-.32.21-.44.13-.12.28-.17.46-.17.2,0,.36.07.5.22.14.15.2.32.18.51ZM227.04,70.1c0,.19-.07.34-.2.47-.13.13-.3.19-.48.19-.12,0-.22-.02-.31-.07-1.04-.57-2.17-1.05-3.39-1.44-.31-.1-.46-.31-.46-.63,0-.19.07-.34.2-.47.13-.13.28-.19.46-.19.06,0,.12,0,.18.03,1.04.32,2.25.81,3.61,1.48.26.13.39.34.39.63ZM231.05,77.14c0,.19-.07.36-.22.51-.14.15-.31.23-.5.23-.35,0-.58-.17-.69-.52-.4-1.36-.99-2.76-1.76-4.2-.06-.1-.08-.21-.08-.32,0-.19.07-.35.2-.48s.29-.2.48-.2c.27,0,.47.11.6.34.76,1.31,1.41,2.79,1.95,4.44.02.09.03.16.03.2Z"/>
      <path class="cls-1" d="M43.47,90.95c0,.13-.04.26-.11.38-.63,1.04-1.4,1.86-2.28,2.48-1,.68-2.06,1.02-3.18,1.02-2.46,0-3.68-1.11-3.68-3.33,0-.91.02-2.1.06-3.57.03-1.19.05-2.49.07-3.89,0-.2.07-.37.22-.51.15-.14.32-.22.52-.22s.38.07.53.22.22.33.21.53l-.17,7.13c0,1.47.77,2.2,2.32,2.2.83,0,1.63-.29,2.39-.88.65-.48,1.23-1.13,1.72-1.95.14-.23.35-.35.63-.35.21,0,.38.07.52.22s.22.32.22.52Z"/>
      <path class="cls-1" d="M57.99,84.76c0,.37-.25.6-.76.67-1.41.21-2.66.8-3.75,1.74-1.09.95-1.64,1.94-1.64,2.99,0,1.47,1.21,2.43,3.63,2.9.4.07.6.31.6.71,0,.22-.09.41-.26.56-.17.15-.37.21-.6.17-1.35-.23-2.44-.65-3.26-1.26-1.03-.75-1.54-1.74-1.54-2.97,0-.99.34-1.9,1.02-2.74.27-.34.57-.64.9-.91.28-.23.42-.43.42-.6,0-.22-.24-.32-.71-.28-1.46.13-3.01.29-4.66.49-.21.03-.38-.03-.53-.17-.15-.14-.22-.31-.22-.52,0-.18.06-.33.17-.46.12-.13.26-.21.44-.22,1.69-.17,4.99-.42,9.9-.76.25-.02.46.04.62.16s.24.29.24.5Z"/>
      <path class="cls-1" d="M72.65,88.95c0,.17-.06.31-.17.43s-.25.18-.41.18-.3-.06-.41-.18-.17-.26-.17-.43v-.52c0-.38-.19-.57-.57-.57h-4.87c-.38,0-.57.19-.57.57v.45c.06-.04.14-.06.24-.06h4.66c.71,0,1.06.27,1.06.8,0,.19-.05.38-.14.57-.33.69-.75,1.33-1.27,1.9-.14.15-.21.29-.21.43,0,.18.1.32.31.43.56.31,1.19.57,1.9.8.31.09.46.3.46.63,0,.19-.06.34-.19.46-.13.12-.27.18-.44.18-.08,0-.16-.01-.24-.04-.92-.35-1.71-.73-2.37-1.15-.23-.15-.46-.22-.67-.22s-.46.08-.7.24c-.66.43-1.44.82-2.34,1.16-.07.03-.14.04-.21.04-.17,0-.31-.06-.44-.18-.13-.12-.19-.27-.19-.43,0-.3.14-.49.43-.59.68-.23,1.33-.53,1.95-.88.21-.12.31-.27.31-.45,0-.13-.06-.28-.18-.43-.43-.54-.77-1.12-1.02-1.72-.12-.3-.31-.46-.55-.49-.25-.03-.39-.17-.44-.43-.09.07-.2.1-.31.1-.09,0-.18-.02-.25-.06-.04.18-.15.31-.34.41-.03.02-.2.08-.52.2-.42.15-.63.44-.63.87v2.62c0,.52-.1.9-.31,1.13-.21.23-.57.35-1.08.35h-.59c-.17,0-.31-.06-.43-.17-.12-.12-.18-.26-.18-.43s.06-.31.18-.43c.12-.12.27-.18.43-.18h.27c.21,0,.34-.05.39-.15.06-.1.08-.27.08-.5v-1.89c0-.34-.15-.5-.45-.5-.06,0-.11,0-.17.01l-.35.07c-.2.04-.37,0-.53-.13-.16-.12-.24-.28-.24-.49,0-.36.18-.58.53-.64.11-.02.28-.05.52-.1.46-.1.69-.39.69-.85v-1.34c0-.37-.19-.56-.56-.56h-.46c-.17,0-.31-.06-.43-.18-.12-.12-.18-.27-.18-.43s.06-.31.18-.43.27-.18.43-.18h.46c.37,0,.56-.19.56-.56v-1.53c0-.18.06-.33.18-.45.12-.12.27-.18.45-.18.17,0,.31.06.43.19.12.13.18.27.18.44v1.53c0,.37.19.56.56.56h.27c.17,0,.31.06.43.18.12.12.18.27.18.43s-.06.31-.18.43-.27.18-.43.18h-.27c-.37,0-.56.19-.56.56v1.04c0,.34.14.5.42.5.07,0,.15-.01.22-.04.18-.06.35-.05.5.01v-.92c0-.77.38-1.15,1.15-1.15h3.63c.46,0,.79-.19,1.01-.58s.43-.83.64-1.34c.11-.26.3-.39.56-.39.18,0,.33.06.45.18.12.12.18.27.18.43,0,.09-.02.19-.07.28-.11.22-.28.53-.49.91-.06.1-.08.2-.08.28,0,.15.08.22.25.22.77,0,1.15.38,1.15,1.15v1.04ZM71.64,83.5c0,.31-.15.5-.43.56-1.45.33-3.36.59-5.74.8-.17.02-.31-.03-.43-.14-.12-.11-.18-.25-.18-.42,0-.15.05-.28.15-.39.1-.11.23-.17.38-.18,2.05-.12,3.91-.38,5.57-.77h.13c.37-.01.56.17.56.55ZM66.83,86.13c0,.16-.06.29-.17.4-.11.11-.25.16-.41.16-.21,0-.38-.09-.49-.28-.07-.12-.22-.34-.43-.66-.07-.09-.1-.2-.1-.32,0-.15.05-.28.16-.39.11-.11.24-.17.4-.17.18,0,.32.07.43.21.21.27.39.51.52.73.06.09.08.2.08.32ZM69.88,90.4c.06-.1.08-.19.08-.27,0-.17-.15-.25-.46-.25h-1.67c-.29,0-.43.11-.43.34,0,.07.02.16.07.25.21.38.46.73.73,1.04.12.14.26.21.41.21.14,0,.28-.07.41-.21.42-.45.71-.82.87-1.11ZM69.25,85.98c0,.15-.06.28-.17.4-.11.12-.25.18-.42.18-.24,0-.42-.11-.52-.32-.12-.26-.25-.5-.38-.71-.05-.07-.07-.17-.07-.29,0-.16.06-.29.17-.4.11-.11.25-.16.41-.16.23,0,.4.09.49.27l.42.78c.05.08.07.17.07.27Z"/>
      <path class="cls-1" d="M86.8,85.33c0,.16-.05.29-.16.4-.11.11-.24.16-.38.16h-1.68c-.4,0-.73.2-.99.59l-.03.04c-.05.09-.07.18-.07.27,0,.21.14.32.42.32h2c.14,0,.26.05.36.15s.15.22.15.36-.05.26-.15.36c-.1.1-.22.15-.36.15h-4.2c-.33,0-.49.11-.49.34s.16.35.49.35h3.4c.14,0,.26.05.36.15.1.1.15.22.15.36s-.05.26-.15.36c-.1.1-.22.15-.36.15h-3.4c-.33,0-.49.12-.49.36s.16.38.49.38h4.44c.15,0,.28.05.38.15.1.1.15.23.15.38s-.05.28-.15.38c-.1.11-.23.16-.38.16h-3.18c-.21,0-.31.07-.31.2,0,.09.06.17.18.24.94.54,2.04,1.05,3.29,1.54.26.1.39.28.39.55,0,.17-.06.31-.18.42-.12.11-.25.17-.41.17-.08,0-.16-.01-.22-.04-1.48-.61-2.75-1.26-3.82-1.97-.12-.08-.23-.13-.34-.13-.22,0-.34.16-.34.49v1.47c0,.18-.06.33-.19.45-.13.12-.27.18-.44.18s-.31-.06-.44-.18c-.13-.12-.19-.27-.19-.45v-1.44c0-.32-.11-.48-.32-.48-.11,0-.23.04-.35.13-1.01.67-2.26,1.32-3.77,1.93-.07.03-.14.04-.22.04-.16,0-.3-.06-.41-.17-.12-.11-.18-.25-.18-.42,0-.29.13-.48.39-.57,1.24-.45,2.34-.95,3.3-1.51.12-.07.18-.15.18-.24,0-.13-.1-.2-.31-.2h-3.16c-.15,0-.28-.05-.38-.16-.1-.11-.15-.24-.15-.38s.05-.28.15-.38c.1-.1.23-.15.38-.15h4.35c.33,0,.49-.13.49-.38s-.16-.36-.49-.36h-3.18c-.13,0-.24-.05-.34-.15-.1-.1-.15-.22-.15-.36s.05-.26.15-.36c.1-.1.21-.15.34-.15h3.18c.33,0,.49-.12.49-.35s-.16-.34-.49-.34h-4.13c-.14,0-.26-.05-.36-.15-.1-.1-.15-.22-.15-.37,0-.14.05-.26.15-.36.1-.1.22-.15.36-.15h2c.28,0,.42-.1.42-.31,0-.08-.03-.18-.08-.28l-.03-.06c-.19-.38-.52-.57-1.01-.57h-1.57c-.15,0-.28-.05-.39-.16-.11-.11-.17-.24-.17-.4,0-.15.06-.28.17-.38s.24-.16.39-.16h.81c.28,0,.42-.1.42-.31,0-.08-.02-.17-.07-.27l-.15-.32c-.04-.06-.06-.15-.06-.25,0-.37.19-.56.56-.56.23,0,.4.1.5.31.1.21.25.49.43.87.16.35.36.53.62.53.37,0,.56-.19.56-.56v-.83c0-.17.06-.31.17-.43s.26-.17.43-.17.31.06.43.17.18.26.18.43v.83c0,.37.19.56.56.56h.32c.37,0,.56-.19.56-.56v-.83c0-.17.06-.31.17-.43s.26-.17.43-.17.31.06.43.17.18.26.18.43v.83c0,.37.19.56.56.56.26,0,.48-.15.64-.46.17-.3.31-.61.43-.93.1-.25.28-.38.55-.38.17,0,.31.06.41.17.11.11.16.25.16.41,0,.11-.02.2-.06.27l-.18.34c-.06.09-.08.18-.08.27,0,.21.14.32.43.32h.84c.15,0,.28.05.38.15.11.1.16.23.16.39ZM82.2,86.48c.05-.09.07-.18.07-.27,0-.21-.14-.32-.42-.32h-2.44c-.28,0-.42.11-.42.32,0,.08.02.17.07.27l.03.04c.26.39.59.59.99.59h1.09c.4,0,.73-.2.99-.59l.03-.04Z"/>
      <path class="cls-1" d="M91.8,84.27c-.37,2.14-.56,4.16-.56,6.06,0,1.33.05,2.45.15,3.35.03.21-.03.41-.18.57s-.33.25-.55.25c-.2,0-.36-.07-.5-.2-.14-.13-.22-.29-.24-.48-.09-.9-.14-2.03-.14-3.42,0-2.07.2-4.2.59-6.4.07-.4.31-.6.71-.6.22,0,.41.09.55.26.15.17.2.37.16.59ZM100.3,92.81c0,.17-.06.32-.18.46-.12.14-.27.21-.43.23-1.21.16-2.23.24-3.04.24-2.47,0-3.71-.75-3.71-2.24,0-.42.12-.85.35-1.29.13-.25.33-.38.59-.38.46,0,.69.22.69.66,0,.09-.03.23-.08.41-.06.18-.08.33-.08.44,0,.38.23.65.69.8.39.14,1.01.21,1.86.21.69,0,1.54-.08,2.55-.24.21-.04.4.02.57.16.16.15.25.32.25.54ZM99.81,85.41c0,.18-.06.33-.18.46s-.26.21-.44.24c-1.05.15-2.17.22-3.35.22-.52,0-1.09-.02-1.71-.06-.18,0-.33-.08-.46-.22s-.2-.3-.2-.48c0-.21.08-.38.23-.51s.33-.19.52-.17c.52.05,1.08.07,1.67.07,1.05,0,2.09-.08,3.09-.24.21-.04.4.01.57.15.16.14.25.32.25.53Z"/>
      <path class="cls-1" d="M115.2,94.24c0,.19-.07.34-.2.47-.13.13-.29.19-.48.19s-.34-.06-.46-.18c-.55-.56-1-1.05-1.34-1.48-.17-.21-.34-.31-.52-.31-.2,0-.38.11-.55.34-.4.53-.83,1.02-1.27,1.47-.12.12-.28.18-.46.18s-.33-.06-.46-.18-.19-.27-.19-.45c0-.17.07-.32.21-.45.64-.6,1.19-1.2,1.62-1.81.15-.2.22-.4.22-.6,0-.16-.05-.34-.15-.55-.63-1.29-1.07-2.8-1.33-4.55-.03-.18.02-.33.13-.46s.26-.2.44-.2c.33,0,.51.16.56.48.18,1.29.47,2.42.87,3.39.07.18.17.27.29.27.13,0,.23-.09.29-.28.39-1.07.66-2.23.8-3.46,0-.1.01-.19.01-.27,0-.21-.05-.34-.15-.4-.1-.06-.26-.09-.48-.09h-2.69c-.17,0-.31-.06-.43-.18-.12-.12-.17-.27-.17-.43,0-.1.02-.19.06-.25-.09.06-.19.08-.29.08-.32,0-.48.19-.48.56v9.51c0,.17-.06.31-.18.43-.12.12-.27.18-.45.18-.17,0-.31-.06-.43-.18-.12-.12-.18-.27-.18-.43v-1.46c0-.34-.15-.5-.45-.5-.05,0-.1,0-.17.01-1.06.21-2.23.41-3.49.59-.19.03-.35-.02-.5-.15-.15-.13-.22-.28-.22-.47,0-.35.25-.57.76-.64.35-.06.53-.26.53-.6v-6.29c0-.37-.19-.56-.56-.56h-.15c-.16,0-.3-.06-.41-.17s-.17-.25-.17-.41.06-.3.17-.41.25-.17.41-.17h5.96c.16,0,.3.06.41.17s.18.25.18.41c0,.1-.02.19-.06.25.1-.06.21-.08.31-.08h3.46c.79,0,1.19.38,1.19,1.15,0,.11,0,.21-.01.28-.27,2.08-.74,3.84-1.4,5.26-.09.2-.14.37-.14.53,0,.22.14.51.43.85.43.51.93,1.04,1.51,1.57.15.14.22.3.22.49ZM107.37,85.54v-.46c0-.37-.19-.56-.56-.56h-1.16c-.37,0-.56.19-.56.56v.46c0,.37.19.56.56.56h1.16c.37,0,.56-.19.56-.56ZM107.37,88.21v-.46c0-.37-.19-.56-.56-.56h-1.16c-.37,0-.56.19-.56.56v.46c0,.37.19.56.56.56h1.16c.37,0,.56-.19.56-.56ZM107.37,90.82v-.42c0-.37-.19-.56-.56-.56h-1.16c-.37,0-.56.19-.56.56v.71c0,.35.18.52.53.52.1,0,.52-.07,1.26-.21.33-.07.49-.27.49-.6Z"/>
      <path class="cls-1" d="M122.01,88.33c-.49.83-.89,1.64-1.22,2.42-.14.34-.38.5-.71.5-.47,0-.74-.24-.81-.73-.08-.55-.13-1.38-.13-2.48s.16-2.42.48-3.93c.09-.46.34-.69.73-.69.2,0,.36.07.49.2.13.14.2.3.2.5,0,.06,0,.11-.01.17-.34,1.54-.51,2.7-.53,3.49,0,.31.06.46.21.46.12,0,.25-.11.39-.34l.07-.11c.09-.15.23-.22.42-.22.34,0,.5.17.5.5,0,.09-.02.18-.07.25ZM126.83,88.4c0,1.58-.28,2.87-.85,3.88-.6,1.05-1.58,1.93-2.94,2.65-.1.06-.21.08-.34.08-.2,0-.36-.08-.5-.23-.14-.15-.21-.33-.21-.53,0-.26.13-.46.39-.6,1.14-.6,1.94-1.32,2.39-2.16.43-.77.64-1.82.64-3.15,0-1.2-.13-2.62-.38-4.24-.04-.21.02-.41.17-.58.15-.17.33-.26.55-.26.18,0,.33.06.47.18.14.12.22.27.25.45.24,1.75.36,3.25.36,4.51Z"/>
      <path class="cls-1" d="M137.15,89.42c0,.35-.21.54-.63.59-.12,0-.26-.07-.42-.25s-.34-.25-.53-.22l-.32.04c-.35.05-.52.25-.52.6v4.38c0,.17-.06.31-.19.44s-.27.19-.44.19c-.18,0-.33-.06-.46-.19s-.19-.27-.19-.44v-4.17c0-.43-.2-.61-.59-.53-.32.06-.79.1-1.41.13-.17,0-.31-.04-.44-.16-.13-.12-.19-.26-.19-.43,0-.32.16-.51.49-.57.23-.05.46-.16.67-.34.07-.06.27-.27.6-.63.11-.13.17-.26.17-.39,0-.14-.06-.28-.18-.41-.17-.18-.63-.61-1.4-1.3-.14-.12-.21-.27-.21-.46,0-.18.06-.33.19-.46s.29-.18.5-.15c.11.02.21.05.28.1.2.13.36.12.49-.04.42-.5.82-1.07,1.2-1.69.11-.18.28-.27.5-.27.17,0,.31.06.43.18s.17.27.17.43c0,.14-.04.27-.13.38-.46.61-.88,1.14-1.26,1.6-.12.14-.18.28-.18.41s.06.26.18.38c.12.12.24.18.37.18.14,0,.28-.07.42-.22.1-.12.52-.66,1.25-1.62.13-.17.29-.25.48-.25.17,0,.31.06.43.17.12.12.17.26.17.43,0,.13-.04.25-.13.35-.91,1.13-1.73,2.11-2.48,2.94-.09.1-.14.2-.14.29,0,.17.13.24.38.21l.78-.08c.2-.02.29-.1.29-.24,0-.06-.03-.13-.08-.21l-.07-.1c-.06-.07-.08-.17-.08-.29,0-.16.06-.29.17-.4.11-.11.25-.16.41-.16.2,0,.35.08.48.25.34.47.7,1.04,1.09,1.72.06.1.08.2.08.29ZM132.75,91.16c-.15.85-.36,1.67-.63,2.45-.1.28-.3.42-.59.42-.17,0-.31-.06-.43-.18-.12-.12-.18-.25-.18-.41,0-.07.01-.15.04-.22.28-.72.49-1.47.64-2.25.06-.32.25-.48.57-.48.18,0,.32.07.43.2.11.14.15.29.13.47ZM137.02,92.81c0,.37-.19.56-.56.56-.29,0-.48-.14-.56-.41-.19-.61-.35-1.25-.5-1.93-.04-.17,0-.32.11-.45.11-.13.25-.2.42-.2.29,0,.47.15.53.45.06.3.24.9.53,1.79.02.09.03.15.03.18ZM143.99,94.2c0,.17-.06.31-.17.43s-.26.18-.43.18h-6.54c-.17,0-.31-.06-.43-.18s-.17-.26-.17-.43.06-.31.17-.43.26-.17.43-.17h.32c.37,0,.56-.19.56-.56v-8.46c0-.77.38-1.16,1.15-1.16h2.62c.77,0,1.15.39,1.15,1.16v8.46c0,.37.19.56.56.56h.18c.17,0,.31.06.43.17s.17.26.17.43ZM141.4,86.26v-1.06c0-.38-.19-.57-.57-.57h-1.29c-.37,0-.56.19-.56.57v1.06c0,.37.19.56.56.56h1.3c.37,0,.56-.19.56-.56ZM141.4,89.51v-.99c0-.37-.19-.56-.56-.56h-1.3c-.37,0-.56.19-.56.56v.99c0,.37.19.56.56.56h1.3c.37,0,.56-.19.56-.56ZM141.4,93.04v-1.27c0-.37-.19-.56-.56-.56h-1.3c-.37,0-.56.19-.56.56v1.27c0,.37.19.56.56.56h1.3c.37,0,.56-.19.56-.56Z"/>
      <path class="cls-1" d="M156.54,92.43c0,1.02-.59,1.7-1.78,2.06-.69.21-1.83.31-3.43.31-1.05,0-1.81-.08-2.28-.24-.82-.28-1.21-.84-1.16-1.69.02-.37-.16-.57-.53-.6-.53-.05-.95-.25-1.24-.6-.29-.35-.44-.8-.44-1.36,0-.64.19-1.26.57-1.86.42-.65.97-1.02,1.67-1.09.26-.03.44-.06.54-.1.1-.04.15-.14.15-.29,0-.47-.24-.69-.71-.67-.44.02-.95.03-1.53.03-.19,0-.34-.07-.48-.2s-.2-.3-.2-.48.07-.35.22-.48c.14-.14.31-.2.5-.19.51.03,1.02.03,1.53.01.45,0,.67-.25.67-.73v-.53c0-.2.07-.36.2-.5s.3-.21.5-.21.36.07.5.21.21.31.21.5v.28c0,.44.19.66.57.66.14,0,.33-.03.58-.1.25-.07.44-.1.57-.1.19,0,.35.07.48.2.13.13.2.29.2.49,0,.37-.19.6-.57.67s-.77.14-1.16.22c-.45.13-.67.39-.67.77v.94c0,.23.05.63.15,1.19.03.15.04.32.04.5,0,.48-.14,1.06-.43,1.76-.28.7-.43,1.18-.43,1.44,0,.37.25.62.76.73.29.07.78.1,1.48.1,2.3,0,3.46-.39,3.46-1.16,0-.42-.07-1.03-.22-1.82-.05-.22,0-.42.15-.59s.33-.25.57-.25c.38,0,.62.19.7.56.2.88.29,1.63.29,2.25ZM148.85,89.41c0-.6-.27-.9-.8-.9-.34,0-.62.21-.84.63-.19.35-.28.72-.28,1.09,0,.56.28.84.83.84.36,0,.65-.23.85-.69.16-.35.24-.68.24-.98ZM157.17,86.71c0,.2-.07.36-.2.5-.14.14-.3.21-.5.21s-.35-.06-.48-.2c-.47-.47-1.04-.9-1.68-1.29-.21-.12-.31-.31-.31-.56,0-.19.07-.35.2-.48.14-.14.3-.2.48-.2.11,0,.23.04.35.11.65.39,1.29.85,1.9,1.39.15.13.22.3.22.52Z"/>
      <path class="cls-1" d="M170.53,93.05c0,.4-.19.63-.57.7-1.53.27-2.95.41-4.27.41s-2.34-.11-3.11-.32c-1.25-.35-1.88-1.03-1.88-2.03,0-.68.44-1.47,1.33-2.35.12-.12.27-.18.46-.18.18,0,.33.06.46.19s.2.28.2.46c0,.16-.06.3-.18.43-.5.52-.76.96-.76,1.3,0,.77,1.19,1.16,3.56,1.16,1.13,0,2.45-.14,3.95-.43.21-.04.39.01.56.15.17.14.25.31.25.53ZM169,85.81c-.78.31-1.74.83-2.86,1.55-.11.07-.22.11-.32.11-.16,0-.3-.06-.41-.17-.12-.12-.17-.26-.17-.43,0-.21.09-.38.28-.49l.18-.11c.18-.1.27-.21.27-.31,0-.12-.14-.18-.41-.18-1.03.02-2.17,0-3.44-.08-.18,0-.33-.08-.46-.21s-.19-.28-.19-.46c0-.2.07-.36.22-.5.15-.14.32-.2.51-.19,2.23.13,4.4.14,6.5.04.27,0,.49.06.65.2s.25.31.25.5c0,.33-.2.57-.59.73Z"/>
      <path class="cls-1" d="M184.4,93.41c0,.4-.2.63-.6.69-1.54.21-3.08.32-4.62.32-2.74,0-4.12-.83-4.12-2.48,0-1.01.71-2.05,2.11-3.14.28-.21.42-.46.42-.74,0-.13-.03-.27-.08-.42-.41-1.04-.75-2.15-1.02-3.35,0-.05-.01-.1-.01-.15,0-.21.07-.38.22-.52.14-.14.32-.22.53-.22.18,0,.33.06.47.18.14.12.22.27.26.45.18.93.43,1.87.77,2.81.11.31.29.46.53.46.13,0,.27-.04.41-.13.08-.05,1.12-.61,3.09-1.69.12-.07.23-.1.34-.1.2,0,.36.07.5.21.13.14.2.31.2.5,0,.29-.13.5-.39.63-1.15.57-2.39,1.24-3.72,2.02-.85.5-1.53.96-2.03,1.39-.73.63-1.09,1.19-1.09,1.71,0,.84.88,1.26,2.63,1.26,1.45,0,2.92-.13,4.41-.38.21-.04.39.01.56.15.17.14.25.32.25.53Z"/>
      <path class="cls-1" d="M195.98,88.18c0,1.51-.25,3.15-.74,4.93-.15.53-.31.91-.49,1.13-.25.34-.6.5-1.05.5-.51,0-1.16-.14-1.93-.41-.32-.11-.48-.32-.48-.63,0-.19.07-.35.2-.48.14-.13.29-.2.47-.2.08,0,.14,0,.2.03.49.16.82.24,1.01.24.22,0,.38-.07.48-.2.07-.09.16-.3.25-.63.44-1.5.66-2.87.66-4.09,0-.45-.09-.75-.27-.9s-.51-.22-1.01-.22h-.2c-.08,0-.15.01-.21.01-.47,0-.77.24-.91.73-.62,2.12-1.46,4.17-2.49,6.15-.14.27-.36.41-.66.41-.21,0-.38-.07-.52-.22-.14-.14-.21-.32-.21-.53,0-.15.03-.27.08-.38.88-1.54,1.65-3.28,2.32-5.22.03-.09.04-.18.04-.25,0-.34-.2-.48-.6-.42-.29.05-.74.11-1.36.2-.2.03-.38-.03-.54-.16s-.25-.31-.25-.51c0-.39.21-.62.62-.68.41-.06,1.06-.14,1.95-.25.45-.04.75-.32.91-.84.08-.46.16-.91.24-1.37.07-.4.3-.6.7-.6.22,0,.4.08.54.25.13.16.18.36.15.58,0,.05-.05.25-.13.62-.06.25-.1.45-.1.6,0,.39.22.57.66.55h.21c.71-.06,1.28.07,1.72.36.49.34.73.97.73,1.89ZM197.85,85.11c0,.15-.05.28-.16.38s-.24.16-.38.16c-.22,0-.39-.08-.49-.25-.27-.43-.56-.8-.87-1.11-.1-.1-.15-.23-.15-.38,0-.37.18-.56.55-.56.16,0,.3.07.42.21.39.44.72.85.98,1.23.07.11.11.21.11.31ZM198.75,90.01c-.39-1.02-.92-2.01-1.58-2.98-.07-.11-.11-.24-.11-.38,0-.2.07-.36.22-.5s.31-.2.51-.2c.23,0,.42.1.57.31.74,1.04,1.33,2.11,1.79,3.22.04.09.06.19.06.28,0,.2-.08.37-.25.52-.16.15-.35.22-.55.22-.31,0-.53-.16-.66-.49ZM199.56,84.31c0,.15-.05.28-.16.39s-.24.16-.38.16c-.21,0-.38-.08-.49-.25-.31-.46-.6-.83-.87-1.13-.1-.11-.15-.23-.15-.35,0-.37.19-.56.56-.56.14,0,.28.07.41.2.33.33.66.74.99,1.25.07.13.1.23.1.31Z"/>
      <path class="cls-1" d="M213.31,84.76c0,.37-.25.6-.76.67-1.41.21-2.66.8-3.75,1.74s-1.64,1.94-1.64,2.99c0,1.51,1.21,2.48,3.63,2.9.4.07.6.3.6.71,0,.22-.09.41-.26.57-.17.15-.37.21-.59.16-1.45-.28-2.55-.71-3.3-1.29-1-.77-1.5-1.75-1.5-2.94,0-1.01.34-1.92,1.02-2.74.3-.35.59-.65.88-.9s.43-.45.43-.62c0-.22-.24-.32-.71-.28-1.91.17-3.47.33-4.66.49-.21.03-.38-.03-.53-.17s-.22-.31-.22-.52c0-.18.06-.33.17-.47.12-.14.26-.21.44-.22,1.72-.17,5.02-.42,9.9-.76.25,0,.46.05.62.18.16.13.24.29.24.48ZM212.55,88.89c0,.15-.05.28-.16.38-.11.11-.24.16-.38.16-.22,0-.39-.08-.49-.25-.27-.43-.56-.8-.87-1.11-.1-.1-.15-.23-.15-.38,0-.37.18-.56.55-.56.16,0,.3.07.42.21.39.44.72.85.98,1.23.07.11.11.21.11.31ZM214.26,88.09c0,.15-.05.28-.16.38-.11.11-.24.16-.38.16-.21,0-.38-.08-.49-.25-.31-.46-.6-.84-.87-1.13-.1-.11-.15-.23-.15-.35,0-.37.19-.56.56-.56.14,0,.28.07.41.2.33.33.66.74.99,1.25.07.13.1.23.1.31Z"/>
      <path class="cls-1" d="M227.2,86.95c0,.3-.14.5-.43.6-.62.21-1.18.38-1.68.5-.3.07-.45.22-.45.43,0,.12.05.25.14.38.46.63.88,1.18,1.27,1.62.13.15.2.32.2.5,0,.21-.07.4-.22.55-.15.15-.33.23-.55.23-.11,0-.22-.02-.32-.06-1.24-.49-2.41-.74-3.5-.74-1.79,0-2.69.42-2.69,1.27s1.13,1.25,3.39,1.25c.77,0,1.65-.05,2.63-.15.19-.02.35.03.5.16s.22.28.22.47c0,.38-.2.59-.59.63-.89.09-1.82.14-2.8.14-3.15,0-4.72-.82-4.72-2.46s1.26-2.45,3.78-2.45c.59,0,1.27.09,2.06.27.08.02.14.03.2.03.19,0,.28-.06.28-.2,0-.09-.05-.2-.14-.32-.05-.06-.17-.24-.38-.52-.25-.35-.56-.52-.94-.52-.11,0-.24,0-.38.03-1.3.18-2.72.26-4.27.24-.17,0-.31-.06-.43-.18-.12-.12-.17-.27-.17-.43s.06-.31.18-.44c.12-.13.27-.18.43-.18,1.16.04,2.39-.01,3.71-.15.35-.04.53-.18.53-.42,0-.11-.04-.22-.11-.32-.22-.38-.55-.55-.97-.5-.8.09-1.73.14-2.77.14-.16,0-.3-.06-.43-.18-.13-.12-.19-.26-.19-.42,0-.17.06-.31.19-.43s.27-.17.43-.17c.77,0,1.49-.01,2.16-.07.39-.04.59-.16.59-.38,0,0-.08-.21-.25-.62-.03-.07-.04-.14-.04-.22,0-.19.06-.35.2-.48s.29-.2.49-.2c.31,0,.52.15.63.45.04.11.1.28.2.52.14.35.37.53.7.53.08,0,.17-.01.27-.04.65-.17,1.31-.37,1.96-.6.08-.03.14-.04.21-.04.18,0,.33.06.46.18s.19.27.19.45c0,.32-.15.52-.45.62-.69.22-1.3.4-1.82.52-.34.07-.5.23-.5.46,0,.1.04.21.11.31l.03.04c.2.3.43.45.71.45.07,0,.15,0,.24-.03.74-.18,1.43-.39,2.07-.63.05-.02.11-.03.2-.03.18,0,.33.06.46.18.13.12.19.27.19.45Z"/>
      <path class="cls-1" d="M37.8,108.03c0,.2-.07.36-.2.5-.14.14-.3.2-.5.2-.13,0-.25-.03-.36-.1-.93-.55-1.76-.97-2.49-1.25-.09-.04-.18-.06-.25-.06-.27,0-.43.19-.48.56-.07.56-.26.98-.56,1.25-.47.42-1.3.63-2.51.63-.77,0-1.4-.14-1.9-.43-.62-.36-.92-.91-.92-1.62,0-.81.39-1.41,1.16-1.78.58-.28,1.33-.42,2.24-.42.1,0,.26,0,.48.01.49.02.73-.19.73-.62v-.39c0-.47-.24-.7-.71-.69-.99.03-1.94.04-2.86.03-.17,0-.31-.06-.43-.19s-.17-.27-.17-.44.06-.31.19-.43c.13-.12.27-.17.44-.17.91.02,1.86.02,2.84,0,.46,0,.69-.25.69-.71v-.06c0-.48-.24-.71-.73-.69-1.13.05-2.2.06-3.21.03-.17,0-.31-.08-.43-.2-.12-.13-.18-.27-.18-.44,0-.18.07-.33.2-.45.13-.12.28-.18.46-.17,1.04.03,2.11.03,3.19,0,.46,0,.69-.23.69-.67,0-.04,0-.25-.01-.63,0-.19.07-.35.2-.48.13-.14.29-.2.48-.2s.35.07.48.2c.13.13.2.3.2.48v.48c0,.49.24.72.73.67.72-.08,1.5-.17,2.35-.29.19-.03.35.02.5.15.15.13.22.28.22.47,0,.35-.18.55-.55.6-1.01.13-1.86.23-2.56.29-.45.05-.67.29-.67.73v.04c0,.5.24.72.73.67.49-.05,1.18-.14,2.06-.27.19-.03.35.02.5.15s.22.28.22.47c0,.36-.18.57-.53.62-.75.1-1.52.19-2.31.27-.45.04-.67.28-.67.73v.63c0,.51.26.85.77,1.02.95.31,1.99.76,3.12,1.36.24.13.36.34.36.62ZM32.19,107.49c.07-.47-.12-.72-.56-.76-.21-.02-.41-.03-.6-.03-1.34,0-2.02.32-2.02.97,0,.26.13.47.38.63.26.16.6.24,1.02.24.62,0,1.06-.07,1.32-.22.25-.14.41-.42.46-.83Z"/>
      <path class="cls-1" d="M51.87,105.95c0,.13-.04.26-.11.38-.63,1.04-1.4,1.86-2.28,2.48-1,.68-2.06,1.02-3.18,1.02-2.46,0-3.68-1.11-3.68-3.33,0-.9.02-2.09.06-3.57.03-1.19.05-2.49.07-3.89,0-.2.07-.37.22-.51.15-.14.32-.22.52-.22s.38.08.53.22.22.33.21.53l-.17,7.13c0,1.47.77,2.2,2.32,2.2.83,0,1.63-.29,2.39-.88.65-.49,1.23-1.13,1.72-1.95.14-.23.35-.35.63-.35.21,0,.38.07.52.22.14.14.22.32.22.52Z"/>
      <path class="cls-1" d="M62.05,101.25c-.68.13-1.37.24-2.07.32-.38.05-.66.15-.83.29-.17.15-.3.41-.39.77-.52,2.21-1.17,4.33-1.95,6.37-.12.31-.35.46-.69.46-.21,0-.38-.07-.52-.22-.14-.14-.21-.31-.21-.51,0-.09.02-.19.06-.28.79-1.88,1.44-3.86,1.95-5.96.02-.08.03-.14.03-.21,0-.33-.2-.49-.59-.48-.39,0-.75,0-1.08,0-.19,0-.35-.08-.48-.22-.14-.13-.2-.3-.2-.48s.07-.36.22-.5c.14-.14.31-.21.51-.2.53.02.96.02,1.29.01.52-.02.82-.28.9-.77.03-.21.07-.51.14-.92.07-.41.3-.61.71-.61.2,0,.36.07.5.21.14.14.21.3.21.49,0,.09-.04.33-.11.7,0,.07-.01.13-.01.18,0,.37.21.53.62.46.06,0,.38-.08.98-.2.45-.08.76-.13.92-.13.2,0,.36.07.48.21.13.14.19.31.19.5,0,.38-.19.61-.57.69ZM66.48,108.61c0,.4-.2.63-.59.69-.89.13-1.82.2-2.8.2-2.48,0-3.72-.69-3.72-2.09,0-.32.08-.68.24-1.09.11-.28.32-.42.63-.42.44,0,.66.22.66.67,0,.08-.01.18-.04.32-.03.13-.04.24-.04.31,0,.63.8.95,2.39.95.7,0,1.53-.07,2.49-.21.21-.03.39.03.55.16.16.14.24.31.24.51ZM66.08,103.4c0,.2-.08.36-.22.5-.15.14-.32.21-.52.2-1.39-.07-2.88-.04-4.47.1-.2.02-.37-.04-.51-.17-.14-.13-.22-.3-.22-.5,0-.18.06-.33.17-.45s.26-.2.43-.22c1.58-.16,3.13-.21,4.65-.17.19,0,.35.08.48.22.14.14.2.3.2.49Z"/>
      <path class="cls-1" d="M72.61,108.31c0,.57-.2,1.05-.6,1.45s-.89.59-1.46.59-1.05-.2-1.45-.59c-.4-.4-.6-.88-.6-1.45s.2-1.05.6-1.46c.4-.4.88-.6,1.45-.6s1.05.2,1.46.6.6.89.6,1.46ZM71.61,108.31c0-.3-.1-.55-.31-.76-.21-.21-.46-.31-.76-.31s-.54.1-.74.31c-.21.21-.31.46-.31.75s.1.53.31.74c.21.2.45.3.74.3s.55-.1.76-.29c.21-.2.31-.44.31-.74Z"/>
      <path class="cls-1" d="M91.58,106.41c0,.19-.07.35-.2.48s-.29.2-.47.2h-.63c-.42,0-.63.21-.63.63v.94c0,.2-.07.37-.22.51-.15.15-.31.22-.51.22s-.37-.07-.51-.22c-.15-.14-.22-.31-.22-.51v-.94c0-.42-.21-.63-.63-.63h-3.47c-.83,0-1.25-.29-1.25-.88,0-.27.11-.55.32-.85l4.31-6.08c.31-.43.7-.64,1.16-.64.3,0,.54.1.73.3.19.2.28.47.28.82v5.38c0,.42.21.63.63.63h.63c.18,0,.33.07.47.2.14.13.2.29.2.46ZM88.19,105.12v-3.84c0-.26-.06-.39-.18-.39-.08,0-.17.06-.25.18l-2.83,4c-.13.19-.2.33-.2.43,0,.16.19.24.56.24h2.27c.42,0,.63-.21.63-.63Z"/>
      <path class="cls-1" d="M106.95,104.73c0,1.5-.04,2.49-.13,2.95-.23,1.33-.78,1.99-1.65,1.99-.49,0-1.09-.07-1.78-.21-.35-.08-.53-.29-.53-.63,0-.18.06-.33.19-.46.13-.13.27-.19.44-.19.13,0,.32.03.58.08.26.06.45.08.58.08.39,0,.64-.21.76-.63.13-.48.2-1.52.2-3.12v-.25c0-.36-.06-.6-.19-.71s-.4-.17-.83-.17h-1.48c-.39,0-.62.2-.67.6-.15,1.08-.41,2.01-.77,2.79-.54,1.14-1.37,2.08-2.48,2.83-.09.07-.21.1-.36.1-.19,0-.34-.06-.47-.19s-.19-.28-.19-.47c0-.23.09-.42.28-.55.79-.56,1.4-1.2,1.82-1.93.39-.67.67-1.51.83-2.51.07-.45-.12-.67-.59-.67h-2.04c-.18,0-.33-.06-.45-.19s-.18-.28-.18-.46.06-.31.18-.43c.12-.12.27-.18.45-.18h2.16c.41,0,.62-.21.63-.62,0-.48.01-.8.01-.98s.06-.33.19-.46c.13-.13.28-.2.47-.2.18,0,.33.07.46.2.13.13.2.29.2.47v.95c0,.42.21.63.62.63h2.3c.98,0,1.47.49,1.47,1.47v1.05Z"/>
      <path class="cls-1" d="M120.99,107.96c0,.79-.15,1.33-.46,1.61-.3.28-.87.42-1.69.42h-1.39c-.17,0-.31-.06-.43-.19-.12-.13-.18-.28-.18-.46s.06-.32.18-.44c.12-.12.27-.17.43-.17h1.22c.4,0,.67-.07.8-.2.13-.13.2-.39.2-.78v-1.32c0-.42-.21-.63-.63-.63h-4.4c-.38,0-.61.2-.67.59-.21,1.27-.66,2.39-1.34,3.37-.15.21-.35.32-.59.32-.2,0-.36-.07-.5-.21-.14-.14-.21-.3-.21-.49,0-.13.04-.26.13-.38.91-1.35,1.36-2.96,1.36-4.83v-4.52c0-.95.48-1.43,1.43-1.43h5.32c.95,0,1.43.48,1.43,1.43v8.3ZM119.67,100.83v-.66c0-.46-.23-.69-.69-.69h-4.17c-.46,0-.69.23-.69.69v.66c0,.37.19.56.56.56h4.42c.37,0,.56-.19.56-.56ZM119.67,104.02v-.87c0-.37-.19-.56-.56-.56h-4.42c-.37,0-.56.19-.56.56v.87c0,.37.19.56.56.56h4.42c.37,0,.56-.19.56-.56Z"/>
      <path class="cls-1" d="M130.22,101.69c0,.75-.37,1.12-1.12,1.12h-2.13c-.37,0-.56.19-.56.56v6.15c0,.18-.07.33-.2.46-.13.13-.28.19-.46.19s-.33-.06-.46-.19c-.13-.13-.2-.28-.2-.46v-10.21c0-.75.37-1.12,1.12-1.12h2.88c.75,0,1.12.37,1.12,1.12v2.38ZM128.96,99.63c0-.26-.13-.39-.39-.39h-1.76c-.26,0-.39.13-.39.39s.14.41.42.41h1.71c.28,0,.42-.14.42-.41ZM128.96,101.41h0c0-.29-.14-.43-.42-.43h-1.71c-.28,0-.42.14-.42.41s.14.42.42.42h1.74c.26,0,.39-.13.39-.39ZM133.6,107.61c0,.75-.37,1.12-1.12,1.12h-3.23c-.75,0-1.12-.37-1.12-1.12v-2.84c0-.75.37-1.12,1.12-1.12h3.23c.75,0,1.12.37,1.12,1.12v2.84ZM132.43,105.28v-.17c0-.31-.18-.46-.53-.46h-2.04c-.35,0-.53.15-.53.46v.17c0,.28.14.42.42.42h2.27c.28,0,.42-.14.42-.42ZM132.43,107.22v-.21c0-.28-.14-.42-.42-.42h-2.27c-.28,0-.42.14-.42.42v.21c0,.31.18.46.53.46h2.04c.35,0,.53-.15.53-.46ZM136.71,108.2c0,.71-.11,1.19-.34,1.44-.23.25-.68.37-1.35.37h-1.2c-.16,0-.3-.06-.41-.17-.12-.12-.17-.25-.17-.41,0-.17.06-.31.17-.43.12-.12.25-.17.41-.17h.73c.34,0,.56-.05.68-.16.12-.11.18-.34.18-.69v-4.59c0-.37-.19-.56-.56-.56h-2.21c-.75,0-1.12-.37-1.12-1.12v-2.38c0-.75.37-1.12,1.12-1.12h2.97c.75,0,1.12.37,1.12,1.12v8.89ZM135.4,99.63c0-.26-.13-.39-.39-.39h-1.85c-.26,0-.39.13-.39.39s.14.41.42.41h1.79c.28,0,.42-.14.42-.41ZM135.4,101.38c0-.27-.14-.41-.42-.41h-1.79c-.28,0-.42.14-.42.42h0c0,.28.13.41.39.41h1.82c.28,0,.42-.14.42-.42Z"/>
      <path class="cls-1" d="M142.47,109.22c0,.22-.07.41-.22.56-.15.15-.34.22-.56.22-.24,0-.44-.09-.6-.28-.55-.66-1.11-1.23-1.67-1.71-.18-.15-.27-.34-.27-.56s.07-.39.22-.54c.14-.14.32-.22.54-.22.19,0,.35.06.49.18.78.68,1.41,1.28,1.88,1.81.13.14.2.32.2.53Z"/>
      <path class="cls-1" d="M164.84,105.77c0,1.19-.42,2.15-1.26,2.86-.73.62-1.72,1.02-2.97,1.19-.2.03-.37-.03-.52-.16-.15-.13-.23-.3-.23-.5,0-.38.19-.61.56-.67,2-.34,3-1.27,3-2.77,0-1.04-.42-1.76-1.27-2.18-.11-.06-.22-.08-.32-.08-.24,0-.44.15-.59.46-.61,1.27-1.3,2.38-2.09,3.32-1.2,1.44-2.4,2.16-3.6,2.16-.62,0-1.09-.18-1.44-.53s-.51-.83-.51-1.43c0-1.06.31-2.03.94-2.9.48-.66,1.07-1.2,1.78-1.62.42-.25.64-.6.67-1.05v-.27c.03-.43-.17-.64-.59-.64-.52,0-1.12,0-1.78-.01-.18,0-.33-.07-.45-.2-.13-.13-.19-.28-.19-.46s.07-.33.2-.46c.13-.13.3-.19.48-.18.86.04,1.5.05,1.92.04.38,0,.6-.21.66-.6l.08-.6c.06-.41.28-.62.66-.62.2,0,.37.08.52.25.15.17.21.34.18.52l-.04.27c-.04.22,0,.4.1.52.1.12.27.17.49.15.96-.07,2.04-.2,3.25-.38.2-.03.37.02.53.15.15.13.23.3.23.5,0,.38-.2.6-.59.64-1.47.18-2.67.29-3.6.35-.44.03-.67.23-.7.6-.02.22.03.38.15.48.12.1.29.13.51.1.36-.05.68-.07.94-.07,1.43,0,2.56.27,3.4.81,1,.65,1.5,1.66,1.5,3.01ZM156.45,107.81c.42-.22.61-.67.56-1.33,0-.42-.02-.83-.03-1.25-.04-.65-.16-.98-.36-.98-.13,0-.28.07-.45.22-.36.32-.66.72-.88,1.2-.24.51-.36,1.03-.36,1.54,0,.55.23.83.69.83.26,0,.54-.08.84-.24ZM159.97,103.68c.05-.09.07-.18.07-.25,0-.23-.14-.34-.43-.32-.43.03-.75.1-.95.22-.29.17-.44.45-.45.84,0,.35,0,.76.01,1.2,0,.28.11.42.29.42.13,0,.25-.08.36-.24.42-.59.78-1.21,1.09-1.88Z"/>
      <path class="cls-1" d="M172.3,103.33c-.49.83-.89,1.64-1.22,2.42-.14.34-.38.5-.71.5-.47,0-.74-.24-.81-.73-.08-.55-.13-1.38-.13-2.48s.16-2.42.48-3.93c.09-.46.34-.69.73-.69.2,0,.36.07.49.2.13.14.2.3.2.5,0,.06,0,.11-.01.17-.34,1.54-.51,2.7-.53,3.49,0,.31.06.46.21.46.12,0,.25-.11.39-.34l.07-.11c.09-.15.23-.22.42-.22.34,0,.5.17.5.5,0,.09-.02.18-.07.25ZM177.12,103.4c0,1.58-.29,2.87-.85,3.88-.6,1.05-1.58,1.93-2.94,2.65-.1.06-.21.08-.34.08-.2,0-.36-.08-.5-.23-.14-.15-.21-.33-.21-.52,0-.26.13-.46.39-.6,1.14-.6,1.94-1.32,2.39-2.16.43-.77.64-1.82.64-3.15,0-1.2-.13-2.62-.38-4.24-.04-.21.02-.41.17-.58.15-.17.33-.26.55-.26.18,0,.33.06.47.18.14.12.22.27.25.45.24,1.75.36,3.25.36,4.51Z"/>
      <path class="cls-1" d="M189.7,103.18c0,1.51-.25,3.15-.74,4.93-.15.53-.31.91-.49,1.13-.25.34-.6.5-1.05.5-.51,0-1.16-.13-1.93-.41-.32-.11-.48-.32-.48-.63,0-.19.07-.35.2-.48s.29-.2.47-.2c.08,0,.14,0,.2.03.49.16.82.24,1.01.24.22,0,.38-.07.48-.2.07-.09.16-.3.25-.63.44-1.5.66-2.87.66-4.09,0-.45-.09-.75-.27-.9s-.51-.22-1.01-.22h-.2c-.08,0-.15.01-.21.01-.47,0-.77.24-.91.73-.62,2.12-1.46,4.17-2.49,6.15-.14.27-.36.41-.66.41-.21,0-.38-.07-.52-.22-.14-.14-.21-.32-.21-.53,0-.15.03-.28.08-.38.88-1.54,1.65-3.28,2.32-5.22.03-.09.04-.18.04-.25,0-.34-.2-.48-.6-.42-.29.05-.74.11-1.36.2-.2.03-.38-.03-.54-.16-.16-.14-.25-.31-.25-.51,0-.39.21-.62.62-.68.41-.06,1.06-.14,1.95-.25.45-.04.75-.32.91-.84.08-.46.16-.91.24-1.37.07-.4.3-.6.7-.6.22,0,.4.08.54.25.13.16.18.36.15.58,0,.05-.05.25-.13.62-.06.25-.1.45-.1.6,0,.39.22.57.66.55h.21c.71-.06,1.28.07,1.72.36.49.34.73.97.73,1.89ZM191.58,100.11c0,.15-.05.28-.16.38s-.24.16-.38.16c-.22,0-.39-.08-.49-.25-.27-.43-.56-.8-.87-1.11-.1-.1-.15-.23-.15-.38,0-.37.18-.56.55-.56.16,0,.3.07.42.21.39.44.72.85.98,1.23.07.11.11.21.11.31ZM192.47,105.01c-.39-1.02-.92-2.01-1.58-2.98-.07-.11-.11-.24-.11-.38,0-.2.07-.36.22-.5.14-.14.31-.2.51-.2.23,0,.42.1.57.31.74,1.04,1.33,2.11,1.79,3.22.04.09.06.19.06.28,0,.2-.08.37-.25.52s-.35.22-.55.22c-.31,0-.53-.16-.66-.49ZM193.29,99.31c0,.15-.05.28-.16.39s-.24.16-.38.16c-.21,0-.38-.08-.49-.25-.31-.46-.6-.83-.87-1.13-.1-.11-.15-.23-.15-.35,0-.37.19-.56.56-.56.14,0,.28.07.41.2.33.33.66.74.99,1.25.07.13.1.23.1.31Z"/>
      <path class="cls-1" d="M206.4,108.41c0,.4-.2.63-.6.69-1.54.21-3.08.32-4.62.32-2.74,0-4.12-.83-4.12-2.48,0-1.01.71-2.05,2.11-3.14.28-.21.42-.46.42-.74,0-.13-.03-.27-.08-.42-.41-1.04-.75-2.15-1.02-3.35,0-.05-.01-.1-.01-.15,0-.21.07-.38.22-.52s.32-.22.53-.22c.18,0,.33.06.47.18s.22.27.26.45c.18.93.43,1.87.77,2.81.11.31.29.46.53.46.13,0,.27-.04.41-.13.08-.05,1.12-.61,3.09-1.69.12-.07.23-.1.34-.1.2,0,.36.07.5.21.13.14.2.31.2.5,0,.29-.13.5-.39.63-1.15.57-2.39,1.24-3.72,2.02-.85.49-1.53.96-2.03,1.39-.73.62-1.09,1.19-1.09,1.71,0,.84.88,1.26,2.63,1.26,1.45,0,2.92-.13,4.41-.38.21-.04.39.01.56.15.17.14.25.32.25.53Z"/>
      <path class="cls-1" d="M220.24,104.44c0,1.44-.61,2.66-1.82,3.65-.97.81-2.24,1.42-3.81,1.83-.08.02-.13.03-.17.03-.19,0-.35-.07-.48-.2-.13-.14-.2-.3-.2-.5,0-.35.16-.56.49-.66,1.2-.35,2.19-.81,2.95-1.4,1.03-.77,1.54-1.68,1.54-2.72,0-1.25-.63-1.88-1.89-1.88s-2.88.33-4.77.99c-.08.03-.16.04-.22.04-.19,0-.35-.07-.49-.21-.14-.14-.21-.31-.21-.5,0-.34.17-.57.5-.67,2.19-.66,3.95-.99,5.26-.99,1.04,0,1.85.27,2.42.8.6.56.9,1.35.9,2.38ZM218.61,99.54c0,.21-.08.38-.22.51-.15.14-.32.19-.52.17-1.89-.17-3.39-.4-4.48-.7-.35-.09-.52-.32-.52-.67,0-.2.07-.36.2-.5s.3-.2.5-.2c.06,0,.12,0,.18.03,1.24.34,2.65.56,4.21.67.18,0,.33.08.46.22.13.14.19.29.19.47Z"/>
      <path class="cls-1" d="M234.67,108.05c0,.39-.19.62-.57.7-1.47.27-2.9.41-4.27.41s-2.34-.11-3.11-.32c-1.25-.36-1.88-1.03-1.88-2.03,0-.68.44-1.46,1.33-2.35.12-.12.28-.18.46-.18.18,0,.33.06.46.19s.2.28.2.46c0,.17-.06.31-.18.43-.5.5-.76.94-.76,1.3,0,.78,1.19,1.16,3.56,1.16.93,0,2.25-.14,3.95-.43.21-.04.39.01.56.15.17.14.25.31.25.53ZM233.14,100.81c-.7.28-1.65.8-2.86,1.55-.12.07-.23.11-.32.11-.16,0-.3-.06-.41-.17-.12-.12-.17-.26-.17-.43,0-.21.09-.38.28-.49l.18-.11c.18-.1.27-.21.27-.31,0-.12-.13-.18-.41-.18-.84,0-1.99-.03-3.44-.08-.18,0-.33-.08-.46-.21s-.19-.29-.19-.46c0-.2.07-.36.22-.5.14-.14.31-.2.51-.19,1.84.13,4,.14,6.5.04.27,0,.49.06.65.2.16.14.24.31.24.5,0,.33-.2.57-.59.73ZM234.7,103.53c0,.15-.05.28-.16.39-.11.11-.24.16-.39.16-.22,0-.39-.08-.49-.25-.27-.43-.56-.8-.87-1.11-.1-.1-.15-.23-.15-.38,0-.37.18-.56.55-.56.16,0,.3.07.42.21.39.44.72.85.98,1.23.07.11.11.21.11.31ZM236.41,102.73c0,.15-.05.28-.16.39-.11.11-.24.16-.39.16-.21,0-.38-.08-.49-.25-.31-.46-.6-.83-.87-1.13-.1-.11-.15-.23-.15-.35,0-.37.19-.56.56-.56.14,0,.27.07.41.2.33.33.66.74.99,1.25.07.13.1.23.1.31Z"/>
      <path class="cls-1" d="M248.26,100.36c0,.28-.13.48-.39.6,0,0-.55.21-1.61.62-.3.11-.45.27-.45.46,0,.11.05.23.15.36.66.9,1.35,1.7,2.06,2.41.2.2.29.42.29.66,0,.21-.08.4-.23.55-.15.15-.35.22-.58.22-.15,0-.3-.03-.46-.1-1.13-.5-2.28-.76-3.46-.76-.86,0-1.53.13-2,.39-.48.26-.71.62-.71,1.08,0,1.05,1.14,1.58,3.42,1.58.91,0,1.81-.07,2.72-.2.2-.03.37.03.52.16.15.14.23.31.23.51,0,.17-.06.31-.17.44-.12.13-.25.2-.41.22-.91.12-1.81.18-2.72.18-3.34,0-5.01-.93-5.01-2.8,0-1.02.44-1.76,1.33-2.23.68-.36,1.58-.55,2.7-.55.51,0,1.02.06,1.51.18.16.04.29.06.39.06.2,0,.29-.07.29-.21,0-.11-.06-.24-.17-.38-.36-.43-.62-.76-.78-.99-.31-.42-.67-.63-1.09-.63-.11,0-.24.01-.38.04-1.06.18-2.33.27-3.79.27-.19,0-.34-.06-.48-.2s-.2-.29-.2-.48.07-.34.2-.48.29-.2.48-.2c1.01,0,2.04-.06,3.08-.18.33-.04.49-.18.49-.42,0-.12-.04-.25-.13-.38l-.48-.78c-.07-.11-.1-.23-.1-.35,0-.19.07-.35.2-.48s.3-.2.48-.2c.28,0,.49.12.62.36.32.62.52.98.6,1.09.3.43.62.64.95.64.11,0,.24-.02.38-.06.58-.18,1.16-.4,1.74-.67.09-.05.19-.07.29-.07.19,0,.34.07.48.2.13.14.2.3.2.48ZM249.33,99.56c0,.14-.05.26-.15.36-.1.1-.22.15-.37.15-.2,0-.43-.17-.7-.52-.2-.26-.39-.52-.59-.78-.1-.1-.15-.22-.15-.35,0-.35.18-.53.53-.53.14,0,.27.07.39.2.38.43.7.82.94,1.18.07.09.1.19.1.29ZM250.97,98.79c0,.14-.05.26-.16.36s-.23.15-.37.15c-.21,0-.36-.08-.46-.24-.3-.44-.57-.8-.83-1.08-.09-.1-.14-.21-.14-.34,0-.35.18-.53.53-.53.12,0,.25.07.38.2.34.34.65.73.95,1.18.07.13.1.23.1.29Z"/>
      <path class="cls-1" d="M35.32,121.75c-.82,1.61-1.61,2.42-2.37,2.42-.93,0-1.66-.83-2.17-2.49-.4-1.29-.6-2.75-.6-4.38,0-.84.03-1.56.08-2.17.02-.2.1-.36.23-.49s.3-.2.5-.2c.21,0,.39.08.54.25.14.16.21.35.19.57-.07.62-.1,1.35-.1,2.17,0,1.07.12,2.14.35,3.19.26,1.17.61,1.75,1.04,1.75.31,0,.66-.42,1.05-1.26.12-.25.33-.38.63-.38.2,0,.36.07.5.2s.2.3.2.5c0,.12-.02.23-.07.32ZM41.39,121.31c.03.22-.03.42-.18.6-.15.18-.34.27-.57.27-.2,0-.37-.07-.52-.2-.15-.13-.23-.29-.25-.48-.23-2.12-.92-4-2.06-5.66-.08-.12-.13-.26-.13-.41,0-.21.07-.38.21-.52.14-.14.31-.21.52-.21.25,0,.45.1.6.31,1.29,1.79,2.08,3.89,2.38,6.29Z"/>
      <path class="cls-1" d="M54.97,123.03c0,.2-.07.36-.2.5-.14.14-.3.2-.5.2-.13,0-.25-.03-.36-.1-.93-.55-1.76-.97-2.49-1.25-.09-.04-.18-.06-.25-.06-.27,0-.43.19-.48.56-.07.56-.26.98-.56,1.25-.47.42-1.3.63-2.51.63-.77,0-1.4-.14-1.9-.43-.62-.36-.92-.91-.92-1.62,0-.81.39-1.41,1.16-1.78.58-.28,1.33-.42,2.24-.42.1,0,.26,0,.48.01.49.02.73-.19.73-.62v-.39c0-.47-.24-.7-.71-.69-.99.03-1.94.04-2.86.03-.17,0-.31-.06-.43-.19s-.17-.27-.17-.44.06-.31.19-.43c.13-.12.27-.17.44-.17.91.02,1.86.02,2.84,0,.46,0,.69-.25.69-.71v-.06c0-.48-.24-.7-.73-.69-1.13.05-2.2.06-3.21.03-.17,0-.31-.08-.43-.2-.12-.13-.18-.27-.18-.44,0-.18.07-.33.2-.45.13-.12.28-.18.46-.17,1.04.03,2.11.03,3.19,0,.46,0,.69-.23.69-.67,0-.04,0-.25-.01-.63,0-.19.07-.35.2-.48.13-.13.29-.2.48-.2s.35.07.48.2c.13.14.2.3.2.48v.48c0,.5.24.72.73.67.72-.08,1.5-.17,2.35-.29.19-.03.35.02.5.15.15.13.22.28.22.47,0,.36-.18.56-.55.6-1.01.13-1.86.23-2.56.29-.45.05-.67.29-.67.73v.04c0,.5.24.72.73.67.49-.05,1.18-.13,2.06-.27.19-.03.35.02.5.15.15.13.22.28.22.47,0,.36-.18.57-.53.62-.75.1-1.52.19-2.31.27-.45.04-.67.28-.67.73v.63c0,.51.26.85.77,1.02.95.31,1.99.76,3.12,1.36.24.13.36.34.36.62ZM49.35,122.49c.07-.47-.12-.72-.56-.76-.21-.02-.41-.03-.6-.03-1.34,0-2.02.32-2.02.97,0,.26.13.47.38.63.26.16.6.24,1.02.24.62,0,1.06-.07,1.32-.22.25-.14.41-.42.46-.83Z"/>
      <path class="cls-1" d="M69.04,120.95c0,.13-.04.26-.11.38-.63,1.04-1.4,1.86-2.28,2.48-1,.68-2.06,1.02-3.18,1.02-2.46,0-3.68-1.11-3.68-3.33,0-.9.02-2.09.06-3.57.03-1.19.05-2.49.07-3.89,0-.2.07-.37.22-.51.15-.14.32-.22.52-.22s.38.08.53.22c.15.15.22.33.21.53l-.17,7.13c0,1.47.77,2.2,2.32,2.2.83,0,1.63-.29,2.39-.88.65-.49,1.23-1.13,1.72-1.95.14-.23.35-.35.63-.35.21,0,.38.07.52.22.14.14.22.32.22.52Z"/>
      <path class="cls-1" d="M79.21,116.24c-.68.13-1.37.24-2.07.32-.38.05-.66.14-.83.29-.17.15-.3.41-.39.77-.52,2.21-1.17,4.33-1.95,6.37-.12.31-.35.46-.69.46-.21,0-.38-.07-.52-.22-.14-.14-.21-.31-.21-.51,0-.09.02-.19.06-.28.79-1.88,1.44-3.86,1.95-5.96.02-.07.03-.14.03-.21,0-.33-.2-.48-.59-.48-.39,0-.75,0-1.08,0-.19,0-.35-.08-.48-.22-.14-.14-.2-.3-.2-.48,0-.2.07-.36.22-.5.14-.14.31-.21.51-.2.53.02.96.02,1.29.01.52-.02.82-.28.9-.77.03-.21.07-.51.14-.92s.3-.61.71-.61c.2,0,.36.07.5.21.14.14.21.3.21.49,0,.09-.04.33-.11.7,0,.07-.01.13-.01.18,0,.37.21.53.62.46.06,0,.38-.08.98-.2.45-.08.76-.13.92-.13.2,0,.36.07.48.21s.19.31.19.5c0,.38-.19.61-.57.69ZM83.64,123.61c0,.4-.2.63-.59.69-.89.13-1.82.2-2.8.2-2.48,0-3.72-.69-3.72-2.09,0-.32.08-.68.24-1.09.11-.28.32-.42.63-.42.44,0,.66.22.66.67,0,.08-.01.18-.04.32-.03.13-.04.24-.04.31,0,.63.8.95,2.39.95.7,0,1.53-.07,2.49-.21.21-.03.39.03.55.16.16.14.24.31.24.51ZM83.25,118.4c0,.2-.08.36-.22.5-.15.14-.32.21-.52.2-1.39-.07-2.88-.04-4.47.1-.2.02-.37-.04-.51-.17-.14-.13-.22-.3-.22-.5,0-.18.06-.33.17-.46s.26-.2.43-.22c1.58-.16,3.13-.21,4.65-.17.19,0,.35.08.48.22.14.14.2.3.2.49Z"/>
      <path class="cls-1" d="M89.77,123.31c0,.57-.2,1.05-.6,1.45s-.89.59-1.46.59-1.05-.2-1.45-.59c-.4-.4-.6-.88-.6-1.45s.2-1.05.6-1.46c.4-.4.88-.6,1.45-.6s1.05.2,1.46.6.6.89.6,1.46ZM88.78,123.31c0-.3-.1-.55-.31-.76-.21-.21-.46-.31-.76-.31s-.54.1-.74.31c-.21.21-.31.46-.31.75s.1.53.31.74c.21.2.45.3.74.3s.55-.1.76-.29c.21-.2.31-.44.31-.74Z"/>
    </g>
    <g>
      <path class="cls-1" d="M183.29,150.31c0,1.14-.31,2.07-.94,2.81s-1.5,1.18-2.62,1.34c-.43.07-.82.3-1.16.7-.58.68-1.42,1.24-2.53,1.67-.08.03-.15.04-.24.04-.17,0-.32-.06-.45-.19-.13-.13-.2-.28-.2-.47,0-.31.14-.51.42-.62.53-.2.98-.44,1.36-.73.15-.11.22-.24.22-.38,0-.19-.13-.35-.39-.5-.45-.27-.83-.63-1.13-1.09-.07-.11-.11-.23-.11-.36,0-.42.21-.63.62-.63.23,0,.41.09.52.27.34.55.69.83,1.02.83.27,0,.42-.17.46-.52.05-.45.07-.88.07-1.3,0-.77-.01-1.51-.04-2.2-.02-.5-.21-.76-.56-.76-.11,0-.24.03-.38.08-.79.31-1.52.89-2.18,1.75-.63.81-1.09,1.74-1.36,2.79-.08.29-.11.64-.11,1.06,0,.2-.07.37-.2.52s-.29.22-.49.22-.34-.06-.48-.19-.2-.28-.21-.47c-.1-2.75-.06-5.25.13-7.5.02-.19.1-.34.23-.46.13-.12.3-.18.48-.18.21,0,.38.08.52.24.14.16.2.34.17.55-.1.85-.17,1.72-.21,2.6,0,.28.06.42.21.42.11,0,.23-.09.35-.27.85-1.26,1.92-2.08,3.21-2.46.49-.14.72-.42.7-.83v-.32c-.02-.21.04-.38.17-.54.13-.15.31-.23.53-.23.19,0,.35.06.49.19.14.13.21.28.22.47v.28c.03.42.27.65.71.7.91.1,1.64.44,2.2,1.01.66.67.99,1.56.99,2.67ZM181.92,150.36c0-1.29-.56-2.08-1.67-2.38-.08-.02-.15-.03-.21-.03-.36,0-.54.23-.53.7.02.91.03,1.65.03,2.23,0,.68-.02,1.2-.06,1.54-.05.41.09.62.41.62.07,0,.15-.01.24-.04,1.19-.42,1.79-1.3,1.79-2.63Z"/>
      <path class="cls-1" d="M197.19,151.55c0,2.68-1.53,4.29-4.58,4.83-.21.04-.4-.01-.57-.15-.16-.14-.25-.31-.25-.52,0-.38.18-.61.55-.67,2.29-.44,3.43-1.61,3.43-3.5,0-1.61-.66-2.61-1.99-2.98-.13-.04-.25-.06-.35-.06h-.01c-.31,0-.51.19-.6.53-.45,1.64-.98,3.02-1.58,4.13-.96,1.75-2.03,2.63-3.19,2.63-.7,0-1.27-.28-1.7-.85-.43-.57-.65-1.29-.65-2.16,0-1.36.48-2.56,1.44-3.6.29-.31.43-.62.43-.94,0-.12-.02-.25-.06-.38-.14-.56-.24-1.01-.29-1.34-.04-.21.01-.39.15-.55.14-.16.31-.25.51-.25.37,0,.59.19.66.57.04.21.09.5.15.87.07.31.22.46.46.46.1,0,.21-.02.34-.07.58-.23,1.13-.39,1.65-.46.52-.08.81-.31.88-.7.02-.15.05-.36.1-.64.07-.4.3-.6.7-.6.21,0,.39.09.53.26.14.17.19.37.15.58l-.07.39c0,.07-.01.13-.01.2,0,.33.19.54.57.63,1.06.26,1.87.78,2.41,1.55.53.74.8,1.67.8,2.79ZM188.92,154.02c.22-.21.34-.45.34-.71,0-.18-.05-.38-.15-.62-.26-.58-.51-1.21-.74-1.9-.08-.25-.22-.38-.41-.38-.13,0-.25.08-.35.24-.4.62-.6,1.33-.6,2.11,0,.45.1.84.29,1.16.21.36.49.53.83.53.22,0,.49-.14.8-.43ZM191.44,149c.02-.06.03-.13.03-.2,0-.33-.19-.46-.56-.39-.4.07-.81.2-1.22.41-.28.13-.42.34-.42.62,0,.08.02.18.06.29.18.58.36,1.11.56,1.6.11.27.25.41.42.41.13,0,.23-.08.29-.24.33-.74.61-1.57.84-2.49Z"/>
      <path class="cls-1" d="M211.08,150.94c0,2.85-1.44,4.59-4.33,5.22-.03,0-.08.01-.15.01-.19,0-.35-.06-.48-.2-.13-.13-.2-.29-.2-.49,0-.37.17-.6.5-.69,2.16-.54,3.23-1.84,3.23-3.89,0-1.07-.29-1.93-.87-2.58-.21-.24-.48-.46-.8-.64-.36-.21-.69-.31-.98-.31-.4,0-.64.23-.73.7-.35,2.04-.77,3.67-1.26,4.91-.31.78-.61,1.37-.91,1.76-.48.61-1.03.91-1.67.91-.85,0-1.53-.42-2.04-1.27-.45-.73-.67-1.54-.67-2.44,0-1.74.58-3.17,1.73-4.31,1.15-1.14,2.6-1.71,4.33-1.71,1.63,0,2.91.42,3.84,1.26.97.88,1.46,2.12,1.46,3.74ZM204.85,148.12c0-.07.01-.13.01-.2,0-.34-.16-.52-.48-.52-.11,0-.23.02-.36.07-.86.3-1.56.86-2.1,1.67-.54.82-.81,1.75-.81,2.81,0,.58.14,1.09.41,1.53s.57.67.91.67c.4,0,.83-.56,1.29-1.69.38-.95.76-2.4,1.13-4.34Z"/>
    </g>
  </g>
</svg>